<?xml version="1.0" encoding="UTF-8" standalone="no"?>
<!-- Created with Inkscape (http://www.inkscape.org/) -->

<svg
   width="1220mm"
   height="600mm"
   viewBox="0 0 1220 600.00001"
   version="1.1"
   id="svg5"
   inkscape:version="1.1.1 (3bf5ae0d25, 2021-09-20)"
   sodipodi:docname="HouseNumber.svg"
   xmlns:inkscape="http://www.inkscape.org/namespaces/inkscape"
   xmlns:sodipodi="http://sodipodi.sourceforge.net/DTD/sodipodi-0.dtd"
   xmlns="http://www.w3.org/2000/svg"
   xmlns:svg="http://www.w3.org/2000/svg">
  <sodipodi:namedview
     id="namedview7"
     pagecolor="#ffffff"
     bordercolor="#666666"
     borderopacity="1.0"
     inkscape:pageshadow="2"
     inkscape:pageopacity="0.0"
     inkscape:pagecheckerboard="true"
     inkscape:document-units="mm"
     showgrid="false"
     inkscape:snap-global="false"
     inkscape:zoom="1.7285457"
     inkscape:cx="79.546638"
     inkscape:cy="67.397697"
     inkscape:window-width="1920"
     inkscape:window-height="1017"
     inkscape:window-x="-8"
     inkscape:window-y="-8"
     inkscape:window-maximized="1"
     inkscape:current-layer="layer1" />
  <defs
     id="defs2">
    <rect
       x="287.92434"
       y="279.45598"
       width="389.5447"
       height="444.58905"
       id="rect6337" />
    <rect
       x="287.92435"
       y="279.45599"
       width="389.54471"
       height="444.58905"
       id="rect6337-2" />
  </defs>
  <g
     inkscape:label="Layer 1"
     inkscape:groupmode="layer"
     id="layer1">
    <path
       style="font-style:normal;font-variant:normal;font-weight:normal;font-stretch:normal;font-size:11.3386px;line-height:1.25;font-family:'Agency FB';-inkscape-font-specification:'Agency FB, Normal';font-variant-ligatures:normal;font-variant-caps:normal;font-variant-numeric:normal;font-variant-east-asian:normal;letter-spacing:-0.483877px;word-spacing:0px;white-space:pre;shape-inside:url(#rect6337);fill:none;stroke:#00ff00;stroke-width:1.14795;stroke-miterlimit:4;stroke-dasharray:none"
       d="m 131.86737,25.221 v 28.692775 h -9.68309 V 25.498034 Z"
       id="path29651" />
    <path
       style="font-style:normal;font-variant:normal;font-weight:normal;font-stretch:normal;font-size:11.3386px;line-height:1.25;font-family:'Agency FB';-inkscape-font-specification:'Agency FB, Normal';font-variant-ligatures:normal;font-variant-caps:normal;font-variant-numeric:normal;font-variant-east-asian:normal;letter-spacing:-0.483877px;word-spacing:0px;white-space:pre;shape-inside:url(#rect6337);fill:none;stroke:#00ff00;stroke-width:1.14795;stroke-miterlimit:4;stroke-dasharray:none"
       d="m 117.77667,25.221 v 28.692775 h -9.68369 V 25.498034 Z"
       id="path29649" />
    <path
       style="font-style:normal;font-variant:normal;font-weight:normal;font-stretch:normal;font-size:11.3386px;line-height:1.25;font-family:'Agency FB';-inkscape-font-specification:'Agency FB, Normal';font-variant-ligatures:normal;font-variant-caps:normal;font-variant-numeric:normal;font-variant-east-asian:normal;letter-spacing:-0.483877px;word-spacing:0px;white-space:pre;shape-inside:url(#rect6337);fill:none;stroke:#00ff00;stroke-width:1.14795;stroke-miterlimit:4;stroke-dasharray:none"
       d="m 181.24626,4.8380253 h 11.41945 V 26.295319 h -11.41945 z"
       id="path29647" />
    <path
       style="font-style:normal;font-variant:normal;font-weight:normal;font-stretch:normal;font-size:11.3386px;line-height:1.25;font-family:'Agency FB';-inkscape-font-specification:'Agency FB, Normal';font-variant-ligatures:normal;font-variant-caps:normal;font-variant-numeric:normal;font-variant-east-asian:normal;letter-spacing:-0.483877px;word-spacing:0px;white-space:pre;shape-inside:url(#rect6337);fill:none;stroke:#00ff00;stroke-width:1.14795;stroke-miterlimit:4;stroke-dasharray:none"
       d="M 31.013181,4.8380253 H 42.433223 V 26.295319 H 31.013181 Z"
       id="path29645" />
    <path
       style="font-style:normal;font-variant:normal;font-weight:normal;font-stretch:normal;font-size:11.3386px;line-height:1.25;font-family:'Agency FB';-inkscape-font-specification:'Agency FB, Normal';font-variant-ligatures:normal;font-variant-caps:normal;font-variant-numeric:normal;font-variant-east-asian:normal;letter-spacing:-0.483877px;word-spacing:0px;white-space:pre;shape-inside:url(#rect6337);fill:none;stroke:#0000ff;stroke-width:1.14795;stroke-miterlimit:4;stroke-dasharray:none"
       d="M 13.229096,0.57397357 0.57397357,38.220189 V 40.68145 H 15.332647 V 53.913775 H 4.9809911 c -1.0749245,0 -1.9398234,0.865493 -1.9398234,1.940415 0,1.074926 0.8648989,1.940416 1.9398234,1.940416 H 197.48561 c 1.07492,0 1.94042,-0.86549 1.94042,-1.940416 0,-1.074922 -0.8655,-1.940415 -1.94042,-1.940415 h -1.3822 c 0.0569,-0.05343 0.11486,-0.105588 0.16907,-0.163727 0.69007,-0.716416 1.03516,-1.640309 1.03516,-2.772704 V 4.4215863 c 0,-1.1323948 -0.34509,-2.0568818 -1.03516,-2.7732948 -0.66782,-0.71641281 -1.54727,-1.07431793 -2.63804,-1.07431793 h -13.35631 c -1.09078,0 -1.98118,0.35790512 -2.67126,1.07431793 -0.66782,0.716413 -1.00195,1.6409 -1.00195,2.7732948 V 26.642352 c 0,1.132394 0.33413,2.05688 1.00195,2.773295 0.69008,0.716411 1.58048,1.074318 2.67126,1.074318 h 12.38758 V 50.560907 H 181.44676 V 38.983069 h -4.64133 v 11.994275 c 0,1.132395 0.35605,2.056288 1.06838,2.772704 0.0579,0.05815 0.11884,0.110283 0.17916,0.163727 h -7.55286 c 0.0588,-0.05348 0.11834,-0.105519 0.17441,-0.163727 0.69008,-0.716416 1.03516,-1.640309 1.03516,-2.772704 V 24.596935 c 0,-1.132395 -0.34508,-2.056882 -1.03516,-2.773295 -0.69008,-0.716413 -1.58049,-1.074318 -2.67126,-1.074318 h -11.82047 l 0.56772,-15.9112967 h 14.55876 V 0.57397357 H 152.20942 L 151.60848,25.01278 h 15.45987 v 25.548127 h -10.95199 v -13.34563 h -4.64135 v 13.762067 c 0,1.132395 0.33354,2.056288 1.00136,2.772704 0.056,0.0582 0.1157,0.110249 0.1744,0.163727 H 136.3088 V 24.666342 c 0,-2.519001 -1.22453,-3.7788 -3.67321,-3.7788 -1.24659,0 -3.0834,0.161712 -5.50981,0.485252 -1.84763,0.277321 -3.70636,0.543075 -5.57625,0.797286 -0.64556,-0.855073 -1.64734,-1.282538 -3.00524,-1.282538 -1.38016,0 -3.1275,0.139118 -5.24226,0.41644 -1.73634,0.25421 -3.47272,0.496777 -5.20905,0.727878 v -0.936099 h -4.44083 V 53.913775 H 79.696812 L 101.42817,0.88600638 V 0.57397357 H 96.987342 L 75.141489,53.913775 H 74.261156 V 50.769124 H 68.584649 V 25.151593 h 5.676507 v -4.055832 h -5.676507 v -10.50352 h -4.373796 v 10.50352 h -3.906934 v 4.055832 h 3.906934 V 50.90794 c 0,1.354175 0.338052,2.353874 1.008473,3.005835 H 45.87033 c 0.05698,-0.05343 0.114864,-0.105588 0.169067,-0.163727 0.690082,-0.716416 1.035165,-1.640309 1.035165,-2.772704 V 4.4215863 c 0,-1.1323948 -0.345083,-2.0568818 -1.035165,-2.7732948 C 45.371575,0.93187869 44.49213,0.57397357 43.401355,0.57397357 H 30.045049 c -1.090771,0 -1.98118,0.35790512 -2.671261,1.07431793 -0.667821,0.716413 -1.001946,1.6409 -1.001946,2.7732948 V 26.642352 c 0,1.132394 0.334125,2.05688 1.001946,2.773295 0.690081,0.716411 1.58049,1.074318 2.671261,1.074318 H 42.433223 V 50.560907 H 31.213689 V 38.983069 h -4.641338 v 11.994275 c 0,1.132395 0.356045,2.056288 1.068386,2.772704 0.05782,0.05815 0.118831,0.110283 0.179151,0.163727 H 19.707037 V 40.68145 h 3.973375 V 36.591213 H 19.707037 V 16.901117 h -4.37439 V 36.591213 H 5.582514 L 17.603486,0.78219316 V 0.57397357 Z"
       id="text6335" />
    <text
       xml:space="preserve"
       style="font-size:2.86695px;line-height:1.25;font-family:sans-serif;letter-spacing:0px;word-spacing:0px;fill:#00ff00;fill-opacity:1;stroke:none;stroke-width:2.15027;stroke-miterlimit:4;stroke-dasharray:none"
       x="-69.582542"
       y="16.134995"
       id="text37531-6-1"><tspan
         sodipodi:role="line"
         id="tspan37529-6-0"
         style="fill:#00ff00;fill-opacity:1;stroke:none;stroke-width:2.15027;stroke-miterlimit:4;stroke-dasharray:none"
         x="-69.582542"
         y="16.134995">=pass1:800mm/min:60%:#00ff00=</tspan></text>
    <text
       xml:space="preserve"
       style="font-size:2.86695px;line-height:1.25;font-family:sans-serif;letter-spacing:0px;word-spacing:0px;fill:#0000ff;fill-opacity:1;stroke-width:2.15027;stroke-miterlimit:4;stroke-dasharray:none"
       x="-72.45575"
       y="25.457315"
       id="text37531-6-1-0"><tspan
         sodipodi:role="line"
         id="tspan37529-6-0-8"
         style="fill:#0000ff;fill-opacity:1;stroke-width:2.15027;stroke-miterlimit:4;stroke-dasharray:none"
         x="-72.45575"
         y="25.457315">=pass1:800mm/min:60%:#0000ff=</tspan></text>
  </g>
</svg>
