<?xml version="1.0" encoding="UTF-8" standalone="no"?>
<!-- Created with Inkscape (http://www.inkscape.org/) -->

<svg
   width="1220mm"
   height="600mm"
   viewBox="0 0 1220 600.00001"
   version="1.1"
   id="svg5"
   inkscape:version="1.1.1 (3bf5ae0d25, 2021-09-20)"
   sodipodi:docname="leaf.svg"
   xmlns:inkscape="http://www.inkscape.org/namespaces/inkscape"
   xmlns:sodipodi="http://sodipodi.sourceforge.net/DTD/sodipodi-0.dtd"
   xmlns="http://www.w3.org/2000/svg"
   xmlns:svg="http://www.w3.org/2000/svg">
  <sodipodi:namedview
     id="namedview7"
     pagecolor="#ffffff"
     bordercolor="#666666"
     borderopacity="1.0"
     inkscape:pageshadow="2"
     inkscape:pageopacity="0.0"
     inkscape:pagecheckerboard="true"
     inkscape:document-units="mm"
     showgrid="false"
     inkscape:zoom="0.11808658"
     inkscape:cx="3078.2499"
     inkscape:cy="283.69015"
     inkscape:window-width="1920"
     inkscape:window-height="1017"
     inkscape:window-x="-8"
     inkscape:window-y="-8"
     inkscape:window-maximized="1"
     inkscape:current-layer="layer1" />
  <defs
     id="defs2" />
  <g
     inkscape:label="Layer 1"
     inkscape:groupmode="layer"
     id="layer1">
    <path
       style="display:inline;fill:none;stroke:#ff0000;stroke-width:2.0205px;stroke-linecap:butt;stroke-linejoin:miter;stroke-opacity:1"
       d="m 348.33211,577.67197 -20.07193,-30.47952 c 0,0 -29.04668,-1.7089 -46.55259,-7.76727 -17.5059,-6.05845 -36.48154,-14.95661 -56.09115,-30.71794 -19.60962,-15.76134 -42.37863,-38.9709 -57.22098,-65.53486 -14.84236,-26.56399 -22.19947,-61.95868 -28.36147,-91.27036 -6.16207,-29.31176 -11.29389,-57.09386 -9.49862,-83.60141 1.79527,-26.50754 10.1501,-49.29324 18.50385,-72.9605 8.35375,-23.66724 25.52053,-52.58251 31.41592,-68.45482 5.89547,-15.87233 4.3965,-14.59611 7.28586,-25.24081 2.89164,-10.644101 8.91001,-25.929428 9.84059,-38.67576 0.93051,-12.74633 -3.79567,-36.577229 -3.79567,-36.577229 0,0 21.21597,33.727253 30.59585,45.850077 9.37994,12.122822 13.44579,16.792366 24.53326,27.491371 11.08749,10.698991 28.28723,21.518801 42.77748,35.517611 14.49016,13.9988 28.62775,28.02544 43.41237,48.76134 14.78455,20.73589 32.91253,50.62554 42.82612,76.32021 9.91367,25.69466 15.68535,48.45666 17.34966,75.76909 1.66437,27.31251 -4.64087,60.22259 -8.92069,85.98718 -4.27981,25.76466 -7.57153,52.30243 -15.7327,68.47364 -8.16116,16.17111 -20.16158,21.18419 -25.01537,29.16741 -4.8537,7.98316 -6.59987,16.35066 -6.59987,16.35066 l 18.93555,38.35363 z"
       id="path183548" />
    <path
       style="display:inline;fill:none;stroke:#0000ff;stroke-width:2.0205px;stroke-linecap:butt;stroke-linejoin:miter;stroke-opacity:1"
       d="m 208.54253,75.267963 c 0,0 -2.99429,14.967931 -3.20398,17.130474 -0.20924,2.162512 13.76026,78.276683 12.58927,78.292443 -3.65843,-1.43488 -31.10999,-41.84774 -31.10999,-41.84774 l -0.50249,17.99203 c 0,0 15.21235,20.53667 16.49994,21.25144 1.28753,0.715 12.12971,6.77167 19.18076,20.84954 7.05103,14.07788 12.1624,65.01163 12.1624,65.01163 l -25.85562,-23.56796 -19.97724,-33.08613 -13.51285,-38.01776 -2.77495,17.38322 10.17514,27.65473 -23.14037,1.41163 -8.95382,5.18678 c 0,0 33.62806,1.05489 34.9155,1.76971 1.28759,0.71501 32.66771,46.10076 32.66771,46.10076 0,0 12.25861,2.52572 21.37716,16.82127 9.11848,14.29591 17.09728,72.54898 17.09728,72.54898 l -40.9195,-26.42392 -33.0923,-51.76113 -16.24321,-38.74159 c 0,0 -12.13138,5.25428 -11.21355,7.34909 0.91776,2.09487 15.42441,30.75692 15.42441,30.75692 l -26.15283,-5.89835 -0.61092,10.55992 36.10849,11.52387 16.36708,31.37918 -46.9161,2.58986 19.70836,7.86921 33.31872,-2.9051 31.81309,24.79444 c 0,0 19.38732,7.65013 28.25258,20.14266 8.86525,12.49259 15.97065,54.93879 15.97065,54.93879 L 251.84524,412.88368 218.39281,392.82687 198.8084,377.59519 175.15821,356.83681 153.55813,353.2678 c 0,0 27.51297,22.90273 28.96062,24.40002 1.44774,1.49722 33.99379,29.07647 33.99379,29.07647 l 40.40207,18.96081 c 0,0 18.66268,7.51237 24.83048,14.97325 6.16786,7.46098 10.06777,27.28784 10.06777,27.28784 l -21.86415,-13.62371 -34.59318,-8.89923 -20.54013,-4.76451 -22.00619,-10.33383 -11.49572,-6.77811 -0.97435,6.3949 c 0,0 19.2213,11.06679 21.01397,12.65649 1.79268,1.5897 14.53325,6.48257 14.53325,6.48257 l 26.40528,6.33611 26.28815,8.15314 c 0,0 22.12287,11.40882 28.49601,18.54394 6.37315,7.13511 10.47801,20.92668 10.47801,20.92668 l -30.29617,-4.23552 -36.65649,-14.99891 -18.18633,-10.78949 c 0,0 -17.16447,0.57807 -15.87657,1.29247 1.28752,0.71478 43.02008,22.99039 43.02008,22.99039 l 30.21859,11.42501 c 0,0 25.91739,1.21649 33.17018,5.9297 7.2528,4.71311 10.6144,19.06474 10.6144,19.06474 l 10.05525,2.09821 c 0,0 -12.31582,-30.6618 -12.195,-40.14371 0.12066,-9.4819 13.92422,-23.7367 13.92422,-23.7367 l 16.14339,-30.97308 14.72278,-26.64729 9.52969,-26.78261 c 0,0 -14.62272,13.6926 -15.14415,14.55791 -3.99543,6.63124 -14.43839,25.82299 -15.9547,28.55435 -1.51615,2.73144 -14.93705,23.3067 -15.19853,24.28248 -0.26117,0.97596 -16.07329,26.80842 -16.07329,26.80842 l -6.99979,-17.38448 c 0,0 -7.78323,-11.22638 -5.73886,-22.25743 2.04438,-11.03104 25.71435,-36.1072 25.71435,-36.1072 l 14.71466,-33.44768 6.00118,-25.32358 5.82246,-25.63293 9.83013,-49.5399 c 0,0 -15.95218,12.86226 -16.67124,15.54562 -0.71935,2.6835 -7.82324,54.30287 -9.16092,57.34357 -1.33739,3.0408 -16.85529,44.93572 -16.85529,44.93572 l -26.18611,37.08795 c 0,0 -20.91897,-41.86009 -19.1024,-59.63701 1.8165,-17.77685 21.91196,-38.84032 21.91196,-38.84032 l 13.01296,-52.46815 16.80394,-11.97017 25.02147,-27.02533 -15.87939,0.71302 -25.87945,23.39636 -3.70118,-20.34068 26.16434,-43.97627 -22.32393,15.98199 -13.93836,23.7198 -0.19854,30.016 -1.16633,36.555 -17.71225,36.82801 -6.71289,9.31397 c 0,0 -14.92774,-36.60815 -11.55803,-48.18339 3.36961,-11.57526 16.37615,-15.84142 16.37615,-15.84142 l 10.71276,-28.13188 c 0,0 -11.86313,8.96501 -12.25771,11.81751 -0.39404,2.85249 -6.61796,12.27823 -6.61796,12.27823 l -11.69397,5.00172 -3.47959,-14.61419 13.16812,-25.68397 10.94468,-32.56588 6.88349,-22.93068 14.43587,-8.33455 11.83151,-5.90242 -25.76711,-0.0505 -4.39086,-22.25388 c 0,0 -15.79645,-10.57912 -16.00616,-8.41659 -0.20924,2.16252 11.50604,39.01164 11.50604,39.01164 l -6.79834,28.13027 -13.08237,30.8839 -8.53451,18.05092 -5.38123,-40.63825 c 0,0 -9.0099,-25.4385 -7.3407,-37.46551 1.66919,-12.02701 15.68238,-30.92677 15.68238,-30.92677 l 6.43965,-17.13312 -7.49854,-13.98756 -16.09886,-5.97992 15.83273,19.72817 -18.14088,35.46021 -5.6466,-28.91366 z"
       id="path44482" />
    <path
       style="display:inline;fill:#008080;stroke:#000000;stroke-width:2.0205px;stroke-linecap:butt;stroke-linejoin:miter;stroke-opacity:1"
       d="m 912.24557,564.34204 -20.07193,-30.47952 c 0,0 -29.04668,-1.7089 -46.55259,-7.76727 -17.5059,-6.05845 -36.48154,-14.95661 -56.09115,-30.71794 -19.60962,-15.76134 -42.37863,-38.9709 -57.22098,-65.53486 -14.84236,-26.56399 -22.19947,-61.95868 -28.36147,-91.27036 -6.16207,-29.31176 -11.29389,-57.09386 -9.49862,-83.60141 1.79527,-26.50754 10.1501,-49.29324 18.50385,-72.9605 8.35375,-23.66724 25.52053,-52.58251 31.41592,-68.45482 5.89547,-15.872328 4.3965,-14.596108 7.28586,-25.240808 2.89164,-10.644101 8.91001,-25.929428 9.84059,-38.67576 0.93051,-12.74633 -3.79567,-36.577229 -3.79567,-36.577229 0,0 21.21597,33.727253 30.59585,45.850077 9.37994,12.122822 13.44579,16.792366 24.53326,27.491371 11.08749,10.698991 28.28723,21.518799 42.77748,35.517609 14.49016,13.9988 28.62775,28.02544 43.41237,48.76134 14.78455,20.73589 32.91253,50.62554 42.82612,76.32021 9.91367,25.69466 15.68535,48.45666 17.34966,75.76909 1.66437,27.31251 -4.64087,60.22259 -8.92069,85.98718 -4.27981,25.76466 -7.57153,52.30243 -15.7327,68.47364 -8.16116,16.17111 -20.16158,21.18419 -25.01537,29.16741 -4.8537,7.98316 -6.59987,16.35066 -6.59987,16.35066 l 18.93555,38.35363 z"
       id="path183436" />
    <path
       style="display:inline;fill:#f9f9f9;stroke:#000000;stroke-width:2.0205px;stroke-linecap:butt;stroke-linejoin:miter;stroke-opacity:1"
       d="m 772.45599,61.938035 c 0,0 -2.99429,14.967931 -3.20398,17.130474 -0.20924,2.162512 13.76026,78.276681 12.58927,78.292441 -3.65843,-1.43488 -31.10999,-41.84774 -31.10999,-41.84774 l -0.50249,17.99203 c 0,0 15.21235,20.53667 16.49994,21.25144 1.28753,0.715 12.12971,6.77167 19.18076,20.84954 7.05103,14.07788 12.1624,65.01163 12.1624,65.01163 l -25.85562,-23.56796 -19.97724,-33.08613 -13.51285,-38.01776 -2.77495,17.38322 10.17514,27.65473 -23.14037,1.41163 -8.95382,5.18678 c 0,0 33.62806,1.05489 34.9155,1.76971 1.28759,0.71501 32.66771,46.10076 32.66771,46.10076 0,0 12.25861,2.52572 21.37716,16.82127 9.11848,14.29591 17.09728,72.54898 17.09728,72.54898 l -40.9195,-26.42392 -33.0923,-51.76113 -16.24321,-38.74159 c 0,0 -12.13138,5.25428 -11.21355,7.34909 0.91776,2.09487 15.42441,30.75692 15.42441,30.75692 l -26.15283,-5.89835 -0.61092,10.55992 36.10849,11.52387 16.36708,31.37918 -46.9161,2.58986 19.70836,7.86921 33.31872,-2.9051 31.81309,24.79444 c 0,0 19.38732,7.65013 28.25258,20.14266 8.86525,12.49259 15.97065,54.93879 15.97065,54.93879 l -26.14611,-11.44318 -33.45243,-20.05681 -19.58441,-15.23168 -23.65019,-20.75838 -21.60008,-3.56901 c 0,0 27.51297,22.90273 28.96062,24.40002 1.44774,1.49722 33.99379,29.07647 33.99379,29.07647 l 40.40207,18.96081 c 0,0 18.66268,7.51237 24.83048,14.97325 6.16786,7.46098 10.06777,27.28784 10.06777,27.28784 l -21.86415,-13.62371 -34.59318,-8.89923 -20.54013,-4.76451 -22.00619,-10.33383 -11.49572,-6.77811 -0.97435,6.3949 c 0,0 19.2213,11.06679 21.01397,12.65649 1.79268,1.5897 14.53325,6.48257 14.53325,6.48257 l 26.40528,6.33611 26.28815,8.15314 c 0,0 22.12287,11.40882 28.49601,18.54394 6.37315,7.13511 10.47801,20.92668 10.47801,20.92668 l -30.29617,-4.23552 -36.65649,-14.99891 -18.18633,-10.78949 c 0,0 -17.16447,0.57807 -15.87657,1.29247 1.28752,0.71478 43.02008,22.99039 43.02008,22.99039 l 30.21859,11.42501 c 0,0 25.91739,1.21649 33.17018,5.9297 7.2528,4.71311 10.6144,19.06474 10.6144,19.06474 l 10.05525,2.09821 c 0,0 -12.31582,-30.6618 -12.195,-40.14371 0.12066,-9.4819 13.92422,-23.7367 13.92422,-23.7367 l 16.14339,-30.97308 14.72278,-26.64729 9.52969,-26.78261 c 0,0 -14.62272,13.6926 -15.14415,14.55791 -3.99543,6.63124 -14.43839,25.82299 -15.9547,28.55435 -1.51615,2.73144 -14.93705,23.3067 -15.19853,24.28248 -0.26117,0.97596 -16.07329,26.80842 -16.07329,26.80842 l -6.99979,-17.38448 c 0,0 -7.78323,-11.22638 -5.73886,-22.25743 2.04438,-11.03104 25.71435,-36.1072 25.71435,-36.1072 l 14.71466,-33.44768 6.00118,-25.32358 5.82246,-25.63293 9.83013,-49.5399 c 0,0 -15.95218,12.86226 -16.67124,15.54562 -0.71935,2.6835 -7.82324,54.30287 -9.16092,57.34357 -1.33739,3.0408 -16.85529,44.93572 -16.85529,44.93572 l -26.18611,37.08795 c 0,0 -20.91897,-41.86009 -19.1024,-59.63701 1.8165,-17.77685 21.91196,-38.84032 21.91196,-38.84032 l 13.01296,-52.46815 16.80394,-11.97017 25.02147,-27.02533 -15.87939,0.71302 -25.87945,23.39636 -3.70118,-20.34068 26.16434,-43.97627 -22.32393,15.98199 -13.93836,23.7198 -0.19854,30.016 -1.16633,36.555 -17.71225,36.82801 -6.71289,9.31397 c 0,0 -14.92774,-36.60815 -11.55803,-48.18339 3.36961,-11.57526 16.37615,-15.84142 16.37615,-15.84142 l 10.71276,-28.13188 c 0,0 -11.86313,8.96501 -12.25771,11.81751 -0.39404,2.85249 -6.61796,12.27823 -6.61796,12.27823 l -11.69397,5.00172 -3.47959,-14.61419 13.16812,-25.68397 10.94468,-32.56588 6.88349,-22.93068 14.43587,-8.33455 11.83151,-5.90242 -25.76711,-0.0505 -4.39086,-22.25388 c 0,0 -15.79645,-10.57912 -16.00616,-8.41659 -0.20924,2.16252 11.50604,39.01164 11.50604,39.01164 l -6.79834,28.13027 -13.08237,30.8839 -8.53451,18.05092 -5.38123,-40.63825 c 0,0 -9.0099,-25.4385 -7.3407,-37.46551 1.66919,-12.02701 15.68238,-30.92677 15.68238,-30.92677 l 6.43965,-17.13312 -7.49854,-13.98756 -16.09886,-5.97992 15.83273,19.72817 -18.14088,35.46021 -5.6466,-28.91366 z"
       id="path44482-0" />
  </g>
</svg>
