<?xml version="1.0" encoding="UTF-8" standalone="no"?>
<!-- Created with Inkscape (http://www.inkscape.org/) -->

<svg
   width="1220mm"
   height="600mm"
   viewBox="0 0 1220 600.00001"
   version="1.1"
   id="svg5"
   inkscape:version="1.1.1 (3bf5ae0d25, 2021-09-20)"
   sodipodi:docname="leaf_02.svg"
   xmlns:inkscape="http://www.inkscape.org/namespaces/inkscape"
   xmlns:sodipodi="http://sodipodi.sourceforge.net/DTD/sodipodi-0.dtd"
   xmlns="http://www.w3.org/2000/svg"
   xmlns:svg="http://www.w3.org/2000/svg">
  <sodipodi:namedview
     id="namedview7"
     pagecolor="#ffffff"
     bordercolor="#666666"
     borderopacity="1.0"
     inkscape:pageshadow="2"
     inkscape:pageopacity="0.0"
     inkscape:pagecheckerboard="true"
     inkscape:document-units="mm"
     showgrid="false"
     inkscape:zoom="0.23617316"
     inkscape:cx="721.92793"
     inkscape:cy="836.25083"
     inkscape:window-width="1920"
     inkscape:window-height="1017"
     inkscape:window-x="-8"
     inkscape:window-y="-8"
     inkscape:window-maximized="1"
     inkscape:current-layer="layer1" />
  <defs
     id="defs2">
    <inkscape:path-effect
       effect="skeletal"
       id="path-effect135308"
       is_visible="true"
       lpeversion="1"
       pattern="M 0,0 H 1"
       copytype="single_stretched"
       prop_scale="1"
       scale_y_rel="false"
       spacing="0"
       normal_offset="0"
       tang_offset="0"
       prop_units="false"
       vertical_pattern="false"
       hide_knot="false"
       fuse_tolerance="0" />
  </defs>
  <g
     inkscape:label="Layer 1"
     inkscape:groupmode="layer"
     id="layer1">
    <path
       style="fill:none;stroke:#000000;stroke-width:0.215761px;stroke-linecap:butt;stroke-linejoin:miter;stroke-opacity:1"
       d="m 161.75221,155.22544 c -0.38078,0.88229 -2.79663,1.89051 -3.28509,2.68995 -0.48846,0.79944 0.0743,0.52973 -0.28975,1.34435 -0.36408,0.81461 -2.20719,1.26679 -2.33849,3.21859 -0.13129,1.9518 2.44468,5.50453 3.67877,6.83119 1.23409,1.32667 1.89298,1.38567 2.62683,1.66992 0.73385,0.28425 1.09321,0.063 1.58524,0.27672 0.492,0.21364 0.34799,0.58016 1.28444,0.96937 0.93644,0.38921 3.34209,0.532 4.43082,0.63028 1.08872,0.0983 1.5313,-0.08 2.08195,0.0806 0.55064,0.16069 0.83924,0.71989 1.17247,0.68554 0.33322,-0.0343 0.4837,-0.43683 0.4837,-0.43683 0,0 -0.56378,-0.59763 -0.74669,-0.8535 -0.1829,-0.25586 -2.17191,-1.29501 -2.86577,-2.06768 -0.69382,-0.77265 -0.7815,-1.47934 -1.33452,-2.3437 -0.55302,-0.86435 -1.67864,-2.0343 -2.01224,-2.81438 -0.3336,-0.78008 -0.43007,-1.21335 -0.304,-1.60217 0.12605,-0.38879 0.039,-0.63651 0.59763,-0.56376 0.55864,0.0727 0.89778,1.38126 1.34954,2.17377 0.45176,0.79251 0.7423,1.64043 1.34756,2.58456 0.60525,0.94414 1.59521,2.15987 2.33709,3.01428 0.74187,0.85438 1.26501,1.75069 2.07216,2.13472 0.80715,0.38402 1.59293,0.31065 2.37881,0.20966 0.78588,-0.10096 1.51306,-0.44697 2.2278,-0.79684 0.71473,-0.34989 1.30591,-0.90962 2.03184,-1.29352 0.72592,-0.38392 2.31376,-0.9947 2.31376,-0.9947 0,0 -2.26292,-0.7474 -2.99856,-0.94922 -0.73566,-0.20184 -2.16203,-1.11524 -3.14961,-1.95572 -0.98761,-0.84048 -2.66391,-1.86962 -3.58641,-2.43944 -0.92252,-0.56981 -1.37005,-0.47714 -1.89314,-1.05728 -0.52309,-0.58013 -1.02795,-1.73214 -0.99468,-2.31375 0.0332,-0.58161 -0.46407,-0.71214 0.48565,-0.84761 0.94974,-0.13547 2.1911,2.26075 3.44059,3.31699 1.24948,1.05625 2.83853,2.20802 4.05125,2.99411 1.2127,0.78609 2.21649,1.3024 3.16456,1.7858 0.94806,0.48339 2.50184,1.14519 2.50184,1.14519 0,0 1.68155,-1.06256 2.51555,-1.73035 0.83403,-0.66781 1.68974,-1.8377 2.46156,-2.28309 0.7718,-0.44538 1.90098,-0.58588 1.90098,-0.58588 0,0 -1.49452,-0.0397 -2.6197,-0.19666 -1.12518,-0.15689 -3.51028,-0.58337 -4.104,-0.84119 -0.59373,-0.25781 -3.05483,-0.9074 -4.201,-1.29495 -1.14616,-0.38755 -1.94219,-0.47148 -2.68672,-0.99024 -0.74455,-0.51875 -1.54057,-1.32048 -1.67634,-1.96285 -0.13579,-0.64239 -0.60822,-0.94525 0.38867,-1.30139 0.9969,-0.35616 2.77249,1.94082 4.13718,2.7962 1.36468,0.85538 2.77142,1.96238 4.04017,2.34244 1.26877,0.38007 2.03174,0.0147 3.27138,0.1856 1.23962,0.17087 3.08623,1.36636 4.13198,0.91216 1.04573,-0.45426 0.77099,-1.30202 1.32813,-2.24599 0.55713,-0.94399 2.01366,-3.41847 2.01366,-3.41847 0,0 -2.59653,0.56603 -4.05391,0.5331 -1.45737,-0.0329 -3.05448,-0.50343 -4.58575,-0.81515 -1.53129,-0.3117 -4.27393,-0.85616 -4.59878,-1.05603 -0.32485,-0.19988 -2.29565,-0.95772 -3.17955,-1.61588 -0.88391,-0.65818 -1.96005,-1.505 -2.10015,-2.20569 -0.1401,-0.7007 -0.0999,-0.94592 0.44467,-1.15946 0.54446,-0.2139 0.97907,0.47611 2.03507,1.0013 1.056,0.52517 3.03281,1.56832 4.29604,2.1595 1.26321,0.5912 2.25737,1.21746 3.26546,1.41798 1.00811,0.20053 1.58769,-0.11009 2.6067,-0.0442 1.019,0.0658 2.46325,0.44654 3.48227,0.51242 1.01901,0.0659 1.88132,0.46169 2.60668,-0.0442 0.72536,-0.50592 0.66136,-1.52268 0.97528,-2.51682 0.3139,-0.99414 0.85224,-3.45232 0.85224,-3.45232 0,0 -1.57808,1.19654 -1.94591,1.09563 -0.36783,-0.10096 -4.60268,-0.23448 -4.94252,-0.26441 -0.33984,-0.0299 -4.13212,0.0806 -5.28237,-0.29436 -1.15024,-0.37512 -1.31767,-0.68999 -1.65226,-1.0703 -0.33459,-0.38033 -0.61163,-0.58635 -0.46282,-0.96549 0.14881,-0.37913 0.4743,-0.40352 1.2773,-0.50386 0.80301,-0.10034 2.19297,0.2319 3.4543,0.44146 1.26134,0.20957 2.76611,0.64578 4.10401,0.84119 1.33789,0.19541 2.93644,0.50437 3.90804,0.34447 0.9716,-0.15991 1.44122,-0.15987 1.81702,-0.79875 0.37581,-0.63886 -0.15484,-1.31595 -0.22911,-2.45173 -0.0743,-1.13579 -0.11356,-3.27527 -0.16332,-4.36379 -0.0498,-1.0885 -0.22029,-1.53556 -0.11713,-2.16788 0.10315,-0.63233 0.61652,-1.55527 0.61652,-1.55527 0,0 -1.22132,0.64578 -1.56115,0.61583 -0.33984,-0.0299 -2.728,-1.312 -3.31949,-1.97071 -0.5915,-0.65869 0.4298,-1.04665 -0.60287,-1.32024 -1.03265,-0.27362 -2.96889,2.00947 -4.02268,2.8989 -1.05379,0.88944 -1.81347,1.7797 -2.3626,2.32604 -0.54911,0.54636 -0.60534,0.83079 -0.93943,0.94461 -0.33407,0.11381 -0.60353,0.17628 -0.77861,-0.10284 -0.17508,-0.27914 -0.0268,-0.52654 0.37369,-1.13145 0.40041,-0.6049 1.5647,-1.36902 2.37562,-2.08516 0.81091,-0.71616 1.82225,-1.67394 2.48954,-2.21212 0.66728,-0.53816 0.9973,-0.86632 1.46415,-1.06959 0.46684,-0.20327 1.21936,-0.23501 1.21936,-0.23501 0,0 -2.28701,-1.63993 -2.7258,-1.71287 -0.43878,-0.0728 -0.8644,-1.4315 -2.10405,-1.3841 -1.23964,0.0473 -2.81255,1.88346 -3.89574,3.01285 -1.08321,1.12938 -1.86822,2.47732 -2.58136,3.64239 -0.71314,1.16506 -1.21362,2.29558 -1.72983,3.30649 -0.51621,1.01092 -0.89433,2.36863 -1.37304,2.75574 -0.4787,0.38711 -0.34582,0.2805 -0.59566,0.15301 -0.24984,-0.12749 -0.39755,-0.30299 -0.39189,-0.99347 0.005,-0.69048 0.6377,-2.00995 1.17512,-2.84167 0.53744,-0.83172 1.28254,-1.27596 1.96482,-2.08713 0.68228,-0.81117 1.30661,-1.70695 2.09568,-2.79479 0.78907,-1.08781 2.62432,-3.74136 2.62432,-3.74136 l 1.67508,-0.74273 c 0,0 -1.67115,-0.0788 -2.74467,-0.72138 -1.07353,-0.64258 -2.91262,-1.14717 -3.26743,-1.00719 -0.35482,0.13996 -2.07917,1.16729 -3.3131,2.61898 -1.23391,1.45169 -2.77373,4.72855 -3.50063,6.30115 -0.72689,1.5726 -0.85194,2.11891 -1.11914,2.98359 -0.26721,0.86468 -0.0676,1.9143 -0.53454,2.17896 -0.46695,0.26467 -0.50969,0.47462 -0.93355,-0.28777 -0.42384,-0.7624 0.47352,-2.57594 1.08207,-4.11703 0.60857,-1.54108 1.67147,-3.51796 2.70115,-5.00171 1.02971,-1.48376 2.61724,-3.13665 3.38994,-3.87936 0.77269,-0.74272 1.37821,-0.8717 0.99542,-0.80269 -0.38279,0.0691 -2.40289,-0.0595 -3.41328,-0.12963 -1.01039,-0.0702 -1.91075,-0.25542 -2.6477,-0.26759 -0.73695,-0.0121 -1.52924,-0.13481 -1.75708,0.1191 -0.22789,0.25388 -1.88603,3.86004 -2.5202,5.66836 -0.63417,1.80832 -1.0934,3.69199 -1.34184,5.12154 -0.24846,1.42955 -0.11458,2.56168 -0.29954,3.3983 -0.18496,0.83663 -0.18084,1.47982 -0.58855,1.62625 -0.40771,0.14645 -0.4892,-0.0262 -0.74867,-0.44272 -0.25947,-0.41662 -0.035,-1.54423 -0.16009,-2.06894 -0.12502,-0.52471 0.46698,-4.45985 0.85098,-6.15796 0.384,-1.69811 0.58603,-3.00389 1.27998,-4.03109 0.69395,-1.02721 2.47455,-2.0422 2.47455,-2.0422 0,0 -3.22197,-0.12594 -4.39176,0.0924 -1.16981,0.21832 -1.75511,0.56851 -2.58261,0.9368 -0.82747,0.36834 -1.75401,0.29639 -2.37168,1.2636 -0.61768,0.96719 -0.29694,2.63009 -0.23249,4.19189 0.0644,1.56182 0.55192,3.84297 0.71212,5.13135 0.16018,1.28839 0.54275,2.10772 0.28512,2.59365 -0.25763,0.48596 0.0613,0.53089 -0.61068,0.32286 -0.67195,-0.20802 -1.67244,-2.78443 -1.64247,-3.12425 0.0299,-0.33984 -0.28947,-3.07857 -0.0923,-4.39177 0.19712,-1.31321 1.12111,-3.3944 1.12111,-3.3944 0,0 -2.73199,1.47755 -3.85083,2.5031 -1.11884,1.02554 -2.47518,2.54318 -2.77925,3.55647 -0.30407,1.01329 0.3598,1.02833 0.14708,1.82806 -0.21274,0.79973 -1.20688,2.20715 -1.76885,2.58385 -0.56198,0.37671 -0.36914,-0.7471 -0.90752,0.19399 -0.53834,0.94108 0.90759,4.01857 1.75962,5.29215 0.85202,1.27359 1.60693,2.02628 2.73682,2.36456 1.12988,0.33828 2.29041,-0.35773 3.43022,-0.4511 1.13984,-0.0933 2.79125,-0.66083 3.40028,-0.11125 0.609,0.54956 0.48677,0.63383 0.106,1.51612 z"
       id="path56479-8"
       sodipodi:nodetypes="zzzzzzzzzzzczzzzzzzzzzzzzczzzzzzzzzczzczzzzzzzzzzzczzzzzzzzzzzzzczzzzzzzzzzzzzczzzzzzzzzzzczzzzzzzzzzzcczzzzzzzzzzszzszzzzzzzzczzzzzzzzzczzzzzzzzzz" />
  </g>
</svg>
