<?xml version="1.0" encoding="UTF-8" standalone="no"?>
<!-- Created with Inkscape (http://www.inkscape.org/) -->

<svg
   width="1220mm"
   height="600mm"
   viewBox="0 0 1220 600.00001"
   version="1.1"
   id="svg5"
   inkscape:version="1.1.1 (3bf5ae0d25, 2021-09-20)"
   sodipodi:docname="leaf_01.svg"
   xmlns:inkscape="http://www.inkscape.org/namespaces/inkscape"
   xmlns:sodipodi="http://sodipodi.sourceforge.net/DTD/sodipodi-0.dtd"
   xmlns="http://www.w3.org/2000/svg"
   xmlns:svg="http://www.w3.org/2000/svg">
  <sodipodi:namedview
     id="namedview7"
     pagecolor="#ffffff"
     bordercolor="#666666"
     borderopacity="1.0"
     inkscape:pageshadow="2"
     inkscape:pageopacity="0.0"
     inkscape:pagecheckerboard="true"
     inkscape:document-units="mm"
     showgrid="false"
     inkscape:zoom="0.23617316"
     inkscape:cx="2305.5118"
     inkscape:cy="1132.6435"
     inkscape:window-width="1920"
     inkscape:window-height="1017"
     inkscape:window-x="-8"
     inkscape:window-y="-8"
     inkscape:window-maximized="1"
     inkscape:current-layer="layer1" />
  <defs
     id="defs2" />
  <g
     inkscape:label="Layer 1"
     inkscape:groupmode="layer"
     id="layer1">
    <path
       style="fill:none;stroke:#000000;stroke-width:0.0887824px;stroke-linecap:butt;stroke-linejoin:miter;stroke-opacity:1"
       d="m 139.62521,165.07988 c 0,0 6.53965,-4.50483 10.71375,-5.73279 4.17409,-1.22796 8.98175,-1.62993 13.90908,-1.12776 4.92733,0.50216 15.13082,4.41707 15.13082,4.41707 l -1.12775,-1.97359 c 0,0 -9.60417,-4.57523 -14.332,-5.12192 -4.72783,-0.54668 -9.29556,0.16634 -13.25122,1.50368 -3.95566,1.33734 -10.05589,6.01474 -10.05589,6.01474 z"
       id="path18060-5"
       sodipodi:nodetypes="czzcczzcc" />
    <path
       style="fill:none;stroke:#000000;stroke-width:0.121508px;stroke-linecap:butt;stroke-linejoin:miter;stroke-opacity:1"
       d="m 142.15858,140.4838 c 0,0 7.94706,-8.43927 15.94916,-11.31875 8.0021,-2.87948 31.38382,-2.3152 31.38382,-2.3152 l -1.80071,-1.92934 c 0,0 -23.42219,-2.04338 -31.12658,0.90037 -7.70439,2.94375 -14.01982,11.83324 -14.01982,11.83324 l -0.64312,2.44382 z"
       id="path18062-1"
       sodipodi:nodetypes="czcczccc" />
    <path
       style="fill:none;stroke:#000000;stroke-width:0.115487px;stroke-linecap:butt;stroke-linejoin:miter;stroke-opacity:1"
       d="m 143.22066,156.06989 c 0,0 3.70939,-3.78169 6.35693,-5.25669 2.64753,-1.47499 4.28602,-2.1397 9.41314,-3.17846 5.12713,-1.03876 14.80809,-1.67992 21.39353,-1.58924 6.58543,0.0907 17.97054,1.83373 17.97054,1.83373 0,0 1.80039,0.6506 -0.36674,-1.46698 -2.16713,-2.11759 -10.11019,-3.18785 -16.25907,-3.66746 -6.14888,-0.47961 -14.88087,0.28158 -20.29329,1.34473 -5.41241,1.06316 -9.23997,2.26501 -12.1026,4.03421 -2.86264,1.76921 -4.36799,3.79646 -5.2567,5.25669 -0.88871,1.46023 -0.85574,2.68947 -0.85574,2.68947 z"
       id="path18064-1"
       sodipodi:nodetypes="czzzczzzzzc" />
    <path
       style="fill:none;stroke:#000000;stroke-width:0.0887824px;stroke-linecap:butt;stroke-linejoin:miter;stroke-opacity:1"
       d="m 191.59704,119.92256 c 0,0 -6.53965,-4.50483 -10.71375,-5.73279 -4.17409,-1.22796 -8.98175,-1.62993 -13.90908,-1.12776 -4.92733,0.50216 -15.13082,4.41707 -15.13082,4.41707 l 1.12775,-1.97359 c 0,0 9.60417,-4.57523 14.332,-5.12192 4.72783,-0.54668 9.29556,0.16634 13.25122,1.50368 3.95566,1.33734 10.05589,6.01474 10.05589,6.01474 z"
       id="path18060-3-0"
       sodipodi:nodetypes="czzcczzcc" />
    <path
       style="fill:none;stroke:#000000;stroke-width:0.121508px;stroke-linecap:butt;stroke-linejoin:miter;stroke-opacity:1"
       d="m 145.70157,95.326481 c 0,0 7.94706,-8.43927 15.94916,-11.31875 8.0021,-2.87948 31.38382,-2.3152 31.38382,-2.3152 l -1.80071,-1.92934 c 0,0 -23.42219,-2.04338 -31.12658,0.90037 -7.70439,2.94375 -14.01982,11.83324 -14.01982,11.83324 l -0.64312,2.44382 z"
       id="path18062-0-3"
       sodipodi:nodetypes="czcczccc" />
    <path
       style="fill:none;stroke:#000000;stroke-width:0.115487px;stroke-linecap:butt;stroke-linejoin:miter;stroke-opacity:1"
       d="m 137.03183,110.91257 c 0,0 3.70939,-3.78169 6.35693,-5.25669 2.64753,-1.47499 4.28602,-2.1397 9.41314,-3.17846 5.12713,-1.03876 14.80809,-1.67992 21.39353,-1.58924 6.58543,0.0907 17.97054,1.83373 17.97054,1.83373 0,0 1.80039,0.6506 -0.36674,-1.46698 -2.16713,-2.117589 -10.11019,-3.187849 -16.25907,-3.667459 -6.14888,-0.47961 -14.88087,0.28158 -20.29329,1.34473 -5.41241,1.06316 -9.23997,2.265009 -12.1026,4.034209 -2.86264,1.76921 -4.36799,3.79646 -5.2567,5.25669 -0.88871,1.46023 -0.85574,2.68947 -0.85574,2.68947 z"
       id="path18064-2-0"
       sodipodi:nodetypes="czzzczzzzzc" />
  </g>
</svg>
