<?xml version="1.0" encoding="UTF-8" standalone="no"?>
<!-- Created with Inkscape (http://www.inkscape.org/) -->

<svg
   width="1220mm"
   height="600mm"
   viewBox="0 0 1220 600.00001"
   version="1.1"
   id="svg5"
   inkscape:version="1.1.1 (3bf5ae0d25, 2021-09-20)"
   sodipodi:docname="RaceCircuitZandvoortsvg.svg"
   xmlns:inkscape="http://www.inkscape.org/namespaces/inkscape"
   xmlns:sodipodi="http://sodipodi.sourceforge.net/DTD/sodipodi-0.dtd"
   xmlns="http://www.w3.org/2000/svg"
   xmlns:svg="http://www.w3.org/2000/svg">
  <sodipodi:namedview
     id="namedview7"
     pagecolor="#ffffff"
     bordercolor="#666666"
     borderopacity="1.0"
     inkscape:pageshadow="2"
     inkscape:pageopacity="0.0"
     inkscape:pagecheckerboard="true"
     inkscape:document-units="mm"
     showgrid="false"
     inkscape:zoom="0.33399928"
     inkscape:cx="776.94778"
     inkscape:cy="1205.0924"
     inkscape:window-width="1920"
     inkscape:window-height="1017"
     inkscape:window-x="-8"
     inkscape:window-y="-8"
     inkscape:window-maximized="1"
     inkscape:current-layer="layer1"
     inkscape:snap-global="false" />
  <defs
     id="defs2" />
  <g
     inkscape:label="Layer 1"
     inkscape:groupmode="layer"
     id="layer1">
    <path
       id="path1693"
       style="fill:none;fill-opacity:1;stroke:#00ff00;stroke-width:1.40944"
       d="m 49.935307,315.6553 c -7.286199,-7.08659 -17.079683,-4.05319 -16.950458,5.25015 0.122999,8.85858 12.532545,15.016 18.303853,9.08211 4.110536,-4.22633 3.612307,-9.50264 -1.353395,-14.33226 z m -0.619439,-73.69382 c -6.922316,-6.73261 -17.479861,-3.76639 -17.359801,4.87738 0.06175,4.44747 5.756836,11.21533 9.605914,11.41538 11.011658,0.57222 15.467485,-8.79045 7.753887,-16.29276 z m 1.211547,-67.64714 c -2.907116,-6.15241 -12.359052,-8.36637 -17.056425,-3.9951 -7.582975,7.05649 3.100816,20.93696 13.073963,16.98586 5.804839,-2.29983 7.075526,-6.44469 3.982462,-12.99076 z m -2.388468,-39.66355 c -7.632459,-7.42331 -17.809172,-4.89744 -17.680193,4.38827 0.124767,8.98333 12.493181,15.25536 18.697635,9.48163 3.598639,-3.3487 3.122166,-9.84371 -1.017442,-13.8699 z m -30.237581,216.6465 c 0.114509,8.24296 0.669262,11.31279 2.141467,11.85439 2.949564,1.0851 3.657158,-0.32194 3.563229,-7.08435 -0.05134,-3.69971 0.560973,-6.11549 1.55317,-6.12928 0.900781,-0.0121 7.605606,4.33447 14.899558,9.66006 7.293951,5.32557 14.545742,9.66498 16.11539,9.64317 l 6.616007,-0.0919 -3.83334,-275.98134 -6.616001,0.09189 0.0074,0.548756 c -1.424532,-0.528582 -3.618274,-0.949652 -7.03312,-1.474481 -12.258128,-1.883629 -15.547587,-3.032156 -15.581049,-5.441622 -0.0319,-2.296286 -3.652141,-2.692938 -4.941016,-0.541231 -0.468291,0.781779 -3.033292,1.45147 -5.70046,1.488518 -3.80211,0.0528 -4.841944,0.638202 -4.813192,2.709876 0.02623,1.855306 1.405264,2.894354 4.629994,3.487728 2.526082,0.464656 5.65241,2.200711 6.947379,3.858181 2.223914,2.846385 2.486335,2.877445 4.737181,0.56307 1.310656,-1.34744 3.430531,-2.16106 4.710458,-1.8081 1.711058,0.47187 12.189941,2.31082 17.125753,3.05684 l 0.199376,14.350705 c -1.228042,-0.40698 -2.930706,-0.78118 -5.267518,-1.20076 -10.935334,-1.96371 -13.921944,-3.29996 -16.753775,-7.49363 -3.907739,-5.787085 -6.515504,-4.58025 -5.35285,2.47698 0.541564,3.28739 1.384209,6.35069 1.872911,6.80724 0.773844,0.72313 19.743751,4.38871 25.579303,5.03103 l 0.175362,12.62278 c -5.268073,-6.52576 -14.271347,-10.39919 -21.641308,-6.34155 -4.723952,2.60086 -6.430184,5.71445 -6.396205,11.67377 0.06133,10.75828 8.681191,19.07496 19.612854,18.92313 3.936729,-0.0546 6.627619,-0.90373 8.721033,-2.9181 l 0.212024,15.26422 c -1.761004,-2.13564 -4.139104,-3.87178 -7.292161,-5.42554 -14.717987,-7.25269 -26.773225,6.94391 -17.889905,21.06788 3.939082,6.26291 9.182228,9.17567 16.609348,9.22742 4.752198,0.033 6.503008,-0.46276 8.876482,-3.00137 l 0.293459,21.12847 c -2.394881,-1.97303 -6.307922,-4.44183 -11.832812,-7.61531 -7.693622,-4.41906 -14.559693,-7.67082 -15.257503,-7.22599 -2.626488,1.67405 1.992747,6.37055 10.201799,10.37231 4.653938,2.26879 8.470061,4.72562 8.480249,5.45966 0.01808,1.32118 -7.237898,3.75998 -14.030589,4.71602 -2.4032,0.33821 -3.645658,1.50117 -3.923295,3.67214 -0.45736,3.5766 2.156361,4.07164 9.073815,1.71854 2.237092,-0.76104 7.741069,-2.15852 12.231182,-3.10598 2.143078,-0.4521 3.863073,-0.91822 5.148226,-1.43433 l 0.227689,16.39483 c -2.645564,-0.96025 -7.76376,-1.78756 -17.632368,-3.43895 -19.239886,-3.2194 -20.483708,-3.22083 -20.43934,-0.0266 0.02612,1.84972 1.681835,2.88862 6.043581,3.79213 4.30853,0.89245 5.846004,1.845 5.435072,3.36705 -0.315187,1.16728 -0.796397,4.70721 -1.069594,7.86681 -0.407834,4.71701 0.217985,6.57081 3.499632,10.36259 7.736746,8.93961 17.883008,10.64457 24.525754,4.19229 l 0.176266,12.69106 c -1.501156,-0.45739 -3.719322,-0.86912 -6.950373,-1.35679 -19.375163,-2.9239 -21.712992,-1.38518 -20.433012,13.45067 0.45189,5.23774 1.008007,9.66214 1.235829,9.8318 0.760602,0.56649 22.64323,4.32173 26.515724,4.58067 l 0.112058,8.06546 c -2.083273,-0.65633 -5.697329,-1.20269 -11.977302,-2.24197 -4.662349,-0.77152 -9.984759,-1.70529 -11.827697,-2.07503 -3.143641,-0.6307 -3.289683,-0.37065 -2.364906,4.20715 0.575671,2.84949 0.386642,5.26114 -0.454385,5.79717 -2.354374,1.50075 -1.490161,10.99516 1.422243,15.62524 5.346035,8.49904 18.780775,11.4158 25.580438,5.92968 l 0.136292,9.81136 c -2.405137,0.0437 -2.770091,1.00758 -2.686848,7.00088 0.05322,3.82987 -0.374687,7.25415 -0.95121,7.60936 -0.576529,0.35519 -7.373746,-3.95305 -15.105065,-9.57399 -18.448144,-13.41244 -19.39613,-13.36425 -19.196928,0.97724 z m 14.762947,-67.78262 c -0.0016,-0.34762 0.01591,-0.70549 0.05331,-1.07465 l 0.385021,-3.79621 12.336304,0.18368 c 4.737212,0.0705 7.668879,0.0705 9.47759,-0.13165 l 0.221348,15.93446 c -1.530691,-0.47099 -3.815844,-0.89779 -7.185326,-1.41805 -10.737759,-1.65812 -15.25867,-4.48421 -15.288205,-9.69759 z" />
    <path
       style="fill:none;fill-opacity:1;stroke:#ff0000;stroke-width:1.88178"
       d="M 19.711563,2.92885 C 6.9502459,8.64892 2.0010021,18.47996 1.9427105,38.22432 c -0.039386,13.36359 0.5607127,16.09995 5.0059199,22.8239 3.2076126,4.85191 8.3579266,9.24696 14.1133996,12.04371 8.919373,4.33418 9.880823,4.39577 60.811766,3.8953 l 51.749124,-0.50852 24.20036,12.32787 c 23.37851,11.9092 24.6758,12.32785 38.19963,12.32785 9.13775,0 16.09063,-1.05428 20.0216,-3.03594 3.3123,-1.66977 16.23066,-13.07312 28.70751,-25.34076 23.99239,-23.59014 32.40747,-29.04498 39.68903,-25.72727 10.16978,4.63364 5.19067,15.0771 -19.10684,40.0757 -23.35162,24.0254 -43.73642,51.01886 -53.4922,70.83417 -5.96647,12.11868 -8.98079,22.00211 -13.37973,43.86966 -10.32186,51.311 -17.70856,73.7551 -27.77634,84.39688 -2.78996,2.94903 -16.92791,14.49824 -31.41767,25.66494 -33.08051,25.49383 -41.445944,33.85974 -48.00535,48.00821 -2.879011,6.2099 -8.286337,17.85703 -12.016304,25.88252 -3.729967,8.02548 -6.781744,14.98652 -6.781744,15.46895 0,0.48247 -2.009537,5.34801 -4.465648,10.81232 -11.375457,25.30809 -15.155518,40.88544 -15.19684,62.62515 -0.07864,41.33423 13.335208,62.82368 46.007494,73.70596 17.064712,5.68383 48.771292,4.59516 103.498232,-3.5537 25.35706,-3.77567 56.26541,-7.85383 68.68519,-9.06258 12.41979,-1.20875 24.44737,-3.3752 26.72794,-4.8143 12.94985,-8.17172 25.14522,-50.68264 24.95552,-86.99056 -0.14377,-27.50076 -9.7181,-59.05919 -21.02339,-69.29553 -8.79251,-7.96115 -26.19609,-10.54646 -37.77721,-5.61183 -7.80212,3.32445 -12.28478,8.54044 -21.04699,24.49006 -9.03206,16.44085 -38.84328,55.95318 -47.76221,63.30492 -5.47396,4.51211 -8.56462,5.59595 -15.95721,5.59595 -7.91771,0 -10.04112,-0.87276 -15.56644,-6.39807 -11.26372,-11.26372 -9.54427,-17.65055 20.13518,-74.79078 11.48034,-22.10249 25.15631,-48.65437 30.39105,-59.0042 22.31426,-44.11844 73.88523,-106.64979 105.85019,-128.3465 17.85153,-12.11701 27.27183,-24.65921 27.27183,-36.30978 0,-6.02043 -1.41881,-8.95655 -11.73718,-24.28902 -1.80578,-2.68326 -3.28767,-6.26998 -3.29313,-7.97046 -0.0215,-6.71864 15.39287,-7.35257 24.66116,-1.01422 3.50812,2.3991 13.15289,9.02038 21.43267,14.71393 73.18011,50.32142 81.91396,55.78192 103.5402,64.7341 13.69798,5.67029 17.79522,6.51568 31.57932,6.51568 13.99826,0 16.68613,-0.57484 23.12771,-4.94616 9.71651,-6.5938 10.95177,-8.2773 20.558,-28.01813 16.29027,-33.47633 25.21291,-69.59802 22.51863,-91.16241 C 576.23418,59.38105 547.16009,20.59863 520.69162,7.60077 L 509.98018,2.34067 266.28883,1.98797 C 132.25862,1.79397 21.298854,2.21738 19.711563,2.92885 Z"
       id="path1717" />
    <path
       id="path2138"
       style="fill:none;fill-opacity:1;stroke:#0000ff;stroke-width:1.88178"
       sodipodi:type="inkscape:offset"
       inkscape:radius="-20.963205"
       inkscape:original="M 124.62695 1.9960938 C 113.66783 2.2075924 105.20981 3.3861419 98.810547 5.5175781 C 66.138261 16.399867 52.724095 37.888422 52.802734 79.222656 C 52.844056 100.96236 56.624543 116.53957 68 141.84766 C 70.456111 147.31197 72.464844 152.17769 72.464844 152.66016 C 72.464844 153.14259 75.516127 160.10343 79.246094 168.12891 C 82.976061 176.1544 88.384661 187.80182 91.263672 194.01172 C 97.823078 208.16019 106.18707 216.5257 139.26758 242.01953 C 153.75734 253.18623 167.89559 264.73652 170.68555 267.68555 C 180.75333 278.32733 188.14103 300.77103 198.46289 352.08203 C 202.86183 373.94958 205.87533 383.83249 211.8418 395.95117 C 221.59758 415.76648 241.98236 442.75976 265.33398 466.78516 C 289.63149 491.78376 294.61119 502.22769 284.44141 506.86133 C 277.15985 510.17904 268.74434 504.72491 244.75195 481.13477 C 232.2751 468.86713 219.35722 457.46274 216.04492 455.79297 C 212.11395 453.81131 205.16119 452.75781 196.02344 452.75781 C 182.49961 452.75781 181.20273 453.17674 157.82422 465.08594 L 133.62305 477.41406 L 81.873047 476.9043 C 30.942104 476.40383 29.981873 476.4666 21.0625 480.80078 C 15.307027 483.59753 10.156831 487.99184 6.9492188 492.84375 C 2.5040115 499.5677 1.9039734 502.30438 1.9433594 515.66797 C 2.001651 535.41233 6.9496204 545.24282 19.710938 550.96289 C 21.298228 551.67436 132.25885 552.0983 266.28906 551.9043 L 509.98047 551.55078 L 520.69141 546.29102 C 547.15988 533.29316 576.23337 494.51051 579.57812 467.74023 C 582.2724 446.17584 573.35082 410.05446 557.06055 376.57812 C 547.45432 356.83729 546.21846 355.15435 536.50195 348.56055 C 530.06037 344.18923 527.37326 343.61328 513.375 343.61328 C 499.5909 343.61328 495.4929 344.45862 481.79492 350.12891 C 460.16868 359.08109 451.43597 364.54186 378.25586 414.86328 C 369.97608 420.55683 360.33039 427.17903 356.82227 429.57812 C 347.55398 435.91647 332.14061 435.28309 332.16211 428.56445 C 332.16757 426.86397 333.6493 423.27701 335.45508 420.59375 C 345.77345 405.26128 347.19141 402.32512 347.19141 396.30469 C 347.19141 384.65412 337.77145 372.11115 319.91992 359.99414 C 287.95496 338.29743 236.38457 275.76688 214.07031 231.64844 C 208.83557 221.29861 195.15807 194.74702 183.67773 172.64453 C 153.99828 115.5043 152.27925 109.11724 163.54297 97.853516 C 169.06829 92.328205 171.19167 91.455078 179.10938 91.455078 C 186.50197 91.455078 189.59245 92.53867 195.06641 97.050781 C 203.98534 104.40252 233.79802 143.91462 242.83008 160.35547 C 251.59229 176.30509 256.07483 181.52125 263.87695 184.8457 C 275.45807 189.78033 292.86179 187.19553 301.6543 179.23438 C 312.95959 168.99803 322.53396 137.43826 322.67773 109.9375 C 322.86743 73.629577 310.67055 31.118982 297.7207 22.947266 C 295.44013 21.508161 283.41393 19.341569 270.99414 18.132812 C 258.57436 16.92407 227.66565 12.845981 202.30859 9.0703125 C 168.10426 3.9772756 142.89216 1.6435959 124.62695 1.9960938 z "
       d="m 125.03125,22.955078 c -9.66507,0.186525 -16.2526,1.337667 -19.5957,2.451172 -13.227309,4.405672 -19.59475,9.383966 -24.126956,16.644531 -4.532206,7.260565 -7.577961,18.740319 -7.542969,37.132813 0.03674,19.328447 2.586682,30.111946 13.355469,54.070316 1.305831,2.90519 2.483009,5.62648 3.408203,7.86718 0.462597,1.12036 0.854609,2.09511 1.230469,3.10547 0.18793,0.50518 0.368326,0.99299 0.611328,1.76563 0.139969,0.44504 0.431415,0.67693 0.685547,1.7539 0.207109,0.48492 0.323957,0.77354 0.599609,1.40235 1.140244,2.60108 2.790117,6.25118 4.599609,10.14453 3.732811,8.03161 9.141581,19.67788 12.027341,25.90234 2.51274,5.41991 4.14564,8.02791 9.86133,13.74414 5.71569,5.71624 15.58118,13.88495 31.91992,26.47657 7.40173,5.70422 14.67701,11.47515 20.5625,16.2832 5.8855,4.80804 9.13289,7.189 13.28711,11.58008 16.66184,17.61179 22.62944,42.61969 33.09961,94.66797 4.27473,21.25006 6.42771,28.16792 11.63477,38.74414 7.97671,16.20178 27.58704,42.71213 49.71875,65.48242 12.66683,13.03232 20.95668,21.91164 26.36914,33.26367 2.70623,5.67601 5.19708,13.4261 2.5664,22.53711 -2.63067,9.11101 -10.33628,15.30492 -16.16992,17.96289 -5.17887,2.35966 -12.42484,3.36523 -18.48242,2.2207 -6.05758,-1.14453 -10.80303,-3.63532 -15.18945,-6.47851 -8.77284,-5.68638 -17.11225,-13.50978 -29.40625,-25.59766 -5.97509,-5.8749 -12.11839,-11.59681 -16.9668,-15.87695 -2.4242,-2.14007 -4.53947,-3.92867 -6,-5.0957 -0.16359,-0.13072 -0.24948,-0.16484 -0.41601,-0.28516 -1.1804,-0.15185 -5.28923,-1.10352 -10.64844,-1.10352 -6.54546,0 -6.68985,-0.0487 -8.96485,0.68555 -2.27499,0.73424 -8.0806,3.43081 -19.71875,9.35937 l -24.20117,12.32813 a 20.965302,20.965302 0 0 1 -9.72265,2.2832 l -51.748051,-0.50976 h -0.002 c -25.453913,-0.25012 -38.582796,-0.29461 -44.611328,0.0918 -6.028731,0.38642 -2.600595,-0.35796 -6.830079,1.69727 -2.413223,1.17265 -5.063144,3.65001 -5.789062,4.74805 -1.740365,2.63252 -1.158469,1.68356 -1.195313,1.85156 -0.03684,0.16799 -0.35274,2.98578 -0.333984,9.34961 0.02401,8.13133 1.238999,12.264 1.882812,13.54297 0.276626,0.54953 0.404727,0.81584 0.673829,1.10156 0.12649,0.003 0.151549,0.005 0.283203,0.008 3.28345,0.0755 8.224177,0.1489 14.539062,0.2168 12.62977,0.13579 30.810316,0.25071 53.128906,0.33594 44.637178,0.17045 105.859118,0.22781 172.843748,0.13086 l 238.83789,-0.34766 6.35547,-3.11914 c 8.55542,-4.20131 21.11692,-15.24327 30.58203,-27.86914 9.46512,-12.62587 15.84377,-27.25856 16.74414,-34.46485 1.63144,-13.05762 -5.55457,-48.54145 -20.5664,-79.39062 -4.75091,-9.76312 -7.33037,-14.40252 -8.28906,-15.70898 -0.9587,-1.30647 -0.67714,-1.07131 -5.19141,-4.13477 -2.45406,-1.66535 -1.14839,-0.91719 -1.34375,-0.95898 -0.19536,-0.0418 -3.3001,-0.3711 -10.01172,-0.3711 -12.92702,0 -10.54941,-0.4649 -23.5625,4.92188 -20.68532,8.56268 -26.55772,12.35723 -99.67969,62.63867 -8.28945,5.7002 -17.9108,12.30759 -21.47656,14.74609 -9.37224,6.40944 -18.82375,8.42927 -28.50781,8.03125 -4.84204,-0.19901 -9.90396,-0.87433 -15.83203,-4.25586 -5.92808,-3.38153 -13.14822,-12.46421 -13.11719,-22.16015 0.0221,-6.89165 1.41186,-8.7789 2.55859,-11.55469 1.14674,-2.7758 2.47084,-5.32682 4.30664,-8.05469 h -0.002 c 4.95702,-7.36583 7.424,-11.45911 8.08398,-12.78125 -0.17726,-0.79374 -3.32187,-8.80456 -18,-18.76758 -38.78189,-26.32381 -88.19842,-87.62289 -112.7832,-136.23046 -5.11427,-10.11166 -18.83483,-36.75052 -30.28906,-58.80274 -14.91069,-28.70673 -23.13568,-44.23318 -27.06055,-58.8125 -1.96243,-7.28966 -2.7286,-15.57385 -0.26367,-23.47852 2.46493,-7.904664 7.2658,-13.279461 10.9707,-16.98437 3.32169,-3.32168 7.45856,-7.256546 13.73828,-9.837891 6.27973,-2.581344 11.92097,-2.701171 16.6504,-2.701171 9.44108,0 22.09989,4.455268 29.29101,10.382812 9.83679,8.108315 17.19133,18.47452 27.24023,31.79297 10.04891,13.31845 19.77219,27.05378 25.5625,37.59375 4.11909,7.49787 6.96326,11.72652 8.41016,13.41016 1.4469,1.68363 0.88492,1.20881 2.48047,1.88867 1.09246,0.46549 5.00344,1.12002 8.63867,0.58007 3.63523,-0.53994 6.71985,-2.32604 6.85156,-2.44531 -0.11057,0.10012 5.48642,-8.10487 8.70704,-18.7207 3.22062,-10.61583 5.36444,-23.78686 5.42382,-35.14649 0.0824,-15.763926 -2.67732,-34.001671 -6.73828,-48.156245 -2.03048,-7.077287 -4.41183,-13.165009 -6.4707,-17.128906 -0.78109,-1.503817 -1.4406,-2.27981 -2.0293,-3.033203 -0.72709,-0.150859 -1.12688,-0.262514 -2.0332,-0.425782 -4.13702,-0.745256 -9.82316,-1.535339 -15.48047,-2.085937 -13.60682,-1.32427 -44.10555,-5.376062 -69.74219,-9.193359 -33.64274,-5.009418 -58.08092,-7.160486 -74.18945,-6.84961 z m 163.91992,19.072266 c 0.73662,0.329956 0.67872,0.168416 0.13281,0.02734 -0.0248,-0.0064 -0.10668,-0.0207 -0.13281,-0.02734 z M 93.070312,147.91992 c 0.177539,0.81622 0.357422,1.74084 0.357422,4.74024 0,-2.85172 -0.168366,-4.09135 -0.357422,-4.74024 z"
       transform="matrix(1,0,0,-1,0,553.89214)" />
    <text
       xml:space="preserve"
       style="font-size:2.86695px;line-height:1.25;font-family:sans-serif;letter-spacing:0px;word-spacing:0px;fill:#0000ff;fill-opacity:1;stroke-width:2.15027;stroke-miterlimit:4;stroke-dasharray:none"
       x="-85.756783"
       y="80.76194"
       id="text37531-6-1"><tspan
         sodipodi:role="line"
         id="tspan37529-6-0"
         style="fill:#0000ff;fill-opacity:1;stroke-width:2.15027;stroke-miterlimit:4;stroke-dasharray:none"
         x="-85.756783"
         y="80.76194">=pass1:600mm/min:100%:#0000ff=</tspan></text>
    <text
       xml:space="preserve"
       style="font-size:2.86695px;line-height:1.25;font-family:sans-serif;letter-spacing:0px;word-spacing:0px;fill:#ff0000;fill-opacity:1;stroke-width:2.15021"
       x="-86.8582"
       y="91.001732"
       id="text37531-6-9-9"><tspan
         sodipodi:role="line"
         id="tspan37529-6-2-1"
         style="fill:#ff0000;fill-opacity:1;stroke-width:2.15021"
         x="-86.8582"
         y="91.001732">=pass2:600mm/min:100%:#ff0000=</tspan></text>
    <text
       xml:space="preserve"
       style="font-size:2.86695px;line-height:1.25;font-family:sans-serif;letter-spacing:0px;word-spacing:0px;fill:#00ff00;fill-opacity:1;stroke-width:2.15021"
       x="-88.272896"
       y="98.840195"
       id="text37531-6-9-9-1"><tspan
         sodipodi:role="line"
         id="tspan37529-6-2-1-1"
         style="fill:#00ff00;fill-opacity:1;stroke-width:2.15021"
         x="-88.272896"
         y="98.840195">=pass3:600mm/min:100%:#00ff00=</tspan></text>
  </g>
</svg>
