<?xml version="1.0" encoding="UTF-8" standalone="no"?>
<!-- Created with Inkscape (http://www.inkscape.org/) -->

<svg
   width="1220mm"
   height="600mm"
   viewBox="0 0 1220 600.00001"
   version="1.1"
   id="svg5"
   inkscape:version="1.1.1 (3bf5ae0d25, 2021-09-20)"
   sodipodi:docname="RaceCircuitAbuDhabi2.svg"
   xmlns:inkscape="http://www.inkscape.org/namespaces/inkscape"
   xmlns:sodipodi="http://sodipodi.sourceforge.net/DTD/sodipodi-0.dtd"
   xmlns="http://www.w3.org/2000/svg"
   xmlns:svg="http://www.w3.org/2000/svg"
   xmlns:rdf="http://www.w3.org/1999/02/22-rdf-syntax-ns#"
   xmlns:cc="http://creativecommons.org/ns#"
   xmlns:dc="http://purl.org/dc/elements/1.1/">
  <metadata
     id="metadata3849">
    <rdf:RDF>
      <cc:Work
         rdf:about="">
        <dc:format>image/svg+xml</dc:format>
        <dc:type
           rdf:resource="http://purl.org/dc/dcmitype/StillImage" />
      </cc:Work>
    </rdf:RDF>
  </metadata>
  <sodipodi:namedview
     id="namedview7"
     pagecolor="#ffffff"
     bordercolor="#666666"
     borderopacity="1.0"
     inkscape:pageshadow="2"
     inkscape:pageopacity="0.0"
     inkscape:pagecheckerboard="true"
     inkscape:document-units="mm"
     showgrid="false"
     inkscape:zoom="0.20717169"
     inkscape:cx="866.43111"
     inkscape:cy="938.83482"
     inkscape:window-width="1920"
     inkscape:window-height="1017"
     inkscape:window-x="-8"
     inkscape:window-y="-8"
     inkscape:window-maximized="1"
     inkscape:current-layer="layer1"
     inkscape:snap-global="false"
     inkscape:object-paths="true" />
  <defs
     id="defs2" />
  <g
     inkscape:label="Layer 1"
     inkscape:groupmode="layer"
     id="layer1">
    <text
       xml:space="preserve"
       style="font-size:2.86695px;line-height:1.25;font-family:sans-serif;letter-spacing:0px;word-spacing:0px;fill:#0000ff;fill-opacity:1;stroke-width:2.15027;stroke-miterlimit:4;stroke-dasharray:none"
       x="-100.57968"
       y="120.57117"
       id="text37531-6-1"><tspan
         sodipodi:role="line"
         id="tspan37529-6-0"
         style="fill:#0000ff;fill-opacity:1;stroke-width:2.15027;stroke-miterlimit:4;stroke-dasharray:none"
         x="-100.57968"
         y="120.57117">=pass1:600mm/min:100%:#0000ff=</tspan></text>
    <text
       xml:space="preserve"
       style="font-size:2.86695px;line-height:1.25;font-family:sans-serif;letter-spacing:0px;word-spacing:0px;fill:#ff0000;fill-opacity:1;stroke-width:2.15021"
       x="-101.6811"
       y="130.81096"
       id="text37531-6-9-9"><tspan
         sodipodi:role="line"
         id="tspan37529-6-2-1"
         style="fill:#ff0000;fill-opacity:1;stroke-width:2.15021"
         x="-101.6811"
         y="130.81096">=pass2:600mm/min:100%:#ff0000=</tspan></text>
    <text
       xml:space="preserve"
       style="font-size:2.86695px;line-height:1.25;font-family:sans-serif;letter-spacing:0px;word-spacing:0px;fill:#00ff00;fill-opacity:1;stroke-width:2.15021"
       x="-111.63804"
       y="144.39093"
       id="text37531-6-9-9-1"><tspan
         sodipodi:role="line"
         id="tspan37529-6-2-1-1"
         style="fill:#00ff00;fill-opacity:1;stroke-width:2.15021"
         x="-111.63804"
         y="144.39093">=pass3:600mm/min:100%:#00ff00=</tspan></text>
    <path
       id="path4757"
       stroke-linejoin="round"
       d="m 492.53534,30.759932 c -3.63854,-4.379878 -9.12524,-2.544383 -45.0412,10.690376 -20.14739,7.424319 -42.95544,15.796635 -50.68529,18.60293 -7.72947,2.807018 -14.72932,5.435066 -15.55426,5.840782 -0.82543,0.405957 -23.79171,8.970637 -51.0364,19.033377 -27.2447,10.062198 -67.9482,25.098073 -90.45302,33.412663 -22.50483,8.31483 -52.55901,20.17458 -66.78949,26.3546 -14.22938,6.17991 -45.21728,18.38228 -68.86115,27.1164 -41.73817,15.41842 -49.571281,19.02686 -49.176725,22.64935 0.09592,0.88412 2.891528,4.75683 6.210608,8.60721 7.577352,8.78998 8.678444,12.10128 5.47729,16.46397 -1.327475,1.80931 -5.435005,7.32786 -9.128194,12.26432 -20.676721,27.63593 -27.510995,43.8141 -28.591348,67.69163 -1.020541,22.55265 -0.02413,120.19745 1.371744,134.33767 2.354819,23.8711 3.308229,28.76418 14.829333,76.1378 6.236486,25.64475 11.80667,46.12474 12.950107,47.61159 2.360285,3.06887 7.099371,4.69938 9.053336,3.11435 3.401176,-2.75882 14.885854,-7.378 17.293249,-6.95587 1.463679,0.25696 4.267078,1.93424 6.230513,3.72853 2.211353,2.02104 4.928132,3.3604 7.139485,3.52146 3.558432,0.25938 3.626232,0.21112 21.632042,-15.41626 17.21395,-14.94014 18.07255,-15.83138 18.30195,-18.98548 0.44396,-6.09618 -1.60156,-8.94705 -15.38472,-21.44083 -22.485285,-20.38106 -57.589211,-53.07096 -59.437977,-55.35126 -2.620205,-3.23041 -4.18293,-11.98709 -6.062218,-33.98112 -1.308475,-15.31407 -1.262993,-20.61583 0.208106,-24.16449 2.099639,-5.06506 19.356152,-27.41643 24.132939,-31.2574 1.686565,-1.35679 3.855331,-2.55982 4.818349,-2.67287 1.157251,-0.13572 5.728646,3.62406 13.480566,11.08614 13.723895,13.21093 17.825755,16.28029 20.952715,15.67925 2.61273,-0.50247 29.00114,-23.1961 31.11839,-26.75996 1.92362,-3.23867 -0.16166,-10.93395 -5.30508,-19.57789 -4.32715,-7.27225 -5.90955,-8.89493 -34.52463,-35.37662 -31.23671,-28.90768 -31.403015,-29.09569 -30.473775,-35.08656 0.749181,-4.83415 21.246235,-56.1914 23.880865,-59.83458 1.57942,-2.18451 4.29422,-4.50727 7.02251,-6.00768 3.79815,-2.08891 5.00191,-2.18018 8.24034,-0.6242 2.31529,1.11242 17.40414,14.49237 38.7417,34.3507 83.70344,77.90384 103.49867,96.14816 106.39961,98.05996 4.46034,2.93924 12.61424,2.72981 16.50196,-0.42344 3.39152,-2.75093 40.56433,-50.78425 46.84865,-60.53568 5.98935,-9.29432 5.91033,-12.07624 -0.84985,-29.9543 -3.22975,-8.54097 -6.42747,-18.04647 -7.10728,-21.12228 -2.59125,-11.72307 0.1309,-25.8905 7.15173,-37.21786 5.58858,-9.01563 11.86325,-13.46748 30.35856,-21.54404 26.3893,-11.52413 39.66767,-20.86912 58.82494,-41.39687 5.7538,-6.16561 11.82953,-12.6295 13.50114,-14.36415 27.79681,-28.857607 26.68824,-27.116453 23.01026,-36.149461 -1.61497,-3.967225 -2.74936,-8.147984 -2.52201,-9.289551 0.52177,-2.619905 2.05084,-3.331688 22.47009,-10.463511 22.00808,-7.686653 25.08503,-10.428283 20.36585,-18.156255 -0.5278,-0.864275 -1.01049,-1.61804 -1.53021,-2.243746 z"
       stroke="#000000"
       stroke-width="1.6757"
       fill="none"
       style="fill:none;fill-opacity:1;stroke:#0000ff;stroke-width:1.20641;stroke-miterlimit:4;stroke-dasharray:none;stroke-opacity:1" />
    <path
       id="text3165"
       style="font-style:normal;font-variant:normal;font-weight:normal;font-stretch:normal;font-size:11.3467px;line-height:1.25;font-family:sans-serif;-inkscape-font-specification:'sans-serif, Normal';font-variant-ligatures:normal;font-variant-caps:normal;font-variant-numeric:normal;font-variant-east-asian:normal;letter-spacing:0px;word-spacing:0px;fill:none;stroke:#ff0000;stroke-width:1.13467;stroke-opacity:1"
       sodipodi:type="inkscape:offset"
       inkscape:radius="1.8538129"
       inkscape:original="M 125.80664 253.76367 L 125.80664 285.17773 L 120.96094 285.17773 L 110.03711 255.16602 L 104.50977 255.16602 L 93.585938 285.17773 L 89.601562 285.17773 L 89.601562 290.74023 L 317.00195 290.74023 L 317.00195 285.17773 L 311.37695 285.17773 L 311.37695 262.95703 L 307.43945 262.95703 L 307.43945 285.17773 L 296.58398 285.17773 C 297.14994 284.75251 297.69158 284.25886 298.20508 283.6875 C 299.1404 282.62654 299.87939 281.31352 300.42383 279.75 C 300.98223 278.18648 301.26172 276.42706 301.26172 274.47266 C 301.26172 270.60573 300.45892 267.61216 298.85352 265.49023 C 297.26207 263.36831 295.0844 262.30664 292.32031 262.30664 C 290.77075 262.30664 289.37525 262.60118 288.13281 263.1875 C 286.89037 263.75986 285.71808 264.49885 284.61523 265.40625 L 284.61523 253.76367 L 280.67773 253.76367 L 280.67773 285.17773 L 273.09766 285.17773 L 273.09766 270.47461 C 273.09766 268.96693 272.86693 267.70267 272.40625 266.68359 C 271.94557 265.66451 271.27597 264.83357 270.39648 264.19141 C 269.50304 263.53529 268.44137 263.07579 267.21289 262.81055 C 265.99837 262.53135 264.56916 262.39062 262.92188 262.39062 C 261.51191 262.39062 260.08075 262.5163 258.62891 262.76758 C 257.17706 263.01886 256.06663 263.24958 255.29883 263.45898 L 255.29883 267.45898 L 255.50781 267.45898 C 256.86193 266.94246 258.17495 266.5504 259.44531 266.28516 C 260.71567 266.00596 261.86735 265.86719 262.90039 265.86719 C 263.75195 265.86719 264.56785 265.92349 265.34961 266.03516 C 266.13137 266.14684 266.80097 266.36251 267.35938 266.68359 C 267.9457 267.01863 268.39405 267.48009 268.70117 268.06641 C 269.02225 268.65273 269.18164 269.39172 269.18164 270.28516 L 269.18164 270.89258 C 266.8922 271.00426 264.75019 271.17117 262.75391 271.39453 C 260.75762 271.61789 259.04697 272.04367 257.62305 272.67188 C 256.21309 273.30007 255.12522 274.16669 254.35742 275.26953 C 253.60358 276.35841 253.22656 277.78958 253.22656 279.5625 C 253.22656 281.7263 253.95803 283.50634 255.42383 284.90234 C 255.52663 285.00024 255.63427 285.08669 255.74023 285.17773 L 247.3418 285.17773 L 247.3418 271.16406 C 247.3418 268.30226 246.67776 266.11149 245.35156 264.58984 C 244.02536 263.0682 242.09903 262.30664 239.57227 262.30664 C 238.19022 262.30664 236.84349 262.59366 235.53125 263.16602 C 234.21901 263.73838 232.94918 264.53365 231.7207 265.55273 L 231.7207 253.76367 L 227.7832 253.76367 L 227.7832 285.17773 L 211.81836 285.17773 C 212.80918 284.82344 213.74658 284.39078 214.61328 283.85547 C 216.6654 282.58511 218.30472 280.79754 219.5332 278.49414 C 220.77564 276.19074 221.39648 273.62099 221.39648 270.78711 C 221.39648 267.75779 220.80379 265.14123 219.61719 262.93555 C 218.43059 260.72986 216.77622 258.96487 214.6543 257.63867 C 213.41186 256.87087 211.89069 256.2687 210.08984 255.83594 C 208.30296 255.38922 205.88703 255.16602 202.84375 255.16602 L 195.05469 255.16602 L 195.05469 285.17773 L 171.91602 285.17773 L 171.91602 262.95703 L 167.97852 262.95703 L 167.97852 280.41992 C 166.93151 281.24356 165.80046 281.92069 164.58594 282.45117 C 163.38538 282.98165 162.27689 283.24805 161.25781 283.24805 C 160.11309 283.24805 159.24092 283.10734 158.64062 282.82812 C 158.04035 282.54892 157.55075 282.10252 157.17383 281.48828 C 156.81087 280.888 156.57457 280.16963 156.46289 279.33203 C 156.35121 278.48047 156.29492 277.46004 156.29492 276.27344 L 156.29492 262.95703 L 152.35742 262.95703 L 152.35742 278.13867 C 152.35742 281.04235 153.04207 283.24818 154.41016 284.75586 C 154.54784 284.90619 154.69503 285.04253 154.84375 285.17773 L 141.71289 285.17773 C 142.27881 284.75252 142.81856 284.25882 143.33203 283.6875 C 144.26735 282.62654 145.00829 281.31352 145.55273 279.75 C 146.11113 278.18648 146.39063 276.42706 146.39062 274.47266 C 146.39062 270.60573 145.58782 267.61216 143.98242 265.49023 C 142.39098 263.36831 140.2133 262.30664 137.44922 262.30664 C 135.89966 262.30664 134.50221 262.60118 133.25977 263.1875 C 132.01732 263.75986 130.84503 264.49885 129.74219 265.40625 L 129.74219 253.76367 L 125.80664 253.76367 z M 307.1875 254.95703 L 307.1875 259.04102 L 311.62695 259.04102 L 311.62695 254.95703 L 307.1875 254.95703 z M 199.20117 258.72656 L 203.0957 258.72656 C 205.02219 258.72656 206.67655 258.86533 208.05859 259.14453 C 209.44064 259.40977 210.74613 259.89184 211.97461 260.58984 C 213.66377 261.55308 214.9336 262.87363 215.78516 264.54883 C 216.63672 266.22403 217.0625 268.28161 217.0625 270.72461 C 217.0625 273.15365 216.67239 275.17947 215.89062 276.79883 C 215.12283 278.41819 213.96362 279.72173 212.41406 280.71289 C 211.17162 281.50861 209.80232 282.0545 208.30859 282.34766 C 206.82883 282.64082 205.09199 282.78711 203.0957 282.78711 L 199.20117 282.78711 L 199.20117 258.72656 z M 107.16992 258.78906 L 112.63477 274.0957 L 101.68359 274.0957 L 107.16992 258.78906 z M 136.48438 266.05469 C 138.5365 266.05469 140.02395 266.78058 140.94531 268.23242 C 141.86667 269.6703 142.32813 271.78612 142.32812 274.57812 C 142.32814 277.63538 141.70533 279.88243 140.46289 281.32031 C 139.23441 282.74423 137.53128 283.45703 135.35352 283.45703 C 134.33443 283.45703 133.42101 283.35953 132.61133 283.16406 C 131.81561 282.96862 130.85899 282.61975 129.74219 282.11719 L 129.74219 268.71484 C 130.74731 267.93308 131.83712 267.29719 133.00977 266.80859 C 134.18241 266.30603 135.33965 266.05469 136.48438 266.05469 z M 238.46289 266.05469 C 239.50989 266.05469 240.36146 266.20293 241.01758 266.49609 C 241.6737 266.77529 242.17639 267.20665 242.52539 267.79297 C 242.86043 268.32345 243.09116 269.06439 243.2168 270.01367 C 243.34244 270.94899 243.4043 271.95438 243.4043 273.0293 L 243.4043 285.17773 L 231.7207 285.17773 L 231.7207 268.88281 C 232.79562 268.05917 233.91916 267.38204 235.0918 266.85156 C 236.26444 266.32108 237.38797 266.05469 238.46289 266.05469 z M 291.35742 266.05469 C 293.40954 266.05469 294.897 266.78058 295.81836 268.23242 C 296.73972 269.6703 297.19922 271.78612 297.19922 274.57812 C 297.19922 277.63538 296.57838 279.88243 295.33594 281.32031 C 294.10746 282.74423 292.40432 283.45703 290.22656 283.45703 C 289.20748 283.45703 288.29405 283.35953 287.48438 283.16406 C 286.68865 282.96862 285.73204 282.61975 284.61523 282.11719 L 284.61523 268.71484 C 285.62036 267.93308 286.70822 267.29719 287.88086 266.80859 C 289.0535 266.30603 290.2127 266.05469 291.35742 266.05469 z M 269.18164 274.07617 L 269.18164 280.58789 C 268.20444 281.34173 267.14472 281.99072 266 282.53516 C 264.85528 283.06564 263.59103 283.33203 262.20898 283.33203 C 260.54774 283.33203 259.31163 282.99625 258.50195 282.32617 C 257.69227 281.64213 257.28906 280.62922 257.28906 279.28906 C 257.28906 278.10246 257.63794 277.17399 258.33594 276.50391 C 259.03394 275.81987 259.94737 275.31717 261.07812 274.99609 C 262.02742 274.73085 263.31228 274.53023 264.93164 274.39062 C 266.56496 274.25103 267.98108 274.14597 269.18164 274.07617 z M 100.42578 277.65625 L 113.91211 277.65625 L 116.55859 285.17773 L 97.779297 285.17773 L 100.42578 277.65625 z M 167.97852 283.75 L 167.97852 285.17773 L 165.96094 285.17773 C 166.61868 284.76616 167.29074 284.29298 167.97852 283.75 z M 269.18164 283.85547 L 269.18164 285.17773 L 267.26953 285.17773 C 267.43205 285.0733 267.59309 284.97703 267.75781 284.85938 C 268.35809 284.4266 268.83264 284.09279 269.18164 283.85547 z "
       transform="matrix(1.2371969,0,0,1.2371969,-98.662585,-300.28409)"
       d="m 125.80664,251.91016 a 1.8539983,1.8539983 0 0 0 -1.85352,1.85351 v 29.56055 h -1.69335 L 111.7793,254.53125 a 1.8539983,1.8539983 0 0 0 -1.74219,-1.21875 h -5.52734 a 1.8539983,1.8539983 0 0 0 -1.74219,1.21875 l -10.480471,28.79297 h -2.685547 a 1.8539983,1.8539983 0 0 0 -1.853515,1.85351 v 5.5625 a 1.8539983,1.8539983 0 0 0 1.853515,1.85352 H 317.00195 a 1.8539983,1.8539983 0 0 0 1.85352,-1.85352 v -5.5625 a 1.8539983,1.8539983 0 0 0 -1.85352,-1.85351 h -3.77148 v -20.36719 a 1.8539983,1.8539983 0 0 0 -1.85352,-1.85351 h -3.9375 a 1.8539983,1.8539983 0 0 0 -1.85351,1.85351 v 20.36719 h -4.86719 c 0.57018,-0.90749 1.07479,-1.87695 1.45313,-2.96289 2.6e-4,-7.3e-4 0.002,-0.001 0.002,-0.002 0.63746,-1.79036 0.9414,-3.76079 0.9414,-5.88672 0,-4.11986 -0.85076,-7.54067 -2.77929,-10.09375 -1.90041,-2.53387 -4.77685,-3.92579 -8.01563,-3.92579 -1.78163,0 -3.4623,0.34625 -4.9707,1.05665 -0.31235,0.1441 -0.57678,0.39188 -0.88086,0.55468 v -8.30078 a 1.8539983,1.8539983 0 0 0 -1.85352,-1.85351 h -3.9375 a 1.8539983,1.8539983 0 0 0 -1.85351,1.85351 v 29.56055 h -3.87305 v -12.84961 c 0,-1.69681 -0.25343,-3.22292 -0.85547,-4.55469 -0.58184,-1.28711 -1.47102,-2.39598 -2.60156,-3.22265 -1.12255,-0.82438 -2.44022,-1.38291 -3.88086,-1.69532 -1.38794,-0.31766 -2.94438,-0.46484 -4.6914,-0.46484 -1.52014,0 -3.05817,0.13582 -4.60938,0.4043 -1.48323,0.25671 -2.6299,0.49068 -3.50195,0.72851 a 1.8539983,1.8539983 0 0 0 -1.36524,1.78906 v 4 a 1.8539983,1.8539983 0 0 0 1.85352,1.85352 h 0.20898 a 1.8539983,1.8539983 0 0 0 0.66016,-0.12109 c 1.27314,-0.48563 2.49349,-0.84903 3.65625,-1.0918 a 1.8539983,1.8539983 0 0 0 0.0195,-0.004 c 1.16672,-0.25642 2.18962,-0.375 3.05664,-0.375 0.76985,0 1.49814,0.0519 2.1875,0.15039 0.5977,0.0854 1.03343,0.23925 1.34766,0.41993 a 1.8539983,1.8539983 0 0 0 0.004,0.002 c 0.30314,0.17322 0.47061,0.34925 0.61914,0.63281 a 1.8539983,1.8539983 0 0 0 0.0176,0.0312 c 0.0233,0.0426 0.0227,0.18365 0.0449,0.23828 -1.56358,0.10305 -3.14813,0.19786 -4.57421,0.35742 -2.13871,0.2393 -4.02932,0.69916 -5.67188,1.42383 a 1.8539983,1.8539983 0 0 0 -0.006,0.002 c -1.66511,0.74186 -3.05644,1.82944 -4.0332,3.23242 a 1.8539983,1.8539983 0 0 0 -0.002,0.004 c -1.0219,1.47608 -1.46093,3.31193 -1.46093,5.34766 0,1.33343 0.27797,2.59961 0.77539,3.76172 h -2.95313 v -12.16016 c 0,-3.14856 -0.74144,-5.83798 -2.44531,-7.79297 -1.70911,-1.96097 -4.27848,-2.91797 -7.17773,-2.91797 -1.63872,0 -3.25115,0.34629 -4.78125,1.01368 -0.42535,0.18552 -0.80274,0.53474 -1.2168,0.75976 v -8.46289 a 1.8539983,1.8539983 0 0 0 -1.85352,-1.85351 h -3.9375 a 1.8539983,1.8539983 0 0 0 -1.85351,1.85351 v 29.56055 h -7.80078 c 1.16846,-1.14664 2.22138,-2.42518 3.03515,-3.94922 l 0.002,-0.006 c 1.39147,-2.58196 2.08398,-5.47958 2.08398,-8.58203 0,-3.27112 -0.64562,-6.21292 -2,-8.73047 -1.33171,-2.47543 -3.23173,-4.50177 -5.61328,-5.99023 a 1.8539983,1.8539983 0 0 0 -0.008,-0.004 c -1.44704,-0.89424 -3.1514,-1.55688 -5.09766,-2.02539 -2.02633,-0.50575 -4.55673,-0.72461 -7.6875,-0.72461 h -7.78906 a 1.8539983,1.8539983 0 0 0 -1.85352,1.85352 v 28.1582 h -19.43164 v -20.36719 a 1.8539983,1.8539983 0 0 0 -1.85351,-1.85351 h -3.9375 a 1.8539983,1.8539983 0 0 0 -1.85352,1.85351 v 16.42969 c -0.73091,0.50746 -1.46364,1.00812 -2.28125,1.36523 a 1.8539983,1.8539983 0 0 0 -0.008,0.004 c -1.02457,0.45272 -1.88212,0.63867 -2.57813,0.63867 -0.9928,0 -1.64227,-0.15797 -1.83593,-0.24805 -0.26306,-0.12235 -0.45354,-0.28179 -0.66407,-0.62304 -0.20675,-0.34345 -0.37243,-0.80098 -0.45703,-1.43164 v -0.004 c -0.097,-0.74141 -0.15234,-1.68804 -0.15234,-2.81445 v -13.31641 a 1.8539983,1.8539983 0 0 0 -1.85352,-1.85351 h -3.9375 a 1.8539983,1.8539983 0 0 0 -1.85351,1.85351 v 15.18164 c 0,1.95976 0.41015,3.65171 1.04101,5.18555 h -5.69922 c 0.5707,-0.90728 1.07647,-1.87614 1.45508,-2.96289 2.6e-4,-7.3e-4 0.002,-0.001 0.002,-0.002 0.63746,-1.79035 0.94142,-3.76077 0.94141,-5.88672 0,-4.11986 -0.85076,-7.54067 -2.7793,-10.09375 -1.9004,-2.53387 -4.77685,-3.92579 -8.01562,-3.92579 -1.78163,0 -3.46358,0.34593 -4.97266,1.05665 -0.31235,0.1441 -0.57678,0.39188 -0.88086,0.55468 v -8.30078 a 1.8539983,1.8539983 0 0 0 -1.85351,-1.85351 z m 181.38086,1.19336 a 1.8539983,1.8539983 0 0 0 -1.85352,1.85351 v 4.08399 a 1.8539983,1.8539983 0 0 0 1.85352,1.85351 h 4.43945 a 1.8539983,1.8539983 0 0 0 1.85352,-1.85351 v -4.08399 a 1.8539983,1.8539983 0 0 0 -1.85352,-1.85351 z m -106.13281,7.47656 h 2.04101 c 1.83747,0 3.37826,0.13491 4.59571,0.38086 a 1.8539983,1.8539983 0 0 0 0.0176,0.004 c 1.18534,0.22749 2.29138,0.6364 3.34766,1.23633 1.4031,0.80012 2.38362,1.82511 3.07617,3.1875 0.68681,1.3511 1.07617,3.10833 1.07617,5.33594 0,2.23055 -0.3647,3.97589 -0.98828,5.26758 a 1.8539983,1.8539983 0 0 0 -0.006,0.0117 c -0.62332,1.31467 -1.51726,2.32674 -2.79882,3.14648 a 1.8539983,1.8539983 0 0 0 -0.002,0.002 c -1.04578,0.66977 -2.18583,1.12632 -3.46289,1.37696 a 1.8539983,1.8539983 0 0 0 -0.002,0 c -1.32383,0.26226 -2.94779,0.40429 -4.85352,0.40429 h -2.04101 z m -93.88867,3.71094 2.83789,7.95117 h -5.6875 z m 29.31836,3.61718 c 1.61495,0 2.30899,0.39263 2.89648,1.31836 a 1.8539983,1.8539983 0 0 0 0.004,0.006 c 0.62736,0.97907 1.08985,2.75797 1.08984,5.3457 2e-5,2.80549 -0.59594,4.58248 -1.41406,5.5293 a 1.8539983,1.8539983 0 0 0 -0.002,0.002 c -0.87479,1.01396 -1.93183,1.49414 -3.70507,1.49414 -0.90085,0 -1.66944,-0.0884 -2.30664,-0.24219 -0.36111,-0.0889 -0.94826,-0.34306 -1.45118,-0.53321 v -11.06835 c 0.68191,-0.46119 1.36221,-0.9216 2.12696,-1.24024 a 1.8539983,1.8539983 0 0 0 0.0176,-0.008 c 0.97245,-0.41676 1.87077,-0.60352 2.74415,-0.60352 z m 101.97851,0 c 0.87202,0 1.47565,0.13685 1.79883,0.28125 a 1.8539983,1.8539983 0 0 0 0.0293,0.0117 c 0.33701,0.14341 0.4874,0.28165 0.64062,0.53906 a 1.8539983,1.8539983 0 0 0 0.0273,0.043 c 0.12407,0.19644 0.31656,0.69361 0.41993,1.47461 a 1.8539983,1.8539983 0 0 0 0,0.002 c 0.11299,0.84116 0.17187,1.76573 0.17187,2.76953 v 10.29492 h -7.97656 v -13.4082 c 0.74686,-0.51199 1.49391,-1.01883 2.28125,-1.375 0.97984,-0.44327 1.83878,-0.63282 2.60742,-0.63282 z m 52.89453,0 c 1.61496,0 2.309,0.39263 2.89649,1.31836 a 1.8539983,1.8539983 0 0 0 0.004,0.006 c 0.62672,0.97806 1.08789,2.7571 1.08789,5.3457 0,2.80629 -0.59461,4.58322 -1.41211,5.5293 a 1.8539983,1.8539983 0 0 0 -0.002,0.002 c -0.87479,1.01395 -1.93183,1.49414 -3.70508,1.49414 -0.90084,0 -1.66945,-0.0884 -2.30664,-0.24219 -0.3611,-0.0889 -0.94826,-0.34306 -1.45117,-0.53321 v -11.06835 c 0.68154,-0.46125 1.3609,-0.92186 2.125,-1.24024 a 1.8539983,1.8539983 0 0 0 0.0176,-0.008 c 0.97176,-0.41647 1.87273,-0.60352 2.74609,-0.60352 z m -24.0293,8.16407 v 3.48828 c -0.67585,0.46478 -1.35047,0.93053 -2.11523,1.29492 -0.88526,0.40899 -1.86306,0.62305 -3.00391,0.62305 -1.40497,0 -2.18097,-0.30592 -2.51367,-0.57813 -0.34831,-0.29652 -0.55273,-0.64894 -0.55273,-1.61133 0,-0.82323 0.17309,-1.15593 0.47656,-1.44726 a 1.8539983,1.8539983 0 0 0 0.0137,-0.0137 c 0.44431,-0.43542 1.05696,-0.79307 1.94922,-1.04687 0.001,-3e-4 8.9e-4,-0.002 0.002,-0.002 0.7649,-0.2131 1.95904,-0.40756 3.50586,-0.54102 0.86425,-0.0739 1.49975,-0.11199 2.23828,-0.16601 z m -165.58984,3.4375 h 10.86133 l 1.3418,3.81445 h -13.54493 z" />
    <path
       style="display:inline;fill:none;stroke:#ff0000;stroke-width:1.20641"
       d="M 492.98781,2.141322 C 481.53183,0.43039481 475.96902,3.1090753 468.45904,5.4872265 460.949,7.8653838 451.69969,11.270722 438.20446,16.243618 c -20.12071,7.414492 -43.00538,15.810925 -50.5656,18.55565 -3.93984,1.430781 -7.68666,2.809486 -10.62679,3.91141 -1.47008,0.550969 -2.73783,1.027603 -3.79363,1.437325 -1.05579,0.409698 -0.39811,-0.06159 -3.82891,1.625833 5.23884,-2.576558 1.55422,-0.689706 0.8954,-0.435937 -0.65888,0.253769 -1.69905,0.645418 -3.01603,1.142791 -2.63402,0.994754 -6.41021,2.417125 -11.01562,4.13526 -9.21071,3.436266 -21.7454,8.090035 -35.34406,13.112658 -27.24742,10.063206 -67.94054,25.097286 -90.44554,33.411948 -22.99886,8.497354 -52.79771,20.223814 -68.19056,26.908644 a 26.871882,26.871882 0 0 0 -0.0121,0 c -13.01821,5.65386 -44.28198,18.00927 -67.448323,26.56697 -20.994025,7.75537 -33.401693,12.43728 -42.318667,16.54104 -4.458483,2.05188 -8.055001,3.63108 -12.912371,7.59898 -4.857375,3.9679 -12.545391,15.70549 -11.357238,26.6141 1.311604,12.06874 3.245013,10.47218 4.205949,12.0759 0.961475,1.60463 1.765247,2.75398 2.627245,3.94675 0.410301,0.56774 0.936267,1.15257 1.366636,1.72009 -0.180058,0.24092 -0.257931,0.35118 -0.435937,0.58909 C 13.999455,245.09188 3.3567197,269.83491 2.0698101,298.2777 1.462617,311.69575 1.5257184,340.8958 1.822375,370.08511 c 0.296717,29.18938 0.4774978,53.90809 1.7082972,66.37623 2.3893708,24.22138 3.9280465,32.39916 15.4689308,79.85409 3.164063,13.01079 6.155692,24.70538 8.565053,33.56509 1.204681,4.42988 2.245156,8.12301 3.18097,11.15695 0.467907,1.51701 0.901751,2.84074 1.437326,4.31202 0.535586,1.47122 -1.444148,0.7785 4.571172,8.60039 5.087016,6.61421 10.577004,10.04217 17.259699,12.33508 6.111705,2.09698 15.60692,4.52851 26.908634,-2.88647 3.937269,2.22246 8.490152,3.91644 14.891645,4.38272 0.948137,0.0688 5.852168,0.50186 11.274768,-0.95433 5.4226,-1.4565 9.05872,-3.85883 11.66355,-5.71393 5.20966,-3.71026 9.25487,-7.44031 18.26109,-15.25689 8.63984,-7.49857 13.04137,-11.17565 17.25971,-15.55136 2.10917,-2.1879 4.59686,-4.87946 6.90388,-9.47227 2.30497,-4.58871 3.19367,-10.37954 3.33409,-12.29973 v -0.0121 c 0.45844,-6.33789 -2.41667,-19.08683 -7.32798,-25.9308 -4.91353,-6.84711 -9.65708,-10.88014 -16.81201,-17.36575 -11.10177,-10.0628 -25.45914,-23.28575 -37.19375,-34.21306 -5.867296,-5.46372 -11.093254,-10.36766 -14.891641,-13.97271 -0.972616,-0.92309 -1.531063,-1.45644 -2.297364,-2.19134 -0.658647,-3.74313 -1.502953,-10.78598 -2.403402,-21.32429 -0.61872,-7.24136 -0.538903,-11.23736 -0.553742,-12.97128 0.08951,-0.13693 -0.02051,0.0483 0.0707,-0.0827 1.178864,-1.7011 2.900275,-3.99364 4.559392,-6.19697 3.345947,3.09939 6.986071,6.69547 10.143751,9.05985 5.286576,3.95848 15.644636,9.85235 27.674426,7.54008 a 26.871882,26.871882 0 0 0 0.0121,0 c 7.31591,-1.40698 7.75432,-2.67589 9.11877,-3.46374 1.36452,-0.78779 2.23416,-1.39238 3.09855,-1.99105 1.72867,-1.19737 3.2727,-2.36397 4.95992,-3.68752 3.37452,-2.64718 7.18521,-5.82342 11.01556,-9.11879 3.83037,-3.29537 7.61084,-6.65698 10.8389,-9.68429 1.61399,-1.51368 3.0717,-2.91403 4.50045,-4.39447 1.42881,-1.48045 2.28404,-1.4974 5.60795,-7.09238 7.90096,-13.30232 4.64745,-21.7928 2.82753,-28.51088 -1.81994,-6.71809 -4.59421,-12.55978 -8.14093,-18.52029 -2.44727,-4.11296 -6.53188,-9.90501 -12.00519,-15.51609 -5.47337,-5.61108 -13.02828,-12.58848 -27.35635,-25.84831 -11.92499,-11.03582 -15.7151,-14.80173 -19.29789,-18.35536 1.90158,-5.06293 4.26416,-11.15279 6.7625,-17.41286 1.41489,-3.54531 2.64908,-6.44186 4.00566,-9.74319 5.73122,5.17059 11.51585,10.37632 19.38038,17.69561 41.85929,38.959 67.74062,62.9992 83.60053,77.6156 7.92999,7.30827 13.33725,12.24888 17.10656,15.62213 3.76932,3.37325 3.81799,4.03171 9.213,7.58719 8.76012,5.77268 16.4256,6.69655 23.93973,6.50335 7.51421,-0.19303 15.42356,-1.30993 24.2814,-8.49442 5.95484,-4.83004 4.68425,-4.58472 6.29126,-6.47975 1.60705,-1.89504 3.45726,-4.15875 5.57259,-6.78607 4.2307,-5.25464 9.46707,-11.90306 14.79743,-18.79125 10.66063,-13.77643 20.50996,-26.52517 25.83651,-34.79038 3.68577,-5.71964 8.94464,-16.14711 8.63574,-27.07358 -0.30884,-10.92646 -3.40776,-17.60456 -6.93922,-26.94398 -2.96977,-7.85351 -6.62701,-20.26458 -5.99671,-17.41285 -0.75087,-3.39704 0.37217,-11.81616 3.74644,-17.2597 2.92531,-4.71911 1.05899,-3.55235 18.28469,-11.07449 28.24366,-12.33392 47.10109,-25.61035 67.7075,-47.69096 5.7047,-6.11299 12.09416,-12.88866 13.20695,-14.04339 a 26.871882,26.871882 0 0 0 0.0121,-0.0121 c 13.83586,-14.36386 20.13779,-19.52576 26.62587,-29.724381 2.77167,-4.356763 5.05729,-12.086949 5.21912,-19.227187 0.37097,-0.130052 0.22922,-0.08994 0.61268,-0.22385 11.57395,-4.042378 18.70252,-4.992071 29.21778,-14.361482 5.25761,-4.684701 11.26354,-15.194085 11.06268,-24.705521 -0.20087,-9.51144 -3.61785,-14.81669 -5.84356,-18.461399 C 516.31512,17.88041 515.32032,16.138635 513.205,13.5919 509.57928,9.2277303 500.61274,3.2792939 492.98804,2.1405558 Z"
       id="path1086" />
    <circle
       style="fill:none;stroke:#00ff00;stroke-width:1.96165;stroke-miterlimit:4;stroke-dasharray:none;stop-color:#000000"
       id="path1240"
       cx="503.32776"
       cy="87.313873"
       r="12.275818" />
  </g>
  <inkscape:templateinfo>
    <inkscape:name>Lasersaur</inkscape:name>
    <inkscape:author>Arthur</inkscape:author>
    <inkscape:shortdesc>Default size of the Lasersaur</inkscape:shortdesc>
    <inkscape:date>2021-10-20</inkscape:date>
  </inkscape:templateinfo>
</svg>
