<?xml version="1.0" encoding="UTF-8" standalone="no"?>
<!-- Created with Inkscape (http://www.inkscape.org/) -->

<svg
   width="1220mm"
   height="600mm"
   viewBox="0 0 1220 600.00001"
   version="1.1"
   id="svg5"
   inkscape:version="1.1.1 (3bf5ae0d25, 2021-09-20)"
   sodipodi:docname="ice_skater.svg"
   xmlns:inkscape="http://www.inkscape.org/namespaces/inkscape"
   xmlns:sodipodi="http://sodipodi.sourceforge.net/DTD/sodipodi-0.dtd"
   xmlns="http://www.w3.org/2000/svg"
   xmlns:svg="http://www.w3.org/2000/svg">
  <sodipodi:namedview
     id="namedview7"
     pagecolor="#ffffff"
     bordercolor="#666666"
     borderopacity="1.0"
     inkscape:pageshadow="2"
     inkscape:pageopacity="0.0"
     inkscape:pagecheckerboard="true"
     inkscape:document-units="mm"
     showgrid="false"
     inkscape:zoom="0.11808658"
     inkscape:cx="-237.11416"
     inkscape:cy="393.77888"
     inkscape:window-width="1920"
     inkscape:window-height="1017"
     inkscape:window-x="-8"
     inkscape:window-y="-8"
     inkscape:window-maximized="1"
     inkscape:current-layer="layer1" />
  <defs
     id="defs2" />
  <g
     inkscape:label="Layer 1"
     inkscape:groupmode="layer"
     id="layer1">
    <path
       style="fill:#000000;stroke-width:4.81922"
       d="m 136.12049,476.37482 c -41.073569,-5.52745 -51.807979,-13.17402 -24.45494,-17.42018 12.08883,-1.87661 16.33313,-5.4556 19.18823,-16.1803 2.0163,-7.57387 7.15734,-17.62857 11.42453,-22.34377 7.2048,-7.96121 6.8218,-9.30991 -5.36655,-18.89727 -9.74942,-7.6689 -11.72581,-11.72347 -7.68449,-15.7648 4.04132,-4.04132 7.19523,-3.98439 12.26285,0.22136 8.13211,6.74905 22.50157,2.34373 22.50157,-6.89842 0,-3.59902 4.16362,-8.77198 9.25249,-11.49545 5.08887,-2.72349 11.74613,-12.5076 14.79392,-21.74247 3.06189,-9.27762 15.38751,-25.45756 27.54609,-36.15997 l 22.00467,-19.36929 -13.0823,-19.76869 c -7.19527,-10.87278 -16.09533,-28.30854 -19.77792,-38.74612 -3.6826,-10.43757 -10.01763,-23.72023 -14.07784,-29.51701 -9.43368,-13.46845 -9.44625,-38.61679 -0.0284,-56.82886 9.03176,-17.46551 59.60406,-44.08278 105.80739,-55.688689 30.28271,-7.60677 34.55855,-7.58175 73.94651,0.43267 22.99291,4.67847 46.53686,11.442179 52.3199,15.030479 9.69293,6.01435 11.30113,5.25158 20.57921,-9.760679 15.99973,-25.888112 43.07242,-30.181431 64.58687,-10.2425 14.09895,13.06647 16.926,35.420939 7.06877,55.895179 -8.23188,17.09827 -46.68244,44.84527 -53.87388,38.8769 -8.02061,-6.65651 -58.96216,10.61487 -57.20101,19.39362 1.97087,9.82412 49.00069,51.41598 70.97529,62.76856 39.4302,20.37052 46.713,34.78812 18.32065,36.26893 -13.42127,0.7 -20.7995,-2.09186 -30.09551,-11.38787 -6.77336,-6.77337 -27.15548,-19.78866 -45.29361,-28.92288 -34.6728,-17.46094 -65.82164,-44.35956 -65.82164,-56.84037 0,-5.73441 -5.87294,-7.38947 -26.2213,-7.38947 -14.42171,0 -27.4091,1.9219 -28.86086,4.2709 -1.45176,2.349 11.17344,18.22052 28.056,35.27003 43.24882,43.67651 47.62717,70.39981 14.85299,90.65538 -19.74428,12.20263 -102.72727,48.11488 -111.17981,48.11488 -8.74548,0 -10.75001,9.1499 -7.83181,35.74937 2.26919,20.68374 1.58222,23.31065 -5.3958,20.63293 -11.83253,-4.54057 -10.28362,12.1589 1.82941,19.72362 11.30263,7.05861 8.42767,15.45929 -5.29064,15.45929 -5.14471,0 -9.35402,2.16865 -9.35402,4.81922 0,2.65057 5.54961,4.81922 12.33247,4.81922 6.99445,0 11.04327,2.08595 9.35402,4.81922 -3.65609,5.91569 -35.31375,5.24857 -88.11146,-1.8567 z m 24.25679,-15.79264 c -3.31322,-1.3369 -8.73484,-1.3369 -12.04806,0 -3.31321,1.3369 -0.6024,2.43077 6.02403,2.43077 6.62643,0 9.33724,-1.09387 6.02403,-2.43077 z"
       id="path33081" />
    <path
       style="fill:#000000;stroke-width:4.81922"
       id="path1083"
       d="" />
    <path
       style="fill:#000000;stroke-width:4.81922"
       id="path1063"
       d="" />
    <path
       style="fill:#000000;stroke-width:4.81922"
       id="path1043"
       d="" />
  </g>
</svg>
