<?xml version="1.0" encoding="UTF-8" standalone="no"?>
<!-- Created with Inkscape (http://www.inkscape.org/) -->

<svg
   width="1220mm"
   height="600mm"
   viewBox="0 0 1220 600.00001"
   version="1.1"
   id="svg5"
   inkscape:version="1.1.1 (3bf5ae0d25, 2021-09-20)"
   sodipodi:docname="goose.svg"
   xmlns:inkscape="http://www.inkscape.org/namespaces/inkscape"
   xmlns:sodipodi="http://sodipodi.sourceforge.net/DTD/sodipodi-0.dtd"
   xmlns="http://www.w3.org/2000/svg"
   xmlns:svg="http://www.w3.org/2000/svg">
  <sodipodi:namedview
     id="namedview7"
     pagecolor="#ffffff"
     bordercolor="#666666"
     borderopacity="1.0"
     inkscape:pageshadow="2"
     inkscape:pageopacity="0.0"
     inkscape:pagecheckerboard="true"
     inkscape:document-units="mm"
     showgrid="false"
     inkscape:zoom="0.23617316"
     inkscape:cx="2305.5118"
     inkscape:cy="1132.6435"
     inkscape:window-width="1920"
     inkscape:window-height="1017"
     inkscape:window-x="-8"
     inkscape:window-y="-8"
     inkscape:window-maximized="1"
     inkscape:current-layer="layer1" />
  <defs
     id="defs2" />
  <g
     inkscape:label="Layer 1"
     inkscape:groupmode="layer"
     id="layer1">
    <path
       style="fill:#000000;stroke-width:1.53228"
       d="m 407.2655,503.94026 c 0,-2.01714 10.30455,-10.04443 29.67055,-23.11345 21.00478,-14.17495 27.42427,-20.10794 26.75932,-24.73136 -0.27583,-1.91779 -2.22532,-4.32274 -4.33221,-5.34435 -46.40388,-22.50065 -70.62408,-33.33662 -81.21106,-36.33327 -12.25634,-3.4692 -22.74522,-5.40811 -71.25122,-13.17109 -25.0171,-4.00378 -29.00316,-5.08338 -29.56667,-8.0079 -0.97078,-5.03821 28.9827,-14.06321 46.4218,-13.98692 5.89929,0.0257 17.83172,1.53746 26.51651,3.35926 22.00989,4.61694 59.64032,6.86178 95.30008,5.68511 33.68714,-1.11158 48.13223,-3.23597 63.62382,-9.35696 19.35403,-7.64709 28.76751,-18.6228 33.6109,-39.18881 2.71834,-11.54258 3.58176,-25.72698 5.4017,-88.73974 1.83672,-63.59372 2.55812,-66.19197 32.97502,-118.76631 21.1107,-36.489067 29.067,-52.916598 33.7214,-69.625668 7.5778,-27.20345 9.5873,-26.252718 11.5287,5.454337 0.7682,12.547666 1.4156,23.331082 1.4386,23.96315 0.1009,2.781304 5.1227,0.703804 10.8871,-4.503998 l 6.2575,-5.653211 -0.8194,5.27014 c -0.4507,2.898577 -1.2356,10.247083 -1.7441,16.33001 l -0.9247,11.05988 6.7579,3.1766 c 10.2672,4.82617 11.0568,7.41838 10.9248,35.86474 -0.1053,22.66262 -0.6236,27.11397 -6.4392,55.29251 -8.3455,40.43638 -9.1538,45.47105 -11.1325,69.33586 -2.0655,24.91195 -0.077,52.33917 5.4761,75.55421 6.0549,25.31001 16.3462,56.66096 19.0798,58.12397 6.9529,3.72109 100.038,6.87242 112.2754,3.80101 5.6566,-1.4197 5.2941,0.32972 -1.5129,7.30066 l -5.7165,5.85428 4.2709,3.40553 4.271,3.40553 -4.3559,2.57309 c -2.3958,1.4152 -16.7425,4.63273 -31.8816,7.15004 -15.1391,2.51731 -37.5238,7.01167 -49.7438,9.98746 -39.2165,9.54994 -46.9096,10.41645 -102.663,11.56344 l -51.33156,1.05604 -26.81498,10.07038 c -40.00953,15.02563 -59.38698,20.83127 -83.32713,24.9655 -15.57894,2.69033 -22.40047,2.97059 -22.40047,0.9203 z"
       id="path1864" />
  </g>
</svg>
