<?xml version="1.0" encoding="UTF-8" standalone="no"?>
<!-- Created with Inkscape (http://www.inkscape.org/) -->

<svg
   width="1220mm"
   height="600mm"
   viewBox="0 0 1220 600.00001"
   version="1.1"
   id="svg5"
   inkscape:version="1.1.1 (3bf5ae0d25, 2021-09-20)"
   sodipodi:docname="ice_skater.svg"
   xmlns:inkscape="http://www.inkscape.org/namespaces/inkscape"
   xmlns:sodipodi="http://sodipodi.sourceforge.net/DTD/sodipodi-0.dtd"
   xmlns="http://www.w3.org/2000/svg"
   xmlns:svg="http://www.w3.org/2000/svg">
  <sodipodi:namedview
     id="namedview7"
     pagecolor="#ffffff"
     bordercolor="#666666"
     borderopacity="1.0"
     inkscape:pageshadow="2"
     inkscape:pageopacity="0.0"
     inkscape:pagecheckerboard="true"
     inkscape:document-units="mm"
     showgrid="false"
     inkscape:zoom="0.23617316"
     inkscape:cx="2305.5118"
     inkscape:cy="1132.6435"
     inkscape:window-width="1920"
     inkscape:window-height="1017"
     inkscape:window-x="-8"
     inkscape:window-y="-8"
     inkscape:window-maximized="1"
     inkscape:current-layer="layer1" />
  <defs
     id="defs2" />
  <g
     inkscape:label="Layer 1"
     inkscape:groupmode="layer"
     id="layer1">
    <path
       style="fill:#000000;stroke-width:1.00402"
       d="m 392.19091,501.25111 c -14.14308,-12.17836 -53.5051,-49.58439 -60.72135,-57.70396 -5.50509,-6.19421 -5.90281,-6.94197 -4.45988,-8.3849 0.87132,-0.87132 2.16223,-1.58421 2.86871,-1.58421 2.84406,0 8.44357,2.60121 14.46426,6.71927 3.49468,2.39032 6.71195,4.12479 7.14947,3.85438 0.43753,-0.27041 1.06106,-1.81947 1.38564,-3.44235 1.25683,-6.28412 9.3585,-12.86069 21.25569,-17.25441 3.31328,-1.22361 8.50909,-3.79466 11.54625,-5.71344 7.19508,-4.5456 26.04367,-23.51926 34.13801,-34.36454 8.55962,-11.46868 16.26833,-20.1003 37.3452,-41.8163 9.77241,-10.06875 18.90398,-20.0277 20.29236,-22.131 2.95753,-4.48044 4.87276,-12.28528 7.09786,-28.92472 0.88613,-6.62655 2.698,-16.11455 4.02637,-21.08446 2.81043,-10.51483 4.03555,-21.89918 5.55892,-51.65591 1.44845,-28.29333 3.42089,-34.09261 16.26581,-47.82386 4.55946,-4.87407 6.44552,-7.7739 7.33168,-11.27246 l 1.19307,-4.71028 6.91996,-0.64279 c 11.09164,-1.03027 33.33792,-9.436 32.84255,-12.4095 -0.2392,-1.43577 -10.20765,-3.99248 -23.50283,-6.02801 -8.3883,-1.28427 -20.19375,-1.88577 -44.08666,-2.24624 -17.94689,-0.27077 -33.42138,-0.90773 -34.38775,-1.41547 -4.02249,-2.11344 -1.38576,-4.86859 4.65932,-4.86859 4.50515,0 7.4825,-2.31471 6.05872,-4.7103 -2.47558,-4.16533 -7.28212,-5.46476 -19.00122,-5.13689 -10.7665,0.30121 -11.03687,0.2553 -10.75124,-1.82547 0.18934,-1.37922 -0.78762,-3.04375 -2.76106,-4.70429 -1.67973,-1.4134 -3.05406,-3.00175 -3.05406,-3.52965 0,-1.63273 8.22327,-4.3951 14.69276,-4.93562 7.57609,-0.63297 14.31927,0.89721 25.46811,5.77929 4.6938,2.05542 10.11552,4.11846 12.04826,4.58454 1.93275,0.46609 20.23104,0.86747 40.66289,0.89197 32.1297,0.0385 38.23401,0.29032 45.18098,1.86368 12.03113,2.72484 26.47411,7.77358 42.16892,14.74074 22.95341,10.18936 30.63555,13.07017 40.16087,15.06037 4.96991,1.0384 16.71696,4.1813 26.10457,6.98422 9.3876,2.80291 18.7105,5.36293 20.71756,5.68894 l 3.6492,0.59272 4.51299,-9.527 c 7.27541,-15.35855 17.14635,-23.1801 29.37463,-23.27592 11.81816,-0.0926 25.89839,9.66465 32.08481,22.23398 4.99807,10.15487 4.40477,27.39031 -1.15713,33.61494 -0.82518,0.92352 -1.71115,3.63438 -1.96882,6.02413 -1.1363,10.53838 -1.2335,10.76123 -5.68255,13.02729 -2.32156,1.18246 -7.38368,5.17371 -11.24917,8.86945 -12.16737,11.63307 -14.3782,12.27581 -22.05709,6.41254 -11.30804,-8.63433 -26.60848,-8.46131 -44.45769,0.50271 -9.8184,4.93088 -14.85652,5.87977 -35.39343,6.66603 -17.27759,0.66147 -24.09653,1.73645 -24.09653,3.79872 0,0.67078 1.36746,2.51025 3.03879,4.08772 1.67133,1.57747 6.2666,8.35315 10.21171,15.05706 3.94511,6.70392 12.29157,19.84548 18.54769,29.20346 6.62554,9.91058 11.37475,18.02244 11.37475,19.42859 0,1.32775 -4.23942,11.2918 -9.42093,22.14234 -5.18151,10.85054 -13.17974,28.31265 -17.77383,38.80467 -4.5941,10.49203 -11.45127,25.10684 -15.23816,32.47738 -6.85477,13.34163 -13.7923,31.74352 -13.7923,36.58424 0,6.71865 17.43322,21.42928 30.57999,25.80424 7.50042,2.49599 12.59295,6.23991 12.59295,9.25811 0,1.12049 -1.34136,3.56499 -2.98081,5.4322 -1.69038,1.92525 -2.73377,4.03874 -2.41017,4.88205 0.75613,1.97041 6.59643,3.51617 13.42315,3.5527 7.70362,0.0413 13.24663,1.51081 15.31134,4.05941 2.17246,2.6816 2.21933,4.35272 0.17928,6.39275 -1.38255,1.38257 -6.5062,1.57327 -41.4159,1.54157 -39.75571,-0.0362 -86.07451,-1.34018 -90.22079,-2.5401 -2.99773,-0.86753 -3.5672,-2.93557 -1.50848,-5.478 1.35328,-1.67122 3.87598,-2.44829 11.74693,-3.61842 8.02743,-1.19339 10.53434,-1.97898 12.58853,-3.94491 1.49802,-1.43366 3.79509,-2.47083 5.52212,-2.49336 l 2.95713,-0.0385 -4.77643,-4.22852 c -8.22316,-7.27986 -8.06893,-13.46889 0.68537,-27.50199 10.51856,-16.86118 18.03236,-36.52308 23.14394,-60.56235 5.34648,-25.144 10.46565,-43.98104 15.47405,-56.93994 3.96464,-10.2582 4.91681,-13.76527 4.22248,-15.55232 -1.86507,-4.80027 -10.72276,-11.10925 -27.20316,-19.37576 -5.24601,-2.63138 -11.96363,-6.33432 -14.92805,-8.22877 l -5.38984,-3.44444 -2.38512,2.24071 c -1.31182,1.23238 -4.72297,6.79562 -7.58036,12.36275 -9.53961,18.58633 -15.58132,27.43625 -28.35314,41.53183 -3.64456,4.0223 -7.25717,8.82277 -8.02804,10.66771 -1.47912,3.54005 -2.26669,4.234 -18.17529,16.01502 -5.52212,4.08937 -14.78422,11.89883 -20.58245,17.35437 -17.69185,16.64621 -31.14213,27.82669 -57.73126,47.98881 -7.17875,5.44354 -13.19011,10.00529 -13.35857,10.13722 -0.16845,0.13193 -0.98582,6.27677 -1.81637,13.65522 -1.6547,14.69989 -1.22772,21.8925 1.67981,28.29642 1.04763,2.30744 1.91471,5.13316 1.92684,6.27938 0.029,2.73948 -3.39314,5.85313 -9.30931,8.47013 l -4.78826,2.11807 4.15871,4.70812 c 4.57947,5.18447 5.94482,7.96415 5.94482,12.10284 0,3.27075 -1.63888,5.15556 -4.48284,5.15556 -1.15682,0 -6.50446,-3.81569 -12.09846,-8.63259 z"
       id="path2042" />
  </g>
</svg>
