<?xml version="1.0" encoding="UTF-8" standalone="no"?>
<!-- Created with Inkscape (http://www.inkscape.org/) -->

<svg
   width="1220mm"
   height="600mm"
   viewBox="0 0 1220 600.00001"
   version="1.1"
   id="svg5"
   inkscape:version="1.1.1 (3bf5ae0d25, 2021-09-20)"
   sodipodi:docname="tree.svg"
   xmlns:inkscape="http://www.inkscape.org/namespaces/inkscape"
   xmlns:sodipodi="http://sodipodi.sourceforge.net/DTD/sodipodi-0.dtd"
   xmlns:xlink="http://www.w3.org/1999/xlink"
   xmlns="http://www.w3.org/2000/svg"
   xmlns:svg="http://www.w3.org/2000/svg">
  <sodipodi:namedview
     id="namedview7"
     pagecolor="#ffffff"
     bordercolor="#666666"
     borderopacity="1.0"
     inkscape:pageshadow="2"
     inkscape:pageopacity="0.0"
     inkscape:pagecheckerboard="true"
     inkscape:document-units="mm"
     showgrid="false"
     inkscape:zoom="0.23617316"
     inkscape:cx="2313.9802"
     inkscape:cy="1454.4413"
     inkscape:window-width="1920"
     inkscape:window-height="1017"
     inkscape:window-x="-8"
     inkscape:window-y="-8"
     inkscape:window-maximized="1"
     inkscape:current-layer="layer1" />
  <defs
     id="defs2" />
  <g
     inkscape:label="Layer 1"
     inkscape:groupmode="layer"
     id="layer1">
    <path
       style="fill:#000000;stroke-width:4.17326"
       sodipodi:type="inkscape:offset"
       inkscape:radius="3.323915"
       inkscape:original="M 786.82617 57.830078 C 786.23127 56.706194 783.54354 60.630175 778.51953 69.148438 C 766.92178 88.812573 766.33392 98.13981 776.21094 105.83984 C 779.65388 108.52394 782.59212 112.27905 782.74023 114.18555 C 782.88834 116.09205 785.22537 125.16453 787.93359 134.3457 C 794.17177 155.49394 794.1353 158.51046 787.6875 154.74023 C 784.81838 153.06258 785.75862 155.44702 789.77539 160.03906 C 801.0402 172.91721 799.01786 178.62605 784.12305 176.00195 C 772.23515 173.90761 771.72015 174.27093 777.86328 180.41406 C 781.54496 184.09574 784.55859 188.85107 784.55859 190.98242 C 784.55859 198.43282 785.50793 201.22516 793.11523 216.13672 C 799.0311 227.73277 800.22288 236.53317 798.34375 254.74023 C 796.8268 269.43805 793.95723 278.32227 790.72656 278.32227 C 774.83944 278.32227 726.13281 224.73206 726.13281 207.25195 C 726.13281 202.79624 723.85489 190.63825 721.07227 180.23438 C 717.13873 165.5274 717.1229 158.379 721 148.10742 C 727.50238 130.88064 724.3632 128.02343 716.22461 143.76172 C 710.04768 155.70658 709.40582 175.34918 715.00977 180.95312 C 716.5363 182.47964 717.78516 188.46294 717.78516 194.24805 L 717.78516 204.76562 L 706.08008 193.55273 C 699.64243 187.38506 692.65233 182.33789 690.54492 182.33789 C 688.43752 182.33789 692.75196 187.85434 700.13281 194.5957 C 708.64641 202.37169 712.63675 209.23695 711.04883 213.375 C 709.67218 216.96247 710.27086 219.89648 712.37891 219.89648 C 717.66175 219.89648 734.47852 235.98073 734.47852 241.0332 C 734.47852 247.08267 710.32037 233.56368 705.95312 225.07031 C 703.89994 221.07731 703.12351 215.28146 704.22656 212.18945 C 705.80175 207.774 704.43037 207.53145 697.83984 211.05859 C 691.39437 214.5081 688.26087 214.11797 684.32617 209.37695 C 681.50881 205.98224 676.35932 203.20508 672.88086 203.20508 C 669.40242 203.20508 675.21188 210.22423 685.79297 218.80469 C 704.17551 233.71154 704.62023 234.56988 695.75977 238.07812 C 687.82721 241.21897 689.80433 242.45072 709.43945 246.60156 C 722.06355 249.2703 738.61897 255.15192 746.23047 259.67188 L 760.07031 267.89062 L 744.14453 271.33203 C 701.70665 280.5046 694.83357 279.92228 683.26172 266.16992 C 673.6688 254.76938 669.86254 253.27535 650.24023 253.21875 C 624.27814 253.14394 621.08827 251.50347 611.84375 233.46094 C 607.87732 225.71962 601.8045 220.03852 597.69727 220.22656 C 593.0065 220.44132 592.39121 221.3143 595.92969 222.73242 C 598.91526 223.92896 605.9803 232.23056 611.63086 241.18164 C 621.67033 257.08515 622.46381 257.45703 646.41211 257.45703 C 668.28681 257.45703 671.6936 258.63942 678.12891 268.46094 C 685.32065 279.43694 685.3133 279.45681 674.82422 276.82422 C 669.04077 275.37265 661.29548 273.03018 657.61328 271.61719 C 653.06668 269.87244 651.61854 270.87022 653.09961 274.72852 C 654.45365 278.25591 663.53791 280.90778 677.0625 281.72266 C 689.04303 282.44452 699.82301 284.61598 701.01758 286.54883 C 702.21215 288.48169 710.69872 287.44982 719.87695 284.25586 C 729.05518 281.06189 744.43948 278.42142 754.0625 278.38672 L 771.55859 278.32227 L 772.8418 296.02344 C 773.85262 309.96588 775.8962 314.00255 782.4707 315.03711 C 787.06128 315.75948 796.2669 318.46797 802.92578 321.05664 C 813.5874 325.2014 814.08425 326.10934 807.09766 328.6543 C 802.73408 330.24381 796.81638 329.66768 793.94727 327.375 C 790.31282 324.47076 788.73047 324.84874 788.73047 328.61914 C 788.73047 331.8904 784.2761 330.02779 777.4668 323.91211 L 766.20117 313.79492 L 773.68164 325.71875 C 783.64519 341.59989 777.38416 348.07287 760.50391 339.34375 C 753.63244 335.79038 746.90259 329.99854 745.54883 326.4707 C 744.19508 322.94287 740.68139 320.20356 737.74023 320.38477 C 733.55175 320.64282 733.52351 321.17163 737.60938 322.82031 C 747.97109 327.00135 742.47727 331.22051 725.82422 331.87305 C 706.47629 332.63118 692.74609 326.79912 692.74609 317.82227 C 692.74609 314.46009 691.02163 311.70898 688.91406 311.70898 C 686.80651 311.70898 681.80407 310.45176 677.79688 308.91406 C 672.79616 306.9951 671.46668 307.66406 673.55859 311.04883 C 675.56222 314.29076 672.19205 316.86277 663.72266 318.55664 C 645.88633 322.12392 642.36671 329.5815 659.99219 326.46094 C 669.51899 324.77424 683.26362 327.31759 703.17969 334.45312 C 719.24673 340.20963 730.67043 344.95941 728.56641 345.00781 C 726.46238 345.05622 725.81049 346.16401 727.11719 347.4707 C 728.42387 348.77738 733.24701 347.50256 737.83594 344.63672 C 744.68413 340.35997 747.97982 340.60563 756.22461 346.00781 C 761.74942 349.62782 770.98321 351.68721 776.74414 350.58594 C 784.96782 349.01389 789.4622 351.5731 797.66016 362.49023 C 816.65193 387.78132 816.64928 387.97967 797.36523 386.14062 C 782.31683 384.70552 780.88943 385.2213 787.18164 389.82227 C 791.20711 392.76575 798.36608 395.31854 803.0918 395.49414 C 813.86408 395.89447 826.80438 398.29068 827.8457 400.07812 C 828.28032 400.82418 835.62002 409.42003 844.15625 419.18164 L 859.67578 436.93164 L 859.52734 485.95508 C 859.44558 512.91819 856.82612 545.6593 853.70508 558.71484 C 850.58405 571.77034 848.73318 583.15506 849.5918 584.01367 C 854.20118 588.62308 887.95968 586.65552 895.20117 581.35547 C 902.90268 575.71877 903.50101 570.27086 903.57031 505.05273 C 903.64366 436.0985 903.84753 434.5065 914.7832 417.58398 C 926.76692 399.03967 945.75677 389.403 962.18945 393.52734 C 967.92719 394.96742 975.78854 393.24261 981.40234 389.31055 C 986.87954 385.47418 988.46995 382.6543 985.15625 382.6543 C 980.47291 382.6543 980.57004 381.30138 985.67969 375.35156 C 1000.5719 358.0107 999.89123 350.80437 984.88281 366.91406 C 977.09139 375.27716 931.67739 388.78439 926.74023 384.20703 C 925.75314 383.29188 930.51864 374.58562 937.33008 364.86133 C 947.76378 349.96578 952.87328 346.56754 969.76367 343.28125 C 983.62695 340.58391 993.87748 340.86731 1002.9922 344.19922 C 1014.184 348.29041 1015.0721 348.18004 1008.8711 343.4668 C 999.07155 336.01833 999.61904 331.39459 1009.9141 334.66211 C 1021.6196 338.37728 1034.1282 333.56863 1039.6641 323.22461 C 1044.3482 314.47229 1044.3226 314.47203 1032.8379 323.50586 C 1020.6568 333.08751 1009.9141 335.38246 1009.9141 328.40234 C 1009.9141 326.10704 1011.7926 324.22852 1014.0879 324.22852 C 1016.3832 324.22852 1018.2598 322.18489 1018.2598 319.68555 C 1018.2598 317.18622 1012.4819 320.00305 1005.4199 325.94531 C 995.84146 334.00505 987.89162 336.74805 974.12109 336.74805 C 963.96837 336.74805 955.66211 335.71399 955.66211 334.44922 C 955.66211 333.18445 962.43714 329.31769 970.71875 325.85742 C 979.00036 322.39714 984.79484 318.58587 983.5957 317.38672 C 982.39656 316.18756 977.21528 317.45484 972.08008 320.20312 C 962.17563 325.50383 962.25412 326.35746 970.71484 305.44922 C 972.10804 302.00629 971.45441 299.18945 969.26172 299.18945 C 967.06903 299.18945 962.33178 306.67891 958.73633 315.83203 C 950.26111 337.40784 900.88507 407.5349 894.10547 407.625 C 885.9632 407.73324 887.94168 386.39169 897.7793 367.98633 C 902.66845 358.83916 915.81429 340.3928 926.99219 326.99414 C 938.1701 313.59549 947.34391 299.51135 947.37891 295.69531 C 947.53592 278.64908 953.42612 276.50825 979.28516 284.10547 C 1009.7555 293.05744 1037.476 306.41513 1053.7324 319.97852 C 1060.6183 325.72371 1063.9062 327.71469 1061.0371 324.4043 C 1054.8511 317.26689 1054.0884 310.14601 1059.8945 313.73438 C 1062.1354 315.1193 1069.1766 313.45247 1075.543 310.0293 L 1087.1191 303.80469 L 1072.1562 306.10547 C 1057.1029 308.41952 1022.4336 295.14283 1022.4336 287.06445 C 1022.4336 285.08011 1034.17 283.95255 1048.5156 284.55859 C 1062.8612 285.16464 1068.966 284.91222 1062.0801 283.99609 C 1034.6462 280.34628 1029.788 278.28861 1034.6797 272.39453 C 1037.229 269.32277 1045.3749 265.39831 1052.7832 263.67383 C 1062.2529 261.46947 1064.0381 259.98142 1058.7949 258.66211 C 1054.693 257.63001 1042.3213 262.57006 1031.3027 269.64062 C 1020.2842 276.71119 1007.6265 282.49609 1003.1738 282.49609 C 994.25869 282.49609 976.52734 271.52851 976.52734 266.01367 C 976.52734 259.764 989.4466 257.37586 998.12695 262.02148 C 1004.8578 265.62368 1011.459 264.37719 1030.2129 255.96094 C 1045.9244 248.91004 1060.7899 245.46796 1074.6445 245.67383 C 1086.096 245.844 1103.6687 243.07471 1113.6934 239.51953 C 1123.7182 235.96435 1134.8232 234.16908 1138.373 235.53125 C 1142.3804 237.06899 1143.7661 236.2926 1142.0293 233.48242 C 1137.0256 225.3862 1149.3077 225.19015 1167.8145 233.07031 C 1180.5531 238.4944 1187.9658 239.57524 1192.8535 236.72266 C 1199.22 233.00701 1199.1858 232.66128 1192.4375 232.54492 C 1188.3896 232.47513 1181.8176 230.67656 1177.832 228.54883 C 1173.8463 226.42108 1167.1798 223.61735 1163.0176 222.31836 C 1149.2502 218.02173 1160.4625 210.49349 1177.2715 212.74805 C 1190.6063 214.53662 1192.375 213.96488 1187.7656 209.35547 C 1180.5327 202.12259 1161.9186 206.7363 1128.957 223.93359 C 1108.9892 234.35153 1099.6377 236.76599 1082.0078 236.05273 C 1069.8996 235.56287 1059.9922 234.1777 1059.9922 232.97461 C 1059.9922 225.07113 1084.0896 207.33661 1095.2031 207.06055 C 1102.2334 206.88593 1114.5583 204.05992 1122.5918 200.78125 L 1137.1992 194.82031 L 1120.5059 197.07422 C 1104.2807 199.26425 1104.6314 198.87435 1133.0254 183.21875 C 1150.8187 173.40807 1162.8221 163.9714 1163.7324 159.07617 C 1165.082 151.81762 1164.2033 151.98993 1154.6523 160.86523 C 1148.8358 166.27012 1142.256 169.5683 1140.0312 168.19336 C 1137.8066 166.81842 1134.9276 168.45403 1133.6328 171.82812 C 1131.0845 178.46897 1094.4336 197.30271 1090.9121 193.78125 C 1088.3516 191.2207 1115.3255 173.99219 1121.8945 173.99219 C 1127.0378 173.99219 1135.1238 160.73574 1135.0918 152.35547 C 1135.0804 149.33546 1130.8542 151.86868 1125.7012 157.98438 C 1120.5482 164.10008 1110.4245 172.02848 1103.2031 175.60352 C 1095.9816 179.17856 1086.2197 187.32095 1081.5098 193.69727 L 1072.9453 205.29102 L 1078.2637 186.99609 C 1081.6442 175.36637 1088.7858 164.38388 1097.8691 156.85156 C 1113.8599 143.59118 1111.3914 141.06138 1093.0391 151.90234 C 1086.4057 155.82079 1079.0959 163.80214 1076.7949 169.63867 C 1073.0307 179.18643 1072.8181 178.78627 1074.6699 165.64453 C 1076.511 152.5777 1076.268 152.11145 1072.375 161.21875 C 1069.9815 166.81796 1069.1106 176.34999 1070.4395 182.40039 C 1073.689 197.19532 1050.6207 231.69626 1030.1465 242.66211 C 1017.7544 249.2993 1012.9888 249.94926 1004.6426 246.14648 C 989.17624 239.09954 987.03816 224.62799 1000.6953 219.43555 C 1013.3091 214.6398 1029.2537 220.98787 1032.1934 231.97656 C 1033.7682 237.86306 1034.0434 237.82685 1034.4688 231.67188 C 1034.735 227.81905 1032.0034 221.71625 1028.3965 218.10938 C 1022.7041 212.41701 1022.6624 211.55078 1028.0918 211.55078 C 1031.5321 211.55078 1038.2409 206.60246 1042.998 200.55469 C 1052.439 188.55239 1053.9646 182.33789 1047.4727 182.33789 C 1045.1774 182.33789 1043.3008 185.04854 1043.3008 188.36133 C 1043.3008 195.15023 1027.7203 207.37695 1019.0703 207.37695 C 1015.9469 207.37695 1014.2203 205.02927 1015.2324 202.16016 C 1016.2445 199.29104 1020.1559 197.20465 1023.9258 197.52344 C 1032.133 198.2175 1033.0715 192.45631 1025.2402 189.45117 C 1022.1788 188.27642 1014.4722 193.874 1008.0195 201.96094 C 1000.4297 211.47282 995.30024 214.91558 993.36914 211.79102 C 988.56022 204.01004 979.42509 218.31382 981.67773 230.09766 C 982.94031 236.70244 981.43679 241.18858 977.44922 242.71875 C 972.37391 244.66633 971.7374 242.12529 973.9043 228.57422 C 975.42785 219.04649 974.77543 210.96149 972.36328 209.4707 C 966.92563 206.11002 966.91923 171.09222 972.35547 167.73242 C 974.65077 166.31385 976.52734 163.09698 976.52734 160.58594 C 976.52734 158.07491 972.81656 160.30171 968.2793 165.5332 L 960.0293 175.04492 L 955.58789 163.36523 C 953.14558 156.94147 952.21665 148.89956 953.52344 145.49414 C 954.83022 142.08872 952.85597 130.13515 949.13477 118.93164 C 945.41355 107.72812 943.42251 95.814615 944.71094 92.457031 C 945.99936 89.099446 944.98642 86.353516 942.46094 86.353516 C 939.34538 86.353516 938.8854 92.055574 941.0293 104.08984 C 942.76716 113.84484 944.42314 134.03176 944.70898 148.95117 L 945.22852 176.07812 L 932.04492 176.49609 C 919.59306 176.89026 918.7099 175.90336 916.13086 158.70508 C 914.62913 148.69052 914.58574 136.76563 916.0332 132.20508 C 917.66471 127.06467 916.75434 123.91211 913.63867 123.91211 C 910.02883 123.91211 909.20659 131.31139 910.7207 150.17383 C 912.80179 176.09993 912.68929 176.4467 901.90234 177.27148 C 895.06516 177.79425 886.47956 183.64581 878.96289 192.90625 C 867.2002 207.39775 866.82808 207.52775 860.98633 199.1875 C 857.70518 194.50298 856.16937 188.8102 857.57422 186.53711 C 861.39373 180.357 853.35491 168.51103 844.49609 167.26562 C 837.27827 166.25092 837.31915 166.61481 845.07031 172.36719 C 849.80695 175.88241 852.83324 182.1938 852.06836 186.95898 C 851.32708 191.57724 852.97021 198.06518 855.71875 201.37695 C 858.6786 204.94336 859.66121 212.6725 858.12891 220.33398 C 856.26382 229.65944 857.86571 236.53186 863.86914 244.96289 C 868.44921 251.395 872.19727 258.71569 872.19727 261.23047 C 872.19727 268.30219 864.74897 266.63336 860.01172 258.5 C 857.67217 254.48325 855.72806 253.07385 855.69336 255.36914 C 855.59342 261.99009 860.99284 268.32064 871.42773 273.81836 C 882.50282 279.65337 897.23633 310.8712 897.23633 328.50195 C 897.23633 341.83817 891.04118 348.37367 887.39844 338.88086 C 886.02513 335.30211 882.27439 333.77416 878.45898 335.23828 C 874.84366 336.62561 868.66955 335.00134 864.73828 331.62891 C 860.80699 328.25649 854.47181 324.39656 850.66016 323.05078 C 845.4512 321.21164 843.80348 315.66722 844.0293 300.73047 C 844.20506 289.10359 842.31998 280.18739 839.48438 279.24219 C 836.81872 278.35364 834.63672 274.34099 834.63672 270.32422 C 834.63672 266.30746 831.86052 263.02148 828.4668 263.02148 C 823.45632 263.02148 823.84786 265.53214 830.55273 276.38086 C 844.17062 298.41506 839.76243 302.88143 825.66797 281.33008 C 818.49375 270.36023 811.60636 262.40339 810.36328 263.64648 C 809.1202 264.88956 811.90502 271.04625 816.55078 277.33008 C 837.43512 305.57816 843.18834 329.08674 825.24219 312.8457 C 807.81861 297.07758 800.22456 259.15808 809.56836 234.58203 C 812.72084 226.2904 812.12272 221.26174 807.07031 213.55078 C 800.84791 204.05417 801.16001 201.50629 812.02344 173.05469 C 818.39959 156.35544 827.72998 137.99801 832.75781 132.25977 C 842.95738 120.61905 847.87618 97.00099 842.75391 84.265625 C 840.31397 78.199253 839.31674 81.246962 839.10352 95.421875 C 838.88519 109.93895 836.09808 118.14863 828.20312 127.53125 C 822.36961 134.46399 814.64683 148.79448 811.04102 159.37695 C 803.54842 181.36655 799.31478 182.77564 805.49609 161.22266 C 810.74194 142.93137 810.69642 98.684117 805.42383 90.525391 C 802.60228 86.159333 801.27715 93.736117 801.04102 115.56641 L 800.70117 146.86523 L 794.74609 124.73633 C 791.47036 112.56531 786.79408 98.878833 784.35547 94.322266 C 781.91688 89.765709 781.11534 81.882398 782.57227 76.804688 C 785.92325 65.12577 787.42108 58.953963 786.82617 57.830078 z M 774.1582 87.71875 C 775.24791 87.986594 776.63297 89.777143 777.65234 92.433594 C 780.47423 99.787329 778.06818 101.08015 773.95312 94.421875 C 772.44019 91.973874 772.09749 89.07635 773.19141 87.982422 C 773.46489 87.708939 773.79497 87.629469 774.1582 87.71875 z M 1029.1992 132.59766 C 1028.7244 132.42244 1027.2321 134.36571 1024.3125 138.27344 C 1020.9838 142.7289 1018.2598 148.00404 1018.2598 149.99609 C 1018.2598 156.88413 1025.6084 149.04697 1027.9824 139.62695 C 1029.1318 135.06607 1029.6741 132.77287 1029.1992 132.59766 z M 982.9668 133.3418 C 981.89677 133.35483 979.32492 134.93416 974.51172 138.08789 C 968.73439 141.87332 963.97836 143.51853 963.94336 141.74414 C 963.85548 137.30754 955.80616 150.11153 955.72656 154.81445 C 955.69141 156.89167 959.09547 155.48424 963.29297 151.68555 C 967.49047 147.88687 972.92438 144.7793 975.36719 144.7793 C 977.81 144.7793 980.9798 141.72471 982.41211 137.99219 C 983.60539 134.88254 984.03682 133.32877 982.9668 133.3418 z M 1018.9297 155.21094 L 1010.248 165.06445 C 1005.4735 170.48313 1001.5428 177.99532 1001.5098 181.75781 C 1001.4785 185.52029 1000.3779 193.29302 999.0625 199.03125 C 997.18703 207.21264 997.63622 208.11392 1001.1426 203.20508 C 1003.6018 199.76214 1005.6437 192.19783 1005.6777 186.39648 C 1005.7128 180.59514 1008.709 171.20442 1012.3359 165.5293 L 1018.9297 155.21094 z M 950.46875 174.41016 C 953.66848 174.0138 955.887 178.03485 957.81445 186.81055 C 961.35297 202.92126 960.22325 203.9291 943.9082 199.25 C 926.11732 194.14765 927.00641 199.93455 945.35742 208.68555 C 962.76664 216.98742 965.86793 223.28391 962.19336 242.87109 C 960.23784 253.29487 955.95529 259.2482 947.12891 263.8125 C 940.34596 267.3201 934.76742 273.4289 934.73242 277.38672 C 934.69727 281.34454 933.2022 286.88995 931.41016 289.71094 C 929.61811 292.53193 928.95414 282.2311 929.93555 266.81836 C 930.91696 251.40561 934.54411 234.48323 937.99609 229.21484 C 941.44808 223.94644 943.3332 218.69844 942.18555 217.55078 C 939.31648 214.68172 925.03019 236.34656 921.375 249.10938 C 919.24728 256.53877 918.8704 255.03667 920.06836 243.89258 C 920.99362 235.28523 919.99082 228.24414 917.83984 228.24414 C 912.5803 228.24414 912.81788 260.4513 918.10156 263.7168 C 920.39685 265.13537 922.19144 273.22733 922.08789 281.69922 C 921.98436 290.1711 919.54378 302.62541 916.66406 309.375 L 911.42773 321.64648 L 905.375 307.28711 C 901.68138 298.52442 899.3305 279.10511 899.3418 257.45703 C 899.35804 226.02386 900.70914 219.68354 911.2168 201.7793 C 920.15817 186.5439 924.9928 182.07464 930.86914 183.61133 C 935.1554 184.73221 940.83927 183.02629 943.5 179.82031 C 946.27628 176.4751 948.54891 174.64797 950.46875 174.41016 z M 904.14258 182.33789 C 916.05217 182.33789 916.43744 186.37199 905.81445 199.87695 C 901.35091 205.55142 895.74522 218.47911 893.35742 228.60742 C 890.96962 238.73571 888.42546 253.59733 887.70508 261.63086 C 886.63342 273.58188 885.8047 274.71978 883.14258 267.89062 C 881.35309 263.30003 877.21798 254.55918 873.95508 248.4668 C 866.19924 233.98534 866.47371 226.08357 875.28125 210.10742 C 887.0181 188.81774 893.75228 182.33789 904.14258 182.33789 z M 685.30078 191.08203 C 684.69938 191.24809 684.58594 193.27914 684.52734 197.29297 C 684.45754 202.07483 685.76971 207.35566 687.44336 209.0293 C 692.47004 214.05598 693.66433 204.08009 688.99609 196.05859 C 686.99169 192.61439 685.90219 190.91597 685.30078 191.08203 z M 732.78906 199.19141 C 730.27569 199.2796 737.60946 207.7853 749.08594 218.09375 C 768.99118 235.97311 769.37478 236.71356 757.43164 234.17578 L 744.91211 231.51562 L 754.3457 238.49414 C 759.94172 242.63323 767.16805 244.39644 772.10938 242.82812 C 778.33505 240.85217 781.361 242.62882 784.08594 249.86328 C 786.09123 255.18713 787.06108 263.16189 786.24219 267.58398 C 785.17798 273.33079 786.03712 274.33982 789.25195 271.125 C 796.28577 264.09117 789.23196 241.28554 777.68359 233.71875 C 772.00677 229.99915 764.63156 221.14238 761.29297 214.03711 C 757.95438 206.93183 756.13093 204.40314 757.24023 208.41992 C 759.92823 218.15319 754.22826 217.6712 744.91211 207.37695 C 740.75767 202.78637 735.30243 199.10321 732.78906 199.19141 z M 798.20508 212.01562 C 798.55702 211.66368 799.70874 212.56587 801.76953 214.61133 C 804.62096 217.44219 805.90403 220.80886 804.61914 222.09375 C 803.33425 223.37864 801.00078 221.06304 799.43359 216.94727 C 798.30121 213.97341 797.85314 212.36757 798.20508 212.01562 z M 826.13867 217.42383 C 824.58267 217.17788 822.98756 220.17831 821.55664 226.17969 C 819.91783 233.05296 817.38459 243.37115 815.92773 249.10938 C 814.47089 254.84761 817.22529 251.51029 822.04688 241.69141 C 826.86847 231.87255 829.40172 221.55434 827.67578 218.76172 C 827.17345 217.94892 826.65734 217.50581 826.13867 217.42383 z M 784.5332 288.40039 C 790.24801 287.45091 798.19417 293.41619 803.59961 303.86914 C 807.0166 310.47688 809.29487 315.73393 808.66211 315.55273 C 800.54893 313.22934 797.02128 309.82713 796.74805 304.05859 C 796.5426 299.72115 795.62709 299.06527 794.31445 302.31836 C 793.15673 305.18748 788.61025 307.53516 784.21094 307.53516 C 775.84647 307.53516 773.9547 300.85906 779.73828 291.74414 C 780.97085 289.80161 782.62827 288.71688 784.5332 288.40039 z M 820.36914 330.51172 C 831.52113 330.16036 845.85959 334.09594 858.60547 342.4668 C 873.39247 352.17818 875.38362 361.95622 865.9375 378.48047 C 862.65724 384.2187 859.90552 394.07857 859.82422 400.39062 C 859.73948 406.96671 857.3542 411.86719 854.23633 411.86719 C 842.90594 411.86719 801.25195 358.72801 801.25195 344.27344 C 801.25195 335.501 809.21715 330.86308 820.36914 330.51172 z M 975.73047 382.71875 C 981.81205 382.77382 981.92207 383.34179 976.52734 386.82812 C 968.35455 392.10981 962.83145 392.1098 966.0957 386.82812 C 967.51427 384.53284 971.84916 382.68365 975.73047 382.71875 z "
       xlink:href="#path2308"
       id="path2697"
       d="m 786.11914,54.34375 c -9.00549,6.918967 -6.75702,7.725316 -10.46289,13.115234 -5.90322,10.008981 -9.23762,17.568253 -9.66211,24.3125 -0.42449,6.744248 2.69686,12.419656 8.17383,16.689456 1.49029,1.16182 2.93038,2.61836 3.92578,3.89062 0.9954,1.27227 1.37639,2.66277 1.33203,2.0918 0.14709,1.8933 0.77896,4.22252 1.73242,7.92383 0.95347,3.70131 2.22313,8.29127 3.58789,12.91797 2.52652,8.56521 3.66977,13.55828 4.09571,16.33398 -0.29935,-0.15707 -0.58553,-0.32712 -0.93164,-0.45117 -0.54035,-0.19367 -1.17959,-0.48379 -2.43164,-0.18945 -1.25206,0.29433 -2.64218,2.05252 -2.75586,3.14648 -0.11369,1.09396 0.13832,1.63637 0.33398,2.13281 0.78263,1.98576 2.10532,3.55488 4.2168,5.96875 2.70363,3.09084 4.53946,5.70346 5.49804,7.60547 0.95859,1.90201 0.85323,2.8934 0.85352,2.89258 2.9e-4,-8.2e-4 0.13872,0.17116 -1.32227,0.42578 -1.46098,0.25462 -4.09528,0.19619 -7.60351,-0.42187 -2.99219,-0.52715 -5.28417,-0.90815 -7.09766,-1.0918 -0.90674,-0.0918 -1.68841,-0.14022 -2.48047,-0.0977 -0.79205,0.0426 -1.65766,0.0548 -2.80468,0.86328 -1.14703,0.80853 -1.79895,2.92532 -1.55664,4.0586 0.2423,1.13328 0.68558,1.72231 1.13085,2.33398 0.89056,1.22335 2.05927,2.40497 3.62305,3.96875 1.65553,1.65553 3.20499,3.61475 4.26953,5.29492 1.06454,1.68018 1.45118,3.42478 1.45118,2.92383 0,3.86638 0.29924,7.01519 1.60351,10.84961 1.30427,3.83442 3.50002,8.33372 7.31641,15.81445 5.68862,11.15062 6.73598,18.79646 4.88281,36.75196 -0.0814,0.78864 -0.20553,1.35661 -0.29492,2.10937 -0.29691,-1.6138 -0.62646,-3.23825 -1.13086,-4.86914 -2.51056,-8.11749 -7.31035,-16.24688 -14.10547,-20.69922 -4.75753,-3.11725 -12.21563,-11.95418 -15.20508,-18.3164 -1.7038,-3.62609 -2.89709,-5.97274 -4.00586,-7.50977 -0.27719,-0.38426 -0.42026,-0.71587 -1.25,-1.28906 -0.41487,-0.2866 -1.21516,-0.86713 -2.68554,-0.57031 -1.47039,0.29681 -2.38894,1.69306 -2.59766,2.36718 -0.41745,1.34826 -0.16307,1.6461 -0.082,2.13672 0.081,0.49063 0.19957,0.97529 0.35742,1.54688 0.31184,1.12918 0.21559,1.28673 0.26562,1.92773 -0.46832,-0.23704 -0.50557,-0.15282 -1.17187,-0.64844 -1.55098,-1.15367 -3.52936,-2.9794 -5.75391,-5.4375 -2.26615,-2.50405 -4.82772,-4.71449 -7.28125,-6.37109 -2.45353,-1.6566 -4.46225,-3.01018 -7.42382,-2.90625 -0.63908,0.0224 -1.56512,0.19637 -2.39844,0.9082 -0.83332,0.71183 -1.2414,1.83982 -1.29297,2.60547 -0.10314,1.53131 0.35925,2.18017 0.74219,2.9043 0.76586,1.44826 1.89585,2.88942 3.45117,4.69336 3.11064,3.60788 7.87691,8.36322 13.6914,13.58594 4.97178,4.46576 8.71602,7.85696 11.29883,10.33789 0.0184,0.0177 0.011,0.0136 0.0293,0.0312 -0.0352,-0.007 -0.0349,-0.004 -0.0703,-0.0117 l -12.51953,-2.66016 a 3.3242474,3.3242474 0 0 0 -3.36133,3.26563 c -1.90574,-2.57154 -3.90138,-5.18304 -5.45508,-7.59766 -4.67622,-7.26735 -7.33008,-13.85329 -7.33008,-16.67969 0,-2.79429 -0.60887,-6.90406 -1.54297,-11.89062 -0.93409,-4.98656 -2.21454,-10.69089 -3.63086,-15.98633 -3.86465,-14.44942 -3.86994,-20.30165 -0.17382,-30.09375 1.66751,-4.41776 2.74028,-7.9447 3.29101,-10.67578 0.27537,-1.36554 0.43049,-2.52135 0.41602,-3.63672 -0.0145,-1.11537 0.0815,-2.43559 -1.47657,-3.85352 -0.77901,-0.70896 -2.06656,-1.0847 -3.00976,-0.99414 -0.9432,0.0906 -1.5763,0.42667 -2.0918,0.75586 -1.03099,0.65839 -1.72567,1.43704 -2.51758,2.42969 -1.5838,1.9853 -3.35567,4.87927 -5.44922,8.92774 -3.40835,6.59103 -5.14772,14.83779 -5.39453,22.39257 -0.2468,7.55479 0.5633,14.45589 4.78321,18.67578 -0.45167,-0.45166 0.60797,1.23153 1.05664,3.38086 0.44866,2.14934 0.74414,4.91109 0.74414,7.56446 v 2.73047 l -6.08203,-5.82618 c -3.32573,-3.18625 -6.76901,-6.06696 -9.74414,-8.21484 -1.48757,-1.07394 -2.85023,-1.96456 -4.09571,-2.63867 -1.24547,-0.67412 -2.14051,-1.28516 -3.99414,-1.28516 -0.49425,0 -1.12449,0.0665 -1.83203,0.42774 -0.70754,0.36123 -1.40932,1.10268 -1.72656,1.85351 -0.63448,1.50167 -0.24255,2.45168 0.002,3.13281 0.489,1.36227 1.20449,2.31929 2.17383,3.5586 1.93868,2.47861 4.94287,5.6068 8.72851,9.06445 3.50796,3.20403 5.9615,6.12356 7.65626,8.6582 -0.29739,-0.12691 -0.60243,-0.28802 -0.87305,-0.33593 -1.76501,-0.31246 -2.79429,0.16692 -4.04688,0.6582 -1.25259,0.49128 -2.65158,1.18576 -4.35547,2.09766 -0.55497,0.29701 -0.87223,0.36805 -1.3457,0.58593 0.0527,-0.29761 0.19588,-0.59391 0.23047,-0.88281 0.47077,-3.93245 -0.58971,-8.81033 -3.28711,-13.44531 -1.01442,-1.7431 -1.79543,-3.06185 -2.54492,-4.10742 -0.37475,-0.52279 -0.71561,-0.98012 -1.29297,-1.48242 -0.57736,-0.50231 -1.81546,-1.41492 -3.61523,-0.91797 -1.80019,0.49707 -2.37259,1.87311 -2.6211,2.58789 -0.2485,0.71477 -0.31964,1.28032 -0.38867,1.92187 -0.13807,1.2831 -0.17349,2.82543 -0.20313,4.85547 -0.0274,1.87497 0.17823,3.72577 0.47461,5.51563 -2.71655,-1.73265 -5.73306,-2.87891 -8.79687,-2.87891 -0.99375,0 -2.54962,0.30367 -3.55664,1.67383 -1.00702,1.37015 -0.83777,2.86302 -0.58399,3.77343 0.50758,1.82083 1.46462,3.00865 2.76368,4.57813 2.59811,3.13895 6.79151,7.0984 12.19531,11.48047 4.58861,3.72101 8.04354,6.55576 10.43359,8.69922 2.02537,1.8164 2.84515,2.86869 3.3125,3.52148 -0.5683,0.32177 -1.25136,0.72407 -2.91015,1.38086 -2.09623,0.82999 -3.59414,1.31417 -5.09375,2.81055 -0.74981,0.74819 -1.65415,2.39715 -1.24414,4.05859 0.41,1.66144 1.46764,2.40108 2.30664,2.92383 1.678,1.0455 3.61546,1.61547 6.54687,2.39258 2.93141,0.77711 6.77089,1.63743 11.70117,2.67969 12.23256,2.58596 28.90066,8.58985 35.78125,12.67578 l 6.56836,3.90039 -7.6582,1.65429 a 3.3242474,3.3242474 0 0 0 -0.002,0 c -21.16853,4.57539 -33.39013,6.59917 -41.03321,5.95118 -7.64307,-0.64799 -11.01144,-3.36006 -16.60351,-10.00586 -4.88985,-5.81125 -8.73297,-9.58703 -14.07813,-11.6836 -5.34515,-2.09656 -11.58167,-2.42263 -21.47656,-2.45117 -12.91143,-0.0372 -19.7541,-0.60886 -23.95703,-2.77148 -4.20293,-2.16262 -6.92008,-6.25817 -11.49024,-15.17774 -2.14667,-4.18967 -4.83752,-7.81565 -7.70898,-10.50195 -2.87146,-2.6863 -5.89271,-4.7045 -9.54883,-4.53711 -1.27215,0.0582 -2.31019,0.15322 -3.25976,0.3457 -0.94958,0.19249 -1.97876,0.0255 -3.27344,1.86133 -0.64734,0.91791 -0.77628,2.63792 -0.35938,3.5918 0.41691,0.95387 0.93457,1.36053 1.36328,1.69336 0.85743,0.66564 1.65293,1.00921 2.67774,1.41992 -0.0654,-0.0262 0.86091,0.52096 1.89258,1.47852 1.03167,0.95755 2.30242,2.30629 3.66406,3.90624 2.72327,3.19991 5.83123,7.41297 8.57031,11.75196 5.0346,7.97529 8.09203,12.77157 13.57617,15.33789 5.48415,2.56632 12.02427,2.48828 24.01563,2.48828 10.87746,0 16.97563,0.39164 20.55859,1.63477 3.58296,1.24312 5.27511,3.13018 8.37891,7.86718 1.11719,1.70506 1.67918,2.63937 2.4082,3.80078 -0.78829,-0.18861 -1.13374,-0.23558 -2.125,-0.48437 -5.64413,-1.4166 -13.4543,-3.79128 -16.82812,-5.08594 -1.29069,-0.4953 -2.43673,-0.84412 -3.6211,-0.98828 -1.18437,-0.14415 -2.58976,-0.1459 -3.97461,0.80859 -1.38484,0.9545 -1.99528,2.75975 -1.99218,4.04297 0.003,1.28323 0.3269,2.36446 0.77929,3.54297 1.4684,3.8253 5.08735,5.19946 9.58985,6.51367 4.50249,1.31422 10.34357,2.18965 17.27734,2.60743 5.85028,0.35249 11.42594,1.0647 15.56445,1.89843 2.06926,0.41687 3.78804,0.87291 4.91211,1.27344 1.12408,0.40053 1.58004,1.26584 0.84961,0.084 1.29351,2.09294 3.09064,2.28855 4.61524,2.46093 1.52459,0.17238 3.17693,0.095 5.05078,-0.13281 3.7477,-0.45566 8.32877,-1.56549 13.11328,-3.23047 8.62639,-3.00193 24.0777,-5.65104 33.10547,-5.68359 l 14.39258,-0.0527 1.06054,14.60547 c 0.51542,7.10927 1.19885,11.90212 3.07618,15.60938 1.87732,3.70726 5.45882,5.83501 9.3496,6.44726 4.00432,0.63012 13.34318,3.33647 19.76758,5.83399 1.62232,0.63068 2.50448,1.03955 3.61328,1.51562 -1.52268,0.44516 -3.35014,0.65767 -5.05078,0.49219 -1.92202,-0.18702 -3.59173,-0.84939 -4.26172,-1.38477 -1.02797,-0.82143 -1.96555,-1.47497 -2.99414,-1.96484 -1.02858,-0.48987 -2.26626,-0.92201 -3.82226,-0.55078 -1.556,0.37122 -2.80278,1.77638 -3.26367,2.94531 -0.1124,0.28506 -0.0599,0.5559 -0.13086,0.83203 -1.44079,-0.82408 -3.5006,-2.24429 -6.12305,-4.59961 l -11.26562,-10.11718 a 3.3242474,3.3242474 0 0 0 -5.03711,4.23828 l 7.48046,11.92383 c 2.35358,3.75142 3.65148,6.85731 4.07813,8.95312 0.42664,2.09581 0.0382,2.79252 -0.17383,3.01172 -0.21201,0.2192 -1.02572,0.68161 -3.24609,0.38672 -2.22038,-0.29489 -5.49548,-1.37854 -9.49219,-3.44532 -3.1745,-1.64159 -6.40579,-3.85949 -8.90625,-6.01171 -2.50046,-2.15223 -4.23784,-4.48768 -4.47266,-5.09961 -1.83678,-4.78659 -5.96167,-8.53053 -11.11718,-8.21289 -1.11644,0.0688 -1.98165,0.14189 -2.84375,0.32421 -0.43106,0.0912 -0.85965,0.17893 -1.49024,0.51954 -0.63059,0.3406 -1.86087,1.34598 -1.94922,2.99218 -0.0883,1.6462 0.77365,2.49326 1.23047,2.91993 0.45683,0.42666 0.82174,0.63856 1.20313,0.85351 0.76277,0.4299 1.5998,0.79082 2.67968,1.22656 1.00008,0.40354 0.90016,0.46875 1.45704,0.81446 -0.75467,0.29411 -1.02372,0.52854 -2.3418,0.79882 -2.44403,0.50118 -5.75674,0.87723 -9.78711,1.03516 -9.31002,0.36481 -17.17495,-0.90747 -22.36328,-3.11133 -5.18834,-2.20385 -7.25977,-4.82342 -7.25977,-7.61718 0,-2.24937 -0.53648,-4.33303 -1.63281,-6.08204 -1.09633,-1.749 -3.02337,-3.35546 -5.52344,-3.35546 -0.39283,0 -2.15314,-0.24761 -4.03515,-0.72071 -1.88201,-0.4731 -4.03608,-1.14186 -5.89063,-1.85351 -1.35648,-0.52053 -2.51346,-0.89571 -3.625,-1.11133 -1.11153,-0.21562 -2.2335,-0.48468 -3.83984,0.32422 -0.80318,0.40445 -1.6324,1.27224 -1.97656,2.19531 -0.34417,0.92307 -0.29929,1.74278 -0.1836,2.38672 0.22259,1.23888 0.71646,2.09691 1.31445,3.07031 -0.0258,0.0296 0.0742,-0.0891 -0.12695,0.0645 -0.84656,0.64616 -3.47988,1.75653 -7.48047,2.55665 -4.65686,0.93137 -8.42751,2.1164 -11.29687,3.40624 -2.86936,1.28985 -4.95426,2.21113 -6.22071,4.89454 -0.63322,1.3417 -0.38294,3.79785 0.79883,5.00195 1.18177,1.2041 2.42589,1.50314 3.72461,1.72266 2.59744,0.43902 5.88463,0.22856 10.4961,-0.58789 8.42156,-1.49102 21.79129,0.79131 41.48632,7.84765 7.99573,2.86472 14.83779,5.48075 19.35157,7.35742 0.8396,0.34908 1.10955,0.50423 1.77929,0.79883 -0.0705,0.63625 -0.0306,1.26608 0.13282,1.79102 0.3114,1.00037 0.85487,1.70058 1.44531,2.29101 1.24072,1.24072 2.66208,1.45199 3.83984,1.48438 1.17776,0.0324 2.30402,-0.15958 3.48828,-0.47266 2.36852,-0.62616 4.94959,-1.78419 7.5,-3.37695 3.19665,-1.99633 4.92388,-2.57701 6.66407,-2.44727 1.74019,0.12975 4.17068,1.17682 8.14257,3.7793 6.46154,4.23378 15.81187,6.4322 22.9668,5.06445 3.67543,-0.7026 5.73868,-0.50795 8.19922,0.89258 2.46054,1.40053 5.43486,4.41712 9.43359,9.74219 4.74667,6.32107 8.29541,11.06635 10.57227,14.47461 1.4377,2.15212 2.1036,3.57405 2.50195,4.49023 -0.0527,0.005 -0.0161,0.006 -0.0723,0.01 -1.90043,0.12207 -5.50689,-0.16968 -10.32227,-0.62891 -3.78577,-0.36103 -6.73394,-0.60296 -9.01562,-0.68945 -2.28169,-0.0865 -3.70833,-0.20766 -5.5254,0.44922 -0.90853,0.32844 -2.43163,1.33924 -2.74218,3.08203 -0.31056,1.74278 0.45168,2.78374 0.96484,3.45312 1.02633,1.33877 2.2102,2.17586 3.85547,3.37891 4.80202,3.5113 11.9542,6.09518 17.75,6.31055 5.18955,0.19286 11.00943,0.87923 15.54297,1.71875 2.26677,0.41976 4.22442,0.88326 5.54101,1.29882 0.64153,0.20249 1.11708,0.39585 1.34961,0.50977 0.0863,0.10488 0.1977,0.28583 0.31836,0.4375 0.28375,0.35667 0.64971,0.80564 1.09961,1.34766 0.8998,1.08402 2.13103,2.54098 3.61524,4.27929 2.96841,3.47664 6.94313,8.07156 11.21875,12.96094 l 14.69336,16.80664 -0.14454,47.76953 c -0.0811,26.756 -2.80383,59.75375 -5.73046,71.9961 -1.57677,6.59573 -2.83328,12.76146 -3.59766,17.46289 -0.38219,2.35071 -0.64177,4.32455 -0.75586,5.88867 -0.0571,0.78206 -0.0839,1.45108 -0.043,2.125 0.0205,0.33696 0.0515,0.67124 0.15821,1.10547 0.10665,0.43422 0.19932,1.03137 1.00781,1.83984 1.33521,1.33522 2.80467,1.83075 4.45898,2.2832 1.65431,0.45246 3.53397,0.74654 5.62305,0.94922 4.17816,0.40537 9.1833,0.42006 14.2793,0.12305 5.09599,-0.29701 10.26057,-0.90562 14.7207,-1.80469 4.46013,-0.89906 8.11532,-1.88287 10.83984,-3.87695 2.11475,-1.54778 4.15866,-3.47434 5.56836,-6.3457 1.4097,-2.87137 2.23916,-6.48323 2.82031,-11.78125 1.16232,-10.59604 1.30714,-28.23439 1.3418,-60.85352 0.0367,-34.47387 0.13334,-52.12122 1.50586,-62.82812 1.37253,-10.70691 3.72667,-14.41059 9.17383,-22.83985 11.39983,-17.64076 29.14612,-26.31627 43.80664,-22.63672 7.04083,1.76714 15.49373,-0.21219 21.92773,-4.71875 2.92823,-2.051 4.91649,-3.64877 6.16211,-5.85742 0.31141,-0.55216 0.59761,-1.18062 0.69922,-2.03516 0.10161,-0.85453 -0.0899,-2.02339 -0.72656,-2.91601 -0.84384,-1.18312 -1.85166,-1.54012 -2.83398,-1.70703 0.49127,-0.63076 0.85201,-1.13858 1.59179,-2 3.80534,-4.43104 6.64048,-8.23536 8.5625,-11.29883 0.96101,-1.53173 1.69431,-2.87286 2.21875,-4.09375 0.52445,-1.22089 0.9756,-2.2055 0.82031,-3.84961 -0.0776,-0.82206 -0.47254,-2.02169 -1.48828,-2.82617 -1.01574,-0.80448 -2.23468,-0.91255 -3.04297,-0.81836 -1.61656,0.18838 -2.5308,0.81956 -3.70507,1.61719 -2.34855,1.59524 -5.27034,4.27336 -9.11524,8.40039 -1.15425,1.23894 -5.31393,3.79631 -10.57617,6.09375 -5.26224,2.29744 -11.72367,4.59324 -18.08203,6.48437 -6.35836,1.89113 -12.63733,3.38033 -17.46875,4.09766 -2.22735,0.3307 -4.03739,0.4479 -5.42774,0.4375 0.34666,-0.74077 0.58471,-1.33039 1.13086,-2.32813 1.83255,-3.34779 4.67812,-7.88731 8.02539,-12.66601 10.27744,-14.67246 13.75363,-16.99441 30.34571,-20.22266 13.51892,-2.63034 23.03607,-2.30148 31.45316,0.77539 2.8158,1.02932 4.9931,1.80111 6.6543,2.32422 0.8305,0.26156 1.5275,0.46096 2.1679,0.60547 0.6405,0.14451 1.1023,0.31923 2.1914,0.18359 0.5446,-0.0678 1.5162,-0.22097 2.3887,-1.29882 0.8725,-1.07786 0.821,-2.62359 0.5918,-3.32227 -0.4583,-1.39736 -0.92,-1.58941 -1.3613,-2.02734 -0.8826,-0.87586 -2.0159,-1.75963 -3.6016,-2.96485 -1.7227,-1.30937 -2.6743,-2.31964 -3.6269,-3.31054 0.651,0.14026 0.8183,0.0556 1.6523,0.32031 13.1446,4.1719 27.369,-1.23438 33.6856,-13.03711 1.1716,-2.1892 2.0553,-3.81679 2.6406,-5.1543 0.2107,-0.4815 0.345,-1.02929 0.4785,-1.61328 2.0974,1.50087 4.0914,3.00473 5.8906,4.50586 3.4978,2.91831 5.9809,4.84687 7.7168,5.89844 0.434,0.26289 0.764,0.48216 1.4609,0.70703 0.3485,0.11243 0.7795,0.3468 1.8809,0.12305 0.5507,-0.11188 1.3332,-0.45289 1.9004,-1.10547 0.5672,-0.65259 0.7918,-1.46478 0.8281,-2.01953 0.073,-1.1095 -0.2102,-1.50367 -0.3672,-1.83594 -0.1569,-0.33227 -0.2992,-0.55436 -0.4472,-0.77149 -0.2961,-0.43425 -0.6198,-0.83057 -1.0274,-1.30078 -1.4353,-1.65604 -2.4716,-3.33267 -3.1816,-4.72851 2.1249,0.5134 4.2027,-0.0176 6.5703,-0.57813 3.181,-0.75312 6.7445,-2.11582 10.1797,-3.96289 l 11.5762,-6.22461 a 3.3242474,3.3242474 0 0 0 -2.0801,-6.21289 l -14.9629,2.30078 c -6.2043,0.95375 -18.609,-1.53401 -28.8125,-5.4414 -5.1017,-1.9537 -9.7332,-4.23541 -12.8965,-6.36329 -1.2817,-0.86213 -2.1038,-1.63169 -2.8144,-2.34179 0.9797,-0.18556 1.8114,-0.38381 3.2851,-0.52539 4.498,-0.43214 10.9151,-0.56727 17.9629,-0.26953 7.2121,0.30468 12.2929,0.40406 15.0215,0.29101 0.6821,-0.0283 1.1809,-0.0542 1.7851,-0.16211 0.3022,-0.0539 0.5419,0.0378 1.459,-0.53711 0.4586,-0.28744 1.4509,-1.03832 1.584,-2.57617 0.1331,-1.53784 -0.7766,-2.52979 -1.2148,-2.89453 -0.8765,-0.72947 -1.1304,-0.64903 -1.4317,-0.74023 -0.3012,-0.0912 -0.5638,-0.15146 -0.8593,-0.21094 -0.5911,-0.11896 -1.2988,-0.22759 -2.2012,-0.34766 -13.6615,-1.81752 -21.7852,-3.37905 -24.9629,-4.72461 -0.6043,-0.25586 -0.7741,-0.38274 -0.957,-0.5 0.1171,-0.21933 0.2425,-0.47931 0.6406,-0.95898 0.6078,-0.73235 3.0597,-2.52317 6.1133,-3.99414 3.0535,-1.47098 6.7616,-2.81433 10.1855,-3.61133 2.4254,-0.56458 4.3877,-1.08812 5.9649,-1.61133 1.5771,-0.5232 2.7134,-0.89494 3.9335,-1.91211 0.6101,-0.50858 1.4541,-1.38499 1.5723,-2.88086 0.1182,-1.49587 -0.7765,-2.76931 -1.4531,-3.3457 -1.3533,-1.15278 -2.4518,-1.34586 -3.9492,-1.72266 -2.0174,-0.50761 -3.8577,-0.21875 -6.0157,0.26563 -2.1579,0.48437 -4.5693,1.27792 -7.1796,2.32031 -5.2208,2.08478 -11.2133,5.16773 -16.9024,8.81836 -5.3691,3.44537 -11.1813,6.5995 -16.1133,8.85352 -4.9319,2.25401 -9.4338,3.47461 -10.2207,3.47461 -3.0945,0 -9.70947,-2.45408 -14.91794,-5.67579 -2.60423,-1.61085 -4.92998,-3.39105 -6.4668,-4.92968 -1.53682,-1.53863 -1.9375,-2.95521 -1.9375,-2.55274 0,-0.41722 0.0828,-0.68691 0.84961,-1.27344 0.76682,-0.58652 2.19868,-1.2108 3.97461,-1.53906 3.55187,-0.65651 8.35642,-0.13728 11.88281,1.75 3.90461,2.08967 8.35311,2.82593 13.71871,1.8125 5.3657,-1.01343 11.843,-3.52686 21.2969,-7.76953 15.3657,-6.89569 29.7526,-10.19326 43.0215,-9.99609 12.0377,0.17888 29.5435,-2.56327 40.209,-6.34571 4.8141,-1.70727 9.945,-3.00378 14.1875,-3.68945 4.2425,-0.68567 7.9529,-0.41888 8.1894,-0.32812 1.1491,0.4409 2.172,0.75356 3.2071,0.9082 1.035,0.15464 2.1727,0.28929 3.5918,-0.50586 1.419,-0.79515 2.2259,-2.93143 2.0761,-4.2168 -0.1497,-1.28537 -0.6251,-2.15702 -1.1992,-3.08593 -0.2949,-0.47724 -0.311,-0.63127 -0.3965,-0.875 0.3442,-0.10147 0.8385,-0.23628 1.6973,-0.25 3.8069,-0.0608 11.3531,1.68717 20.3535,5.51953 6.5099,2.77191 11.7588,4.49968 16.2871,5.16015 4.5283,0.66047 8.497,0.19183 11.7305,-1.69531 1.6121,-0.94088 2.8362,-1.669 3.8145,-2.36133 0.4891,-0.34616 0.9174,-0.66559 1.3847,-1.16601 0.4673,-0.50043 1.3185,-1.34416 1.1426,-3.11133 -0.088,-0.88359 -0.5819,-1.74815 -1.0742,-2.23242 -0.4924,-0.48428 -0.9413,-0.70088 -1.3086,-0.85352 -0.7347,-0.30528 -1.2573,-0.3716 -1.8301,-0.44336 -1.1456,-0.14353 -2.4487,-0.1755 -4.1641,-0.20508 -3.1257,-0.0539 -9.7647,-1.82421 -13.0976,-3.60351 -4.2739,-2.28162 -10.8916,-5.06915 -15.3887,-6.47266 -1.5398,-0.48055 -2.561,-1.03569 -3.1836,-1.43359 2.0769,-1.21229 8.4391,-2.68289 16.0059,-1.66797 3.3664,0.45153 6.0251,0.75915 8.1426,0.89453 2.1174,0.13538 3.5809,0.23052 5.2968,-0.32422 0.858,-0.27737 2.0352,-0.88359 2.6934,-2.20703 0.6582,-1.32344 0.4056,-2.73249 0.062,-3.57617 -0.6862,-1.68737 -1.6584,-2.57242 -2.9102,-3.82422 -4.8744,-4.87444 -12.7559,-5.26415 -22.9062,-2.74805 -10.1503,2.5161 -23.1889,8.06757 -39.7891,16.72852 -19.7772,10.31849 -27.9976,12.44518 -45.2773,11.74609 -5.9643,-0.24129 -11.3945,-0.70891 -15.2227,-1.24414 -1.1994,-0.16769 -1.872,-0.33157 -2.7011,-0.5 0.504,-0.90651 1.1893,-1.99901 2.2128,-3.16797 2.2062,-2.51953 5.4163,-5.37182 8.9688,-7.98633 7.105,-5.229 16.0348,-9.35553 19.8848,-9.45117 7.8238,-0.19433 20.0464,-3.04784 28.5625,-6.52343 l 14.6074,-5.96094 a 3.3242474,3.3242474 0 0 0 -1.7012,-6.37305 l -15.5039,2.09375 c 3.5404,-2.02458 7.4996,-4.24749 13.3809,-7.49023 9.0145,-4.97033 16.5833,-9.8479 22.1328,-14.21094 2.7747,-2.18152 5.0455,-4.22757 6.7754,-6.17774 1.7298,-1.95016 3.0284,-3.73067 3.4609,-6.05664 0.3488,-1.87604 0.6211,-3.26133 0.5469,-4.79882 -0.037,-0.76875 -0.072,-1.73501 -1,-2.87305 -0.9275,-1.13804 -2.8621,-1.55759 -3.9082,-1.35156 -2.0922,0.41205 -2.9321,1.34184 -4.4551,2.58984 -1.523,1.248 -3.3925,2.94721 -5.7949,5.17969 -2.6971,2.506 -5.6049,4.52819 -7.8828,5.66992 -1.1392,0.57095 -2.128,0.9133 -2.709,1.02734 -0.5811,0.11404 -0.5902,-0.1156 -0.018,0.23828 -2.1592,-1.33452 -4.9492,-1.15489 -6.9375,-0.0254 -0.1805,0.10254 -0.2953,0.28771 -0.4668,0.40235 2.2733,-4.2568 4.0581,-8.92415 4.041,-13.39844 -0,-0.76599 -0.1098,-1.65789 -0.6816,-2.5957 -0.5719,-0.93782 -1.7413,-1.71624 -2.7637,-1.91211 -2.0448,-0.39175 -3.1936,0.3602 -4.3555,1.05664 -2.3237,1.39288 -4.7357,3.72189 -7.455,6.94922 -4.6829,5.55772 -14.8545,13.52707 -21.4317,16.7832 -6.9762,3.45361 -15.1446,10.0976 -20.6055,16.44336 l 0.3321,-1.14453 c 3.1868,-10.96343 10.0149,-21.44829 18.5351,-28.51367 4.0701,-3.37507 6.9952,-6.07427 8.9278,-8.23243 0.9663,-1.07908 1.6897,-1.98631 2.2402,-3.04882 0.2753,-0.53126 0.5377,-1.1069 0.623,-1.97266 0.085,-0.86576 -0.1896,-2.23621 -1.0703,-3.13867 -0.8806,-0.90246 -1.9029,-1.1329 -2.625,-1.19727 -0.722,-0.0644 -1.2971,0.0128 -1.873,0.125 -1.1518,0.22443 -2.3161,0.63725 -3.7188,1.22852 -2.8052,1.18254 -6.4815,3.11156 -11.1464,5.86719 -4.632,2.73617 -9.1328,6.8807 -12.6446,11.31054 0.063,-0.5293 0.195,-1.41023 0.2403,-1.85937 0.093,-0.91974 0.1504,-1.66673 0.1601,-2.34375 0.01,-0.67703 0.3071,-1.04433 -0.4805,-2.5625 -0.1969,-0.37954 -0.5313,-0.89727 -1.1992,-1.33399 -0.6679,-0.43671 -1.6689,-0.63208 -2.4004,-0.52148 -1.4628,0.22119 -1.8631,0.85195 -2.1777,1.19531 -0.6292,0.68673 -0.8309,1.14482 -1.1543,1.76172 -0.6468,1.23379 -1.3908,2.92687 -2.373,5.22461 -2.8149,6.58495 -3.6761,16.13911 -2.125,23.20117 0.5775,2.62951 -0.014,7.09501 -1.918,12.25195 -1.904,5.15695 -5.0076,11.00779 -8.8496,16.75391 -5.2807,7.89781 -12.0173,15.45671 -18.7656,21.13867 0.038,-0.47805 0.085,-0.78562 0.125,-1.35742 0.3906,-5.65351 -2.6999,-11.80149 -7.0391,-16.14062 -0.4782,-0.47818 -0.6362,-0.68797 -1.0234,-1.08985 2.5791,-0.45072 4.838,-1.85719 7.3007,-3.67383 2.9731,-2.19312 6.0123,-5.11228 8.5879,-8.38671 4.8391,-6.15188 7.8112,-10.73848 8.8262,-14.8711 0.5075,-2.06631 0.4946,-4.46805 -1.0117,-6.33203 -1.5064,-1.86398 -3.7999,-2.39258 -5.9531,-2.39258 -2.4562,0 -4.4756,1.46243 -5.6797,3.20117 -1.2041,1.73875 -1.8164,3.86246 -1.8164,6.14649 0,0.42583 -0.5288,2.02875 -1.8926,3.82422 -1.2097,1.59259 -3.0764,3.34072 -5.0625,4.98047 0.3318,-0.56536 0.7482,-1.08709 0.8574,-1.75782 0.3495,-2.1461 -0.5977,-4.13807 -1.9512,-5.59375 -1.3535,-1.45568 -3.1858,-2.58029 -5.4961,-3.46679 -2.0251,-0.77712 -3.8124,-0.31499 -5.4668,0.32617 -1.6543,0.64116 -3.2995,1.62118 -5.0175,2.86914 -2.8739,2.08763 -5.899,5.0692 -8.8086,8.4375 1.1559,-3.69659 1.841,-7.76673 1.8633,-11.56445 0.028,-4.67865 2.9565,-14.12459 6.1347,-19.09766 L 1021.7305,157 a 3.3242474,3.3242474 0 0 0 0.1054,-1.51758 c 1.1575,-0.52533 2.0015,-1.40791 2.8203,-2.28125 2.7062,-2.8861 5.2167,-7.47544 6.5489,-12.76172 0.5767,-2.28833 1.0079,-4.01045 1.2617,-5.35547 0.1269,-0.6725 0.2239,-1.22148 0.2285,-1.93359 0,-0.35605 0.01,-0.75731 -0.1992,-1.4043 -0.2077,-0.64699 -0.8862,-1.80262 -2.1465,-2.26757 -1.2607,-0.46526 -2.2817,-0.0997 -2.8125,0.15429 -0.5308,0.25401 -0.8107,0.49358 -1.0683,0.7168 -0.5153,0.44643 -0.8917,0.88186 -1.3438,1.42187 -0.9042,1.08003 -2.0104,2.55197 -3.4746,4.51172 -1.7806,2.38334 -3.3722,4.93718 -4.5664,7.25 -1.1942,2.31282 -2.1485,3.95179 -2.1485,6.46289 0,1.15652 0.098,2.21596 0.6504,3.36133 0.053,0.11061 0.1986,0.20529 0.2676,0.31641 l -8.0996,9.19336 c -2.5918,2.94152 -4.8849,6.35066 -6.5977,9.62304 -1.71268,3.27239 -2.94417,6.21907 -2.97065,9.23829 a 3.3242474,3.3242474 0 0 0 0,0.002 c -0.0262,3.15242 -1.10373,11.06396 -2.36328,16.55859 -0.4783,2.08647 -0.81768,3.72888 -1.00977,5.0625 -0.096,0.66681 -0.15807,1.25185 -0.16406,1.85742 -0.006,0.60558 -0.0824,1.21046 0.46094,2.30079 0.22987,0.46124 0.78782,1.00604 1.44921,1.42773 -0.53463,0.32094 -0.72931,0.39879 -0.88086,0.45117 -0.77433,-1.05682 -1.68993,-1.98395 -2.875,-2.53906 -1.43862,-0.67389 -3.1274,-0.7343 -4.52539,-0.33203 -2.79596,0.80454 -4.64743,2.86487 -6.20312,5.30078 -3.11138,4.87182 -4.99059,11.95485 -3.66211,18.9043 0.55954,2.92706 0.42809,5.1623 -0.0312,6.5332 -0.45934,1.3709 -1.01319,1.93348 -2.12305,2.35937 -0.0632,0.0242 -0.005,0.003 -0.0644,0.0234 -0.0733,-1.44628 0.0748,-4.80182 0.99219,-10.53906 0.7966,-4.98167 1.04035,-9.58886 0.73633,-13.35742 -0.15202,-1.88428 -0.42894,-3.55849 -0.93555,-5.06055 -0.50662,-1.50206 -1.18601,-2.99521 -2.875,-4.03906 0.41816,0.25844 -0.0608,-0.0531 -0.44336,-1.01758 -0.38256,-0.9645 -0.77724,-2.4444 -1.0918,-4.20508 -0.62911,-3.52136 -0.96984,-8.17807 -0.9707,-12.81836 -8.6e-4,-4.64029 0.33705,-9.29717 0.96484,-12.81836 0.3139,-1.76059 0.70968,-3.2408 1.0918,-4.20508 0.38212,-0.96427 0.86027,-1.27645 0.44141,-1.01757 3.51773,-2.17408 5.74804,-5.80754 5.74804,-9.97461 0,-0.72322 -0.10473,-1.61235 -0.70898,-2.53906 -0.60425,-0.92672 -1.80593,-1.6246 -2.77539,-1.76954 -1.93893,-0.28987 -2.93191,0.40496 -3.97266,1.0293 -2.0815,1.24869 -4.2174,3.2706 -6.62695,6.04883 l -4.60742,5.31055 -2.46485,-6.48243 c -0.38051,-1.00081 -0.66777,-2.09542 -0.96875,-3.17382 0.52796,-0.1165 1.00782,-0.29459 1.4668,-0.48438 2.02897,-0.83899 4.0513,-2.31273 6.33008,-4.375 1.904,-1.72309 4.1581,-3.33765 6.11523,-4.45703 1.95713,-1.11938 3.9166,-1.58984 3.72852,-1.58984 2.60686,0 4.54892,-1.32627 6.20703,-2.92383 1.65811,-1.59756 3.04007,-3.64727 3.9414,-5.9961 0.61498,-1.60261 1.0848,-2.78257 1.30469,-4.16601 0.10995,-0.69172 0.29185,-1.53343 -0.31836,-2.81836 -0.6102,-1.28493 -2.50712,-2.19466 -3.57617,-2.18164 -2.13756,0.026 -2.92883,0.77129 -4.4375,1.63672 -1.50867,0.86542 -3.37797,2.06809 -5.79883,3.65429 -2.65549,1.73994 -5.04151,2.92775 -6.5332,3.46289 -0.44191,-0.48709 -0.9867,-0.93211 -1.67578,-1.1289 -1.17633,-0.33594 -2.1078,-0.0357 -2.69141,0.22851 -0.58361,0.26418 -0.95949,0.55335 -1.30273,0.84375 -1.28884,1.09043 -2.23761,2.45139 -3.26758,4.07227 0.003,-0.46852 0.0327,-0.90628 0.0156,-1.41602 -0.0665,-1.98409 -0.32549,-4.26481 -0.74024,-6.77539 -0.8295,-5.02115 -2.28844,-10.94045 -4.20508,-16.71093 -1.80541,-5.43558 -3.19917,-11.08604 -3.96679,-15.67969 -0.38382,-2.29683 -0.60994,-4.335504 -0.66602,-5.890627 -0.0561,-1.555123 0.17424,-2.707799 0.1582,-2.666015 0.85718,-2.233776 1.11344,-4.501306 0.32032,-6.652344 -0.79313,-2.151039 -3.20641,-3.966797 -5.67383,-3.966797 -1.79279,0 -3.7587,1.191213 -4.66406,2.652344 -0.90537,1.461131 -1.19613,3.003185 -1.3379,4.759765 -0.28353,3.51316 0.20378,8.083683 1.29883,14.230474 1.66293,9.33441 3.34473,29.61275 3.62696,44.34374 l 0.45703,23.84376 -9.90235,0.31445 c -3.06788,0.0971 -5.31937,0.0789 -6.73633,-0.15235 -1.41695,-0.23121 -1.84965,-0.49107 -2.33984,-1.03906 -0.98038,-1.09598 -2.16266,-5.2162 -3.44531,-13.76953 -0.72287,-4.82057 -1.10018,-10.18026 -1.11719,-14.81445 -0.017,-4.63419 0.43227,-8.71257 0.90039,-10.1875 0.92896,-2.92687 1.33142,-5.50136 0.60938,-8.00196 -0.72205,-2.50059 -3.49295,-4.62109 -6.17188,-4.62109 -2.03799,0 -4.13114,1.45961 -5.08203,3.13477 -0.95089,1.67516 -1.34187,3.54178 -1.60156,5.8789 -0.51938,4.67425 -0.31055,11.32428 0.45312,20.83789 1.04007,12.95711 1.20945,19.69793 0.56836,21.66797 -0.32054,0.98502 -0.21606,0.81814 -1.00781,1.11133 -0.79175,0.29319 -2.64079,0.5334 -5.32031,0.73828 -8.50627,0.65039 -17.40024,7.16346 -25.26563,16.85352 -2.9368,3.6181 -5.15233,6.31963 -6.80664,8.10351 -1.55457,1.67634 -2.53543,2.29069 -2.74219,2.40235 -0.0202,-0.02 0.0182,-0.004 -0.008,-0.0273 -0.55678,-0.50007 -1.66859,-1.93965 -3.11719,-4.00781 -1.41741,-2.02365 -2.47642,-4.33532 -2.97656,-6.18945 -0.50014,-1.85414 -0.0953,-3.1865 -0.33008,-2.80664 2.95735,-4.78509 1.21515,-10.56527 -1.86328,-15.10157 -3.07842,-4.53629 -7.84921,-8.40331 -13.58008,-9.20898 -1.83114,-0.25743 -3.20126,-0.44669 -4.4375,-0.47266 -0.61812,-0.013 -1.1754,-0.0569 -2.13281,0.26953 -0.4787,0.16322 -1.14089,0.45884 -1.73828,1.19336 -0.59739,0.73453 -0.87233,1.89358 -0.7832,2.68555 0.17826,1.58394 0.79475,2.03149 1.23242,2.52149 0.43767,0.48999 0.89889,0.90183 1.45312,1.36914 1.10848,0.93461 2.58698,2.04883 4.53711,3.49609 3.75177,2.78431 6.17192,8.43744 5.69727,11.39453 -0.94029,5.85813 0.6778,12.61589 4.37305,17.06836 1.6835,2.02851 3.10338,9.20968 1.70898,16.18164 -1.99846,9.99231 -0.0435,18.31031 6.29297,27.20898 2.19292,3.07968 4.20866,6.4115 5.63086,9.18946 0.7111,1.38898 1.27342,2.6436 1.63086,3.60742 0.35743,0.96382 0.44922,1.73994 0.44922,1.54297 0,1.06097 -0.19277,1.1697 -0.14649,1.125 -0.0449,-0.0105 -0.017,-0.008 -0.11914,-0.0312 -0.97102,-0.21758 -3.68558,-2.00061 -5.72265,-5.49805 -1.28621,-2.20828 -2.29102,-3.74986 -3.94532,-4.94922 -0.41357,-0.29984 -0.89391,-0.60541 -1.63867,-0.80078 -0.74476,-0.19537 -1.91254,-0.19922 -2.89648,0.36328 -0.98394,0.5625 -1.50921,1.46434 -1.7461,2.13672 -0.23688,0.67238 -0.28114,1.21818 -0.28906,1.74219 -0.12769,8.45942 6.56226,15.67361 17.50977,21.44141 3.91259,2.06138 10.6817,10.97632 15.59961,21.39648 4.9179,10.42016 8.43359,22.45623 8.43359,30.3457 0,5.72448 -1.54512,9.69238 -2.41406,10.94141 -0.20963,-0.24338 -0.45563,-0.34549 -0.9961,-1.75391 -1.98519,-5.17326 -8.01653,-7.55697 -13.23437,-5.55468 -0.81169,0.31147 -2.68938,0.3994 -4.70508,-0.13086 -2.0157,-0.53026 -4.14703,-1.60041 -5.66016,-2.89844 -4.31937,-3.70533 -10.53193,-7.56433 -15.13476,-9.18945 -1.71945,-0.60709 -2.43466,-1.23074 -3.27539,-4.06055 -0.84074,-2.82981 -1.24964,-7.73424 -1.13867,-15.07422 0.0908,-6.00585 -0.33503,-11.32801 -1.21485,-15.48828 -0.43991,-2.08014 -0.98005,-3.86745 -1.74805,-5.41016 -0.76799,-1.5427 -1.76408,-3.09779 -3.85546,-3.79492 -0.16692,-0.0556 -0.95184,-0.60985 -1.55469,-1.71875 -0.60285,-1.1089 -1.01953,-2.63841 -1.01953,-4.04492 0,-5.54832 -3.95483,-10.62695 -9.49414,-10.62695 -1.53022,0 -3.05365,0.024 -4.67188,1.1875 -1.61823,1.16349 -2.22308,3.59498 -1.96289,5.26171 0.52039,3.33347 2.49507,6.48514 5.89258,11.98243 0.45265,0.7324 0.71968,1.27182 1.13086,1.96289 -0.14733,-0.22263 -0.25663,-0.35131 -0.40625,-0.58008 -3.6523,-5.58461 -7.22051,-10.40092 -10.14453,-13.7793 -1.46201,-1.68919 -2.7318,-3.00847 -3.96485,-3.99023 -0.61652,-0.49089 -1.19059,-0.91848 -2.09375,-1.25586 -0.45157,-0.16869 -1.01385,-0.3322 -1.78711,-0.28516 -0.43086,0.0262 -0.92143,0.18072 -1.39843,0.40625 -0.1785,-8.92353 0.86849,-17.61927 3.61523,-24.84375 1.68038,-4.41973 2.49036,-8.36024 2.02149,-12.30664 -0.46888,-3.9464 -2.17287,-7.64627 -4.84766,-11.72851 -3.02256,-4.61302 -3.97737,-6.27705 -3.41016,-10.91407 0.56721,-4.63701 3.26575,-12.3694 8.68946,-26.57422 3.14013,-8.22406 7.02933,-16.90552 10.73047,-24.1875 3.70113,-7.28197 7.37072,-13.28733 9.39843,-15.60156 5.65955,-6.45922 9.53966,-15.69661 11.49805,-25.09961 1.95839,-9.402999 2.04607,-18.956766 -0.91797,-26.326169 -0.67519,-1.678713 -0.84241,-2.800142 -2.59961,-4.181641 -0.4393,-0.345375 -1.09549,-0.73871 -2.01172,-0.837891 -0.91622,-0.09918 -1.96139,0.235155 -2.5957,0.695313 -1.26862,0.920316 -1.45312,1.777383 -1.69531,2.517578 -0.96879,2.960781 -1.04852,6.990548 -1.15625,14.152344 -0.21222,14.110626 -2.59105,21.072906 -10.11914,30.019526 -4.98128,5.91993 -10.67875,15.93177 -14.75782,25.3379 1.2232,-8.68525 1.83622,-18.85289 1.82618,-28.65821 -0.007,-7.28552 -0.34527,-14.25333 -1.03125,-20.02148 -0.68598,-5.768157 -1.42207,-10.139967 -3.48243,-13.328127 -0.50381,-0.779606 -1.00574,-1.538347 -2.18359,-2.183594 -1.17785,-0.645246 -3.49749,-0.465383 -4.57813,0.435547 -1.08063,0.900931 -1.4055,1.790517 -1.7246,2.683594 -0.31911,0.893077 -0.5415,1.856498 -0.74024,2.992188 -0.79496,4.542759 -1.15274,11.904582 -1.27148,22.882812 l -0.0801,7.29297 c -3.28428,-12.02675 -7.52467,-24.788227 -10.35156,-30.070314 -1.82898,-3.417482 -2.63384,-11.142811 -1.51758,-15.033203 1.68209,-5.862462 2.90478,-10.35276 3.65234,-13.621094 0.37378,-1.634166 0.62968,-2.953385 0.76367,-4.082031 0.134,-1.128646 0.5871,-1.839759 -0.41992,-3.742187 -0.50351,-0.951227 -2.35676,-2.082002 -3.64453,-1.931641 z m 335.82616,122.9668 c -6.2427,4.0893 -26.8027,12.97565 -19.8144,10.32617 0.9797,-0.672 1.5858,-1.23576 2.6386,-1.9082 3.5263,-2.25227 7.351,-4.43611 10.6035,-6.01368 3.2526,-1.57757 6.3322,-2.39843 6.5215,-2.39843 0.018,0 0.033,-0.006 0.051,-0.006 z m -171.08592,0.41015 c 2.72993,5.27509 -1.99454,22.98806 3.04101,20.53125 -16.06025,-3.38746 -9.94682,-3.74506 -19.79297,-4.23437 -15.01773,2.70011 17.16093,19.29014 9.81836,17.66797 8.47914,4.04341 12.79983,7.32272 14.77344,11.33007 1.9736,4.00736 2.0207,9.6786 0.22656,19.24219 -1.83565,9.78483 -5.15568,14.37745 -13.32422,18.60157 -3.76056,1.94466 -7.11301,4.54518 -9.65625,7.33007 -1.14937,1.25859 -2.11481,2.54932 -2.90234,3.89258 0.0702,-1.69456 0.0904,-3.19038 0.20898,-5.05273 0.47911,-7.5242 1.61398,-15.48183 3.03711,-22.1211 1.42314,-6.63926 3.36198,-12.15511 4.48633,-13.87109 1.85127,-2.82539 3.28626,-5.62144 4.16797,-8.07617 0.44085,-1.22737 0.75634,-2.35606 0.86719,-3.53321 0.11084,-1.17714 0.22888,-2.72227 -1.27539,-4.22656 -0.79289,-0.79289 -2.07244,-1.24829 -3.06836,-1.23242 -0.99592,0.0159 -1.73298,0.30959 -2.35938,0.62891 -1.2528,0.63863 -2.20293,1.49593 -3.23828,2.54687 -2.07069,2.10189 -4.29875,5.05235 -6.56836,8.49414 -1.98904,3.01633 -3.92333,6.43233 -5.70703,9.84375 -0.056,-1.05458 -0.0636,-2.18659 -0.19531,-3.11133 -0.23099,-1.62194 -0.546,-3.01809 -1.17774,-4.33203 -0.31587,-0.65697 -0.71224,-1.31904 -1.40039,-1.9414 -0.68814,-0.62237 -1.80488,-1.17774 -2.98047,-1.17774 -2.35362,0 -3.86944,1.7306 -4.6289,3.11524 -0.75947,1.38463 -1.19059,2.89578 -1.54688,4.61914 -0.71258,3.44672 -1.00318,7.72477 -0.9707,12.12695 0.0325,4.40218 0.39569,8.88269 1.13672,12.65625 0.37051,1.88678 0.82658,3.59272 1.46289,5.10547 0.63631,1.51275 1.36553,2.95437 3.06055,4.00195 -0.46358,-0.28651 -0.0332,-0.0378 0.32031,0.75 0.35353,0.78775 0.7496,2.01532 1.07617,3.48828 0.65314,2.94592 1.06242,6.88664 1.01367,10.875 -0.0962,7.87346 -2.58968,20.3965 -5.15625,26.41211 l -2.16015,5.06446 -3.00977,-7.13868 c -3.20697,-7.60817 -5.78266,-27.1307 -5.77148,-48.53711 0.0162,-31.33815 1.02073,-36.28196 11.41796,-53.99804 4.41014,-7.51452 7.80378,-12.24727 10.36524,-14.61524 2.56146,-2.36797 3.61889,-2.53188 5.57812,-2.01953 5.78074,1.5117 12.25492,-0.33261 16.03125,-4.88281 2.57153,-3.0985 4.60363,-4.1883 4.80079,-4.22266 z m -46.7168,7.94141 c 12.48231,-0.89936 -2.9517,15.12304 -0.94141,12.16016 -5.14414,6.53971 -10.56867,19.37714 -13.07812,30.02148 -2.43344,10.32187 -4.97853,25.12652 -5.72852,33.49023 -0.0364,0.40611 -0.0696,0.54779 -0.10547,0.92774 -2.12413,-4.83208 -4.85445,-10.60229 -7.40429,-15.36328 -3.75143,-7.00454 -5.32902,-11.94241 -5.15625,-16.93555 0.17276,-4.99314 2.16393,-10.45204 6.46289,-18.25 5.80749,-10.53432 10.34638,-17.24508 14.33007,-21.07812 3.9837,-3.83304 7.11693,-4.97266 11.6211,-4.97266 z m 124.37692,14.75977 c -2.7255,1.29124 -12.1488,0.59201 -10.1523,2.84374 7.5194,-4.6356 2.863,-1.24854 10.1523,-2.84374 z m -320.59958,10.22656 c 0.008,0.51172 -0.36914,3.0039 -0.5664,3.73828 0.0322,-0.28238 -0.056,-0.91215 0.004,-1.08008 0.3213,-0.90065 0.44026,-1.76186 0.5625,-2.6582 z m 118.73828,3.49218 c -5.89764,-0.19213 -9.553,15.62439 -8.33398,11.26758 -1.63364,6.8516 -4.17,17.17497 -5.61914,22.88282 -0.20339,0.8011 -0.34758,1.47998 -0.42969,2.13867 -0.0821,0.65869 -0.28854,1.18434 0.20703,2.49609 0.24779,0.65588 0.98663,1.73581 2.20508,2.13867 1.21845,0.40287 2.21938,0.0499 2.75781,-0.2207 1.07686,-0.54121 1.34677,-1.00304 1.75196,-1.49414 1.62072,-1.96442 3.37848,-5.19288 5.83398,-10.19336 2.51233,-5.11619 4.42113,-10.32108 5.51367,-14.77148 0.54627,-2.2252 0.89356,-4.25615 0.97852,-6.08985 0.0849,-1.8337 0.0844,-3.49509 -1.01953,-5.28125 -0.75359,-1.21935 -1.83856,-2.5558 -3.84571,-2.87305 z m -118.80468,6.34376 c 12.43381,8.5828 6.68982,0.86036 15.25976,10.48828 3.31986,2.8267 8.02536,9.6439 6.48242,7.43945 -1.73432,-0.62123 -3.81078,-1.51487 -6.11914,-2.80664 -6.24726,-3.49599 -13.19653,-9.38679 -14.56836,-12.05469 -0.44759,-0.87047 -0.78322,-1.94461 -1.05468,-3.0664 z m 302.58988,0.67578 c 2.915,0.082 5.801,0.68069 8.3984,1.71484 5.1948,2.06829 9.0172,5.76156 10.1406,9.96094 0.4002,1.49579 0.7154,2.62556 1.0332,3.53711 0.1589,0.45577 0.2923,0.83993 0.586,1.35742 0.064,0.11267 0.2404,0.29354 0.3339,0.42969 -0.7817,0.48743 -1.5909,1.16175 -2.3574,1.57226 a 3.3242474,3.3242474 0 0 0 -0,0 c -6.0796,3.25619 -10.0688,4.87234 -13.1485,5.29297 -3.0796,0.42063 -5.5153,-0.1315 -9.4062,-1.9043 -7.00457,-3.19148 -10.44774,-7.86675 -10.98634,-11.51171 -0.53861,-3.64497 1.02589,-6.85521 6.84184,-9.06641 2.7083,-1.0297 5.6513,-1.46484 8.5664,-1.38281 z m -246.5352,10.7207 c 0.026,0.0143 0.004,0.0299 -0.0332,0.0234 0.006,-0.002 0.0271,-0.022 0.0332,-0.0234 z m -18.1289,4.41016 6.58984,4.875 c 6.33308,4.68425 14.22944,6.89838 20.74609,4.83007 2.69104,-0.8541 3.80288,-0.71312 4.61133,-0.23828 0.80845,0.47485 1.997,1.95592 3.24805,5.27735 1.74396,4.63003 2.60305,12.68682 2,15.94336 -0.2838,1.53256 -0.46051,2.79521 -0.48633,3.96093 -0.004,0.17191 0.0209,0.36081 0.0156,0.53516 -2.03885,-1.21027 -4.21116,-2.61614 -6.5293,-4.42188 -6.58562,-5.12992 -14.06571,-12.26847 -21.04297,-19.94531 -3.2136,-3.53581 -6.27472,-7.19404 -9.15234,-10.8164 z m 64.49414,37.52734 c 1.03673,1.77089 2.21409,3.60632 3.60547,5.48828 10.26687,13.88693 16.77931,26.83729 18.34961,33.25391 0.20429,0.83481 0.14728,1.07382 0.19531,1.61914 -1.17695,-0.67342 -2.85945,-1.90585 -4.95117,-3.79883 -7.90704,-7.15577 -14.03996,-20.00769 -16.84571,-34.01758 -0.16779,-0.83785 -0.20942,-1.70019 -0.35351,-2.54492 z m -19.70508,0.47266 c -0.0736,0.16731 -0.27018,0.56966 -0.29492,0.60351 -0.0994,-0.0112 -0.25012,-0.0639 -0.36133,-0.084 0.21506,-0.16367 0.4513,-0.33706 0.65625,-0.51953 z m 167.43359,9.04296 c 4.05061,-0.0495 10.75844,1.14427 20.34571,3.96094 23.65034,6.94831 45.56334,16.654 61.50584,26.82031 -0.088,0.0591 -0.1856,0.11465 -0.2812,0.17188 -0.6434,0.38503 -1.3167,0.85545 -2.1309,1.45312 -1.6284,1.19535 -3.7865,2.89351 -6.6582,5.15235 -5.8187,4.57699 -11.321,7.30612 -14.6699,8.02148 -1.6745,0.35768 -2.6768,0.12844 -2.8086,0.0605 -0.1318,-0.0679 -0.066,0.32016 -0.066,-0.57227 0,-0.48174 0.3679,-0.84961 0.8496,-0.84961 4.2683,0 7.4961,-3.70403 7.4961,-7.86718 0,-0.95277 -0.3986,-2.31849 -1.3945,-3.19141 -0.996,-0.87292 -2.1425,-1.05185 -2.9707,-1.04492 -1.6566,0.0139 -2.8079,0.54028 -4.1876,1.21289 -2.7593,1.34523 -6.0772,3.64817 -9.7519,6.74023 -9.16945,7.7156 -15.82908,10.02149 -29.15821,10.02149 -4.076,0 -7.40898,-0.25426 -10.36914,-0.53321 2.38564,-1.26502 5.00933,-2.61357 8.24805,-3.96679 4.28691,-1.79119 7.93002,-3.65683 10.53906,-5.37305 1.30453,-0.85811 2.34216,-1.6251 3.22461,-2.64062 0.44123,-0.50777 0.90157,-1.07135 1.17578,-2.10547 0.27421,-1.03413 -0.0598,-2.8332 -0.99414,-3.76758 -1.35306,-1.35308 -2.74398,-1.41493 -3.90234,-1.42578 -1.15836,-0.0109 -2.29444,0.17498 -3.51953,0.47461 -2.45018,0.59926 -5.22147,1.6942 -8.01172,3.1875 -0.57254,0.30641 -0.69046,0.3487 -1.19531,0.61914 1.01289,-2.66417 2.46869,-6.22574 4.48047,-11.19727 0.88263,-2.1812 1.26645,-4.29387 0.77343,-6.41797 -0.24651,-1.06204 -0.76362,-2.17406 -1.71875,-3.04687 -0.95513,-0.87281 -2.32999,-1.36524 -3.58984,-1.36524 -2.4404,0 -3.41079,1.2382 -4.46484,2.33985 -1.05406,1.10165 -2.04928,2.46588 -3.08008,4.0957 -2.06161,3.25965 -4.20766,7.56461 -6.07422,12.31641 -3.88255,9.884 -18.39607,33.11439 -32.57617,53.2539 -7.09006,10.06976 -14.13095,19.47338 -19.75782,26.29102 -2.81343,3.40882 -5.28465,6.17796 -7.15039,8 -0.93287,0.91102 -1.72347,1.58452 -2.23047,1.94531 -0.10099,0.0719 -0.1178,0.0595 -0.19726,0.0957 -0.0102,-0.009 -0.0236,-1e-5 -0.0371,-0.0117 -0.13356,-0.11525 -0.43193,-0.48233 -0.69922,-1.23633 -0.53458,-1.50801 -0.8106,-4.38086 -0.48437,-7.90039 0.65245,-7.03906 3.49046,-16.68861 8.20117,-25.50196 4.59726,-8.60106 17.79621,-27.19899 28.83398,-40.42968 5.66942,-6.79577 10.81674,-13.74493 14.60352,-19.5586 1.89338,-2.90683 3.4469,-5.52297 4.57226,-7.75976 1.12537,-2.2368 1.96163,-3.81125 1.98242,-6.07813 0.0375,-4.07079 0.46547,-7.06109 1.1836,-8.88086 0.71813,-1.81976 1.40622,-2.5048 2.9414,-3.0625 0.7676,-0.27885 1.82363,-0.43272 3.17383,-0.44922 z m -172.92383,8.34571 c 3.93596,-0.19314 12.07077,8.30398 9.66993,5.47265 -0.0844,0.0212 -0.1997,-0.009 -0.27735,0.0195 -0.98229,0.35753 -1.44978,0.88094 -1.80468,1.30664 -0.70982,0.85139 -1.04076,1.62215 -1.4336,2.5957 -0.13159,0.32612 -0.93009,1.27795 -2.2793,1.97461 -1.3492,0.69666 -3.13379,1.16211 -4.74218,1.16211 -1.64896,0 -2.71697,-0.33778 -3.31446,-0.70117 -0.59748,-0.3634 -0.83968,-0.68808 -1.02929,-1.35743 -0.37923,-1.3387 0.0705,-4.5179 2.67773,-8.62695 0.81028,-1.277 1.5321,-1.67938 2.5332,-1.8457 z m 15.15626,13.07422 c 0.89753,1.26219 2.8218,5.47796 2.09374,4.12304 -0.0647,-0.0582 -0.19547,-0.11362 -0.25585,-0.17187 -1.1338,-1.09375 -1.62349,-2.29139 -1.83789,-3.95117 z m 20.24023,29.08007 c 10.28151,-0.32393 24.11725,3.40478 36.30664,11.41016 7.02287,4.61228 10.39242,8.78046 11.32031,13.33789 0.9279,4.55744 -0.5159,10.31852 -5.04883,18.24805 -3.69694,6.46714 -6.45956,16.28431 -6.55273,23.51758 -0.0373,2.89689 -0.62218,5.35899 -1.32031,6.79296 -0.69813,1.43398 -1.12587,1.40235 -0.94336,1.40235 -0.11721,0 -1.71059,-0.43682 -3.6875,-1.75391 -1.97691,-1.31708 -4.42594,-3.34394 -7.08594,-5.86328 -5.31999,-5.03868 -11.51613,-12.0419 -17.35156,-19.48633 -5.83543,-7.44443 -11.3263,-15.34818 -15.30078,-22.17773 -3.97449,-6.82955 -6.23438,-12.97107 -6.23438,-14.98828 0,-3.38021 1.27542,-5.4924 3.91992,-7.28906 2.64451,-1.79667 6.83773,-2.98843 11.97852,-3.1504 z m -91.98438,7.85157 c -0.21542,0.005 -0.45004,0.0967 -0.67382,0.11328 0.0124,-0.003 0.0371,-0.0164 0.0488,-0.0195 0.36084,-0.0964 0.52591,-0.0915 0.625,-0.0937 z"
       transform="translate(-339.08672,-33.323897)" />
  </g>
</svg>
