<?xml version="1.0" encoding="UTF-8" standalone="no"?>
<!-- Created with Inkscape (http://www.inkscape.org/) -->

<svg
   width="1220mm"
   height="600mm"
   viewBox="0 0 1220 600.00001"
   version="1.1"
   id="svg5"
   inkscape:version="1.1.1 (3bf5ae0d25, 2021-09-20)"
   sodipodi:docname="stars.svg"
   xmlns:inkscape="http://www.inkscape.org/namespaces/inkscape"
   xmlns:sodipodi="http://sodipodi.sourceforge.net/DTD/sodipodi-0.dtd"
   xmlns="http://www.w3.org/2000/svg"
   xmlns:svg="http://www.w3.org/2000/svg"
   xmlns:rdf="http://www.w3.org/1999/02/22-rdf-syntax-ns#"
   xmlns:cc="http://creativecommons.org/ns#"
   xmlns:dc="http://purl.org/dc/elements/1.1/">
  <metadata
     id="metadata846">
    <rdf:RDF>
      <cc:Work
         rdf:about="">
        <dc:format>image/svg+xml</dc:format>
        <dc:type
           rdf:resource="http://purl.org/dc/dcmitype/StillImage" />
      </cc:Work>
    </rdf:RDF>
  </metadata>
  <sodipodi:namedview
     id="namedview7"
     pagecolor="#ffffff"
     bordercolor="#666666"
     borderopacity="1.0"
     inkscape:pageshadow="2"
     inkscape:pageopacity="0.0"
     inkscape:pagecheckerboard="true"
     inkscape:document-units="mm"
     showgrid="false"
     inkscape:zoom="1"
     inkscape:cx="388"
     inkscape:cy="402.5"
     inkscape:window-width="1920"
     inkscape:window-height="1017"
     inkscape:window-x="1912"
     inkscape:window-y="-8"
     inkscape:window-maximized="1"
     inkscape:current-layer="g17825"
     inkscape:snap-global="false"
     showguides="true"
     inkscape:guide-bbox="true"
     inkscape:object-nodes="false"
     inkscape:snap-center="true"
     inkscape:snap-object-midpoints="true"
     inkscape:snap-grids="true"
     inkscape:object-paths="true"
     inkscape:snap-others="false"
     inkscape:snap-midpoints="true"
     inkscape:snap-bbox="true"
     inkscape:snap-bbox-midpoints="true">
    <inkscape:grid
       type="xygrid"
       id="grid13171" />
  </sodipodi:namedview>
  <defs
     id="defs2">
    <inkscape:path-effect
       effect="skeletal"
       id="path-effect5550"
       is_visible="true"
       lpeversion="1"
       pattern="m 51.431063,15.617421 a 1.1880129,4.3312974 0 0 1 -1.188014,4.331298 1.1880129,4.3312974 0 0 1 -1.188013,-4.331298 1.1880129,4.3312974 0 0 1 1.188013,-4.331297 1.1880129,4.3312974 0 0 1 1.188014,4.331297 z"
       copytype="repeated"
       prop_scale="1.08"
       scale_y_rel="false"
       spacing="1.9"
       normal_offset="0"
       tang_offset="0"
       prop_units="false"
       vertical_pattern="false"
       hide_knot="false"
       fuse_tolerance="0" />
    <inkscape:path-effect
       effect="skeletal"
       id="path-effect4738"
       is_visible="true"
       lpeversion="1"
       pattern="m 33.035576,40.106248 a 2.7260388,2.7260388 0 0 1 -2.72604,2.726037 2.7260388,2.7260388 0 0 1 -2.726039,-2.726037 2.7260388,2.7260388 0 0 1 2.726039,-2.72604 2.7260388,2.7260388 0 0 1 2.72604,2.72604 z"
       copytype="repeated_stretched"
       prop_scale="1"
       scale_y_rel="false"
       spacing="2"
       normal_offset="0"
       tang_offset="0"
       prop_units="false"
       vertical_pattern="false"
       hide_knot="false"
       fuse_tolerance="0" />
    <inkscape:path-effect
       effect="skeletal"
       id="path-effect4441"
       is_visible="true"
       lpeversion="1"
       pattern="m 18.843441,11.449869 a 0.57302152,0.59150612 0 0 1 -0.573022,0.591506 0.57302152,0.59150612 0 0 1 -0.573022,-0.591506 0.57302152,0.59150612 0 0 1 0.573022,-0.591507 0.57302152,0.59150612 0 0 1 0.573022,0.591507 z"
       copytype="repeated"
       prop_scale="1"
       scale_y_rel="false"
       spacing="4"
       normal_offset="0"
       tang_offset="0"
       prop_units="false"
       vertical_pattern="false"
       hide_knot="false"
       fuse_tolerance="0" />
    <inkscape:path-effect
       effect="bspline"
       id="path-effect2669"
       is_visible="true"
       weight="20"
       steps="2"
       helper_size="0"
       apply_no_weight="true"
       apply_with_weight="true"
       only_selected="false" />
    <pattern
       patternUnits="userSpaceOnUse"
       patternTransform="translate(0.000160318455288,0.000160210947143)"
       height="89.9996771232"
       width="89.9996771232"
       id="Voronoi1649">
      <path
         id="path2397"
         style="stroke:#000000;stroke-width:0.264583333328"
         d="M 31.594,0.000 33.203,3.392 M 33.203,3.392 36.124,4.523 M 36.124,4.523 38.037,0.000 M 36.124,4.523 36.621,4.808 M 24.801,9.559 33.203,3.392 M 16.057,9.285 16.938,0.000 M 16.057,9.285 24.801,9.559 M 30.609,16.545 36.621,4.808 M 30.609,16.545 44.082,8.387 M 36.621,4.808 44.082,8.387 M 55.450,0.000 59.140,4.663 M 59.140,4.663 63.148,0.000 M 24.801,9.559 28.391,18.713 M 28.391,18.713 30.609,16.545 M 5.201,17.517 16.057,9.285 M 44.082,8.387 56.786,13.276 M 56.786,13.276 59.140,4.663 M 88.833,0.000 90.000,4.833 M 0.000,4.833 3.181,18.007 M 3.181,18.007 5.201,17.517 M 5.201,17.517 29.154,26.923 M 28.391,18.713 29.154,26.923 M 0.000,21.857 3.181,18.007 M 89.213,22.810 90.000,21.857 M 56.786,13.276 58.049,19.157 M 55.971,21.313 58.049,19.157 M 81.102,26.540 89.213,22.810 M 29.154,26.923 33.215,31.629 M 58.049,19.157 74.765,26.620 M 74.765,26.620 81.102,26.540 M 28.755,35.883 33.215,31.629 M 33.215,31.629 42.279,31.475 M 42.279,31.475 55.971,21.313 M 89.213,22.810 90.000,23.646 M 0.000,23.646 16.319,40.979 M 16.319,40.979 28.755,35.883 M 55.971,21.313 59.055,48.526 M 14.271,47.181 16.319,40.979 M 14.271,47.181 23.558,52.155 M 23.558,52.155 29.990,52.518 M 28.755,35.883 29.990,52.518 M 42.279,31.475 44.998,48.860 M 29.990,52.518 30.449,53.016 M 30.449,53.016 44.998,48.860 M 59.055,48.526 69.561,51.070 M 69.561,51.070 74.765,26.620 M 44.998,48.860 47.116,52.165 M 47.116,52.165 48.678,53.267 M 48.678,53.267 59.055,48.526 M 9.475,52.568 14.271,47.181 M 9.475,52.568 14.748,59.735 M 0.000,52.167 0.653,54.048 M 0.653,54.048 9.475,52.568 M 81.102,26.540 90.000,52.167 M 48.678,53.267 52.024,61.069 M 14.748,59.735 21.202,63.309 M 21.202,63.309 23.558,52.155 M 69.561,51.070 72.341,58.296 M 0.000,54.781 0.653,54.048 M 86.778,58.394 90.000,54.781 M 30.449,53.016 30.967,63.614 M 30.967,63.614 33.026,64.520 M 33.026,64.520 47.116,52.165 M 0.000,61.020 10.080,69.236 M 10.080,69.236 14.748,59.735 M 86.778,58.394 90.000,61.020 M 21.202,63.309 23.665,65.580 M 23.665,65.580 30.967,63.614 M 33.026,64.520 34.692,66.498 M 34.692,66.498 52.024,61.069 M 52.024,61.069 54.310,64.348 M 10.080,69.236 10.368,70.638 M 54.310,64.348 60.489,65.784 M 60.489,65.784 72.341,58.296 M 72.341,58.296 81.880,61.886 M 81.880,61.886 86.778,58.394 M 10.368,70.638 22.086,69.442 M 22.086,69.442 23.665,65.580 M 49.674,69.874 54.310,64.348 M 34.692,66.498 37.719,72.498 M 37.719,72.498 49.674,69.874 M 37.025,76.294 37.719,72.498 M 37.025,76.294 42.091,80.415 M 6.420,80.367 10.368,70.638 M 22.086,69.442 22.138,81.384 M 22.138,81.384 28.445,83.364 M 28.445,83.364 37.025,76.294 M 6.420,80.367 17.575,83.289 M 17.575,83.289 22.138,81.384 M 42.091,80.415 50.857,84.198 M 49.674,69.874 50.857,84.198 M 81.880,61.886 83.629,80.594 M 83.629,80.594 87.061,82.663 M 87.061,82.663 90.000,81.942 M 0.000,81.942 6.420,80.367 M 60.489,65.784 65.857,86.847 M 65.857,86.847 83.629,80.594 M 28.445,83.364 31.594,90.000 M 38.037,90.000 42.091,80.415 M 16.938,90.000 17.575,83.289 M 50.857,84.198 55.450,90.000 M 63.148,90.000 65.857,86.847 M 87.061,82.663 88.833,90.000 M 67.610,90.000 67.610,90.000 M 53.966,0.000 53.966,0.000 " />
    </pattern>
    <pattern
       patternUnits="userSpaceOnUse"
       patternTransform="translate(0.000160318455288,0.000160210947143)"
       height="89.9996771232"
       width="89.9996771232"
       id="Voronoi8544">
      <path
         id="path2420"
         style="stroke:#000000;stroke-width:0.264583333328"
         d="M 0.000,0.295 0.190,0.000 M 85.350,7.490 90.000,0.295 M 6.151,0.000 10.849,7.065 M 10.299,7.615 10.849,7.065 M 0.000,10.550 10.299,7.615 M 85.350,7.490 88.142,11.079 M 88.142,11.079 90.000,10.550 M 10.849,7.065 16.485,7.884 M 16.485,7.884 22.389,0.000 M 23.571,0.000 36.429,11.932 M 36.429,11.932 51.372,4.683 M 48.852,0.000 51.372,4.683 M 16.485,7.884 20.514,15.443 M 20.493,15.495 20.514,15.443 M 20.514,15.443 34.169,14.454 M 34.169,14.454 36.429,11.932 M 5.449,19.664 10.299,7.615 M 5.449,19.664 20.493,15.495 M 63.812,6.554 67.772,0.000 M 63.812,6.554 85.350,7.490 M 34.169,14.454 34.218,23.076 M 32.584,24.351 34.218,23.076 M 51.372,4.683 60.480,9.372 M 60.480,9.372 63.812,6.554 M 19.046,25.656 20.493,15.495 M 19.046,25.656 32.584,24.351 M 76.027,24.972 84.121,25.845 M 84.121,25.845 89.613,25.565 M 88.142,11.079 89.613,25.565 M 0.000,25.718 0.237,25.812 M 0.237,25.812 5.449,19.664 M 89.613,25.565 90.000,25.718 M 60.480,9.372 62.849,21.456 M 62.849,21.456 76.027,24.972 M 81.299,42.594 84.121,25.845 M 0.000,39.354 6.086,37.089 M 81.299,42.594 90.000,39.354 M 6.086,37.089 8.537,34.408 M 0.237,25.812 8.537,34.408 M 76.027,24.972 79.519,44.129 M 79.519,44.129 81.299,42.594 M 8.537,34.408 13.974,35.549 M 13.974,35.549 19.046,25.656 M 79.097,44.789 79.519,44.129 M 56.877,34.494 62.849,21.456 M 56.877,34.494 79.097,44.789 M 13.974,35.549 18.922,40.394 M 18.922,40.394 24.179,42.662 M 24.179,42.662 32.584,24.351 M 34.218,23.076 50.680,38.904 M 50.680,38.904 54.025,37.964 M 54.025,37.964 56.877,34.494 M 40.148,45.846 50.680,38.904 M 0.000,49.724 6.086,37.089 M 87.982,53.913 90.000,49.724 M 79.097,44.789 80.711,53.208 M 80.711,53.208 81.388,53.709 M 81.388,53.709 87.982,53.913 M 24.179,42.662 31.600,47.996 M 31.600,47.996 40.148,45.846 M 54.025,37.964 63.411,55.444 M 63.411,55.444 80.711,53.208 M 5.951,59.684 18.922,40.394 M 87.982,53.913 90.000,55.414 M 0.000,55.414 5.778,59.713 M 5.778,59.713 5.951,59.684 M 5.951,59.684 15.985,63.744 M 15.985,63.744 28.164,60.222 M 28.164,60.222 31.600,47.996 M 1.863,68.578 5.778,59.713 M 62.121,64.568 63.411,55.444 M 14.424,73.510 15.985,63.744 M 40.148,45.846 50.671,69.557 M 50.671,69.557 62.121,64.568 M 14.424,73.510 32.950,72.293 M 28.164,60.222 32.950,72.293 M 1.863,68.578 11.411,77.314 M 11.411,77.314 12.198,77.659 M 12.198,77.659 14.424,73.510 M 12.198,77.659 13.200,80.168 M 0.000,79.784 11.411,77.314 M 84.562,80.961 90.000,79.784 M 0.000,69.660 1.863,68.578 M 78.191,76.523 90.000,69.660 M 78.191,76.523 84.562,80.961 M 77.458,76.457 81.388,53.709 M 77.458,76.457 78.191,76.523 M 32.950,72.293 35.639,76.840 M 62.121,64.568 75.596,77.049 M 75.596,77.049 77.458,76.457 M 13.200,80.168 23.538,85.120 M 23.538,85.120 35.639,76.840 M 35.639,76.840 43.133,79.373 M 43.133,79.373 50.671,69.557 M 0.000,87.402 1.059,88.656 M 84.562,80.961 90.000,87.402 M 1.059,88.656 5.744,89.387 M 5.744,89.387 13.200,80.168 M 22.874,89.352 23.538,85.120 M 0.190,90.000 1.059,88.656 M 5.744,89.387 6.151,90.000 M 22.389,90.000 22.874,89.352 M 22.874,89.352 23.571,90.000 M 43.133,79.373 48.852,90.000 M 67.772,90.000 75.596,77.049 M 54.789,0.000 54.789,0.000 " />
    </pattern>
    <pattern
       patternUnits="userSpaceOnUse"
       patternTransform="translate(0.000160318455288,0.000160210947143)"
       height="89.9996771232"
       width="89.9996771232"
       id="Voronoi8482">
      <path
         id="path2445"
         style="stroke:#000000;stroke-width:0.264583333328"
         d="M 48.410,0.000 50.438,3.438 M 10.872,0.391 10.950,0.000 M 10.872,0.391 11.072,1.670 M 73.789,0.000 74.230,3.361 M 74.230,3.361 78.549,0.000 M 50.438,3.438 50.859,11.507 M 28.079,0.000 33.674,8.615 M 33.674,8.615 43.055,0.000 M 50.438,3.438 70.749,6.114 M 64.328,0.000 70.749,6.114 M 11.072,1.670 22.114,13.048 M 70.749,6.114 72.901,7.377 M 72.901,7.377 74.230,3.361 M 22.114,13.048 32.611,13.044 M 32.611,13.044 33.146,12.806 M 33.146,12.806 33.674,8.615 M 72.901,7.377 73.589,10.429 M 73.589,10.429 90.000,4.391 M 33.146,12.806 39.124,17.382 M 39.124,17.382 50.859,11.507 M 73.565,11.132 73.589,10.429 M 0.000,4.391 10.872,0.391 M 68.221,18.330 73.565,11.132 M 0.000,19.441 4.020,21.473 M 4.020,21.473 11.072,1.670 M 73.565,11.132 90.000,19.441 M 50.859,11.507 65.204,19.924 M 65.204,19.924 68.221,18.330 M 39.124,17.382 42.436,25.683 M 4.020,21.473 5.323,23.696 M 61.369,24.779 65.204,19.924 M 42.436,25.683 60.473,25.661 M 60.473,25.661 61.369,24.779 M 5.323,23.696 10.209,26.818 M 10.209,26.818 22.114,13.048 M 61.369,24.779 72.556,39.899 M 0.000,28.069 5.323,23.696 M 68.221,18.330 80.031,36.261 M 80.031,36.261 90.000,28.069 M 72.556,39.899 79.641,40.132 M 79.641,40.132 80.031,36.261 M 10.209,26.818 16.570,36.254 M 16.570,36.254 19.856,37.124 M 19.856,37.124 32.611,13.044 M 57.406,43.600 60.473,25.661 M 57.406,43.600 72.556,39.899 M 19.856,37.124 29.769,43.458 M 29.769,43.458 34.567,44.517 M 34.567,44.517 42.436,25.683 M 53.662,49.704 57.406,43.600 M 16.755,59.677 29.769,43.458 M 53.662,49.704 56.348,51.893 M 16.755,59.677 23.149,64.943 M 34.567,44.517 41.073,50.705 M 41.073,50.705 53.662,49.704 M 23.149,64.943 35.145,61.134 M 0.000,50.671 16.570,36.254 M 79.641,40.132 86.093,54.069 M 86.093,54.069 90.000,50.671 M 56.348,51.893 66.583,59.305 M 35.145,61.134 39.570,57.873 M 39.570,57.873 41.073,50.705 M 39.570,57.873 41.142,63.873 M 85.413,57.220 86.093,54.069 M 66.583,59.305 80.873,59.797 M 80.873,59.797 85.413,57.220 M 85.413,57.220 90.000,60.438 M 0.000,60.438 4.765,63.781 M 4.765,63.781 16.755,59.677 M 61.357,71.070 66.583,59.305 M 79.143,70.299 80.873,59.797 M 61.357,71.070 73.438,79.147 M 73.438,79.147 79.143,70.299 M 34.335,79.535 41.142,63.873 M 41.142,63.873 51.679,77.092 M 51.679,77.092 56.348,51.893 M 55.940,77.354 61.357,71.070 M 55.940,77.354 72.735,81.985 M 72.735,81.985 73.438,79.147 M 79.143,70.299 86.940,83.470 M 51.679,77.092 53.111,79.227 M 53.111,79.227 55.940,77.354 M 53.089,79.300 53.111,79.227 M 22.635,81.615 34.335,79.535 M 21.950,81.335 35.145,61.134 M 21.950,81.335 22.635,81.615 M 20.063,81.088 23.149,64.943 M 20.063,81.088 21.950,81.335 M 34.335,79.535 46.653,86.055 M 46.653,86.055 53.089,79.300 M 46.529,86.810 46.653,86.055 M 4.765,63.781 13.185,81.987 M 13.185,81.987 20.063,81.088 M 0.000,83.407 12.308,83.155 M 12.308,83.155 13.185,81.987 M 86.940,83.470 90.000,83.407 M 46.529,86.810 48.410,90.000 M 10.950,90.000 12.308,83.155 M 72.735,81.985 73.789,90.000 M 78.549,90.000 86.940,83.470 M 22.635,81.615 28.079,90.000 M 43.055,90.000 46.529,86.810 M 53.089,79.300 64.328,90.000 " />
    </pattern>
    <pattern
       patternUnits="userSpaceOnUse"
       patternTransform="translate(0.0,-2.35438346745e-06)"
       height="90.3532451232"
       width="90.3532371857"
       id="Voronoi2126">
      <path
         id="path2564"
         style="stroke:#000000;stroke-width:0.264583333328"
         d="M 44.975,0.000 45.176,0.548 M 39.615,3.856 45.176,0.548 M 45.176,0.548 53.048,1.871 M 53.048,1.871 55.065,0.000 M 53.048,1.871 53.436,3.791 M 73.803,0.000 75.728,1.612 M 75.728,1.612 76.759,0.000 M 29.116,0.000 39.615,3.856 M 12.364,4.021 14.019,0.000 M 37.151,16.557 39.615,3.856 M 12.364,4.021 23.200,15.620 M 23.200,15.620 37.151,16.557 M 41.148,18.425 53.436,3.791 M 37.151,16.557 38.013,17.498 M 38.013,17.498 41.148,18.425 M 75.728,1.612 83.152,13.777 M 0.000,11.901 12.364,4.021 M 83.152,13.777 86.301,14.484 M 86.301,14.484 87.015,16.514 M 87.015,16.514 87.419,22.661 M 81.817,34.888 87.419,22.661 M 41.148,18.425 56.046,26.283 M 38.993,34.769 56.046,26.283 M 53.436,3.791 61.413,24.839 M 61.413,24.839 83.152,13.777 M 33.229,33.528 38.013,17.498 M 33.229,33.528 38.993,34.769 M 56.046,26.283 60.150,26.618 M 60.150,26.618 61.413,24.839 M 22.479,33.284 23.200,15.620 M 0.000,18.997 20.156,33.983 M 20.156,33.983 22.479,33.284 M 87.015,16.514 90.353,18.997 M 22.479,33.284 27.772,35.524 M 27.772,35.524 33.229,33.528 M 27.772,35.524 29.060,41.932 M 74.989,42.734 81.817,34.888 M 29.060,41.932 31.030,46.913 M 60.150,26.618 61.943,38.817 M 18.370,49.567 29.060,41.932 M 10.160,43.673 20.156,33.983 M 10.160,43.673 18.370,49.567 M 31.030,46.913 44.804,46.957 M 38.993,34.769 44.804,46.957 M 44.804,46.957 44.971,47.066 M 44.971,47.066 61.943,38.817 M 61.943,38.817 64.452,42.185 M 64.452,42.185 74.989,42.734 M 0.000,29.697 6.322,44.856 M 6.322,44.856 10.160,43.673 M 87.419,22.661 90.353,29.697 M 64.386,48.243 64.452,42.185 M 44.876,53.123 44.971,47.066 M 0.000,45.127 3.073,48.812 M 3.073,48.812 6.322,44.856 M 81.817,34.888 90.353,45.127 M 64.386,48.243 80.265,57.215 M 80.265,57.215 89.461,51.509 M 74.989,42.734 89.461,51.509 M 0.000,51.537 1.246,51.575 M 1.246,51.575 3.073,48.812 M 89.461,51.509 90.353,51.537 M 77.963,60.319 80.265,57.215 M 62.607,56.585 64.386,48.243 M 62.607,56.585 71.880,62.175 M 71.880,62.175 77.963,60.319 M 44.876,53.123 50.334,60.842 M 71.880,62.175 72.190,67.821 M 50.334,60.842 56.882,62.401 M 56.882,62.401 62.607,56.585 M 72.190,67.821 81.619,68.662 M 77.963,60.319 81.619,68.662 M 18.370,49.567 27.258,60.790 M 27.258,60.790 31.030,46.913 M 27.258,60.790 27.303,61.195 M 27.303,61.195 44.876,53.123 M 56.882,62.401 57.756,67.353 M 81.619,68.662 84.154,71.059 M 76.489,75.055 84.154,71.059 M 42.169,75.861 57.756,67.353 M 0.000,72.258 0.875,72.427 M 84.154,71.059 90.353,72.258 M 0.000,73.332 0.875,72.427 M 76.489,75.055 82.371,81.581 M 82.371,81.581 90.353,73.332 M 34.659,72.181 50.334,60.842 M 34.659,72.181 39.689,75.949 M 39.689,75.949 42.169,75.861 M 67.818,77.721 72.190,67.821 M 67.818,77.721 76.489,75.055 M 0.875,72.427 9.168,71.174 M 1.246,51.575 9.168,71.174 M 25.151,70.443 27.303,61.195 M 25.151,70.443 34.659,72.181 M 42.169,75.861 63.693,81.039 M 57.756,67.353 63.693,81.039 M 63.693,81.039 63.893,81.294 M 63.893,81.294 67.818,77.721 M 63.893,81.294 63.955,82.107 M 9.168,71.174 16.526,76.077 M 16.526,76.077 25.151,70.443 M 39.689,75.949 44.975,90.353 M 55.065,90.353 63.955,82.107 M 63.955,82.107 73.803,90.353 M 76.759,90.353 82.371,81.581 M 16.001,85.536 16.526,76.077 M 16.001,85.536 29.116,90.353 M 14.019,90.353 16.001,85.536 M 86.301,14.484 90.353,11.901 M 31.490,0.000 31.490,0.000 " />
    </pattern>
    <pattern
       patternUnits="userSpaceOnUse"
       patternTransform="translate(0.000160318455288,0.000160210947143)"
       height="89.9996771232"
       width="89.9996771232"
       id="Voronoi8482-2">
      <path
         id="path2445-5"
         style="stroke:#000000;stroke-width:0.264583333328"
         d="M 48.410,0.000 50.438,3.438 M 10.872,0.391 10.950,0.000 M 10.872,0.391 11.072,1.670 M 73.789,0.000 74.230,3.361 M 74.230,3.361 78.549,0.000 M 50.438,3.438 50.859,11.507 M 28.079,0.000 33.674,8.615 M 33.674,8.615 43.055,0.000 M 50.438,3.438 70.749,6.114 M 64.328,0.000 70.749,6.114 M 11.072,1.670 22.114,13.048 M 70.749,6.114 72.901,7.377 M 72.901,7.377 74.230,3.361 M 22.114,13.048 32.611,13.044 M 32.611,13.044 33.146,12.806 M 33.146,12.806 33.674,8.615 M 72.901,7.377 73.589,10.429 M 73.589,10.429 90.000,4.391 M 33.146,12.806 39.124,17.382 M 39.124,17.382 50.859,11.507 M 73.565,11.132 73.589,10.429 M 0.000,4.391 10.872,0.391 M 68.221,18.330 73.565,11.132 M 0.000,19.441 4.020,21.473 M 4.020,21.473 11.072,1.670 M 73.565,11.132 90.000,19.441 M 50.859,11.507 65.204,19.924 M 65.204,19.924 68.221,18.330 M 39.124,17.382 42.436,25.683 M 4.020,21.473 5.323,23.696 M 61.369,24.779 65.204,19.924 M 42.436,25.683 60.473,25.661 M 60.473,25.661 61.369,24.779 M 5.323,23.696 10.209,26.818 M 10.209,26.818 22.114,13.048 M 61.369,24.779 72.556,39.899 M 0.000,28.069 5.323,23.696 M 68.221,18.330 80.031,36.261 M 80.031,36.261 90.000,28.069 M 72.556,39.899 79.641,40.132 M 79.641,40.132 80.031,36.261 M 10.209,26.818 16.570,36.254 M 16.570,36.254 19.856,37.124 M 19.856,37.124 32.611,13.044 M 57.406,43.600 60.473,25.661 M 57.406,43.600 72.556,39.899 M 19.856,37.124 29.769,43.458 M 29.769,43.458 34.567,44.517 M 34.567,44.517 42.436,25.683 M 53.662,49.704 57.406,43.600 M 16.755,59.677 29.769,43.458 M 53.662,49.704 56.348,51.893 M 16.755,59.677 23.149,64.943 M 34.567,44.517 41.073,50.705 M 41.073,50.705 53.662,49.704 M 23.149,64.943 35.145,61.134 M 0.000,50.671 16.570,36.254 M 79.641,40.132 86.093,54.069 M 86.093,54.069 90.000,50.671 M 56.348,51.893 66.583,59.305 M 35.145,61.134 39.570,57.873 M 39.570,57.873 41.073,50.705 M 39.570,57.873 41.142,63.873 M 85.413,57.220 86.093,54.069 M 66.583,59.305 80.873,59.797 M 80.873,59.797 85.413,57.220 M 85.413,57.220 90.000,60.438 M 0.000,60.438 4.765,63.781 M 4.765,63.781 16.755,59.677 M 61.357,71.070 66.583,59.305 M 79.143,70.299 80.873,59.797 M 61.357,71.070 73.438,79.147 M 73.438,79.147 79.143,70.299 M 34.335,79.535 41.142,63.873 M 41.142,63.873 51.679,77.092 M 51.679,77.092 56.348,51.893 M 55.940,77.354 61.357,71.070 M 55.940,77.354 72.735,81.985 M 72.735,81.985 73.438,79.147 M 79.143,70.299 86.940,83.470 M 51.679,77.092 53.111,79.227 M 53.111,79.227 55.940,77.354 M 53.089,79.300 53.111,79.227 M 22.635,81.615 34.335,79.535 M 21.950,81.335 35.145,61.134 M 21.950,81.335 22.635,81.615 M 20.063,81.088 23.149,64.943 M 20.063,81.088 21.950,81.335 M 34.335,79.535 46.653,86.055 M 46.653,86.055 53.089,79.300 M 46.529,86.810 46.653,86.055 M 4.765,63.781 13.185,81.987 M 13.185,81.987 20.063,81.088 M 0.000,83.407 12.308,83.155 M 12.308,83.155 13.185,81.987 M 86.940,83.470 90.000,83.407 M 46.529,86.810 48.410,90.000 M 10.950,90.000 12.308,83.155 M 72.735,81.985 73.789,90.000 M 78.549,90.000 86.940,83.470 M 22.635,81.615 28.079,90.000 M 43.055,90.000 46.529,86.810 M 53.089,79.300 64.328,90.000 " />
    </pattern>
  </defs>
  <g
     inkscape:label="Layer 1"
     inkscape:groupmode="layer"
     id="layer1"
     style="display:inline">
    <text
       xml:space="preserve"
       style="font-size:9.15228px;line-height:1.25;font-family:sans-serif;letter-spacing:0px;word-spacing:0px;fill:#0000ff;fill-opacity:1;stroke-width:6.8644;stroke-miterlimit:4;stroke-dasharray:none"
       x="-188.13188"
       y="37.719048"
       id="text37531-6"><tspan
         sodipodi:role="line"
         id="tspan37529-6"
         style="fill:#0000ff;fill-opacity:1;stroke-width:6.8644;stroke-miterlimit:4;stroke-dasharray:none"
         x="-188.13188"
         y="37.719048">=pass1:800mm/min:40%:#0000ff=</tspan></text>
    <text
       xml:space="preserve"
       style="font-size:9.15228px;line-height:1.25;font-family:sans-serif;letter-spacing:0px;word-spacing:0px;fill:#ff0000;fill-opacity:1;stroke-width:6.864;stroke-miterlimit:4;stroke-dasharray:none"
       x="-186.16101"
       y="64.841095"
       id="text37531-6-9"><tspan
         sodipodi:role="line"
         id="tspan37529-6-2"
         style="fill:#ff0000;fill-opacity:1;stroke-width:6.864;stroke-miterlimit:4;stroke-dasharray:none"
         x="-186.16101"
         y="64.841095">=pass2:800mm/min:40%:#ff0000=</tspan></text>
    <text
       xml:space="preserve"
       style="font-size:9.15228px;line-height:1.25;font-family:sans-serif;letter-spacing:0px;word-spacing:0px;display:inline;fill:#00ff00;fill-opacity:1;stroke-width:6.8642"
       x="-192.17204"
       y="92.968636"
       id="text37531-6-2"><tspan
         sodipodi:role="line"
         id="tspan37529-6-1"
         style="fill:#00ff00;fill-opacity:1;stroke-width:6.8642"
         x="-192.17204"
         y="92.968636">=pass3:800mm/min:20%:#00ff00=</tspan></text>
    <g
       id="g17861"
       transform="rotate(-45,32.00865,50.589983)">
      <path
         id="rect7802-9"
         style="display:inline;fill:none;fill-opacity:1;stroke:none;stroke-width:0.299341;stroke-miterlimit:4;stroke-dasharray:none;stroke-opacity:1"
         d="m 75.701395,84.803568 -5.590883,-5.590883 9.176403,-1.13e-4 2.7e-5,-2.12299 -10.677795,1.36e-4 -0.621596,6e-6 -3.199813,-3.199814 9.176397,-1.17e-4 2.9e-5,-2.122989 -10.677799,1.32e-4 -0.621595,6e-6 -11.986415,-11.986414 a 6.7573228,6.5682829 45 0 0 0.496946,-0.836428 6.5682007,6.7574079 89.974673 0 0 0.711793,-2.073129 l 16.935765,-5.58e-4 7.990144,7.990144 1.501071,-1.501071 -6.489111,-6.489112 4.525357,-5.8e-5 7.990151,7.990151 1.501071,-1.501071 -6.489112,-6.489112 7.907252,-10e-5 2.8e-5,-2.122989 -7.90657,9.7e-5 6.488932,-6.488931 -1.501379,-1.501379 -7.990345,7.990345 -4.525358,5.9e-5 6.489275,-6.489276 -1.501032,-1.501032 -7.990346,7.990347 -16.951135,2.15e-4 a 6.5682007,6.7574079 89.974673 0 0 -0.266727,-1.017435 6.568118,6.7574924 45 0 0 -0.935451,-1.895861 l 11.974419,-11.974419 3.5e-4,-3.5e-4 11.299733,2.01e-4 2.9e-5,-2.12299 -9.176745,-2.28e-4 3.199554,-3.199554 3.49e-4,-3.49e-4 11.299718,2.15e-4 2.8e-5,-2.122989 -9.176745,-2.28e-4 5.591023,-5.591022 -1.501033,-1.501032 -5.591022,5.591022 -2.28e-4,-9.176745 -2.122989,2.8e-5 -1.33e-4,10.677799 -8e-6,0.622277 -3.199554,3.199554 -2.28e-4,-9.176746 -2.12299,2.9e-5 -1.32e-4,10.677798 -9e-6,0.622278 -11.986032,11.986032 a 6.568118,6.7574924 45 0 0 -0.903358,-0.52835 6.5682007,6.7574079 0.025327 0 0 -2.006855,-0.681678 l 2.11e-4,-16.934061 7.990345,-7.990345 -1.501378,-1.501379 -6.489275,6.489275 5.8e-5,-4.525358 7.990346,-7.990346 -1.501032,-1.501032 -6.489273,6.489273 9.9e-5,-7.90725 -2.12299,2.9e-5 -9.7e-5,7.90657 -6.488773,-6.488773 -1.501413,1.501413 7.990144,7.990144 -5.7e-5,4.525357 -6.488773,-6.488772 -1.501073,1.501073 7.989805,7.989804 -2.12e-4,16.950452 A 6.5682007,6.7574079 0.025327 0 0 43.105259,49.418412 6.7573228,6.5682829 45 0 0 41.210057,50.3539 L 29.23594,38.379782 l 3.48e-4,-0.621938 -3.46e-4,-3.46e-4 1.3e-4,-10.677797 -2.122987,2.7e-5 -1.13e-4,9.177086 -3.199814,-3.199814 3.48e-4,-0.621937 -2.08e-4,-10.678137 -2.122995,2e-5 -1.13e-4,9.177087 -5.591221,-5.591221 -1.501072,1.501072 5.591221,5.591221 -9.177086,1.12e-4 -2.1e-5,2.122997 11.300414,1.98e-4 3.199474,3.199475 -9.177085,1.12e-4 -2.9e-5,2.122989 11.300422,2.06e-4 11.982992,11.982992 a 6.7573228,6.5682829 45 0 0 -0.567981,0.985343 6.5682007,6.7574079 89.974673 0 0 -0.638697,1.92764 l -16.934751,2.08e-4 -0.439891,-0.439891 -7.550592,-7.550592 -1.501413,1.501413 6.489112,6.489112 -4.525358,5.8e-5 -0.439552,-0.439552 -7.5505991,-7.550599 -1.5010703,1.50107 6.4891114,6.489112 -7.9072515,1.01e-4 -2.05e-5,2.122995 7.90725,-9.9e-5 -6.4892726,6.489273 1.5010322,1.501032 7.9903444,-7.990345 4.525358,-5.8e-5 -6.488934,6.488934 1.501032,1.501032 7.990006,-7.990006 16.95114,-2.06e-4 a 6.5682007,6.7574079 89.974673 0 0 0.268089,1.020161 6.568118,6.7574924 45 0 0 0.934083,1.893127 l -11.974421,11.974421 -0.621595,6e-6 -10.678477,1.33e-4 -3.1e-5,2.122991 9.177088,-1.15e-4 -3.199896,3.199896 -0.621596,7e-6 -10.678479,1.34e-4 -2.9e-5,2.12299 9.177088,-1.15e-4 -5.591365,5.591365 1.501372,1.501371 5.591365,-5.591364 -4.54e-4,9.176748 2.122989,-2.8e-5 4.74e-4,-10.67814 7e-6,-0.621596 3.199895,-3.199896 -4.54e-4,9.176748 2.122992,-3e-5 4.71e-4,-10.678138 7e-6,-0.621595 11.983982,-11.983983 a 6.568118,6.7574924 45 0 0 0.983964,0.567966 6.5682007,6.7574079 0.025327 0 0 1.928306,0.638647 l -2.16e-4,16.935424 -0.439563,0.439562 -7.550783,7.550783 1.501039,1.50104 6.489276,-6.489276 -5.9e-5,4.525359 -0.439563,0.439563 -7.550783,7.550782 1.501032,1.501032 6.489274,-6.489273 -1e-4,7.907251 2.12299,-2.9e-5 9.9e-5,-7.907251 6.489119,6.489119 1.501071,-1.50107 -7.550593,-7.550592 -0.439551,-0.439552 5.9e-5,-4.525359 6.489112,6.489112 1.501071,-1.501071 -7.550592,-7.550593 -0.439552,-0.439551 2.11e-4,-16.951824 a 6.5682007,6.7574079 0.025327 0 0 1.058081,-0.278708 6.7573228,6.5682829 45 0 0 1.854903,-0.92319 l 11.974797,11.974796 -9e-6,0.621598 -4.73e-4,10.678139 2.12299,-2.9e-5 4.6e-4,-9.17674 3.199813,3.199814 -8e-6,0.621598 -4.77e-4,10.678135 2.122992,-2.7e-5 4.54e-4,-9.176745 5.590884,5.590883 z M 47.486636,58.123191 a 3.2594996,3.3534784 45 0 1 -0.861757,0.628073 3.2595404,3.3534363 89.974669 0 1 -1.434274,0.315589 3.2595404,3.3534363 89.974669 0 1 -1.059242,-0.167235 3.3533943,3.2595814 45 0 1 -1.231216,-0.788507 3.3533943,3.2595814 45 0 1 -0.622696,-0.850632 3.2595404,3.3534363 0.025331 0 1 -0.32111,-1.445172 3.2595404,3.3534363 0.025331 0 1 0.179196,-1.096271 3.2594996,3.3534784 45 0 1 0.777219,-1.194822 3.2594996,3.3534784 45 0 1 0.894675,-0.644939 3.2595404,3.3534363 89.974669 0 1 2.11e-4,-2.11e-4 3.2594996,3.3534784 45 0 1 0.03063,-0.0138 3.2595404,3.3534363 89.974669 0 1 1.36968,-0.284313 3.2595404,3.3534363 89.974669 0 1 1.062122,0.168469 3.3533943,3.2595814 45 0 1 1.229157,0.787682 3.3533943,3.2595814 45 0 1 0.631749,0.870796 3.2595404,3.3534363 0.025331 0 1 0.311442,1.424392 3.2595404,3.3534363 0.025331 0 1 -0.201827,1.153875 3.2594996,3.3534784 45 0 1 -0.753972,1.137012 z" />
      <path
         style="display:inline;fill:none;stroke:none;stroke-width:0.299341;stroke-miterlimit:4;stroke-dasharray:none;stroke-opacity:1"
         d="m 40.819894,11.086008 a 5.7874002,5.7875446 45 0 1 -1.407191,-3.7827466 5.7874002,5.7875446 45 0 1 5.787316,-5.7873161 5.7874002,5.7875446 45 0 1 5.78743,5.7871724 5.7874002,5.7875446 45 0 1 -1.412708,3.7820113 44.969324,44.970446 45 0 0 -4.374838,-0.239825 44.969324,44.970446 45 0 0 -4.380009,0.240704 z"
         id="path13525-2" />
      <path
         style="display:inline;fill:none;stroke:none;stroke-width:0.299341;stroke-miterlimit:4;stroke-dasharray:none;stroke-opacity:1"
         d="M 45.198782,100.785 A 44.969324,44.970446 45 0 0 90.169321,55.814465 44.969324,44.970446 45 0 0 51.319201,11.281861 7.3031477,7.3033299 45 0 0 52.503144,7.303106 7.3031477,7.3033299 45 0 0 45.20004,7.3065745e-7 7.3031477,7.3033299 45 0 0 37.896758,7.3032826 7.3031477,7.3033299 45 0 0 39.076723,11.282269 44.969324,44.970446 45 0 0 0.22962317,55.815583 44.969324,44.970446 45 0 0 45.198782,100.785 Z"
         id="path17741-7" />
      <g
         id="g4919">
        <path
           style="display:inline;fill:none;stroke:#0000ff;stroke-width:0.302607;stroke-miterlimit:4;stroke-dasharray:none;stroke-opacity:1"
           d="m 40.649337,11.297139 a 5.7600867,5.7601392 45 0 1 -1.400572,-3.7648712 5.7600867,5.7601392 45 0 1 5.75991,-5.7599104 5.7600867,5.7601392 45 0 1 5.760114,5.7598575 5.7600867,5.7601392 45 0 1 -1.405995,3.7641111 44.757093,44.757501 45 0 0 -4.354162,-0.238722 44.757093,44.757501 45 0 0 -4.359295,0.239535 z"
           id="path13525-0-0" />
        <path
           style="display:inline;fill:none;stroke:#ff0000;stroke-width:0.302607;stroke-miterlimit:4;stroke-dasharray:none;stroke-opacity:1"
           d="M 45.008226,100.57213 A 44.757093,44.757501 45 0 0 89.765819,55.814535 44.757093,44.757501 45 0 0 51.099004,11.492145 7.2686807,7.268747 45 0 0 52.277314,7.5322036 7.2686807,7.268747 45 0 0 45.00868,0.26357012 7.2686807,7.268747 45 0 0 37.739984,7.5322664 7.2686807,7.268747 45 0 0 38.91441,11.492454 44.757093,44.757501 45 0 0 0.25130236,55.814933 44.757093,44.757501 45 0 0 45.008226,100.57213 Z"
           id="path17741-9-0" />
      </g>
      <path
         style="fill:none;stroke:#00ff00;stroke-width:0.264583px;stroke-linecap:butt;stroke-linejoin:miter;stroke-opacity:1"
         d="m 0.43201128,60.077895 c 0,0 28.44943472,10.578857 43.72045772,10.901689 15.271022,0.322832 45.287966,-9.206334 45.287966,-9.206334"
         id="path2907"
         sodipodi:nodetypes="czc" />
      <path
         style="display:inline;fill:none;stroke:#00ff00;stroke-width:0.264583px;stroke-linecap:butt;stroke-linejoin:miter;stroke-opacity:1"
         d="m 4.0988556,37.727833 c 0,0 25.5390214,9.388235 40.8100444,9.711067 15.271022,0.322831 41.802911,-7.763526 41.802911,-7.763526"
         id="path2907-8"
         sodipodi:nodetypes="csc" />
      <path
         style="display:inline;fill:none;stroke:#00ff00;stroke-width:0.197602px;stroke-linecap:butt;stroke-linejoin:miter;stroke-opacity:1"
         d="m 15.683727,24.058442 c -0.09976,0.311008 -0.42485,0.484373 -0.72634,0.387145 -0.30149,-0.09723 -0.464443,-0.427983 -0.364192,-0.73884 0.100251,-0.310858 0.425546,-0.484156 0.726341,-0.387147 0.300794,0.09701 0.46395,0.427833 0.364191,0.738842 z m 4.89678,1.579205 c -0.09755,0.311696 -0.420848,0.485618 -0.722338,0.388391 -0.301489,-0.09723 -0.466234,-0.428541 -0.368194,-0.740086 0.09804,-0.311546 0.421544,-0.485402 0.722338,-0.388393 0.300795,0.09701 0.465742,0.428391 0.368194,0.740088 z m 4.89678,1.579205 c -0.09534,0.312384 -0.416846,0.486864 -0.718335,0.389636 -0.30149,-0.09723 -0.468027,-0.429098 -0.372197,-0.741331 0.09583,-0.312234 0.417541,-0.486647 0.718335,-0.389638 0.300795,0.09701 0.467534,0.428948 0.372197,0.741333 z m 4.96572,1.350247 c -0.08241,0.315988 -0.398683,0.509339 -0.707539,0.430004 -0.308823,-0.07933 -0.48819,-0.399969 -0.402526,-0.715091 0.08567,-0.315133 0.402696,-0.505774 0.706945,-0.427635 0.304215,0.07813 0.485529,0.396744 0.40312,0.712722 z m 5.015346,1.149237 c -0.06539,0.320085 -0.370628,0.528156 -0.683263,0.462424 -0.312602,-0.06572 -0.50775,-0.378953 -0.438239,-0.698049 0.06951,-0.319108 0.375798,-0.523712 0.682584,-0.459288 0.306753,0.06442 0.504304,0.374838 0.438918,0.694913 z m 5.072906,0.877785 c -0.0429,0.323854 -0.333526,0.552921 -0.651704,0.507414 -0.318012,-0.04548 -0.532717,-0.346807 -0.48315,-0.669897 0.04957,-0.323143 0.342255,-0.545902 0.651018,-0.501571 0.308598,0.04431 0.52673,0.340253 0.483836,0.664054 z m 5.126488,0.372839 c -0.0016,0.326424 -0.261283,0.590606 -0.585109,0.584059 -0.0044,-8.9e-5 -0.0089,-2.31e-4 -0.01328,-4.25e-4 0,0 -1e-6,0 -1e-6,0 -0.318523,-0.0143 -0.55901,-0.286601 -0.547067,-0.607575 0.01194,-0.320972 0.268135,-0.573821 0.572064,-0.574865 0,0 0,0 0,0 0.0043,-10e-6 0.0086,3.1e-5 0.01285,1.22e-4 0.308977,0.0066 0.562136,0.272208 0.560543,0.598684 z m 5.133792,-0.28439 c 0.03456,0.32503 -0.19381,0.616069 -0.513378,0.646899 -0.319731,0.03085 -0.599586,-0.21118 -0.627723,-0.536652 -0.02813,-0.325419 0.203283,-0.611153 0.513779,-0.64127 0.31066,-0.03013 0.592761,0.20594 0.627322,0.531023 z m 5.099336,-0.707251 c 0.05305,0.322311 -0.157698,0.625553 -0.472614,0.675707 -0.314948,0.05016 -0.609486,-0.172634 -0.659128,-0.495528 -0.04964,-0.322884 0.163013,-0.623354 0.473109,-0.672719 0.310127,-0.04937 0.605585,0.170218 0.658633,0.49254 z m 5.058346,-0.943167 c 0.06608,0.319942 -0.132076,0.631428 -0.444077,0.694573 -0.312032,0.06315 -0.615729,-0.146775 -0.679228,-0.467228 -0.0635,-0.320443 0.136169,-0.629888 0.444522,-0.69231 0.308384,-0.06243 0.612703,0.145013 0.678783,0.464965 z m 5.022919,-1.119359 c 0.07554,0.317825 -0.113178,0.634975 -0.422632,0.707548 -0.191536,0.04492 -0.393224,-0.01439 -0.534418,-0.15702 -0.07838,-0.07918 -0.13339,-0.179389 -0.158718,-0.288859 -0.02533,-0.109463 -0.01993,-0.223657 0.01542,-0.329194 0.06367,-0.190088 0.217385,-0.332079 0.407603,-0.376688 0.306769,-0.07194 0.617208,0.126387 0.692745,0.444213 z m 4.990456,-1.255265 c 0.08375,0.315763 -0.09667,0.637687 -0.404052,0.718286 -0.307386,0.0806 -0.622555,-0.111377 -0.70452,-0.427608 -0.08196,-0.316231 0.0996,-0.636786 0.404461,-0.716725 0.304867,-0.07994 0.620365,0.110282 0.704111,0.426047 z m 4.956147,-1.384463 c 0.08825,0.297346 -0.06159,0.610288 -0.344678,0.716326 0,0 -10e-7,0 -10e-7,0 -0.01301,0.0049 -0.0262,0.0093 -0.03954,0.01315 -0.305514,0.08906 -0.62572,-0.09458 -0.715971,-0.408536 -0.09026,-0.313973 0.08274,-0.63912 0.384877,-0.7272 0.01323,-0.0039 0.0266,-0.0072 0.04009,-0.01008 0,0 0,0 0,0 0.292084,-0.06192 0.587029,0.119182 0.675223,0.41634 z"
         id="path2907-8-3"
         sodipodi:nodetypes="csc"
         inkscape:original-d="m 14.593157,23.706732 c 0,0 19.073638,7.011537 30.478694,7.252642 11.405055,0.241104 31.22021,-5.798134 31.22021,-5.798134"
         inkscape:path-effect="#path-effect4441" />
      <path
         style="display:inline;fill:none;stroke:#00ff00;stroke-width:0.208155px;stroke-linecap:butt;stroke-linejoin:miter;stroke-opacity:1"
         d="m 17.841137,82.195332 c -0.451518,1.435868 -2.009565,2.215533 -3.48482,1.73982 -1.475255,-0.475711 -2.292726,-2.021434 -1.830697,-3.45408 0.46203,-1.432647 2.024397,-2.210871 3.484821,-1.739824 1.460424,0.471048 2.282215,2.018216 1.830696,3.454084 z m 7.27639,2.307756 c -0.238617,0.803236 -0.844262,1.453358 -1.654595,1.758536 -0.578996,0.208545 -1.218448,0.217153 -1.815212,0.02472 -1.475255,-0.475711 -2.304358,-2.025054 -1.856678,-3.462164 0.44768,-1.437112 1.998416,-2.218956 3.458839,-1.747908 0.592418,0.191079 1.107808,0.572125 1.464625,1.082471 0.488058,0.67677 0.641258,1.542388 0.403021,2.344346 z m 7.398647,1.882841 c -0.33299,1.468188 -1.840886,2.38348 -3.39199,1.999332 -1.54785,-0.383341 -2.436957,-1.890269 -2.030727,-3.338608 0.406542,-1.449451 1.931125,-2.300065 3.37816,-1.942055 1.443726,0.357191 2.37729,1.814266 2.044557,3.281331 z m 7.511508,1.373715 c -0.192873,1.494022 -1.624439,2.545174 -3.23059,2.265774 -1.409514,-0.245194 -2.376586,-1.440269 -2.329079,-2.775481 0.0052,-0.146369 0.02256,-0.291936 0.05183,-0.435323 0.02927,-0.143387 0.07032,-0.284128 0.122582,-0.420902 0.477925,-1.249786 1.79856,-1.97013 3.091281,-1.744567 1.437017,0.25074 2.486135,1.622031 2.293979,3.110499 z m 7.613467,0.311735 c 0.07674,1.498056 -1.139766,2.801333 -2.831842,2.778837 -0.07837,-0.001 -0.156713,-0.0051 -0.234801,-0.01217 -1.592859,-0.151488 -2.632627,-1.444548 -2.510614,-2.857713 0.122205,-1.415395 1.312602,-2.491511 2.625492,-2.576353 0.06765,-0.004 0.135427,-0.0054 0.203227,-0.0042 1.392808,0.02449 2.671524,1.168118 2.748538,2.671591 z m 7.586217,-0.857959 c 0.07741,0.490237 0.01613,0.992619 -0.182766,1.453397 -0.380375,0.886821 -1.222698,1.521322 -2.228526,1.653053 -1.607926,0.210587 -2.995869,-0.893822 -3.13162,-2.394598 -0.135259,-1.49533 0.968271,-2.825901 2.423107,-3.016356 0.937258,-0.122698 1.890337,0.241624 2.509265,0.974483 0.320197,0.380583 0.533155,0.839977 0.61054,1.330021 z m 7.502364,-1.412299 c 0.333204,1.46701 -0.629292,2.927294 -2.189978,3.234636 -1.563794,0.307954 -3.026485,-0.676592 -3.291165,-2.158606 -0.264487,-1.480943 0.736807,-2.893322 2.200174,-3.181221 1.466525,-0.288522 2.947524,0.637117 3.280969,2.105191 z m 7.408088,-1.841058 c 0.380855,1.456016 -0.523771,2.956436 -2.030881,3.353967 -0.703428,0.185544 -1.445796,0.09925 -2.069015,-0.241432 -0.66409,-0.373976 -1.132982,-0.994054 -1.307421,-1.714878 -0.174233,-0.719976 -0.04006,-1.47842 0.362719,-2.098431 0.382897,-0.606031 0.98231,-1.046209 1.674902,-1.228851 1.475545,-0.389113 2.988841,0.473608 3.369696,1.929625 z m 7.381593,-1.94682 c -0.0013,-0.0045 -0.0025,-0.0089 0.0068,0.02416 0,10e-7 0,10e-7 0,10e-7 0,0 0,1e-6 0,1e-6 0,0 10e-7,2e-6 10e-7,2e-6 0,0 0,10e-7 0,10e-7 0,0 10e-7,2e-6 10e-7,2e-6 0,1e-6 0,1e-6 0,2e-6 0,0 0,10e-7 0,10e-7 0,0 10e-7,2e-6 10e-7,2e-6 0,0 0,10e-7 0,10e-7 0,0 0,1e-6 0,1e-6 0,-1e-6 0,0 0,0 0,0 10e-7,0 10e-7,0 0,0 0,10e-7 0,10e-7 0,0 0,0 0,0 0,0 0,0 0,0 0,0 0,10e-7 0,10e-7 0,0 0,0 0,0 0,0 0,0 0,0 0,0 0,10e-7 0,10e-7 0,0 0,0 0,0 0,0 0,0 0,0 0,0 1e-6,10e-7 1e-6,10e-7 0,0 0,0 0,0 0,0 0,0 0,0 0,0 0,1e-6 0,1e-6 0,0 0,0 0,0 0,0 0,0 0,0 0,0 0,10e-7 0,10e-7 0,0 0,0 0,0 0,0 0,10e-7 0,10e-7 0.394997,1.441956 -0.485187,2.920048 -1.98241,3.314971 -1.507109,0.397532 -3.035866,-0.460967 -3.424917,-1.914825 -0.389052,-1.45386 0.500111,-2.95006 1.975656,-3.339172 1.466007,-0.386598 2.995622,0.455935 3.417937,1.890687 0,0 10e-7,0 10e-7,0 0,0 0,0 0,0 0,10e-7 0,10e-7 0,10e-7 0,0 0,0 0,0 0,0 0,0 0,0 0,0 0,10e-7 0,10e-7 0,0 0,0 0,0 0,0 0,0 0,0 0,0 0,10e-7 0,10e-7 0,0 10e-7,0 10e-7,0 0,0 0,1e-6 0,1e-6 0,0 0,0 0,0 0,0 0,0 0,0 0,0 0,10e-7 0,10e-7 0,0 0,0 0,0 0,0 0,0 0,0 0,0 0,10e-7 0,10e-7 0,0 0,0 0,0 0,0 0,0 0,0 0,0 10e-7,10e-7 10e-7,10e-7 0,0 0,0 0,0 0,0 0,10e-7 0,10e-7 0,10e-7 0,2e-6 10e-7,2e-6 0,10e-7 0,10e-7 0,2e-6 0,0 0,10e-7 0,10e-7 0,0 10e-7,2e-6 10e-7,2e-6 0,0 0,2e-6 0,2e-6 0,0 1e-6,10e-7 1e-6,10e-7 0,0 0,10e-7 0,10e-7 0,0 0,10e-7 0,10e-7 0.0095,0.03301 0.0082,0.02859 0.0069,0.02414 z"
         id="path2907-8-4"
         sodipodi:nodetypes="csc"
         inkscape:path-effect="#path-effect4738"
         inkscape:original-d="m 12.525584,80.481057 c 0,0 20.092236,7.385977 32.106361,7.639958 12.014125,0.25398 32.887477,-6.107775 32.887477,-6.107775" />
      <path
         sodipodi:type="star"
         style="fill:none;stroke:#0000ff;stroke-width:1.13386"
         id="path3333"
         inkscape:flatsided="false"
         sodipodi:sides="6"
         sodipodi:cx="112.83534"
         sodipodi:cy="565.38361"
         sodipodi:r1="38.606377"
         sodipodi:r2="14.477391"
         sodipodi:arg1="-1.8325957"
         sodipodi:arg2="-1.3089969"
         inkscape:rounded="0"
         inkscape:randomized="0"
         transform="matrix(-0.18708867,0.18708867,-0.18708867,-0.18708867,161.0627,143.37132)"
         inkscape:transform-center-y="-1.884612e-06"
         d="m 102.84328,528.09271 13.73909,23.30681 23.5518,-13.31474 -13.31474,23.5518 23.30681,13.73909 -27.05384,0.245 -0.24499,27.05383 -13.73909,-23.30681 -23.551809,13.31475 13.314745,-23.55181 -23.30681,-13.73909 27.053834,-0.245 z" />
      <path
         sodipodi:type="star"
         style="display:inline;fill:none;stroke:#0000ff;stroke-width:1.13386"
         id="path3333-1"
         inkscape:flatsided="false"
         sodipodi:sides="6"
         sodipodi:cx="112.83534"
         sodipodi:cy="565.38361"
         sodipodi:r1="38.606377"
         sodipodi:r2="14.477391"
         sodipodi:arg1="-1.8325957"
         sodipodi:arg2="-1.3089969"
         inkscape:rounded="0"
         inkscape:randomized="0"
         transform="matrix(-0.11982131,0.11982131,-0.11982131,-0.11982131,98.849774,109.05538)"
         d="m 102.84328,528.09271 13.73909,23.30681 23.5518,-13.31474 -13.31474,23.5518 23.30681,13.73909 -27.05384,0.245 -0.24499,27.05383 -13.73909,-23.30681 -23.551809,13.31475 13.314745,-23.55181 -23.30681,-13.73909 27.053834,-0.245 z" />
      <path
         sodipodi:type="star"
         style="display:inline;fill:none;stroke:#0000ff;stroke-width:1.13386"
         id="path3333-1-1"
         inkscape:flatsided="false"
         sodipodi:sides="6"
         sodipodi:cx="112.83534"
         sodipodi:cy="565.38361"
         sodipodi:r1="38.606377"
         sodipodi:r2="14.477391"
         sodipodi:arg1="-1.8325957"
         sodipodi:arg2="-1.3089969"
         inkscape:rounded="0"
         inkscape:randomized="0"
         transform="matrix(-0.11982131,0.11982131,-0.11982131,-0.11982131,151.97773,109.05538)"
         d="m 102.84328,528.09271 13.73909,23.30681 23.5518,-13.31474 -13.31474,23.5518 23.30681,13.73909 -27.05384,0.245 -0.24499,27.05383 -13.73909,-23.30681 -23.551809,13.31475 13.314745,-23.55181 -23.30681,-13.73909 27.053834,-0.245 z" />
      <path
         sodipodi:type="star"
         style="display:inline;fill:none;stroke:#0000ff;stroke-width:1.13386"
         id="path3333-1-1-0"
         inkscape:flatsided="false"
         sodipodi:sides="6"
         sodipodi:cx="112.83534"
         sodipodi:cy="565.38361"
         sodipodi:r1="38.606377"
         sodipodi:r2="14.477391"
         sodipodi:arg1="-1.8325957"
         sodipodi:arg2="-1.3089969"
         inkscape:rounded="0"
         inkscape:randomized="0"
         transform="matrix(-0.06944452,0.06944452,-0.06944452,-0.06944452,128.53429,83.356035)"
         d="m 102.84328,528.09271 13.73909,23.30681 23.5518,-13.31474 -13.31474,23.5518 23.30681,13.73909 -27.05384,0.245 -0.24499,27.05383 -13.73909,-23.30681 -23.551809,13.31475 13.314745,-23.55181 -23.30681,-13.73909 27.053834,-0.245 z" />
      <path
         sodipodi:type="star"
         style="display:inline;fill:none;stroke:#0000ff;stroke-width:1.13386"
         id="path3333-1-1-0-9"
         inkscape:flatsided="false"
         sodipodi:sides="6"
         sodipodi:cx="112.83534"
         sodipodi:cy="565.38361"
         sodipodi:r1="38.606377"
         sodipodi:r2="14.477391"
         sodipodi:arg1="-1.8325957"
         sodipodi:arg2="-1.3089969"
         inkscape:rounded="0"
         inkscape:randomized="0"
         transform="matrix(-0.06944452,0.06944452,-0.06944452,-0.06944452,53.960222,83.356035)"
         d="m 102.84328,528.09271 13.73909,23.30681 23.5518,-13.31474 -13.31474,23.5518 23.30681,13.73909 -27.05384,0.245 -0.24499,27.05383 -13.73909,-23.30681 -23.551809,13.31475 13.314745,-23.55181 -23.30681,-13.73909 27.053834,-0.245 z" />
      <path
         sodipodi:type="star"
         style="fill:none;stroke:#0000ff;stroke-width:1.13386"
         id="path3821"
         inkscape:flatsided="false"
         sodipodi:sides="6"
         sodipodi:cx="112.83534"
         sodipodi:cy="565.38361"
         sodipodi:r1="38.606377"
         sodipodi:r2="14.477391"
         sodipodi:arg1="-1.8325957"
         sodipodi:arg2="-1.3089969"
         inkscape:rounded="0"
         inkscape:randomized="0"
         transform="matrix(-0.18708867,0.18708867,-0.18708867,-0.18708867,181.0088,143.37132)"
         inkscape:transform-center-y="-1.884612e-06"
         d="m 102.84328,528.09271 13.73909,23.30681 23.5518,-13.31474 -13.31474,23.5518 23.30681,13.73909 -27.05384,0.245 -0.24499,27.05383 -13.73909,-23.30681 -23.551809,13.31475 13.314745,-23.55181 -23.30681,-13.73909 27.053834,-0.245 z" />
    </g>
    <g
       id="g17843"
       transform="matrix(0.86778843,-0.47796084,0.50101789,0.82785247,-9.8544624,65.909768)">
      <path
         style="display:inline;fill:none;stroke:#0000ff;stroke-width:0.302607;stroke-miterlimit:4;stroke-dasharray:none;stroke-opacity:1"
         d="m 131.54934,11.184872 a 5.7600867,5.7601392 45 0 1 -1.40057,-3.7648708 5.7600867,5.7601392 45 0 1 5.75991,-5.7599104 5.7600867,5.7601392 45 0 1 5.76011,5.7598575 5.7600867,5.7601392 45 0 1 -1.406,3.7641107 44.757093,44.757501 45 0 0 -4.35416,-0.238722 44.757093,44.757501 45 0 0 -4.35929,0.239535 z"
         id="path13525-0-0-3" />
      <path
         style="display:inline;fill:none;stroke:#ff0000;stroke-width:0.302607;stroke-miterlimit:4;stroke-dasharray:none;stroke-opacity:1"
         d="m 135.90823,100.45986 a 44.757093,44.757501 45 0 0 44.75759,-44.757592 44.757093,44.757501 45 0 0 -38.66682,-44.32239 7.2686807,7.268747 45 0 0 1.17831,-3.959941 7.2686807,7.268747 45 0 0 -7.26863,-7.2686335 7.2686807,7.268747 45 0 0 -7.2687,7.2686963 7.2686807,7.268747 45 0 0 1.17443,3.9601872 44.757093,44.757501 45 0 0 -38.663107,44.322479 44.757093,44.757501 45 0 0 44.756927,44.757194 z"
         id="path17741-9-0-0" />
      <path
         id="path5957"
         style="fill:none;stroke:#0000ff;stroke-width:1.39129"
         d="m 562.40234,347.82031 -23.29101,-26.23242 -39.47071,33.78906 a 145.34147,145.34148 0 0 0 14.375,0.75391 145.34147,145.34148 0 0 0 48.38672,-8.31055 z"
         transform="scale(0.26458333)" />
      <path
         id="path6590"
         style="fill:none;stroke:#0000ff;stroke-width:1.39129"
         d="m 634.77344,291.63867 -59.39063,12.19336 6.60352,35.41211 a 145.34147,145.34148 0 0 0 52.78711,-47.60547 z"
         transform="scale(0.26458333)" />
      <path
         id="path6588"
         style="fill:none;stroke:#0000ff;stroke-width:1.39129"
         d="m 499.64062,355.37695 39.47071,-33.78906 23.29101,26.23242 m 19.58399,-8.57617 -6.60352,-35.41211 59.39063,-12.19336 m 4.18945,-6.63476 -60.82227,-21.46094 23.81836,-71.60938 -57.33007,49.07618 -50.10743,-56.43165 13.83594,74.1875 -73.92578,15.17774 71.16797,25.11133 -18.16602,54.61914"
         transform="scale(0.26458333)"
         sodipodi:nodetypes="ccccccccccccccc" />
      <path
         id="path6586"
         style="fill:none;stroke:#0000ff;stroke-width:1.39129"
         d="m 633.33203,127.86719 -8.31836,10.25195 24.73828,20.82813 a 145.34147,145.34148 0 0 0 -16.41992,-31.08008 z"
         transform="scale(0.26458333)" />
      <path
         id="path6604"
         style="fill:none;stroke:#0000ff;stroke-width:1.39129"
         d="m 604.00586,96.710938 9.83398,25.697262 12.0586,-4.36523 A 145.34147,145.34148 0 0 0 604.00586,96.710938 Z"
         transform="scale(0.26458333)" />
      <path
         id="path6602"
         style="fill:none;stroke:#0000ff;stroke-width:1.39129"
         d="m 625.89844,118.04297 -12.0586,4.36523 -9.83398,-25.697262 c -1.29004,-1.029356 -2.59753,-2.036663 -3.92188,-3.021485 l -5.4375,30.539067 -35.58007,-5.67383 27.56054,23.20703 -22.70312,27.97656 33.87695,-12.26562 12.87695,33.65039 6.31641,-35.47071 L 650.54297,161 c -0.25849,-0.68623 -0.52217,-1.37049 -0.79102,-2.05273 l -24.73828,-20.82813 8.31836,-10.25195"
         transform="scale(0.26458333)"
         sodipodi:nodetypes="ccccccccccccccc" />
      <path
         style="fill:none;stroke:#0000ff;stroke-width:1.39129"
         d="m 514.01562,65.447266 a 145.34147,145.34148 0 0 0 -3.46679,0.195312 l -36.69727,40.396482 32.4668,54.82617 -58.0957,-26.17187 -42.11133,47.81836 6.93945,-63.33984 -8.49609,-3.66993 a 145.34147,145.34148 0 0 0 -35.88086,95.28711 145.34147,145.34148 0 0 0 118.75976,142.88477 l 18.16602,-54.61914 -71.16797,-25.11133 73.92578,-15.17774 -13.83594,-74.1875 50.10743,56.43165 57.33007,-49.07618 -23.81836,71.60938 60.82227,21.46094 A 145.34147,145.34148 0 0 0 659.35742,210.78906 145.34147,145.34148 0 0 0 650.54297,161 l -33.54883,-5.34766 -6.31641,35.47071 -12.87695,-33.65039 -33.87695,12.26562 22.70312,-27.97656 -27.56054,-23.20703 35.58007,5.67383 5.4375,-30.539067 A 145.34147,145.34148 0 0 0 514.01562,65.447266 Z"
         transform="scale(0.26458333)"
         id="path6600" />
      <path
         id="path6253"
         style="fill:none;stroke:#0000ff;stroke-width:1.39129"
         d="m 404.55469,115.50195 8.49609,3.66993 -6.93945,63.33984 42.11133,-47.81836 58.0957,26.17187 -32.4668,-54.82617 36.69727,-40.396482"
         transform="scale(0.26458333)"
         sodipodi:nodetypes="ccccccc" />
    </g>
    <g
       id="g17825"
       transform="translate(13.375554)">
      <g
         id="g17866"
         transform="matrix(0.86778864,-0.50101801,0.50101801,0.86778864,-75.530346,67.088166)">
        <path
           style="display:inline;fill:none;stroke:#0000ff;stroke-width:0.302607;stroke-miterlimit:4;stroke-dasharray:none;stroke-opacity:1"
           d="m 130.34462,117.65959 a 5.7600867,5.7601392 45 0 1 -1.40057,-3.76487 5.7600867,5.7601392 45 0 1 5.75991,-5.75991 5.7600867,5.7601392 45 0 1 5.76011,5.75985 5.7600867,5.7601392 45 0 1 -1.406,3.76412 44.757093,44.757501 45 0 0 -4.35416,-0.23873 44.757093,44.757501 45 0 0 -4.35929,0.23954 z"
           id="path13525-0-0-3-1" />
        <path
           style="display:inline;fill:none;stroke:#ff0000;stroke-width:0.302607;stroke-miterlimit:4;stroke-dasharray:none;stroke-opacity:1"
           d="m 134.70351,206.93458 a 44.757093,44.757501 45 0 0 44.75759,-44.7576 44.757093,44.757501 45 0 0 -38.66682,-44.32239 7.2686807,7.268747 45 0 0 1.17831,-3.95994 7.2686807,7.268747 45 0 0 -7.26863,-7.26863 7.2686807,7.268747 45 0 0 -7.2687,7.2687 7.2686807,7.268747 45 0 0 1.17443,3.96018 44.757093,44.757501 45 0 0 -38.663107,44.32248 44.757093,44.757501 45 0 0 44.756927,44.7572 z"
           id="path17741-9-0-0-71" />
        <path
           id="use9059"
           style="fill:none;stroke:#00ff00;stroke-width:0.450319"
           d="m 469.32422,447.96094 -6.20899,32.47656 -25.3457,-21.45312 a 169.45491,169.45491 0 0 0 -0.002,0 l 25.1289,21.70898 -31.44336,11.29297 31.55469,-10.97461 -5.9414,32.875 6.27343,-32.81445 25.5,21.58398 -25.2812,-21.83984 L 495,469.52539 463.44531,480.5 l 5.88281,-32.53906 a 169.45491,169.45491 0 0 0 -0.004,0 z m 86.01172,23.51562 -0.90039,33.39649 -28.64649,-17.18946 28.47266,17.47657 -29.21094,16.21484 29.37305,-15.91992 -0.56445,33.4043 0.90039,-33.39649 28.64843,17.18945 -28.47265,-17.47656 29.20898,-16.21484 -29.37109,15.91797 z m -175.85352,32.16406 a 169.45491,169.45491 0 0 0 -0.10156,0.11915 l 11.95117,9.82617 z m 264.17969,6.10547 -21.31055,9.92579 21.45508,-9.73047 a 169.45491,169.45491 0 0 0 -0.14453,-0.19532 z m 7.79687,11.11524 -1.60937,18.29297 1.76953,-18.03711 a 169.45491,169.45491 0 0 0 -0.16016,-0.25586 z m -263.29882,5.57617 -10.33985,31.76953 -19.98047,-21.76562 a 169.45491,169.45491 0 0 0 -0.0195,0.0371 l 19.75196,21.95507 -31.10547,6.92383 a 169.45491,169.45491 0 0 0 -0.004,0.0176 l 31.17969,-6.61328 -10.01563,31.87305 10.33789,-31.76954 22.5918,24.61133 -22.34375,-24.83789 32.61133,-7.26172 -32.68164,6.93164 z m 111.3125,11.40234 -13.0918,30.73633 -20.3418,-26.50195 20.07422,26.70508 -33.12305,4.36523 33.16407,-4.03125 -12.7793,30.86719 13.0918,-30.73633 20.33984,26.50195 -20.07226,-26.70507 33.12109,-4.36524 -33.16406,4.03125 z m 81.59765,1.9668 -9.23242,32.10742 -23.43164,-23.8164 23.18945,24.05078 -32.33984,8.38476 32.42383,-8.05859 -8.91016,32.19922 9.23438,-32.10742 23.42968,23.81445 -23.18945,-24.04883 32.33984,-8.38476 -32.42187,8.05664 z m 69.04297,19.57813 -1.67969,33.36718 -28.23828,-17.85351 28.05664,18.13672 -29.58007,15.52929 29.73632,-15.23047 -1.34375,33.38282 1.67969,-33.36719 28.23828,17.85351 -28.05664,-18.13671 26.22852,-13.76953 a 169.45491,169.45491 0 0 0 -0.008,-0.0391 l -26.375,13.50977 z m -261.0039,76.50585 -10.20899,31.8086 -22.69336,-24.51758 22.44531,24.74609 -27.40625,6.21875 a 169.45491,169.45491 0 0 0 0.0176,0.0508 l 27.46094,-5.94141 -9.88672,31.91211 10.20899,-31.81055 22.6914,24.51953 -22.44336,-24.74609 32.58008,-7.39258 -32.6543,7.0625 z m 259.48242,4.35938 21.57226,25.03516 a 169.45491,169.45491 0 0 0 0.12305,-0.36719 z m -185.49219,2.10547 -4.67578,33.08008 -26.51563,-20.32227 26.31055,20.58789 -30.85742,12.80469 30.98437,-12.49219 -4.33984,33.125 4.67383,-33.08008 26.51758,20.32227 -26.31055,-20.58789 30.85742,-12.80469 -30.98633,12.49219 z m 104.63086,0.69141 -4.79883,33.0625 -26.43945,-20.42188 26.23242,20.6875 -30.90625,12.6875 31.0332,-12.375 -4.46484,33.10742 4.79883,-33.06054 26.43945,20.41992 -26.23242,-20.68555 30.9043,-12.6875 -31.03126,12.375 z m 102.31836,22.58203 -32.4043,6.49218 32.28516,-6.13086 a 169.45491,169.45491 0 0 0 0.11914,-0.36132 z M 495,706.75781 l -14.85547,29.92383 -18.76758,-27.63867 18.48633,27.82812 -33.31836,2.43164 33.3418,-2.0957 -14.55274,30.07227 14.85547,-29.92383 18.76563,27.63867 -18.48633,-27.82812 33.32031,-2.43164 -33.34375,2.0957 z m -92.67773,9.51172 -10.14844,18.875 a 169.45491,169.45491 0 0 0 0.16015,0.16016 z m 179.8164,17.82422 -5.31055,32.98242 -26.12109,-20.82812 25.91016,21.09179 -20.70703,8.12696 a 169.45491,169.45491 0 0 0 1.38281,-0.4043 l 19.44531,-7.4082 -0.0527,0.35156 a 169.45491,169.45491 0 0 0 0.36133,-0.1543 l 0.0234,-0.14648 0.10742,0.0859 a 169.45491,169.45491 0 0 0 0.34375,-0.1543 l -0.23828,-0.19336 4.54883,-1.78516 a 169.45491,169.45491 0 0 0 2.99805,-1.45117 l -7.66992,2.92188 z m -161.94531,10.74609 -16.40039,0.4961 a 169.45491,169.45491 0 0 0 0.21289,0.1582 z"
           transform="scale(0.26458333)" />
      </g>
    </g>
    <g
       id="g17831"
       transform="matrix(0.70865868,-0.70865868,0.70865868,0.70865868,-101.75399,52.885564)">
      <g
         id="g4919-9-0"
         style="display:inline;fill:none"
         transform="translate(-0.1072803,106.36245)">
        <path
           style="display:inline;fill:none;stroke:#0000ff;stroke-width:0.302607;stroke-miterlimit:4;stroke-dasharray:none;stroke-opacity:1"
           d="m 40.649337,11.297139 a 5.7600867,5.7601392 45 0 1 -1.400572,-3.7648712 5.7600867,5.7601392 45 0 1 5.75991,-5.7599104 5.7600867,5.7601392 45 0 1 5.760114,5.7598575 5.7600867,5.7601392 45 0 1 -1.405995,3.7641111 44.757093,44.757501 45 0 0 -4.354162,-0.238722 44.757093,44.757501 45 0 0 -4.359295,0.239535 z"
           id="path13525-0-0-3-9" />
        <path
           style="display:inline;fill:none;stroke:#ff0000;stroke-width:0.302607;stroke-miterlimit:4;stroke-dasharray:none;stroke-opacity:1"
           d="M 45.008226,100.57213 A 44.757093,44.757501 45 0 0 89.765819,55.814535 44.757093,44.757501 45 0 0 51.099004,11.492145 7.2686807,7.268747 45 0 0 52.277314,7.5322036 7.2686807,7.268747 45 0 0 45.00868,0.26357012 7.2686807,7.268747 45 0 0 37.739984,7.5322664 7.2686807,7.268747 45 0 0 38.91441,11.492454 44.757093,44.757501 45 0 0 0.25130236,55.814933 44.757093,44.757501 45 0 0 45.008226,100.57213 Z"
           id="path17741-9-0-0-7" />
      </g>
      <path
         id="path9481-5"
         style="display:inline;fill:none;stroke:#0000ff;stroke-width:0.072862"
         inkscape:transform-center-x="3.9558043e-06"
         d="m 25.369028,144.20745 -3.274111,2.33546 3.932603,0.84245 0.385773,4.00302 2.695452,-2.98453 2.742557,1.24954 0.992697,3.07032 -3.27411,2.33546 3.932602,0.84196 0.283133,2.93842 -1.929858,2.13663 -3.659884,-1.66755 1.23715,3.82698 -2.501573,1.78507 -2.765368,-0.59205 -0.428463,-1.88596 0.819663,-1.09302 -14.69141,-20.49145 14.900335,1.76978 z m 19.935098,-23.34435 9.943583,23.17027 25.091793,-2.4774 -13.374904,17.90894 -0.671404,-2.01176 3.274606,-2.33547 -3.933098,-0.84195 -0.385772,-4.00351 -2.695453,2.98503 -3.659886,-1.66805 1.237152,3.82699 -2.671154,1.90556 -2.490666,-0.53305 -0.385773,-4.00351 -2.695453,2.98504 -1.994318,-0.9089 -0.824603,-2.55067 3.274114,-2.33546 -3.932605,-0.84196 -0.385773,-4.00351 -2.695948,2.98454 -3.659883,-1.66755 1.237149,3.82699 -2.463392,1.75729 -2.094479,-0.44825 -0.385773,-4.00351 -2.695453,2.98503 -2.742559,-1.24954 -0.992695,-3.07032 3.361853,-2.40644 z m 19.94114,40.8894 14.691408,20.49144 -20.181089,-2.3952 -0.474236,-1.39179 3.274111,-2.33596 -3.932603,-0.84196 -0.385772,-4.00351 -2.695951,2.98503 -2.407856,-1.09682 -0.842453,-2.60571 3.274608,-2.33546 -3.9331,-0.84245 -0.305941,-3.17445 1.878288,-2.0796 3.659884,1.66755 -1.23715,-3.82699 2.671155,-1.90556 2.490666,0.53304 0.385772,4.00351 2.695948,-2.98503 2.255224,0.95304 z m -20.746839,40.48655 -9.943586,-23.17028 -25.0918094,2.47741 9.7551834,-12.94875 0.488182,4.05309 2.695948,-2.98503 3.659885,1.66755 -1.237151,-3.82699 2.501574,-1.78457 2.765368,0.59205 0.385773,4.00301 2.695452,-2.98453 2.266539,1.03286 0.784438,2.4267 -3.274111,2.33546 3.932602,0.84196 0.385773,4.00351 2.695453,-2.98503 3.659886,1.66805 -1.237152,-3.82699 2.233319,-1.59367 2.166872,0.46412 0.385773,4.00351 2.695453,-2.98503 2.408354,1.09732 0.842453,2.60521 -3.274608,2.33546 3.9331,0.84196 0.1821,1.74642 z m -3.028087,-49.23568 2.09448,0.44825 0.385772,4.00351 2.695451,-2.98503 1.994317,0.9089 0.824603,2.55066 -3.27411,2.33546 3.932602,0.84196 0.305941,3.17494 -1.878289,2.07961 -3.659883,-1.66755 1.23715,3.82698 -2.233317,1.59367 -2.166875,-0.46412 -0.385773,-4.00351 -2.695452,2.98503 -2.26654,-1.03286 -0.784439,-2.4267 3.274113,-2.33596 -3.932605,-0.84195 -0.28313,-2.93842 1.929856,-2.13663 3.659885,1.66805 -1.237152,-3.82699 z"
         sodipodi:nodetypes="cccccccccccccccccccccccccccccccccccccccccccccccccccccccccccccccccccccccccccccccccccccccccccccccccccccccccccccccccccccccccccccccc"
         inkscape:transform-center-y="3.3998725e-06" />
    </g>
  </g>
</svg>
