<?xml version="1.0" encoding="UTF-8" standalone="no"?>
<!-- Created with Inkscape (http://www.inkscape.org/) -->

<svg
   xmlns:dc="http://purl.org/dc/elements/1.1/"
   xmlns:cc="http://creativecommons.org/ns#"
   xmlns:rdf="http://www.w3.org/1999/02/22-rdf-syntax-ns#"
   xmlns:svg="http://www.w3.org/2000/svg"
   xmlns="http://www.w3.org/2000/svg"
   xmlns:sodipodi="http://sodipodi.sourceforge.net/DTD/sodipodi-0.dtd"
   xmlns:inkscape="http://www.inkscape.org/namespaces/inkscape"
   width="1220mm"
   height="600mm"
   viewBox="0 0 1220 600.00001"
   version="1.1"
   id="svg5"
   inkscape:version="0.92.4 (5da689c313, 2019-01-14)"
   sodipodi:docname="stars.svg">
  <metadata
     id="metadata846">
    <rdf:RDF>
      <cc:Work
         rdf:about="">
        <dc:format>image/svg+xml</dc:format>
        <dc:type
           rdf:resource="http://purl.org/dc/dcmitype/StillImage" />
      </cc:Work>
    </rdf:RDF>
  </metadata>
  <sodipodi:namedview
     id="namedview7"
     pagecolor="#ffffff"
     bordercolor="#666666"
     borderopacity="1.0"
     inkscape:pageshadow="2"
     inkscape:pageopacity="0.0"
     inkscape:pagecheckerboard="true"
     inkscape:document-units="mm"
     showgrid="false"
     inkscape:zoom="0.5"
     inkscape:cx="-259"
     inkscape:cy="2183"
     inkscape:window-width="1027"
     inkscape:window-height="1017"
     inkscape:window-x="885"
     inkscape:window-y="-8"
     inkscape:window-maximized="0"
     inkscape:current-layer="layer1"
     inkscape:snap-global="false"
     showguides="true"
     inkscape:guide-bbox="true"
     inkscape:object-nodes="false"
     inkscape:snap-center="true"
     inkscape:snap-object-midpoints="true"
     inkscape:snap-grids="true"
     inkscape:object-paths="true"
     inkscape:snap-others="false"
     inkscape:snap-midpoints="true"
     inkscape:snap-bbox="true"
     inkscape:snap-bbox-midpoints="true">
    <inkscape:grid
       type="xygrid"
       id="grid13171" />
  </sodipodi:namedview>
  <defs
     id="defs2">
    <inkscape:path-effect
       effect="skeletal"
       id="path-effect5550"
       is_visible="true"
       lpeversion="1"
       pattern="m 51.431063,15.617421 a 1.1880129,4.3312974 0 0 1 -1.188014,4.331298 1.1880129,4.3312974 0 0 1 -1.188013,-4.331298 1.1880129,4.3312974 0 0 1 1.188013,-4.331297 1.1880129,4.3312974 0 0 1 1.188014,4.331297 z"
       copytype="repeated"
       prop_scale="1.08"
       scale_y_rel="false"
       spacing="1.9"
       normal_offset="0"
       tang_offset="0"
       prop_units="false"
       vertical_pattern="false"
       hide_knot="false"
       fuse_tolerance="0" />
    <inkscape:path-effect
       effect="skeletal"
       id="path-effect4738"
       is_visible="true"
       lpeversion="1"
       pattern="m 25.321676,42.450717 a 2.7260388,2.7260388 0 0 1 -2e-6,3.8552 2.7260388,2.7260388 0 0 1 -3.8552,2e-6 2.7260388,2.7260388 0 0 1 -1e-6,-3.855202 2.7260388,2.7260388 0 0 1 3.855203,0 z"
       copytype="repeated_stretched"
       prop_scale="1"
       scale_y_rel="false"
       spacing="2"
       normal_offset="0"
       tang_offset="0"
       prop_units="false"
       vertical_pattern="false"
       hide_knot="false"
       fuse_tolerance="0" />
    <inkscape:path-effect
       effect="skeletal"
       id="path-effect4441"
       is_visible="true"
       lpeversion="1"
       pattern="m -4.9767986,32.222952 a 0.59150612,0.57302152 45 0 1 0.01307,0.823445 0.59150612,0.57302152 45 0 1 -0.8234457,-0.01307 0.59150612,0.57302152 45 0 1 -0.013071,-0.823446 0.59150612,0.57302152 45 0 1 0.8234463,0.01307 z"
       copytype="repeated"
       prop_scale="1"
       scale_y_rel="false"
       spacing="4"
       normal_offset="0"
       tang_offset="0"
       prop_units="false"
       vertical_pattern="false"
       hide_knot="false"
       fuse_tolerance="0" />
    <inkscape:path-effect
       effect="bspline"
       id="path-effect2669"
       is_visible="true"
       weight="20"
       steps="2"
       helper_size="0"
       apply_no_weight="true"
       apply_with_weight="true"
       only_selected="false"
       lpeversion="0" />
    <pattern
       patternUnits="userSpaceOnUse"
       patternTransform="translate(0.000160318455288,0.000160210947143)"
       height="89.9996771232"
       width="89.9996771232"
       id="Voronoi1649">
      <path
         id="path2397"
         style="stroke:#000000;stroke-width:0.264583333328"
         d="M 31.594,0.000 33.203,3.392 M 33.203,3.392 36.124,4.523 M 36.124,4.523 38.037,0.000 M 36.124,4.523 36.621,4.808 M 24.801,9.559 33.203,3.392 M 16.057,9.285 16.938,0.000 M 16.057,9.285 24.801,9.559 M 30.609,16.545 36.621,4.808 M 30.609,16.545 44.082,8.387 M 36.621,4.808 44.082,8.387 M 55.450,0.000 59.140,4.663 M 59.140,4.663 63.148,0.000 M 24.801,9.559 28.391,18.713 M 28.391,18.713 30.609,16.545 M 5.201,17.517 16.057,9.285 M 44.082,8.387 56.786,13.276 M 56.786,13.276 59.140,4.663 M 88.833,0.000 90.000,4.833 M 0.000,4.833 3.181,18.007 M 3.181,18.007 5.201,17.517 M 5.201,17.517 29.154,26.923 M 28.391,18.713 29.154,26.923 M 0.000,21.857 3.181,18.007 M 89.213,22.810 90.000,21.857 M 56.786,13.276 58.049,19.157 M 55.971,21.313 58.049,19.157 M 81.102,26.540 89.213,22.810 M 29.154,26.923 33.215,31.629 M 58.049,19.157 74.765,26.620 M 74.765,26.620 81.102,26.540 M 28.755,35.883 33.215,31.629 M 33.215,31.629 42.279,31.475 M 42.279,31.475 55.971,21.313 M 89.213,22.810 90.000,23.646 M 0.000,23.646 16.319,40.979 M 16.319,40.979 28.755,35.883 M 55.971,21.313 59.055,48.526 M 14.271,47.181 16.319,40.979 M 14.271,47.181 23.558,52.155 M 23.558,52.155 29.990,52.518 M 28.755,35.883 29.990,52.518 M 42.279,31.475 44.998,48.860 M 29.990,52.518 30.449,53.016 M 30.449,53.016 44.998,48.860 M 59.055,48.526 69.561,51.070 M 69.561,51.070 74.765,26.620 M 44.998,48.860 47.116,52.165 M 47.116,52.165 48.678,53.267 M 48.678,53.267 59.055,48.526 M 9.475,52.568 14.271,47.181 M 9.475,52.568 14.748,59.735 M 0.000,52.167 0.653,54.048 M 0.653,54.048 9.475,52.568 M 81.102,26.540 90.000,52.167 M 48.678,53.267 52.024,61.069 M 14.748,59.735 21.202,63.309 M 21.202,63.309 23.558,52.155 M 69.561,51.070 72.341,58.296 M 0.000,54.781 0.653,54.048 M 86.778,58.394 90.000,54.781 M 30.449,53.016 30.967,63.614 M 30.967,63.614 33.026,64.520 M 33.026,64.520 47.116,52.165 M 0.000,61.020 10.080,69.236 M 10.080,69.236 14.748,59.735 M 86.778,58.394 90.000,61.020 M 21.202,63.309 23.665,65.580 M 23.665,65.580 30.967,63.614 M 33.026,64.520 34.692,66.498 M 34.692,66.498 52.024,61.069 M 52.024,61.069 54.310,64.348 M 10.080,69.236 10.368,70.638 M 54.310,64.348 60.489,65.784 M 60.489,65.784 72.341,58.296 M 72.341,58.296 81.880,61.886 M 81.880,61.886 86.778,58.394 M 10.368,70.638 22.086,69.442 M 22.086,69.442 23.665,65.580 M 49.674,69.874 54.310,64.348 M 34.692,66.498 37.719,72.498 M 37.719,72.498 49.674,69.874 M 37.025,76.294 37.719,72.498 M 37.025,76.294 42.091,80.415 M 6.420,80.367 10.368,70.638 M 22.086,69.442 22.138,81.384 M 22.138,81.384 28.445,83.364 M 28.445,83.364 37.025,76.294 M 6.420,80.367 17.575,83.289 M 17.575,83.289 22.138,81.384 M 42.091,80.415 50.857,84.198 M 49.674,69.874 50.857,84.198 M 81.880,61.886 83.629,80.594 M 83.629,80.594 87.061,82.663 M 87.061,82.663 90.000,81.942 M 0.000,81.942 6.420,80.367 M 60.489,65.784 65.857,86.847 M 65.857,86.847 83.629,80.594 M 28.445,83.364 31.594,90.000 M 38.037,90.000 42.091,80.415 M 16.938,90.000 17.575,83.289 M 50.857,84.198 55.450,90.000 M 63.148,90.000 65.857,86.847 M 87.061,82.663 88.833,90.000 M 67.610,90.000 67.610,90.000 M 53.966,0.000 53.966,0.000 " />
    </pattern>
    <pattern
       patternUnits="userSpaceOnUse"
       patternTransform="translate(0.000160318455288,0.000160210947143)"
       height="89.9996771232"
       width="89.9996771232"
       id="Voronoi8544">
      <path
         id="path2420"
         style="stroke:#000000;stroke-width:0.264583333328"
         d="M 0.000,0.295 0.190,0.000 M 85.350,7.490 90.000,0.295 M 6.151,0.000 10.849,7.065 M 10.299,7.615 10.849,7.065 M 0.000,10.550 10.299,7.615 M 85.350,7.490 88.142,11.079 M 88.142,11.079 90.000,10.550 M 10.849,7.065 16.485,7.884 M 16.485,7.884 22.389,0.000 M 23.571,0.000 36.429,11.932 M 36.429,11.932 51.372,4.683 M 48.852,0.000 51.372,4.683 M 16.485,7.884 20.514,15.443 M 20.493,15.495 20.514,15.443 M 20.514,15.443 34.169,14.454 M 34.169,14.454 36.429,11.932 M 5.449,19.664 10.299,7.615 M 5.449,19.664 20.493,15.495 M 63.812,6.554 67.772,0.000 M 63.812,6.554 85.350,7.490 M 34.169,14.454 34.218,23.076 M 32.584,24.351 34.218,23.076 M 51.372,4.683 60.480,9.372 M 60.480,9.372 63.812,6.554 M 19.046,25.656 20.493,15.495 M 19.046,25.656 32.584,24.351 M 76.027,24.972 84.121,25.845 M 84.121,25.845 89.613,25.565 M 88.142,11.079 89.613,25.565 M 0.000,25.718 0.237,25.812 M 0.237,25.812 5.449,19.664 M 89.613,25.565 90.000,25.718 M 60.480,9.372 62.849,21.456 M 62.849,21.456 76.027,24.972 M 81.299,42.594 84.121,25.845 M 0.000,39.354 6.086,37.089 M 81.299,42.594 90.000,39.354 M 6.086,37.089 8.537,34.408 M 0.237,25.812 8.537,34.408 M 76.027,24.972 79.519,44.129 M 79.519,44.129 81.299,42.594 M 8.537,34.408 13.974,35.549 M 13.974,35.549 19.046,25.656 M 79.097,44.789 79.519,44.129 M 56.877,34.494 62.849,21.456 M 56.877,34.494 79.097,44.789 M 13.974,35.549 18.922,40.394 M 18.922,40.394 24.179,42.662 M 24.179,42.662 32.584,24.351 M 34.218,23.076 50.680,38.904 M 50.680,38.904 54.025,37.964 M 54.025,37.964 56.877,34.494 M 40.148,45.846 50.680,38.904 M 0.000,49.724 6.086,37.089 M 87.982,53.913 90.000,49.724 M 79.097,44.789 80.711,53.208 M 80.711,53.208 81.388,53.709 M 81.388,53.709 87.982,53.913 M 24.179,42.662 31.600,47.996 M 31.600,47.996 40.148,45.846 M 54.025,37.964 63.411,55.444 M 63.411,55.444 80.711,53.208 M 5.951,59.684 18.922,40.394 M 87.982,53.913 90.000,55.414 M 0.000,55.414 5.778,59.713 M 5.778,59.713 5.951,59.684 M 5.951,59.684 15.985,63.744 M 15.985,63.744 28.164,60.222 M 28.164,60.222 31.600,47.996 M 1.863,68.578 5.778,59.713 M 62.121,64.568 63.411,55.444 M 14.424,73.510 15.985,63.744 M 40.148,45.846 50.671,69.557 M 50.671,69.557 62.121,64.568 M 14.424,73.510 32.950,72.293 M 28.164,60.222 32.950,72.293 M 1.863,68.578 11.411,77.314 M 11.411,77.314 12.198,77.659 M 12.198,77.659 14.424,73.510 M 12.198,77.659 13.200,80.168 M 0.000,79.784 11.411,77.314 M 84.562,80.961 90.000,79.784 M 0.000,69.660 1.863,68.578 M 78.191,76.523 90.000,69.660 M 78.191,76.523 84.562,80.961 M 77.458,76.457 81.388,53.709 M 77.458,76.457 78.191,76.523 M 32.950,72.293 35.639,76.840 M 62.121,64.568 75.596,77.049 M 75.596,77.049 77.458,76.457 M 13.200,80.168 23.538,85.120 M 23.538,85.120 35.639,76.840 M 35.639,76.840 43.133,79.373 M 43.133,79.373 50.671,69.557 M 0.000,87.402 1.059,88.656 M 84.562,80.961 90.000,87.402 M 1.059,88.656 5.744,89.387 M 5.744,89.387 13.200,80.168 M 22.874,89.352 23.538,85.120 M 0.190,90.000 1.059,88.656 M 5.744,89.387 6.151,90.000 M 22.389,90.000 22.874,89.352 M 22.874,89.352 23.571,90.000 M 43.133,79.373 48.852,90.000 M 67.772,90.000 75.596,77.049 M 54.789,0.000 54.789,0.000 " />
    </pattern>
    <pattern
       patternUnits="userSpaceOnUse"
       patternTransform="translate(0.000160318455288,0.000160210947143)"
       height="89.9996771232"
       width="89.9996771232"
       id="Voronoi8482">
      <path
         id="path2445"
         style="stroke:#000000;stroke-width:0.264583333328"
         d="M 48.410,0.000 50.438,3.438 M 10.872,0.391 10.950,0.000 M 10.872,0.391 11.072,1.670 M 73.789,0.000 74.230,3.361 M 74.230,3.361 78.549,0.000 M 50.438,3.438 50.859,11.507 M 28.079,0.000 33.674,8.615 M 33.674,8.615 43.055,0.000 M 50.438,3.438 70.749,6.114 M 64.328,0.000 70.749,6.114 M 11.072,1.670 22.114,13.048 M 70.749,6.114 72.901,7.377 M 72.901,7.377 74.230,3.361 M 22.114,13.048 32.611,13.044 M 32.611,13.044 33.146,12.806 M 33.146,12.806 33.674,8.615 M 72.901,7.377 73.589,10.429 M 73.589,10.429 90.000,4.391 M 33.146,12.806 39.124,17.382 M 39.124,17.382 50.859,11.507 M 73.565,11.132 73.589,10.429 M 0.000,4.391 10.872,0.391 M 68.221,18.330 73.565,11.132 M 0.000,19.441 4.020,21.473 M 4.020,21.473 11.072,1.670 M 73.565,11.132 90.000,19.441 M 50.859,11.507 65.204,19.924 M 65.204,19.924 68.221,18.330 M 39.124,17.382 42.436,25.683 M 4.020,21.473 5.323,23.696 M 61.369,24.779 65.204,19.924 M 42.436,25.683 60.473,25.661 M 60.473,25.661 61.369,24.779 M 5.323,23.696 10.209,26.818 M 10.209,26.818 22.114,13.048 M 61.369,24.779 72.556,39.899 M 0.000,28.069 5.323,23.696 M 68.221,18.330 80.031,36.261 M 80.031,36.261 90.000,28.069 M 72.556,39.899 79.641,40.132 M 79.641,40.132 80.031,36.261 M 10.209,26.818 16.570,36.254 M 16.570,36.254 19.856,37.124 M 19.856,37.124 32.611,13.044 M 57.406,43.600 60.473,25.661 M 57.406,43.600 72.556,39.899 M 19.856,37.124 29.769,43.458 M 29.769,43.458 34.567,44.517 M 34.567,44.517 42.436,25.683 M 53.662,49.704 57.406,43.600 M 16.755,59.677 29.769,43.458 M 53.662,49.704 56.348,51.893 M 16.755,59.677 23.149,64.943 M 34.567,44.517 41.073,50.705 M 41.073,50.705 53.662,49.704 M 23.149,64.943 35.145,61.134 M 0.000,50.671 16.570,36.254 M 79.641,40.132 86.093,54.069 M 86.093,54.069 90.000,50.671 M 56.348,51.893 66.583,59.305 M 35.145,61.134 39.570,57.873 M 39.570,57.873 41.073,50.705 M 39.570,57.873 41.142,63.873 M 85.413,57.220 86.093,54.069 M 66.583,59.305 80.873,59.797 M 80.873,59.797 85.413,57.220 M 85.413,57.220 90.000,60.438 M 0.000,60.438 4.765,63.781 M 4.765,63.781 16.755,59.677 M 61.357,71.070 66.583,59.305 M 79.143,70.299 80.873,59.797 M 61.357,71.070 73.438,79.147 M 73.438,79.147 79.143,70.299 M 34.335,79.535 41.142,63.873 M 41.142,63.873 51.679,77.092 M 51.679,77.092 56.348,51.893 M 55.940,77.354 61.357,71.070 M 55.940,77.354 72.735,81.985 M 72.735,81.985 73.438,79.147 M 79.143,70.299 86.940,83.470 M 51.679,77.092 53.111,79.227 M 53.111,79.227 55.940,77.354 M 53.089,79.300 53.111,79.227 M 22.635,81.615 34.335,79.535 M 21.950,81.335 35.145,61.134 M 21.950,81.335 22.635,81.615 M 20.063,81.088 23.149,64.943 M 20.063,81.088 21.950,81.335 M 34.335,79.535 46.653,86.055 M 46.653,86.055 53.089,79.300 M 46.529,86.810 46.653,86.055 M 4.765,63.781 13.185,81.987 M 13.185,81.987 20.063,81.088 M 0.000,83.407 12.308,83.155 M 12.308,83.155 13.185,81.987 M 86.940,83.470 90.000,83.407 M 46.529,86.810 48.410,90.000 M 10.950,90.000 12.308,83.155 M 72.735,81.985 73.789,90.000 M 78.549,90.000 86.940,83.470 M 22.635,81.615 28.079,90.000 M 43.055,90.000 46.529,86.810 M 53.089,79.300 64.328,90.000 " />
    </pattern>
    <pattern
       patternUnits="userSpaceOnUse"
       patternTransform="translate(0.0,-2.35438346745e-06)"
       height="90.3532451232"
       width="90.3532371857"
       id="Voronoi2126">
      <path
         id="path2564"
         style="stroke:#000000;stroke-width:0.264583333328"
         d="M 44.975,0.000 45.176,0.548 M 39.615,3.856 45.176,0.548 M 45.176,0.548 53.048,1.871 M 53.048,1.871 55.065,0.000 M 53.048,1.871 53.436,3.791 M 73.803,0.000 75.728,1.612 M 75.728,1.612 76.759,0.000 M 29.116,0.000 39.615,3.856 M 12.364,4.021 14.019,0.000 M 37.151,16.557 39.615,3.856 M 12.364,4.021 23.200,15.620 M 23.200,15.620 37.151,16.557 M 41.148,18.425 53.436,3.791 M 37.151,16.557 38.013,17.498 M 38.013,17.498 41.148,18.425 M 75.728,1.612 83.152,13.777 M 0.000,11.901 12.364,4.021 M 83.152,13.777 86.301,14.484 M 86.301,14.484 87.015,16.514 M 87.015,16.514 87.419,22.661 M 81.817,34.888 87.419,22.661 M 41.148,18.425 56.046,26.283 M 38.993,34.769 56.046,26.283 M 53.436,3.791 61.413,24.839 M 61.413,24.839 83.152,13.777 M 33.229,33.528 38.013,17.498 M 33.229,33.528 38.993,34.769 M 56.046,26.283 60.150,26.618 M 60.150,26.618 61.413,24.839 M 22.479,33.284 23.200,15.620 M 0.000,18.997 20.156,33.983 M 20.156,33.983 22.479,33.284 M 87.015,16.514 90.353,18.997 M 22.479,33.284 27.772,35.524 M 27.772,35.524 33.229,33.528 M 27.772,35.524 29.060,41.932 M 74.989,42.734 81.817,34.888 M 29.060,41.932 31.030,46.913 M 60.150,26.618 61.943,38.817 M 18.370,49.567 29.060,41.932 M 10.160,43.673 20.156,33.983 M 10.160,43.673 18.370,49.567 M 31.030,46.913 44.804,46.957 M 38.993,34.769 44.804,46.957 M 44.804,46.957 44.971,47.066 M 44.971,47.066 61.943,38.817 M 61.943,38.817 64.452,42.185 M 64.452,42.185 74.989,42.734 M 0.000,29.697 6.322,44.856 M 6.322,44.856 10.160,43.673 M 87.419,22.661 90.353,29.697 M 64.386,48.243 64.452,42.185 M 44.876,53.123 44.971,47.066 M 0.000,45.127 3.073,48.812 M 3.073,48.812 6.322,44.856 M 81.817,34.888 90.353,45.127 M 64.386,48.243 80.265,57.215 M 80.265,57.215 89.461,51.509 M 74.989,42.734 89.461,51.509 M 0.000,51.537 1.246,51.575 M 1.246,51.575 3.073,48.812 M 89.461,51.509 90.353,51.537 M 77.963,60.319 80.265,57.215 M 62.607,56.585 64.386,48.243 M 62.607,56.585 71.880,62.175 M 71.880,62.175 77.963,60.319 M 44.876,53.123 50.334,60.842 M 71.880,62.175 72.190,67.821 M 50.334,60.842 56.882,62.401 M 56.882,62.401 62.607,56.585 M 72.190,67.821 81.619,68.662 M 77.963,60.319 81.619,68.662 M 18.370,49.567 27.258,60.790 M 27.258,60.790 31.030,46.913 M 27.258,60.790 27.303,61.195 M 27.303,61.195 44.876,53.123 M 56.882,62.401 57.756,67.353 M 81.619,68.662 84.154,71.059 M 76.489,75.055 84.154,71.059 M 42.169,75.861 57.756,67.353 M 0.000,72.258 0.875,72.427 M 84.154,71.059 90.353,72.258 M 0.000,73.332 0.875,72.427 M 76.489,75.055 82.371,81.581 M 82.371,81.581 90.353,73.332 M 34.659,72.181 50.334,60.842 M 34.659,72.181 39.689,75.949 M 39.689,75.949 42.169,75.861 M 67.818,77.721 72.190,67.821 M 67.818,77.721 76.489,75.055 M 0.875,72.427 9.168,71.174 M 1.246,51.575 9.168,71.174 M 25.151,70.443 27.303,61.195 M 25.151,70.443 34.659,72.181 M 42.169,75.861 63.693,81.039 M 57.756,67.353 63.693,81.039 M 63.693,81.039 63.893,81.294 M 63.893,81.294 67.818,77.721 M 63.893,81.294 63.955,82.107 M 9.168,71.174 16.526,76.077 M 16.526,76.077 25.151,70.443 M 39.689,75.949 44.975,90.353 M 55.065,90.353 63.955,82.107 M 63.955,82.107 73.803,90.353 M 76.759,90.353 82.371,81.581 M 16.001,85.536 16.526,76.077 M 16.001,85.536 29.116,90.353 M 14.019,90.353 16.001,85.536 M 86.301,14.484 90.353,11.901 M 31.490,0.000 31.490,0.000 " />
    </pattern>
    <pattern
       patternUnits="userSpaceOnUse"
       patternTransform="translate(0.000160318455288,0.000160210947143)"
       height="89.9996771232"
       width="89.9996771232"
       id="Voronoi8482-2">
      <path
         id="path2445-5"
         style="stroke:#000000;stroke-width:0.264583333328"
         d="M 48.410,0.000 50.438,3.438 M 10.872,0.391 10.950,0.000 M 10.872,0.391 11.072,1.670 M 73.789,0.000 74.230,3.361 M 74.230,3.361 78.549,0.000 M 50.438,3.438 50.859,11.507 M 28.079,0.000 33.674,8.615 M 33.674,8.615 43.055,0.000 M 50.438,3.438 70.749,6.114 M 64.328,0.000 70.749,6.114 M 11.072,1.670 22.114,13.048 M 70.749,6.114 72.901,7.377 M 72.901,7.377 74.230,3.361 M 22.114,13.048 32.611,13.044 M 32.611,13.044 33.146,12.806 M 33.146,12.806 33.674,8.615 M 72.901,7.377 73.589,10.429 M 73.589,10.429 90.000,4.391 M 33.146,12.806 39.124,17.382 M 39.124,17.382 50.859,11.507 M 73.565,11.132 73.589,10.429 M 0.000,4.391 10.872,0.391 M 68.221,18.330 73.565,11.132 M 0.000,19.441 4.020,21.473 M 4.020,21.473 11.072,1.670 M 73.565,11.132 90.000,19.441 M 50.859,11.507 65.204,19.924 M 65.204,19.924 68.221,18.330 M 39.124,17.382 42.436,25.683 M 4.020,21.473 5.323,23.696 M 61.369,24.779 65.204,19.924 M 42.436,25.683 60.473,25.661 M 60.473,25.661 61.369,24.779 M 5.323,23.696 10.209,26.818 M 10.209,26.818 22.114,13.048 M 61.369,24.779 72.556,39.899 M 0.000,28.069 5.323,23.696 M 68.221,18.330 80.031,36.261 M 80.031,36.261 90.000,28.069 M 72.556,39.899 79.641,40.132 M 79.641,40.132 80.031,36.261 M 10.209,26.818 16.570,36.254 M 16.570,36.254 19.856,37.124 M 19.856,37.124 32.611,13.044 M 57.406,43.600 60.473,25.661 M 57.406,43.600 72.556,39.899 M 19.856,37.124 29.769,43.458 M 29.769,43.458 34.567,44.517 M 34.567,44.517 42.436,25.683 M 53.662,49.704 57.406,43.600 M 16.755,59.677 29.769,43.458 M 53.662,49.704 56.348,51.893 M 16.755,59.677 23.149,64.943 M 34.567,44.517 41.073,50.705 M 41.073,50.705 53.662,49.704 M 23.149,64.943 35.145,61.134 M 0.000,50.671 16.570,36.254 M 79.641,40.132 86.093,54.069 M 86.093,54.069 90.000,50.671 M 56.348,51.893 66.583,59.305 M 35.145,61.134 39.570,57.873 M 39.570,57.873 41.073,50.705 M 39.570,57.873 41.142,63.873 M 85.413,57.220 86.093,54.069 M 66.583,59.305 80.873,59.797 M 80.873,59.797 85.413,57.220 M 85.413,57.220 90.000,60.438 M 0.000,60.438 4.765,63.781 M 4.765,63.781 16.755,59.677 M 61.357,71.070 66.583,59.305 M 79.143,70.299 80.873,59.797 M 61.357,71.070 73.438,79.147 M 73.438,79.147 79.143,70.299 M 34.335,79.535 41.142,63.873 M 41.142,63.873 51.679,77.092 M 51.679,77.092 56.348,51.893 M 55.940,77.354 61.357,71.070 M 55.940,77.354 72.735,81.985 M 72.735,81.985 73.438,79.147 M 79.143,70.299 86.940,83.470 M 51.679,77.092 53.111,79.227 M 53.111,79.227 55.940,77.354 M 53.089,79.300 53.111,79.227 M 22.635,81.615 34.335,79.535 M 21.950,81.335 35.145,61.134 M 21.950,81.335 22.635,81.615 M 20.063,81.088 23.149,64.943 M 20.063,81.088 21.950,81.335 M 34.335,79.535 46.653,86.055 M 46.653,86.055 53.089,79.300 M 46.529,86.810 46.653,86.055 M 4.765,63.781 13.185,81.987 M 13.185,81.987 20.063,81.088 M 0.000,83.407 12.308,83.155 M 12.308,83.155 13.185,81.987 M 86.940,83.470 90.000,83.407 M 46.529,86.810 48.410,90.000 M 10.950,90.000 12.308,83.155 M 72.735,81.985 73.789,90.000 M 78.549,90.000 86.940,83.470 M 22.635,81.615 28.079,90.000 M 43.055,90.000 46.529,86.810 M 53.089,79.300 64.328,90.000 " />
    </pattern>
  </defs>
  <g
     inkscape:label="Layer 1"
     inkscape:groupmode="layer"
     id="layer1"
     style="display:inline">
    <text
       xml:space="preserve"
       style="font-size:9.15227985px;line-height:1.25;font-family:sans-serif;letter-spacing:0px;word-spacing:0px;fill:#000080;fill-opacity:1;stroke-width:6.86439991;stroke-miterlimit:4;stroke-dasharray:none"
       x="-190.77771"
       y="91.164879"
       id="text37531-6"><tspan
         sodipodi:role="line"
         id="tspan37529-6"
         style="fill:#000080;fill-opacity:1;stroke-width:6.86439991;stroke-miterlimit:4;stroke-dasharray:none"
         x="-190.77771"
         y="91.164879">=pass2:800mm/min:40%:#0000ff=</tspan></text>
    <text
       xml:space="preserve"
       style="font-size:9.15227985px;line-height:1.25;font-family:sans-serif;letter-spacing:0px;word-spacing:0px;fill:#aa0000;fill-opacity:1;stroke-width:6.86399984;stroke-miterlimit:4;stroke-dasharray:none"
       x="-190.92351"
       y="111.40776"
       id="text37531-6-9"><tspan
         sodipodi:role="line"
         id="tspan37529-6-2"
         style="fill:#aa0000;fill-opacity:1;stroke-width:6.86399984;stroke-miterlimit:4;stroke-dasharray:none"
         x="-190.92351"
         y="111.40776">=pass3:800mm/min:40%:#ff0000=</tspan></text>
    <text
       xml:space="preserve"
       style="font-size:9.15227985px;line-height:1.25;font-family:sans-serif;letter-spacing:0px;word-spacing:0px;display:inline;fill:#008000;fill-opacity:1;stroke-width:6.86420012"
       x="-192.17204"
       y="71.801971"
       id="text37531-6-2"><tspan
         sodipodi:role="line"
         id="tspan37529-6-1"
         style="fill:#008000;fill-opacity:1;stroke-width:6.86420012"
         x="-192.17204"
         y="71.801971">=pass1:800mm/min:20%:#00ff00=</tspan></text>
    <path
       id="rect7802-9"
       style="display:inline;fill:none;fill-opacity:1;stroke:none;stroke-width:0.29934099;stroke-miterlimit:4;stroke-dasharray:none;stroke-opacity:1"
       d="m 87.096744,43.887205 h -7.906702 l 6.488617,-6.488777 -1.501162,-1.5012 -7.550245,7.550438 -0.439531,0.439539 -4.525219,-1e-6 6.48861,-6.488775 -1.50116,-1.501201 -7.550251,7.550438 -0.439529,0.439538 -16.95135,1e-6 a 6.7573228,6.5682829 0 0 0 -0.24005,-0.942838 6.5682007,6.7574079 44.974673 0 0 -0.96261,-1.969237 L 62.481161,28.999341 h 11.29977 v -2.122835 l -9.176989,-10e-7 3.19987,-3.199951 h 11.29978 v -2.122835 h -9.176991 l 5.591201,-5.591343 -1.50116,-1.501199 -5.590721,5.590857 10e-7,-9.176734 h -2.123271 v 11.300054 l -3.199869,3.199953 -10e-7,-9.177222 h -2.12278 l 10e-7,11.300057 -11.98611,11.986414 a 6.5682007,6.7574079 44.974673 0 0 -0.90804,-0.53083 6.568118,6.7574924 0 0 0 -2.00204,-0.679113 v -16.934386 -4.95e-4 l 7.99026,-7.989975 -1.50116,-1.501201 -6.4891,6.488777 v -4.524853 -4.93e-4 l 7.990259,-7.9899554 -1.50116,-1.5011997 -6.4891,6.4887771 1e-6,-7.9068995 -2.122781,7e-7 v 7.9068988 l -6.489099,-6.4887771 -1.50116,1.5011997 7.55025,7.5504384 0.44001,0.440022 v 4.524852 l -6.4891,-6.488778 -1.50116,1.501201 7.55025,7.550437 0.44001,0.440023 v 16.950809 a 6.568118,6.7574924 0 0 0 -1.01237,0.265171 6.7574079,6.5682007 45.025327 0 0 -1.90108,0.937042 L 29.073542,27.51891 V 16.218856 l -2.12327,-10e-7 v 9.177221 l -3.19987,-3.199952 V 10.896068 h -2.12278 v 9.177218 l -5.5912,-5.59134 -1.501161,1.501201 5.590721,5.590858 h -9.176511 v 2.123318 h 11.29977 l 3.199871,3.199951 -9.17651,1e-6 v 2.122838 l 11.29929,-10e-7 11.985629,11.98593 a 6.7574079,6.5682007 45.025327 0 0 -0.530809,0.909028 6.7573228,6.5682829 0 0 0 -0.678621,2.0016 l -16.933959,-1e-6 -0.43953,-0.440023 h -4.9e-4 l -7.550251,-7.550434 -1.501159,1.501197 6.4891,6.48926 h -4.52522 l -0.43953,-0.440022 -7.5507304,-7.550436 -1.50117,1.501198 6.4891004,6.489261 H 2.9770715 v 2.122836 h 7.9071805 l -6.4891004,6.489259 1.5011707,1.501201 7.9907397,-7.99046 4.52474,10e-7 -6.4891,6.489258 1.501159,1.501201 7.990751,-7.99046 h 16.94651 a 6.7573228,6.5682829 0 0 0 0.295119,1.098366 6.5682007,6.7574079 44.974673 0 0 0.911421,1.814674 l -11.97453,11.974825 h -0.6221 -10.67815 v 2.123318 h 9.17699 l -3.19987,3.199953 h -0.62162 -10.67816 v 2.122834 h 9.17699 l -5.5912,5.591343 1.50117,1.501198 5.5912,-5.59134 v 9.177218 h 2.12278 l -1e-6,-11.300054 3.199871,-3.199953 v 9.176739 h 2.12278 V 62.429052 L 41.079932,50.44264 a 6.5682007,6.7574079 44.974673 0 0 0.91093,0.531796 6.568118,6.7574924 0 0 0 1.99914,0.678146 v 16.934389 l -0.43953,0.439538 -7.55073,7.550917 1.50116,1.501204 6.4891,-6.489263 v 4.525337 l -0.43953,0.439539 -7.55073,7.55092 1.50116,1.501201 6.4891,-6.489262 v 7.907384 l 2.12326,-10e-7 v -7.907383 l 6.48862,6.489261 1.50116,-1.501199 -7.55025,-7.550921 -0.43953,-0.439539 v -4.525336 l 6.488619,6.489262 1.501161,-1.501204 -7.550251,-7.550916 -0.439529,-0.439539 V 51.63906 a 6.568118,6.7574924 0 0 0 1.09738,-0.294155 6.7574079,6.5682007 45.025327 0 0 1.81511,-0.911927 l 11.975,11.975306 -10e-7,0.621636 v 10.678419 l 2.122791,1e-6 v -9.177222 l 3.19987,3.199954 v 0.621636 l -1e-6,10.678419 h 2.12278 l 10e-7,-9.177219 5.5912,5.591342 1.50116,-1.501202 -5.591201,-5.59134 h 9.177 l 10e-7,-2.122835 -10.67815,10e-7 -0.62162,-10e-7 -3.19987,-3.199953 h 9.17699 v -2.122835 l -10.67815,-1e-6 -0.62162,1e-6 -11.9866,-11.986899 a 6.7574079,6.5682007 45.025327 0 0 0.551099,-0.945253 6.7573228,6.5682829 0 0 0 0.658821,-1.964408 l 16.93492,-1e-6 0.439529,0.439543 7.55025,7.550919 1.501161,-1.501202 -6.48861,-6.48926 4.525219,1e-6 0.439531,0.439542 7.550244,7.550919 1.501163,-1.501202 -6.488617,-6.489259 7.906703,-1e-6 z m -38.816723,1.084972 a 3.2594996,3.3534784 0 0 1 -0.165239,1.053468 3.2595404,3.3534363 44.974669 0 1 -0.79103,1.23734 3.2595404,3.3534363 44.974669 0 1 -0.86725,0.630745 3.2595814,3.3533943 90 0 1 -1.42816,0.313042 3.2595814,3.3533943 90 0 1 -1.0418,-0.161175 3.3534363,3.2595404 45.025331 0 1 -1.24895,-0.794832 3.3534363,3.2595404 45.025331 0 1 -0.64847,-0.901891 3.2594996,3.3534784 0 0 1 -0.29529,-1.394444 3.2594996,3.3534784 0 0 1 0.17659,-1.088671 3.2595404,3.3534363 44.974669 0 1 0,-2.99e-4 3.2594996,3.3534784 0 0 1 0.0119,-0.03142 3.2595404,3.3534363 44.974669 0 1 0.76747,-1.16955 3.2595404,3.3534363 44.974669 0 1 0.870159,-0.631908 3.2595814,3.3533943 90 0 1 1.426121,-0.31217 3.2595814,3.3533943 90 0 1 1.062459,0.169032 3.3534363,3.2595404 45.025331 0 1 1.22742,0.786974 3.3534363,3.2595404 45.025331 0 1 0.6732,0.958626 3.2594996,3.3534784 0 0 1 0.27085,1.337128 z"
       inkscape:connector-curvature="0" />
    <path
       style="display:inline;fill:none;stroke:none;stroke-width:0.29934099;stroke-miterlimit:4;stroke-dasharray:none;stroke-opacity:1"
       d="m 10.305612,16.425964 a 5.7874002,5.7875446 0 0 1 -3.6698403,-1.679771 5.7874002,5.7875446 0 0 1 -1e-7,-8.1845013 5.7874002,5.7875446 0 0 1 8.1844794,-1.822e-4 5.7874002,5.7875446 0 0 1 1.675351,3.6732215 44.969324,44.970446 0 0 0 -3.26306,2.923896 44.969324,44.970446 0 0 0 -2.92693,3.267337 z"
       id="path13525-2"
       inkscape:connector-curvature="0" />
    <path
       style="display:inline;fill:none;stroke:none;stroke-width:0.29934099;stroke-miterlimit:4;stroke-dasharray:none;stroke-opacity:1"
       d="m 76.828719,76.756388 a 44.969324,44.970446 0 0 0 3e-6,-63.597943 44.969324,44.970446 0 0 0 -58.96049,-4.0181232 7.3031477,7.3033299 0 0 0 -1.976231,-3.6505787 7.3031477,7.3033299 0 0 0 -10.3281492,-9e-7 7.3031477,7.3033299 0 0 0 -1e-7,10.3284008 7.3031477,7.3033299 0 0 0 3.6479295,1.979207 44.969324,44.970446 0 0 0 4.0207608,58.958856 44.969324,44.970446 0 0 0 63.596177,1.82e-4 z"
       id="path17741-7"
       inkscape:connector-curvature="0" />
    <path
       style="display:inline;fill:none;stroke:#0000ff;stroke-width:0.302607;stroke-miterlimit:4;stroke-dasharray:none;stroke-opacity:1"
       d="m 10.334302,16.695858 a 5.7600867,5.7601392 0 0 1 -3.65252,-1.671812 5.7600867,5.7601392 0 0 1 -3e-7,-8.1457429 5.7600867,5.7601392 0 0 1 8.1458503,-1.814e-4 5.7600867,5.7601392 0 0 1 1.66744,3.6558173 44.757093,44.757501 0 0 0 -3.24766,2.910055 44.757093,44.757501 0 0 0 -2.91311,3.251864 z"
       id="path13525-0-0"
       inkscape:connector-curvature="0" />
    <path
       style="display:inline;fill:none;stroke:#ff0000;stroke-width:0.302607;stroke-miterlimit:4;stroke-dasharray:none;stroke-opacity:1"
       d="m 76.543453,76.74061 a 44.757093,44.757501 0 0 0 -10e-7,-63.296797 44.757093,44.757501 0 0 0 -58.68223,-3.9990951 7.268747,7.2686807 90 0 0 -1.96691,-3.6332925 7.268747,7.2686807 90 0 0 -10.2794005,4e-7 7.268747,7.2686807 90 0 0 2e-7,10.2794882 7.268747,7.2686807 90 0 0 3.6307201,1.969831 44.757093,44.757501 0 0 0 4.0017802,58.679671 44.757093,44.757501 0 0 0 63.296041,1.94e-4 z"
       id="path17741-9-0"
       inkscape:connector-curvature="0" />
    <path
       style="fill:none;stroke:#00ff00;stroke-width:0.26458299px;stroke-linecap:butt;stroke-linejoin:miter;stroke-opacity:1"
       d="m 16.389562,79.627005 c 0,0 27.597169,-12.636406 38.62369,-23.206374 11.02652,-10.569966 25.513567,-38.533289 25.513567,-38.533289"
       id="path2907"
       sodipodi:nodetypes="czc"
       inkscape:connector-curvature="0" />
    <path
       style="display:inline;fill:none;stroke:#00ff00;stroke-width:0.26458299px;stroke-linecap:butt;stroke-linejoin:miter;stroke-opacity:1"
       d="m 3.1785316,61.230274 c 0,0 24.6972994,-11.42033 35.7238204,-21.990297 C 49.928871,28.670009 62.971832,4.1912129 62.971832,4.1912129"
       id="path2907-8"
       sodipodi:nodetypes="csc"
       inkscape:connector-curvature="0" />
    <path
       style="display:inline;fill:none;stroke:#00ff00;stroke-width:0.197602px;stroke-linecap:butt;stroke-linejoin:miter;stroke-opacity:1"
       d="m 1.4025558,43.107649 c 0.3072838,0.108871 0.4732035,0.438153 0.3673052,0.737101 -0.013783,0.03891 -0.031884,0.07618 -0.053992,0.111167 -0.1292213,0.20449 -0.3785508,0.30615 -0.6224742,0.253132 -0.025798,-0.0056 -0.051211,-0.01293 -0.076069,-0.02185 -0.0628728,-0.02257 -0.12150685,-0.0553 -0.17344098,-0.09682 0,0 -8e-8,0 -8e-8,0 0,0 -5e-8,0 -5e-8,0 0,0 -4e-8,0 -4e-8,0 -0.0348992,-0.0279 -0.066469,-0.05953 -0.0941298,-0.09427 -10e-9,0 -2e-8,0 -3e-8,0 -0.05817,-0.07324 -0.0974584,-0.157719 -0.11564844,-0.247971 0,0 -2e-8,0 -2e-8,0 -0.008587,-0.04286 -0.0122076,-0.08644 -0.0108072,-0.129867 0,0 0,0 0,0 0.001887,-0.05851 0.0128678,-0.116197 0.0325644,-0.171056 0.0106497,-0.02966 0.0237993,-0.05836 0.0393215,-0.08581 0.11794756,-0.208912 0.35794145,-0.32098 0.60244175,-0.280754 0.035668,0.0059 0.070792,0.01491 0.1049287,0.027 0,0 8e-7,1e-6 8e-7,1e-6 z m 4.6127059,-2.296155 c 0.310564,0.09973 0.4856917,0.424209 0.3887904,0.726004 -0.096902,0.301798 -0.4290639,0.465486 -0.7403557,0.364787 -0.3112923,-0.100699 -0.4828906,-0.427053 -0.3856265,-0.727691 0.097264,-0.300642 0.4266265,-0.462831 0.737191,-0.363101 3e-7,1e-6 5e-7,1e-6 8e-7,1e-6 z m 4.5473773,-2.423942 c 0.313219,0.09094 0.497493,0.41031 0.40912,0.714739 -0.08837,0.304432 -0.415884,0.477431 -0.729901,0.385489 -0.3140174,-0.09194 -0.494614,-0.413399 -0.4058235,-0.716616 0.088791,-0.303219 0.4133835,-0.474551 0.7266035,-0.383613 0,0 0,0 1e-6,10e-7 z m 4.470848,-2.558522 c 0.315884,0.08046 0.51117,0.393231 0.432894,0.700618 -0.07828,0.307401 -0.400444,0.491332 -0.717438,0.409569 -0.317003,-0.08177 -0.507486,-0.3975 -0.428591,-0.703293 0.0789,-0.305808 0.397258,-0.487357 0.713134,-0.406894 10e-7,0 10e-7,0 10e-7,0 z m 4.361419,-2.730229 c 0.07912,0.01639 0.154281,0.04827 0.220786,0.09371 0,0 0,0 0,0 0.128635,0.08787 0.217073,0.22115 0.245388,0.370926 0,0 0,0 0,0 0.01349,0.07141 0.01289,0.144523 -0.0018,0.215493 -0.06438,0.310816 -0.378599,0.509287 -0.69907,0.441553 -0.320482,-0.06773 -0.524095,-0.375099 -0.458831,-0.683829 0.06527,-0.308742 0.37458,-0.503938 0.693534,-0.437858 0,0 0,0 0,1e-6 z m 4.203024,-2.956735 c 0.321908,0.04435 0.553802,0.331036 0.510465,0.646382 -0.04335,0.315421 -0.345853,0.535798 -0.670846,0.488647 -0.32503,-0.04716 -0.546257,-0.34246 -0.500945,-0.654185 0.04532,-0.3118 0.339452,-0.525193 0.661325,-0.480845 0,1e-6 1e-6,1e-6 1e-6,1e-6 z m 3.86872,-3.33436 c 0.324002,0.0038 0.591434,0.257412 0.587826,0.576291 -0.0023,0.203187 -0.116868,0.391798 -0.300702,0.493755 -0.09391,0.05198 -0.200161,0.07805 -0.30728,0.07555 -0.329221,-0.0077 -0.581658,-0.27623 -0.57439,-0.589887 0.0025,-0.108633 0.03646,-0.213792 0.09781,-0.303378 0.109775,-0.159904 0.296235,-0.254696 0.496737,-0.252328 0,1e-6 0,1e-6 1e-6,1e-6 z m 3.413944,-3.808974 c 0.323656,-0.03322 0.616488,0.191317 0.648968,0.507786 0.03248,0.316427 -0.208988,0.601931 -0.536005,0.633186 -0.326948,0.03125 -0.611633,-0.203116 -0.641626,-0.516576 -0.02999,-0.313419 0.204937,-0.591164 0.528662,-0.624396 0,0 0,0 10e-7,0 z m 3.103889,-4.101344 c 0.321595,-0.0523 0.625702,0.156168 0.676655,0.469342 0.05095,0.313163 -0.171329,0.610758 -0.494829,0.66214 -0.323489,0.05138 -0.623645,-0.162768 -0.673124,-0.474452 -0.04948,-0.311673 0.169689,-0.604732 0.491297,-0.65703 0,0 10e-7,0 10e-7,0 z m 2.911045,-4.245499 c 0.31941,-0.06553 0.63152,0.13084 0.695268,0.441487 0.06375,0.310639 -0.145657,0.616668 -0.466532,0.681557 -0.320862,0.06489 -0.630119,-0.135896 -0.69271,-0.445444 -0.06259,-0.30954 0.14455,-0.612063 0.463973,-0.6776 0,0 10e-7,0 10e-7,0 z m 2.76332,-4.349075 c 0.317423,-0.07514 0.635027,0.112164 0.708047,0.420594 0.07302,0.308428 -0.12671,0.620218 -0.445242,0.694909 -0.31853,0.07469 -0.634114,-0.115987 -0.70624,-0.423626 -0.07213,-0.307639 0.126009,-0.61674 0.443434,-0.691877 10e-7,0 10e-7,0 10e-7,0 z m 2.644506,-4.4238381 c 0.315387,-0.083388 0.637721,0.095656 0.718744,0.4020534 0.08102,0.3063977 -0.110457,0.6232196 -0.4269,0.7062146 -0.31644,0.082994 -0.636953,-0.099279 -0.717114,-0.4049546 -0.08016,-0.3056748 0.109879,-0.6199244 0.425269,-0.7033135 0,0 10e-7,1e-7 10e-7,1e-7 z m 2.527352,-4.4900318 c 0.04284,-0.012645 0.08697,-0.020579 0.131519,-0.02364 0,0 0,0 0,0 0,0 0,0 0,0 0.231619,-0.015671 0.45023,0.1005858 0.556521,0.3006108 0,0 0,10e-8 0,10e-8 0.01758,0.032991 0.03177,0.067657 0.04235,0.1035076 0.06334,0.2145516 -0.0083,0.4482395 -0.182935,0.5976335 -0.06521,0.055787 -0.141842,0.097179 -0.224521,0.1212984 -0.314201,0.091661 -0.639337,-0.082229 -0.727781,-0.3854458 -0.02501,-0.085757 -0.02902,-0.176269 -0.01171,-0.2643178 0.04187,-0.2130543 0.202777,-0.38655 0.416559,-0.4496472 10e-7,1e-7 10e-7,1e-7 10e-7,2e-7 z"
       id="path2907-8-3"
       sodipodi:nodetypes="csc"
       inkscape:original-d="m 0.68470772,43.895267 c 0,0 18.44500428,-8.529193 26.68008328,-16.423299 C 35.599869,19.577863 45.340914,1.2960462 45.340914,1.2960462"
       inkscape:path-effect="#path-effect4441"
       inkscape:connector-curvature="0" />
    <path
       style="display:inline;fill:none;stroke:#00ff00;stroke-width:0.20815501px;stroke-linecap:butt;stroke-linejoin:miter;stroke-opacity:1"
       d="m 42.72175,81.619515 c 1.45935,0.448287 2.260567,1.976641 1.7787,3.419385 -0.481867,1.442744 -2.064344,2.253542 -3.523694,1.805257 -1.459351,-0.448286 -2.242947,-1.985899 -1.76108,-3.428644 0.481866,-1.442746 2.046723,-2.244285 3.506074,-1.795998 z m 6.771126,-3.477646 c 1.439895,0.415158 2.28282,1.921341 1.817355,3.399038 -0.03377,0.107205 -0.07406,0.21255 -0.120662,0.31546 -0.592307,1.259207 -2.056462,1.904251 -3.401532,1.498243 -1.468758,-0.443344 -2.267606,-1.972944 -1.795146,-3.410747 0.432749,-1.316957 1.794281,-2.119086 3.180508,-1.87365 0.107863,0.01748 0.214548,0.0414 0.319477,0.07166 z m 6.479956,-3.801812 c 1.462013,0.336535 2.411918,1.778149 2.028025,3.276913 -0.384222,1.500055 -1.953033,2.442437 -3.44065,2.076094 -1.48845,-0.366549 -2.308454,-1.885577 -1.910031,-3.347315 0.398769,-1.463012 1.861457,-2.34204 3.322656,-2.005692 z m 6.182053,-4.186334 c 1.472208,0.219171 2.576096,1.548646 2.310858,3.087641 -0.266503,1.546341 -1.792798,2.60249 -3.310998,2.335581 -0.576275,-0.101313 -1.094401,-0.384556 -1.484475,-0.803363 -0.200095,-0.214728 -0.362557,-0.461151 -0.482287,-0.729025 -0.233416,-0.522554 -0.295011,-1.107435 -0.182561,-1.670617 0.296345,-1.484185 1.680219,-2.438946 3.149463,-2.220217 z m 5.451359,-4.828082 c 1.474338,-0.03418 2.813507,1.060604 2.813057,2.631719 -2.36e-4,0.826214 -0.389086,1.642703 -1.065566,2.206903 0,0 0,0 0,0 -0.553158,0.457091 -1.23452,0.693954 -1.907681,0.672441 -1.573896,-0.0503 -2.616449,-1.430724 -2.535599,-2.89979 0.03516,-0.638929 0.277742,-1.236202 0.68204,-1.696351 0,0 0,0 0,0 0.499973,-0.562579 1.226787,-0.896679 2.013749,-0.914922 z m 4.682143,-5.742652 c 0.219367,-0.03389 0.441994,-0.04177 0.662934,-0.02314 0,0 0,0 0,0 1.009688,0.0861 1.892378,0.715341 2.270529,1.665598 0,0 0,0 0,0 0.08275,0.207025 0.139589,0.424644 0.168907,0.648173 0.200066,1.52535 -0.91345,2.998474 -2.466179,3.20134 -1.545525,0.201924 -2.835568,-0.947794 -2.994627,-2.4311 -0.158743,-1.480342 0.860328,-2.829418 2.358436,-3.060871 z m 4.281499,-6.184953 c 1.476694,-0.320167 2.939871,0.596504 3.229114,2.106547 0.289089,1.509232 -0.720198,3.017792 -2.231629,3.323139 -1.510215,0.305101 -2.906675,-0.709985 -3.169462,-2.19435 -0.262648,-1.483569 0.694077,-2.914907 2.171977,-3.235336 z m 3.998663,-6.414521 c 1.4652,-0.381044 2.959546,0.483189 3.309629,1.977107 0.345236,1.473229 -0.562596,2.99375 -2.02515,3.389508 -0.01736,0.0047 -0.03476,0.0092 -0.0522,0.01357 -1.488824,0.371391 -2.940491,-0.563248 -3.270946,-2.040486 -0.0039,-0.01738 -0.0076,-0.03479 -0.01116,-0.05224 -0.298303,-1.462834 0.604377,-2.911552 2.049831,-3.287461 z m 3.75971,-6.560468 c 0.312151,-0.09314 0.638311,-0.130414 0.962539,-0.110476 l 0,0 c 0.191854,0.01242 0.382777,0.04493 0.568013,0.09652 l 0,0 0,0 10e-7,0 c 0.261257,0.115491 0.398993,0.170831 0.471436,0.197047 0.07035,0.02546 0.07823,0.02301 0.07893,0.02249 0,0 0,0 0,0 0,0 0,0 0,0 0,0 0,0 0,0 0,0 0,0 0,0 0,0 0,0 0,0 0,0 0,0 0,0 0,0 0,0 0,0 0,0 0,0 0,0 0,0 0,0 0,0 0,0 0,0 0,0 0,0 0,0 0,0 0,0 0,0 0,0 0,0 0,0 0,0 0,0 0,0 0,0 0,0 0,0 0,0 0,0 0,0 0,0 0,0 0,0 0,0 0,0 0,0 0,0 0,0 0,0 0,0 4e-5,-2.9e-5 5e-5,-2.4e-5 4.8e-5,2.6e-5 0,0 0,0 0,0 0,0 0,0 0,0 0,0 0,0 0,0 0,0 0,0 0,0 0,0 0,0 0,0 0,0 0,0 0,0 0,0 0,0 0,0 0,0 0,0 0,0 0,0 0,0 0,0 0,0 0,0 0,0 0,0 0,0 0,0 0,0 0,0 0,0 0,0 0,0 0,0 0,0 0,0 0,0 0,0 0,0 0,0 0,0 0,0 0,0 0,0 0,0 0,0 0,0 0,0 0,0 0,0 0,0 0,0 -3.1e-5,8.73e-4 0.0023,0.0088 0.06256,0.05315 0.06207,0.0457 0.184512,0.129453 0.425614,0.282593 l 0,0 1e-6,1e-6 0,0 c 0.145456,0.126914 0.275866,0.269647 0.390187,0.426753 l 0,0 c 0.193097,0.263607 0.336203,0.562073 0.423178,0.881545 0.01807,0.06636 0.03366,0.13345 0.04677,0.201125 0.181589,0.937976 -0.132317,1.921567 -0.825661,2.594114 -0.332693,0.322722 -0.736343,0.55767 -1.174474,0.683985 -1.473968,0.424952 -2.959141,-0.454934 -3.343245,-1.919746 -0.114571,-0.436923 -0.121487,-0.896356 -0.02043,-1.338221 0.210313,-0.919751 0.864771,-1.671923 1.741895,-2.005619 0.06343,-0.02413 0.127684,-0.04591 0.192633,-0.06529 z"
       id="path2907-8-4"
       sodipodi:nodetypes="csc"
       inkscape:path-effect="#path-effect4738"
       inkscape:original-d="m 39.368223,85.502772 c 0,0 19.430031,-8.984682 28.104892,-17.300359 8.67486,-8.315679 18.936109,-27.573807 18.936109,-27.573807"
       inkscape:connector-curvature="0" />
    <path
       sodipodi:type="star"
       style="fill:none;stroke:#0000ff;stroke-width:1.13385999"
       id="path3333"
       inkscape:flatsided="false"
       sodipodi:sides="6"
       sodipodi:cx="112.83534"
       sodipodi:cy="565.38361"
       sodipodi:r1="38.606377"
       sodipodi:r2="14.477391"
       sodipodi:arg1="-1.8325957"
       sodipodi:arg2="-1.3089969"
       inkscape:rounded="0"
       inkscape:randomized="0"
       transform="matrix(0,0.26458333,-0.26458333,0,188.86996,24.941302)"
       inkscape:transform-center-y="-1.884612e-06"
       d="m 102.84328,528.09271 13.73909,23.30681 23.5518,-13.31474 -13.31474,23.5518 23.30681,13.73909 -27.05384,0.245 -0.24499,27.05383 -13.73909,-23.30681 -23.551809,13.31475 13.314745,-23.55181 -23.30681,-13.73909 27.053834,-0.245 z" />
    <path
       sodipodi:type="star"
       style="display:inline;fill:none;stroke:#0000ff;stroke-width:1.13385999"
       id="path3333-1"
       inkscape:flatsided="false"
       sodipodi:sides="6"
       sodipodi:cx="112.83534"
       sodipodi:cy="565.38361"
       sodipodi:r1="38.606377"
       sodipodi:r2="14.477391"
       sodipodi:arg1="-1.8325957"
       sodipodi:arg2="-1.3089969"
       inkscape:rounded="0"
       inkscape:randomized="0"
       transform="matrix(0,0.16945292,-0.16945292,0,120.61374,44.66745)"
       d="m 102.84328,528.09271 13.73909,23.30681 23.5518,-13.31474 -13.31474,23.5518 23.30681,13.73909 -27.05384,0.245 -0.24499,27.05383 -13.73909,-23.30681 -23.551809,13.31475 13.314745,-23.55181 -23.30681,-13.73909 27.053834,-0.245 z" />
    <path
       sodipodi:type="star"
       style="display:inline;fill:none;stroke:#0000ff;stroke-width:1.13385999"
       id="path3333-1-1"
       inkscape:flatsided="false"
       sodipodi:sides="6"
       sodipodi:cx="112.83534"
       sodipodi:cy="565.38361"
       sodipodi:r1="38.606377"
       sodipodi:r2="14.477391"
       sodipodi:arg1="-1.8325957"
       sodipodi:arg2="-1.3089969"
       inkscape:rounded="0"
       inkscape:randomized="0"
       transform="matrix(0,0.16945292,-0.16945292,0,158.18088,7.1003117)"
       d="m 102.84328,528.09271 13.73909,23.30681 23.5518,-13.31474 -13.31474,23.5518 23.30681,13.73909 -27.05384,0.245 -0.24499,27.05383 -13.73909,-23.30681 -23.551809,13.31475 13.314745,-23.55181 -23.30681,-13.73909 27.053834,-0.245 z" />
    <path
       sodipodi:type="star"
       style="display:inline;fill:none;stroke:#0000ff;stroke-width:1.13385999"
       id="path3333-1-1-0"
       inkscape:flatsided="false"
       sodipodi:sides="6"
       sodipodi:cx="112.83534"
       sodipodi:cy="565.38361"
       sodipodi:r1="38.606377"
       sodipodi:r2="14.477391"
       sodipodi:arg1="-1.8325957"
       sodipodi:arg2="-1.3089969"
       inkscape:rounded="0"
       inkscape:randomized="0"
       transform="matrix(0,0.09820938,-0.09820938,0,123.43168,5.505146)"
       d="m 102.84328,528.09271 13.73909,23.30681 23.5518,-13.31474 -13.31474,23.5518 23.30681,13.73909 -27.05384,0.245 -0.24499,27.05383 -13.73909,-23.30681 -23.551809,13.31475 13.314745,-23.55181 -23.30681,-13.73909 27.053834,-0.245 z" />
    <path
       sodipodi:type="star"
       style="display:inline;fill:none;stroke:#0000ff;stroke-width:1.13385999"
       id="path3333-1-1-0-9"
       inkscape:flatsided="false"
       sodipodi:sides="6"
       sodipodi:cx="112.83534"
       sodipodi:cy="565.38361"
       sodipodi:r1="38.606377"
       sodipodi:r2="14.477391"
       sodipodi:arg1="-1.8325957"
       sodipodi:arg2="-1.3089969"
       inkscape:rounded="0"
       inkscape:randomized="0"
       transform="matrix(0,0.09820938,-0.09820938,0,70.699853,58.236975)"
       d="m 102.84328,528.09271 13.73909,23.30681 23.5518,-13.31474 -13.31474,23.5518 23.30681,13.73909 -27.05384,0.245 -0.24499,27.05383 -13.73909,-23.30681 -23.551809,13.31475 13.314745,-23.55181 -23.30681,-13.73909 27.053834,-0.245 z" />
    <path
       sodipodi:type="star"
       style="fill:none;stroke:#0000ff;stroke-width:1.13385999"
       id="path3821"
       inkscape:flatsided="false"
       sodipodi:sides="6"
       sodipodi:cx="112.83534"
       sodipodi:cy="565.38361"
       sodipodi:r1="38.606377"
       sodipodi:r2="14.477391"
       sodipodi:arg1="-1.8325957"
       sodipodi:arg2="-1.3089969"
       inkscape:rounded="0"
       inkscape:randomized="0"
       transform="matrix(0,0.26458333,-0.26458333,0,202.97398,10.837279)"
       inkscape:transform-center-y="-1.884612e-06"
       d="m 102.84328,528.09271 13.73909,23.30681 23.5518,-13.31474 -13.31474,23.5518 23.30681,13.73909 -27.05384,0.245 -0.24499,27.05383 -13.73909,-23.30681 -23.551809,13.31475 13.314745,-23.55181 -23.30681,-13.73909 27.053834,-0.245 z" />
    <path
       style="display:inline;fill:none;stroke:#0000ff;stroke-width:0.29616401;stroke-miterlimit:4;stroke-dasharray:none;stroke-opacity:1"
       d="m 109.90635,12.293759 a 5.5062386,5.7718164 89.997236 0 1 -3.10166,-2.4473401 5.5062386,5.7718164 89.997236 0 1 2.11256,-7.5213675 5.5062386,5.7718164 89.997236 0 1 7.88435,2.0152053 5.5062386,5.7718164 89.997236 0 1 0.66578,3.7881412 42.78464,44.848236 89.997236 0 0 -3.8981,1.8834911 42.78464,44.848236 89.997236 0 0 -3.66293,2.28187 z"
       id="path13525-0-0-3"
       inkscape:connector-curvature="0" />
    <path
       style="display:inline;fill:none;stroke:#ff0000;stroke-width:0.29616401;stroke-miterlimit:4;stroke-dasharray:none;stroke-opacity:1"
       d="m 158.41731,84.116899 a 42.78464,44.848236 89.997236 0 0 16.41577,-58.445058 42.78464,44.848236 89.997236 0 0 -55.76093,-18.2111742 6.9483487,7.2834825 89.997234 0 0 -0.96148,-3.841433 6.9483487,7.2834825 89.997234 0 0 -9.94935,-2.5432357 6.9483487,7.2834825 89.997234 0 0 -2.66594,9.4915619 6.9483487,7.2834825 89.997234 0 0 3.00328,2.717119 42.78464,44.848236 89.997236 0 0 -11.345044,55.171925 42.78464,44.848236 89.997236 0 0 61.263694,15.660295 z"
       id="path17741-9-0-0"
       inkscape:connector-curvature="0" />
    <path
       id="path5957"
       style="fill:none;stroke:#0000ff;stroke-width:0.36027399"
       d="m 165.38184,70.973259 -8.82507,-2.800451 -4.58346,12.392504 a 38.533216,36.759903 4.0014477e-5 0 0 3.40048,-1.652736 38.533216,36.759903 4.0014477e-5 0 0 10.00805,-7.939317 z"
       inkscape:connector-curvature="0" />
    <path
       id="path6590"
       style="fill:none;stroke:#0000ff;stroke-width:0.36027399"
       d="m 174.55092,49.515376 -12.01987,10.181352 6.21045,6.921441 a 38.533216,36.759903 4.0014477e-5 0 0 5.80942,-17.102793 z"
       inkscape:connector-curvature="0" />
    <path
       id="path6588"
       style="fill:none;stroke:#0000ff;stroke-width:0.36027399"
       d="m 151.97331,80.565312 4.58346,-12.392504 8.82507,2.800451 m 3.35966,-4.35509 -6.21045,-6.921441 12.01987,-10.181352 m 0.0824,-1.98305 -16.80982,2.990895 -4.02386,-18.69711 -6.65753,17.999435 -18.98542,-6.023951 13.01113,14.500031 -14.96156,12.673159 19.66912,-3.49965 3.0694,14.260839"
       sodipodi:nodetypes="ccccccccccccccc"
       inkscape:connector-curvature="0" />
    <path
       id="path6586"
       style="fill:none;stroke:#0000ff;stroke-width:0.36027399"
       d="m 152.51026,13.825815 -0.55091,3.297489 8.44097,1.433695 a 38.533216,36.759903 4.0014477e-5 0 0 -7.89006,-4.731184 z"
       inkscape:connector-curvature="0" />
    <path
       id="path6604"
       style="fill:none;stroke:#0000ff;stroke-width:0.36027399"
       d="m 141.6468,10.710076 5.66436,4.385015 2.19002,-2.481079 a 38.533216,36.759903 4.0014477e-5 0 0 -7.85438,-1.903936 z"
       inkscape:connector-curvature="0" />
    <path
       id="path6602"
       style="fill:none;stroke:#0000ff;stroke-width:0.36027399"
       d="m 149.50118,12.614012 -2.19002,2.481079 -5.66436,-4.385015 c -0.43265,-0.06233 -0.86638,-0.117617 -1.301,-0.165851 l 2.79982,7.376783 -8.92139,3.256699 9.40431,1.597856 -1.50409,8.99892 6.15228,-6.970707 7.41731,5.74222 -3.25177,-8.568137 8.41178,-3.071271 c -0.15032,-0.11762 -0.30156,-0.234153 -0.45373,-0.349589 l -8.44097,-1.433695 0.55091,-3.297489"
       sodipodi:nodetypes="ccccccccccccccc"
       inkscape:connector-curvature="0" />
    <path
       style="fill:none;stroke:#0000ff;stroke-width:0.36027399"
       d="m 116.84049,15.242416 a 38.533216,36.759903 4.0014477e-5 0 0 -0.7701,0.481192 l -3.07078,13.489036 14.72227,7.903136 -16.80828,1.614229 -3.33001,15.799359 -6.80308,-14.751269 -2.437213,0.270573 a 38.533216,36.759903 4.0014477e-5 0 0 4.393023,25.408814 38.533216,36.759903 4.0014477e-5 0 0 46.20846,16.278488 l -3.0694,-14.260839 -19.66912,3.49965 14.96156,-12.673159 -13.01113,-14.500031 18.98542,6.023951 6.65753,-17.999435 4.02386,18.69711 16.80982,-2.990895 a 38.533216,36.759903 4.0014477e-5 0 0 -5.15536,-18.834823 38.533216,36.759903 4.0014477e-5 0 0 -8.62391,-9.790915 l -8.41178,3.071271 3.25177,8.568137 -7.41731,-5.74222 -6.15228,6.970707 1.50409,-8.99892 -9.40431,-1.597856 8.92139,-3.256699 -2.79982,-7.376783 a 38.533216,36.759903 4.0014477e-5 0 0 -23.50531,4.698191 z"
       id="path6600"
       inkscape:connector-curvature="0" />
    <path
       id="path6253"
       style="fill:none;stroke:#0000ff;stroke-width:0.36027399"
       d="m 98.343297,40.048672 2.437213,-0.270573 6.80308,14.751269 3.33001,-15.799359 16.80828,-1.614229 -14.72227,-7.903136 3.07078,-13.489036"
       sodipodi:nodetypes="ccccccc"
       inkscape:connector-curvature="0" />
    <path
       style="display:inline;fill:none;stroke:#0000ff;stroke-width:0.30322301;stroke-miterlimit:4;stroke-dasharray:none;stroke-opacity:1"
       d="m 109.90636,103.88682 a 5.7718143,5.7718669 15 0 1 -3.10166,-2.5654 5.7718143,5.7718669 15 0 1 2.11256,-7.884204 5.7718143,5.7718669 15 0 1 7.88435,2.112413 5.7718143,5.7718669 15 0 1 0.66578,3.970892 44.848219,44.848628 15 0 0 -3.8981,1.974349 44.848219,44.848628 15 0 0 -3.66293,2.39195 z"
       id="path13525-0-0-3-1"
       inkscape:connector-curvature="0" />
    <path
       style="display:inline;fill:none;stroke:#ff0000;stroke-width:0.30322301;stroke-miterlimit:4;stroke-dasharray:none;stroke-opacity:1"
       d="m 158.41734,179.17476 a 44.848219,44.848628 15 0 0 16.41576,-61.2645 44.848219,44.848628 15 0 0 -55.76094,-19.08969 7.2834798,7.2835463 15 0 0 -0.96148,-4.026745 7.2834798,7.2835463 15 0 0 -9.94935,-2.66592 7.2834798,7.2835463 15 0 0 -2.66595,9.949445 7.2834798,7.2835463 15 0 0 3.00328,2.84819 44.848219,44.848628 15 0 0 -11.345041,57.83346 44.848219,44.848628 15 0 0 61.263721,16.41576 z"
       id="path17741-9-0-0-71"
       inkscape:connector-curvature="0" />
    <path
       id="use9059"
       style="fill:none;stroke:#00ff00;stroke-width:0.119389"
       d="m 104.98533,107.72698 2.87953,8.27977 -8.66328,-1.56584 a 44.926229,44.926229 0 0 0 -4.59e-4,2.7e-4 l 8.647419,1.65332 -5.72246,6.76106 5.79022,-6.70272 2.99379,8.33578 -2.90952,-8.36589 8.71605,1.57543 -8.69973,-1.66318 5.72227,-6.76035 -5.79023,6.70272 -2.9627,-8.25088 a 44.926229,44.926229 0 0 0 -9.2e-4,5.3e-4 z m 22.86576,-6.00255 4.22034,7.78727 -8.85596,-0.14934 8.85411,0.2383 -4.55745,7.5952 4.63376,-7.54897 4.29851,7.74453 -4.22034,-7.78727 8.8564,0.14907 -8.8541,-0.23829 4.557,-7.59494 -4.63357,7.54826 z m -36.112695,30.69626 a 44.926229,44.926229 0 0 0 -0.0075,0.0408 l 4.046584,0.67186 z m 61.465645,-33.618093 -3.57718,5.103933 3.63625,-5.078246 a 44.926229,44.926229 0 0 0 -0.0591,-0.02569 z m 3.26362,1.518523 2.05542,4.41345 -1.98473,-4.37593 a 44.926229,44.926229 0 0 0 -0.0707,-0.0375 z m -59.714857,36.18346 1.837346,8.66502 -7.472836,-2.3488 a 44.926229,44.926229 0 0 0 4.41e-4,0.0111 l 7.445483,2.4226 -6.224061,5.7131 a 44.926229,44.926229 0 0 0 0.0014,0.005 l 6.282269,-5.65164 1.925505,8.64581 -1.837792,-8.66476 8.449632,2.65603 -8.422712,-2.74093 6.525012,-5.9903 -6.584911,5.92383 z m 27.069127,-12.13769 1.06853,8.7926 -8.18365,-3.38839 8.14914,3.4705 -7.02648,5.39309 7.08017,-5.32185 1.15763,8.78122 -1.06853,-8.7926 8.1832,3.38864 -8.14869,-3.47075 7.02602,-5.39283 -7.08016,5.32185 z m 18.99573,-10.36509 2.13641,8.5958 -8.53709,-2.36218 8.51255,2.4481 -6.31381,6.21217 6.37634,-6.14841 2.22256,8.57416 -2.13595,-8.59606 8.53637,2.36199 -8.51229,-2.44765 6.31382,-6.21216 -6.37615,6.1477 z m 18.44773,-4.65722 4.03753,7.88385 -8.85026,-0.35591 8.8461,0.44501 -4.73308,7.48673 4.80857,-7.43883 4.11673,7.84291 -4.03753,-7.88385 8.85026,0.35591 -8.8461,-0.44501 4.19683,-6.6384 a 44.926229,44.926229 0 0 0 -0.007,-0.008 l -4.26489,6.59818 z m -49.78543,52.16487 1.87257,8.65665 -8.46052,-2.62104 8.43386,2.70639 -5.46817,5.06084 a 44.926229,44.926229 0 0 0 0.0108,0.009 l 5.5175,-5.00442 1.96029,8.6377 -1.87283,-8.6571 8.46033,2.62175 -8.43342,-2.70665 6.5005,-6.0162 -6.56129,5.95026 z m 60.15568,-33.39633 8.27172,2.8885 a 44.926229,44.926229 0 0 0 -0.0204,-0.10062 z m -42.31036,25.07246 3.31156,8.21509 -8.78199,-1.1511 8.77012,1.23927 -5.38754,7.03048 5.45811,-6.97556 3.39465,8.18088 -3.31201,-8.21484 8.78244,1.15085 -8.77012,-1.23928 5.38754,-7.03047 -5.45856,6.97581 z m 24.11516,-13.71123 3.28097,8.22737 -8.7777,-1.18407 8.76538,1.2725 -5.41428,7.01005 5.48485,-6.95512 3.36362,8.1934 -3.28072,-8.22691 8.77745,1.18362 -8.76513,-1.27206 5.41384,-7.00978 -5.48441,6.95486 z m 26.48603,-8.37853 -6.57949,5.78617 6.60004,-5.68742 a 44.926229,44.926229 0 0 0 -0.0206,-0.0987 z m -34.73954,32.64794 0.55588,8.83984 -7.97289,-3.85805 7.93343,3.93883 -7.32764,4.97503 7.37755,-4.901 0.64507,8.83379 -0.55588,-8.83984 7.97244,3.85831 -7.93343,-3.93883 7.32809,-4.97529 -7.378,4.90126 z m -20.01815,14.46937 0.17199,5.67903 a 44.926229,44.926229 0 0 0 0.058,0.0156 z m 43.64908,-19.74416 3.15287,8.27682 -8.75847,-1.31955 8.74499,1.40805 -3.67707,4.61091 a 44.926229,44.926229 0 0 0 0.2639,-0.27614 l 3.48266,-4.27863 0.0345,0.0877 a 44.926229,44.926229 0 0 0 0.0625,-0.0833 l -0.014,-0.0367 0.036,0.005 a 44.926229,44.926229 0 0 0 0.0585,-0.081 l -0.0803,-0.0128 0.80778,-1.01288 a 44.926229,44.926229 0 0 0 0.49599,-0.73061 l -1.3737,1.6876 z m -35.75852,23.93496 -3.69981,2.28796 a 44.926229,44.926229 0 0 0 0.0699,0.008 z"
       inkscape:connector-curvature="0" />
    <path
       style="display:inline;fill:none;stroke:#0000ff;stroke-width:0.303271;stroke-miterlimit:4;stroke-dasharray:none;stroke-opacity:1"
       d="m 10.356979,107.53557 a 5.7727285,5.7727811 0 0 1 -3.660536,-1.67548 5.7727285,5.7727811 0 0 1 -3e-7,-8.163622 5.7727285,5.7727811 0 0 1 8.1637273,-1.82e-4 5.7727285,5.7727811 0 0 1 1.6711,3.663844 44.855322,44.855731 0 0 0 -3.254787,2.91644 44.855322,44.855731 0 0 0 -2.919504,3.259 z"
       id="path13525-0-0-3-9"
       inkscape:connector-curvature="0" />
    <path
       style="display:inline;fill:none;stroke:#ff0000;stroke-width:0.303271;stroke-miterlimit:4;stroke-dasharray:none;stroke-opacity:1"
       d="m 76.711441,167.7121 a 44.855322,44.855731 0 0 0 -2e-6,-63.43571 44.855322,44.855731 0 0 0 -58.81102,-4.00787 7.2846334,7.2846998 0 0 0 -1.971227,-3.641271 7.2846334,7.2846998 0 0 0 -10.301961,0 7.2846334,7.2846998 0 0 0 2e-7,10.302051 7.2846334,7.2846998 0 0 0 3.6386885,1.97415 44.855322,44.855731 0 0 0 4.0105623,58.80846 44.855322,44.855731 0 0 0 63.434959,1.9e-4 z"
       id="path17741-9-0-0-7"
       inkscape:connector-curvature="0" />
    <path
       id="path9481-5"
       style="display:inline;fill:none;stroke:#0000ff;stroke-width:0.0730219"
       inkscape:transform-center-x="3.9558043e-06"
       d="m 18.417853,137.10144 -0.665183,3.97527 3.383883,-2.18986 3.110156,2.56339 -0.204858,-4.02516 2.829034,-1.05804 2.879293,1.47232 -0.665183,3.97527 3.383535,-2.19021 2.282982,1.88169 0.14653,2.88176 -3.775332,1.41188 3.58874,1.83531 -0.507756,3.03776 -2.379264,1.54014 -1.640136,-1.03286 -0.193717,-1.35544 -24.9326387,-4.11025 11.8134217,-9.30508 z m -2.415996,-30.67035 23.466419,9.3732 16.025886,-19.537145 3.213084,22.169565 -1.901447,-0.94985 0.665527,-3.97563 -3.38388,2.19057 -3.110502,-2.56374 0.205211,4.02552 -3.775688,1.41153 3.588748,1.83531 -0.542545,3.24333 -2.142782,1.38728 -3.110504,-2.56374 0.205218,4.02553 -2.05739,0.76919 -2.391917,-1.22319 0.665186,-3.97527 -3.383537,2.19021 -3.110504,-2.56374 0.204513,4.02553 -3.775331,1.41188 3.588746,1.83531 -0.500385,2.99103 -1.801927,1.16661 -3.110504,-2.56374 0.205211,4.02552 -2.829035,1.05805 -2.879291,-1.47233 0.677062,-4.08775 z m 43.10809,14.84516 24.932631,4.11025 -15.998883,12.60412 -1.322376,-0.65023 0.664829,-3.97563 -3.383536,2.19021 -3.110502,-2.56374 0.204858,4.02588 -2.483619,0.92908 -2.443571,-1.24955 0.665536,-3.97563 -3.384235,2.19022 -2.46641,-2.03279 -0.142661,-2.80479 3.775332,-1.41189 -3.588746,-1.83531 0.542545,-3.24333 2.142776,-1.38729 3.110502,2.56374 -0.20486,-4.02587 2.273564,-0.92281 z m 13.988718,43.39358 -23.466429,-9.37322 -16.02589,19.53717 -2.263149,-16.08934 3.218212,2.5263 -0.204861,-4.02587 3.775333,-1.41189 -3.588747,-1.83531 0.508111,-3.03741 2.379264,-1.54014 3.110149,2.56339 -0.204858,-4.02517 2.338148,-0.87426 2.275601,1.1638 -0.665184,3.97527 3.383535,-2.19021 3.110504,2.56374 -0.205212,-4.02552 3.775689,-1.41153 -3.588749,-1.83531 0.453293,-2.71203 1.864476,-1.20667 3.110503,2.56374 -0.205211,-4.02552 2.484326,-0.92908 2.443216,1.24919 -0.665535,3.97563 3.383888,-2.19057 1.366662,1.10857 z m -37.037172,-32.74542 1.801927,-1.16661 3.110503,2.56374 -0.205213,-4.02552 2.05739,-0.76919 2.39191,1.22318 -0.665183,3.97527 3.383535,-2.19021 2.466757,2.03314 0.142668,2.8048 -3.775332,1.41189 3.58874,1.8353 -0.453292,2.71203 -1.864477,1.20667 -3.110504,-2.56374 0.205212,4.02553 -2.338148,0.87425 -2.275602,-1.1638 0.66483,-3.97563 -3.383529,2.19022 -2.28298,-1.88169 -0.146532,-2.88175 3.775687,-1.41153 -3.588748,-1.83531 z"
       sodipodi:nodetypes="cccccccccccccccccccccccccccccccccccccccccccccccccccccccccccccccccccccccccccccccccccccccccccccccccccccccccccccccccccccccccccccccc"
       inkscape:transform-center-y="3.3998725e-06"
       inkscape:connector-curvature="0" />
  </g>
</svg>
