<?xml version="1.0" encoding="UTF-8" standalone="no"?>
<!-- Created with Inkscape (http://www.inkscape.org/) -->

<svg
   width="1220mm"
   height="600mm"
   viewBox="0 0 1220 600.00001"
   version="1.1"
   id="svg5"
   inkscape:version="1.1.1 (3bf5ae0d25, 2021-09-20)"
   sodipodi:docname="stars.svg"
   xmlns:inkscape="http://www.inkscape.org/namespaces/inkscape"
   xmlns:sodipodi="http://sodipodi.sourceforge.net/DTD/sodipodi-0.dtd"
   xmlns="http://www.w3.org/2000/svg"
   xmlns:svg="http://www.w3.org/2000/svg"
   xmlns:rdf="http://www.w3.org/1999/02/22-rdf-syntax-ns#"
   xmlns:cc="http://creativecommons.org/ns#"
   xmlns:dc="http://purl.org/dc/elements/1.1/">
  <metadata
     id="metadata846">
    <rdf:RDF>
      <cc:Work
         rdf:about="">
        <dc:format>image/svg+xml</dc:format>
        <dc:type
           rdf:resource="http://purl.org/dc/dcmitype/StillImage" />
      </cc:Work>
    </rdf:RDF>
  </metadata>
  <sodipodi:namedview
     id="namedview7"
     pagecolor="#ffffff"
     bordercolor="#666666"
     borderopacity="1.0"
     inkscape:pageshadow="2"
     inkscape:pageopacity="0.0"
     inkscape:pagecheckerboard="true"
     inkscape:document-units="mm"
     showgrid="false"
     inkscape:zoom="1"
     inkscape:cx="238.5"
     inkscape:cy="329.5"
     inkscape:window-width="1920"
     inkscape:window-height="1017"
     inkscape:window-x="1912"
     inkscape:window-y="-8"
     inkscape:window-maximized="1"
     inkscape:current-layer="layer1"
     inkscape:snap-global="false"
     showguides="true"
     inkscape:guide-bbox="true"
     inkscape:object-nodes="false"
     inkscape:snap-center="true"
     inkscape:snap-object-midpoints="true"
     inkscape:snap-grids="true"
     inkscape:object-paths="false"
     inkscape:snap-others="false"
     inkscape:snap-midpoints="true"
     inkscape:snap-bbox="true"
     inkscape:snap-bbox-midpoints="true">
    <inkscape:grid
       type="xygrid"
       id="grid13171" />
  </sodipodi:namedview>
  <defs
     id="defs2">
    <inkscape:path-effect
       effect="bspline"
       id="path-effect2669"
       is_visible="true"
       weight="20"
       steps="2"
       helper_size="0"
       apply_no_weight="true"
       apply_with_weight="true"
       only_selected="false" />
    <pattern
       patternUnits="userSpaceOnUse"
       patternTransform="translate(0.000160318455288,0.000160210947143)"
       height="89.9996771232"
       width="89.9996771232"
       id="Voronoi1649">
      <path
         id="path2397"
         style="stroke:#000000;stroke-width:0.264583333328"
         d="M 31.594,0.000 33.203,3.392 M 33.203,3.392 36.124,4.523 M 36.124,4.523 38.037,0.000 M 36.124,4.523 36.621,4.808 M 24.801,9.559 33.203,3.392 M 16.057,9.285 16.938,0.000 M 16.057,9.285 24.801,9.559 M 30.609,16.545 36.621,4.808 M 30.609,16.545 44.082,8.387 M 36.621,4.808 44.082,8.387 M 55.450,0.000 59.140,4.663 M 59.140,4.663 63.148,0.000 M 24.801,9.559 28.391,18.713 M 28.391,18.713 30.609,16.545 M 5.201,17.517 16.057,9.285 M 44.082,8.387 56.786,13.276 M 56.786,13.276 59.140,4.663 M 88.833,0.000 90.000,4.833 M 0.000,4.833 3.181,18.007 M 3.181,18.007 5.201,17.517 M 5.201,17.517 29.154,26.923 M 28.391,18.713 29.154,26.923 M 0.000,21.857 3.181,18.007 M 89.213,22.810 90.000,21.857 M 56.786,13.276 58.049,19.157 M 55.971,21.313 58.049,19.157 M 81.102,26.540 89.213,22.810 M 29.154,26.923 33.215,31.629 M 58.049,19.157 74.765,26.620 M 74.765,26.620 81.102,26.540 M 28.755,35.883 33.215,31.629 M 33.215,31.629 42.279,31.475 M 42.279,31.475 55.971,21.313 M 89.213,22.810 90.000,23.646 M 0.000,23.646 16.319,40.979 M 16.319,40.979 28.755,35.883 M 55.971,21.313 59.055,48.526 M 14.271,47.181 16.319,40.979 M 14.271,47.181 23.558,52.155 M 23.558,52.155 29.990,52.518 M 28.755,35.883 29.990,52.518 M 42.279,31.475 44.998,48.860 M 29.990,52.518 30.449,53.016 M 30.449,53.016 44.998,48.860 M 59.055,48.526 69.561,51.070 M 69.561,51.070 74.765,26.620 M 44.998,48.860 47.116,52.165 M 47.116,52.165 48.678,53.267 M 48.678,53.267 59.055,48.526 M 9.475,52.568 14.271,47.181 M 9.475,52.568 14.748,59.735 M 0.000,52.167 0.653,54.048 M 0.653,54.048 9.475,52.568 M 81.102,26.540 90.000,52.167 M 48.678,53.267 52.024,61.069 M 14.748,59.735 21.202,63.309 M 21.202,63.309 23.558,52.155 M 69.561,51.070 72.341,58.296 M 0.000,54.781 0.653,54.048 M 86.778,58.394 90.000,54.781 M 30.449,53.016 30.967,63.614 M 30.967,63.614 33.026,64.520 M 33.026,64.520 47.116,52.165 M 0.000,61.020 10.080,69.236 M 10.080,69.236 14.748,59.735 M 86.778,58.394 90.000,61.020 M 21.202,63.309 23.665,65.580 M 23.665,65.580 30.967,63.614 M 33.026,64.520 34.692,66.498 M 34.692,66.498 52.024,61.069 M 52.024,61.069 54.310,64.348 M 10.080,69.236 10.368,70.638 M 54.310,64.348 60.489,65.784 M 60.489,65.784 72.341,58.296 M 72.341,58.296 81.880,61.886 M 81.880,61.886 86.778,58.394 M 10.368,70.638 22.086,69.442 M 22.086,69.442 23.665,65.580 M 49.674,69.874 54.310,64.348 M 34.692,66.498 37.719,72.498 M 37.719,72.498 49.674,69.874 M 37.025,76.294 37.719,72.498 M 37.025,76.294 42.091,80.415 M 6.420,80.367 10.368,70.638 M 22.086,69.442 22.138,81.384 M 22.138,81.384 28.445,83.364 M 28.445,83.364 37.025,76.294 M 6.420,80.367 17.575,83.289 M 17.575,83.289 22.138,81.384 M 42.091,80.415 50.857,84.198 M 49.674,69.874 50.857,84.198 M 81.880,61.886 83.629,80.594 M 83.629,80.594 87.061,82.663 M 87.061,82.663 90.000,81.942 M 0.000,81.942 6.420,80.367 M 60.489,65.784 65.857,86.847 M 65.857,86.847 83.629,80.594 M 28.445,83.364 31.594,90.000 M 38.037,90.000 42.091,80.415 M 16.938,90.000 17.575,83.289 M 50.857,84.198 55.450,90.000 M 63.148,90.000 65.857,86.847 M 87.061,82.663 88.833,90.000 M 67.610,90.000 67.610,90.000 M 53.966,0.000 53.966,0.000 " />
    </pattern>
    <pattern
       patternUnits="userSpaceOnUse"
       patternTransform="translate(0.000160318455288,0.000160210947143)"
       height="89.9996771232"
       width="89.9996771232"
       id="Voronoi8544">
      <path
         id="path2420"
         style="stroke:#000000;stroke-width:0.264583333328"
         d="M 0.000,0.295 0.190,0.000 M 85.350,7.490 90.000,0.295 M 6.151,0.000 10.849,7.065 M 10.299,7.615 10.849,7.065 M 0.000,10.550 10.299,7.615 M 85.350,7.490 88.142,11.079 M 88.142,11.079 90.000,10.550 M 10.849,7.065 16.485,7.884 M 16.485,7.884 22.389,0.000 M 23.571,0.000 36.429,11.932 M 36.429,11.932 51.372,4.683 M 48.852,0.000 51.372,4.683 M 16.485,7.884 20.514,15.443 M 20.493,15.495 20.514,15.443 M 20.514,15.443 34.169,14.454 M 34.169,14.454 36.429,11.932 M 5.449,19.664 10.299,7.615 M 5.449,19.664 20.493,15.495 M 63.812,6.554 67.772,0.000 M 63.812,6.554 85.350,7.490 M 34.169,14.454 34.218,23.076 M 32.584,24.351 34.218,23.076 M 51.372,4.683 60.480,9.372 M 60.480,9.372 63.812,6.554 M 19.046,25.656 20.493,15.495 M 19.046,25.656 32.584,24.351 M 76.027,24.972 84.121,25.845 M 84.121,25.845 89.613,25.565 M 88.142,11.079 89.613,25.565 M 0.000,25.718 0.237,25.812 M 0.237,25.812 5.449,19.664 M 89.613,25.565 90.000,25.718 M 60.480,9.372 62.849,21.456 M 62.849,21.456 76.027,24.972 M 81.299,42.594 84.121,25.845 M 0.000,39.354 6.086,37.089 M 81.299,42.594 90.000,39.354 M 6.086,37.089 8.537,34.408 M 0.237,25.812 8.537,34.408 M 76.027,24.972 79.519,44.129 M 79.519,44.129 81.299,42.594 M 8.537,34.408 13.974,35.549 M 13.974,35.549 19.046,25.656 M 79.097,44.789 79.519,44.129 M 56.877,34.494 62.849,21.456 M 56.877,34.494 79.097,44.789 M 13.974,35.549 18.922,40.394 M 18.922,40.394 24.179,42.662 M 24.179,42.662 32.584,24.351 M 34.218,23.076 50.680,38.904 M 50.680,38.904 54.025,37.964 M 54.025,37.964 56.877,34.494 M 40.148,45.846 50.680,38.904 M 0.000,49.724 6.086,37.089 M 87.982,53.913 90.000,49.724 M 79.097,44.789 80.711,53.208 M 80.711,53.208 81.388,53.709 M 81.388,53.709 87.982,53.913 M 24.179,42.662 31.600,47.996 M 31.600,47.996 40.148,45.846 M 54.025,37.964 63.411,55.444 M 63.411,55.444 80.711,53.208 M 5.951,59.684 18.922,40.394 M 87.982,53.913 90.000,55.414 M 0.000,55.414 5.778,59.713 M 5.778,59.713 5.951,59.684 M 5.951,59.684 15.985,63.744 M 15.985,63.744 28.164,60.222 M 28.164,60.222 31.600,47.996 M 1.863,68.578 5.778,59.713 M 62.121,64.568 63.411,55.444 M 14.424,73.510 15.985,63.744 M 40.148,45.846 50.671,69.557 M 50.671,69.557 62.121,64.568 M 14.424,73.510 32.950,72.293 M 28.164,60.222 32.950,72.293 M 1.863,68.578 11.411,77.314 M 11.411,77.314 12.198,77.659 M 12.198,77.659 14.424,73.510 M 12.198,77.659 13.200,80.168 M 0.000,79.784 11.411,77.314 M 84.562,80.961 90.000,79.784 M 0.000,69.660 1.863,68.578 M 78.191,76.523 90.000,69.660 M 78.191,76.523 84.562,80.961 M 77.458,76.457 81.388,53.709 M 77.458,76.457 78.191,76.523 M 32.950,72.293 35.639,76.840 M 62.121,64.568 75.596,77.049 M 75.596,77.049 77.458,76.457 M 13.200,80.168 23.538,85.120 M 23.538,85.120 35.639,76.840 M 35.639,76.840 43.133,79.373 M 43.133,79.373 50.671,69.557 M 0.000,87.402 1.059,88.656 M 84.562,80.961 90.000,87.402 M 1.059,88.656 5.744,89.387 M 5.744,89.387 13.200,80.168 M 22.874,89.352 23.538,85.120 M 0.190,90.000 1.059,88.656 M 5.744,89.387 6.151,90.000 M 22.389,90.000 22.874,89.352 M 22.874,89.352 23.571,90.000 M 43.133,79.373 48.852,90.000 M 67.772,90.000 75.596,77.049 M 54.789,0.000 54.789,0.000 " />
    </pattern>
    <pattern
       patternUnits="userSpaceOnUse"
       patternTransform="translate(0.000160318455288,0.000160210947143)"
       height="89.9996771232"
       width="89.9996771232"
       id="Voronoi8482">
      <path
         id="path2445"
         style="stroke:#000000;stroke-width:0.264583333328"
         d="M 48.410,0.000 50.438,3.438 M 10.872,0.391 10.950,0.000 M 10.872,0.391 11.072,1.670 M 73.789,0.000 74.230,3.361 M 74.230,3.361 78.549,0.000 M 50.438,3.438 50.859,11.507 M 28.079,0.000 33.674,8.615 M 33.674,8.615 43.055,0.000 M 50.438,3.438 70.749,6.114 M 64.328,0.000 70.749,6.114 M 11.072,1.670 22.114,13.048 M 70.749,6.114 72.901,7.377 M 72.901,7.377 74.230,3.361 M 22.114,13.048 32.611,13.044 M 32.611,13.044 33.146,12.806 M 33.146,12.806 33.674,8.615 M 72.901,7.377 73.589,10.429 M 73.589,10.429 90.000,4.391 M 33.146,12.806 39.124,17.382 M 39.124,17.382 50.859,11.507 M 73.565,11.132 73.589,10.429 M 0.000,4.391 10.872,0.391 M 68.221,18.330 73.565,11.132 M 0.000,19.441 4.020,21.473 M 4.020,21.473 11.072,1.670 M 73.565,11.132 90.000,19.441 M 50.859,11.507 65.204,19.924 M 65.204,19.924 68.221,18.330 M 39.124,17.382 42.436,25.683 M 4.020,21.473 5.323,23.696 M 61.369,24.779 65.204,19.924 M 42.436,25.683 60.473,25.661 M 60.473,25.661 61.369,24.779 M 5.323,23.696 10.209,26.818 M 10.209,26.818 22.114,13.048 M 61.369,24.779 72.556,39.899 M 0.000,28.069 5.323,23.696 M 68.221,18.330 80.031,36.261 M 80.031,36.261 90.000,28.069 M 72.556,39.899 79.641,40.132 M 79.641,40.132 80.031,36.261 M 10.209,26.818 16.570,36.254 M 16.570,36.254 19.856,37.124 M 19.856,37.124 32.611,13.044 M 57.406,43.600 60.473,25.661 M 57.406,43.600 72.556,39.899 M 19.856,37.124 29.769,43.458 M 29.769,43.458 34.567,44.517 M 34.567,44.517 42.436,25.683 M 53.662,49.704 57.406,43.600 M 16.755,59.677 29.769,43.458 M 53.662,49.704 56.348,51.893 M 16.755,59.677 23.149,64.943 M 34.567,44.517 41.073,50.705 M 41.073,50.705 53.662,49.704 M 23.149,64.943 35.145,61.134 M 0.000,50.671 16.570,36.254 M 79.641,40.132 86.093,54.069 M 86.093,54.069 90.000,50.671 M 56.348,51.893 66.583,59.305 M 35.145,61.134 39.570,57.873 M 39.570,57.873 41.073,50.705 M 39.570,57.873 41.142,63.873 M 85.413,57.220 86.093,54.069 M 66.583,59.305 80.873,59.797 M 80.873,59.797 85.413,57.220 M 85.413,57.220 90.000,60.438 M 0.000,60.438 4.765,63.781 M 4.765,63.781 16.755,59.677 M 61.357,71.070 66.583,59.305 M 79.143,70.299 80.873,59.797 M 61.357,71.070 73.438,79.147 M 73.438,79.147 79.143,70.299 M 34.335,79.535 41.142,63.873 M 41.142,63.873 51.679,77.092 M 51.679,77.092 56.348,51.893 M 55.940,77.354 61.357,71.070 M 55.940,77.354 72.735,81.985 M 72.735,81.985 73.438,79.147 M 79.143,70.299 86.940,83.470 M 51.679,77.092 53.111,79.227 M 53.111,79.227 55.940,77.354 M 53.089,79.300 53.111,79.227 M 22.635,81.615 34.335,79.535 M 21.950,81.335 35.145,61.134 M 21.950,81.335 22.635,81.615 M 20.063,81.088 23.149,64.943 M 20.063,81.088 21.950,81.335 M 34.335,79.535 46.653,86.055 M 46.653,86.055 53.089,79.300 M 46.529,86.810 46.653,86.055 M 4.765,63.781 13.185,81.987 M 13.185,81.987 20.063,81.088 M 0.000,83.407 12.308,83.155 M 12.308,83.155 13.185,81.987 M 86.940,83.470 90.000,83.407 M 46.529,86.810 48.410,90.000 M 10.950,90.000 12.308,83.155 M 72.735,81.985 73.789,90.000 M 78.549,90.000 86.940,83.470 M 22.635,81.615 28.079,90.000 M 43.055,90.000 46.529,86.810 M 53.089,79.300 64.328,90.000 " />
    </pattern>
    <pattern
       patternUnits="userSpaceOnUse"
       patternTransform="translate(0.0,-2.35438346745e-06)"
       height="90.3532451232"
       width="90.3532371857"
       id="Voronoi2126">
      <path
         id="path2564"
         style="stroke:#000000;stroke-width:0.264583333328"
         d="M 44.975,0.000 45.176,0.548 M 39.615,3.856 45.176,0.548 M 45.176,0.548 53.048,1.871 M 53.048,1.871 55.065,0.000 M 53.048,1.871 53.436,3.791 M 73.803,0.000 75.728,1.612 M 75.728,1.612 76.759,0.000 M 29.116,0.000 39.615,3.856 M 12.364,4.021 14.019,0.000 M 37.151,16.557 39.615,3.856 M 12.364,4.021 23.200,15.620 M 23.200,15.620 37.151,16.557 M 41.148,18.425 53.436,3.791 M 37.151,16.557 38.013,17.498 M 38.013,17.498 41.148,18.425 M 75.728,1.612 83.152,13.777 M 0.000,11.901 12.364,4.021 M 83.152,13.777 86.301,14.484 M 86.301,14.484 87.015,16.514 M 87.015,16.514 87.419,22.661 M 81.817,34.888 87.419,22.661 M 41.148,18.425 56.046,26.283 M 38.993,34.769 56.046,26.283 M 53.436,3.791 61.413,24.839 M 61.413,24.839 83.152,13.777 M 33.229,33.528 38.013,17.498 M 33.229,33.528 38.993,34.769 M 56.046,26.283 60.150,26.618 M 60.150,26.618 61.413,24.839 M 22.479,33.284 23.200,15.620 M 0.000,18.997 20.156,33.983 M 20.156,33.983 22.479,33.284 M 87.015,16.514 90.353,18.997 M 22.479,33.284 27.772,35.524 M 27.772,35.524 33.229,33.528 M 27.772,35.524 29.060,41.932 M 74.989,42.734 81.817,34.888 M 29.060,41.932 31.030,46.913 M 60.150,26.618 61.943,38.817 M 18.370,49.567 29.060,41.932 M 10.160,43.673 20.156,33.983 M 10.160,43.673 18.370,49.567 M 31.030,46.913 44.804,46.957 M 38.993,34.769 44.804,46.957 M 44.804,46.957 44.971,47.066 M 44.971,47.066 61.943,38.817 M 61.943,38.817 64.452,42.185 M 64.452,42.185 74.989,42.734 M 0.000,29.697 6.322,44.856 M 6.322,44.856 10.160,43.673 M 87.419,22.661 90.353,29.697 M 64.386,48.243 64.452,42.185 M 44.876,53.123 44.971,47.066 M 0.000,45.127 3.073,48.812 M 3.073,48.812 6.322,44.856 M 81.817,34.888 90.353,45.127 M 64.386,48.243 80.265,57.215 M 80.265,57.215 89.461,51.509 M 74.989,42.734 89.461,51.509 M 0.000,51.537 1.246,51.575 M 1.246,51.575 3.073,48.812 M 89.461,51.509 90.353,51.537 M 77.963,60.319 80.265,57.215 M 62.607,56.585 64.386,48.243 M 62.607,56.585 71.880,62.175 M 71.880,62.175 77.963,60.319 M 44.876,53.123 50.334,60.842 M 71.880,62.175 72.190,67.821 M 50.334,60.842 56.882,62.401 M 56.882,62.401 62.607,56.585 M 72.190,67.821 81.619,68.662 M 77.963,60.319 81.619,68.662 M 18.370,49.567 27.258,60.790 M 27.258,60.790 31.030,46.913 M 27.258,60.790 27.303,61.195 M 27.303,61.195 44.876,53.123 M 56.882,62.401 57.756,67.353 M 81.619,68.662 84.154,71.059 M 76.489,75.055 84.154,71.059 M 42.169,75.861 57.756,67.353 M 0.000,72.258 0.875,72.427 M 84.154,71.059 90.353,72.258 M 0.000,73.332 0.875,72.427 M 76.489,75.055 82.371,81.581 M 82.371,81.581 90.353,73.332 M 34.659,72.181 50.334,60.842 M 34.659,72.181 39.689,75.949 M 39.689,75.949 42.169,75.861 M 67.818,77.721 72.190,67.821 M 67.818,77.721 76.489,75.055 M 0.875,72.427 9.168,71.174 M 1.246,51.575 9.168,71.174 M 25.151,70.443 27.303,61.195 M 25.151,70.443 34.659,72.181 M 42.169,75.861 63.693,81.039 M 57.756,67.353 63.693,81.039 M 63.693,81.039 63.893,81.294 M 63.893,81.294 67.818,77.721 M 63.893,81.294 63.955,82.107 M 9.168,71.174 16.526,76.077 M 16.526,76.077 25.151,70.443 M 39.689,75.949 44.975,90.353 M 55.065,90.353 63.955,82.107 M 63.955,82.107 73.803,90.353 M 76.759,90.353 82.371,81.581 M 16.001,85.536 16.526,76.077 M 16.001,85.536 29.116,90.353 M 14.019,90.353 16.001,85.536 M 86.301,14.484 90.353,11.901 M 31.490,0.000 31.490,0.000 " />
    </pattern>
    <pattern
       patternUnits="userSpaceOnUse"
       patternTransform="translate(0.000160318455288,0.000160210947143)"
       height="89.9996771232"
       width="89.9996771232"
       id="Voronoi8482-2">
      <path
         id="path2445-5"
         style="stroke:#000000;stroke-width:0.264583333328"
         d="M 48.410,0.000 50.438,3.438 M 10.872,0.391 10.950,0.000 M 10.872,0.391 11.072,1.670 M 73.789,0.000 74.230,3.361 M 74.230,3.361 78.549,0.000 M 50.438,3.438 50.859,11.507 M 28.079,0.000 33.674,8.615 M 33.674,8.615 43.055,0.000 M 50.438,3.438 70.749,6.114 M 64.328,0.000 70.749,6.114 M 11.072,1.670 22.114,13.048 M 70.749,6.114 72.901,7.377 M 72.901,7.377 74.230,3.361 M 22.114,13.048 32.611,13.044 M 32.611,13.044 33.146,12.806 M 33.146,12.806 33.674,8.615 M 72.901,7.377 73.589,10.429 M 73.589,10.429 90.000,4.391 M 33.146,12.806 39.124,17.382 M 39.124,17.382 50.859,11.507 M 73.565,11.132 73.589,10.429 M 0.000,4.391 10.872,0.391 M 68.221,18.330 73.565,11.132 M 0.000,19.441 4.020,21.473 M 4.020,21.473 11.072,1.670 M 73.565,11.132 90.000,19.441 M 50.859,11.507 65.204,19.924 M 65.204,19.924 68.221,18.330 M 39.124,17.382 42.436,25.683 M 4.020,21.473 5.323,23.696 M 61.369,24.779 65.204,19.924 M 42.436,25.683 60.473,25.661 M 60.473,25.661 61.369,24.779 M 5.323,23.696 10.209,26.818 M 10.209,26.818 22.114,13.048 M 61.369,24.779 72.556,39.899 M 0.000,28.069 5.323,23.696 M 68.221,18.330 80.031,36.261 M 80.031,36.261 90.000,28.069 M 72.556,39.899 79.641,40.132 M 79.641,40.132 80.031,36.261 M 10.209,26.818 16.570,36.254 M 16.570,36.254 19.856,37.124 M 19.856,37.124 32.611,13.044 M 57.406,43.600 60.473,25.661 M 57.406,43.600 72.556,39.899 M 19.856,37.124 29.769,43.458 M 29.769,43.458 34.567,44.517 M 34.567,44.517 42.436,25.683 M 53.662,49.704 57.406,43.600 M 16.755,59.677 29.769,43.458 M 53.662,49.704 56.348,51.893 M 16.755,59.677 23.149,64.943 M 34.567,44.517 41.073,50.705 M 41.073,50.705 53.662,49.704 M 23.149,64.943 35.145,61.134 M 0.000,50.671 16.570,36.254 M 79.641,40.132 86.093,54.069 M 86.093,54.069 90.000,50.671 M 56.348,51.893 66.583,59.305 M 35.145,61.134 39.570,57.873 M 39.570,57.873 41.073,50.705 M 39.570,57.873 41.142,63.873 M 85.413,57.220 86.093,54.069 M 66.583,59.305 80.873,59.797 M 80.873,59.797 85.413,57.220 M 85.413,57.220 90.000,60.438 M 0.000,60.438 4.765,63.781 M 4.765,63.781 16.755,59.677 M 61.357,71.070 66.583,59.305 M 79.143,70.299 80.873,59.797 M 61.357,71.070 73.438,79.147 M 73.438,79.147 79.143,70.299 M 34.335,79.535 41.142,63.873 M 41.142,63.873 51.679,77.092 M 51.679,77.092 56.348,51.893 M 55.940,77.354 61.357,71.070 M 55.940,77.354 72.735,81.985 M 72.735,81.985 73.438,79.147 M 79.143,70.299 86.940,83.470 M 51.679,77.092 53.111,79.227 M 53.111,79.227 55.940,77.354 M 53.089,79.300 53.111,79.227 M 22.635,81.615 34.335,79.535 M 21.950,81.335 35.145,61.134 M 21.950,81.335 22.635,81.615 M 20.063,81.088 23.149,64.943 M 20.063,81.088 21.950,81.335 M 34.335,79.535 46.653,86.055 M 46.653,86.055 53.089,79.300 M 46.529,86.810 46.653,86.055 M 4.765,63.781 13.185,81.987 M 13.185,81.987 20.063,81.088 M 0.000,83.407 12.308,83.155 M 12.308,83.155 13.185,81.987 M 86.940,83.470 90.000,83.407 M 46.529,86.810 48.410,90.000 M 10.950,90.000 12.308,83.155 M 72.735,81.985 73.789,90.000 M 78.549,90.000 86.940,83.470 M 22.635,81.615 28.079,90.000 M 43.055,90.000 46.529,86.810 M 53.089,79.300 64.328,90.000 " />
    </pattern>
  </defs>
  <g
     inkscape:label="Layer 1"
     inkscape:groupmode="layer"
     id="layer1"
     style="display:inline">
    <text
       xml:space="preserve"
       style="font-size:9.15228px;line-height:1.25;font-family:sans-serif;letter-spacing:0px;word-spacing:0px;fill:#0000ff;fill-opacity:1;stroke-width:6.8644;stroke-miterlimit:4;stroke-dasharray:none"
       x="-188.13188"
       y="37.719048"
       id="text37531-6"><tspan
         sodipodi:role="line"
         id="tspan37529-6"
         style="fill:#0000ff;fill-opacity:1;stroke-width:6.8644;stroke-miterlimit:4;stroke-dasharray:none"
         x="-188.13188"
         y="37.719048">=pass1:800mm/min:40%:#0000ff=</tspan></text>
    <text
       xml:space="preserve"
       style="font-size:9.15228px;line-height:1.25;font-family:sans-serif;letter-spacing:0px;word-spacing:0px;fill:#ff0000;fill-opacity:1;stroke-width:6.864;stroke-miterlimit:4;stroke-dasharray:none"
       x="-186.16101"
       y="64.841095"
       id="text37531-6-9"><tspan
         sodipodi:role="line"
         id="tspan37529-6-2"
         style="fill:#ff0000;fill-opacity:1;stroke-width:6.864;stroke-miterlimit:4;stroke-dasharray:none"
         x="-186.16101"
         y="64.841095">=pass2:800mm/min:40%:#ff0000=</tspan></text>
    <text
       xml:space="preserve"
       style="font-size:9.15228px;line-height:1.25;font-family:sans-serif;letter-spacing:0px;word-spacing:0px;display:inline;fill:#00ff00;fill-opacity:1;stroke-width:6.8642"
       x="-192.17204"
       y="92.968636"
       id="text37531-6-2"><tspan
         sodipodi:role="line"
         id="tspan37529-6-1"
         style="fill:#00ff00;fill-opacity:1;stroke-width:6.8642"
         x="-192.17204"
         y="92.968636">=pass3:800mm/min:20%:#00ff00=</tspan></text>
    <path
       id="rect7802"
       style="display:inline;fill:none;fill-opacity:1;stroke:none;stroke-width:0.299341;stroke-miterlimit:4;stroke-dasharray:none;stroke-opacity:1"
       d="m 43.887206,2.9032564 v 7.9066996 l -6.488776,-6.4886133 -1.5012,1.5011625 7.550437,7.5502468 0.439539,0.43953 v 4.525222 l -6.488776,-6.488616 -1.5012,1.501163 7.550437,7.550247 0.439539,0.43953 v 16.951347 a 6.5682829,6.7573228 0 0 0 -0.942838,0.240051 6.7574079,6.5682007 44.974673 0 0 -1.969237,0.962618 L 28.999342,27.518838 V 16.219067 h -2.122835 v 9.176989 L 23.676555,22.196185 V 10.896414 H 21.55372 v 9.17699 l -5.591342,-5.591202 -1.5012,1.501161 5.590858,5.590718 h -9.176735 v 2.123267 h 11.300054 l 3.199953,3.199872 h -9.177221 v 2.122782 h 11.300056 l 11.986415,11.986112 a 6.7574079,6.5682007 44.974673 0 0 -0.530831,0.908039 6.7574924,6.568118 0 0 0 -0.679112,2.002034 h -16.934386 -4.95e-4 l -7.989976,-7.990259 -1.501201,1.501162 6.488778,6.489097 h -4.524853 -4.94e-4 L 5.8220333,35.925928 4.3208334,37.42709 10.809611,43.916187 H 2.9027114 v 2.122783 h 7.9068996 l -6.4887776,6.489096 1.5011999,1.501161 7.5504377,-7.550246 0.440022,-0.440011 h 4.524853 l -6.488778,6.489096 1.501201,1.501161 7.550437,-7.550246 0.440023,-0.440011 h 16.950809 a 6.7574924,6.568118 0 0 0 0.26517,1.012368 6.5682007,6.7574079 45.025327 0 0 0.937042,1.901085 L 27.518912,60.926461 H 16.218857 v 2.123267 h 9.17722 l -3.199952,3.199869 H 10.896069 v 2.122783 h 9.177219 l -5.591341,5.591202 1.501201,1.501161 5.590858,-5.590718 v 9.176507 h 2.123319 V 67.750759 l 3.199951,-3.19987 v 9.176506 h 2.122838 v -11.29929 l 11.985929,-11.98563 a 6.5682007,6.7574079 45.025327 0 0 0.909028,0.530816 6.5682829,6.7573228 0 0 0 2.0016,0.678614 v 16.933963 l -0.440023,0.439528 v 4.94e-4 l -7.550435,7.550247 1.501198,1.501165 6.48926,-6.489099 v 4.525222 l -0.440023,0.439529 -7.550435,7.55073 1.501198,1.501164 6.48926,-6.489099 v 7.907184 h 2.122837 v -7.907184 l 6.489259,6.489099 1.5012,-1.501164 -7.990459,-7.990741 v -4.52474 l 6.489259,6.489099 1.5012,-1.501165 -7.990459,-7.990743 V 51.638877 a 6.5682829,6.7573228 0 0 0 1.098366,-0.295113 6.7574079,6.5682007 44.974673 0 0 1.814674,-0.911421 l 11.974824,11.974524 v 0.622102 10.678153 h 2.123319 v -9.17699 l 3.199952,3.199872 v 0.62162 10.678152 h 2.122834 v -9.17699 l 5.591343,5.591202 1.501199,-1.501164 -5.59134,-5.5912 h 9.177217 V 66.228842 H 67.751842 L 64.55189,63.028969 h 9.176738 V 60.906187 H 62.429054 L 50.442642,48.920074 a 6.7574079,6.5682007 44.974673 0 0 0.531795,-0.910939 6.7574924,6.568118 0 0 0 0.678146,-1.999134 h 16.934389 l 0.439539,0.439529 7.550917,7.550732 1.501203,-1.501164 -6.489262,-6.489097 h 4.525336 l 0.43954,0.439529 7.55092,7.550732 1.5012,-1.501164 -6.489262,-6.489097 h 7.907384 v -2.123265 h -7.907384 l 6.489262,-6.488615 -1.5012,-1.501161 -7.55092,7.550249 -0.43954,0.439527 h -4.525336 l 6.489262,-6.488615 -1.501203,-1.501161 -7.550917,7.550249 -0.439539,0.439527 H 51.639062 A 6.7574924,6.568118 0 0 0 51.344906,42.78936 6.5682007,6.7574079 45.025327 0 0 50.43298,40.974251 L 62.408286,28.999245 h 0.621635 10.67842 V 26.876462 H 64.53112 l 3.199953,-3.199871 h 0.621636 10.678419 v -2.122782 h -9.177219 l 5.591342,-5.591202 -1.501201,-1.501162 -5.591341,5.591201 v -9.177001 h -2.122834 v 10.67815 0.621621 l -3.199954,3.199873 v -9.17699 H 60.907086 V 26.87645 27.498071 L 48.920187,39.484667 A 6.5682007,6.7574079 45.025327 0 0 47.974935,38.933566 6.5682829,6.7573228 0 0 0 46.010526,38.274752 V 21.339828 l 0.439542,-0.43953 7.550919,-7.550247 -1.501201,-1.501163 -6.48926,6.488616 v -4.525222 l 0.439542,-0.43953 7.550919,-7.5502468 -1.501201,-1.5011625 -6.48926,6.4886133 V 2.9032564 Z m 1.084972,38.8167206 a 3.3534784,3.2594996 0 0 1 1.053469,0.165246 3.3534363,3.2595404 44.974669 0 1 1.23734,0.791027 3.3534363,3.2595404 44.974669 0 1 0.630744,0.86725 3.2595814,3.3533943 0 0 1 0.313043,1.428156 3.2595814,3.3533943 0 0 1 -0.161176,1.041805 3.2595404,3.3534363 45.025331 0 1 -0.794831,1.248944 3.2595404,3.3534363 45.025331 0 1 -0.901891,0.648474 3.3534784,3.2594996 0 0 1 -1.394444,0.29529 3.3534784,3.2594996 0 0 1 -1.088672,-0.17659 3.3534363,3.2595404 44.974669 0 1 -2.98e-4,0 3.3534784,3.2594996 0 0 1 -0.03142,-0.01193 3.3534363,3.2595404 44.974669 0 1 -1.16955,-0.767464 3.3534363,3.2595404 44.974669 0 1 -0.631908,-0.870158 3.2595814,3.3533943 0 0 1 -0.31217,-1.42612 3.2595814,3.3533943 0 0 1 0.169032,-1.06246 3.2595404,3.3534363 45.025331 0 1 0.786974,-1.227418 3.2595404,3.3534363 45.025331 0 1 0.958626,-0.673201 3.3534784,3.2594996 0 0 1 1.337128,-0.270853 z" />
    <path
       style="display:inline;fill:none;stroke:none;stroke-width:0.299341;stroke-miterlimit:4;stroke-dasharray:none;stroke-opacity:1"
       d="m 16.425965,79.694385 a 5.7875446,5.7874002 0 0 1 -1.679771,3.669841 5.7875446,5.7874002 0 0 1 -8.1845009,0 5.7875446,5.7874002 0 0 1 -1.824e-4,-8.184476 5.7875446,5.7874002 0 0 1 3.6732213,-1.675348 44.970446,44.969324 0 0 0 2.923896,3.263053 44.970446,44.969324 0 0 0 3.267337,2.92693 z"
       id="path13525" />
    <path
       style="display:inline;fill:none;stroke:none;stroke-width:0.299341;stroke-miterlimit:4;stroke-dasharray:none;stroke-opacity:1"
       d="m 76.756392,13.171276 a 44.970446,44.969324 0 0 0 -63.597946,0 44.970446,44.969324 0 0 0 -4.0181225,58.960492 7.3033299,7.3031477 0 0 0 -3.6505793,1.976237 7.3033299,7.3031477 0 0 0 -5e-7,10.328145 7.3033299,7.3031477 0 0 0 10.3284003,0 7.3033299,7.3031477 0 0 0 1.979207,-3.647932 44.970446,44.969324 0 0 0 58.958856,-4.020763 44.970446,44.969324 0 0 0 1.85e-4,-63.596179 z"
       id="path17741" />
    <path
       style="display:inline;fill:none;stroke:#0000ff;stroke-width:0.302607;stroke-miterlimit:4;stroke-dasharray:none;stroke-opacity:1"
       d="m 16.69586,79.665702 a 5.7601392,5.7600867 0 0 1 -1.671812,3.652521 5.7601392,5.7600867 0 0 1 -8.1457434,0 5.7601392,5.7600867 0 0 1 -1.815e-4,-8.14585 5.7601392,5.7600867 0 0 1 3.6558169,-1.667441 44.757501,44.757093 0 0 0 2.910056,3.247654 44.757501,44.757093 0 0 0 3.251864,2.913116 z"
       id="path13525-0" />
    <path
       style="display:inline;fill:none;stroke:#ff0000;stroke-width:0.302607;stroke-miterlimit:4;stroke-dasharray:none;stroke-opacity:1"
       d="m 76.740609,13.456545 a 44.757501,44.757093 0 0 0 -63.296794,0 44.757501,44.757093 0 0 0 -3.9990956,58.682233 7.268747,7.2686807 0 0 0 -3.6332923,1.966908 7.268747,7.2686807 0 0 0 0,10.279401 7.268747,7.2686807 0 0 0 10.2794889,0 7.268747,7.2686807 0 0 0 1.969831,-3.630715 44.757501,44.757093 0 0 0 58.679671,-4.001786 44.757501,44.757093 0 0 0 1.91e-4,-63.296041 z"
       id="path17741-9" />
    <path
       id="rect7802-0"
       style="display:inline;fill:none;fill-opacity:1;stroke:none;stroke-width:0.299341;stroke-miterlimit:4;stroke-dasharray:none;stroke-opacity:1"
       d="m 134.88721,2.9032538 v 7.9066932 l -6.48878,-6.4886082 -1.5012,1.5011611 7.55044,7.5502401 0.43954,0.43953 v 4.525217 l -6.48878,-6.48861 -1.5012,1.501162 7.55044,7.55024 0.43954,0.439529 V 38.29114 a 6.5682829,6.7573167 0 0 0 -0.94284,0.240051 6.7574049,6.5681978 44.973763 0 0 -1.96924,0.962618 L 119.99934,27.518813 V 16.219052 h -2.12283 v 9.176981 l -3.19995,-3.199868 V 10.896404 h -2.12284 v 9.176982 l -5.59134,-5.591198 -1.5012,1.501161 5.59086,5.590713 h -9.17674 v 2.123265 h 11.30005 l 3.19996,3.199869 h -9.17722 v 2.12278 h 11.30005 l 11.98642,11.986101 a 6.7574049,6.5681978 44.973763 0 0 -0.53083,0.908038 6.7574924,6.5681121 0 0 0 -0.67912,2.002032 h -16.93438 -5e-4 l -7.98997,-7.990251 -1.5012,1.50116 6.48877,6.489091 h -4.52485 -4.9e-4 l -7.989957,-7.990251 -1.5012,1.50116 6.488777,6.489091 h -7.906899 v 2.122781 h 7.906899 l -6.488777,6.489091 1.5012,1.50116 7.550437,-7.55024 0.44002,-0.440011 h 4.52486 l -6.48878,6.489091 1.5012,1.50116 7.55044,-7.55024 0.44002,-0.440011 h 16.95081 a 6.7574924,6.5681121 0 0 0 0.26517,1.012367 6.5681978,6.7574049 45.026237 0 0 0.93704,1.901084 l -11.97434,11.974027 h -11.30005 v 2.123265 h 9.17722 l -3.19996,3.199867 h -11.30005 v 2.12278 h 9.17722 l -5.59134,5.591198 1.5012,1.501159 5.59086,-5.590714 v 9.176499 h 2.12331 V 67.750698 l 3.19996,-3.199868 v 9.176498 h 2.12283 V 62.428049 l 11.98593,-11.98562 a 6.5681978,6.7574049 45.026237 0 0 0.90903,0.530816 6.5682829,6.7573167 0 0 0 2.0016,0.678614 v 16.933947 l -0.44002,0.439527 v 4.95e-4 l -7.55044,7.55024 1.5012,1.501163 6.48926,-6.489093 v 4.525218 l -0.44002,0.439529 -7.55044,7.550723 1.5012,1.501163 6.48926,-6.489093 v 7.907176 h 2.12284 v -7.907176 l 6.48926,6.489093 1.5012,-1.501163 -7.99046,-7.990734 v -4.524736 l 6.48926,6.489093 1.5012,-1.501163 -7.99046,-7.990736 V 51.638831 a 6.5682829,6.7573167 0 0 0 1.09836,-0.295113 6.7574049,6.5681978 44.973763 0 0 1.81468,-0.91142 l 11.97482,11.974513 v 0.622101 10.678143 h 2.12332 v -9.176982 l 3.19995,3.19987 v 0.621619 10.678142 h 2.12284 v -9.176981 l 5.59134,5.591197 1.5012,-1.501162 -5.59134,-5.591196 h 9.17722 v -2.122779 h -11.30006 l -3.19995,-3.199871 h 9.17674 V 60.906133 H 153.42905 L 141.44264,48.92003 a 6.7574049,6.5681978 44.973763 0 0 0.5318,-0.910938 6.7574924,6.5681121 0 0 0 0.67814,-1.999132 h 16.93439 l 0.43954,0.439528 7.55092,7.550726 1.5012,-1.501164 -6.48926,-6.48909 h 4.52533 l 0.43954,0.439528 7.55092,7.550726 1.5012,-1.501164 -6.48926,-6.48909 h 7.90739 v -2.123264 h -7.90739 l 6.48926,-6.488608 -1.5012,-1.50116 -7.55092,7.550241 -0.43954,0.439527 h -4.52533 l 6.48926,-6.488608 -1.5012,-1.50116 -7.55092,7.550241 -0.43954,0.439527 h -16.94791 a 6.7574924,6.5681121 0 0 0 -0.29415,-1.097374 6.5681978,6.7574049 45.026237 0 0 -0.91193,-1.815108 l 11.97531,-11.974995 h 0.62163 10.67842 v -2.122781 h -9.17722 l 3.19995,-3.199868 h 0.62164 10.67842 v -2.12278 h -9.17722 l 5.59134,-5.591197 -1.5012,-1.501161 -5.59134,5.591196 v -9.176993 h -2.12284 v 10.678141 0.62162 l -3.19995,3.19987 v -9.176982 h -2.12283 v 10.678142 0.62162 l -11.9869,11.986585 a 6.5681978,6.7574049 45.026237 0 0 -0.94526,-0.5511 6.5682829,6.7573167 0 0 0 -1.9644,-0.658813 v -16.93491 l 0.43954,-0.439529 7.55092,-7.55024 -1.5012,-1.501162 -6.48926,6.48861 V 13.81227 l 0.43954,-0.43953 7.55092,-7.5502401 -1.5012,-1.5011611 -6.48926,6.4886082 V 2.9032538 Z m 1.08497,38.8166852 a 3.3534784,3.2594966 0 0 1 1.05347,0.165246 3.3534348,3.2595389 44.973759 0 1 1.23734,0.791026 3.3534348,3.2595389 44.973759 0 1 0.63074,0.86725 3.2595814,3.3533913 0 0 1 0.31304,1.428154 3.2595814,3.3533913 0 0 1 -0.16117,1.041805 3.2595389,3.3534348 45.026241 0 1 -0.79483,1.248943 3.2595389,3.3534348 45.026241 0 1 -0.90189,0.648473 3.3534784,3.2594966 0 0 1 -1.39445,0.295289 3.3534784,3.2594966 0 0 1 -1.08867,-0.17659 3.3534348,3.2595389 44.973759 0 1 -3e-4,0 3.3534784,3.2594966 0 0 1 -0.0314,-0.01193 3.3534348,3.2595389 44.973759 0 1 -1.16955,-0.767463 3.3534348,3.2595389 44.973759 0 1 -0.63191,-0.870158 3.2595814,3.3533913 0 0 1 -0.31217,-1.426118 3.2595814,3.3533913 0 0 1 0.16903,-1.062459 3.2595389,3.3534348 45.026241 0 1 0.78698,-1.227418 3.2595389,3.3534348 45.026241 0 1 0.95862,-0.6732 3.3534784,3.2594966 0 0 1 1.33713,-0.270853 z" />
    <path
       style="display:inline;fill:none;stroke:none;stroke-width:0.299341;stroke-miterlimit:4;stroke-dasharray:none;stroke-opacity:1"
       d="m 107.42596,79.694313 a 5.7875446,5.787395 0 0 1 -1.67977,3.669838 5.7875446,5.787395 0 0 1 -8.184497,0 5.7875446,5.787395 0 0 1 -1.82e-4,-8.184469 5.7875446,5.787395 0 0 1 3.673219,-1.675346 44.970446,44.969284 0 0 0 2.9239,3.26305 44.970446,44.969284 0 0 0 3.26733,2.926927 z"
       id="path13525-6" />
    <path
       style="display:inline;fill:none;stroke:none;stroke-width:0.299341;stroke-miterlimit:4;stroke-dasharray:none;stroke-opacity:1"
       d="m 167.75639,13.171264 a 44.970446,44.969284 0 0 0 -63.59794,0 44.970446,44.969284 0 0 0 -4.01813,58.960439 7.3033299,7.3031411 0 0 0 -3.650576,1.976235 7.3033299,7.3031411 0 0 0 -10e-7,10.328136 7.3033299,7.3031411 0 0 0 10.328397,0 7.3033299,7.3031411 0 0 0 1.97921,-3.647929 44.970446,44.969284 0 0 0 58.95886,-4.020759 44.970446,44.969284 0 0 0 1.8e-4,-63.596122 z"
       id="path17741-6" />
    <path
       style="display:inline;fill:none;stroke:#0000ff;stroke-width:0.302607;stroke-miterlimit:4;stroke-dasharray:none;stroke-opacity:1"
       d="m 107.69586,79.665631 a 5.7601392,5.7600815 0 0 1 -1.67181,3.652517 5.7601392,5.7600815 0 0 1 -8.145746,0 5.7601392,5.7600815 0 0 1 -1.81e-4,-8.145843 5.7601392,5.7600815 0 0 1 3.655817,-1.667439 44.757501,44.757052 0 0 0 2.91006,3.247651 44.757501,44.757052 0 0 0 3.25186,2.913114 z"
       id="path13525-0-9" />
    <path
       style="display:inline;fill:none;stroke:#ff0000;stroke-width:0.302607;stroke-miterlimit:4;stroke-dasharray:none;stroke-opacity:1"
       d="m 167.74061,13.456533 a 44.757501,44.757052 0 0 0 -63.2968,0 44.757501,44.757052 0 0 0 -3.99909,58.68218 7.268747,7.2686741 0 0 0 -3.633293,1.966906 7.268747,7.2686741 0 0 0 0,10.279392 7.268747,7.2686741 0 0 0 10.279493,0 7.268747,7.2686741 0 0 0 1.96983,-3.630712 44.757501,44.757052 0 0 0 58.67967,-4.001782 44.757501,44.757052 0 0 0 1.9e-4,-63.295984 z"
       id="path17741-9-7" />
    <path
       id="rect7802-9"
       style="display:inline;fill:none;fill-opacity:1;stroke:none;stroke-width:0.299341;stroke-miterlimit:4;stroke-dasharray:none;stroke-opacity:1"
       d="m 43.887206,93.903257 v 7.906703 l -6.488776,-6.488617 -1.5012,1.501162 7.550437,7.550245 0.439539,0.43953 v 4.52522 l -6.488776,-6.48861 -1.5012,1.50116 7.550437,7.55025 0.439539,0.43953 v 16.95135 a 6.5682829,6.7573228 0 0 0 -0.942838,0.24005 6.7574079,6.5682007 44.974673 0 0 -1.969237,0.96261 l -11.975789,-11.975 v -11.29977 h -2.122835 v 9.17699 l -3.199952,-3.19987 V 101.89641 H 21.55372 v 9.17699 l -5.591342,-5.5912 -1.5012,1.50116 5.590858,5.59072 h -9.176735 v 2.12327 h 11.300054 l 3.199953,3.19987 H 16.198087 V 120.02 h 11.300056 l 11.986415,11.98611 a 6.7574079,6.5682007 44.974673 0 0 -0.530831,0.90804 6.7574924,6.568118 0 0 0 -0.679112,2.00204 h -16.934386 -4.95e-4 l -7.989976,-7.99026 -1.501201,1.50116 6.488778,6.4891 h -4.524853 -4.94e-4 l -7.9899547,-7.99026 -1.5011999,1.50116 6.4887776,6.4891 H 2.9027114 v 2.12278 h 7.9068996 l -6.4887776,6.4891 1.5011999,1.50116 7.5504377,-7.55025 0.440022,-0.44001 h 4.524853 l -6.488778,6.4891 1.501201,1.50116 7.550437,-7.55025 0.440023,-0.44001 h 16.950809 a 6.7574924,6.568118 0 0 0 0.26517,1.01237 6.5682007,6.7574079 45.025327 0 0 0.937042,1.90108 L 27.518912,151.92646 H 16.218857 v 2.12327 h 9.17722 l -3.199952,3.19987 H 10.896069 v 2.12278 h 9.177219 l -5.591341,5.5912 1.501201,1.50116 5.590858,-5.59072 v 9.17651 h 2.123319 v -11.29977 l 3.199951,-3.19987 v 9.17651 h 2.122838 v -11.29929 l 11.985929,-11.98563 a 6.5682007,6.7574079 45.025327 0 0 0.909028,0.53081 6.5682829,6.7573228 0 0 0 2.0016,0.67862 v 16.93396 l -0.440023,0.43953 v 4.9e-4 l -7.550435,7.55025 1.501198,1.50116 6.48926,-6.4891 v 4.52522 l -0.440023,0.43953 -7.550435,7.55073 1.501198,1.50117 6.48926,-6.4891 v 7.90718 h 2.122837 v -7.90718 l 6.489259,6.4891 1.5012,-1.50117 -7.990459,-7.99074 v -4.52474 l 6.489259,6.4891 1.5012,-1.50116 -7.990459,-7.99075 v -16.94651 a 6.5682829,6.7573228 0 0 0 1.098366,-0.29512 6.7574079,6.5682007 44.974673 0 0 1.814674,-0.91142 l 11.974824,11.97453 v 0.6221 10.67815 h 2.123319 v -9.17699 l 3.199952,3.19987 v 0.62162 10.67816 h 2.122834 v -9.17699 l 5.591343,5.5912 1.501199,-1.50117 -5.59134,-5.5912 h 9.177217 v -2.12278 H 67.751842 l -3.199952,-3.19987 h 9.176738 v -2.12278 H 62.429054 L 50.442642,139.92007 a 6.7574079,6.5682007 44.974673 0 0 0.531795,-0.91093 6.7574924,6.568118 0 0 0 0.678146,-1.99914 h 16.934389 l 0.439539,0.43953 7.550917,7.55073 1.501203,-1.50116 -6.489262,-6.4891 h 4.525336 l 0.43954,0.43953 7.55092,7.55073 1.5012,-1.50116 -6.489262,-6.4891 h 7.907384 v -2.12326 h -7.907384 l 6.489262,-6.48862 -1.5012,-1.50116 -7.55092,7.55025 -0.43954,0.43953 h -4.525336 l 6.489262,-6.48862 -1.501203,-1.50116 -7.550917,7.55025 -0.439539,0.43953 h -16.94791 a 6.7574924,6.568118 0 0 0 -0.294156,-1.09738 6.5682007,6.7574079 45.025327 0 0 -0.911926,-1.81511 l 11.975306,-11.975 h 0.621635 10.67842 v -2.12279 H 64.53112 l 3.199953,-3.19987 h 0.621636 10.678419 v -2.12278 h -9.177219 l 5.591342,-5.5912 -1.501201,-1.50116 -5.591341,5.5912 v -9.177 h -2.122834 v 10.67815 0.62162 l -3.199954,3.19987 v -9.17699 h -2.122835 v 10.67815 0.62162 l -11.986899,11.9866 a 6.5682007,6.7574079 45.025327 0 0 -0.945252,-0.5511 6.5682829,6.7573228 0 0 0 -1.964409,-0.65882 v -16.93492 l 0.439542,-0.43953 7.550919,-7.55025 -1.501201,-1.50116 -6.48926,6.48861 v -4.52522 l 0.439542,-0.43953 7.550919,-7.550245 -1.501201,-1.501162 -6.48926,6.488617 v -7.906703 z m 1.084972,38.816723 a 3.3534784,3.2594996 0 0 1 1.053469,0.16524 3.3534363,3.2595404 44.974669 0 1 1.23734,0.79103 3.3534363,3.2595404 44.974669 0 1 0.630744,0.86725 3.2595814,3.3533943 0 0 1 0.313043,1.42816 3.2595814,3.3533943 0 0 1 -0.161176,1.0418 3.2595404,3.3534363 45.025331 0 1 -0.794831,1.24895 3.2595404,3.3534363 45.025331 0 1 -0.901891,0.64847 3.3534784,3.2594996 0 0 1 -1.394444,0.29529 3.3534784,3.2594996 0 0 1 -1.088672,-0.17659 3.3534363,3.2595404 44.974669 0 1 -2.98e-4,0 3.3534784,3.2594996 0 0 1 -0.03142,-0.0119 3.3534363,3.2595404 44.974669 0 1 -1.16955,-0.76747 3.3534363,3.2595404 44.974669 0 1 -0.631908,-0.87016 3.2595814,3.3533943 0 0 1 -0.31217,-1.42612 3.2595814,3.3533943 0 0 1 0.169032,-1.06246 3.2595404,3.3534363 45.025331 0 1 0.786974,-1.22742 3.2595404,3.3534363 45.025331 0 1 0.958626,-0.6732 3.3534784,3.2594996 0 0 1 1.337128,-0.27085 z" />
    <path
       style="display:inline;fill:none;stroke:none;stroke-width:0.299341;stroke-miterlimit:4;stroke-dasharray:none;stroke-opacity:1"
       d="m 16.425965,170.69439 a 5.7875446,5.7874002 0 0 1 -1.679771,3.66984 5.7875446,5.7874002 0 0 1 -8.1845009,0 5.7875446,5.7874002 0 0 1 -1.824e-4,-8.18448 5.7875446,5.7874002 0 0 1 3.6732213,-1.67535 44.970446,44.969324 0 0 0 2.923896,3.26306 44.970446,44.969324 0 0 0 3.267337,2.92693 z"
       id="path13525-2" />
    <path
       style="display:inline;fill:none;stroke:none;stroke-width:0.299341;stroke-miterlimit:4;stroke-dasharray:none;stroke-opacity:1"
       d="m 76.756392,104.17128 a 44.970446,44.969324 0 0 0 -63.597946,0 44.970446,44.969324 0 0 0 -4.0181225,58.96049 7.3033299,7.3031477 0 0 0 -3.6505793,1.97623 7.3033299,7.3031477 0 0 0 -5e-7,10.32815 7.3033299,7.3031477 0 0 0 10.3284003,0 7.3033299,7.3031477 0 0 0 1.979207,-3.64793 44.970446,44.969324 0 0 0 58.958856,-4.02076 44.970446,44.969324 0 0 0 1.85e-4,-63.59618 z"
       id="path17741-7" />
    <path
       style="display:inline;fill:none;stroke:#0000ff;stroke-width:0.302607;stroke-miterlimit:4;stroke-dasharray:none;stroke-opacity:1"
       d="m 16.69586,170.6657 a 5.7601392,5.7600867 0 0 1 -1.671812,3.65252 5.7601392,5.7600867 0 0 1 -8.1457434,0 5.7601392,5.7600867 0 0 1 -1.815e-4,-8.14585 5.7601392,5.7600867 0 0 1 3.6558169,-1.66744 44.757501,44.757093 0 0 0 2.910056,3.24766 44.757501,44.757093 0 0 0 3.251864,2.91311 z"
       id="path13525-0-0" />
    <path
       style="display:inline;fill:none;stroke:#ff0000;stroke-width:0.302607;stroke-miterlimit:4;stroke-dasharray:none;stroke-opacity:1"
       d="m 76.740609,104.45655 a 44.757501,44.757093 0 0 0 -63.296794,0 44.757501,44.757093 0 0 0 -3.9990956,58.68223 7.268747,7.2686807 0 0 0 -3.6332923,1.96691 7.268747,7.2686807 0 0 0 0,10.2794 7.268747,7.2686807 0 0 0 10.2794889,0 7.268747,7.2686807 0 0 0 1.969831,-3.63072 44.757501,44.757093 0 0 0 58.679671,-4.00178 44.757501,44.757093 0 0 0 1.91e-4,-63.29604 z"
       id="path17741-9-0" />
    <path
       id="rect7802-0-5"
       style="display:inline;fill:none;fill-opacity:1;stroke:none;stroke-width:0.299341;stroke-miterlimit:4;stroke-dasharray:none;stroke-opacity:1"
       d="m 134.88721,93.903254 v 7.906696 l -6.48878,-6.488611 -1.5012,1.501161 7.55044,7.55024 0.43954,0.43953 v 4.52522 l -6.48878,-6.48861 -1.5012,1.50116 7.55044,7.55024 0.43954,0.43953 v 16.95133 a 6.5682829,6.7573167 0 0 0 -0.94284,0.24005 6.7574049,6.5681978 44.973763 0 0 -1.96924,0.96262 l -11.97579,-11.975 v -11.29976 h -2.12283 v 9.17698 l -3.19995,-3.19986 V 101.8964 h -2.12284 v 9.17699 l -5.59134,-5.5912 -1.5012,1.50116 5.59086,5.59071 h -9.17674 v 2.12327 h 11.30005 l 3.19996,3.19987 h -9.17722 v 2.12278 h 11.30005 l 11.98642,11.9861 a 6.7574049,6.5681978 44.973763 0 0 -0.53083,0.90804 6.7574924,6.5681121 0 0 0 -0.67912,2.00203 h -16.93438 -5e-4 l -7.98997,-7.99025 -1.5012,1.50116 6.48877,6.48909 h -4.52485 -4.9e-4 l -7.989957,-7.99025 -1.5012,1.50116 6.488777,6.48909 h -7.906899 v 2.12278 h 7.906899 l -6.488777,6.48909 1.5012,1.50116 7.550437,-7.55024 0.44002,-0.44001 h 4.52486 l -6.48878,6.48909 1.5012,1.50116 7.55044,-7.55024 0.44002,-0.44001 h 16.95081 a 6.7574924,6.5681121 0 0 0 0.26517,1.01237 6.5681978,6.7574049 45.026237 0 0 0.93704,1.90108 l -11.97434,11.97403 h -11.30005 v 2.12326 h 9.17722 l -3.19996,3.19987 h -11.30005 v 2.12278 h 9.17722 l -5.59134,5.5912 1.5012,1.50116 5.59086,-5.59072 v 9.1765 h 2.12331 V 158.7507 l 3.19996,-3.19987 v 9.1765 h 2.12283 v -11.29928 l 11.98593,-11.98562 a 6.5681978,6.7574049 45.026237 0 0 0.90903,0.53082 6.5682829,6.7573167 0 0 0 2.0016,0.67861 v 16.93395 l -0.44002,0.43952 v 5e-4 l -7.55044,7.55024 1.5012,1.50116 6.48926,-6.48909 v 4.52522 l -0.44002,0.43953 -7.55044,7.55072 1.5012,1.50116 6.48926,-6.48909 v 7.90717 h 2.12284 v -7.90717 l 6.48926,6.48909 1.5012,-1.50116 -7.99046,-7.99074 v -4.52473 l 6.48926,6.48909 1.5012,-1.50116 -7.99046,-7.99074 v -16.9465 a 6.5682829,6.7573167 0 0 0 1.09836,-0.29511 6.7574049,6.5681978 44.973763 0 0 1.81468,-0.91142 l 11.97482,11.97451 v 0.6221 10.67815 h 2.12332 v -9.17699 l 3.19995,3.19987 v 0.62162 10.67814 h 2.12284 v -9.17698 l 5.59134,5.5912 1.5012,-1.50116 -5.59134,-5.5912 h 9.17722 v -2.12278 h -11.30006 l -3.19995,-3.19987 h 9.17674 v -2.12278 h -11.29958 l -11.98641,-11.9861 a 6.7574049,6.5681978 44.973763 0 0 0.5318,-0.91094 6.7574924,6.5681121 0 0 0 0.67814,-1.99913 h 16.93439 l 0.43954,0.43953 7.55092,7.55072 1.5012,-1.50116 -6.48926,-6.48909 h 4.52533 l 0.43954,0.43953 7.55092,7.55072 1.5012,-1.50116 -6.48926,-6.48909 h 7.90739 v -2.12326 h -7.90739 l 6.48926,-6.48861 -1.5012,-1.50116 -7.55092,7.55024 -0.43954,0.43953 h -4.52533 l 6.48926,-6.48861 -1.5012,-1.50116 -7.55092,7.55024 -0.43954,0.43953 h -16.94791 a 6.7574924,6.5681121 0 0 0 -0.29415,-1.09738 6.5681978,6.7574049 45.026237 0 0 -0.91193,-1.81511 l 11.97531,-11.97499 h 0.62163 10.67842 v -2.12278 h -9.17722 l 3.19995,-3.19987 h 0.62164 10.67842 v -2.12278 h -9.17722 l 5.59134,-5.5912 -1.5012,-1.50116 -5.59134,5.5912 v -9.17699 h -2.12284 v 10.67814 0.62162 l -3.19995,3.19987 v -9.17699 h -2.12283 v 10.67815 0.62162 l -11.9869,11.98658 a 6.5681978,6.7574049 45.026237 0 0 -0.94526,-0.5511 6.5682829,6.7573167 0 0 0 -1.9644,-0.65881 v -16.93491 l 0.43954,-0.43953 7.55092,-7.55024 -1.5012,-1.50116 -6.48926,6.48861 v -4.52522 l 0.43954,-0.43953 7.55092,-7.55024 -1.5012,-1.501161 -6.48926,6.488611 v -7.906696 z m 1.08497,38.816686 a 3.3534784,3.2594966 0 0 1 1.05347,0.16525 3.3534348,3.2595389 44.973759 0 1 1.23734,0.79102 3.3534348,3.2595389 44.973759 0 1 0.63074,0.86725 3.2595814,3.3533913 0 0 1 0.31304,1.42816 3.2595814,3.3533913 0 0 1 -0.16117,1.0418 3.2595389,3.3534348 45.026241 0 1 -0.79483,1.24894 3.2595389,3.3534348 45.026241 0 1 -0.90189,0.64848 3.3534784,3.2594966 0 0 1 -1.39445,0.29529 3.3534784,3.2594966 0 0 1 -1.08867,-0.17659 3.3534348,3.2595389 44.973759 0 1 -3e-4,0 3.3534784,3.2594966 0 0 1 -0.0314,-0.0119 3.3534348,3.2595389 44.973759 0 1 -1.16955,-0.76746 3.3534348,3.2595389 44.973759 0 1 -0.63191,-0.87016 3.2595814,3.3533913 0 0 1 -0.31217,-1.42612 3.2595814,3.3533913 0 0 1 0.16903,-1.06246 3.2595389,3.3534348 45.026241 0 1 0.78698,-1.22741 3.2595389,3.3534348 45.026241 0 1 0.95862,-0.6732 3.3534784,3.2594966 0 0 1 1.33713,-0.27086 z" />
    <path
       style="display:inline;fill:none;stroke:none;stroke-width:0.299341;stroke-miterlimit:4;stroke-dasharray:none;stroke-opacity:1"
       d="m 107.42596,170.69431 a 5.7875446,5.787395 0 0 1 -1.67977,3.66984 5.7875446,5.787395 0 0 1 -8.184497,0 5.7875446,5.787395 0 0 1 -1.82e-4,-8.18447 5.7875446,5.787395 0 0 1 3.673219,-1.67534 44.970446,44.969284 0 0 0 2.9239,3.26305 44.970446,44.969284 0 0 0 3.26733,2.92692 z"
       id="path13525-6-5" />
    <path
       style="display:inline;fill:none;stroke:none;stroke-width:0.299341;stroke-miterlimit:4;stroke-dasharray:none;stroke-opacity:1"
       d="m 167.75639,104.17126 a 44.970446,44.969284 0 0 0 -63.59794,0 44.970446,44.969284 0 0 0 -4.01813,58.96044 7.3033299,7.3031411 0 0 0 -3.650576,1.97624 7.3033299,7.3031411 0 0 0 -10e-7,10.32813 7.3033299,7.3031411 0 0 0 10.328397,0 7.3033299,7.3031411 0 0 0 1.97921,-3.64792 44.970446,44.969284 0 0 0 58.95886,-4.02076 44.970446,44.969284 0 0 0 1.8e-4,-63.59613 z"
       id="path17741-6-6" />
    <path
       style="display:inline;fill:none;stroke:#0000ff;stroke-width:0.302607;stroke-miterlimit:4;stroke-dasharray:none;stroke-opacity:1"
       d="m 107.69586,170.66563 a 5.7601392,5.7600815 0 0 1 -1.67181,3.65252 5.7601392,5.7600815 0 0 1 -8.145746,0 5.7601392,5.7600815 0 0 1 -1.81e-4,-8.14584 5.7601392,5.7600815 0 0 1 3.655817,-1.66744 44.757501,44.757052 0 0 0 2.91006,3.24765 44.757501,44.757052 0 0 0 3.25186,2.91311 z"
       id="path13525-0-9-3" />
    <path
       style="display:inline;fill:none;stroke:#ff0000;stroke-width:0.302607;stroke-miterlimit:4;stroke-dasharray:none;stroke-opacity:1"
       d="m 167.74061,104.45653 a 44.757501,44.757052 0 0 0 -63.2968,0 44.757501,44.757052 0 0 0 -3.99909,58.68218 7.268747,7.2686741 0 0 0 -3.633293,1.96691 7.268747,7.2686741 0 0 0 0,10.27939 7.268747,7.2686741 0 0 0 10.279493,0 7.268747,7.2686741 0 0 0 1.96983,-3.63071 44.757501,44.757052 0 0 0 58.67967,-4.00178 44.757501,44.757052 0 0 0 1.9e-4,-63.29599 z"
       id="path17741-9-7-5" />
  </g>
</svg>
