<?xml version="1.0" encoding="UTF-8" standalone="no"?>
<!-- Created with Inkscape (http://www.inkscape.org/) -->

<svg
   width="1220mm"
   height="600mm"
   viewBox="0 0 1220 600.00001"
   version="1.1"
   id="svg5"
   inkscape:version="1.1.1 (3bf5ae0d25, 2021-09-20)"
   sodipodi:docname="template.svg"
   xmlns:inkscape="http://www.inkscape.org/namespaces/inkscape"
   xmlns:sodipodi="http://sodipodi.sourceforge.net/DTD/sodipodi-0.dtd"
   xmlns="http://www.w3.org/2000/svg"
   xmlns:svg="http://www.w3.org/2000/svg"
   xmlns:rdf="http://www.w3.org/1999/02/22-rdf-syntax-ns#"
   xmlns:cc="http://creativecommons.org/ns#"
   xmlns:dc="http://purl.org/dc/elements/1.1/">
  <metadata
     id="metadata846">
    <rdf:RDF>
      <cc:Work
         rdf:about="">
        <dc:format>image/svg+xml</dc:format>
        <dc:type
           rdf:resource="http://purl.org/dc/dcmitype/StillImage" />
      </cc:Work>
    </rdf:RDF>
  </metadata>
  <sodipodi:namedview
     id="namedview7"
     pagecolor="#ffffff"
     bordercolor="#666666"
     borderopacity="1.0"
     inkscape:pageshadow="2"
     inkscape:pageopacity="0.0"
     inkscape:pagecheckerboard="true"
     inkscape:document-units="mm"
     showgrid="false"
     inkscape:zoom="0.5"
     inkscape:cx="-181"
     inkscape:cy="259"
     inkscape:window-width="1920"
     inkscape:window-height="1017"
     inkscape:window-x="1912"
     inkscape:window-y="-8"
     inkscape:window-maximized="1"
     inkscape:current-layer="layer1"
     inkscape:snap-global="false"
     showguides="true"
     inkscape:guide-bbox="true"
     inkscape:object-nodes="false"
     inkscape:snap-center="true"
     inkscape:snap-object-midpoints="true"
     inkscape:snap-grids="true"
     inkscape:object-paths="false"
     inkscape:snap-others="false"
     inkscape:snap-midpoints="true"
     inkscape:snap-bbox="true"
     inkscape:snap-bbox-midpoints="true">
    <inkscape:grid
       type="xygrid"
       id="grid13171" />
  </sodipodi:namedview>
  <defs
     id="defs2">
    <inkscape:path-effect
       effect="bspline"
       id="path-effect2669"
       is_visible="true"
       weight="20"
       steps="2"
       helper_size="0"
       apply_no_weight="true"
       apply_with_weight="true"
       only_selected="false" />
    <pattern
       patternUnits="userSpaceOnUse"
       patternTransform="translate(0.000160318455288,0.000160210947143)"
       height="89.9996771232"
       width="89.9996771232"
       id="Voronoi1649">
      <path
         id="path2397"
         style="stroke:#000000;stroke-width:0.264583333328"
         d="M 31.594,0.000 33.203,3.392 M 33.203,3.392 36.124,4.523 M 36.124,4.523 38.037,0.000 M 36.124,4.523 36.621,4.808 M 24.801,9.559 33.203,3.392 M 16.057,9.285 16.938,0.000 M 16.057,9.285 24.801,9.559 M 30.609,16.545 36.621,4.808 M 30.609,16.545 44.082,8.387 M 36.621,4.808 44.082,8.387 M 55.450,0.000 59.140,4.663 M 59.140,4.663 63.148,0.000 M 24.801,9.559 28.391,18.713 M 28.391,18.713 30.609,16.545 M 5.201,17.517 16.057,9.285 M 44.082,8.387 56.786,13.276 M 56.786,13.276 59.140,4.663 M 88.833,0.000 90.000,4.833 M 0.000,4.833 3.181,18.007 M 3.181,18.007 5.201,17.517 M 5.201,17.517 29.154,26.923 M 28.391,18.713 29.154,26.923 M 0.000,21.857 3.181,18.007 M 89.213,22.810 90.000,21.857 M 56.786,13.276 58.049,19.157 M 55.971,21.313 58.049,19.157 M 81.102,26.540 89.213,22.810 M 29.154,26.923 33.215,31.629 M 58.049,19.157 74.765,26.620 M 74.765,26.620 81.102,26.540 M 28.755,35.883 33.215,31.629 M 33.215,31.629 42.279,31.475 M 42.279,31.475 55.971,21.313 M 89.213,22.810 90.000,23.646 M 0.000,23.646 16.319,40.979 M 16.319,40.979 28.755,35.883 M 55.971,21.313 59.055,48.526 M 14.271,47.181 16.319,40.979 M 14.271,47.181 23.558,52.155 M 23.558,52.155 29.990,52.518 M 28.755,35.883 29.990,52.518 M 42.279,31.475 44.998,48.860 M 29.990,52.518 30.449,53.016 M 30.449,53.016 44.998,48.860 M 59.055,48.526 69.561,51.070 M 69.561,51.070 74.765,26.620 M 44.998,48.860 47.116,52.165 M 47.116,52.165 48.678,53.267 M 48.678,53.267 59.055,48.526 M 9.475,52.568 14.271,47.181 M 9.475,52.568 14.748,59.735 M 0.000,52.167 0.653,54.048 M 0.653,54.048 9.475,52.568 M 81.102,26.540 90.000,52.167 M 48.678,53.267 52.024,61.069 M 14.748,59.735 21.202,63.309 M 21.202,63.309 23.558,52.155 M 69.561,51.070 72.341,58.296 M 0.000,54.781 0.653,54.048 M 86.778,58.394 90.000,54.781 M 30.449,53.016 30.967,63.614 M 30.967,63.614 33.026,64.520 M 33.026,64.520 47.116,52.165 M 0.000,61.020 10.080,69.236 M 10.080,69.236 14.748,59.735 M 86.778,58.394 90.000,61.020 M 21.202,63.309 23.665,65.580 M 23.665,65.580 30.967,63.614 M 33.026,64.520 34.692,66.498 M 34.692,66.498 52.024,61.069 M 52.024,61.069 54.310,64.348 M 10.080,69.236 10.368,70.638 M 54.310,64.348 60.489,65.784 M 60.489,65.784 72.341,58.296 M 72.341,58.296 81.880,61.886 M 81.880,61.886 86.778,58.394 M 10.368,70.638 22.086,69.442 M 22.086,69.442 23.665,65.580 M 49.674,69.874 54.310,64.348 M 34.692,66.498 37.719,72.498 M 37.719,72.498 49.674,69.874 M 37.025,76.294 37.719,72.498 M 37.025,76.294 42.091,80.415 M 6.420,80.367 10.368,70.638 M 22.086,69.442 22.138,81.384 M 22.138,81.384 28.445,83.364 M 28.445,83.364 37.025,76.294 M 6.420,80.367 17.575,83.289 M 17.575,83.289 22.138,81.384 M 42.091,80.415 50.857,84.198 M 49.674,69.874 50.857,84.198 M 81.880,61.886 83.629,80.594 M 83.629,80.594 87.061,82.663 M 87.061,82.663 90.000,81.942 M 0.000,81.942 6.420,80.367 M 60.489,65.784 65.857,86.847 M 65.857,86.847 83.629,80.594 M 28.445,83.364 31.594,90.000 M 38.037,90.000 42.091,80.415 M 16.938,90.000 17.575,83.289 M 50.857,84.198 55.450,90.000 M 63.148,90.000 65.857,86.847 M 87.061,82.663 88.833,90.000 M 67.610,90.000 67.610,90.000 M 53.966,0.000 53.966,0.000 " />
    </pattern>
    <pattern
       patternUnits="userSpaceOnUse"
       patternTransform="translate(0.000160318455288,0.000160210947143)"
       height="89.9996771232"
       width="89.9996771232"
       id="Voronoi8544">
      <path
         id="path2420"
         style="stroke:#000000;stroke-width:0.264583333328"
         d="M 0.000,0.295 0.190,0.000 M 85.350,7.490 90.000,0.295 M 6.151,0.000 10.849,7.065 M 10.299,7.615 10.849,7.065 M 0.000,10.550 10.299,7.615 M 85.350,7.490 88.142,11.079 M 88.142,11.079 90.000,10.550 M 10.849,7.065 16.485,7.884 M 16.485,7.884 22.389,0.000 M 23.571,0.000 36.429,11.932 M 36.429,11.932 51.372,4.683 M 48.852,0.000 51.372,4.683 M 16.485,7.884 20.514,15.443 M 20.493,15.495 20.514,15.443 M 20.514,15.443 34.169,14.454 M 34.169,14.454 36.429,11.932 M 5.449,19.664 10.299,7.615 M 5.449,19.664 20.493,15.495 M 63.812,6.554 67.772,0.000 M 63.812,6.554 85.350,7.490 M 34.169,14.454 34.218,23.076 M 32.584,24.351 34.218,23.076 M 51.372,4.683 60.480,9.372 M 60.480,9.372 63.812,6.554 M 19.046,25.656 20.493,15.495 M 19.046,25.656 32.584,24.351 M 76.027,24.972 84.121,25.845 M 84.121,25.845 89.613,25.565 M 88.142,11.079 89.613,25.565 M 0.000,25.718 0.237,25.812 M 0.237,25.812 5.449,19.664 M 89.613,25.565 90.000,25.718 M 60.480,9.372 62.849,21.456 M 62.849,21.456 76.027,24.972 M 81.299,42.594 84.121,25.845 M 0.000,39.354 6.086,37.089 M 81.299,42.594 90.000,39.354 M 6.086,37.089 8.537,34.408 M 0.237,25.812 8.537,34.408 M 76.027,24.972 79.519,44.129 M 79.519,44.129 81.299,42.594 M 8.537,34.408 13.974,35.549 M 13.974,35.549 19.046,25.656 M 79.097,44.789 79.519,44.129 M 56.877,34.494 62.849,21.456 M 56.877,34.494 79.097,44.789 M 13.974,35.549 18.922,40.394 M 18.922,40.394 24.179,42.662 M 24.179,42.662 32.584,24.351 M 34.218,23.076 50.680,38.904 M 50.680,38.904 54.025,37.964 M 54.025,37.964 56.877,34.494 M 40.148,45.846 50.680,38.904 M 0.000,49.724 6.086,37.089 M 87.982,53.913 90.000,49.724 M 79.097,44.789 80.711,53.208 M 80.711,53.208 81.388,53.709 M 81.388,53.709 87.982,53.913 M 24.179,42.662 31.600,47.996 M 31.600,47.996 40.148,45.846 M 54.025,37.964 63.411,55.444 M 63.411,55.444 80.711,53.208 M 5.951,59.684 18.922,40.394 M 87.982,53.913 90.000,55.414 M 0.000,55.414 5.778,59.713 M 5.778,59.713 5.951,59.684 M 5.951,59.684 15.985,63.744 M 15.985,63.744 28.164,60.222 M 28.164,60.222 31.600,47.996 M 1.863,68.578 5.778,59.713 M 62.121,64.568 63.411,55.444 M 14.424,73.510 15.985,63.744 M 40.148,45.846 50.671,69.557 M 50.671,69.557 62.121,64.568 M 14.424,73.510 32.950,72.293 M 28.164,60.222 32.950,72.293 M 1.863,68.578 11.411,77.314 M 11.411,77.314 12.198,77.659 M 12.198,77.659 14.424,73.510 M 12.198,77.659 13.200,80.168 M 0.000,79.784 11.411,77.314 M 84.562,80.961 90.000,79.784 M 0.000,69.660 1.863,68.578 M 78.191,76.523 90.000,69.660 M 78.191,76.523 84.562,80.961 M 77.458,76.457 81.388,53.709 M 77.458,76.457 78.191,76.523 M 32.950,72.293 35.639,76.840 M 62.121,64.568 75.596,77.049 M 75.596,77.049 77.458,76.457 M 13.200,80.168 23.538,85.120 M 23.538,85.120 35.639,76.840 M 35.639,76.840 43.133,79.373 M 43.133,79.373 50.671,69.557 M 0.000,87.402 1.059,88.656 M 84.562,80.961 90.000,87.402 M 1.059,88.656 5.744,89.387 M 5.744,89.387 13.200,80.168 M 22.874,89.352 23.538,85.120 M 0.190,90.000 1.059,88.656 M 5.744,89.387 6.151,90.000 M 22.389,90.000 22.874,89.352 M 22.874,89.352 23.571,90.000 M 43.133,79.373 48.852,90.000 M 67.772,90.000 75.596,77.049 M 54.789,0.000 54.789,0.000 " />
    </pattern>
    <pattern
       patternUnits="userSpaceOnUse"
       patternTransform="translate(0.000160318455288,0.000160210947143)"
       height="89.9996771232"
       width="89.9996771232"
       id="Voronoi8482">
      <path
         id="path2445"
         style="stroke:#000000;stroke-width:0.264583333328"
         d="M 48.410,0.000 50.438,3.438 M 10.872,0.391 10.950,0.000 M 10.872,0.391 11.072,1.670 M 73.789,0.000 74.230,3.361 M 74.230,3.361 78.549,0.000 M 50.438,3.438 50.859,11.507 M 28.079,0.000 33.674,8.615 M 33.674,8.615 43.055,0.000 M 50.438,3.438 70.749,6.114 M 64.328,0.000 70.749,6.114 M 11.072,1.670 22.114,13.048 M 70.749,6.114 72.901,7.377 M 72.901,7.377 74.230,3.361 M 22.114,13.048 32.611,13.044 M 32.611,13.044 33.146,12.806 M 33.146,12.806 33.674,8.615 M 72.901,7.377 73.589,10.429 M 73.589,10.429 90.000,4.391 M 33.146,12.806 39.124,17.382 M 39.124,17.382 50.859,11.507 M 73.565,11.132 73.589,10.429 M 0.000,4.391 10.872,0.391 M 68.221,18.330 73.565,11.132 M 0.000,19.441 4.020,21.473 M 4.020,21.473 11.072,1.670 M 73.565,11.132 90.000,19.441 M 50.859,11.507 65.204,19.924 M 65.204,19.924 68.221,18.330 M 39.124,17.382 42.436,25.683 M 4.020,21.473 5.323,23.696 M 61.369,24.779 65.204,19.924 M 42.436,25.683 60.473,25.661 M 60.473,25.661 61.369,24.779 M 5.323,23.696 10.209,26.818 M 10.209,26.818 22.114,13.048 M 61.369,24.779 72.556,39.899 M 0.000,28.069 5.323,23.696 M 68.221,18.330 80.031,36.261 M 80.031,36.261 90.000,28.069 M 72.556,39.899 79.641,40.132 M 79.641,40.132 80.031,36.261 M 10.209,26.818 16.570,36.254 M 16.570,36.254 19.856,37.124 M 19.856,37.124 32.611,13.044 M 57.406,43.600 60.473,25.661 M 57.406,43.600 72.556,39.899 M 19.856,37.124 29.769,43.458 M 29.769,43.458 34.567,44.517 M 34.567,44.517 42.436,25.683 M 53.662,49.704 57.406,43.600 M 16.755,59.677 29.769,43.458 M 53.662,49.704 56.348,51.893 M 16.755,59.677 23.149,64.943 M 34.567,44.517 41.073,50.705 M 41.073,50.705 53.662,49.704 M 23.149,64.943 35.145,61.134 M 0.000,50.671 16.570,36.254 M 79.641,40.132 86.093,54.069 M 86.093,54.069 90.000,50.671 M 56.348,51.893 66.583,59.305 M 35.145,61.134 39.570,57.873 M 39.570,57.873 41.073,50.705 M 39.570,57.873 41.142,63.873 M 85.413,57.220 86.093,54.069 M 66.583,59.305 80.873,59.797 M 80.873,59.797 85.413,57.220 M 85.413,57.220 90.000,60.438 M 0.000,60.438 4.765,63.781 M 4.765,63.781 16.755,59.677 M 61.357,71.070 66.583,59.305 M 79.143,70.299 80.873,59.797 M 61.357,71.070 73.438,79.147 M 73.438,79.147 79.143,70.299 M 34.335,79.535 41.142,63.873 M 41.142,63.873 51.679,77.092 M 51.679,77.092 56.348,51.893 M 55.940,77.354 61.357,71.070 M 55.940,77.354 72.735,81.985 M 72.735,81.985 73.438,79.147 M 79.143,70.299 86.940,83.470 M 51.679,77.092 53.111,79.227 M 53.111,79.227 55.940,77.354 M 53.089,79.300 53.111,79.227 M 22.635,81.615 34.335,79.535 M 21.950,81.335 35.145,61.134 M 21.950,81.335 22.635,81.615 M 20.063,81.088 23.149,64.943 M 20.063,81.088 21.950,81.335 M 34.335,79.535 46.653,86.055 M 46.653,86.055 53.089,79.300 M 46.529,86.810 46.653,86.055 M 4.765,63.781 13.185,81.987 M 13.185,81.987 20.063,81.088 M 0.000,83.407 12.308,83.155 M 12.308,83.155 13.185,81.987 M 86.940,83.470 90.000,83.407 M 46.529,86.810 48.410,90.000 M 10.950,90.000 12.308,83.155 M 72.735,81.985 73.789,90.000 M 78.549,90.000 86.940,83.470 M 22.635,81.615 28.079,90.000 M 43.055,90.000 46.529,86.810 M 53.089,79.300 64.328,90.000 " />
    </pattern>
    <pattern
       patternUnits="userSpaceOnUse"
       patternTransform="translate(0.0,-2.35438346745e-06)"
       height="90.3532451232"
       width="90.3532371857"
       id="Voronoi2126">
      <path
         id="path2564"
         style="stroke:#000000;stroke-width:0.264583333328"
         d="M 44.975,0.000 45.176,0.548 M 39.615,3.856 45.176,0.548 M 45.176,0.548 53.048,1.871 M 53.048,1.871 55.065,0.000 M 53.048,1.871 53.436,3.791 M 73.803,0.000 75.728,1.612 M 75.728,1.612 76.759,0.000 M 29.116,0.000 39.615,3.856 M 12.364,4.021 14.019,0.000 M 37.151,16.557 39.615,3.856 M 12.364,4.021 23.200,15.620 M 23.200,15.620 37.151,16.557 M 41.148,18.425 53.436,3.791 M 37.151,16.557 38.013,17.498 M 38.013,17.498 41.148,18.425 M 75.728,1.612 83.152,13.777 M 0.000,11.901 12.364,4.021 M 83.152,13.777 86.301,14.484 M 86.301,14.484 87.015,16.514 M 87.015,16.514 87.419,22.661 M 81.817,34.888 87.419,22.661 M 41.148,18.425 56.046,26.283 M 38.993,34.769 56.046,26.283 M 53.436,3.791 61.413,24.839 M 61.413,24.839 83.152,13.777 M 33.229,33.528 38.013,17.498 M 33.229,33.528 38.993,34.769 M 56.046,26.283 60.150,26.618 M 60.150,26.618 61.413,24.839 M 22.479,33.284 23.200,15.620 M 0.000,18.997 20.156,33.983 M 20.156,33.983 22.479,33.284 M 87.015,16.514 90.353,18.997 M 22.479,33.284 27.772,35.524 M 27.772,35.524 33.229,33.528 M 27.772,35.524 29.060,41.932 M 74.989,42.734 81.817,34.888 M 29.060,41.932 31.030,46.913 M 60.150,26.618 61.943,38.817 M 18.370,49.567 29.060,41.932 M 10.160,43.673 20.156,33.983 M 10.160,43.673 18.370,49.567 M 31.030,46.913 44.804,46.957 M 38.993,34.769 44.804,46.957 M 44.804,46.957 44.971,47.066 M 44.971,47.066 61.943,38.817 M 61.943,38.817 64.452,42.185 M 64.452,42.185 74.989,42.734 M 0.000,29.697 6.322,44.856 M 6.322,44.856 10.160,43.673 M 87.419,22.661 90.353,29.697 M 64.386,48.243 64.452,42.185 M 44.876,53.123 44.971,47.066 M 0.000,45.127 3.073,48.812 M 3.073,48.812 6.322,44.856 M 81.817,34.888 90.353,45.127 M 64.386,48.243 80.265,57.215 M 80.265,57.215 89.461,51.509 M 74.989,42.734 89.461,51.509 M 0.000,51.537 1.246,51.575 M 1.246,51.575 3.073,48.812 M 89.461,51.509 90.353,51.537 M 77.963,60.319 80.265,57.215 M 62.607,56.585 64.386,48.243 M 62.607,56.585 71.880,62.175 M 71.880,62.175 77.963,60.319 M 44.876,53.123 50.334,60.842 M 71.880,62.175 72.190,67.821 M 50.334,60.842 56.882,62.401 M 56.882,62.401 62.607,56.585 M 72.190,67.821 81.619,68.662 M 77.963,60.319 81.619,68.662 M 18.370,49.567 27.258,60.790 M 27.258,60.790 31.030,46.913 M 27.258,60.790 27.303,61.195 M 27.303,61.195 44.876,53.123 M 56.882,62.401 57.756,67.353 M 81.619,68.662 84.154,71.059 M 76.489,75.055 84.154,71.059 M 42.169,75.861 57.756,67.353 M 0.000,72.258 0.875,72.427 M 84.154,71.059 90.353,72.258 M 0.000,73.332 0.875,72.427 M 76.489,75.055 82.371,81.581 M 82.371,81.581 90.353,73.332 M 34.659,72.181 50.334,60.842 M 34.659,72.181 39.689,75.949 M 39.689,75.949 42.169,75.861 M 67.818,77.721 72.190,67.821 M 67.818,77.721 76.489,75.055 M 0.875,72.427 9.168,71.174 M 1.246,51.575 9.168,71.174 M 25.151,70.443 27.303,61.195 M 25.151,70.443 34.659,72.181 M 42.169,75.861 63.693,81.039 M 57.756,67.353 63.693,81.039 M 63.693,81.039 63.893,81.294 M 63.893,81.294 67.818,77.721 M 63.893,81.294 63.955,82.107 M 9.168,71.174 16.526,76.077 M 16.526,76.077 25.151,70.443 M 39.689,75.949 44.975,90.353 M 55.065,90.353 63.955,82.107 M 63.955,82.107 73.803,90.353 M 76.759,90.353 82.371,81.581 M 16.001,85.536 16.526,76.077 M 16.001,85.536 29.116,90.353 M 14.019,90.353 16.001,85.536 M 86.301,14.484 90.353,11.901 M 31.490,0.000 31.490,0.000 " />
    </pattern>
    <pattern
       patternUnits="userSpaceOnUse"
       patternTransform="translate(0.000160318455288,0.000160210947143)"
       height="89.9996771232"
       width="89.9996771232"
       id="Voronoi8482-2">
      <path
         id="path2445-5"
         style="stroke:#000000;stroke-width:0.264583333328"
         d="M 48.410,0.000 50.438,3.438 M 10.872,0.391 10.950,0.000 M 10.872,0.391 11.072,1.670 M 73.789,0.000 74.230,3.361 M 74.230,3.361 78.549,0.000 M 50.438,3.438 50.859,11.507 M 28.079,0.000 33.674,8.615 M 33.674,8.615 43.055,0.000 M 50.438,3.438 70.749,6.114 M 64.328,0.000 70.749,6.114 M 11.072,1.670 22.114,13.048 M 70.749,6.114 72.901,7.377 M 72.901,7.377 74.230,3.361 M 22.114,13.048 32.611,13.044 M 32.611,13.044 33.146,12.806 M 33.146,12.806 33.674,8.615 M 72.901,7.377 73.589,10.429 M 73.589,10.429 90.000,4.391 M 33.146,12.806 39.124,17.382 M 39.124,17.382 50.859,11.507 M 73.565,11.132 73.589,10.429 M 0.000,4.391 10.872,0.391 M 68.221,18.330 73.565,11.132 M 0.000,19.441 4.020,21.473 M 4.020,21.473 11.072,1.670 M 73.565,11.132 90.000,19.441 M 50.859,11.507 65.204,19.924 M 65.204,19.924 68.221,18.330 M 39.124,17.382 42.436,25.683 M 4.020,21.473 5.323,23.696 M 61.369,24.779 65.204,19.924 M 42.436,25.683 60.473,25.661 M 60.473,25.661 61.369,24.779 M 5.323,23.696 10.209,26.818 M 10.209,26.818 22.114,13.048 M 61.369,24.779 72.556,39.899 M 0.000,28.069 5.323,23.696 M 68.221,18.330 80.031,36.261 M 80.031,36.261 90.000,28.069 M 72.556,39.899 79.641,40.132 M 79.641,40.132 80.031,36.261 M 10.209,26.818 16.570,36.254 M 16.570,36.254 19.856,37.124 M 19.856,37.124 32.611,13.044 M 57.406,43.600 60.473,25.661 M 57.406,43.600 72.556,39.899 M 19.856,37.124 29.769,43.458 M 29.769,43.458 34.567,44.517 M 34.567,44.517 42.436,25.683 M 53.662,49.704 57.406,43.600 M 16.755,59.677 29.769,43.458 M 53.662,49.704 56.348,51.893 M 16.755,59.677 23.149,64.943 M 34.567,44.517 41.073,50.705 M 41.073,50.705 53.662,49.704 M 23.149,64.943 35.145,61.134 M 0.000,50.671 16.570,36.254 M 79.641,40.132 86.093,54.069 M 86.093,54.069 90.000,50.671 M 56.348,51.893 66.583,59.305 M 35.145,61.134 39.570,57.873 M 39.570,57.873 41.073,50.705 M 39.570,57.873 41.142,63.873 M 85.413,57.220 86.093,54.069 M 66.583,59.305 80.873,59.797 M 80.873,59.797 85.413,57.220 M 85.413,57.220 90.000,60.438 M 0.000,60.438 4.765,63.781 M 4.765,63.781 16.755,59.677 M 61.357,71.070 66.583,59.305 M 79.143,70.299 80.873,59.797 M 61.357,71.070 73.438,79.147 M 73.438,79.147 79.143,70.299 M 34.335,79.535 41.142,63.873 M 41.142,63.873 51.679,77.092 M 51.679,77.092 56.348,51.893 M 55.940,77.354 61.357,71.070 M 55.940,77.354 72.735,81.985 M 72.735,81.985 73.438,79.147 M 79.143,70.299 86.940,83.470 M 51.679,77.092 53.111,79.227 M 53.111,79.227 55.940,77.354 M 53.089,79.300 53.111,79.227 M 22.635,81.615 34.335,79.535 M 21.950,81.335 35.145,61.134 M 21.950,81.335 22.635,81.615 M 20.063,81.088 23.149,64.943 M 20.063,81.088 21.950,81.335 M 34.335,79.535 46.653,86.055 M 46.653,86.055 53.089,79.300 M 46.529,86.810 46.653,86.055 M 4.765,63.781 13.185,81.987 M 13.185,81.987 20.063,81.088 M 0.000,83.407 12.308,83.155 M 12.308,83.155 13.185,81.987 M 86.940,83.470 90.000,83.407 M 46.529,86.810 48.410,90.000 M 10.950,90.000 12.308,83.155 M 72.735,81.985 73.789,90.000 M 78.549,90.000 86.940,83.470 M 22.635,81.615 28.079,90.000 M 43.055,90.000 46.529,86.810 M 53.089,79.300 64.328,90.000 " />
    </pattern>
  </defs>
  <g
     inkscape:label="Layer 1"
     inkscape:groupmode="layer"
     id="layer1"
     style="display:inline">
    <text
       xml:space="preserve"
       style="font-size:9.15228px;line-height:1.25;font-family:sans-serif;letter-spacing:0px;word-spacing:0px;fill:#0000ff;fill-opacity:1;stroke-width:6.8644;stroke-miterlimit:4;stroke-dasharray:none"
       x="-188.13188"
       y="37.719048"
       id="text37531-6"><tspan
         sodipodi:role="line"
         id="tspan37529-6"
         style="fill:#0000ff;fill-opacity:1;stroke-width:6.8644;stroke-miterlimit:4;stroke-dasharray:none"
         x="-188.13188"
         y="37.719048">=pass1:800mm/min:40%:#0000ff=</tspan></text>
    <text
       xml:space="preserve"
       style="font-size:9.15228px;line-height:1.25;font-family:sans-serif;letter-spacing:0px;word-spacing:0px;fill:#ff0000;fill-opacity:1;stroke-width:6.864;stroke-miterlimit:4;stroke-dasharray:none"
       x="-186.16101"
       y="64.841095"
       id="text37531-6-9"><tspan
         sodipodi:role="line"
         id="tspan37529-6-2"
         style="fill:#ff0000;fill-opacity:1;stroke-width:6.864;stroke-miterlimit:4;stroke-dasharray:none"
         x="-186.16101"
         y="64.841095">=pass2:800mm/min:40%:#ff0000=</tspan></text>
    <text
       xml:space="preserve"
       style="font-size:9.15228px;line-height:1.25;font-family:sans-serif;letter-spacing:0px;word-spacing:0px;display:inline;fill:#00ff00;fill-opacity:1;stroke-width:6.8642"
       x="-192.17204"
       y="92.968636"
       id="text37531-6-2"><tspan
         sodipodi:role="line"
         id="tspan37529-6-1"
         style="fill:#00ff00;fill-opacity:1;stroke-width:6.8642"
         x="-192.17204"
         y="92.968636">=pass3:800mm/min:20%:#00ff00=</tspan></text>
    <path
       id="rect7802"
       style="display:inline;fill:none;fill-opacity:1;stroke:none;stroke-width:0.3;stroke-miterlimit:4;stroke-dasharray:none;stroke-opacity:1"
       d="m 43.786319,2.7121475 v 7.9241975 l -6.502974,-6.502973 -1.504484,1.5044846 7.566957,7.5669554 0.440501,0.440503 v 4.535236 l -6.502974,-6.502975 -1.504484,1.504485 7.566957,7.566956 0.440501,0.440502 V 38.17838 a 6.5826544,6.7722769 0 0 0 -0.944901,0.240582 6.7722777,6.5826542 44.999843 0 0 -1.973546,0.964749 L 28.86588,27.382204 V 16.057426 H 26.7384 v 9.197298 L 23.531447,22.047772 V 10.722994 h -2.12748 v 9.197299 l -5.603576,-5.603576 -1.504485,1.504484 5.603091,5.60309 h -9.196814 v 2.127966 h 11.324779 l 3.206954,3.206953 h -9.1973 v 2.12748 h 11.32478 l 12.012642,12.012637 a 6.7722777,6.5826542 44.999843 0 0 -0.531993,0.910049 6.7722779,6.5826534 0 0 0 -0.680598,2.006464 h -16.971438 -4.96e-4 l -8.007459,-8.007941 -1.504485,1.504484 6.502975,6.503457 h -4.534753 -4.95e-4 L 5.6378589,35.807899 4.1333743,37.312383 10.636349,43.81584 H 2.7121495 v 2.127481 h 7.9241995 l -6.5029747,6.503457 1.5044846,1.504483 7.5669581,-7.566955 0.440985,-0.440985 h 4.534753 l -6.502975,6.503457 1.504485,1.504483 7.566958,-7.566955 0.440986,-0.440985 h 16.987897 a 6.7722779,6.5826534 0 0 0 0.265751,1.014608 6.5826542,6.7722777 45.000157 0 0 0.939092,1.905293 L 27.382211,60.863758 h -11.32478 v 2.127966 h 9.1973 l -3.206954,3.206951 h -11.32478 v 2.12748 h 9.197299 l -5.603575,5.603576 1.504485,1.504483 5.603091,-5.603091 v 9.196815 h 2.127965 V 67.703159 l 3.206953,-3.206952 v 9.196814 h 2.127482 V 62.368726 L 40.898852,50.356571 a 6.5826542,6.7722777 45.000157 0 0 0.911017,0.531991 6.5826544,6.7722769 0 0 0 2.005979,0.680116 v 16.971438 l -0.440985,0.4405 v 4.96e-4 l -7.566956,7.566955 1.504483,1.504487 6.503458,-6.503459 v 4.535236 l -0.440985,0.440502 -7.566956,7.56744 1.504483,1.504486 6.503458,-6.503459 v 7.924682 H 45.94333 V 79.0933 l 6.503458,6.503459 1.504484,-1.504486 -8.007942,-8.008425 v -4.534753 l 6.503458,6.503459 1.504484,-1.504487 -8.007942,-8.008426 v -16.98402 a 6.5826544,6.7722769 0 0 0 1.100769,-0.295766 6.7722777,6.5826542 44.999843 0 0 1.818645,-0.913438 l 12.001025,12.001024 v 0.623478 10.701784 h 2.127965 v -9.197299 l 3.206953,3.206954 v 0.622995 10.701783 h 2.127479 v -9.197299 l 5.603577,5.603576 1.504484,-1.504486 -5.603574,-5.603574 H 79.02795 V 66.177874 H 67.703171 l -3.206953,-3.206955 h 9.196816 V 60.84344 H 62.368737 L 50.356098,48.830801 a 6.7722777,6.5826542 44.999843 0 0 0.532959,-0.912955 6.7722779,6.5826534 0 0 0 0.67963,-2.003558 h 16.971441 l 0.440501,0.440502 7.567439,7.567442 1.504487,-1.504487 -6.50346,-6.503457 h 4.535237 l 0.440502,0.440502 7.567441,7.567442 1.504485,-1.504487 -6.503461,-6.503457 h 7.924686 v -2.127964 h -7.924686 l 6.503461,-6.502974 -1.504485,-1.504483 -7.567441,7.566957 -0.440502,0.4405 h -4.535237 l 6.50346,-6.502974 -1.504487,-1.504483 -7.567439,7.566957 -0.440501,0.4405 H 51.555136 a 6.7722779,6.5826534 0 0 0 -0.2948,-1.099804 6.5826542,6.7722777 45.000157 0 0 -0.913921,-1.819126 L 62.347923,28.865887 h 0.622995 10.701785 v -2.127481 h -9.197301 l 3.206955,-3.206952 h 0.622996 10.701783 v -2.12748 h -9.197299 l 5.603576,-5.603575 -1.504485,-1.504484 -5.603575,5.603574 v -9.19731 h -2.127479 v 10.701781 0.622997 l -3.206956,3.206954 v -9.197299 h -2.127479 v 10.701782 0.622997 L 48.830312,39.374513 a 6.5826542,6.7722777 45.000157 0 0 -0.94732,-0.55232 6.5826544,6.7722769 0 0 0 -1.968707,-0.660272 V 21.189519 l 0.440503,-0.440502 7.567441,-7.566956 -1.504486,-1.504485 -6.503458,6.502975 V 13.645315 L 46.354788,13.204812 53.922229,5.6378566 52.417743,4.133372 45.914285,10.636345 V 2.7121475 Z M 44.873665,41.61477 a 3.3608159,3.2667129 0 0 1 1.055774,0.165612 3.3608156,3.2667131 44.999839 0 1 1.240047,0.792777 3.3608156,3.2667131 44.999839 0 1 0.632124,0.86917 3.2667134,3.3608154 0 0 1 0.313728,1.431316 3.2667134,3.3608154 0 0 1 -0.161529,1.044111 3.2667131,3.3608156 45.000161 0 1 -0.79657,1.251708 3.2667131,3.3608156 45.000161 0 1 -0.903864,0.649909 3.3608159,3.2667129 0 0 1 -1.397495,0.295943 3.3608159,3.2667129 0 0 1 -1.091054,-0.176981 3.3608156,3.2667131 44.999839 0 1 -2.99e-4,0 3.3608159,3.2667129 0 0 1 -0.03149,-0.01196 3.3608156,3.2667131 44.999839 0 1 -1.172109,-0.769162 3.3608156,3.2667131 44.999839 0 1 -0.633291,-0.872084 3.2667134,3.3608154 0 0 1 -0.312853,-1.429276 3.2667134,3.3608154 0 0 1 0.169402,-1.064811 3.2667131,3.3608156 45.000161 0 1 0.788696,-1.230135 3.2667131,3.3608156 45.000161 0 1 0.960723,-0.674691 3.3608159,3.2667129 0 0 1 1.340054,-0.271452 z" />
    <path
       style="display:inline;fill:none;stroke:none;stroke-width:0.3;stroke-miterlimit:4;stroke-dasharray:none;stroke-opacity:1"
       d="m 16.264992,79.673216 a 5.8002078,5.8002078 0 0 1 -1.683446,3.677963 5.8002078,5.8002078 0 0 1 -8.2024089,0 5.8002078,5.8002078 0 0 1 -1.828e-4,-8.202589 5.8002078,5.8002078 0 0 1 3.6812587,-1.679055 45.068842,45.068842 0 0 0 2.930293,3.270274 45.068842,45.068842 0 0 0 3.274486,2.933407 z"
       id="path13525" />
    <path
       style="display:inline;fill:none;stroke:none;stroke-width:0.3;stroke-miterlimit:4;stroke-dasharray:none;stroke-opacity:1"
       d="m 76.727423,13.00289 a 45.068842,45.068842 0 0 0 -63.737099,0 45.068842,45.068842 0 0 0 -4.0269144,59.090973 7.3193097,7.3193097 0 0 0 -3.6585669,1.98061 7.3193097,7.3193097 0 0 0 -5e-7,10.351002 7.3193097,7.3193097 0 0 0 10.3509988,0 7.3193097,7.3193097 0 0 0 1.983538,-3.656005 45.068842,45.068842 0 0 0 59.087859,-4.029661 45.068842,45.068842 0 0 0 1.85e-4,-63.736919 z"
       id="path17741" />
    <path
       style="display:inline;fill:none;stroke:#0000ff;stroke-width:0.303273;stroke-miterlimit:4;stroke-dasharray:none;stroke-opacity:1"
       d="m 16.535478,79.64447 a 5.7727425,5.7728339 0 0 1 -1.67547,3.660604 5.7727425,5.7728339 0 0 1 -8.1635667,0 5.7727425,5.7728339 0 0 1 -1.819e-4,-8.163877 5.7727425,5.7728339 0 0 1 3.6638156,-1.671131 44.855431,44.856141 0 0 0 2.916424,3.254841 44.855431,44.856141 0 0 0 3.258979,2.919563 z"
       id="path13525-0" />
    <path
       style="display:inline;fill:none;stroke:#ff0000;stroke-width:0.303273;stroke-miterlimit:4;stroke-dasharray:none;stroke-opacity:1"
       d="m 76.711606,13.288791 a 44.855431,44.856141 0 0 0 -63.435289,0 44.855431,44.856141 0 0 0 -4.0078455,58.812097 7.2846511,7.2847664 0 0 0 -3.641242,1.971261 7.2846511,7.2847664 0 0 0 0,10.30215 7.2846511,7.2847664 0 0 0 10.3019805,0 7.2846511,7.2847664 0 0 0 1.974141,-3.63875 44.855431,44.856141 0 0 0 58.808063,-4.010642 44.855431,44.856141 0 0 0 1.92e-4,-63.436116 z"
       id="path17741-9" />
  </g>
</svg>
