<?xml version="1.0" encoding="UTF-8" standalone="no"?>
<!-- Created with Inkscape (http://www.inkscape.org/) -->

<svg
   width="1220mm"
   height="600mm"
   viewBox="0 0 1220 600.00001"
   version="1.1"
   id="svg5"
   inkscape:version="1.1.1 (3bf5ae0d25, 2021-09-20)"
   sodipodi:docname="01_christmas_ballsv2.svg"
   xmlns:inkscape="http://www.inkscape.org/namespaces/inkscape"
   xmlns:sodipodi="http://sodipodi.sourceforge.net/DTD/sodipodi-0.dtd"
   xmlns="http://www.w3.org/2000/svg"
   xmlns:svg="http://www.w3.org/2000/svg"
   xmlns:rdf="http://www.w3.org/1999/02/22-rdf-syntax-ns#"
   xmlns:cc="http://creativecommons.org/ns#"
   xmlns:dc="http://purl.org/dc/elements/1.1/">
  <metadata
     id="metadata3849">
    <rdf:RDF>
      <cc:Work
         rdf:about="">
        <dc:format>image/svg+xml</dc:format>
        <dc:type
           rdf:resource="http://purl.org/dc/dcmitype/StillImage" />
      </cc:Work>
    </rdf:RDF>
  </metadata>
  <sodipodi:namedview
     id="namedview7"
     pagecolor="#ffffff"
     bordercolor="#666666"
     borderopacity="1.0"
     inkscape:pageshadow="2"
     inkscape:pageopacity="0.0"
     inkscape:pagecheckerboard="true"
     inkscape:document-units="mm"
     showgrid="false"
     inkscape:zoom="2.1860656"
     inkscape:cx="268.74766"
     inkscape:cy="197.84402"
     inkscape:window-width="1920"
     inkscape:window-height="1017"
     inkscape:window-x="-8"
     inkscape:window-y="-8"
     inkscape:window-maximized="1"
     inkscape:current-layer="layer1" />
  <defs
     id="defs2" />
  <g
     inkscape:label="Layer 1"
     inkscape:groupmode="layer"
     id="layer1">
    <text
       xml:space="preserve"
       style="font-size:2.86695px;line-height:1.25;font-family:sans-serif;letter-spacing:0px;word-spacing:0px;fill:#0000ff;fill-opacity:1;stroke-width:2.15027;stroke-miterlimit:4;stroke-dasharray:none"
       x="-89.795479"
       y="35.668728"
       id="text37531-6"><tspan
         sodipodi:role="line"
         id="tspan37529-6"
         style="fill:#0000ff;fill-opacity:1;stroke-width:2.15027;stroke-miterlimit:4;stroke-dasharray:none"
         x="-89.795479"
         y="35.668728">=pass2:800mm/min:40%:#0000ff=</tspan></text>
    <text
       xml:space="preserve"
       style="font-size:2.86695px;line-height:1.25;font-family:sans-serif;letter-spacing:0px;word-spacing:0px;fill:#ff0000;fill-opacity:1;stroke-width:2.15021"
       x="-90.896896"
       y="45.908516"
       id="text37531-6-9"><tspan
         sodipodi:role="line"
         id="tspan37529-6-2"
         style="fill:#ff0000;fill-opacity:1;stroke-width:2.15021"
         x="-90.896896"
         y="45.908516">=pass3:800mm/min:40%:#ff0000=</tspan></text>
    <text
       xml:space="preserve"
       style="font-size:2.86695px;line-height:1.25;font-family:sans-serif;letter-spacing:0px;word-spacing:0px;fill:#00ff00;fill-opacity:1;stroke-width:2.15021"
       x="-90.78775"
       y="23.785139"
       id="text37531-6-2"><tspan
         sodipodi:role="line"
         id="tspan37529-6-1"
         style="fill:#00ff00;fill-opacity:1;stroke-width:2.15021"
         x="-90.78775"
         y="23.785139">=pass1:800mm/min:20%:#00ff00=</tspan></text>
    <path
       style="fill:none;fill-opacity:1;stroke:#ff0000;stroke-width:0.755906;stroke-miterlimit:4;stroke-dasharray:none;stroke-opacity:1"
       d="M 173.85742,6.4375 A 167.42078,167.42078 0 0 0 67.601562,44.632812 27.975005,27.975005 0 0 0 67.660156,43.464844 27.975005,27.975005 0 0 0 39.685547,15.490234 27.975005,27.975005 0 0 0 11.710938,43.464844 27.975005,27.975005 0 0 0 39.685547,71.439453 27.975005,27.975005 0 0 0 41.734375,71.361328 167.42078,167.42078 0 0 0 6.4375,173.85742 167.42078,167.42078 0 0 0 173.85742,341.2793 167.42078,167.42078 0 0 0 341.2793,173.85742 167.42078,167.42078 0 0 0 173.85742,6.4375 Z"
       transform="scale(0.26458333)"
       id="path4941" />
    <path
       style="fill:none;fill-opacity:1;stroke:#0000ff;stroke-width:0.20439;stroke-miterlimit:4;stroke-dasharray:none;stroke-opacity:1"
       d="M 15.397805,11.5 A 4.8978052,4.8978052 0 0 1 10.5,16.397805 4.8978052,4.8978052 0 0 1 5.6021948,11.5 4.8978052,4.8978052 0 0 1 10.5,6.6021948 4.8978052,4.8978052 0 0 1 15.397805,11.5 Z"
       id="path4950" />
    <path
       style="fill:none;fill-opacity:1;stroke:#0000ff;stroke-width:0.225668;stroke-miterlimit:4;stroke-dasharray:none;stroke-opacity:1"
       d="M 87.137165,46 A 41.137166,41.137166 0 0 1 45.999999,87.137165 41.137166,41.137166 0 0 1 4.862834,46 41.137166,41.137166 0 0 1 45.999999,4.862834 41.137166,41.137166 0 0 1 87.137165,46 Z"
       id="path4952" />
    <path
       style="fill:none;stroke:#00ff00;stroke-width:0.264583px;stroke-linecap:butt;stroke-linejoin:miter;stroke-opacity:1"
       d="m 73.345238,33.404762 -19.607144,5.446427 c 0,0 -6.909736,8.42556 -3.378009,11.262753 3.531726,2.837192 -6.30453,4.229311 -6.30453,4.229311 L 8.5932538,51.438492"
       id="path1120"
       sodipodi:nodetypes="cczcc" />
  </g>
  <inkscape:templateinfo>
    <inkscape:name>Lasersaur</inkscape:name>
    <inkscape:author>Arthur</inkscape:author>
    <inkscape:shortdesc>Default size of the Lasersaur</inkscape:shortdesc>
    <inkscape:date>2021-10-20</inkscape:date>
  </inkscape:templateinfo>
</svg>
