<?xml version="1.0" encoding="UTF-8" standalone="no"?>
<!-- Created with Inkscape (http://www.inkscape.org/) -->

<svg
   width="1220mm"
   height="600mm"
   viewBox="0 0 1220 600.00001"
   version="1.1"
   id="svg5"
   inkscape:version="1.1.1 (3bf5ae0d25, 2021-09-20)"
   sodipodi:docname="christmas_balls_template.svg"
   xmlns:inkscape="http://www.inkscape.org/namespaces/inkscape"
   xmlns:sodipodi="http://sodipodi.sourceforge.net/DTD/sodipodi-0.dtd"
   xmlns="http://www.w3.org/2000/svg"
   xmlns:svg="http://www.w3.org/2000/svg"
   xmlns:rdf="http://www.w3.org/1999/02/22-rdf-syntax-ns#"
   xmlns:cc="http://creativecommons.org/ns#"
   xmlns:dc="http://purl.org/dc/elements/1.1/">
  <metadata
     id="metadata846">
    <rdf:RDF>
      <cc:Work
         rdf:about="">
        <dc:format>image/svg+xml</dc:format>
        <dc:type
           rdf:resource="http://purl.org/dc/dcmitype/StillImage" />
      </cc:Work>
    </rdf:RDF>
  </metadata>
  <sodipodi:namedview
     id="namedview7"
     pagecolor="#ffffff"
     bordercolor="#666666"
     borderopacity="1.0"
     inkscape:pageshadow="2"
     inkscape:pageopacity="0.0"
     inkscape:pagecheckerboard="true"
     inkscape:document-units="mm"
     showgrid="false"
     inkscape:zoom="0.5"
     inkscape:cx="253"
     inkscape:cy="445"
     inkscape:window-width="1920"
     inkscape:window-height="1017"
     inkscape:window-x="1912"
     inkscape:window-y="-8"
     inkscape:window-maximized="1"
     inkscape:current-layer="layer1"
     inkscape:snap-global="false"
     showguides="true"
     inkscape:guide-bbox="true"
     inkscape:object-nodes="false"
     inkscape:snap-center="true"
     inkscape:snap-object-midpoints="true"
     inkscape:snap-grids="true"
     inkscape:object-paths="false"
     inkscape:snap-others="false"
     inkscape:snap-midpoints="true"
     inkscape:snap-bbox="true"
     inkscape:snap-bbox-midpoints="true">
    <inkscape:grid
       type="xygrid"
       id="grid13171" />
  </sodipodi:namedview>
  <defs
     id="defs2">
    <inkscape:path-effect
       effect="bspline"
       id="path-effect2669"
       is_visible="true"
       weight="20"
       steps="2"
       helper_size="0"
       apply_no_weight="true"
       apply_with_weight="true"
       only_selected="false" />
    <pattern
       patternUnits="userSpaceOnUse"
       patternTransform="translate(0.000160318455288,0.000160210947143)"
       height="89.9996771232"
       width="89.9996771232"
       id="Voronoi1649">
      <path
         id="path2397"
         style="stroke:#000000;stroke-width:0.264583333328"
         d="M 31.594,0.000 33.203,3.392 M 33.203,3.392 36.124,4.523 M 36.124,4.523 38.037,0.000 M 36.124,4.523 36.621,4.808 M 24.801,9.559 33.203,3.392 M 16.057,9.285 16.938,0.000 M 16.057,9.285 24.801,9.559 M 30.609,16.545 36.621,4.808 M 30.609,16.545 44.082,8.387 M 36.621,4.808 44.082,8.387 M 55.450,0.000 59.140,4.663 M 59.140,4.663 63.148,0.000 M 24.801,9.559 28.391,18.713 M 28.391,18.713 30.609,16.545 M 5.201,17.517 16.057,9.285 M 44.082,8.387 56.786,13.276 M 56.786,13.276 59.140,4.663 M 88.833,0.000 90.000,4.833 M 0.000,4.833 3.181,18.007 M 3.181,18.007 5.201,17.517 M 5.201,17.517 29.154,26.923 M 28.391,18.713 29.154,26.923 M 0.000,21.857 3.181,18.007 M 89.213,22.810 90.000,21.857 M 56.786,13.276 58.049,19.157 M 55.971,21.313 58.049,19.157 M 81.102,26.540 89.213,22.810 M 29.154,26.923 33.215,31.629 M 58.049,19.157 74.765,26.620 M 74.765,26.620 81.102,26.540 M 28.755,35.883 33.215,31.629 M 33.215,31.629 42.279,31.475 M 42.279,31.475 55.971,21.313 M 89.213,22.810 90.000,23.646 M 0.000,23.646 16.319,40.979 M 16.319,40.979 28.755,35.883 M 55.971,21.313 59.055,48.526 M 14.271,47.181 16.319,40.979 M 14.271,47.181 23.558,52.155 M 23.558,52.155 29.990,52.518 M 28.755,35.883 29.990,52.518 M 42.279,31.475 44.998,48.860 M 29.990,52.518 30.449,53.016 M 30.449,53.016 44.998,48.860 M 59.055,48.526 69.561,51.070 M 69.561,51.070 74.765,26.620 M 44.998,48.860 47.116,52.165 M 47.116,52.165 48.678,53.267 M 48.678,53.267 59.055,48.526 M 9.475,52.568 14.271,47.181 M 9.475,52.568 14.748,59.735 M 0.000,52.167 0.653,54.048 M 0.653,54.048 9.475,52.568 M 81.102,26.540 90.000,52.167 M 48.678,53.267 52.024,61.069 M 14.748,59.735 21.202,63.309 M 21.202,63.309 23.558,52.155 M 69.561,51.070 72.341,58.296 M 0.000,54.781 0.653,54.048 M 86.778,58.394 90.000,54.781 M 30.449,53.016 30.967,63.614 M 30.967,63.614 33.026,64.520 M 33.026,64.520 47.116,52.165 M 0.000,61.020 10.080,69.236 M 10.080,69.236 14.748,59.735 M 86.778,58.394 90.000,61.020 M 21.202,63.309 23.665,65.580 M 23.665,65.580 30.967,63.614 M 33.026,64.520 34.692,66.498 M 34.692,66.498 52.024,61.069 M 52.024,61.069 54.310,64.348 M 10.080,69.236 10.368,70.638 M 54.310,64.348 60.489,65.784 M 60.489,65.784 72.341,58.296 M 72.341,58.296 81.880,61.886 M 81.880,61.886 86.778,58.394 M 10.368,70.638 22.086,69.442 M 22.086,69.442 23.665,65.580 M 49.674,69.874 54.310,64.348 M 34.692,66.498 37.719,72.498 M 37.719,72.498 49.674,69.874 M 37.025,76.294 37.719,72.498 M 37.025,76.294 42.091,80.415 M 6.420,80.367 10.368,70.638 M 22.086,69.442 22.138,81.384 M 22.138,81.384 28.445,83.364 M 28.445,83.364 37.025,76.294 M 6.420,80.367 17.575,83.289 M 17.575,83.289 22.138,81.384 M 42.091,80.415 50.857,84.198 M 49.674,69.874 50.857,84.198 M 81.880,61.886 83.629,80.594 M 83.629,80.594 87.061,82.663 M 87.061,82.663 90.000,81.942 M 0.000,81.942 6.420,80.367 M 60.489,65.784 65.857,86.847 M 65.857,86.847 83.629,80.594 M 28.445,83.364 31.594,90.000 M 38.037,90.000 42.091,80.415 M 16.938,90.000 17.575,83.289 M 50.857,84.198 55.450,90.000 M 63.148,90.000 65.857,86.847 M 87.061,82.663 88.833,90.000 M 67.610,90.000 67.610,90.000 M 53.966,0.000 53.966,0.000 " />
    </pattern>
    <pattern
       patternUnits="userSpaceOnUse"
       patternTransform="translate(0.000160318455288,0.000160210947143)"
       height="89.9996771232"
       width="89.9996771232"
       id="Voronoi8544">
      <path
         id="path2420"
         style="stroke:#000000;stroke-width:0.264583333328"
         d="M 0.000,0.295 0.190,0.000 M 85.350,7.490 90.000,0.295 M 6.151,0.000 10.849,7.065 M 10.299,7.615 10.849,7.065 M 0.000,10.550 10.299,7.615 M 85.350,7.490 88.142,11.079 M 88.142,11.079 90.000,10.550 M 10.849,7.065 16.485,7.884 M 16.485,7.884 22.389,0.000 M 23.571,0.000 36.429,11.932 M 36.429,11.932 51.372,4.683 M 48.852,0.000 51.372,4.683 M 16.485,7.884 20.514,15.443 M 20.493,15.495 20.514,15.443 M 20.514,15.443 34.169,14.454 M 34.169,14.454 36.429,11.932 M 5.449,19.664 10.299,7.615 M 5.449,19.664 20.493,15.495 M 63.812,6.554 67.772,0.000 M 63.812,6.554 85.350,7.490 M 34.169,14.454 34.218,23.076 M 32.584,24.351 34.218,23.076 M 51.372,4.683 60.480,9.372 M 60.480,9.372 63.812,6.554 M 19.046,25.656 20.493,15.495 M 19.046,25.656 32.584,24.351 M 76.027,24.972 84.121,25.845 M 84.121,25.845 89.613,25.565 M 88.142,11.079 89.613,25.565 M 0.000,25.718 0.237,25.812 M 0.237,25.812 5.449,19.664 M 89.613,25.565 90.000,25.718 M 60.480,9.372 62.849,21.456 M 62.849,21.456 76.027,24.972 M 81.299,42.594 84.121,25.845 M 0.000,39.354 6.086,37.089 M 81.299,42.594 90.000,39.354 M 6.086,37.089 8.537,34.408 M 0.237,25.812 8.537,34.408 M 76.027,24.972 79.519,44.129 M 79.519,44.129 81.299,42.594 M 8.537,34.408 13.974,35.549 M 13.974,35.549 19.046,25.656 M 79.097,44.789 79.519,44.129 M 56.877,34.494 62.849,21.456 M 56.877,34.494 79.097,44.789 M 13.974,35.549 18.922,40.394 M 18.922,40.394 24.179,42.662 M 24.179,42.662 32.584,24.351 M 34.218,23.076 50.680,38.904 M 50.680,38.904 54.025,37.964 M 54.025,37.964 56.877,34.494 M 40.148,45.846 50.680,38.904 M 0.000,49.724 6.086,37.089 M 87.982,53.913 90.000,49.724 M 79.097,44.789 80.711,53.208 M 80.711,53.208 81.388,53.709 M 81.388,53.709 87.982,53.913 M 24.179,42.662 31.600,47.996 M 31.600,47.996 40.148,45.846 M 54.025,37.964 63.411,55.444 M 63.411,55.444 80.711,53.208 M 5.951,59.684 18.922,40.394 M 87.982,53.913 90.000,55.414 M 0.000,55.414 5.778,59.713 M 5.778,59.713 5.951,59.684 M 5.951,59.684 15.985,63.744 M 15.985,63.744 28.164,60.222 M 28.164,60.222 31.600,47.996 M 1.863,68.578 5.778,59.713 M 62.121,64.568 63.411,55.444 M 14.424,73.510 15.985,63.744 M 40.148,45.846 50.671,69.557 M 50.671,69.557 62.121,64.568 M 14.424,73.510 32.950,72.293 M 28.164,60.222 32.950,72.293 M 1.863,68.578 11.411,77.314 M 11.411,77.314 12.198,77.659 M 12.198,77.659 14.424,73.510 M 12.198,77.659 13.200,80.168 M 0.000,79.784 11.411,77.314 M 84.562,80.961 90.000,79.784 M 0.000,69.660 1.863,68.578 M 78.191,76.523 90.000,69.660 M 78.191,76.523 84.562,80.961 M 77.458,76.457 81.388,53.709 M 77.458,76.457 78.191,76.523 M 32.950,72.293 35.639,76.840 M 62.121,64.568 75.596,77.049 M 75.596,77.049 77.458,76.457 M 13.200,80.168 23.538,85.120 M 23.538,85.120 35.639,76.840 M 35.639,76.840 43.133,79.373 M 43.133,79.373 50.671,69.557 M 0.000,87.402 1.059,88.656 M 84.562,80.961 90.000,87.402 M 1.059,88.656 5.744,89.387 M 5.744,89.387 13.200,80.168 M 22.874,89.352 23.538,85.120 M 0.190,90.000 1.059,88.656 M 5.744,89.387 6.151,90.000 M 22.389,90.000 22.874,89.352 M 22.874,89.352 23.571,90.000 M 43.133,79.373 48.852,90.000 M 67.772,90.000 75.596,77.049 M 54.789,0.000 54.789,0.000 " />
    </pattern>
    <pattern
       patternUnits="userSpaceOnUse"
       patternTransform="translate(0.000160318455288,0.000160210947143)"
       height="89.9996771232"
       width="89.9996771232"
       id="Voronoi8482">
      <path
         id="path2445"
         style="stroke:#000000;stroke-width:0.264583333328"
         d="M 48.410,0.000 50.438,3.438 M 10.872,0.391 10.950,0.000 M 10.872,0.391 11.072,1.670 M 73.789,0.000 74.230,3.361 M 74.230,3.361 78.549,0.000 M 50.438,3.438 50.859,11.507 M 28.079,0.000 33.674,8.615 M 33.674,8.615 43.055,0.000 M 50.438,3.438 70.749,6.114 M 64.328,0.000 70.749,6.114 M 11.072,1.670 22.114,13.048 M 70.749,6.114 72.901,7.377 M 72.901,7.377 74.230,3.361 M 22.114,13.048 32.611,13.044 M 32.611,13.044 33.146,12.806 M 33.146,12.806 33.674,8.615 M 72.901,7.377 73.589,10.429 M 73.589,10.429 90.000,4.391 M 33.146,12.806 39.124,17.382 M 39.124,17.382 50.859,11.507 M 73.565,11.132 73.589,10.429 M 0.000,4.391 10.872,0.391 M 68.221,18.330 73.565,11.132 M 0.000,19.441 4.020,21.473 M 4.020,21.473 11.072,1.670 M 73.565,11.132 90.000,19.441 M 50.859,11.507 65.204,19.924 M 65.204,19.924 68.221,18.330 M 39.124,17.382 42.436,25.683 M 4.020,21.473 5.323,23.696 M 61.369,24.779 65.204,19.924 M 42.436,25.683 60.473,25.661 M 60.473,25.661 61.369,24.779 M 5.323,23.696 10.209,26.818 M 10.209,26.818 22.114,13.048 M 61.369,24.779 72.556,39.899 M 0.000,28.069 5.323,23.696 M 68.221,18.330 80.031,36.261 M 80.031,36.261 90.000,28.069 M 72.556,39.899 79.641,40.132 M 79.641,40.132 80.031,36.261 M 10.209,26.818 16.570,36.254 M 16.570,36.254 19.856,37.124 M 19.856,37.124 32.611,13.044 M 57.406,43.600 60.473,25.661 M 57.406,43.600 72.556,39.899 M 19.856,37.124 29.769,43.458 M 29.769,43.458 34.567,44.517 M 34.567,44.517 42.436,25.683 M 53.662,49.704 57.406,43.600 M 16.755,59.677 29.769,43.458 M 53.662,49.704 56.348,51.893 M 16.755,59.677 23.149,64.943 M 34.567,44.517 41.073,50.705 M 41.073,50.705 53.662,49.704 M 23.149,64.943 35.145,61.134 M 0.000,50.671 16.570,36.254 M 79.641,40.132 86.093,54.069 M 86.093,54.069 90.000,50.671 M 56.348,51.893 66.583,59.305 M 35.145,61.134 39.570,57.873 M 39.570,57.873 41.073,50.705 M 39.570,57.873 41.142,63.873 M 85.413,57.220 86.093,54.069 M 66.583,59.305 80.873,59.797 M 80.873,59.797 85.413,57.220 M 85.413,57.220 90.000,60.438 M 0.000,60.438 4.765,63.781 M 4.765,63.781 16.755,59.677 M 61.357,71.070 66.583,59.305 M 79.143,70.299 80.873,59.797 M 61.357,71.070 73.438,79.147 M 73.438,79.147 79.143,70.299 M 34.335,79.535 41.142,63.873 M 41.142,63.873 51.679,77.092 M 51.679,77.092 56.348,51.893 M 55.940,77.354 61.357,71.070 M 55.940,77.354 72.735,81.985 M 72.735,81.985 73.438,79.147 M 79.143,70.299 86.940,83.470 M 51.679,77.092 53.111,79.227 M 53.111,79.227 55.940,77.354 M 53.089,79.300 53.111,79.227 M 22.635,81.615 34.335,79.535 M 21.950,81.335 35.145,61.134 M 21.950,81.335 22.635,81.615 M 20.063,81.088 23.149,64.943 M 20.063,81.088 21.950,81.335 M 34.335,79.535 46.653,86.055 M 46.653,86.055 53.089,79.300 M 46.529,86.810 46.653,86.055 M 4.765,63.781 13.185,81.987 M 13.185,81.987 20.063,81.088 M 0.000,83.407 12.308,83.155 M 12.308,83.155 13.185,81.987 M 86.940,83.470 90.000,83.407 M 46.529,86.810 48.410,90.000 M 10.950,90.000 12.308,83.155 M 72.735,81.985 73.789,90.000 M 78.549,90.000 86.940,83.470 M 22.635,81.615 28.079,90.000 M 43.055,90.000 46.529,86.810 M 53.089,79.300 64.328,90.000 " />
    </pattern>
    <pattern
       patternUnits="userSpaceOnUse"
       patternTransform="translate(0.0,-2.35438346745e-06)"
       height="90.3532451232"
       width="90.3532371857"
       id="Voronoi2126">
      <path
         id="path2564"
         style="stroke:#000000;stroke-width:0.264583333328"
         d="M 44.975,0.000 45.176,0.548 M 39.615,3.856 45.176,0.548 M 45.176,0.548 53.048,1.871 M 53.048,1.871 55.065,0.000 M 53.048,1.871 53.436,3.791 M 73.803,0.000 75.728,1.612 M 75.728,1.612 76.759,0.000 M 29.116,0.000 39.615,3.856 M 12.364,4.021 14.019,0.000 M 37.151,16.557 39.615,3.856 M 12.364,4.021 23.200,15.620 M 23.200,15.620 37.151,16.557 M 41.148,18.425 53.436,3.791 M 37.151,16.557 38.013,17.498 M 38.013,17.498 41.148,18.425 M 75.728,1.612 83.152,13.777 M 0.000,11.901 12.364,4.021 M 83.152,13.777 86.301,14.484 M 86.301,14.484 87.015,16.514 M 87.015,16.514 87.419,22.661 M 81.817,34.888 87.419,22.661 M 41.148,18.425 56.046,26.283 M 38.993,34.769 56.046,26.283 M 53.436,3.791 61.413,24.839 M 61.413,24.839 83.152,13.777 M 33.229,33.528 38.013,17.498 M 33.229,33.528 38.993,34.769 M 56.046,26.283 60.150,26.618 M 60.150,26.618 61.413,24.839 M 22.479,33.284 23.200,15.620 M 0.000,18.997 20.156,33.983 M 20.156,33.983 22.479,33.284 M 87.015,16.514 90.353,18.997 M 22.479,33.284 27.772,35.524 M 27.772,35.524 33.229,33.528 M 27.772,35.524 29.060,41.932 M 74.989,42.734 81.817,34.888 M 29.060,41.932 31.030,46.913 M 60.150,26.618 61.943,38.817 M 18.370,49.567 29.060,41.932 M 10.160,43.673 20.156,33.983 M 10.160,43.673 18.370,49.567 M 31.030,46.913 44.804,46.957 M 38.993,34.769 44.804,46.957 M 44.804,46.957 44.971,47.066 M 44.971,47.066 61.943,38.817 M 61.943,38.817 64.452,42.185 M 64.452,42.185 74.989,42.734 M 0.000,29.697 6.322,44.856 M 6.322,44.856 10.160,43.673 M 87.419,22.661 90.353,29.697 M 64.386,48.243 64.452,42.185 M 44.876,53.123 44.971,47.066 M 0.000,45.127 3.073,48.812 M 3.073,48.812 6.322,44.856 M 81.817,34.888 90.353,45.127 M 64.386,48.243 80.265,57.215 M 80.265,57.215 89.461,51.509 M 74.989,42.734 89.461,51.509 M 0.000,51.537 1.246,51.575 M 1.246,51.575 3.073,48.812 M 89.461,51.509 90.353,51.537 M 77.963,60.319 80.265,57.215 M 62.607,56.585 64.386,48.243 M 62.607,56.585 71.880,62.175 M 71.880,62.175 77.963,60.319 M 44.876,53.123 50.334,60.842 M 71.880,62.175 72.190,67.821 M 50.334,60.842 56.882,62.401 M 56.882,62.401 62.607,56.585 M 72.190,67.821 81.619,68.662 M 77.963,60.319 81.619,68.662 M 18.370,49.567 27.258,60.790 M 27.258,60.790 31.030,46.913 M 27.258,60.790 27.303,61.195 M 27.303,61.195 44.876,53.123 M 56.882,62.401 57.756,67.353 M 81.619,68.662 84.154,71.059 M 76.489,75.055 84.154,71.059 M 42.169,75.861 57.756,67.353 M 0.000,72.258 0.875,72.427 M 84.154,71.059 90.353,72.258 M 0.000,73.332 0.875,72.427 M 76.489,75.055 82.371,81.581 M 82.371,81.581 90.353,73.332 M 34.659,72.181 50.334,60.842 M 34.659,72.181 39.689,75.949 M 39.689,75.949 42.169,75.861 M 67.818,77.721 72.190,67.821 M 67.818,77.721 76.489,75.055 M 0.875,72.427 9.168,71.174 M 1.246,51.575 9.168,71.174 M 25.151,70.443 27.303,61.195 M 25.151,70.443 34.659,72.181 M 42.169,75.861 63.693,81.039 M 57.756,67.353 63.693,81.039 M 63.693,81.039 63.893,81.294 M 63.893,81.294 67.818,77.721 M 63.893,81.294 63.955,82.107 M 9.168,71.174 16.526,76.077 M 16.526,76.077 25.151,70.443 M 39.689,75.949 44.975,90.353 M 55.065,90.353 63.955,82.107 M 63.955,82.107 73.803,90.353 M 76.759,90.353 82.371,81.581 M 16.001,85.536 16.526,76.077 M 16.001,85.536 29.116,90.353 M 14.019,90.353 16.001,85.536 M 86.301,14.484 90.353,11.901 M 31.490,0.000 31.490,0.000 " />
    </pattern>
    <pattern
       patternUnits="userSpaceOnUse"
       patternTransform="translate(0.000160318455288,0.000160210947143)"
       height="89.9996771232"
       width="89.9996771232"
       id="Voronoi8482-2">
      <path
         id="path2445-5"
         style="stroke:#000000;stroke-width:0.264583333328"
         d="M 48.410,0.000 50.438,3.438 M 10.872,0.391 10.950,0.000 M 10.872,0.391 11.072,1.670 M 73.789,0.000 74.230,3.361 M 74.230,3.361 78.549,0.000 M 50.438,3.438 50.859,11.507 M 28.079,0.000 33.674,8.615 M 33.674,8.615 43.055,0.000 M 50.438,3.438 70.749,6.114 M 64.328,0.000 70.749,6.114 M 11.072,1.670 22.114,13.048 M 70.749,6.114 72.901,7.377 M 72.901,7.377 74.230,3.361 M 22.114,13.048 32.611,13.044 M 32.611,13.044 33.146,12.806 M 33.146,12.806 33.674,8.615 M 72.901,7.377 73.589,10.429 M 73.589,10.429 90.000,4.391 M 33.146,12.806 39.124,17.382 M 39.124,17.382 50.859,11.507 M 73.565,11.132 73.589,10.429 M 0.000,4.391 10.872,0.391 M 68.221,18.330 73.565,11.132 M 0.000,19.441 4.020,21.473 M 4.020,21.473 11.072,1.670 M 73.565,11.132 90.000,19.441 M 50.859,11.507 65.204,19.924 M 65.204,19.924 68.221,18.330 M 39.124,17.382 42.436,25.683 M 4.020,21.473 5.323,23.696 M 61.369,24.779 65.204,19.924 M 42.436,25.683 60.473,25.661 M 60.473,25.661 61.369,24.779 M 5.323,23.696 10.209,26.818 M 10.209,26.818 22.114,13.048 M 61.369,24.779 72.556,39.899 M 0.000,28.069 5.323,23.696 M 68.221,18.330 80.031,36.261 M 80.031,36.261 90.000,28.069 M 72.556,39.899 79.641,40.132 M 79.641,40.132 80.031,36.261 M 10.209,26.818 16.570,36.254 M 16.570,36.254 19.856,37.124 M 19.856,37.124 32.611,13.044 M 57.406,43.600 60.473,25.661 M 57.406,43.600 72.556,39.899 M 19.856,37.124 29.769,43.458 M 29.769,43.458 34.567,44.517 M 34.567,44.517 42.436,25.683 M 53.662,49.704 57.406,43.600 M 16.755,59.677 29.769,43.458 M 53.662,49.704 56.348,51.893 M 16.755,59.677 23.149,64.943 M 34.567,44.517 41.073,50.705 M 41.073,50.705 53.662,49.704 M 23.149,64.943 35.145,61.134 M 0.000,50.671 16.570,36.254 M 79.641,40.132 86.093,54.069 M 86.093,54.069 90.000,50.671 M 56.348,51.893 66.583,59.305 M 35.145,61.134 39.570,57.873 M 39.570,57.873 41.073,50.705 M 39.570,57.873 41.142,63.873 M 85.413,57.220 86.093,54.069 M 66.583,59.305 80.873,59.797 M 80.873,59.797 85.413,57.220 M 85.413,57.220 90.000,60.438 M 0.000,60.438 4.765,63.781 M 4.765,63.781 16.755,59.677 M 61.357,71.070 66.583,59.305 M 79.143,70.299 80.873,59.797 M 61.357,71.070 73.438,79.147 M 73.438,79.147 79.143,70.299 M 34.335,79.535 41.142,63.873 M 41.142,63.873 51.679,77.092 M 51.679,77.092 56.348,51.893 M 55.940,77.354 61.357,71.070 M 55.940,77.354 72.735,81.985 M 72.735,81.985 73.438,79.147 M 79.143,70.299 86.940,83.470 M 51.679,77.092 53.111,79.227 M 53.111,79.227 55.940,77.354 M 53.089,79.300 53.111,79.227 M 22.635,81.615 34.335,79.535 M 21.950,81.335 35.145,61.134 M 21.950,81.335 22.635,81.615 M 20.063,81.088 23.149,64.943 M 20.063,81.088 21.950,81.335 M 34.335,79.535 46.653,86.055 M 46.653,86.055 53.089,79.300 M 46.529,86.810 46.653,86.055 M 4.765,63.781 13.185,81.987 M 13.185,81.987 20.063,81.088 M 0.000,83.407 12.308,83.155 M 12.308,83.155 13.185,81.987 M 86.940,83.470 90.000,83.407 M 46.529,86.810 48.410,90.000 M 10.950,90.000 12.308,83.155 M 72.735,81.985 73.789,90.000 M 78.549,90.000 86.940,83.470 M 22.635,81.615 28.079,90.000 M 43.055,90.000 46.529,86.810 M 53.089,79.300 64.328,90.000 " />
    </pattern>
  </defs>
  <g
     inkscape:label="Layer 1"
     inkscape:groupmode="layer"
     id="layer1"
     style="display:inline">
    <text
       xml:space="preserve"
       style="font-size:9.15228px;line-height:1.25;font-family:sans-serif;letter-spacing:0px;word-spacing:0px;fill:#0000ff;fill-opacity:1;stroke-width:6.8644;stroke-miterlimit:4;stroke-dasharray:none"
       x="-188.13188"
       y="37.719048"
       id="text37531-6"><tspan
         sodipodi:role="line"
         id="tspan37529-6"
         style="fill:#0000ff;fill-opacity:1;stroke-width:6.8644;stroke-miterlimit:4;stroke-dasharray:none"
         x="-188.13188"
         y="37.719048">=pass1:800mm/min:40%:#0000ff=</tspan></text>
    <text
       xml:space="preserve"
       style="font-size:9.15228px;line-height:1.25;font-family:sans-serif;letter-spacing:0px;word-spacing:0px;fill:#ff0000;fill-opacity:1;stroke-width:6.864;stroke-miterlimit:4;stroke-dasharray:none"
       x="-186.16101"
       y="64.841095"
       id="text37531-6-9"><tspan
         sodipodi:role="line"
         id="tspan37529-6-2"
         style="fill:#ff0000;fill-opacity:1;stroke-width:6.864;stroke-miterlimit:4;stroke-dasharray:none"
         x="-186.16101"
         y="64.841095">=pass2:800mm/min:40%:#ff0000=</tspan></text>
    <text
       xml:space="preserve"
       style="font-size:9.15228px;line-height:1.25;font-family:sans-serif;letter-spacing:0px;word-spacing:0px;display:inline;fill:#00ff00;fill-opacity:1;stroke-width:6.8642"
       x="-192.17204"
       y="92.968636"
       id="text37531-6-2"><tspan
         sodipodi:role="line"
         id="tspan37529-6-1"
         style="fill:#00ff00;fill-opacity:1;stroke-width:6.8642"
         x="-192.17204"
         y="92.968636">=pass3:800mm/min:20%:#00ff00=</tspan></text>
    <path
       id="rect7802"
       style="display:inline;fill:none;fill-opacity:1;stroke:none;stroke-width:0.3;stroke-miterlimit:4;stroke-dasharray:none;stroke-opacity:1"
       d="m 43.786319,2.7121475 v 7.9241975 l -6.502974,-6.502973 -1.504484,1.5044846 7.566957,7.5669554 0.440501,0.440503 v 4.535236 l -6.502974,-6.502975 -1.504484,1.504485 7.566957,7.566956 0.440501,0.440502 V 38.17838 a 6.5826544,6.7722769 0 0 0 -0.944901,0.240582 6.7722777,6.5826542 44.999843 0 0 -1.973546,0.964749 L 28.86588,27.382204 V 16.057426 H 26.7384 v 9.197298 L 23.531447,22.047772 V 10.722994 h -2.12748 v 9.197299 l -5.603576,-5.603576 -1.504485,1.504484 5.603091,5.60309 h -9.196814 v 2.127966 h 11.324779 l 3.206954,3.206953 h -9.1973 v 2.12748 h 11.32478 l 12.012642,12.012637 a 6.7722777,6.5826542 44.999843 0 0 -0.531993,0.910049 6.7722779,6.5826534 0 0 0 -0.680598,2.006464 h -16.971438 -4.96e-4 l -8.007459,-8.007941 -1.504485,1.504484 6.502975,6.503457 h -4.534753 -4.95e-4 L 5.6378589,35.807899 4.1333743,37.312383 10.636349,43.81584 H 2.7121495 v 2.127481 h 7.9241995 l -6.5029747,6.503457 1.5044846,1.504483 7.5669581,-7.566955 0.440985,-0.440985 h 4.534753 l -6.502975,6.503457 1.504485,1.504483 7.566958,-7.566955 0.440986,-0.440985 h 16.987897 a 6.7722779,6.5826534 0 0 0 0.265751,1.014608 6.5826542,6.7722777 45.000157 0 0 0.939092,1.905293 L 27.382211,60.863758 h -11.32478 v 2.127966 h 9.1973 l -3.206954,3.206951 h -11.32478 v 2.12748 h 9.197299 l -5.603575,5.603576 1.504485,1.504483 5.603091,-5.603091 v 9.196815 h 2.127965 V 67.703159 l 3.206953,-3.206952 v 9.196814 h 2.127482 V 62.368726 L 40.898852,50.356571 a 6.5826542,6.7722777 45.000157 0 0 0.911017,0.531991 6.5826544,6.7722769 0 0 0 2.005979,0.680116 v 16.971438 l -0.440985,0.4405 v 4.96e-4 l -7.566956,7.566955 1.504483,1.504487 6.503458,-6.503459 v 4.535236 l -0.440985,0.440502 -7.566956,7.56744 1.504483,1.504486 6.503458,-6.503459 v 7.924682 H 45.94333 V 79.0933 l 6.503458,6.503459 1.504484,-1.504486 -8.007942,-8.008425 v -4.534753 l 6.503458,6.503459 1.504484,-1.504487 -8.007942,-8.008426 v -16.98402 a 6.5826544,6.7722769 0 0 0 1.100769,-0.295766 6.7722777,6.5826542 44.999843 0 0 1.818645,-0.913438 l 12.001025,12.001024 v 0.623478 10.701784 h 2.127965 v -9.197299 l 3.206953,3.206954 v 0.622995 10.701783 h 2.127479 v -9.197299 l 5.603577,5.603576 1.504484,-1.504486 -5.603574,-5.603574 H 79.02795 V 66.177874 H 67.703171 l -3.206953,-3.206955 h 9.196816 V 60.84344 H 62.368737 L 50.356098,48.830801 a 6.7722777,6.5826542 44.999843 0 0 0.532959,-0.912955 6.7722779,6.5826534 0 0 0 0.67963,-2.003558 h 16.971441 l 0.440501,0.440502 7.567439,7.567442 1.504487,-1.504487 -6.50346,-6.503457 h 4.535237 l 0.440502,0.440502 7.567441,7.567442 1.504485,-1.504487 -6.503461,-6.503457 h 7.924686 v -2.127964 h -7.924686 l 6.503461,-6.502974 -1.504485,-1.504483 -7.567441,7.566957 -0.440502,0.4405 h -4.535237 l 6.50346,-6.502974 -1.504487,-1.504483 -7.567439,7.566957 -0.440501,0.4405 H 51.555136 a 6.7722779,6.5826534 0 0 0 -0.2948,-1.099804 6.5826542,6.7722777 45.000157 0 0 -0.913921,-1.819126 L 62.347923,28.865887 h 0.622995 10.701785 v -2.127481 h -9.197301 l 3.206955,-3.206952 h 0.622996 10.701783 v -2.12748 h -9.197299 l 5.603576,-5.603575 -1.504485,-1.504484 -5.603575,5.603574 v -9.19731 h -2.127479 v 10.701781 0.622997 l -3.206956,3.206954 v -9.197299 h -2.127479 v 10.701782 0.622997 L 48.830312,39.374513 a 6.5826542,6.7722777 45.000157 0 0 -0.94732,-0.55232 6.5826544,6.7722769 0 0 0 -1.968707,-0.660272 V 21.189519 l 0.440503,-0.440502 7.567441,-7.566956 -1.504486,-1.504485 -6.503458,6.502975 V 13.645315 L 46.354788,13.204812 53.922229,5.6378566 52.417743,4.133372 45.914285,10.636345 V 2.7121475 Z M 44.873665,41.61477 a 3.3608159,3.2667129 0 0 1 1.055774,0.165612 3.3608156,3.2667131 44.999839 0 1 1.240047,0.792777 3.3608156,3.2667131 44.999839 0 1 0.632124,0.86917 3.2667134,3.3608154 0 0 1 0.313728,1.431316 3.2667134,3.3608154 0 0 1 -0.161529,1.044111 3.2667131,3.3608156 45.000161 0 1 -0.79657,1.251708 3.2667131,3.3608156 45.000161 0 1 -0.903864,0.649909 3.3608159,3.2667129 0 0 1 -1.397495,0.295943 3.3608159,3.2667129 0 0 1 -1.091054,-0.176981 3.3608156,3.2667131 44.999839 0 1 -2.99e-4,0 3.3608159,3.2667129 0 0 1 -0.03149,-0.01196 3.3608156,3.2667131 44.999839 0 1 -1.172109,-0.769162 3.3608156,3.2667131 44.999839 0 1 -0.633291,-0.872084 3.2667134,3.3608154 0 0 1 -0.312853,-1.429276 3.2667134,3.3608154 0 0 1 0.169402,-1.064811 3.2667131,3.3608156 45.000161 0 1 0.788696,-1.230135 3.2667131,3.3608156 45.000161 0 1 0.960723,-0.674691 3.3608159,3.2667129 0 0 1 1.340054,-0.271452 z" />
    <path
       style="display:inline;fill:none;stroke:none;stroke-width:0.3;stroke-miterlimit:4;stroke-dasharray:none;stroke-opacity:1"
       d="m 16.264992,79.673216 a 5.8002078,5.8002078 0 0 1 -1.683446,3.677963 5.8002078,5.8002078 0 0 1 -8.2024089,0 5.8002078,5.8002078 0 0 1 -1.828e-4,-8.202589 5.8002078,5.8002078 0 0 1 3.6812587,-1.679055 45.068842,45.068842 0 0 0 2.930293,3.270274 45.068842,45.068842 0 0 0 3.274486,2.933407 z"
       id="path13525" />
    <path
       style="display:inline;fill:none;stroke:none;stroke-width:0.3;stroke-miterlimit:4;stroke-dasharray:none;stroke-opacity:1"
       d="m 76.727423,13.00289 a 45.068842,45.068842 0 0 0 -63.737099,0 45.068842,45.068842 0 0 0 -4.0269144,59.090973 7.3193097,7.3193097 0 0 0 -3.6585669,1.98061 7.3193097,7.3193097 0 0 0 -5e-7,10.351002 7.3193097,7.3193097 0 0 0 10.3509988,0 7.3193097,7.3193097 0 0 0 1.983538,-3.656005 45.068842,45.068842 0 0 0 59.087859,-4.029661 45.068842,45.068842 0 0 0 1.85e-4,-63.736919 z"
       id="path17741" />
    <path
       id="rect10735"
       style="fill:none;stroke:#0000ff;stroke-width:0.3;stroke-miterlimit:4;stroke-dasharray:none;stroke-opacity:1"
       d="m 132.44406,2.9031405 -0.78836,0.7878681 7.92302,7.9230114 v 2.271566 l -7.13466,-7.1351439 -0.78836,0.7883497 7.92302,7.9225302 v 2.272529 l -7.13466,-7.134662 -0.78836,0.78835 7.92302,7.922531 v 9.056866 l -4.36774,-4.367728 0.84619,-3.1587 -1.07555,-0.288643 -0.68041,2.537561 -1.85715,-1.857151 -0.78836,0.786904 2.31349,2.313006 -1.59983,5.966593 -4.52867,-7.843502 2.90089,-10.823908 -1.07699,-0.287197 -2.61081,9.746912 -1.13771,-1.969428 2.9009,-10.8219803 -1.07555,-0.2891258 -2.61177,9.7469141 -1.13627,-1.967502 2.89945,-10.8224617 -1.07555,-0.2886441 -2.81655,10.5087608 -10.50781,-2.816568 -0.28864,1.075548 10.82342,2.900897 1.13627,1.967501 -9.74643,-2.611769 -0.28913,1.076511 10.82246,2.899933 1.13771,1.968947 -9.74691,-2.612254 -0.28865,1.075549 10.82247,2.900896 4.53011,7.84495 -5.96756,-1.599832 -0.84617,-3.159663 -1.07699,0.288645 0.68041,2.537561 -2.53805,-0.68041 -0.28865,1.075548 3.15872,0.846656 1.60079,5.968523 -7.84496,-4.528676 -2.90041,-10.823907 -1.07554,0.28768 2.61321,9.747879 -1.96894,-1.136265 -2.90091,-10.823427 -1.07553,0.288645 2.61224,9.746913 -1.96894,-1.136265 -2.89945,-10.823908 -1.077,0.288645 2.81657,10.507796 -10.509245,2.816569 0.289135,1.075547 10.82341,-2.900896 1.96799,1.136265 -9.74691,2.612252 0.2872,1.076993 10.82391,-2.900895 1.96749,1.136264 -9.74692,2.611772 0.28866,1.075545 10.8239,-2.899448 7.8435,4.529155 -5.96755,1.598386 -2.31204,-2.312044 -0.78835,0.786905 1.8586,1.858597 -2.53853,0.679928 0.28864,1.075549 3.15966,-0.846177 4.36773,4.367728 h -9.05783 l -7.92302,-7.92253 -0.78787,0.786905 7.13708,7.135625 h -2.27493 l -7.92302,-7.92253 -0.7869,0.786905 7.1361,7.135625 h -2.27349 l -7.923009,-7.92253 -0.787869,0.786905 7.692198,7.692193 -7.692198,7.693641 0.787869,0.786903 7.923009,-7.923013 h 2.27253 l -7.13514,7.13611 0.7869,0.786903 7.92302,-7.923013 h 2.27397 l -7.13612,7.13611 0.78787,0.786903 7.92302,-7.923013 h 9.05687 l -4.36821,4.367727 -3.15822,-0.846173 -0.28864,1.076992 2.53755,0.679929 -1.85762,1.857635 0.78835,0.786903 2.31204,-2.312045 5.96755,1.598385 -7.8435,4.528675 -10.8239,-2.89945 -0.28866,1.075548 9.74692,2.612251 -1.96749,1.136265 -10.82391,-2.900896 -0.2872,1.076993 9.74691,2.611772 -1.96799,1.136265 -10.82341,-2.900415 -0.289135,1.075547 10.509245,2.816088 -2.81657,10.507796 1.077,0.288644 2.89945,-10.823427 1.96894,-1.136265 -2.61224,9.74788 1.07553,0.287679 2.90091,-10.823908 1.96894,-1.136264 -2.61321,9.748359 1.07554,0.288645 2.90041,-10.824873 7.84496,-4.529156 -1.59984,5.969004 -3.15967,0.846175 0.28865,1.075547 2.53805,-0.679929 -0.68041,2.537563 1.07699,0.288645 0.84617,-3.159664 5.96613,-1.598384 -4.52868,7.843502 -10.82247,2.900895 0.28865,1.07555 9.74691,-2.610806 -1.13771,1.967502 -10.82246,2.89945 0.28913,1.076992 9.74643,-2.612252 -1.13627,1.967985 -10.82342,2.900415 0.28864,1.075546 10.50781,-2.815123 2.81655,10.507799 1.07555,-0.287681 -2.89945,-10.823426 1.13627,-1.967982 2.61177,9.746914 1.07555,-0.288643 -2.9009,-10.822465 1.13771,-1.968947 2.61081,9.746914 1.07699,-0.287679 -2.90089,-10.823426 4.52867,-7.843504 1.59983,5.966113 -2.31349,2.313488 0.78836,0.786906 1.85715,-1.857636 0.68041,2.538043 1.07555,-0.287679 -0.84619,-3.159664 4.36774,-4.367727 v 9.057831 l -7.92302,7.923011 0.78836,0.786423 7.13466,-7.134662 v 2.272529 l -7.92302,7.923011 0.78836,0.787869 7.13466,-7.134663 v 2.271084 l -7.92302,7.923013 0.78836,0.788348 7.69218,-7.692672 7.69268,7.692672 0.78787,-0.788348 -7.92398,-7.923978 v -2.271565 l 7.13611,7.136109 0.78787,-0.787869 -7.92398,-7.923975 v -2.272528 l 7.13611,7.135625 0.78787,-0.786423 -7.92398,-7.924457 v -9.057832 l 4.36917,4.369174 -0.84666,3.159664 1.07555,0.287679 0.68041,-2.538043 1.85764,1.857636 0.78787,-0.786906 -2.31206,-2.312043 1.5984,-5.966593 4.52916,7.842539 -2.9009,10.823426 1.07554,0.287679 2.61178,-9.746914 1.13627,1.967986 -2.89945,10.823426 1.07554,0.288643 2.61225,-9.746914 1.13627,1.967982 -2.9009,10.823426 1.07698,0.287681 2.81514,-10.509245 10.50876,2.816569 0.28769,-1.075546 -10.82392,-2.900415 -1.13627,-1.968947 9.74837,2.613214 0.28863,-1.076992 -10.82341,-2.89945 -1.13771,-1.968948 9.74788,2.612252 0.28912,-1.07555 -10.82391,-2.900895 -4.52868,-7.843502 5.96756,1.598384 0.84617,3.159664 1.07555,-0.288645 -0.6804,-2.537563 2.539,0.679929 0.28768,-1.075547 -3.1587,-0.846175 -1.59983,-5.969004 7.84496,4.529156 2.89944,10.824873 1.077,-0.288645 -2.61323,-9.748359 1.96895,1.136264 2.90043,10.823908 1.07554,-0.287679 -2.61322,-9.749325 1.96895,1.13771 2.90089,10.823427 1.07556,-0.288644 -2.81513,-10.507796 10.50877,-2.816088 -0.28865,-1.075547 -10.8239,2.900415 -1.96895,-1.136265 9.74836,-2.611772 -0.28864,-1.076993 -10.82391,2.900896 -1.96751,-1.136265 9.74788,-2.612251 -0.28865,-1.075548 -10.82487,2.89945 -7.84253,-4.527709 5.96755,-1.599351 2.31253,2.312045 0.78787,-0.786903 -1.85716,-1.857635 2.53756,-0.679929 -0.28864,-1.076992 -3.15966,0.846173 -4.36676,-4.367727 h 9.05639 l 7.923,7.923013 0.78835,-0.786903 -7.13611,-7.13611 h 2.27253 l 7.92302,7.923013 0.78786,-0.786903 -7.13467,-7.13611 h 2.27255 l 7.92252,7.923013 0.78689,-0.786903 -7.69363,-7.693641 7.69363,-7.692193 -0.78689,-0.786905 -7.92252,7.92253 h -2.27398 l 7.1361,-7.135625 -0.78786,-0.786905 -7.92302,7.92253 h -2.27397 l 7.13755,-7.135625 -0.78835,-0.786905 -7.923,7.92253 h -9.05785 l 4.36822,-4.367728 3.15966,0.846177 0.28864,-1.075549 -2.53901,-0.679928 1.85861,-1.858597 -0.78787,-0.786905 -2.31253,2.312044 -5.96755,-1.599831 7.84253,-4.52771 10.82487,2.899448 0.28865,-1.075545 -9.74788,-2.611772 1.96751,-1.136264 10.82391,2.900895 0.28864,-1.076993 -9.74836,-2.612252 1.96895,-1.136265 10.8239,2.900896 0.28865,-1.075547 -10.50877,-2.816569 2.81513,-10.507796 -1.07556,-0.288645 -2.90089,10.823908 -1.96895,1.13723 2.61322,-9.747878 -1.07554,-0.288645 -2.90043,10.823427 -1.96895,1.136265 2.61323,-9.747879 -1.077,-0.28768 -2.89944,10.823907 -7.84496,4.528676 1.59983,-5.968523 3.1587,-0.846656 -0.28768,-1.075548 -2.539,0.68041 0.6804,-2.537561 -1.07555,-0.288645 -0.84617,3.159663 -5.96756,1.599832 4.52868,-7.84495 10.82391,-2.900896 -0.28912,-1.075549 -9.74788,2.612254 1.13771,-1.968947 10.82341,-2.899933 -0.28863,-1.076511 -9.74837,2.613214 1.13627,-1.968946 10.82392,-2.900897 -0.28769,-1.075548 -10.50876,2.816568 -2.81514,-10.5087608 -1.07698,0.2886441 2.9009,10.8224617 -1.13627,1.967502 -2.61225,-9.7469141 -1.07554,0.2891258 2.89945,10.8234263 -1.13627,1.967982 -2.61178,-9.746912 -1.07554,0.287197 2.9009,10.823908 -4.52916,7.842057 -1.5984,-5.966112 2.31206,-2.312042 -0.78787,-0.786904 -1.85764,1.857151 -0.68041,-2.537561 -1.07555,0.288643 0.84666,3.1587 -4.36917,4.369173 v -9.056866 l 7.92398,-7.923976 -0.78787,-0.78835 -7.13611,7.136108 v -2.27253 l 7.92398,-7.9239752 -0.78787,-0.7883497 -7.13611,7.1361079 v -2.271084 l 7.92398,-7.9244574 -0.78787,-0.7878681 -7.69268,7.6921945 z m 2.43347,22.3373825 4.70119,4.701186 v 2.80934 a 12.135166,12.135166 0 0 1 0.55752,-0.0212 12.135166,12.135166 0 0 1 0.55657,0.0135 v -2.80018 l 4.70215,-4.702633 1.7203,6.422449 -1.40178,2.426247 a 12.135166,12.135166 0 0 1 0.96665,0.556087 l 1.40033,-2.424804 6.42101,-1.721261 -1.72127,6.423894 -2.42384,1.398887 a 12.135166,12.135166 0 0 1 0.55512,0.963753 l 2.42625,-1.399849 6.42245,1.720778 -4.70119,4.701187 h -2.80163 a 12.135166,12.135166 0 0 1 0.0135,0.558013 12.135166,12.135166 0 0 1 -0.0208,0.556087 h 2.80886 l 4.70119,4.701185 -6.42246,1.721264 -2.43202,-1.404189 a 12.135166,12.135166 0 0 1 -0.55657,0.962788 l 2.43107,1.40419 1.72125,6.423413 -6.42099,-1.720782 -1.40419,-2.432513 a 12.135166,12.135166 0 0 1 -0.9652,0.557533 l 1.40419,2.432511 -1.71982,6.421968 -4.70263,-4.70215 v -2.807893 a 12.135166,12.135166 0 0 1 -0.55657,0.0212 12.135166,12.135166 0 0 1 -0.55753,-0.0212 v 2.808855 l -4.70119,4.701188 -1.72126,-6.421968 1.40419,-2.432511 a 12.135166,12.135166 0 0 1 -0.96423,-0.557533 l -1.40371,2.432513 -6.42101,1.720782 1.71983,-6.422449 2.4325,-1.403709 a 12.135166,12.135166 0 0 1 -0.55801,-0.964233 l -2.43107,1.404189 -6.42196,-1.721264 4.70119,-4.701185 h 2.80739 a 12.135166,12.135166 0 0 1 -0.0208,-0.556087 12.135166,12.135166 0 0 1 0.0208,-0.558013 h -2.80739 l -4.70119,-4.701187 6.42196,-1.720778 2.43107,1.403704 a 12.135166,12.135166 0 0 1 0.55801,-0.963752 l -2.4325,-1.404189 -1.72127,-6.422448 6.42245,1.721261 1.40371,2.432514 a 12.135166,12.135166 0 0 1 0.96423,-0.557533 l -1.40419,-2.432511 z" />
    <path
       id="rect14986"
       style="fill:none;fill-opacity:1;stroke:#0000ff;stroke-width:0.3;stroke-miterlimit:4;stroke-dasharray:none;stroke-opacity:1"
       d="m 43.963685,97.983362 v 4.991158 l -4.126736,-4.127771 -1.265539,1.265021 5.392275,5.39228 v 2.05741 l -4.126736,-4.12726 -1.265539,1.26502 5.392275,5.39228 v 2.05741 l -4.126736,-4.12726 -1.265539,1.26502 5.392275,5.39228 v 5.09844 c -0.505111,-1.48862 -1.393493,-3.72472 -2.464744,-4.77299 -0.830026,-0.81221 -3.610873,0.69732 -2.968473,1.68998 1.143014,1.76625 4.264049,3.63336 5.433217,4.29206 v 1.22459 c -0.948943,-0.87736 -2.404467,-2.09561 -3.504849,-2.43883 -0.875757,-0.27314 -2.05352,1.85474 -1.2246,2.32793 1.251508,0.71442 3.45873,0.94693 4.729449,1.023 v 0.89656 c -1.028117,-0.17266 -2.435841,-0.34645 -3.304291,-0.19486 -0.73716,0.1287 -0.700679,1.68259 0.08551,1.67961 0.971277,-0.004 2.266253,-0.39032 3.218783,-0.73019 v 6.96098 a 8.4824906,8.4824906 0 0 0 -4.422135,1.82161 l -4.903575,-4.90358 c 0.909928,-0.433 2.081039,-1.0689 2.76325,-1.74594 0.557999,-0.55378 -0.514934,-1.67818 -1.127171,-1.24792 -0.714227,0.50193 -1.576624,1.60328 -2.180749,2.4492 l -0.631734,-0.63174 c 0.846541,-0.9567 2.224159,-2.66634 2.601043,-4.04589 0.251538,-0.92072 -2.085796,-1.59183 -2.511905,-0.77943 -0.529814,1.01012 -0.700462,2.87182 -0.753001,4.16198 l -0.857685,-0.85769 c 0.366222,-1.31697 1.235325,-4.80334 0.798087,-6.84438 -0.24768,-1.15616 -3.281845,-0.25693 -3.294446,0.90433 -0.01592,1.46895 0.899802,3.6218 1.590995,5.03417 l -3.542681,-3.54268 v -7.62589 h -1.788444 v 5.83744 l -1.455215,-1.45521 v -7.62641 h -1.788443 v 5.83797 l -1.455215,-1.45522 v -7.6264 H 19.21622 v 5.83796 l -3.530244,-3.52973 -1.264503,1.26451 3.529207,3.52972 h -5.836926 v 1.78844 h 7.625369 l 1.455215,1.45522 h -5.836925 v 1.78896 h 7.625886 l 1.454697,1.4547 H 18.60107 v 1.78896 h 7.625887 l 3.604872,3.60487 c -1.409788,-0.69544 -3.618422,-1.64819 -5.117093,-1.63193 -1.161253,0.0125 -2.061001,3.04676 -0.904846,3.29444 2.057104,0.44068 5.584969,-0.4459 6.877549,-0.8069 l 0.86546,0.86546 c -1.291402,0.0505 -3.182126,0.21866 -4.202918,0.75404 -0.812397,0.42611 -0.141298,2.76345 0.779432,2.5119 1.390275,-0.37981 3.116433,-1.77604 4.068693,-2.62073 l 0.634326,0.63381 c -0.84908,0.60489 -1.967718,1.47711 -2.474591,2.19836 -0.430259,0.61225 0.694152,1.68568 1.247918,1.12769 0.684167,-0.68939 1.326204,-1.87895 1.759422,-2.79279 l 4.909277,4.90928 a 8.4824906,8.4824906 0 0 0 -1.842857,4.42835 h -6.917454 c 0.337269,-0.9496 0.715682,-2.22805 0.719317,-3.18924 0.0028,-0.78618 -1.550924,-0.82171 -1.679613,-0.0845 -0.150113,0.85996 0.01924,2.24837 0.190194,3.27371 h -0.893444 c -0.07793,-1.27513 -0.312505,-3.45799 -1.02145,-4.69991 -0.473188,-0.82893 -2.600562,0.34884 -2.327411,1.2246 0.339657,1.08899 1.53518,2.52588 2.41033,3.47531 h -1.213716 c -0.672234,-1.19012 -2.522513,-4.26962 -4.274954,-5.40367 -0.992671,-0.6424 -2.502197,2.13895 -1.689977,2.96899 1.027431,1.04995 3.196912,1.92473 4.684362,2.43468 h -5.009298 l -5.392795,-5.39228 -1.265022,1.26451 4.127774,4.12777 h -2.057409 l -5.3927948,-5.39228 -1.2650217,1.26451 4.1277735,4.12777 h -2.057408 l -5.3927956,-5.39228 -1.2650214,1.26451 4.1277738,4.12777 H 2.7123789 v 1.78844 H 7.704057 l -4.128292,4.12778 1.2650214,1.26502 5.3927956,-5.3928 h 2.057926 l -4.1282915,4.12778 1.2650217,1.26502 5.3927948,-5.3928 h 2.057927 l -4.128292,4.12778 1.265022,1.26502 5.392795,-5.3928 h 5.097917 c -1.48862,0.50511 -3.724717,1.39402 -4.772981,2.46527 -0.81222,0.83004 0.697306,3.61139 1.689977,2.96899 1.766418,-1.14312 3.634054,-4.26533 4.292574,-5.43426 h 1.224081 c -0.877408,0.94894 -2.095042,2.40532 -2.438315,3.50589 -0.273151,0.87575 1.854223,2.05353 2.327411,1.2246 0.714519,-1.25166 0.946951,-3.45984 1.023004,-4.73049 h 0.896552 c -0.172666,1.02812 -0.346447,2.43585 -0.194856,3.3043 0.128689,0.73716 1.682593,0.70124 1.679613,-0.085 -0.0037,-0.97129 -0.390326,-2.26678 -0.730201,-3.21931 h 6.923156 a 8.4824906,8.4824906 0 0 0 1.830421,4.45168 l -4.874558,4.87455 c -0.433,-0.90992 -1.068926,-2.08158 -1.745945,-2.76376 -0.553777,-0.558 -1.678178,0.51596 -1.247921,1.1282 0.50192,0.7142 1.603294,1.57613 2.449198,2.18023 l -0.631733,0.63174 c -0.956739,-0.84655 -2.665911,-2.22418 -4.045373,-2.60104 -0.920732,-0.25155 -1.592357,2.08579 -0.779952,2.5119 1.010114,0.52984 2.871304,0.69995 4.161461,0.75248 l -0.857685,0.85821 c -1.316967,-0.36623 -4.802318,-1.23534 -6.843347,-0.79809 -1.156167,0.24768 -0.257436,3.2818 0.903809,3.29444 1.468631,0.016 3.620746,-0.89881 5.033137,-1.58995 l -3.541645,3.54164 h -7.625887 v 1.78845 h 5.837444 l -1.455215,1.45521 h -7.625887 v 1.78896 h 5.836926 l -1.454697,1.4547 h -7.626405 v 1.78896 h 5.837444 l -3.529726,3.52972 1.265021,1.26451 3.529208,-3.52921 v 5.83745 h 1.789479 v -7.62641 l 1.454697,-1.45522 v 5.83745 h 1.788961 v -7.62589 l 1.455215,-1.45521 v 5.83744 h 1.788443 v -7.6264 l 3.605388,-3.60488 c -0.695473,1.40975 -1.648704,3.61923 -1.632452,5.11813 0.01255,1.16125 3.046764,2.06049 3.294444,0.90433 0.44074,-2.05736 -0.446503,-5.58535 -0.807414,-6.87755 l 0.865457,-0.86546 c 0.05058,1.29143 0.219604,3.18203 0.755076,4.20292 0.426099,0.8124 2.762926,0.14131 2.511385,-0.77943 -0.379813,-1.39027 -1.77604,-3.11644 -2.620734,-4.0687 l 0.633289,-0.6338 c 0.604892,0.84907 1.477597,1.96769 2.198888,2.47459 0.612244,0.43026 1.685159,-0.69415 1.127168,-1.24792 -0.689516,-0.68429 -1.878362,-1.32673 -2.79227,-1.75994 l 4.880775,-4.88078 a 8.4824906,8.4824906 0 0 0 4.456854,1.84079 v 6.89154 c -0.94958,-0.33723 -2.228158,-0.71567 -3.189243,-0.71931 -0.786139,-0.003 -0.821668,1.55043 -0.08447,1.67909 0.85989,0.15012 2.248401,-0.0187 3.273716,-0.18968 v 0.89293 c -1.275121,0.0779 -3.458004,0.31304 -4.699909,1.02197 -0.82892,0.47319 0.348843,2.60056 1.2246,2.32741 1.088994,-0.33967 2.525888,-1.5357 3.475309,-2.41085 v 1.21372 c -1.190159,0.67225 -4.269618,2.52252 -5.403677,4.27495 -0.64239,0.99266 2.138436,2.5022 2.968473,1.68998 1.049952,-1.02743 1.92525,-3.19692 2.435204,-4.68436 v 5.00981 l -5.392796,5.39228 1.265022,1.26502 4.127774,-4.12725 v 2.0574 l -5.392796,5.39228 1.265022,1.26502 4.127774,-4.12777 v 2.05792 l -5.392796,5.39228 1.265022,1.26502 4.127774,-4.12725 v 4.99064 h 1.788444 v -4.99116 l 4.127774,4.12777 1.265022,-1.26502 -5.392796,-5.39228 v -2.05844 l 4.127774,4.12829 1.265022,-1.26502 -5.392796,-5.39228 v -2.05792 l 4.127774,4.12777 1.265022,-1.26502 -5.392796,-5.39228 v -5.09947 c 0.505037,1.48862 1.393727,3.72548 2.465262,4.77402 0.830026,0.81222 3.611382,-0.69732 2.96899,-1.68998 -1.143117,-1.76642 -4.265338,-3.63355 -5.434252,-4.29206 v -1.22459 c 0.948932,0.8774 2.405306,2.09555 3.505887,2.43883 0.875757,0.27315 2.05352,-1.85422 1.224597,-2.32741 -1.251656,-0.71451 -3.459839,-0.94747 -4.730484,-1.02352 v -0.89656 c 1.028115,0.17267 2.435841,0.34646 3.304291,0.19486 0.737157,-0.12866 0.701631,-1.68207 -0.08447,-1.67909 -0.971452,0.004 -2.26724,0.39079 -3.219818,0.73071 v -6.90035 a 8.4824906,8.4824906 0 0 0 4.448562,-1.85685 l 4.877665,4.87767 c -0.909901,0.433 -2.081632,1.06896 -2.763767,1.74594 -0.558001,0.55378 0.515961,1.67767 1.128206,1.24741 0.714105,-0.50184 1.576125,-1.60282 2.180232,-2.44869 l 0.631733,0.63122 c -0.846551,0.95673 -2.22366,2.66642 -2.600523,4.04589 -0.25154,0.92073 2.085276,1.59182 2.511386,0.77943 0.529851,-1.01019 0.699952,-2.8718 0.752483,-4.16197 l 0.857685,0.8582 c -0.366233,1.31703 -1.234797,4.80287 -0.79757,6.84386 0.247681,1.15615 3.281857,0.25692 3.294447,-0.90432 0.01592,-1.46831 -0.898351,-3.6197 -1.589441,-5.0321 l 3.541127,3.5406 v 7.62641 h 1.788961 v -5.83744 l 1.454697,1.45469 v 7.62641 h 1.788961 v -5.83745 l 1.455217,1.45522 v 7.62589 h 1.788442 v -5.83745 l 3.529207,3.52973 1.265022,-1.26502 -3.529208,-3.52921 h 5.837445 v -1.78896 h -7.626406 l -1.454697,-1.45522 h 5.837444 V 160.7431 H 66.74599 l -1.454179,-1.4547 h 5.836407 v -1.78896 h -7.625886 l -3.605388,-3.60538 c 1.409729,0.69547 3.619626,1.64871 5.118645,1.63245 1.161253,-0.0126 2.060485,-3.04676 0.904329,-3.29445 -2.057169,-0.4407 -5.584535,0.44645 -6.877032,0.80742 l -0.865977,-0.86598 c 1.29142,-0.0505 3.182004,-0.21858 4.202917,-0.75404 0.812397,-0.4261 0.140789,-2.76344 -0.779949,-2.5119 -1.39019,0.3798 -3.115879,1.77602 -4.068176,2.62073 l -0.633808,-0.63328 c 0.849099,-0.6049 1.967672,-1.47757 2.474593,-2.19889 0.430257,-0.61223 -0.694143,-1.68516 -1.24792,-1.12717 -0.68426,0.68948 -1.326721,1.87889 -1.759939,2.79279 l -4.889587,-4.88959 a 8.4824906,8.4824906 0 0 0 1.822129,-4.44804 h 6.919009 c -0.337232,0.94958 -0.715682,2.22765 -0.719314,3.18872 -0.0028,0.78619 1.550932,0.82221 1.67961,0.085 0.150113,-0.85988 -0.01924,-2.24839 -0.190192,-3.27371 h 0.892925 c 0.07793,1.2752 0.313118,3.45765 1.021967,4.69939 0.473199,0.82892 2.600554,-0.34885 2.327412,-1.2246 -0.339619,-1.08886 -1.535728,-2.52536 -2.410848,-3.47479 h 1.213716 c 0.672413,1.1904 2.522691,4.2692 4.274954,5.40316 0.99266,0.64238 2.502714,-2.13896 1.690495,-2.96899 -1.027104,-1.04962 -3.195921,-1.92415 -4.683326,-2.43417 h 5.008262 l 5.392278,5.39227 1.265022,-1.26502 -4.127256,-4.12725 h 2.057407 l 5.392278,5.39227 1.265022,-1.26502 -4.127256,-4.12725 h 2.057927 l 5.391758,5.39227 1.265022,-1.26502 -4.127257,-4.12725 h 4.991161 v -1.78896 h -4.991161 l 4.127257,-4.12778 -1.265022,-1.26502 -5.391758,5.3928 h -2.057927 l 4.127256,-4.12778 -1.265022,-1.26502 -5.392278,5.3928 h -2.057407 l 4.127256,-4.12778 -1.265022,-1.26502 -5.392278,5.3928 h -5.097917 c 1.48862,-0.50512 3.724716,-1.39401 4.772981,-2.46527 0.812219,-0.83002 -0.697835,-3.61087 -1.690495,-2.96847 -1.766259,1.14301 -3.633376,4.26456 -4.292055,5.43374 h -1.2246 c 0.877397,-0.94894 2.095571,-2.40534 2.438833,-3.50589 0.273142,-0.87575 -1.854213,-2.053 -2.327412,-1.22408 -0.714509,1.25167 -0.947468,3.45932 -1.023522,4.72997 h -0.896034 c 0.172658,-1.02811 0.346457,-2.43586 0.194856,-3.30429 -0.128678,-0.73716 -1.682601,-0.70123 -1.67961,0.085 0.0037,0.97126 0.389806,2.26676 0.72968,3.2193 h -6.937149 a 8.4824906,8.4824906 0 0 0 -1.84804,-4.41955 l 4.906688,-4.90668 c 0.433003,0.90992 1.068918,2.08158 1.745948,2.76377 0.553774,0.55799 1.678185,-0.51597 1.247918,-1.12821 -0.501872,-0.71414 -1.603323,-1.57611 -2.449198,-2.18023 l 0.631733,-0.63173 c 0.956787,0.84657 2.666033,2.22422 4.045376,2.60104 0.920729,0.25154 1.591826,-2.08579 0.779431,-2.51191 -1.010188,-0.52981 -2.871813,-0.69942 -4.161978,-0.75196 l 0.858202,-0.85821 c 1.316968,0.36623 4.802837,1.23481 6.843865,0.79757 1.156159,-0.24767 0.256919,-3.28136 -0.904326,-3.29393 -1.468632,-0.0159 -3.620747,0.89882 -5.033137,1.58996 l 3.541646,-3.54216 h 7.626403 v -1.78844 h -5.837444 l 1.455216,-1.45522 h 7.625886 v -1.78844 H 68.52614 l 1.455217,-1.45522 h 7.625885 v -1.78896 h -5.836924 l 3.529207,-3.5292 -1.264504,-1.26503 -3.530245,3.52973 v -5.83744 h -1.788441 v 7.62588 l -1.455214,1.45522 v -5.83745 h -1.788444 v 7.62641 l -1.455214,1.4547 v -5.83693 h -1.788445 v 7.62589 l -3.605388,3.60539 c 0.695465,-1.40975 1.648186,-3.61974 1.631934,-5.11865 -0.01255,-1.16124 -3.046763,-2.06049 -3.294444,-0.90433 -0.44074,2.05736 0.446512,5.58536 0.807415,6.87755 l -0.865977,0.86598 c -0.05058,-1.29143 -0.218501,-3.18241 -0.754036,-4.20344 -0.42611,-0.8124 -2.763446,-0.14079 -2.511906,0.77995 0.379824,1.39029 1.776566,3.11593 2.621252,4.06818 l -0.634324,0.63432 c -0.604891,-0.84909 -1.47656,-1.9677 -2.19785,-2.47459 -0.612237,-0.43025 -1.686196,0.69363 -1.128208,1.2474 0.689479,0.68426 1.879418,1.32673 2.793309,1.75994 l -4.917571,4.91809 a 8.4824906,8.4824906 0 0 0 -4.42006,-1.82472 v -6.94492 c 0.94958,0.33723 2.227632,0.71619 3.188725,0.71983 0.78615,0.003 0.822194,-1.55092 0.08499,-1.67961 -0.85988,-0.1501 -2.248401,0.0188 -3.273716,0.18968 v -0.89241 c 1.275123,-0.0779 3.457486,-0.31302 4.699392,-1.02197 0.82892,-0.47319 -0.348843,-2.60107 -1.2246,-2.32793 -1.088954,0.33965 -2.525369,1.53571 -3.474792,2.41085 v -1.21371 c 1.190414,-0.67243 4.269202,-2.5227 5.40316,-4.27496 0.6424,-0.99265 -2.138965,-2.50219 -2.968991,-1.68998 -1.049633,1.02712 -1.924146,3.19541 -2.434169,4.68281 v -5.00826 l 5.392278,-5.39228 -1.264504,-1.26502 -4.127774,4.12726 v -2.05741 l 5.392278,-5.39228 -1.264504,-1.26502 -4.127774,4.12726 v -2.05741 l 5.392278,-5.39228 -1.264504,-1.265021 -4.127774,4.127771 v -4.991158 z m 0.895,35.430448 a 6.75137,6.75137 0 0 1 6.751099,6.7511 6.75137,6.75137 0 0 1 -6.751099,6.7511 6.75137,6.75137 0 0 1 -6.751617,-6.7511 6.75137,6.75137 0 0 1 6.751617,-6.7511 z" />
    <path
       style="display:inline;fill:none;stroke:#0000ff;stroke-width:0.3;stroke-miterlimit:4;stroke-dasharray:none;stroke-opacity:1"
       d="m 111.97859,79.134784 a 5.7104817,5.7104817 0 0 1 -1.6574,3.621066 5.7104817,5.7104817 0 0 1 -8.07552,0 5.7104817,5.7104817 0 0 1 -1.8e-4,-8.075699 5.7104817,5.7104817 0 0 1 3.6243,-1.653081 44.371651,44.371651 0 0 0 2.88497,3.219685 44.371651,44.371651 0 0 0 3.22383,2.888029 z"
       id="path13525-0" />
    <path
       style="display:inline;fill:none;stroke:#ff0000;stroke-width:0.3;stroke-miterlimit:4;stroke-dasharray:none;stroke-opacity:1"
       d="m 171.5057,13.495811 a 44.371651,44.371651 0 0 0 -62.75112,0 44.371651,44.371651 0 0 0 -3.96462,58.176869 7.2060839,7.2060839 0 0 0 -3.60197,1.94997 7.2060839,7.2060839 0 0 0 0,10.190877 7.2060839,7.2060839 0 0 0 10.19087,0 7.2060839,7.2060839 0 0 0 1.95285,-3.599448 44.371651,44.371651 0 0 0 58.1738,-3.967324 44.371651,44.371651 0 0 0 1.9e-4,-62.750944 z"
       id="path17741-9" />
    <path
       id="path15497"
       style="fill:none;fill-opacity:1;stroke:#0000ff;stroke-width:0.3;stroke-miterlimit:4;stroke-dasharray:none;stroke-opacity:1"
       inkscape:transform-center-x="1.0668483e-05"
       inkscape:transform-center-y="-9.0766219e-06"
       d="m 139.11306,101.19326 -2.76448,6.55385 -0.46737,-1.17348 -0.16351,6.2891 -0.82466,-2.07014 -0.2014,7.75774 -1.04387,-2.62155 -0.30208,11.6225 5.7981,3.51551 v 2.33489 l -5.24249,2.66624 -2.17553,-1.10638 -0.5676,-6.2976 -11.57701,-5.58117 2.05612,2.10816 -7.72858,-3.72571 1.62263,1.66364 -6.26457,-3.01959 0.92001,0.94317 -7.82569,-1.16764 10.07294,5.17598 -1.72243,-3.46989 5.19307,5.32402 -4.68649,-2.38363 -0.92938,1.41811 -8.94974,-4.50473 5.06031,5.38617 -1.38692,-0.2303 6.10104,3.2691 -2.44731,-0.40606 7.52675,4.0329 -3.1,-0.5143 11.27499,6.04136 6.35543,-2.66537 2.27932,1.15916 v 5.34861 l -2.15947,1.09835 -6.47528,-2.71546 -11.27499,6.04134 3.1,-0.5143 -7.52675,4.03295 2.44731,-0.40606 -6.10104,3.26908 1.38692,-0.2303 -5.06031,5.38618 10.12503,-5.09641 -4.27171,-0.42125 7.83104,-1.2996 -4.68784,2.38407 0.92937,1.41765 -8.90386,4.5754 7.82569,-1.16767 -0.92001,0.94315 6.26457,-3.01953 -1.62263,1.6636 7.72858,-3.72571 -2.05612,2.10816 11.57701,-5.58115 0.55737,-6.18133 2.31672,-1.17838 5.22068,2.65507 v 2.23559 l -5.90725,3.5817 0.30208,11.62249 1.04387,-2.62155 0.2014,7.75774 0.82421,-2.07014 0.16396,6.2891 0.46737,-1.17346 2.76448,6.55382 0.0522,-10.27235 -2.55019,3.04906 2.63796,-6.62406 v 4.76723 h 1.85918 l 0.0458,9.08012 2.7645,-6.55382 0.46736,1.17346 0.1635,-6.28998 0.82468,2.07102 0.20138,-7.75774 1.04386,2.62155 0.30206,-11.62249 -5.7981,-3.5155 v -2.4127 l 5.16589,-2.62735 2.25215,1.14531 0.5676,6.29759 11.57703,5.58115 -2.0561,-2.10816 7.72856,3.72571 -1.62263,-1.6636 6.26412,3.01953 -0.92002,-0.94315 7.82613,1.16767 -10.07338,-5.17601 1.72198,3.4699 -5.19216,-5.32402 4.68648,2.38363 0.92937,-1.41811 8.94976,4.50475 -5.06032,-5.38618 1.38694,0.2303 -6.10104,-3.26908 2.44727,0.40606 -7.52672,-4.03295 3.09997,0.5143 -11.27542,-6.04134 -6.35544,2.66537 -2.38801,-1.21462 v -5.2377 l 2.26863,-1.1538 6.47482,2.71546 11.27542,-6.04136 -3.09997,0.5143 7.52672,-4.0329 -2.44727,0.40606 6.10104,-3.2691 -1.38694,0.2303 5.06032,-5.38617 -10.12506,5.09638 4.27171,0.42128 -7.83103,1.29958 4.68785,-2.38407 -0.92937,-1.41809 8.90385,-4.57494 -7.82613,1.16764 0.92002,-0.94317 -6.26412,3.01959 1.62263,-1.66364 -7.72856,3.72571 2.0561,-2.10816 -11.57703,5.58117 -0.55735,6.18131 -2.34927,1.19494 -5.18814,-2.63851 v -2.2687 l 5.90722,-3.5817 -0.30206,-11.6225 -1.04386,2.62155 -0.20138,-7.75774 -0.82468,2.07104 -0.1635,-6.29 -0.46736,1.17348 -2.7645,-6.55385 -0.0522,10.27238 2.55019,-3.04906 -2.63794,6.62404 v -4.76722 h -1.85918 z m -2.49807,7.22332 2.5288,3.02359 v 3.32632 z m 7.43229,5.71755 -3.02913,7.60613 v -5.76944 z m -7.82347,4.7e-4 2.91998,1.77005 v 5.56192 z m 33.33478,7.45631 -1.70772,3.4408 -3.27015,1.66319 z m -33.42699,0.57511 3.01219,1.82684 v 5.73722 z m 8.00788,0 -3.12133,7.83821 v -5.94518 z m 19.60277,1.98515 -0.28025,3.11303 -5.46796,2.78074 z m -47.21341,4.6e-4 5.96251,6.11334 -5.67157,-2.88493 z m -5.1004,2.39302 3.27152,1.6636 -7.50759,-1.24591 z m 13.04237,1.5518 6.1456,6.30071 -5.84531,-2.97305 z m 31.32947,0 -0.28959,3.2114 -5.64172,2.86929 z m 8.53362,0.63057 3.32008,1.39215 -8.99163,1.49235 z m -48.51611,0.0501 5.46704,2.78073 -8.66771,-1.43867 z m 40.56524,3.99356 3.42165,1.43508 -9.26786,1.53795 z m -32.61436,0.0499 5.64126,2.86927 -8.9435,-1.48428 z m 16.31252,1.71235 5.49734,2.79595 v 5.5919 l -5.49734,2.79594 -5.4978,-2.79594 v -5.5919 z m 0,5.45414 -0.13543,0.0689 v 0.13773 l 0.13543,0.069 0.135,-0.069 v -0.13773 z m -10.34692,4.54143 -5.84622,2.97302 -3.42162,-1.43509 z m 21.1269,0.0537 8.94351,1.48427 -3.30226,1.38501 z m -1.2065,1.29288 5.84531,2.97303 0.3003,3.32767 z m -19.25256,0.22 -5.9313,6.0807 0.28959,-3.2114 z m -8.79337,2.56566 -5.67155,2.88448 -3.32007,-1.39216 z m 37.37751,0.0537 8.66773,1.43866 -3.20069,1.34207 z m -1.20649,1.29287 5.67155,2.88494 0.29094,3.22841 z m -35.50273,0.22005 -5.74819,5.89374 0.28024,-3.11302 z m 16.97591,0.0405 v 5.94519 l -3.12134,1.89301 z m 1.87433,0.27415 3.01221,7.56405 -3.01221,-1.82682 z m 24.44387,1.52186 7.50756,1.2459 -4.23606,0.41771 z m -49.88122,1.51334 -4.97833,5.10398 1.70772,-3.44036 z m 23.56302,4.95462 v 5.76944 l -3.02913,1.83668 z m 1.87433,0.27412 2.92001,7.33244 -2.92001,-1.77094 z m 0,6.69965 2.52883,6.3499 -2.52883,-3.02356 z" />
    <path
       style="display:inline;fill:none;stroke:#0000ff;stroke-width:0.3;stroke-miterlimit:4;stroke-dasharray:none;stroke-opacity:1"
       d="m 111.80848,174.61293 a 5.7450822,5.7450822 0 0 1 -1.66745,3.64301 5.7450822,5.7450822 0 0 1 -8.12445,0 5.7450822,5.7450822 0 0 1 -1.9e-4,-8.12463 5.7450822,5.7450822 0 0 1 3.64628,-1.6631 44.640504,44.640504 0 0 0 2.90244,3.23919 44.640504,44.640504 0 0 0 3.24337,2.90553 z"
       id="path13525-1" />
    <path
       style="display:inline;fill:none;stroke:#ff0000;stroke-width:0.3;stroke-miterlimit:4;stroke-dasharray:none;stroke-opacity:1"
       d="m 171.69627,108.57624 a 44.640504,44.640504 0 0 0 -63.13134,0 44.640504,44.640504 0 0 0 -3.98864,58.52937 7.2497465,7.2497465 0 0 0 -3.62379,1.96179 7.2497465,7.2497465 0 0 0 0,10.25263 7.2497465,7.2497465 0 0 0 10.25261,0 7.2497465,7.2497465 0 0 0 1.96469,-3.62127 44.640504,44.640504 0 0 0 58.52628,-3.99136 44.640504,44.640504 0 0 0 1.9e-4,-63.13116 z"
       id="path17741-1" />
    <path
       style="display:inline;fill:none;stroke:#0000ff;stroke-width:0.3;stroke-miterlimit:4;stroke-dasharray:none;stroke-opacity:1"
       d="m 16.537377,174.61293 a 5.7450822,5.7450822 0 0 1 -1.667447,3.64301 5.7450822,5.7450822 0 0 1 -8.1244519,0 5.7450822,5.7450822 0 0 1 -1.811e-4,-8.12463 5.7450822,5.7450822 0 0 1 3.646272,-1.6631 44.640504,44.640504 0 0 0 2.902443,3.23919 44.640504,44.640504 0 0 0 3.243365,2.90553 z"
       id="path13525-5" />
    <path
       style="display:inline;fill:none;stroke:#ff0000;stroke-width:0.3;stroke-miterlimit:4;stroke-dasharray:none;stroke-opacity:1"
       d="m 76.425169,108.57624 a 44.640504,44.640504 0 0 0 -63.131338,0 44.640504,44.640504 0 0 0 -3.9886416,58.52937 7.2497465,7.2497465 0 0 0 -3.6237956,1.96179 7.2497465,7.2497465 0 0 0 -5e-7,10.25263 7.2497465,7.2497465 0 0 0 10.2526217,0 7.2497465,7.2497465 0 0 0 1.964687,-3.62127 44.640504,44.640504 0 0 0 58.526284,-3.99136 44.640504,44.640504 0 0 0 1.83e-4,-63.13116 z"
       id="path17741-3" />
  </g>
</svg>
