<?xml version="1.0" encoding="UTF-8" standalone="no"?>
<!-- Created with Inkscape (http://www.inkscape.org/) -->

<svg
   width="1220mm"
   height="600mm"
   viewBox="0 0 1220 600.00001"
   version="1.1"
   id="svg5"
   inkscape:version="1.1.1 (3bf5ae0d25, 2021-09-20)"
   sodipodi:docname="01_ice_skating_cut.svg"
   xmlns:inkscape="http://www.inkscape.org/namespaces/inkscape"
   xmlns:sodipodi="http://sodipodi.sourceforge.net/DTD/sodipodi-0.dtd"
   xmlns="http://www.w3.org/2000/svg"
   xmlns:svg="http://www.w3.org/2000/svg"
   xmlns:rdf="http://www.w3.org/1999/02/22-rdf-syntax-ns#"
   xmlns:cc="http://creativecommons.org/ns#"
   xmlns:dc="http://purl.org/dc/elements/1.1/">
  <metadata
     id="metadata3849">
    <rdf:RDF>
      <cc:Work
         rdf:about="">
        <dc:format>image/svg+xml</dc:format>
        <dc:type
           rdf:resource="http://purl.org/dc/dcmitype/StillImage" />
      </cc:Work>
    </rdf:RDF>
  </metadata>
  <sodipodi:namedview
     id="namedview7"
     pagecolor="#ffffff"
     bordercolor="#666666"
     borderopacity="1.0"
     inkscape:pageshadow="2"
     inkscape:pageopacity="0.0"
     inkscape:pagecheckerboard="true"
     inkscape:document-units="mm"
     showgrid="false"
     inkscape:zoom="0.87533599"
     inkscape:cx="-31.416508"
     inkscape:cy="334.1574"
     inkscape:window-width="1920"
     inkscape:window-height="1017"
     inkscape:window-x="-8"
     inkscape:window-y="-8"
     inkscape:window-maximized="1"
     inkscape:current-layer="layer1"
     inkscape:snap-global="true"
     inkscape:object-paths="true"
     inkscape:snap-page="true" />
  <defs
     id="defs2" />
  <g
     inkscape:label="Layer 1"
     inkscape:groupmode="layer"
     id="layer1">
    <g
       id="g73301"
       transform="matrix(0.71671426,-0.71671426,0.71671426,0.71671426,-20.937762,44.999999)">
      <path
         style="fill:none;fill-opacity:1;stroke:#ff0000;stroke-width:0.2;stroke-miterlimit:4;stroke-dasharray:none;stroke-opacity:1"
         d="M 77.322404,14.677299 A 44.296748,44.296748 0 0 0 50.297227,1.9439418 a 7.4017201,7.4017201 0 0 0 0.229476,-0.2075513 7.4017201,7.4017201 0 0 0 0,-10.467465 7.4017201,7.4017201 0 0 0 -10.467465,2e-7 7.4017201,7.4017201 0 0 0 0,10.4674648 7.4017201,7.4017201 0 0 0 0.397929,0.3686962 44.296748,44.296748 0 0 0 -25.779503,12.5722123 44.296748,44.296748 0 0 0 -3.67e-4,62.645107 44.296748,44.296748 0 0 0 62.645474,0 44.296748,44.296748 0 0 0 -3.67e-4,-62.645107 z"
         id="path4941" />
      <path
         style="fill:none;fill-opacity:1;stroke:#0000ff;stroke-width:0.20439;stroke-miterlimit:4;stroke-dasharray:none;stroke-opacity:1"
         d="m 48.756198,-0.03421764 a 4.8978052,4.8978052 0 0 1 -6.926542,0 4.8978052,4.8978052 0 0 1 0,-6.92654236 4.8978052,4.8978052 0 0 1 6.926542,0 4.8978052,4.8978052 0 0 1 0,6.92654236 z"
         id="path4950" />
      <path
         id="path66512"
         style="font-variation-settings:normal;opacity:1;vector-effect:none;fill:none;fill-opacity:1;stroke:#0000ff;stroke-width:0.852918;stroke-linecap:butt;stroke-linejoin:miter;stroke-miterlimit:4;stroke-dasharray:none;stroke-dashoffset:0;stroke-opacity:1;-inkscape-stroke:none;stop-color:#000000;stop-opacity:1"
         transform="scale(0.26458333)"
         d="m 286.18555,281.34961 h -31.48633 c 11.53241,-1.55197 14.54527,-3.69842 6.86523,-4.89063 -3.39423,-0.5269 -4.58508,-1.5337 -5.38672,-4.54492 -0.56612,-2.12655 -2.00891,-4.94953 -3.20703,-6.27344 -2.02292,-2.2353 -1.91631,-2.6128 1.50586,-5.30468 2.73739,-2.15324 3.29291,-3.29109 2.15821,-4.42578 -1.13471,-1.13471 -2.0205,-1.12035 -3.44336,0.0605 -2.28329,1.89496 -6.31836,0.65941 -6.31836,-1.93554 0,-1.01052 -1.16884,-2.46383 -2.59766,-3.22852 -1.42883,-0.76468 -3.29855,-3.5106 -4.1543,-6.10352 -0.85969,-2.60492 -4.32055,-7.14933 -7.73437,-10.15429 l -6.17774,-5.4375 3.67383,-5.55078 c 2.02025,-3.05281 4.51876,-7.9483 5.55274,-10.87891 1.03398,-2.9306 2.81312,-6.65952 3.95312,-8.28711 2.64874,-3.78159 2.65214,-10.84355 0.008,-15.95703 -2.53588,-4.90387 -16.73627,-12.37612 -29.70898,-15.63477 -8.50261,-2.13578 -9.70259,-2.12913 -20.76172,0.1211 -6.45581,1.3136 -13.06572,3.21124 -14.68945,4.21875 -2.72153,1.68867 -3.17425,1.47482 -5.7793,-2.74024 -2.66731,-4.3158 -6.43054,-6.49318 -10.3125,-6.3789 l -1.9e-4,4e-5 c -2.65607,0.0782 -5.36627,1.22958 -7.82031,3.5039 -3.95863,3.66873 -4.75399,9.94472 -1.98633,15.69336 2.3113,4.80076 13.10778,12.59179 15.12695,10.91602 2.25198,-1.86898 16.55504,2.98047 16.06055,5.44531 -0.55337,2.75836 -13.75783,14.43553 -19.92773,17.62305 -11.07099,5.71952 -13.11638,9.76782 -5.14454,10.18359 3.76835,0.19654 5.84109,-0.58718 8.45118,-3.19726 1.90179,-1.90179 7.62408,-5.55644 12.71679,-8.1211 9.73524,-4.90259 18.48047,-12.45469 18.48047,-15.95898 0,-1.61008 1.64999,-2.07422 7.36328,-2.07422 4.04925,0 7.6959,0.53968 8.10352,1.19922 0.4076,0.65954 -3.13872,5.11528 -7.87891,9.90234 -12.14316,12.26325 -13.37207,19.76588 -4.16992,25.45313 5.54369,3.42619 28.84354,13.50976 31.2168,13.50976 2.4555,0 3.01857,2.56866 2.19922,10.03711 -0.63713,5.80747 -0.44362,6.54676 1.51562,5.79492 3.32227,-1.27487 2.88736,3.41313 -0.51367,5.53711 -3.17349,1.98189 -2.36738,4.33985 1.48438,4.33985 1.4445,0 2.62695,0.60929 2.62695,1.35351 0,0.74422 -1.55844,1.35352 -3.46289,1.35352 -1.48628,0 -2.49633,0.33621 -2.69532,0.83203 H 61.646483 m 0,0 C 2.2226042,220.41946 3.7363757,124.09965 63.918104,63.917923 124.63645,3.1995795 223.08033,3.1995777 283.79868,63.917919 343.97017,124.0894 345.58473,220.41561 286.18555,281.34961" />
    </g>
    <g
       id="g73307"
       transform="matrix(0.71671425,-0.71671425,0.71671425,0.71671425,-11.311168,121.94092)">
      <path
         style="fill:none;fill-opacity:1;stroke:#ff0000;stroke-width:0.2;stroke-miterlimit:4;stroke-dasharray:none;stroke-opacity:1"
         d="m 187.76693,17.76953 a 44.296748,44.296748 0 0 0 -27.02517,-12.7333567 7.4017201,7.4017201 0 0 0 0.22947,-0.2075513 7.4017201,7.4017201 0 0 0 0,-10.467465 7.4017201,7.4017201 0 0 0 -10.46746,2e-7 7.4017201,7.4017201 0 0 0 0,10.4674648 7.4017201,7.4017201 0 0 0 0.39793,0.3686962 44.296748,44.296748 0 0 0 -25.77951,12.5722128 44.296748,44.296748 0 0 0 -3.6e-4,62.645106 44.296748,44.296748 0 0 0 62.64547,0 44.296748,44.296748 0 0 0 -3.7e-4,-62.645107 z"
         id="path4941-4" />
      <path
         style="fill:none;fill-opacity:1;stroke:#0000ff;stroke-width:0.20439;stroke-miterlimit:4;stroke-dasharray:none;stroke-opacity:1"
         d="m 159.20073,3.0580139 a 4.8978052,4.8978052 0 0 1 -6.92654,0 4.8978052,4.8978052 0 0 1 0,-6.9265424 4.8978052,4.8978052 0 0 1 6.92654,0 4.8978052,4.8978052 0 0 1 0,6.9265424 z"
         id="path4950-3" />
      <path
         id="path38011-4"
         style="font-variation-settings:normal;opacity:1;vector-effect:none;fill:none;fill-opacity:1;stroke:#0000ff;stroke-width:0.225668;stroke-linecap:butt;stroke-linejoin:miter;stroke-miterlimit:4;stroke-dasharray:none;stroke-dashoffset:0;stroke-opacity:1;-inkscape-stroke:none;stop-color:#000000;stop-opacity:1"
         d="m 193.82107,31.882258 -0.011,2.398278 h -2.7559 v 3.186369 h -2.75591 v 3.186369 h -2.18488 v -6.163966 h -2.91094 l -8.75347,-11.181745 v -3.72432 h -2.9099 v 0 3.72432 h -5.3e-4 l -8.75967,11.173477 -2.90422,0.0083 v 6.248198 h -2.70111 v -3.185866 h -2.75642 v -3.186885 h -2.75539 v -3.186885 h -2.75487 v -3.18792 h -2.7497 v 3.18792 h -2.75487 v 3.186885 h -2.75539 v 3.186885 h -2.75642 v 3.185853 h -2.7559 v 0.57154 h -2.16266 c -1.83314,-1.435571 -7.11024,-3.693091 -7.37474,-9.42113 -3e-5,-5.29e-4 -5.3e-4,-7.94e-4 -5.3e-4,-0.0016 v -3.136242 h -2.45153 v 3.136242 c -2e-5,5.29e-4 -5.3e-4,7.93e-4 -5.3e-4,0.0016 -0.24461,5.297088 -4.91538,7.694311 -7.04545,9.150088 m 0,0 c 1.53125,-7.707236 5.2836,-15.060715 11.25706,-21.034175 16.06506,-16.0650576 42.11167,-16.0650581 58.17673,-1e-6 3.63353,3.633529 6.44524,7.77767 8.43513,12.201445" />
    </g>
    <text
       xml:space="preserve"
       style="font-size:2.86695px;line-height:1.25;font-family:sans-serif;letter-spacing:0px;word-spacing:0px;fill:#0000ff;fill-opacity:1;stroke-width:2.15027;stroke-miterlimit:4;stroke-dasharray:none"
       x="-69.186272"
       y="24.871424"
       id="text37531-6"><tspan
         sodipodi:role="line"
         id="tspan37529-6"
         style="fill:#0000ff;fill-opacity:1;stroke-width:2.15027;stroke-miterlimit:4;stroke-dasharray:none"
         x="-69.186272"
         y="24.871424">=pass1:800mm/min:60%:#0000ff=</tspan></text>
    <text
       xml:space="preserve"
       style="font-size:2.86695px;line-height:1.25;font-family:sans-serif;letter-spacing:0px;word-spacing:0px;fill:#ff0000;fill-opacity:1;stroke-width:2.15021"
       x="-70.287689"
       y="35.11121"
       id="text37531-6-9"><tspan
         sodipodi:role="line"
         id="tspan37529-6-2"
         style="fill:#ff0000;fill-opacity:1;stroke-width:2.15021"
         x="-70.287689"
         y="35.11121">=pass2:800mm/min:60%:#ff0000=</tspan></text>
  </g>
  <inkscape:templateinfo>
    <inkscape:name>Lasersaur</inkscape:name>
    <inkscape:author>Arthur</inkscape:author>
    <inkscape:shortdesc>Default size of the Lasersaur</inkscape:shortdesc>
    <inkscape:date>2021-10-20</inkscape:date>
  </inkscape:templateinfo>
</svg>
