<?xml version="1.0" encoding="UTF-8" standalone="no"?>
<!-- Created with Inkscape (http://www.inkscape.org/) -->

<svg
   width="1220mm"
   height="600mm"
   viewBox="0 0 1220 600.00001"
   version="1.1"
   id="svg5"
   inkscape:version="1.1.1 (3bf5ae0d25, 2021-09-20)"
   sodipodi:docname="01_ice_skating.svg"
   xmlns:inkscape="http://www.inkscape.org/namespaces/inkscape"
   xmlns:sodipodi="http://sodipodi.sourceforge.net/DTD/sodipodi-0.dtd"
   xmlns="http://www.w3.org/2000/svg"
   xmlns:svg="http://www.w3.org/2000/svg"
   xmlns:rdf="http://www.w3.org/1999/02/22-rdf-syntax-ns#"
   xmlns:cc="http://creativecommons.org/ns#"
   xmlns:dc="http://purl.org/dc/elements/1.1/">
  <metadata
     id="metadata3849">
    <rdf:RDF>
      <cc:Work
         rdf:about="">
        <dc:format>image/svg+xml</dc:format>
        <dc:type
           rdf:resource="http://purl.org/dc/dcmitype/StillImage" />
      </cc:Work>
    </rdf:RDF>
  </metadata>
  <sodipodi:namedview
     id="namedview7"
     pagecolor="#ffffff"
     bordercolor="#666666"
     borderopacity="1.0"
     inkscape:pageshadow="2"
     inkscape:pageopacity="0.0"
     inkscape:pagecheckerboard="true"
     inkscape:document-units="mm"
     showgrid="false"
     inkscape:zoom="0.7728909"
     inkscape:cx="38.168388"
     inkscape:cy="449.61067"
     inkscape:window-width="1920"
     inkscape:window-height="1017"
     inkscape:window-x="-8"
     inkscape:window-y="-8"
     inkscape:window-maximized="1"
     inkscape:current-layer="layer1"
     inkscape:snap-global="true"
     inkscape:object-paths="true"
     inkscape:snap-page="true" />
  <defs
     id="defs2" />
  <g
     inkscape:label="Layer 1"
     inkscape:groupmode="layer"
     id="layer1">
    <g
       id="g73301"
       transform="matrix(0.71671426,-0.71671426,0.71671426,0.71671426,-20.937762,44.999999)">
      <path
         style="fill:none;fill-opacity:1;stroke:#ff0000;stroke-width:0.2;stroke-miterlimit:4;stroke-dasharray:none;stroke-opacity:1"
         d="M 77.322404,14.677299 A 44.296748,44.296748 0 0 0 50.297227,1.9439418 a 7.4017201,7.4017201 0 0 0 0.229476,-0.2075513 7.4017201,7.4017201 0 0 0 0,-10.467465 7.4017201,7.4017201 0 0 0 -10.467465,2e-7 7.4017201,7.4017201 0 0 0 0,10.4674648 7.4017201,7.4017201 0 0 0 0.397929,0.3686962 44.296748,44.296748 0 0 0 -25.779503,12.5722123 44.296748,44.296748 0 0 0 -3.67e-4,62.645107 44.296748,44.296748 0 0 0 62.645474,0 44.296748,44.296748 0 0 0 -3.67e-4,-62.645107 z"
         id="path4941" />
      <path
         style="fill:none;fill-opacity:1;stroke:#0000ff;stroke-width:0.20439;stroke-miterlimit:4;stroke-dasharray:none;stroke-opacity:1"
         d="m 48.756198,-0.03421764 a 4.8978052,4.8978052 0 0 1 -6.926542,0 4.8978052,4.8978052 0 0 1 0,-6.92654236 4.8978052,4.8978052 0 0 1 6.926542,0 4.8978052,4.8978052 0 0 1 0,6.92654236 z"
         id="path4950" />
      <path
         id="path66512"
         style="font-variation-settings:normal;opacity:1;vector-effect:none;fill:none;fill-opacity:1;stroke:#0000ff;stroke-width:0.852918;stroke-linecap:butt;stroke-linejoin:miter;stroke-miterlimit:4;stroke-dasharray:none;stroke-dashoffset:0;stroke-opacity:1;-inkscape-stroke:none;stop-color:#000000;stop-opacity:1"
         transform="scale(0.26458333)"
         d="m 286.18555,281.34961 h -31.48633 c 11.53241,-1.55197 14.54527,-3.69842 6.86523,-4.89063 -3.39423,-0.5269 -4.58508,-1.5337 -5.38672,-4.54492 -0.56612,-2.12655 -2.00891,-4.94953 -3.20703,-6.27344 -2.02292,-2.2353 -1.91631,-2.6128 1.50586,-5.30468 2.73739,-2.15324 3.29291,-3.29109 2.15821,-4.42578 -1.13471,-1.13471 -2.0205,-1.12035 -3.44336,0.0605 -2.28329,1.89496 -6.31836,0.65941 -6.31836,-1.93554 0,-1.01052 -1.16884,-2.46383 -2.59766,-3.22852 -1.42883,-0.76468 -3.29855,-3.5106 -4.1543,-6.10352 -0.85969,-2.60492 -4.32055,-7.14933 -7.73437,-10.15429 l -6.17774,-5.4375 3.67383,-5.55078 c 2.02025,-3.05281 4.51876,-7.9483 5.55274,-10.87891 1.03398,-2.9306 2.81312,-6.65952 3.95312,-8.28711 2.64874,-3.78159 2.65214,-10.84355 0.008,-15.95703 -2.53588,-4.90387 -16.73627,-12.37612 -29.70898,-15.63477 -8.50261,-2.13578 -9.70259,-2.12913 -20.76172,0.1211 -6.45581,1.3136 -13.06572,3.21124 -14.68945,4.21875 -2.72153,1.68867 -3.17425,1.47482 -5.7793,-2.74024 -2.66731,-4.3158 -6.43054,-6.49318 -10.3125,-6.3789 l -1.9e-4,4e-5 c -2.65607,0.0782 -5.36627,1.22958 -7.82031,3.5039 -3.95863,3.66873 -4.75399,9.94472 -1.98633,15.69336 2.3113,4.80076 13.10778,12.59179 15.12695,10.91602 2.25198,-1.86898 16.55504,2.98047 16.06055,5.44531 -0.55337,2.75836 -13.75783,14.43553 -19.92773,17.62305 -11.07099,5.71952 -13.11638,9.76782 -5.14454,10.18359 3.76835,0.19654 5.84109,-0.58718 8.45118,-3.19726 1.90179,-1.90179 7.62408,-5.55644 12.71679,-8.1211 9.73524,-4.90259 18.48047,-12.45469 18.48047,-15.95898 0,-1.61008 1.64999,-2.07422 7.36328,-2.07422 4.04925,0 7.6959,0.53968 8.10352,1.19922 0.4076,0.65954 -3.13872,5.11528 -7.87891,9.90234 -12.14316,12.26325 -13.37207,19.76588 -4.16992,25.45313 5.54369,3.42619 28.84354,13.50976 31.2168,13.50976 2.4555,0 3.01857,2.56866 2.19922,10.03711 -0.63713,5.80747 -0.44362,6.54676 1.51562,5.79492 3.32227,-1.27487 2.88736,3.41313 -0.51367,5.53711 -3.17349,1.98189 -2.36738,4.33985 1.48438,4.33985 1.4445,0 2.62695,0.60929 2.62695,1.35351 0,0.74422 -1.55844,1.35352 -3.46289,1.35352 -1.48628,0 -2.49633,0.33621 -2.69532,0.83203 H 61.646483 m 0,0 C 2.2226042,220.41946 3.7363757,124.09965 63.918104,63.917923 124.63645,3.1995795 223.08033,3.1995777 283.79868,63.917919 343.97017,124.0894 345.58473,220.41561 286.18555,281.34961" />
      <path
         style="fill:#918a6f;stroke:#918a6f;stroke-width:0.0186177;stroke-opacity:1"
         d="m 14.526762,33.959167 v 0.0052 h -5.29e-4 z"
         id="path38013" />
    </g>
    <g
       id="g73307"
       transform="matrix(0.71671425,-0.71671425,0.71671425,0.71671425,-11.311172,121.94092)">
      <path
         style="fill:none;fill-opacity:1;stroke:#ff0000;stroke-width:0.2;stroke-miterlimit:4;stroke-dasharray:none;stroke-opacity:1"
         d="m 187.76693,17.76953 a 44.296748,44.296748 0 0 0 -27.02517,-12.7333567 7.4017201,7.4017201 0 0 0 0.22947,-0.2075513 7.4017201,7.4017201 0 0 0 0,-10.467465 7.4017201,7.4017201 0 0 0 -10.46746,2e-7 7.4017201,7.4017201 0 0 0 0,10.4674648 7.4017201,7.4017201 0 0 0 0.39793,0.3686962 44.296748,44.296748 0 0 0 -25.77951,12.5722128 44.296748,44.296748 0 0 0 -3.6e-4,62.645106 44.296748,44.296748 0 0 0 62.64547,0 44.296748,44.296748 0 0 0 -3.7e-4,-62.645107 z"
         id="path4941-4" />
      <path
         style="fill:none;fill-opacity:1;stroke:#0000ff;stroke-width:0.20439;stroke-miterlimit:4;stroke-dasharray:none;stroke-opacity:1"
         d="m 159.20073,3.0580139 a 4.8978052,4.8978052 0 0 1 -6.92654,0 4.8978052,4.8978052 0 0 1 0,-6.9265424 4.8978052,4.8978052 0 0 1 6.92654,0 4.8978052,4.8978052 0 0 1 0,6.9265424 z"
         id="path4950-3" />
      <path
         id="path38011-4"
         style="font-variation-settings:normal;opacity:1;vector-effect:none;fill:none;fill-opacity:1;stroke:#0000ff;stroke-width:0.225668;stroke-linecap:butt;stroke-linejoin:miter;stroke-miterlimit:4;stroke-dasharray:none;stroke-dashoffset:0;stroke-opacity:1;-inkscape-stroke:none;stop-color:#000000;stop-opacity:1"
         d="m 193.82107,31.882258 -0.011,2.398278 h -2.7559 v 3.186369 h -2.75591 v 3.186369 h -2.18488 v -6.163966 h -2.91094 l -8.75347,-11.181745 v -3.72432 h -2.9099 v 0 3.72432 h -5.3e-4 l -8.75967,11.173477 -2.90422,0.0083 v 6.248198 h -2.70111 v -3.185866 h -2.75642 v -3.186885 h -2.75539 v -3.186885 h -2.75487 v -3.18792 h -2.7497 v 3.18792 h -2.75487 v 3.186885 h -2.75539 v 3.186885 h -2.75642 v 3.185853 h -2.7559 v 0.57154 h -2.16266 c -1.83314,-1.435571 -7.11024,-3.693091 -7.37474,-9.42113 -3e-5,-5.29e-4 -5.3e-4,-7.94e-4 -5.3e-4,-0.0016 v -3.136242 h -2.45153 v 3.136242 c -2e-5,5.29e-4 -5.3e-4,7.93e-4 -5.3e-4,0.0016 -0.24461,5.297088 -4.91538,7.694311 -7.04545,9.150088 m 0,0 c 1.53125,-7.707236 5.2836,-15.060715 11.25706,-21.034175 16.06506,-16.0650576 42.11167,-16.0650581 58.17673,-1e-6 3.63353,3.633529 6.44524,7.77767 8.43513,12.201445" />
      <path
         style="fill:#918a6f;stroke:#918a6f;stroke-width:0.0186177;stroke-opacity:1"
         d="m 124.97129,37.051399 v 0.0052 h -5.3e-4 z"
         id="path38013-3" />
    </g>
    <g
       id="g73313"
       transform="matrix(0.71671424,-0.71671424,0.71671424,0.71671424,-6.1845151,208.30497)">
      <path
         style="fill:none;fill-opacity:1;stroke:#ff0000;stroke-width:0.2;stroke-miterlimit:4;stroke-dasharray:none;stroke-opacity:1"
         d="m 307.92458,17.427201 a 44.296748,44.296748 0 0 0 -27.02517,-12.7333572 7.4017201,7.4017201 0 0 0 0.22947,-0.2075513 7.4017201,7.4017201 0 0 0 0,-10.467465 7.4017201,7.4017201 0 0 0 -10.46746,2e-7 7.4017201,7.4017201 0 0 0 0,10.4674648 7.4017201,7.4017201 0 0 0 0.39793,0.3686962 44.296748,44.296748 0 0 0 -25.77951,12.5722123 44.296748,44.296748 0 0 0 -3.6e-4,62.645107 44.296748,44.296748 0 0 0 62.64547,0 44.296748,44.296748 0 0 0 -3.7e-4,-62.645107 z"
         id="path4941-3" />
      <path
         style="fill:none;fill-opacity:1;stroke:#0000ff;stroke-width:0.20439;stroke-miterlimit:4;stroke-dasharray:none;stroke-opacity:1"
         d="m 279.35838,2.7156844 a 4.8978052,4.8978052 0 0 1 -6.92654,0 4.8978052,4.8978052 0 0 1 0,-6.9265424 4.8978052,4.8978052 0 0 1 6.92654,0 4.8978052,4.8978052 0 0 1 0,6.9265424 z"
         id="path4950-8" />
      <path
         style="fill:none;fill-opacity:1;stroke:#0000ff;stroke-width:0.225668;stroke-miterlimit:4;stroke-dasharray:none;stroke-opacity:1"
         d="m 305.69058,77.838256 a 41.137166,41.137166 0 0 1 -58.17674,0 41.137166,41.137166 0 0 1 0,-58.176737 41.137166,41.137166 0 0 1 58.17674,-10e-7 41.137166,41.137166 0 0 1 0,58.176738 z"
         id="path4952-98" />
      <path
         style="fill:#918a6f;stroke:#918a6f;stroke-width:0.0186177;stroke-opacity:1"
         d="m 245.12894,36.709069 v 0.0052 h -5.3e-4 z"
         id="path38013-6" />
    </g>
    <path
       id="rect47016-7"
       style="fill:#635d4b;fill-opacity:1;stroke:#918a6f;stroke-width:0.2;stroke-miterlimit:4;stroke-dasharray:none;stroke-opacity:1"
       d="M 45.93394,112.36688 A 41.135585,41.138621 0 0 0 18.384742,124.38725 41.135585,41.138621 0 0 0 6.388002,151.63719 H 88.56381 A 41.135585,41.138621 0 0 0 76.559319,124.38725 41.135585,41.138621 0 0 0 45.93394,112.36688 Z" />
    <path
       style="fill:none;fill-opacity:1;stroke:#918a6f;stroke-width:0.20439;stroke-miterlimit:4;stroke-dasharray:none;stroke-opacity:1"
       d="m 50.228088,107.4408 a 4.8976171,4.8979786 0 0 1 -6.926276,0 4.8976171,4.8979786 0 0 1 0,-6.92679 4.8976171,4.8979786 0 0 1 6.926276,0 4.8976171,4.8979786 0 0 1 0,6.92679 z"
       id="path4950-9" />
    <path
       style="fill:none;fill-opacity:1;stroke:#918a6f;stroke-width:0.225668;stroke-miterlimit:4;stroke-dasharray:none;stroke-opacity:1"
       d="m 76.559281,182.56603 a 41.135586,41.138622 0 0 1 -58.174503,0 41.135586,41.138622 0 0 1 0,-58.17879 41.135586,41.138622 0 0 1 58.174503,0 41.135586,41.138622 0 0 1 0,58.17879 z"
       id="path4952-2" />
    <path
       id="path38011-9"
       style="fill:#000000;stroke:#918a6f;stroke-width:0.0186177;stroke-opacity:1"
       d="m 62.619619,123.70509 v 3.72445 h -5.29e-4 l -8.759338,11.17388 8.759854,0.004 v 0.005 H 50.955649 v 6.24842 H 48.25464 v -3.18598 h -2.756316 v -3.18699 h -2.75528 v -3.18701 h -2.754765 v -3.18803 h -2.749598 v 3.18803 h -2.754765 v 3.18701 h -2.755281 v 3.18699 H 28.97232 v 3.18596 h -2.755799 v 0.57156 h -2.162576 c -1.833069,-1.43562 -7.109962,-3.69322 -7.37446,-9.42146 -2.2e-5,-5.2e-4 -5.03e-4,-7.9e-4 -5.29e-4,-0.002 V 132.8726 H 14.22752 v 3.13635 c -2.1e-5,5.3e-4 -5.03e-4,8e-4 -5.29e-4,0.002 -0.249332,5.39985 -4.9501074,7.71477 -7.0241079,9.16514 a 41.135585,41.138621 0 0 0 10.6790659,36.84792 h 8.624983 v -0.0217 h 2.465388 v 0.001 h 2.756315 v 0.001 h 2.755281 v 0.002 h 2.754765 v 0.003 h 2.749598 v -0.003 h 2.754765 v -0.002 h 2.75528 v -0.001 h 2.756316 v -0.001 h 2.701023 v 0.0393 h 11.663956 v 0.007 h 2.909789 v -0.007 h 11.54097 a 41.135585,41.138621 0 0 0 7.819379,-45.65207 v 2.01338 h -2.755801 v 3.18648 h -2.755799 v 3.18649 h -2.184795 v -6.16418 h -2.91082 -8.753134 v -0.004 l 8.753134,0.004 -8.753134,-11.18215 v -3.72445 z" />
    <path
       style="fill:#918a6f;fill-opacity:1;stroke:#918a6f;stroke-width:0.35801;stroke-opacity:1"
       d="m 68.860292,181.91795 c 3.051166,-0.41063 3.848576,-0.9787 1.816644,-1.29415 -0.898022,-0.13942 -1.213313,-0.40531 -1.425405,-1.20206 -0.149781,-0.56267 -0.531684,-1.30963 -0.848673,-1.65993 -0.535213,-0.59145 -0.506761,-0.69164 0.398655,-1.40389 0.724239,-0.56973 0.871057,-0.87096 0.570846,-1.17119 -0.300212,-0.30023 -0.534501,-0.296 -0.910952,0.0165 -0.604096,0.5014 -1.671536,0.17412 -1.671536,-0.51248 0,-0.26738 -0.309297,-0.65169 -0.687325,-0.85401 -0.378029,-0.20233 -0.872566,-0.92921 -1.098973,-1.61527 -0.227452,-0.68925 -1.143066,-1.89126 -2.046271,-2.68636 l -1.634624,-1.43896 0.971823,-1.46863 c 0.534503,-0.80775 1.195646,-2.10306 1.46921,-2.87848 0.273563,-0.77542 0.744163,-1.7622 1.045778,-2.19285 0.700784,-1.00058 0.701718,-2.86887 0.0021,-4.22186 -0.670927,-1.29752 -4.427708,-3.27494 -7.859941,-4.13716 -2.249561,-0.56511 -2.567194,-0.56325 -5.493144,0.0321 -1.708035,0.34757 -3.457006,0.85005 -3.886602,1.11663 -0.720044,0.44681 -0.839508,0.39014 -1.528735,-0.72513 -1.188546,-1.92326 -3.19965,-2.24221 -4.797859,-0.76093 -1.047347,0.97072 -1.257355,2.63146 -0.525106,4.1525 0.611507,1.27025 3.467823,3.3316 4.002041,2.8882 0.595813,-0.49451 4.380026,0.78859 4.249197,1.44077 -0.146406,0.72984 -3.640033,3.81974 -5.272425,4.66313 -2.929086,1.51334 -3.470093,2.58444 -1.360956,2.69445 0.997003,0.052 1.545097,-0.15541 2.235657,-0.84602 0.503162,-0.50319 2.017257,-1.47011 3.364654,-2.1487 2.575683,-1.29719 4.889585,-3.29551 4.889585,-4.22272 0,-0.42602 0.436274,-0.54897 1.947858,-0.54897 1.071323,0 2.036097,0.14278 2.143941,0.31729 0.107841,0.17451 -0.830023,1.35362 -2.08415,2.62024 -3.212755,3.24477 -3.538002,5.23006 -1.10336,6.73486 1.466711,0.90655 7.631133,3.5745 8.259033,3.5745 0.649661,0 0.798568,0.67975 0.581789,2.65585 -0.168568,1.53662 -0.117535,1.73177 0.400829,1.53284 0.878983,-0.33733 0.763923,0.9033 -0.135899,1.46529 -0.839619,0.52439 -0.626053,1.14848 0.393017,1.14848 0.382177,0 0.694867,0.16111 0.694867,0.35802 0,0.19692 -0.412255,0.35802 -0.916122,0.35802 -0.519585,0 -0.820353,0.15497 -0.694865,0.35803 0.271593,0.43948 2.623294,0.38992 6.545391,-0.13794 z m -1.801925,-1.17324 c 0.246125,-0.0993 0.648872,-0.0993 0.894996,0 0.246123,0.0993 0.04475,0.18058 -0.447499,0.18058 -0.492245,0 -0.693619,-0.0813 -0.447497,-0.18058 z"
       id="path33081-3" />
    <path
       style="fill:#918a6f;stroke:#918a6f;stroke-width:0.0186177;stroke-opacity:1"
       d="m 15.999966,141.43539 v 0.005 h -5.29e-4 z"
       id="path38013-8" />
    <path
       id="path41285-94"
       style="fill:#918a6f;fill-opacity:1;stroke:#918a6f;stroke-width:0.264583px;stroke-linecap:butt;stroke-linejoin:miter;stroke-opacity:1"
       d="m 17.783768,181.91807 a 41.135585,41.138621 0 0 0 0.600974,0.64805 41.135585,41.138621 0 0 0 58.174577,0 41.135585,41.138621 0 0 0 0.631461,-0.64805 z" />
    <path
       style="fill:#918a6f;fill-opacity:1;stroke:#918a6f;stroke-width:0.129384;stroke-miterlimit:4;stroke-dasharray:none;stroke-opacity:1"
       d="M 43.193078,197.39809 C 31.284769,196.16708 20.48276,190.3114 13.067344,181.0672 8.281775,175.10141 5.2180894,168.20075 3.9047426,160.42932 3.441466,157.68798 3.268404,152.10812 3.5572025,149.22392 5.274967,132.06882 16.756126,117.46966 32.923589,111.88236 c 2.333458,-0.80642 5.145077,-1.5182 7.410445,-1.87602 l 1.889468,-0.29844 -0.748361,-0.83242 c -2.895187,-3.22038 -2.434753,-8.15122 0.997073,-10.677771 2.956118,-2.17633 6.930907,-1.833426 9.457771,0.815925 2.605602,2.731896 2.713238,6.790296 0.25788,9.723166 l -0.678977,0.81103 2.174948,0.30109 c 9.645671,1.33535 18.806982,6.02797 25.627186,13.12679 6.466163,6.73032 10.472354,15.03727 11.918421,24.71318 0.353721,2.36681 0.306603,9.58204 -0.0788,12.06754 -1.502196,9.68769 -5.764846,18.17157 -12.517174,24.91273 -7.321959,7.30985 -16.642813,11.68877 -27.114564,12.73836 -2.030895,0.20356 -6.312409,0.19871 -8.325824,-0.009 z m 9.927172,-2.97431 c 14.981204,-2.24708 27.139802,-11.75936 32.681453,-25.56834 2.02076,-5.03543 2.911636,-9.7363 2.908406,-15.34674 -0.0026,-4.44571 -0.437983,-7.67743 -1.55422,-11.53543 -3.739966,-12.92626 -13.826191,-23.45264 -26.490036,-27.64605 -4.059706,-1.3443 -7.457072,-1.94773 -11.824556,-2.10026 -9.500222,-0.33177 -18.558829,2.51813 -26.272779,8.26559 -3.703354,2.75927 -8.033106,7.57909 -10.515224,11.70538 -8.8969481,14.79038 -7.5862152,33.72419 3.270505,47.24314 1.781994,2.21897 4.884577,5.23696 7.073562,6.8807 6.641489,4.9872 13.677783,7.65019 22.25056,8.42104 1.490219,0.13399 6.780008,-0.0652 8.472329,-0.31903 z m -4.069413,-85.9474 c 1.093634,-0.53129 1.985243,-1.53898 2.442042,-2.75997 1.210406,-3.23533 -1.167736,-6.731866 -4.589768,-6.748233 -2.146633,-0.01027 -3.709385,0.930146 -4.639706,2.792023 -0.923802,1.84883 -0.650429,3.98823 0.706633,5.53005 1.54494,1.75527 3.945394,2.2235 6.080799,1.18613 z"
       id="path62632" />
    <text
       xml:space="preserve"
       style="font-size:2.86695px;line-height:1.25;font-family:sans-serif;letter-spacing:0px;word-spacing:0px;fill:#0000ff;fill-opacity:1;stroke-width:2.15027;stroke-miterlimit:4;stroke-dasharray:none"
       x="-69.186272"
       y="24.871424"
       id="text37531-6"><tspan
         sodipodi:role="line"
         id="tspan37529-6"
         style="fill:#0000ff;fill-opacity:1;stroke-width:2.15027;stroke-miterlimit:4;stroke-dasharray:none"
         x="-69.186272"
         y="24.871424">=pass1:800mm/min:60%:#0000ff=</tspan></text>
    <text
       xml:space="preserve"
       style="font-size:2.86695px;line-height:1.25;font-family:sans-serif;letter-spacing:0px;word-spacing:0px;fill:#ff0000;fill-opacity:1;stroke-width:2.15021"
       x="-70.287689"
       y="35.11121"
       id="text37531-6-9"><tspan
         sodipodi:role="line"
         id="tspan37529-6-2"
         style="fill:#ff0000;fill-opacity:1;stroke-width:2.15021"
         x="-70.287689"
         y="35.11121">=pass2:800mm/min:60%:#ff0000=</tspan></text>
  </g>
  <inkscape:templateinfo>
    <inkscape:name>Lasersaur</inkscape:name>
    <inkscape:author>Arthur</inkscape:author>
    <inkscape:shortdesc>Default size of the Lasersaur</inkscape:shortdesc>
    <inkscape:date>2021-10-20</inkscape:date>
  </inkscape:templateinfo>
</svg>
