<?xml version="1.0" encoding="UTF-8" standalone="no"?>
<!-- Created with Inkscape (http://www.inkscape.org/) -->

<svg
   width="1220mm"
   height="600mm"
   viewBox="0 0 1220 600.00001"
   version="1.1"
   id="svg5"
   inkscape:version="1.1.1 (3bf5ae0d25, 2021-09-20)"
   sodipodi:docname="plants.svg"
   xmlns:inkscape="http://www.inkscape.org/namespaces/inkscape"
   xmlns:sodipodi="http://sodipodi.sourceforge.net/DTD/sodipodi-0.dtd"
   xmlns="http://www.w3.org/2000/svg"
   xmlns:svg="http://www.w3.org/2000/svg">
  <sodipodi:namedview
     id="namedview7"
     pagecolor="#ffffff"
     bordercolor="#666666"
     borderopacity="1.0"
     inkscape:pageshadow="2"
     inkscape:pageopacity="0.0"
     inkscape:pagecheckerboard="true"
     inkscape:document-units="mm"
     showgrid="false"
     inkscape:snap-global="false"
     inkscape:zoom="0.23184317"
     inkscape:cx="297.61497"
     inkscape:cy="45.289235"
     inkscape:window-width="1920"
     inkscape:window-height="1017"
     inkscape:window-x="-8"
     inkscape:window-y="-8"
     inkscape:window-maximized="1"
     inkscape:current-layer="layer1" />
  <defs
     id="defs2">
    <inkscape:path-effect
       effect="fill_between_many"
       method="originald"
       linkedpaths="#path27292,0,1|#path27903,0,1|#path27901,0,1|#path27899,0,1|#path27897,0,1|#path27895,0,1|#path27893,0,1|#path27891,0,1|#path27889,0,1|#path27887,0,1|#path27885,0,1|#path27883,0,1|#path27881,0,1|#path27879,0,1|#path27877,0,1|#path27875,0,1|#path27873,0,1|#path27871,0,1|#path27869,0,1|#path27867,0,1|#path27865,0,1|#path27863,0,1|#path27861,0,1|#path27859,0,1|#path27857,0,1|#path27855,0,1|#path18064-1,0,1"
       id="path-effect28032" />
  </defs>
  <g
     inkscape:label="Layer 1"
     inkscape:groupmode="layer"
     id="layer1">
    <text
       xml:space="preserve"
       style="font-size:2.86695px;line-height:1.25;font-family:sans-serif;letter-spacing:0px;word-spacing:0px;fill:#0000ff;fill-opacity:1;stroke-width:2.15027;stroke-miterlimit:4;stroke-dasharray:none"
       x="-111.27961"
       y="42.414959"
       id="text37531-6"><tspan
         sodipodi:role="line"
         id="tspan37529-6"
         style="fill:#0000ff;fill-opacity:1;stroke-width:2.15027;stroke-miterlimit:4;stroke-dasharray:none"
         x="-111.27961"
         y="42.414959">=pass2:800mm/min:30%:#0000ff=</tspan></text>
    <text
       xml:space="preserve"
       style="font-size:2.86695px;line-height:1.25;font-family:sans-serif;letter-spacing:0px;word-spacing:0px;fill:#ff0000;fill-opacity:1;stroke-width:2.15021"
       x="-112.38103"
       y="52.654747"
       id="text37531-6-9"><tspan
         sodipodi:role="line"
         id="tspan37529-6-2"
         style="fill:#ff0000;fill-opacity:1;stroke-width:2.15021"
         x="-112.38103"
         y="52.654747">=pass3:800mm/min:30%:#ff0000=</tspan></text>
    <text
       xml:space="preserve"
       style="font-size:2.86695px;line-height:1.25;font-family:sans-serif;letter-spacing:0px;word-spacing:0px;fill:#00ff00;fill-opacity:1;stroke-width:2.15021"
       x="-112.27188"
       y="30.53137"
       id="text37531-6-2"><tspan
         sodipodi:role="line"
         id="tspan37529-6-1"
         style="fill:#00ff00;fill-opacity:1;stroke-width:2.15021"
         x="-112.27188"
         y="30.53137">=pass1:800mm/min:30%:#00ff00=</tspan></text>
    <path
       style="font-variation-settings:normal;vector-effect:none;fill:none;fill-opacity:1;stroke:#ff0000;stroke-width:0.641819;stroke-linecap:butt;stroke-linejoin:miter;stroke-miterlimit:4;stroke-dasharray:none;stroke-dashoffset:0;stroke-opacity:1;-inkscape-stroke:none;stop-color:#000000"
       d="M 89.67909,44.999999 C 89.67909,69.675576 69.67558,89.679082 45,89.679086 20.32442,89.679082 0.320913,69.675576 0.32091,44.999999 0.320912,20.324421 20.32442,0.32091337 45,0.3209095 69.67558,0.32091337 89.67909,20.324421 89.67909,44.999999 Z"
       id="path70179" />
    <path
       style="font-variation-settings:normal;vector-effect:none;fill:none;fill-opacity:1;stroke:#0000ff;stroke-width:0.641819;stroke-linecap:butt;stroke-linejoin:miter;stroke-miterlimit:4;stroke-dasharray:none;stroke-dashoffset:0;stroke-opacity:1;-inkscape-stroke:none;stop-color:#000000"
       d="m 79.57036,48.332407 c -0.78803,0.02685 -1.57046,0.07289 -2.19507,0.07507 -1.44024,0.005 -1.22873,-0.141349 -3.42988,0.06583 -2.20118,0.207155 -6.42802,1.394842 -9.69541,1.648624 -3.2674,0.253791 -6.42403,0.537801 -9.82803,-0.131604 -0.30132,-0.05926 -0.60185,-0.128393 -0.90219,-0.201518 0.99093,0.680174 1.91917,1.408505 2.72716,2.194062 2.61317,2.540656 4.5924,5.894513 5.80798,8.651831 1.21559,2.757318 1.65696,5.228579 1.8152,7.441712 0.15823,2.213143 -0.54441,5.626512 -0.54441,5.626512 l 0.45289,0.509959 c 8.94803,-5.754687 14.76699,-15.291134 15.79176,-25.88044 z"
       id="path70177" />
    <path
       style="font-variation-settings:normal;vector-effect:none;fill:none;fill-opacity:1;stroke:#0000ff;stroke-width:0.641819;stroke-linecap:butt;stroke-linejoin:miter;stroke-miterlimit:4;stroke-dasharray:none;stroke-dashoffset:0;stroke-opacity:1;-inkscape-stroke:none;stop-color:#000000"
       d="m 10.457785,49.070678 c 1.458935,17.765543 16.341631,30.673649 34.542285,30.679755 4.0161,-6.29e-4 7.98572,-0.697264 11.73689,-2.044003 L 55.4604,76.849012 c -2.1239,0.442889 -5.29621,9.94e-4 -8.4097,-0.302276 -3.1135,-0.30356 -7.1166,-0.59447 -10.22489,-1.633719 -3.1083,-1.039248 -5.56284,-2.412771 -8.22823,-4.356253 -2.6654,-1.943473 -5.56116,-4.967071 -7.50186,-7.32038 -1.94069,-2.353309 -3.12521,-4.42397 -4.29558,-6.534366 -1.17039,-2.110396 -1.889092,-4.435686 -2.78319,-6.050111 -0.726334,-1.311503 -1.125816,-1.374741 -1.846181,-2.135555 -0.360142,-0.638728 -1.667369,0.234255 -1.712984,0.554326 z"
       id="path70175"
       sodipodi:nodetypes="cccccssssscc" />
    <path
       style="font-variation-settings:normal;vector-effect:none;fill:none;fill-opacity:1;stroke:#00ff00;stroke-width:0.531211;stroke-linecap:butt;stroke-linejoin:miter;stroke-miterlimit:4;stroke-dasharray:none;stroke-dashoffset:0;stroke-opacity:1;-inkscape-stroke:none;stop-color:#000000"
       d="m 32.497646,46.193749 -0.72628,0.724165 -0.728849,2.179719 -2.387367,-1.684036 -1.735533,-0.180402 3.293641,2.269495 2.655415,2.761787 1.59342,3.080469 c 0,0 -4.745758,-1.796031 -5.912888,-2.832417 -1.16713,-1.036387 -1.469095,-2.229991 -1.504491,-2.37162 -0.03539,-0.14163 -1.611716,-2.125263 -1.611716,-2.125263 L 23.697474,47.60208 c 0,0 3.165401,3.665556 3.208957,4.052687 -0.03162,0.111722 -6.961565,-3.17867 -7.173999,-3.214075 -0.212473,-0.03539 -1.722771,-0.13275 -1.722771,-0.13275 l 5.969046,3.151099 2.6235,1.282397 -3.860783,0.82713 -1.482808,-2.022298 0.159562,1.695108 1.146669,1.076885 1.806156,-0.176994 c 9e-6,0 2.169352,-0.85675 3.363841,-0.708002 1.19447,0.148757 3.399143,1.664046 3.399143,1.664046 l 3.753163,1.558111 -1.94743,0.353996 -3.293199,0.46037 -2.867737,-0.07102 c 0,0 -3.227977,-2.067315 -3.440421,-2.102713 -0.212454,-0.03539 0.39527,1.748717 0.39527,1.748717 l 2.018054,0.991369 -0.656098,2.468626 0.868834,-0.981155 1.168363,-1.16879 2.372479,-0.07061 3.399152,-0.212309 2.797095,-0.602057 1.310051,0.708002 -0.779049,0.99136 c 0,0 -1.062108,0.354087 -1.345364,0.31869 -0.283265,-0.03539 -1.446206,0.870527 -1.446206,0.870527 l 2.968561,-0.303794 c 0,0 0.742354,-1.135871 1.93721,-1.161556 1.194856,-0.02567 4.317341,2.342692 4.317341,2.342692 l -1.064122,0.403771 -3.980788,0.751398 -3.530621,-0.826282 -2.879218,-0.750962 -2.628611,0.72586 -2.103143,1.72745 4.881941,-1.376853 1.852969,0.876067 -2.904328,1.878058 -0.475682,1.502369 3.229803,-1.702769 1.577261,-1.301968 5.358056,0.100415 c 0,0 2.532746,-1.384162 4.281596,-1.101987 1.748859,0.282164 5.220216,3.35958 5.220216,3.35958 l -4.223311,1.555978 c 0,0 -4.409676,0.410734 -4.735161,0.460797 -0.325484,0.05012 -5.450683,-0.593975 -5.726099,-0.593975 -0.275387,0 -1.916354,1.197299 -1.916354,1.197299 l 4.99598,0.329751 2.603924,0.100414 2.578834,0.0749 3.580408,-0.550578 c 0,0 3.008625,-1.623242 4.117357,-1.53598 1.10875,0.08728 1.984013,1.120719 1.984013,1.120719 l 1.484916,1.116028 c 0,0 -2.879463,0.851385 -2.97962,0.851385 -0.100147,0 -2.41452,0.757151 -2.714979,0.832241 -0.300451,0.07514 -2.405947,0.582773 -3.143454,0.795213 -0.09623,0.02774 -1.78275,1.076467 -1.78275,1.076467 l 2.809009,-0.225082 2.929419,-0.726289 3.38001,-0.750969 c 0,0 1.719279,-0.955889 2.630315,-0.724164 0.911035,0.231722 3.531072,2.197596 3.531072,2.197596 l 0.05703,-1.016898 c 0,0 -1.287774,-0.689911 -1.553007,-1.50534 -0.265223,-0.815427 0.282945,-3.328528 0.282945,-3.328528 L 57.371635,63.06406 c 0,0 -1.062353,-4.567564 -1.097749,-4.709201 -0.03539,-0.141655 -0.531425,1.487051 -0.531425,1.487051 l 0.566727,2.018472 0.495691,3.894834 -0.371855,3.009847 c 0,0 -1.21541,-0.746904 -1.735119,-1.540243 -0.519699,-0.793338 -1.044555,-3.204707 -1.044555,-3.204707 l -0.105935,-2.726473 0.07059,-2.69073 c 0,0 -0.141407,-1.34566 -0.247624,-1.558101 -0.106236,-0.212458 -0.672682,-2.336734 -0.672682,-2.336734 l -0.63736,-0.07102 0.353992,1.274736 0.424624,2.372475 -0.07059,2.089101 -0.03529,3.540838 0.743314,2.443105 c 0,0 -1.79841,-0.882016 -2.354597,-1.664046 -0.556168,-0.782039 -0.796499,-2.762216 -0.796499,-2.762216 L 49.546245,57.57584 c 0,0 -1.805883,-3.824165 -1.91211,-4.001208 -0.106236,-0.177034 -1.593411,-3.399149 -1.593411,-3.399149 l -0.212321,2.160158 1.380684,2.797093 0.95605,2.266104 1.062418,3.717839 0.425048,2.797523 c 0,0 -3.882109,-1.769769 -4.850893,-2.93921 -0.968765,-1.169423 -1.204098,-3.222156 -1.204098,-3.222156 l -1.558108,-3.68209 1.133051,-3.116211 -0.247624,-2.089101 -1.451741,4.426253 -2.584772,-2.372466 -0.17701,-3.753148 -1.027097,-0.212738 -0.105954,2.655835 c 0,0 -2.372413,-2.124465 -2.54948,-2.266094 -0.177038,-0.141638 -0.991352,0.884987 -0.991352,0.884987 l 3.292775,2.549469 4.107588,4.496891 1.480238,4.596451 c 0,0 -5.373594,-2.258771 -6.508555,-3.498718 -1.134952,-1.239938 -1.061995,-2.47884 -1.061995,-2.47884 0,0 -3.540757,-4.169313 -3.576153,-4.310952 -0.03539,-0.141629 0.726289,-3.388508 0.726289,-3.388508 z"
       id="path70173" />
    <path
       style="font-variation-settings:normal;vector-effect:none;fill:none;fill-opacity:1;stroke:#0000ff;stroke-width:0.641819;stroke-linecap:butt;stroke-linejoin:miter;stroke-miterlimit:4;stroke-dasharray:none;stroke-dashoffset:0;stroke-opacity:1;-inkscape-stroke:none;stop-color:#000000"
       d="m 25.85449,16.017345 c -9.22275,6.098609 -14.99285,16.22215 -15.5404,27.265349 0.37076,0.123788 0.73109,0.231289 1.04048,0.290444 1.50353,0.28751 3.45874,0.06563 4.77984,0.06066 1.3211,-0.004 1.12703,0.129366 3.14613,-0.06066 2.01909,-0.190013 5.89632,-1.279596 8.89344,-1.512396 2.99714,-0.232791 5.89234,-0.493224 9.01476,0.120805 0.0782,0.01541 0.15632,0.03341 0.23442,0.04992 -1.38173,-0.891108 -2.68114,-1.860771 -3.7774,-2.926609 -2.84882,-2.769778 -5.00713,-6.425712 -6.33234,-9.43168 -1.32522,-3.005979 -1.80615,-5.699857 -1.97867,-8.112569 -0.14527,-2.031791 0.35177,-4.859163 0.51974,-5.743211 z"
       id="path70171" />
    <path
       style="font-variation-settings:normal;vector-effect:none;fill:none;fill-opacity:1;stroke:#00ff00;stroke-width:0.530778;stroke-linecap:butt;stroke-linejoin:miter;stroke-miterlimit:4;stroke-dasharray:none;stroke-dashoffset:0;stroke-opacity:1;-inkscape-stroke:none;stop-color:#000000"
       d="m 47.399996,17.224546 -3.060103,0.245301 -3.191034,0.790751 -3.681653,0.81838 c 0,0 -1.872579,1.041455 -2.86497,0.789041 -0.992381,-0.252414 -2.802223,-1.852399 -2.802223,-1.852399 l -1.106476,0.565949 c 0,0 1.403116,0.751493 1.69202,1.639738 0.288903,0.888229 -0.308643,3.625521 -0.308643,3.625521 l 0.346911,3.471631 c 0,0 1.157305,4.975363 1.195895,5.129649 0.03849,0.15431 0.578601,-1.619756 0.578601,-1.619756 l -0.617285,-2.198782 -0.539917,-4.242399 0.405146,-3.278613 c 0,0 1.323601,0.813817 1.889716,1.677993 0.566107,0.864177 1.137642,3.490339 1.137642,3.490339 l 0.116072,2.969976 -0.07737,2.93128 c 0,0 0.154246,1.465717 0.269958,1.697137 0.115723,0.231427 0.732922,2.545689 0.732922,2.545689 l 0.694257,0.07697 -0.385605,-1.388476 -0.462973,-2.584379 0.07737,-2.275308 0.03821,-3.857229 -0.809874,-2.661333 c 0,0 1.958989,0.960915 2.564829,1.812773 0.605832,0.851867 0.868119,3.00866 0.868119,3.00866 l 0.848143,4.744051 c 0,-8e-6 1.967435,4.165601 2.083138,4.358454 0.115713,0.192843 1.735405,3.702474 1.735405,3.702474 L 44.997906,39.00495 43.493368,35.958027 42.45222,33.489284 41.295009,29.439475 40.832045,26.392552 c 0,0 4.229127,1.927389 5.284397,3.201249 1.055288,1.273836 1.311097,3.509893 1.311097,3.509893 l 1.697136,4.011547 -1.234163,3.39383 0.269968,2.275727 1.58148,-4.821416 2.815664,2.58438 0.19258,4.088483 1.118517,0.231271 0.115646,-2.892587 c 0,0 2.584096,2.314031 2.776951,2.468307 0.192854,0.154285 1.080258,-0.964203 1.080258,-0.964203 l -3.58726,-2.776954 -4.474087,-4.898378 -1.612533,-5.006776 c 0,0 5.853199,2.460224 7.089509,3.810881 1.236226,1.350657 1.157221,2.700016 1.157221,2.700016 0,0 3.856896,4.541718 3.895486,4.696012 0.0385,0.154259 -0.791175,3.691413 -0.791175,3.691413 l 0.791175,-0.789041 0.794136,-2.374364 2.6001,1.834442 1.890587,0.196412 -3.587705,-2.47214 -2.892587,-3.008651 -1.735812,-3.355576 c 0,0 5.169829,1.95668 6.441173,3.085613 1.271334,1.128917 1.600293,2.429248 1.638883,2.583533 0.03859,0.154277 1.755352,2.314829 1.755352,2.314829 l 1.890587,0.450643 c 0,0 -3.448053,-3.992871 -3.495439,-4.414569 0.03443,-0.121696 7.582928,3.4628 7.814363,3.501383 0.05675,0.0095 0.278613,0.02023 0.46041,0.03528 0.01003,-0.208649 0.01778,-0.417401 0.02336,-0.626219 l -5.108813,-2.69703 -2.858169,-1.396988 4.205832,-0.901279 1.615076,2.203041 -0.173881,-1.846349 -1.249032,-1.172943 -1.967085,0.192589 c 0,-8e-6 -2.363066,0.933638 -3.664222,0.771614 -1.301128,-0.162039 -3.702907,-1.812764 -3.702907,-1.812764 l -4.088482,-1.697129 2.121407,-0.385597 3.587279,-0.501653 3.123851,0.07697 c 0,0 3.516134,2.252028 3.74754,2.290611 0.231435,0.03857 -0.430219,-1.904585 -0.430219,-1.904585 l -2.198785,-1.080268 0.715074,-2.688963 -0.946348,1.069207 -1.272838,1.272849 -2.583954,0.07697 -3.702926,0.23169 -3.046908,0.65556 -1.427179,-0.771614 0.848578,-1.079841 c 0,0 1.15688,-0.38549 1.465428,-0.346907 0.308567,0.03857 1.575531,-0.948473 1.575531,-0.948473 l -3.233974,0.331184 c 0,0 -0.80839,1.237218 -2.109943,1.265194 -1.301526,0.02796 -4.702808,-2.552071 -4.702808,-2.552071 l 1.159349,-0.440011 4.336337,-0.817954 3.845319,0.900006 3.136649,0.817953 2.863683,-0.790751 2.290597,-1.881634 -5.317974,1.499869 -2.01851,-0.954419 3.163813,-2.045739 0.518238,-1.636334 -3.518404,1.854424 -1.717964,1.418245 -5.836628,-0.108835 c 0,0 -2.758696,1.507089 -4.663697,1.199718 -1.905011,-0.307361 -5.686582,-3.659112 -5.686582,-3.659112 l 4.600365,-1.694999 c 0,0 4.803585,-0.447618 5.158138,-0.502081 0.354544,-0.05453 5.937529,0.647049 6.237536,0.647049 0.299988,0 2.087395,-1.304303 2.087395,-1.304303 l -5.442114,-0.359234 -2.836481,-0.109263 -2.808843,-0.08165 -3.900169,0.599855 c 0,0 -3.276981,1.768384 -4.484718,1.673322 -1.207756,-0.09506 -2.161377,-1.220976 -2.161377,-1.220976 L 35.83077,21.097116 c 0,0 3.136365,-0.927216 3.245457,-0.927216 0.109101,0 2.630357,-0.825033 2.95766,-0.906806 0.327257,-0.08182 2.620653,-0.634574 3.424011,-0.865994 0.104835,-0.03018 1.942002,-1.172517 1.942002,-1.172517 z"
       id="path70169" />
    <path
       style="font-variation-settings:normal;vector-effect:none;fill:none;fill-opacity:1;stroke:#0000ff;stroke-width:0.641819;stroke-linecap:butt;stroke-linejoin:miter;stroke-miterlimit:4;stroke-dasharray:none;stroke-dashoffset:0;stroke-opacity:1;-inkscape-stroke:none;stop-color:#000000"
       d="m 45.00007,10.249454 c -5.90519,0.0058 -5.94352,-0.9697438 -11.10286,1.902983 1.70545,0.285224 -1.08488,0.420763 0.60603,0.04433 2.31543,-0.482833 5.77368,-9.95e-4 9.16795,0.329522 3.39426,0.330943 7.75803,0.647777 11.14662,1.780734 3.38859,1.132977 6.0643,2.630259 8.97006,4.748998 2.90572,2.118748 6.06315,5.415449 8.17887,7.980974 2.1157,2.565506 3.40727,4.822779 4.68318,7.123496 1.14868,2.071228 1.90308,4.302638 2.75236,6.017208 C 76.99825,23.020908 62.32447,10.255438 45.00007,10.249456 Z"
       id="circle59969"
       sodipodi:nodetypes="scccsssscss" />
    <g
       id="g72994"
       transform="translate(-91.000001)"
       style="display:none">
      <path
         style="fill:none;stroke:#00ff00;stroke-width:0.645458;stop-color:#000000"
         d="m 220.64243,66.946161 c -0.36894,-0.0682 -0.50651,0.21866 -0.79185,0.58785 -0.28534,0.36921 -0.54104,0.57555 -0.67879,1.68148 -0.13775,1.10592 0.6266,4.5162 0.65907,4.82876 0.0324,0.3126 0.65375,4.16581 0.62688,4.51612 -0.0129,0.16881 0.29872,0.53895 0.62206,0.87715 a 34.983395,34.983395 0 0 0 1.16363,0.1879 c -0.13343,-0.23808 -0.23235,-0.54604 -0.38466,-0.95761 -0.31484,-0.85066 -0.31538,-2.35057 -0.373,-3.59473 -0.0577,-1.24413 0.0733,-2.68125 0.0419,-3.85864 -0.0314,-1.17739 0.0258,-2.4926 -0.20561,-3.20121 -0.23138,-0.70863 -0.31065,-0.99894 -0.67959,-1.06707 z"
         id="path70259" />
      <path
         style="fill:none;stroke:#00ff00;stroke-width:0.645458;stop-color:#000000"
         d="m 211.57961,61.871181 c -0.22633,-0.0435 -0.43156,0.19935 -0.77978,0.34642 -0.55714,0.23531 -1.14238,1.09552 -1.4811,1.85971 -0.33873,0.7642 -0.27516,1.49889 -0.42489,2.60331 -0.14972,1.10442 -0.3062,3.44392 -0.43536,4.02603 -0.12923,0.58208 -0.097,2.81364 -0.0418,3.85866 1.2e-4,0.002 6.1e-4,0.005 8.2e-4,0.007 a 34.983395,34.983395 0 0 0 0.67959,0.42731 c 0.0837,-0.49496 0.15985,-0.97838 0.13842,-1.37246 -0.0626,-1.15098 -0.52665,-1.77721 -0.40518,-2.99118 0.12147,-1.21397 0.87616,-2.67988 1.41068,-4.06385 0.53451,-1.38397 2.30089,-3.39209 1.80419,-4.23125 -0.18625,-0.31471 -0.32974,-0.44387 -0.46553,-0.46995 z"
         id="path70257" />
      <path
         style="fill:none;stroke:#00ff00;stroke-width:0.645458;stop-color:#000000"
         d="m 216.94834,61.738381 c -0.16945,-0.024 -0.37905,0.0403 -0.68362,0.16498 -0.60913,0.24941 -1.18636,1.37078 -1.62675,2.28543 -0.44038,0.91462 -0.78066,2.82977 -0.90451,3.15854 -0.1239,0.32879 -0.13558,2.90449 -0.14928,4.3439 -0.0137,1.43939 -0.15952,2.96586 0.066,4.28959 0.0741,0.43483 0.23329,0.96069 0.40679,1.48272 a 34.983395,34.983395 0 0 0 1.57082,0.56652 c -0.008,-0.27524 -0.0154,-0.55962 -0.0535,-0.85864 -0.11892,-0.93306 -0.0275,-2.30595 -0.14646,-3.23903 -0.11891,-0.93308 -0.5012,-1.4026 -0.49652,-2.3494 0.005,-0.9468 0.39719,-1.95565 0.71057,-3.2016 0.31338,-1.24594 0.91028,-3.21647 1.20025,-4.26343 0.28998,-1.04698 0.83802,-1.56094 0.54923,-2.01585 -0.14426,-0.22751 -0.27356,-0.33973 -0.443,-0.36373 z"
         id="path70255" />
      <path
         style="fill:none;stroke:#00ff00;stroke-width:0.645458;stop-color:#000000"
         d="m 209.05197,57.550181 c -0.11037,0.0227 -0.25113,0.15886 -0.51704,0.19477 -0.53181,0.0718 -1.48504,0.73018 -1.91806,1.30484 -0.43302,0.57467 -0.27074,0.96308 -0.62447,1.89714 -0.35373,0.93407 -0.99097,2.63044 -1.57807,3.67077 -0.58711,1.04035 -1.16309,2.49049 -1.21674,3.19113 -0.0464,0.60552 -0.23088,2.03435 -0.2885,2.48701 a 34.983395,34.983395 0 0 0 0.58343,0.54883 c 0.11994,-0.52827 0.27661,-1.19207 0.43817,-1.75351 0.2711,-0.94206 0.56215,-1.94022 1.06063,-3.17463 0.49849,-1.23441 1.26178,-2.87322 1.99813,-4.1882 0.73636,-1.31498 2.68615,-2.85733 2.39728,-3.69248 -0.14442,-0.41758 -0.2244,-0.50835 -0.33476,-0.48567 z"
         id="path70253" />
      <path
         style="fill:none;stroke:#00ff00;stroke-width:0.645458;stop-color:#000000"
         d="m 224.05286,54.766641 c -0.48513,-0.0259 -0.88224,0.0259 -1.11295,0.21969 -0.61523,0.51684 -0.41812,0.51855 -0.097,0.89446 0.32115,0.37594 1.23534,0.0115 2.06414,0.10181 0.82875,0.0902 1.34469,0.10776 2.89419,0.48966 0.98122,0.24186 2.63599,0.65948 4.10732,1.15157 -0.15346,-0.32335 -0.28848,-0.64207 -0.37542,-0.94072 -1.47439,-0.61957 -3.27812,-1.17712 -4.68068,-1.43927 -0.93765,-0.17523 -1.99108,-0.43402 -2.79963,-0.4772 z"
         id="path70251" />
      <path
         style="fill:none;stroke:#0000ff;stroke-width:0.645458;stop-color:#000000"
         d="m 247.09134,52.639761 c -0.11417,-0.0237 -0.22084,-0.0214 -0.31788,0.0132 -0.77618,0.27729 -0.40829,0.51297 -0.30256,1.01314 0.1057,0.50017 0.72554,1.12428 1.30526,1.52818 0.57971,0.40392 1.19947,0.46958 2.09188,0.77132 0.89243,0.30176 2.80853,0.80719 3.27082,1.00792 0.46228,0.20076 2.31946,0.53289 3.19556,0.65505 0.87607,0.12221 2.03997,0.15329 2.03997,0.15329 0,0 -0.87936,0.10952 -1.48029,0.45629 -0.60095,0.3468 -1.26747,1.25767 -1.91685,1.77764 -0.64937,0.51995 -1.95831,1.34712 -1.95831,1.34712 0,0 -1.21006,-0.51527 -1.94824,-0.89165 -0.73817,-0.37638 -1.51983,-0.77849 -2.46406,-1.39057 -0.94424,-0.61205 -2.18125,-1.50885 -3.15413,-2.33129 -0.97288,-0.82241 -1.93944,-2.68783 -2.67893,-2.58235 -0.73947,0.10548 -0.35236,0.20702 -0.37821,0.65987 -0.0259,0.45285 0.36725,1.34967 0.77455,1.80137 0.40728,0.45172 0.7556,0.37957 1.47384,0.82324 0.71829,0.44368 2.02342,1.24514 2.7924,1.89955 0.76895,0.65443 1.87961,1.36539 2.4524,1.52256 0.57279,0.15712 2.33491,0.73912 2.33491,0.73912 0,0 -1.23616,0.47563 -1.80137,0.77455 -0.56523,0.29892 -1.0256,0.7347 -1.58209,1.00712 -0.55651,0.27241 -1.12269,0.54183 -1.73458,0.62044 -0.61191,0.0786 -1.22403,0.13566 -1.85248,-0.16336 -0.62848,-0.29901 -1.03584,-0.99693 -1.61349,-1.66215 -0.57759,-0.66527 -1.34821,-1.61186 -1.81948,-2.34699 -0.47127,-0.73512 -0.69761,-1.39516 -1.04935,-2.01222 -0.35176,-0.61706 -0.6156,-1.63574 -1.05057,-1.69233 -0.43497,-0.0566 -0.36739,0.13585 -0.46554,0.43858 -0.0982,0.30273 -0.0232,0.64034 0.23658,1.24772 0.25976,0.60739 1.13621,1.51827 1.56681,2.19126 0.4306,0.67301 0.49908,1.22312 1.0393,1.82473 0.54026,0.60161 2.08869,1.41102 2.2311,1.61025 0.14242,0.19922 0.58143,0.6643 0.58143,0.6643 0,0 -0.11716,0.31328 -0.37663,0.34 -0.25945,0.0267 -0.48381,-0.40841 -0.91254,-0.53354 -0.42875,-0.12505 -0.77342,0.0138 -1.62113,-0.0628 -0.84771,-0.0765 -2.72073,-0.18782 -3.44986,-0.49088 -0.72913,-0.30304 -0.61723,-0.58849 -1.00026,-0.75482 -0.16341,-0.071 -0.30986,-0.0784 -0.46635,-0.0829 -0.0661,0.56562 -0.18244,1.18482 -0.35971,1.67344 -0.39307,1.08338 -0.1714,2.60851 -0.1714,2.60851 l -0.96528,-1.38453 c 0,0 -2.721,-1.19504 -3.84297,-1.7181 -1.12199,-0.52306 -2.04151,-0.93094 -2.8946,-1.40585 -0.85306,-0.47493 -1.3856,-1.07074 -2.23191,-1.41108 -0.84631,-0.34031 -2.15006,-0.68076 -2.77548,-0.56492 -0.62545,0.11581 -0.75812,0.28002 -0.82969,0.52831 -0.0715,0.24828 -0.1913,0.14668 0.24264,0.51179 0.43392,0.36509 1.7278,0.46908 2.73245,0.75886 1.00457,0.28975 2.11479,0.54454 3.29334,0.98538 1.17852,0.44086 2.53488,0.9146 3.74599,1.69637 1.21107,0.78176 3.14719,1.8828 3.4072,2.99558 0.26,1.11277 -0.8941,1.73539 -0.88319,2.145 0.0109,0.40957 -1.07147,2.76504 -1.07147,2.76504 0,0 -0.16053,-0.67485 -0.42611,-1.06142 -0.26559,-0.3866 -0.62042,-0.62749 -1.22399,-1.13668 -0.60359,-0.5092 -1.64661,-1.25623 -2.43631,-1.86414 -0.78968,-0.60792 -1.68473,-1.52672 -2.30191,-1.78287 -0.61719,-0.25616 -0.86702,-0.34721 -1.08881,-0.14003 -0.22172,0.20723 -0.11796,0.44004 0.0435,0.72223 0.16145,0.28219 0.4285,0.28314 1.01878,0.68404 0.59026,0.40089 1.52864,0.93215 2.51759,1.72934 0.98892,0.7972 3.39242,2.14817 3.32592,3.12997 -0.0666,0.9818 -0.5963,0.12629 -1.08839,0.77658 -0.49208,0.65029 -1.23311,3.03466 -1.20065,3.34724 0.0325,0.31258 0.83047,1.30365 0.83047,1.30365 0,0 -0.92457,-0.30238 -1.51448,-0.28487 -0.58991,0.0175 -0.96452,0.24999 -1.9402,0.48567 -0.97566,0.23567 -2.90369,0.64605 -3.91781,0.91215 -0.32463,0.0852 -0.58818,0.20139 -0.83168,0.31666 a 34.983395,34.983395 0 0 0 2.7932,0.1179 34.983395,34.983395 0 0 0 33.64236,-25.46705 c -0.32418,0.55068 -0.5361,0.91077 -0.74116,1.25818 -0.4338,0.73501 -0.21984,1.39498 -1.03407,1.74868 -0.81423,0.35363 -2.2521,-0.57714 -3.2173,-0.71018 -0.96519,-0.13312 -1.55947,0.15148 -2.54735,-0.14446 -0.98788,-0.29591 -2.08311,-1.15787 -3.14566,-1.8239 -0.92977,-0.58276 -2.10429,-2.02481 -2.90346,-2.19046 z"
         id="path70249" />
      <path
         style="fill:none;stroke:#00ff00;stroke-width:0.645458;stop-color:#000000"
         d="m 226.92371,49.739121 v 0 c -1.72752,0.0319 -3.87247,0.15688 -4.21193,0.31062 -0.45263,0.20498 -1.51147,0.19938 -1.84282,0.50697 -0.33127,0.30764 -0.47306,0.41181 -0.26918,0.75484 0.20383,0.34307 0.78466,0.22676 1.57363,0.24746 0.789,0.0207 1.78922,-0.29894 3.12556,-0.32471 1.33632,-0.0257 3.12055,0.0599 4.86698,0.31666 0.86159,0.12667 2.16108,0.40233 3.29053,0.66831 0.11769,-0.18856 0.38396,-0.3942 0.68925,-0.60515 -0.44863,-0.45953 -1.16847,-1.13322 -1.84605,-1.42194 -1.05049,-0.44754 -2.267,-0.40162 -3.86992,-0.45145 -0.40075,-0.013 -0.93021,-0.0128 -1.50605,-0.002 z"
         id="path70247" />
      <path
         style="fill:none;stroke:#00ff00;stroke-width:0.645458;stop-color:#000000"
         d="m 235.115,48.770241 c -0.3517,0.0194 -0.75515,0.0978 -1.14391,0.16658 0.23634,0.93835 0.39437,1.86463 0.4929,2.46486 0.64778,-0.42269 1.36933,-0.86289 1.54547,-1.27106 0.29649,-0.68698 0.39166,-0.75261 -0.0825,-1.18052 -0.17785,-0.16048 -0.46968,-0.19861 -0.81199,-0.17986 z"
         id="path70245" />
      <path
         style="fill:none;stroke:#00ff00;stroke-width:0.645458;stop-color:#000000"
         d="m 247.59066,48.146971 c -0.0514,0 -0.10312,0.0101 -0.15611,0.031 -0.42401,0.16627 -0.45512,0.35732 -0.34603,0.9029 0.10908,0.54557 0.94698,1.2048 1.6352,1.71729 0.68824,0.51245 2.22241,1.10255 2.47535,1.25819 0.25292,0.15562 2.38872,0.57973 3.58102,0.82243 1.19229,0.2427 2.43582,0.6089 3.57057,0.63451 0.90118,0.0204 2.11874,-0.21229 2.68175,-0.32591 a 34.983395,34.983395 0 0 0 0.21044,-0.9379 c -0.46668,0.0812 -0.99629,-0.1029 -1.59538,-0.14163 -0.79343,-0.0513 -1.91771,-0.34791 -2.71111,-0.39914 -0.79343,-0.0513 -1.245,0.19074 -2.02992,0.0346 -0.78492,-0.15612 -1.55898,-0.64376 -2.54253,-1.10407 -0.98359,-0.46031 -2.52263,-1.27257 -3.34486,-1.68147 -0.71942,-0.35782 -1.06836,-0.81389 -1.42839,-0.81078 z"
         id="path70243" />
      <path
         style="fill:none;stroke:#00ff00;stroke-width:0.645458;stop-color:#000000"
         d="m 253.51748,45.863971 c -0.20471,-0.0159 -0.38971,-0.0171 -0.54601,0.002 -0.62524,0.0781 -0.87877,0.0971 -0.99463,0.3923 -0.11588,0.29521 0.1,0.45549 0.36051,0.75161 0.2605,0.29612 0.39074,0.54123 1.28635,0.83331 0.89561,0.29193 3.84834,0.20605 4.11294,0.22933 0.26462,0.0233 3.56222,0.127 3.84862,0.20561 0.0565,0.0155 0.1559,-0.0156 0.26917,-0.064 a 34.983395,34.983395 0 0 0 0.0869,-1.08839 c -0.0154,0.002 -0.026,0.004 -0.0418,0.007 -0.75651,0.12451 -2.00136,-0.11582 -3.04307,-0.26796 -1.04171,-0.15216 -2.21347,-0.49189 -3.19556,-0.65505 -0.73659,-0.12239 -1.52925,-0.29863 -2.14339,-0.34604 z"
         id="path70241" />
      <path
         style="fill:none;stroke:#00ff00;stroke-width:0.645458;stop-color:#000000"
         d="m 226.32057,43.419631 c -1.22211,0.0518 -3.64305,0.82012 -3.95563,0.85259 -0.31256,0.0324 -2.46731,1.38863 -2.5377,2.03274 -0.0705,0.64413 -0.0854,0.34785 0.39914,0.49572 0.48459,0.14785 1.15841,-0.34165 2.29548,-0.7122 1.13709,-0.37053 3.1146,-1.2108 4.51573,-1.54266 0.0271,-0.007 0.0542,-0.0148 0.0813,-0.0213 -0.10879,-0.45322 -0.14025,-0.84697 -0.0185,-1.07953 -0.27562,-0.0217 -0.54459,-0.0352 -0.77977,-0.0253 z"
         id="path70239" />
      <path
         style="fill:none;stroke:#00ff00;stroke-width:0.645458;stop-color:#000000"
         d="m 221.74771,40.367701 c -0.003,0.002 -0.009,0.005 -0.0124,0.007 0,0.002 -0.004,0.002 -0.004,0.002 h 0.004 c 0.002,-0.002 0.01,-0.006 0.0124,-0.008 z"
         id="path70237" />
      <path
         style="fill:none;stroke:#00ff00;stroke-width:0.645458;stop-color:#000000"
         d="m 225.19073,40.228481 c -0.7536,0.002 -2.25968,0.0138 -2.54012,0.0853 -0.002,0.002 -0.002,0.002 -0.004,0.002 0.004,-6e-5 0,0 0.004,0 0.28044,-0.0715 1.78652,-0.0832 2.54012,-0.0853 0.0771,-7e-5 0.14753,0.005 0.22251,0.006 -0.0769,-0.002 -0.14389,-0.008 -0.22251,-0.008 z"
         id="path70235" />
      <path
         style="fill:none;stroke:#00ff00;stroke-width:0.645458;stop-color:#000000"
         d="m 217.18211,39.413291 h -8.3e-4 c 0,0 1.2445,-0.0303 2.07539,0.38951 0.002,0 0.004,0.002 0.006,0.002 -0.002,0 -0.004,-0.003 -0.006,-0.003 -0.83008,-0.41944 -2.07217,-0.38953 -2.07458,-0.38949 z"
         id="path70233" />
      <path
         style="fill:none;stroke:#00ff00;stroke-width:0.645458;stop-color:#000000"
         d="m 227.61658,29.270141 c -0.0911,0 -0.17937,0.0942 -0.34562,0.20479 -0.33244,0.22124 -0.12892,0.98971 -0.28127,1.64567 -0.15234,0.65594 -0.21606,1.06795 -0.67194,2.27375 -0.45588,1.20577 -1.42429,3.71957 -2.26289,4.86255 -0.19606,0.26724 -0.41353,0.51799 -0.63451,0.748 0.12373,0.0363 0.25238,0.08 0.38585,0.13197 0.5677,-0.67454 1.32603,-1.64606 1.84966,-2.52926 0.68533,-1.15592 1.36929,-2.67932 1.73901,-3.85543 0.36973,-1.17607 0.9393,-2.56977 0.58425,-3.11308 -0.17754,-0.27164 -0.27144,-0.36896 -0.36254,-0.36896 z"
         id="path70231" />
      <path
         style="fill:none;stroke:#00ff00;stroke-width:0.645458;stop-color:#000000"
         d="m 223.10167,29.054861 c -0.0426,0.007 -0.10305,0.0641 -0.27039,0.22049 -0.3347,0.31276 -0.54333,1.34036 -0.87272,2.11805 -0.32939,0.77771 -0.64037,1.64317 -1.10771,2.54574 -0.46733,0.90259 -0.97823,1.94492 -1.72211,2.84069 -0.18002,0.21679 -0.38046,0.46744 -0.59188,0.72184 0.56856,0.25108 -0.26631,0.30578 0.13439,0.70935 0.009,0.009 0.0211,0.019 0.031,0.0282 0.35765,-0.60358 1.02748,-1.73169 1.43161,-2.38198 0.52779,-0.8493 0.94342,-1.54736 1.40667,-2.18564 0.46323,-0.63828 0.99286,-1.00786 1.34751,-1.65373 0.35464,-0.64586 0.7535,-1.65879 0.72103,-2.17154 -0.0325,-0.51274 -0.15142,-0.63493 -0.34362,-0.7162 -0.0961,-0.0407 -0.12114,-0.0827 -0.16376,-0.0752 z"
         id="path70229" />
      <path
         style="fill:none;stroke:#00ff00;stroke-width:0.645458;stop-color:#000000"
         d="m 231.33724,28.063441 c -0.0514,0.002 -0.11137,0.0189 -0.1851,0.0515 -0.29484,0.13036 -0.25725,0.60732 -0.35005,1.23808 -0.0927,0.63074 0.0666,1.46392 -0.0418,2.5381 -0.10841,1.07415 -0.3489,2.49655 -0.72345,3.87234 -0.37452,1.37578 -1.4136,4.14051 -1.56921,4.3411 -0.15562,0.20041 -0.75004,0.15175 -1.29764,0.18187 -0.37314,0.0206 -0.8227,-0.008 -1.29963,-0.0322 0.27352,0.17986 0.53855,0.36297 0.77857,0.54077 0.54271,0.40203 1.24271,1.12494 1.82553,1.76598 0.32045,-0.43015 0.62152,-0.93708 0.71741,-1.29761 0.16563,-0.62269 -0.35104,-0.63421 -0.11427,-1.42316 0.0539,-0.17977 0.15212,-0.38054 0.27925,-0.59189 -0.049,0.002 -0.16417,0.006 -0.16417,0.006 0,0 0.12154,-0.0829 0.29412,-0.21166 0.41865,-0.62598 1.05683,-1.31646 1.63722,-1.86092 0.28629,-0.71692 0.37001,-1.57165 0.53152,-2.63388 0.19472,-1.28066 0.42523,-4.23272 0.30459,-4.61548 -0.1207,-0.38281 -0.0142,-1.23157 -0.22894,-1.52699 -0.16104,-0.22183 -0.24027,-0.34677 -0.39432,-0.34039 z"
         id="path70227" />
      <path
         style="fill:none;stroke:#00ff00;stroke-width:0.645458;stop-color:#000000"
         d="m 234.92309,27.916181 c -0.0689,0.009 -0.0146,0.10282 -0.1179,0.33679 -0.16537,0.37434 0.16227,0.96233 0.34966,1.90999 0.15531,0.78562 0.5115,2.06241 0.70414,3.13562 0.1963,-0.0548 0.39401,-0.11012 0.58502,-0.19514 0.17163,-0.0764 0.32983,-0.15141 0.48687,-0.22411 -0.0468,-1.0407 -0.30788,-2.45675 -0.30459,-2.66686 0.004,-0.25383 -0.87519,-2.11284 -1.38494,-2.23152 -0.19116,-0.0444 -0.2769,-0.0699 -0.31826,-0.0648 z"
         id="path70225" />
      <path
         style="fill:none;stroke:#0000ff;stroke-width:0.645458;stop-color:#000000"
         d="m 219.40275,10.851171 a 34.983395,34.983395 0 0 0 -27.34819,34.13444 34.983395,34.983395 0 0 0 9.92669,24.38238 c -0.14696,-0.2112 -0.30119,-0.44986 -0.42168,-0.59953 -0.47434,-0.58924 -1.08417,-1.02596 -1.52576,-1.61105 -0.4416,-0.58509 -0.88195,-1.18202 -1.11092,-1.875 -0.22858,-0.69302 -0.43285,-1.39085 -0.22694,-2.18805 0.20592,-0.7972 0.92488,-1.42703 1.56761,-2.24761 0.64272,-0.82055 1.56859,-1.92878 2.3164,-2.64152 0.74782,-0.71275 1.46356,-1.12403 2.10114,-1.67139 0.63756,-0.54737 1.76184,-1.08347 1.72976,-1.60142 -0.0321,-0.51795 -0.24112,-0.39593 -0.61481,-0.44179 -0.37368,-0.0459 -0.74834,0.11741 -1.3954,0.55565 -0.64701,0.43833 -1.50807,1.66126 -2.19287,2.31279 -0.68482,0.65151 -1.30866,0.85469 -1.88588,1.61751 -0.57722,0.76281 -1.16826,2.74355 -1.36763,2.95374 -0.19935,0.21024 -0.64136,0.82484 -0.64136,0.82484 0,0 -0.39021,-0.0656 -0.47962,-0.36092 -0.0894,-0.29534 0.36554,-0.65446 0.41443,-1.18052 0.0489,-0.52611 -0.1895,-0.89534 -0.29131,-1.89715 -0.1018,-1.00178 -0.39437,-3.20236 -0.20641,-4.11739 0.18794,-0.91503 0.54479,-0.84905 0.65183,-1.33142 0.10705,-0.48237 -0.15588,-0.76844 -0.0274,-1.48189 0.12852,-0.71343 0.0666,-1.31966 1.05016,-2.66807 0.9836,-1.34844 3.7452,-4.30021 5.53329,-4.52336 1.7881,-0.22313 2.51984,1.36455 3.3203,1.55111 0.80047,0.18656 0.45811,-0.27514 1.26664,0.0266 0.80851,0.30172 2.14348,2.30967 3.00806,2.49947 0.86459,0.18982 0.96202,0.2853 1.35235,-0.36173 0.39033,-0.64702 -0.412,-2.0411 -0.69609,-3.05554 -0.28408,-1.01445 -1.11673,-1.94191 -1.00872,-3.02294 0.10801,-1.08106 0.65643,-1.89579 1.65894,-2.88937 0.34158,-0.33856 0.8617,-0.77553 1.43482,-1.19261 -0.21779,-0.21656 -0.38232,-0.42778 -0.53192,-0.44179 -0.32954,-0.0308 -2.11402,-1.12621 -2.11402,-1.12621 0,0 0.55674,-0.0638 0.89244,-0.23941 0.33568,-0.17568 0.56302,-0.43664 1.02965,-0.87152 0.46663,-0.43489 1.1664,-1.19939 1.73016,-1.77401 0.56377,-0.57461 1.38709,-1.2036 1.6521,-1.67383 0.26501,-0.47022 0.36205,-0.66199 0.21728,-0.85985 -0.14479,-0.19783 -0.3415,-0.13722 -0.58343,-0.035 -0.24187,0.10227 -0.26851,0.31656 -0.647,0.75122 -0.3785,0.43468 -0.89477,1.13554 -1.62957,1.85167 -0.73481,0.71616 -2.05048,2.51365 -2.83142,2.36549 -0.78096,-0.14818 -0.0434,-0.49053 -0.51744,-0.94795 -0.474,-0.45743 -2.31485,-1.28204 -2.56868,-1.28596 -0.25383,-0.004 -1.12582,0.53997 -1.12582,0.53997 0,0 0.3321,-0.71221 0.37501,-1.18696 0.0429,-0.47479 -0.10756,-0.79738 -0.20239,-1.60261 -0.0948,-0.80521 -0.23737,-2.39118 -0.35287,-3.23017 -0.1155,-0.83898 -0.54552,-1.3133 -0.30057,-1.80743 0.24494,-0.49418 0.59349,-0.51892 1.30607,-0.68925 0.71259,-0.17024 1.9154,-0.0261 2.91874,0.0479 1.00333,0.0739 2.1433,0.31752 3.09055,0.40598 0.94726,0.0885 1.99658,0.2612 2.58719,0.14405 0.59063,-0.11716 0.83073,-0.15249 0.92101,-0.44181 0.0902,-0.28926 -0.12617,-0.42758 -0.39472,-0.69205 -0.26854,-0.26448 -0.40951,-0.48932 -1.28313,-0.70655 -0.87362,-0.2173 -3.68209,0.0663 -3.93592,0.0624 -0.2538,-0.004 -3.40406,0.12208 -3.68242,0.0668 -0.27835,-0.0554 -1.38574,0.9166 -1.38574,0.9166 0,0 0.26852,-1.85322 0.44864,-2.60773 0.18014,-0.75447 0.0788,-1.50562 0.59026,-1.91966 0.51144,-0.41406 1.17237,-0.16522 1.93215,-0.1714 0.75978,-0.005 1.85196,0.20131 2.61174,0.19513 0.75977,-0.005 1.17331,-0.26668 1.93214,-0.1714 0.75884,0.0952 1.53013,0.50716 2.49908,0.87876 0.96895,0.3716 2.49134,1.04084 3.30299,1.37447 0.81165,0.33366 1.17089,0.82262 1.56358,0.63493 0.39286,-0.18743 0.40959,-0.37179 0.26837,-0.88438 -0.14122,-0.5126 -0.98485,-1.08351 -1.67583,-1.52497 -0.691,-0.44148 -2.19384,-0.89938 -2.44556,-1.03044 -0.25173,-0.13106 -2.31612,-0.38923 -3.46917,-0.53917 -1.15303,-0.14993 -2.36368,-0.41435 -3.44704,-0.36132 -1.08338,0.053 -2.98031,0.61119 -2.98031,0.61119 0,0 0.94961,-1.91371 1.31291,-2.64393 0.36332,-0.7302 0.11431,-1.34514 0.86629,-1.73781 0.75198,-0.39268 2.186,0.39661 3.11509,0.45748 0.92911,0.0609 1.47608,-0.25081 2.43792,-0.0362 0.96183,0.21462 2.06444,0.96146 3.12274,1.52373 1.0583,0.56228 2.49837,2.17264 3.2193,1.8553 0.72096,-0.3173 0.3542,-0.51706 0.21928,-0.9866 -0.13491,-0.46952 -0.76854,-1.0222 -1.3487,-1.36762 -0.58017,-0.34541 -1.17518,-0.36558 -2.04643,-0.59228 -0.87126,-0.22669 -2.73236,-0.57777 -3.18671,-0.73753 -0.45435,-0.1598 -2.24713,-0.34931 -3.09055,-0.40598 -0.84342,-0.057 -1.95468,-0.007 -1.95468,-0.007 0,0 0.83058,-0.16436 1.3797,-0.53594 0.54915,-0.37158 1.12215,-1.28516 1.70562,-1.82512 0.58349,-0.53995 1.77482,-1.41793 1.77482,-1.41793 0,0 1.18833,0.40864 1.91766,0.71701 0.72932,0.30836 1.50173,0.63825 2.44355,1.15719 0.94184,0.51894 2.18232,1.28908 3.16579,2.0066 0.98347,0.71747 2.03237,2.42998 2.73002,2.27898 0.69768,-0.15105 0.32165,-0.22163 0.31547,-0.65505 -0.006,-0.43345 -0.44243,-1.26144 -0.86145,-1.66417 -0.41907,-0.40277 -0.74605,-0.31017 -1.46098,-0.68403 -0.71494,-0.37385 -2.01395,-1.04862 -2.7916,-1.61991 -0.77766,-0.57126 -1.88484,-1.17321 -2.44154,-1.28394 -0.55671,-0.11069 -2.27577,-0.5452 -2.27577,-0.5452 0,0 1.14586,-0.5379 1.66418,-0.86146 0.14796,-0.0923 0.27733,-0.20413 0.41242,-0.31022 z"
         id="path70223" />
      <path
         style="fill:none;stroke:#0000ff;stroke-width:0.645458;stop-color:#000000"
         d="m 233.58724,10.623431 c 0.25345,0.14499 0.53165,0.33426 0.88722,0.66551 0.98641,0.919 3.08635,3.41911 3.09336,4.87463 0.006,1.45556 -1.33748,1.88882 -1.5644,2.51275 -0.2268,0.62392 0.17639,0.39389 -0.14363,1.01315 -0.32004,0.61929 -2.0594,1.49613 -2.29507,2.17116 -0.23572,0.67505 -0.32187,0.74427 0.15933,1.11976 0.48119,0.37552 1.67661,-0.13366 2.51758,-0.26354 0.84097,-0.12989 1.66546,-0.70802 2.52201,-0.51705 0.85655,0.19101 1.45659,0.70954 2.15666,1.60945 0.70006,0.89994 1.93682,3.10706 1.58732,3.83413 -0.34951,0.72701 -0.26604,-0.11757 -0.66308,0.19192 -0.39706,0.30947 -1.05994,1.40697 -1.17531,2.01181 -0.1154,0.60486 0.3778,0.58093 0.20601,1.34914 -0.0688,0.30765 -0.26116,0.68494 -0.51383,1.07873 0.80124,0 1.5129,0.027 1.5129,0.027 0,0 -1.38659,0.79032 -1.92692,1.59013 -0.54032,0.79979 -0.69767,1.81666 -0.99665,3.13883 -0.299,1.32219 -0.75964,4.386 -0.6623,4.79456 0.0974,0.40854 -0.0777,1.28668 0.12435,1.61106 0.20201,0.32422 0.26556,0.45885 0.583,0.34482 0.31747,-0.11401 0.31429,-0.61482 0.45829,-1.26624 0.14403,-0.6514 0.0399,-1.53286 0.23339,-2.64593 0.19342,-1.11307 0.55075,-2.57984 1.04453,-3.98781 0.49377,-1.40799 1.78487,-4.21584 1.96233,-4.41353 0.0887,-0.0988 0.2874,-0.12392 0.53554,-0.12392 0.24812,0 0.54558,0.0263 0.83249,0.031 0.5738,0.009 1.27499,0.15374 2.0617,0.20842 0.78671,0.0546 2.35955,0.15479 2.65761,0.10098 0.29805,-0.0537 -0.17332,0.0466 -0.77495,0.62487 -0.60165,0.57829 -1.83775,1.86526 -2.6395,3.02054 -0.80173,1.15528 -1.62931,2.69456 -2.10315,3.89447 -0.47382,1.19992 -1.17257,2.61202 -0.84256,3.20563 0.33003,0.5936 0.36309,0.43019 0.72668,0.22412 0.36356,-0.20607 0.20838,-1.02311 0.41645,-1.69637 0.20805,-0.67326 0.30553,-1.09879 0.8715,-2.32325 0.56599,-1.22446 1.76487,-3.77568 2.72561,-4.906 0.96077,-1.13031 2.30327,-1.93021 2.57955,-2.03918 0.27626,-0.10898 1.70828,0.28388 2.54414,0.78421 0.83586,0.50032 2.13694,0.5613 2.13694,0.5613 l -1.30404,0.5786 c 0,0 -1.42922,2.06611 -2.04362,2.9131 -0.61438,0.84701 -1.10034,1.54439 -1.63158,2.17597 -0.53123,0.63161 -1.11131,0.97756 -1.52978,1.62515 -0.41843,0.64759 -0.91106,1.67497 -0.91497,2.21259 -0.004,0.53762 0.11046,0.67408 0.30499,0.77334 0.19454,0.0993 0.0912,0.18232 0.46394,-0.1191 0.37273,-0.30141 0.66714,-1.35867 1.06906,-2.14579 0.40193,-0.78712 0.79145,-1.66718 1.34671,-2.57432 0.55528,-0.90714 1.16641,-1.9565 2.00981,-2.83585 0.84338,-0.87937 2.06819,-2.30935 3.03341,-2.34618 0.96522,-0.0369 1.29677,1.02125 1.63842,1.07792 0.34164,0.0568 2.12206,1.33344 2.12206,1.33344 0,0 -0.58568,0.0248 -0.94917,0.18306 -0.3635,0.15828 -0.62075,0.41388 -1.1403,0.8329 -0.51956,0.41904 -1.30678,1.1649 -1.93818,1.72251 -0.6314,0.55761 -1.53789,1.15256 -1.84966,1.62354 -0.31184,0.471 -0.42722,0.66344 -0.29091,0.88078 0.13632,0.21732 0.34585,0.16868 0.60596,0.0801 0.26013,-0.0886 0.30395,-0.31013 0.7315,-0.73554 0.42755,-0.42534 1.01909,-1.11848 1.8396,-1.81103 0.8205,-0.69252 2.32835,-2.4703 3.13238,-2.25725 0.80406,0.21302 0.009,0.51517 0.46917,1.02803 0.29564,0.32929 1.14547,0.83873 1.80217,1.18176 a 34.983395,34.983395 0 0 0 -27.81211,-27.80891 z"
         id="path70221" />
      <path
         style="fill:none;stroke:#00ff00;stroke-width:0.645458;stop-color:#000000"
         d="m 225.28047,10.067771 a 34.983395,34.983395 0 0 0 -0.56171,0.0213 c 0.23937,0.24856 0.4764,0.5249 0.75,0.79789 0.59603,0.59467 1.39535,1.44427 1.89474,2.11281 0.49941,0.6685 0.76007,1.28268 1.13748,1.84685 0.37739,0.56417 0.69845,1.51715 1.11696,1.54144 0.41752,0.0243 0.34066,-0.155 0.41363,-0.45023 0.0729,-0.29528 -0.0215,-0.61169 -0.31062,-1.1729 -0.28907,-0.5612 -1.18689,-1.36954 -1.64326,-1.98163 -0.45639,-0.6121 -0.55894,-1.13204 -1.11494,-1.6686 -0.3686,-0.35566 -1.14321,-0.75691 -1.68228,-1.04695 z"
         id="path70219" />
      <path
         style="fill:none;stroke:#ff0000;stroke-width:0.645458;stop-color:#000000"
         d="M 271.67728,45.000001 A 44.677273,44.677273 0 0 1 227.00001,89.677271 44.677273,44.677273 0 0 1 182.32273,45.000001 44.677273,44.677273 0 0 1 227.00001,0.32272899 44.677273,44.677273 0 0 1 271.67728,45.000001 Z"
         id="path61873" />
    </g>
  </g>
</svg>
