<?xml version="1.0" encoding="UTF-8" standalone="no"?>
<!-- Created with Inkscape (http://www.inkscape.org/) -->

<svg
   width="1220mm"
   height="600mm"
   viewBox="0 0 1220 600.00001"
   version="1.1"
   id="svg5"
   inkscape:version="1.1.1 (3bf5ae0d25, 2021-09-20)"
   sodipodi:docname="00_ice_skating_cut.svg"
   xmlns:inkscape="http://www.inkscape.org/namespaces/inkscape"
   xmlns:sodipodi="http://sodipodi.sourceforge.net/DTD/sodipodi-0.dtd"
   xmlns="http://www.w3.org/2000/svg"
   xmlns:svg="http://www.w3.org/2000/svg"
   xmlns:rdf="http://www.w3.org/1999/02/22-rdf-syntax-ns#"
   xmlns:cc="http://creativecommons.org/ns#"
   xmlns:dc="http://purl.org/dc/elements/1.1/">
  <metadata
     id="metadata3849">
    <rdf:RDF>
      <cc:Work
         rdf:about="">
        <dc:format>image/svg+xml</dc:format>
        <dc:type
           rdf:resource="http://purl.org/dc/dcmitype/StillImage" />
      </cc:Work>
    </rdf:RDF>
  </metadata>
  <sodipodi:namedview
     id="namedview7"
     pagecolor="#ffffff"
     bordercolor="#666666"
     borderopacity="1.0"
     inkscape:pageshadow="2"
     inkscape:pageopacity="0.0"
     inkscape:pagecheckerboard="true"
     inkscape:document-units="mm"
     showgrid="false"
     inkscape:zoom="0.29843035"
     inkscape:cx="-246.28862"
     inkscape:cy="789.12884"
     inkscape:window-width="1920"
     inkscape:window-height="1017"
     inkscape:window-x="-8"
     inkscape:window-y="-8"
     inkscape:window-maximized="1"
     inkscape:current-layer="layer1"
     inkscape:snap-global="true"
     inkscape:object-paths="true" />
  <defs
     id="defs2" />
  <g
     inkscape:label="Layer 1"
     inkscape:groupmode="layer"
     id="layer1">
    <g
       id="g12535"
       transform="rotate(-45,27.554504,180.16155)">
      <path
         style="fill:none;fill-opacity:1;stroke:#ff0000;stroke-width:0.202717;stroke-miterlimit:4;stroke-dasharray:none;stroke-opacity:1"
         d="m 231.55864,129.52212 a 44.898608,44.898608 0 0 0 -27.39236,-12.90637 7.5022873,7.5022873 0 0 0 0.23259,-0.21037 7.5022873,7.5022873 0 0 0 0,-10.60969 7.5022873,7.5022873 0 0 0 -10.60968,0 7.5022873,7.5022873 0 0 0 0,10.60969 7.5022873,7.5022873 0 0 0 0.40333,0.37371 44.898608,44.898608 0 0 0 -26.12977,12.74303 44.898608,44.898608 0 0 0 -3.7e-4,63.49626 44.898608,44.898608 0 0 0 63.49664,0 44.898608,44.898608 0 0 0 -3.8e-4,-63.49626 z"
         id="path78558-5" />
      <path
         id="path12371"
         style="fill:none;fill-opacity:1;stroke:#0000ff;stroke-width:0.202717;stroke-miterlimit:4;stroke-dasharray:none;stroke-opacity:1"
         d="m 196.83605,119.68055 a 41.696097,41.696097 0 0 0 -26.50898,12.10624 41.696097,41.696097 0 0 0 -11.56829,36.19934 c 3.26918,-0.20524 7.14943,-0.23131 10.55646,0.39377 7.54798,1.3848 14.73646,8.60013 26.37927,10.66395 4.29684,0.76166 10.0542,1.02723 16.03313,0.9648 0.0716,-0.43028 0.18131,-0.97275 0.32246,-1.56321 0.27187,-1.13723 0.52473,-4.20252 0.53227,-6.68797 l 0.0134,-4.43745 -1.36529,-1.56115 c -0.39718,-0.45419 -0.76605,-0.8811 -1.0418,-1.20406 -0.13787,-0.16147 -0.25231,-0.29669 -0.33589,-0.39739 -0.0418,-0.0504 -0.076,-0.0919 -0.10232,-0.12506 -0.0112,-0.0141 -0.0214,-0.0311 -0.0295,-0.0408 -0.0216,-0.0106 -0.066,-0.0282 -0.12557,-0.047 -0.1223,-0.0386 -0.30413,-0.0819 -0.5147,-0.12092 -0.42113,-0.078 -0.96177,-0.14177 -1.44384,-0.15968 -0.53839,-0.02 -1.2024,-0.25984 -1.64848,-0.58601 -0.15283,-0.11176 -0.26278,-0.18983 -0.35811,-0.31419 -0.0477,-0.0622 -0.11877,-0.15851 -0.0899,-0.3204 0.0289,-0.16189 0.17037,-0.25577 0.25476,-0.28629 0.1688,-0.061 0.3012,-0.0499 0.51315,-0.0418 0.21195,0.008 0.486,0.0305 0.83767,0.0641 0.44732,0.0427 0.78207,0.0697 0.9586,0.0584 0.005,-2.6e-4 0.002,-5.3e-4 0.007,-0.001 -0.037,-0.0851 -0.0985,-0.21711 -0.23202,-0.41703 -0.21151,-0.3166 -0.54144,-0.75743 -0.98237,-1.34462 -0.37146,-0.49466 -0.64787,-0.77475 -0.87643,-0.90485 -0.22857,-0.1301 -0.41978,-0.14847 -0.7612,-0.0832 -0.66464,0.12705 -1.53348,-0.077 -2.13372,-0.47026 -0.36896,-0.24175 -0.5949,-0.33884 -0.75654,-0.35088 -0.16165,-0.0121 -0.32214,0.0414 -0.61909,0.22686 -0.23691,0.14796 -0.47657,0.25551 -0.69659,0.31368 -0.11001,0.0291 -0.21461,0.0469 -0.32401,0.0439 -0.10941,-0.003 -0.24132,-0.0222 -0.35657,-0.13746 -0.0549,-0.0548 -0.10543,-0.11998 -0.13436,-0.2129 -0.0152,-0.0488 -0.019,-0.1073 -0.0124,-0.1664 -0.0622,-0.0274 -0.0874,-0.042 -0.16536,-0.0744 -0.41931,-0.17432 -1.05456,-0.41705 -1.79731,-0.68316 -1.82954,-0.65549 -3.07172,-0.86766 -3.85403,-0.72915 -0.42837,0.0758 -0.73385,0.0956 -0.97514,0.0548 -0.12064,-0.0204 -0.23593,-0.0483 -0.34571,-0.16019 -0.10978,-0.11186 -0.13324,-0.33994 -0.0744,-0.46457 0.11764,-0.24927 0.31171,-0.33494 0.57826,-0.45476 0.26654,-0.11981 0.61644,-0.22974 1.04903,-0.31626 0.37162,-0.0743 0.61641,-0.17769 0.69505,-0.23771 0.0187,-0.0143 0.009,-0.003 0.0119,-0.006 -0.0555,-0.0904 -0.10179,-0.17017 -0.12248,-0.28525 -0.0107,-0.0598 -0.0149,-0.13595 0.0171,-0.22169 0.032,-0.0857 0.10936,-0.16655 0.18397,-0.20413 0.14922,-0.0751 0.25331,-0.05 0.35656,-0.03 0.10326,0.02 0.21093,0.0545 0.33693,0.10284 0.17228,0.0661 0.37243,0.12865 0.54726,0.1726 0.17482,0.0439 0.33816,0.0667 0.37465,0.0667 0.23224,0 0.41131,0.14914 0.51315,0.31161 0.10184,0.16247 0.15141,0.35639 0.15141,0.56534 0,0.25952 0.19242,0.50273 0.67438,0.70745 0.48196,0.20472 1.21255,0.32276 2.07739,0.28887 0.37439,-0.0147 0.68247,-0.0496 0.90951,-0.0961 0.12244,-0.0251 0.14745,-0.0466 0.21755,-0.0739 -0.0517,-0.0321 -0.0425,-0.0385 -0.13539,-0.076 -0.10031,-0.0405 -0.17822,-0.0737 -0.24908,-0.11369 -0.0354,-0.02 -0.0692,-0.04 -0.11162,-0.0796 -0.0424,-0.0396 -0.12241,-0.11838 -0.1142,-0.2713 0.008,-0.15292 0.12229,-0.24638 0.18086,-0.27802 0.0586,-0.0316 0.0984,-0.0396 0.1385,-0.0481 0.0801,-0.0169 0.16035,-0.0236 0.26406,-0.03 0.47891,-0.0295 0.86187,0.3181 1.0325,0.76274 0.0218,0.0568 0.1832,0.27395 0.41548,0.47388 0.23227,0.19992 0.53245,0.40613 0.82733,0.55862 0.37127,0.19199 0.67586,0.29248 0.88212,0.31987 0.20626,0.0274 0.28159,-0.0158 0.30128,-0.0362 0.0197,-0.0204 0.0556,-0.0849 0.016,-0.27957 -0.0396,-0.19468 -0.16016,-0.48299 -0.37879,-0.83147 l -0.69453,-1.10794 a 0.30880005,0.30880005 0 0 1 0.46767,-0.39378 l 1.04645,0.94 c 0.24361,0.21879 0.43512,0.35081 0.56895,0.42736 0.007,-0.0256 0.001,-0.051 0.0119,-0.0775 0.0428,-0.10859 0.1588,-0.23889 0.30334,-0.27337 0.14455,-0.0345 0.25947,0.006 0.35502,0.0512 0.0956,0.0455 0.18253,0.10612 0.27802,0.18241 0.0622,0.0497 0.21782,0.11129 0.39636,0.12868 0.15798,0.0154 0.32726,-0.005 0.4687,-0.046 -0.103,-0.0442 -0.18467,-0.082 -0.33538,-0.14056 -0.59678,-0.23201 -1.46409,-0.48355 -1.83606,-0.54209 -0.36143,-0.0569 -0.69429,-0.25455 -0.86868,-0.59893 -0.17439,-0.34438 -0.23789,-0.78964 -0.28577,-1.45004 l -0.0987,-1.35651 -1.33687,0.005 c -0.83862,0.003 -2.27393,0.24928 -3.07527,0.52813 -0.44445,0.15467 -0.86988,0.25792 -1.21801,0.30024 -0.17407,0.0212 -0.3276,0.0284 -0.46922,0.0124 -0.14163,-0.016 -0.30876,-0.0345 -0.42892,-0.22893 0.0679,0.10979 0.0259,0.0295 -0.0785,-0.008 -0.10442,-0.0372 -0.26409,-0.0796 -0.45631,-0.11834 -0.38444,-0.0774 -0.90245,-0.14347 -1.44591,-0.17621 -0.64409,-0.0388 -1.18681,-0.12028 -1.60506,-0.24236 -0.41826,-0.12209 -0.7545,-0.24979 -0.89091,-0.60514 -0.042,-0.10947 -0.0721,-0.20997 -0.0723,-0.32917 -2.7e-4,-0.11921 0.0564,-0.28651 0.185,-0.37518 0.12864,-0.0887 0.25946,-0.0888 0.36949,-0.0754 0.11002,0.0134 0.216,0.046 0.33589,0.092 0.31341,0.12026 1.03891,0.34073 1.56321,0.47232 0.0921,0.0231 0.12418,0.0275 0.19741,0.045 -0.0677,-0.10789 -0.11947,-0.19456 -0.22325,-0.35295 -0.28832,-0.44003 -0.44593,-0.61523 -0.77876,-0.7307 -0.33283,-0.11548 -0.899,-0.15193 -1.90944,-0.15193 -1.11392,-1e-5 -1.72143,0.007 -2.23087,-0.23099 -0.50944,-0.2384 -0.79375,-0.68387 -1.26143,-1.42473 -0.25444,-0.40306 -0.54284,-0.79467 -0.79581,-1.09192 -0.12649,-0.14862 -0.24471,-0.27382 -0.34055,-0.36276 -0.0958,-0.089 -0.18179,-0.13985 -0.1757,-0.13747 -0.0952,-0.0382 -0.16891,-0.0699 -0.24856,-0.13177 -0.0398,-0.0309 -0.0884,-0.069 -0.12713,-0.15761 -0.0387,-0.0886 -0.0265,-0.24805 0.0336,-0.33332 0.12027,-0.17047 0.21565,-0.15523 0.30386,-0.17311 0.0882,-0.0179 0.18465,-0.0266 0.30282,-0.032 0.33963,-0.0156 0.62055,0.17214 0.88729,0.42168 0.26674,0.24954 0.51682,0.58594 0.71623,0.97513 0.42454,0.82856 0.6767,1.20936 1.06712,1.41025 0.39042,0.20089 1.02632,0.25388 2.2257,0.25735 0.91917,0.003 1.49819,0.0331 1.99472,0.22789 0.49652,0.19476 0.85369,0.54538 1.30793,1.08521 0.51946,0.61735 0.83255,0.86946 1.54254,0.92966 0.70999,0.0602 1.84524,-0.12792 3.81165,-0.55294 l 0.71159,-0.154 -0.6103,-0.36225 c -0.63916,-0.37955 -2.18751,-0.93697 -3.32383,-1.17719 -0.45799,-0.0968 -0.81445,-0.17689 -1.08676,-0.24908 -0.2723,-0.0722 -0.45235,-0.12509 -0.60823,-0.22221 -0.0779,-0.0486 -0.17637,-0.11748 -0.21446,-0.27181 -0.0381,-0.15434 0.0461,-0.30722 0.11576,-0.37672 0.1393,-0.13901 0.27811,-0.18439 0.47284,-0.26149 0.15409,-0.061 0.21748,-0.0983 0.27027,-0.12816 -0.0434,-0.0606 -0.11933,-0.15837 -0.30748,-0.32711 -0.22202,-0.19911 -0.54268,-0.46256 -0.96893,-0.80822 -0.50198,-0.40706 -0.89192,-0.77449 -1.13327,-1.06608 -0.12067,-0.1458 -0.20968,-0.25616 -0.25683,-0.4253 -0.0236,-0.0846 -0.0393,-0.2236 0.0543,-0.35088 0.0936,-0.12728 0.23842,-0.15503 0.33073,-0.15503 0.28461,0 0.56466,0.10621 0.81701,0.26717 -0.0275,-0.16627 -0.0466,-0.33795 -0.0439,-0.51212 0.003,-0.18857 0.006,-0.33194 0.0186,-0.45113 0.006,-0.0596 0.0131,-0.11241 0.0362,-0.1788 0.0231,-0.0664 0.0762,-0.19412 0.24339,-0.2403 0.16719,-0.0462 0.28227,0.0386 0.3359,0.0853 0.0536,0.0467 0.0856,0.0894 0.1204,0.13797 0.0696,0.0971 0.14193,0.21945 0.23617,0.38138 0.25057,0.43055 0.34913,0.88372 0.3054,1.24902 -0.003,0.0268 -0.0163,0.0545 -0.0212,0.0822 0.044,-0.0202 0.073,-0.0272 0.12454,-0.0548 0.15828,-0.0847 0.28827,-0.14918 0.40463,-0.19482 0.11636,-0.0456 0.21224,-0.09 0.3762,-0.061 0.0251,0.004 0.0535,0.0192 0.0811,0.031 -0.15744,-0.23545 -0.38521,-0.50646 -0.71107,-0.80408 -0.35166,-0.3212 -0.63072,-0.61208 -0.81081,-0.84233 -0.09,-0.11512 -0.15663,-0.20367 -0.20205,-0.33021 -0.0227,-0.0633 -0.0595,-0.15145 -5.3e-4,-0.29094 0.0295,-0.0697 0.095,-0.13904 0.16071,-0.1726 0.0657,-0.0336 0.12411,-0.0393 0.17002,-0.0393 0.17219,0 0.25534,0.0568 0.37103,0.11937 0.1157,0.0626 0.24216,0.14518 0.38034,0.24495 0.27637,0.19952 0.59644,0.46727 0.90538,0.76326 l 0.56482,0.54105 v -0.25371 c 0,-0.24648 -0.0276,-0.50314 -0.0693,-0.7028 -0.0417,-0.19966 -0.13962,-0.35564 -0.0977,-0.31368 -0.392,-0.392 -0.46733,-1.03351 -0.44441,-1.73529 0.0229,-0.70179 0.18413,-1.46772 0.50074,-2.07998 0.19448,-0.37608 0.35931,-0.64499 0.50643,-0.82941 0.0736,-0.0922 0.13832,-0.16415 0.23409,-0.22531 0.0479,-0.0306 0.10669,-0.0619 0.19431,-0.0703 0.0876,-0.008 0.2072,0.0261 0.27957,0.092 0.14472,0.13171 0.13562,0.2545 0.13694,0.35812 10e-4,0.10361 -0.0132,0.21111 -0.0388,0.33796 -0.0512,0.2537 -0.15051,0.58129 -0.30541,0.99167 -0.34332,0.90962 -0.34298,1.45292 0.016,2.79518 0.13156,0.49191 0.25067,1.02197 0.33744,1.48518 0.0868,0.46322 0.14315,0.84527 0.14315,1.10484 0,0.26255 0.2467,0.87417 0.68109,1.54926 0.14433,0.2243 0.3294,0.46702 0.50643,0.7059 a 0.30880005,0.30880005 0 0 1 0.31213,-0.30334 l 1.16323,0.24701 c 0.003,8e-4 0.003,2.4e-4 0.007,0.001 -0.002,-0.002 -0.002,-0.002 -0.003,-0.003 -0.23993,-0.23046 -0.5877,-0.5453 -1.04955,-0.96014 -0.54013,-0.48516 -0.9828,-0.92679 -1.27176,-1.26194 -0.14447,-0.16758 -0.24925,-0.30162 -0.32039,-0.43615 -0.0356,-0.0673 -0.0788,-0.1275 -0.0692,-0.26975 0.005,-0.0711 0.043,-0.17572 0.12041,-0.24185 0.0774,-0.0661 0.16336,-0.0826 0.22272,-0.0847 0.27512,-0.01 0.46145,0.11638 0.68937,0.27027 0.22792,0.15389 0.46593,0.35909 0.67644,0.5917 0.20665,0.22834 0.39026,0.39822 0.53434,0.50539 0.0619,0.0461 0.0655,0.0379 0.10903,0.06 -0.005,-0.0596 0.004,-0.0739 -0.0248,-0.1788 -0.0147,-0.0531 -0.0255,-0.0981 -0.0331,-0.14366 -0.008,-0.0456 -0.031,-0.0737 0.008,-0.19896 0.0194,-0.0626 0.10474,-0.19205 0.24133,-0.21962 0.13659,-0.0276 0.21106,0.0261 0.2496,0.0527 0.0771,0.0532 0.09,0.0842 0.11575,0.11988 0.103,0.14278 0.2138,0.3608 0.37207,0.69764 0.2777,0.591 0.97089,1.41213 1.41284,1.7017 0.63122,0.4136 1.07678,1.16882 1.31,1.92288 0.0468,0.1515 0.0778,0.30226 0.10541,0.45217 0.008,-0.0699 0.0198,-0.12259 0.0274,-0.19585 0.17215,-1.66795 0.0747,-2.37845 -0.45372,-3.41427 -0.35451,-0.6949 -0.55838,-1.11296 -0.67954,-1.46916 -0.12115,-0.35619 -0.14935,-0.64853 -0.14935,-1.00768 0,0.0465 -0.036,-0.11575 -0.13487,-0.27182 -0.0989,-0.15608 -0.24257,-0.33766 -0.39636,-0.49145 -0.14526,-0.14526 -0.25369,-0.25532 -0.33641,-0.36897 -0.0414,-0.0568 -0.0829,-0.11125 -0.10542,-0.21652 -0.0225,-0.10528 0.0381,-0.30213 0.14469,-0.37724 0.10655,-0.0751 0.18687,-0.0762 0.26045,-0.0801 0.0736,-0.004 0.14625,2.7e-4 0.23048,0.009 0.16846,0.0171 0.38143,0.0528 0.65939,0.1018 0.32589,0.0574 0.5707,0.0629 0.70641,0.0393 0.13572,-0.0237 0.12302,-0.0399 0.12299,-0.0398 -2e-5,8e-5 0.009,-0.092 -0.0796,-0.26872 -0.089,-0.17668 -0.25941,-0.4193 -0.51056,-0.70641 -0.19614,-0.22424 -0.31901,-0.37003 -0.39171,-0.55449 -0.0182,-0.0461 -0.0416,-0.0963 -0.031,-0.19792 0.0105,-0.10162 0.13949,-0.26515 0.2558,-0.29249 0.1163,-0.0274 0.17563,-5.3e-4 0.22582,0.0176 0.0322,0.0115 0.059,0.0273 0.0868,0.0418 -0.0396,-0.25784 -0.14564,-0.72157 -0.38034,-1.51722 -0.12678,-0.42978 -0.24474,-0.8561 -0.33331,-1.19992 -0.0886,-0.34383 -0.14758,-0.56052 -0.16123,-0.73639 0.004,0.053 -0.031,-0.0761 -0.12351,-0.19431 -0.0925,-0.11818 -0.2264,-0.25329 -0.36484,-0.36121 -0.50877,-0.39664 -0.79855,-0.9238 -0.75912,-1.5503 0.0394,-0.62649 0.34925,-1.32849 0.89762,-2.25826 0.34425,-0.50068 0.13497,-0.5758 0.97151,-1.21853 0.11963,-0.014 0.29223,0.091 0.339,0.17932 0.0935,0.17672 0.0512,0.24294 0.0388,0.34778 -0.0124,0.10485 -0.0361,0.22751 -0.0708,0.37931 -0.0694,0.3036 -0.18326,0.72045 -0.33951,1.26504 -0.1037,0.36139 -0.0288,1.07935 0.14107,1.39681 0.2626,0.49067 0.65661,1.67591 0.9617,2.79311 l 0.007,-0.67748 c 0.011,-1.0198 0.0445,-1.70345 0.11834,-2.12545 0.0185,-0.10549 0.0391,-0.19506 0.0687,-0.27802 0.0297,-0.083 0.0598,-0.1659 0.1602,-0.24959 0.10039,-0.0837 0.31588,-0.10025 0.4253,-0.0403 0.10941,0.0599 0.15577,0.13067 0.20257,0.20309 0.1914,0.29616 0.25977,0.70183 0.32349,1.23765 0.0637,0.53582 0.0953,1.18306 0.0961,1.85983 0.001,0.91085 -0.0564,1.85557 -0.17001,2.66237 0.37892,-0.87376 0.90825,-1.80394 1.37097,-2.35386 0.69931,-0.83108 0.92029,-1.47768 0.94,-2.78846 0.01,-0.66528 0.0175,-1.03961 0.10748,-1.31465 0.0225,-0.0688 0.0398,-0.1486 0.15762,-0.23409 0.0589,-0.0427 0.15622,-0.0738 0.24133,-0.0646 0.0851,0.009 0.14574,0.046 0.18655,0.078 0.16323,0.12834 0.17861,0.23267 0.24133,0.38861 0.27534,0.68457 0.26718,1.57186 0.0853,2.44533 -0.18192,0.87347 -0.5419,1.73162 -1.06763,2.33164 -0.18836,0.21498 -0.52952,0.77308 -0.87333,1.44953 -0.34381,0.67643 -0.70514,1.48241 -0.99684,2.24637 -0.50383,1.31953 -0.7545,2.03784 -0.80719,2.46858 -0.0527,0.43075 0.036,0.58537 0.31678,1.01389 0.24847,0.37921 0.40706,0.72327 0.45062,1.08986 0.0436,0.36659 -0.032,0.73252 -0.18811,1.14308 -0.25515,0.67111 -0.35248,1.47893 -0.33589,2.30787 0.0443,-0.0209 0.0902,-0.0353 0.13022,-0.0377 0.0718,-0.004 0.12394,0.0107 0.16588,0.0263 0.0839,0.0313 0.13704,0.0712 0.19431,0.11679 0.11454,0.0912 0.23264,0.2136 0.36845,0.37052 0.27162,0.31383 0.6033,0.76125 0.94258,1.28002 0.0139,0.0213 0.024,0.0331 0.0377,0.0538 -0.0382,-0.0642 -0.0634,-0.11439 -0.10542,-0.18242 -0.3156,-0.51066 -0.49891,-0.80346 -0.54725,-1.11311 -0.0242,-0.15483 0.0321,-0.38026 0.18242,-0.48834 0.15032,-0.10821 0.29193,-0.11059 0.43408,-0.11059 0.51456,0 0.8816,0.47162 0.8816,0.98702 0,0.13065 0.0391,0.27319 0.0951,0.3762 0.056,0.10301 0.12868,0.15453 0.14418,0.15968 0.19428,0.0648 0.28678,0.20913 0.35812,0.35244 0.0713,0.1433 0.12192,0.30906 0.16278,0.50229 0.0817,0.38646 0.1211,0.88077 0.11266,1.43867 -0.0103,0.68184 0.0278,1.13757 0.10593,1.40043 0.0781,0.26288 0.14413,0.32085 0.30386,0.37724 0.42757,0.15097 1.00487,0.5095 1.40611,0.8537 0.14056,0.12057 0.33831,0.21997 0.52555,0.26923 0.18725,0.0492 0.36179,0.0408 0.43719,0.0119 0.4847,-0.186 1.04497,0.0357 1.22938,0.51625 0.0502,0.13083 0.073,0.14018 0.0925,0.16278 0.0807,-0.11603 0.22428,-0.48471 0.22428,-1.01648 0,-0.73288 -0.32658,-1.85047 -0.78342,-2.81843 -0.45684,-0.96796 -1.08555,-1.7965 -1.44901,-1.98799 -1.01695,-0.53579 -1.63862,-1.20579 -1.62677,-1.99161 7.9e-4,-0.0487 0.005,-0.0993 0.0269,-0.16175 0.022,-0.0625 0.0709,-0.14618 0.16226,-0.19844 0.0914,-0.0523 0.20005,-0.0523 0.26924,-0.0341 0.0692,0.0182 0.11403,0.0466 0.15245,0.0744 0.15366,0.11141 0.2469,0.25479 0.36638,0.45992 0.18923,0.32489 0.44103,0.49035 0.53123,0.51056 0.01,0.002 0.007,0.002 0.0114,0.003 -0.004,0.004 0.0134,-0.006 0.0134,-0.10439 0,0.0183 -0.009,-0.0541 -0.0419,-0.14366 -0.0332,-0.0895 -0.0854,-0.20584 -0.15141,-0.33486 -0.13211,-0.25806 -0.31926,-0.56762 -0.52296,-0.8537 -0.58862,-0.82662 -0.77011,-1.59927 -0.58446,-2.52749 0.12953,-0.64765 -0.002,-1.31483 -0.15865,-1.50327 -0.34327,-0.4136 -0.49352,-1.04125 -0.40618,-1.58543 0.0441,-0.27469 -0.18117,-0.79969 -0.52968,-1.05833 -0.18116,-0.13444 -0.31819,-0.23823 -0.42116,-0.32505 -0.0515,-0.0434 -0.0942,-0.0816 -0.13488,-0.12712 -0.0407,-0.0455 -0.0982,-0.087 -0.11472,-0.2341 -0.008,-0.0736 0.0174,-0.18136 0.0729,-0.24959 0.0555,-0.0682 0.11677,-0.0954 0.16123,-0.11059 0.0889,-0.0303 0.14102,-0.0266 0.19844,-0.0253 0.11484,0.002 0.24176,0.02 0.41186,0.0439 0.53236,0.0748 0.97598,0.43437 1.26194,0.85576 0.28596,0.4214 0.44783,0.958 0.17312,1.4025 0.0218,-0.0353 -0.016,0.0887 0.0305,0.26097 0.0465,0.17223 0.1448,0.38666 0.27646,0.57464 0.13457,0.19212 0.23767,0.32614 0.28939,0.37259 0.002,0.002 -7.9e-4,7.9e-4 0.001,0.003 0.0192,-0.0104 0.11036,-0.0675 0.25476,-0.22324 0.15368,-0.16571 0.3592,-0.41683 0.63201,-0.75292 0.73064,-0.90014 1.55697,-1.50487 2.34714,-1.56528 0.24891,-0.019 0.42048,-0.0415 0.49403,-0.0687 0.0736,-0.0272 0.0638,-0.0119 0.0935,-0.10336 0.0595,-0.183 0.0439,-0.80917 -0.0527,-2.01279 -0.0709,-0.88375 -0.0901,-1.50159 -0.0419,-1.9358 0.0241,-0.2171 0.0605,-0.39061 0.14883,-0.54622 0.0883,-0.15561 0.28249,-0.29094 0.47181,-0.29094 0.24885,0 0.50653,0.19714 0.57361,0.42943 0.0671,0.23229 0.0294,0.47122 -0.0568,0.74311 -0.0435,0.13701 -0.0853,0.51571 -0.0837,0.94619 0.002,0.43049 0.0367,0.92835 0.10387,1.37615 0.11915,0.79455 0.2288,1.1777 0.31987,1.27951 0.0455,0.0509 0.0859,0.0746 0.21756,0.0961 0.13163,0.0215 0.34082,0.0235 0.6258,0.0145 l 0.91984,-0.0295 -0.0424,-2.21485 c -0.0262,-1.36841 -0.18246,-3.25202 -0.33693,-4.11913 -0.10172,-0.57099 -0.14728,-0.99553 -0.12092,-1.32188 0.0132,-0.16317 0.0404,-0.30662 0.12454,-0.44235 0.0841,-0.13573 0.26651,-0.2465 0.43304,-0.2465 0.22921,0 0.45343,0.16916 0.5271,0.36897 0.0737,0.19982 0.0502,0.41004 -0.0294,0.61754 0.002,-0.004 -0.0202,0.10358 -0.015,0.24804 0.005,0.14446 0.0264,0.33338 0.062,0.54674 0.0713,0.42672 0.20075,0.95183 0.36846,1.45676 0.17804,0.53604 0.31362,1.08593 0.39067,1.55236 0.0385,0.23322 0.0626,0.44511 0.0687,0.62942 0.002,0.0473 -0.001,0.0877 -0.002,0.13126 0.0957,-0.15057 0.18414,-0.27698 0.30386,-0.37828 0.0319,-0.027 0.0667,-0.0535 0.12092,-0.078 0.0542,-0.0245 0.14084,-0.0524 0.25012,-0.0212 0.064,0.0183 0.11449,0.0597 0.15554,0.1049 0.13857,-0.0497 0.36001,-0.16031 0.60668,-0.32194 0.22489,-0.14735 0.39885,-0.25912 0.53899,-0.33951 0.14014,-0.0804 0.2133,-0.14955 0.41186,-0.15193 0.0993,-0.001 0.2756,0.0832 0.33228,0.20257 0.0567,0.11936 0.0397,0.19774 0.0295,0.262 -0.0204,0.12851 -0.0638,0.23818 -0.12093,0.38705 -0.0837,0.2182 -0.21236,0.40867 -0.36638,0.55708 -0.15403,0.1484 -0.33403,0.2713 -0.57619,0.2713 0.0175,0 -0.16495,0.0438 -0.34675,0.14779 -0.18181,0.10399 -0.39106,0.25387 -0.56793,0.41393 -0.21168,0.19156 -0.3996,0.32876 -0.58808,0.40669 -0.0426,0.0176 -0.0874,0.0341 -0.13642,0.045 0.028,0.10018 0.0551,0.20159 0.0904,0.29456 l 0.22893,0.60203 0.42788,-0.49299 c 0.22383,-0.25808 0.42211,-0.44625 0.61547,-0.56224 0.0967,-0.058 0.18885,-0.12253 0.36897,-0.0956 0.0901,0.0135 0.20173,0.0788 0.25786,0.16485 0.0561,0.0861 0.0661,0.16846 0.0661,0.23565 0,0.38709 -0.20756,0.7246 -0.53434,0.92655 0.0389,-0.0241 -0.005,0.005 -0.0408,0.0946 -0.0355,0.0896 -0.0721,0.22713 -0.10129,0.39068 -0.0583,0.32709 -0.09,0.75957 -0.0899,1.19062 7e-5,0.43105 0.032,0.86352 0.0904,1.19063 0.0292,0.16355 0.0657,0.30107 0.10128,0.39067 0.0356,0.0896 0.0802,0.11857 0.0414,0.0946 0.15689,0.097 0.2201,0.23564 0.26716,0.37517 0.0471,0.13953 0.0727,0.29522 0.0868,0.47026 0.0282,0.35006 0.005,0.77798 -0.0687,1.24075 -0.0852,0.53295 -0.0988,0.8444 -0.092,0.97875 0.005,-0.002 2.6e-4,2.6e-4 0.006,-0.002 0.10309,-0.0396 0.15422,-0.0918 0.19688,-0.21911 0.0427,-0.12734 0.0551,-0.33477 0.003,-0.60668 -0.12341,-0.64555 0.051,-1.30392 0.34003,-1.75648 0.14451,-0.22628 0.31647,-0.41722 0.57619,-0.49196 0.12987,-0.0374 0.28701,-0.0321 0.42065,0.0305 0.11008,0.0516 0.19524,0.13799 0.26717,0.23616 0.0141,-0.005 0.032,-0.012 0.0816,-0.0419 -0.0614,-0.0392 -0.11352,-0.09 -0.13487,-0.1328 -0.0505,-0.10129 -0.0429,-0.15769 -0.0424,-0.21394 5.3e-4,-0.0563 0.006,-0.11066 0.015,-0.1726 0.0178,-0.12389 0.0496,-0.27644 0.0941,-0.47026 0.11701,-0.51041 0.21673,-1.24505 0.21911,-1.53789 0.002,-0.28047 0.11685,-0.55436 0.27595,-0.85835 0.15911,-0.30398 0.37212,-0.62075 0.61288,-0.894 l 0.75241,-0.85421 c -0.006,-0.0103 -0.0198,-0.0187 -0.0248,-0.0289 -0.0513,-0.1064 -0.0605,-0.20521 -0.0605,-0.31264 0,-0.23327 0.0891,-0.38512 0.19999,-0.59996 0.11093,-0.21485 0.25834,-0.45247 0.42375,-0.67386 0.136,-0.18205 0.23898,-0.31877 0.32297,-0.4191 0.042,-0.0502 0.0772,-0.0903 0.12506,-0.13177 0.0239,-0.0208 0.0499,-0.0431 0.0992,-0.0667 0.0493,-0.0236 0.14385,-0.0577 0.26096,-0.0145 0.11708,0.0432 0.18019,0.15074 0.19948,0.21084 0.0194,0.0601 0.0188,0.0971 0.0186,0.13022 -5.3e-4,0.0661 -0.009,0.11737 -0.0212,0.17984 -0.0236,0.12494 -0.0637,0.28455 -0.1173,0.49712 -0.12375,0.49106 -0.35685,0.91736 -0.60823,1.18546 -0.0761,0.0811 -0.15448,0.1636 -0.262,0.21239 a 0.30880005,0.30880005 0 0 1 -0.01,0.14056 l -0.61288,0.9586 c -0.29524,0.46196 -0.56683,1.33943 -0.56948,1.77405 -0.002,0.35278 -0.0657,0.73096 -0.17311,1.07435 0.27028,-0.31289 0.55107,-0.59 0.81804,-0.78393 0.15959,-0.11592 0.31244,-0.20657 0.46612,-0.26613 0.15368,-0.0596 0.31986,-0.10268 0.50798,-0.0305 0.21461,0.0823 0.38483,0.18672 0.51056,0.32194 0.12573,0.13523 0.21385,0.32051 0.18138,0.51987 -0.0101,0.0623 -0.0493,0.11078 -0.0801,0.1633 0.1845,-0.15233 0.35789,-0.31508 0.47026,-0.46303 0.12669,-0.16678 0.17622,-0.31546 0.17622,-0.35501 0,-0.21217 0.0566,-0.40951 0.16846,-0.57103 0.11186,-0.16151 0.29946,-0.29714 0.52762,-0.29714 0.20002,0 0.41301,0.0491 0.55294,0.22221 0.13992,0.17315 0.14119,0.39613 0.094,0.58808 -0.0943,0.38389 -0.37007,0.80984 -0.81959,1.38131 -0.23926,0.30417 -0.5217,0.57556 -0.79789,0.77928 -0.22876,0.16876 -0.43893,0.2992 -0.67851,0.34107 0.036,0.0373 0.0507,0.0569 0.0951,0.10128 0.40308,0.40308 0.69051,0.97396 0.65422,1.49914 -0.004,0.0531 -0.008,0.0817 -0.0119,0.12608 0.62687,-0.52781 1.25302,-1.22953 1.74356,-1.96318 0.3569,-0.53378 0.64479,-1.07745 0.82166,-1.5565 0.17696,-0.47904 0.23193,-0.89417 0.17828,-1.13843 -0.14408,-0.65601 -0.0641,-1.54321 0.19741,-2.15491 0.0912,-0.21344 0.16057,-0.37063 0.22066,-0.48524 0.03,-0.0573 0.0485,-0.10002 0.10697,-0.16381 0.0292,-0.0319 0.0667,-0.0906 0.20257,-0.1111 0.0679,-0.0103 0.16068,0.008 0.22272,0.0486 0.0621,0.0406 0.0933,0.0888 0.11162,0.12402 0.0732,0.14103 0.0452,0.17482 0.0444,0.23772 -8e-4,0.0629 -0.006,0.13263 -0.015,0.21807 -0.004,0.0417 -0.0164,0.12343 -0.0222,0.1726 0.32622,-0.4115 0.74432,-0.79641 1.1746,-1.05058 0.43334,-0.25598 0.77502,-0.43534 1.0356,-0.54519 0.0488,-0.0206 0.086,-0.0276 0.12919,-0.0429 a 41.696097,41.696097 0 0 0 -6.29576,-8.08686 41.696097,41.696097 0 0 0 -32.45848,-12.10624 z m 39.21311,20.98838 c -0.17955,0.19924 -0.44716,0.44634 -0.82063,0.75603 -0.79146,0.65632 -1.42582,1.62999 -1.72186,2.64842 l -0.031,0.10645 c 0.50728,-0.58948 1.26605,-1.20674 1.91409,-1.52756 0.37195,-0.18413 0.8341,-0.52693 1.26298,-0.88625 a 41.696097,41.696097 0 0 0 -0.60358,-1.09709 z m 0.73793,1.35703 a 41.696097,41.696097 0 0 1 0.92708,1.89755 41.696097,41.696097 0 0 0 -0.92708,-1.89755 z m 0.4806,1.06143 c -0.002,0 -0.003,5.3e-4 -0.005,5.3e-4 -0.0176,0 -0.3035,0.0767 -0.60565,0.22324 -0.30213,0.14654 -0.65738,0.3494 -0.98495,0.55862 -0.0567,0.0362 -0.0985,0.0695 -0.14211,0.10284 0.41376,-0.1988 1.34934,-0.63105 1.73736,-0.88522 z m -15.89257,0.0382 c -0.0183,0.003 -0.20709,0.10439 -0.44597,0.39222 -0.3508,0.42269 -0.95233,0.59415 -1.48932,0.45372 -0.182,-0.0476 -0.27986,-0.0324 -0.51779,0.18759 -0.23795,0.21997 -0.55358,0.65949 -0.96325,1.35754 -0.96584,1.6457 -1.05882,2.10513 -1.0604,5.01623 -0.001,1.98851 0.23798,3.80202 0.53588,4.50877 l 0.27957,0.663 0.20102,-0.47025 c 0.23842,-0.55881 0.4701,-1.7222 0.47904,-2.4536 0.005,-0.37049 -0.0339,-0.73662 -0.0946,-1.01027 -0.0303,-0.13683 -0.0669,-0.25083 -0.0997,-0.32401 -0.0328,-0.0732 -0.073,-0.0964 -0.03,-0.0698 -0.15744,-0.0973 -0.22511,-0.23102 -0.28421,-0.37155 -0.0591,-0.14052 -0.10149,-0.29912 -0.13591,-0.47439 -0.0688,-0.35054 -0.10241,-0.7667 -0.10542,-1.17564 -0.003,-0.40893 0.0237,-0.80637 0.0899,-1.12654 0.0331,-0.16009 0.0731,-0.3003 0.14366,-0.42892 0.0706,-0.12862 0.21132,-0.28939 0.42995,-0.28939 0.10921,0 0.21306,0.0512 0.27699,0.10904 0.0639,0.0578 0.10088,0.11932 0.13022,0.18035 0.0587,0.12206 0.0881,0.25189 0.10956,0.40256 0.0123,0.0859 0.0129,0.19091 0.0181,0.28887 0.1657,-0.31689 0.34543,-0.63396 0.5302,-0.91415 0.21083,-0.31972 0.41743,-0.59385 0.60979,-0.7891 0.0962,-0.0976 0.18489,-0.17736 0.30127,-0.23668 0.0582,-0.0297 0.12659,-0.0568 0.21911,-0.0584 0.0925,-0.002 0.21108,0.0411 0.28474,0.11472 0.13974,0.13974 0.12863,0.28287 0.11833,0.39222 -0.0103,0.10935 -0.0391,0.21413 -0.0801,0.32815 -0.0819,0.22803 -0.21561,0.48788 -0.38758,0.75034 -0.10444,0.1594 -0.28431,0.67207 -0.41651,1.28881 -0.1322,0.61674 -0.23765,1.3557 -0.28215,2.05465 -0.011,0.173 -0.0131,0.31181 -0.0196,0.46922 0.0732,-0.12478 0.16299,-0.2443 0.26976,-0.36121 0.23624,-0.2587 0.54777,-0.50045 0.8971,-0.6811 0.7588,-0.39239 1.06713,-0.81911 1.23765,-1.72806 0.16665,-0.88839 0.16215,-1.41523 -0.0212,-1.78749 -0.18334,-0.37225 -0.58436,-0.67652 -1.37201,-1.05213 0.68207,0.15069 -2.30714,-1.39042 -0.91209,-1.64124 0.85035,0.0423 0.54489,0.0943 1.67896,0.3514 -0.17497,-0.26016 0.0883,-1.45717 -0.12298,-1.86552 z m -4.33979,0.73794 c -0.41841,0 -0.70946,0.10592 -1.07952,0.46199 -0.37006,0.35606 -0.79171,0.97945 -1.33119,1.95801 -0.39934,0.72438 -0.5839,1.23116 -0.59996,1.69499 -0.0161,0.46383 0.13004,0.92236 0.47852,1.57303 0.23687,0.44226 0.4905,0.97844 0.68782,1.42731 0.003,-0.0353 0.006,-0.0486 0.01,-0.0863 0.0697,-0.77694 0.30622,-2.15209 0.53227,-3.11093 0.23311,-0.98878 0.73706,-2.18096 1.21491,-2.78845 -0.18674,0.27523 1.24686,-1.2132 0.0873,-1.12965 z m 20.82198,0.3731 c -0.21687,0.12117 -0.48118,0.26692 -0.65422,0.36587 l 0.77359,-0.10438 a 41.696097,41.696097 0 0 0 -0.11937,-0.26149 z m 0.19741,0.43202 a 41.696097,41.696097 0 0 1 0.14883,0.34623 41.696097,41.696097 0 0 0 -0.14883,-0.34623 z m 0.22789,0.54312 -0.83819,0.34209 c -0.79109,0.32286 -1.92629,0.58761 -2.65307,0.60565 -0.35764,0.009 -1.18743,0.39225 -1.84743,0.87798 -0.33001,0.24288 -0.62809,0.50803 -0.83303,0.74208 -0.0951,0.10859 -0.15885,0.20983 -0.20567,0.29404 0.077,0.0156 0.13973,0.0309 0.25115,0.0465 0.35561,0.0497 0.85982,0.0933 1.41387,0.11575 1.60516,0.0649 2.36877,-0.13237 4.20594,-1.09089 0.39924,-0.2083 0.71732,-0.3434 1.07332,-0.51314 0.23007,0.61408 0.44562,1.23351 0.64647,1.85776 -0.009,0.11825 -0.0681,0.2683 -0.18138,0.33177 -0.13183,0.0739 -0.23717,0.0614 -0.33331,0.047 -0.0962,-0.0144 -0.19144,-0.0433 -0.29818,-0.0842 -0.022,-0.008 -0.36658,-0.0332 -0.76067,0.0305 -0.3941,0.0637 -0.87056,0.18402 -1.31775,0.34261 -0.99076,0.35137 -2.61696,0.60625 -3.73518,0.58963 -1.23259,-0.0183 -2.56928,0.28806 -3.99665,0.92863 -0.8782,0.39411 -1.47974,0.62726 -1.97817,0.7214 -0.49843,0.0941 -0.91163,0.0262 -1.27435,-0.16795 -0.32757,-0.17532 -0.77386,-0.22377 -1.1038,-0.16278 -0.16498,0.0305 -0.29826,0.0887 -0.36949,0.14314 -0.0712,0.0545 -0.0786,0.0796 -0.0786,0.11834 0,-0.0374 0.0371,0.0937 0.17983,0.23668 0.14276,0.14293 0.35857,0.30873 0.60049,0.45837 0.48383,0.29928 1.0985,0.5271 1.38596,0.5271 0.0731,0 0.49115,-0.1136 0.94929,-0.32298 0.45815,-0.20938 0.99832,-0.50212 1.49707,-0.82217 0.52848,-0.33912 1.08495,-0.62541 1.56993,-0.81907 0.24248,-0.0968 0.46669,-0.1705 0.66714,-0.21549 0.20047,-0.045 0.37122,-0.072 0.55862,-0.0248 0.1391,0.035 0.24119,0.0526 0.36691,0.15967 0.0628,0.0536 0.14585,0.17214 0.13487,0.3111 -0.011,0.13895 -0.089,0.22044 -0.14573,0.26768 -0.11333,0.0945 -0.21885,0.12865 -0.36535,0.17725 -0.14651,0.0486 -0.32918,0.0974 -0.55449,0.14986 -0.31805,0.074 -0.66254,0.19874 -0.94619,0.33538 -0.28366,0.13664 -0.51146,0.30301 -0.56793,0.37104 -0.037,0.0446 -0.0486,0.069 -0.0594,0.0894 0.017,0.0109 0.0327,0.0228 0.0889,0.0465 0.29519,0.12499 1.05018,0.2699 2.31924,0.43873 0.0838,0.0112 0.14921,0.021 0.20412,0.032 0.0275,0.006 0.0521,0.0112 0.0801,0.0196 0.028,0.008 0.0514,0.001 0.13281,0.0687 0.0407,0.0339 0.12552,0.12638 0.11317,0.26924 -0.0124,0.14285 -0.10468,0.21256 -0.14728,0.23926 -0.0852,0.0534 -0.10732,0.0446 -0.13539,0.0496 -0.0561,0.01 -0.10252,0.0123 -0.16588,0.015 -0.25347,0.0105 -0.72583,10e-4 -1.39578,-0.0269 -0.6547,-0.0277 -1.2508,-0.0148 -1.66863,0.0253 -0.1369,0.0132 -0.21389,0.0314 -0.3049,0.0486 0.066,0.066 0.14243,0.13747 0.26149,0.21756 0.29385,0.19766 0.72394,0.40969 1.19786,0.59117 0.94783,0.36297 2.09998,0.594 2.67632,0.5054 l 1.3901,-0.21394 c 0.34309,-0.053 0.49911,0.41297 0.19327,0.57723 l -1.07539,0.57825 c -0.31911,0.17159 -0.65019,0.29798 -0.94568,0.36794 -0.21993,0.0522 -0.41291,0.10144 -0.6103,0.0537 0.066,0.12967 0.16226,0.28542 0.29559,0.43925 0.0379,0.0437 0.0681,0.0806 0.0956,0.12093 0.0138,0.0202 0.0268,0.041 0.0413,0.0718 0.0146,0.0309 0.0409,0.0675 0.0341,0.17053 -0.003,0.0515 -0.0243,0.12696 -0.077,0.18758 -0.0527,0.0606 -0.12506,0.0924 -0.17621,0.10284 -0.10232,0.0208 -0.1423,-7.9e-4 -0.17467,-0.0114 -0.0647,-0.0209 -0.0956,-0.0417 -0.13591,-0.0661 -0.16125,-0.0977 -0.39183,-0.27668 -0.71675,-0.54778 -0.16714,-0.13944 -0.35242,-0.27915 -0.54726,-0.41857 -0.0124,0.0542 -0.0249,0.10513 -0.0444,0.14986 -0.0544,0.12424 -0.13663,0.27568 -0.24546,0.47904 -0.58677,1.09639 -1.90796,1.59832 -3.12901,1.21078 -0.0775,-0.0246 -0.093,-0.0164 -0.15348,-0.0295 0.0885,0.0921 0.1769,0.18585 0.33693,0.30748 0.1473,0.11195 0.25236,0.19407 0.33435,0.27543 0.041,0.0407 0.084,0.0583 0.12661,0.1881 0.0213,0.0649 0.0263,0.20839 -0.0548,0.30851 -0.0811,0.10013 -0.17162,0.11463 -0.22221,0.12093 -0.10117,0.0126 -0.14411,-0.004 -0.2036,-0.0171 -0.0595,-0.0134 -0.12388,-0.032 -0.20103,-0.0563 -0.15431,-0.0486 -0.35699,-0.12039 -0.61856,-0.216 -0.78189,-0.28582 -1.66597,-0.31617 -2.92179,-0.0718 -1.54129,0.29988 -1.86424,0.51546 -2.81895,1.87843 -0.31094,0.44391 -0.57494,0.86569 -0.74517,1.17668 -0.0507,0.0927 -0.0727,0.14719 -0.1049,0.216 0.12915,0.001 0.29693,-0.01 0.50384,-0.0403 0.44881,-0.0666 1.03199,-0.20519 1.62264,-0.38086 0.59065,-0.17567 1.19117,-0.38861 1.68,-0.60203 0.48883,-0.21342 0.87515,-0.45129 0.98237,-0.56637 0.35716,-0.38338 0.62881,-0.63213 0.84698,-0.78032 0.10908,-0.0741 0.19399,-0.13289 0.34416,-0.15038 0.0751,-0.009 0.18832,0.001 0.28267,0.076 0.0944,0.0747 0.13075,0.18667 0.13798,0.26303 0.0144,0.15273 -0.0272,0.24419 -0.076,0.3576 -0.0487,0.11341 -0.11691,0.23754 -0.20618,0.37982 -0.17855,0.28458 -0.44182,0.63794 -0.79531,1.04955 -0.0687,0.08 -0.10267,0.12744 -0.14831,0.18604 0.0913,0.0155 0.18517,0.0487 0.26355,0.15864 0.0591,0.0829 0.0766,0.19141 0.0672,0.27079 -0.009,0.0794 -0.0357,0.13784 -0.0646,0.18914 -0.11571,0.20516 -0.30057,0.35362 -0.57258,0.54415 -0.59767,0.41864 -1.38304,0.60237 -2.03708,0.43821 -1.36187,-0.3418 -3.01004,0.46401 -4.06901,2.10272 -0.506,0.78302 -0.72464,1.12723 -0.85214,2.12183 -0.1275,0.9946 -0.13663,2.63395 -0.14004,5.83634 -0.003,3.03009 -0.0166,4.66858 -0.12454,5.65288 -0.0337,0.30717 -0.10414,0.47667 -0.1633,0.68316 8.50412,-0.34152 16.73043,-1.24108 21.1584,-2.23913 -0.38105,0.88474 0.44139,-0.85624 0,0 5.57688,-10.9105 4.83838,-21.10951 0.12092,-32.41818 z m -39.47511,0.97255 c -0.0113,0.0833 -0.0224,0.16334 -0.0522,0.24701 -0.006,0.0156 0.003,0.074 0,0.10025 0.0183,-0.0682 0.053,-0.29973 0.0522,-0.34726 z m 11.03033,0.32453 c 0.18646,0.0295 0.28709,0.15338 0.35709,0.26665 0.10253,0.16592 0.10245,0.32058 0.0946,0.49092 -0.008,0.17034 -0.0402,0.35863 -0.0909,0.56534 -0.10149,0.41341 -0.27874,0.89727 -0.51212,1.37253 -0.22809,0.4645 -0.39101,0.76423 -0.54157,0.94671 -0.0376,0.0456 -0.0627,0.0887 -0.16278,0.13901 -0.05,0.0251 -0.14313,0.0576 -0.25631,0.0202 -0.11319,-0.0374 -0.18214,-0.13751 -0.20516,-0.19844 -0.0461,-0.12185 -0.0267,-0.17084 -0.0191,-0.23202 0.008,-0.0612 0.0214,-0.12402 0.0403,-0.19844 0.13462,-0.53022 0.37018,-1.4895 0.52193,-2.12597 -0.11323,0.40472 0.22627,-1.06431 0.77412,-1.04645 z M 198.8013,147.098 c 0.0252,0.1042 0.0566,0.20387 0.0982,0.28473 0.12744,0.24783 0.77308,0.79508 1.35341,1.11983 0.21443,0.12 0.40734,0.20326 0.56844,0.26097 0.14333,0.20478 -0.29364,-0.42834 -0.60203,-0.69092 -0.79609,-0.89437 -0.26298,-0.17733 -1.418,-0.97461 z m 28.10888,0.063 c -0.2708,-0.008 -0.54424,0.0325 -0.79582,0.12816 -0.54026,0.2054 -0.68565,0.50373 -0.63562,0.84233 0.05,0.33859 0.36993,0.77271 1.02061,1.06918 0.36144,0.16468 0.58778,0.21633 0.87385,0.17725 0.28608,-0.0391 0.65636,-0.18948 1.22111,-0.49196 a 0.30880005,0.30880005 0 0 0 5.3e-4,0 c 0.0712,-0.0381 0.14598,-0.10045 0.21859,-0.14573 -0.009,-0.0126 -0.0251,-0.0298 -0.031,-0.0403 -0.0273,-0.0481 -0.0395,-0.0838 -0.0543,-0.12609 -0.0295,-0.0847 -0.0589,-0.18919 -0.0961,-0.32814 -0.10436,-0.39009 -0.45898,-0.7334 -0.94154,-0.92553 -0.24129,-0.0961 -0.50953,-0.15154 -0.78032,-0.15916 z m -24.58558,1.4056 c 0.26731,0.33649 0.55156,0.67614 0.85008,1.00459 0.64814,0.71313 1.34316,1.37607 1.95492,1.8526 0.21533,0.16774 0.41728,0.2984 0.60668,0.41083 5.3e-4,-0.0162 -0.002,-0.0336 -0.002,-0.0496 0.002,-0.10829 0.0186,-0.22557 0.045,-0.36794 0.056,-0.30251 -0.0235,-1.05095 -0.18552,-1.48104 -0.11622,-0.30854 -0.22669,-0.4463 -0.30179,-0.49041 -0.0751,-0.0441 -0.17842,-0.0571 -0.4284,0.0222 -0.60535,0.19213 -1.33871,-0.0134 -1.92701,-0.44855 z m 5.99085,3.48609 c 0.0134,0.0785 0.0175,0.15833 0.0331,0.23616 0.26063,1.30143 0.83025,2.49529 1.56476,3.16002 0.19431,0.17584 0.35059,0.29039 0.45992,0.35295 -0.004,-0.0507 8e-4,-0.0728 -0.0181,-0.15038 -0.14587,-0.59606 -0.75057,-1.79922 -1.70429,-3.08922 -0.12925,-0.17482 -0.23908,-0.34502 -0.33538,-0.50953 z m -1.83038,0.0439 c -0.0191,0.017 -0.041,0.0328 -0.061,0.0481 0.0103,0.002 0.0243,0.007 0.0336,0.008 0.002,-0.003 0.0206,-0.0403 0.0274,-0.0558 z m 15.55357,0.83974 c -0.12542,0.002 -0.22377,0.016 -0.29507,0.0419 -0.14261,0.0518 -0.20614,0.11517 -0.27285,0.28422 -0.0667,0.16904 -0.10658,0.44712 -0.11007,0.82527 -0.002,0.21058 -0.0794,0.35652 -0.18397,0.56431 -0.10454,0.20778 -0.2489,0.45086 -0.42478,0.72088 -0.35177,0.54005 -0.82986,1.18567 -1.35651,1.81695 -1.02533,1.22904 -2.25185,2.95686 -2.6789,3.75584 -0.4376,0.8187 -0.70111,1.71497 -0.76172,2.36885 -0.0303,0.32694 -0.005,0.59372 0.045,0.7338 0.0248,0.07 0.0527,0.10401 0.0651,0.11472 10e-4,0.001 0.003,2.4e-4 0.004,0.001 0.007,-0.003 0.009,-0.002 0.0181,-0.009 0.0471,-0.0335 0.12056,-0.0957 0.20722,-0.18035 0.17332,-0.16926 0.40269,-0.42697 0.66404,-0.74363 0.5227,-0.63331 1.17693,-1.50681 1.83555,-2.44223 1.31723,-1.87082 2.66551,-4.02831 3.02617,-4.94646 0.17339,-0.44141 0.3728,-0.84132 0.56431,-1.14412 0.0958,-0.1514 0.18785,-0.27852 0.28577,-0.38085 0.0979,-0.10234 0.18826,-0.21705 0.41496,-0.21705 0.11703,0 0.24459,0.0455 0.33331,0.12661 0.0887,0.0811 0.1368,0.18453 0.15968,0.28319 0.0458,0.19731 0.0102,0.39373 -0.0718,0.59634 -0.18688,0.46183 -0.3219,0.79225 -0.41599,1.03973 0.0469,-0.0251 0.0579,-0.0289 0.1111,-0.0574 0.2592,-0.13872 0.51654,-0.24044 0.74414,-0.2961 0.11381,-0.0278 0.21951,-0.045 0.32711,-0.0439 0.10761,0.001 0.23657,0.007 0.36226,0.13229 0.0868,0.0868 0.11798,0.25379 0.0925,0.34985 -0.0255,0.0961 -0.0686,0.14869 -0.10956,0.19586 -0.082,0.0943 -0.17802,0.16523 -0.2992,0.24494 -0.24237,0.15943 -0.58105,0.33281 -0.97927,0.4992 -0.30086,0.1257 -0.54424,0.25094 -0.76585,0.36845 0.27498,0.0259 0.58462,0.0496 0.96325,0.0496 1.23819,0 1.85658,-0.21397 2.70836,-0.93069 0.34136,-0.28724 0.64957,-0.50136 0.90589,-0.62632 0.12817,-0.0625 0.23524,-0.11133 0.38913,-0.11266 0.0769,-5.3e-4 0.18343,0.0161 0.27595,0.0971 0.0925,0.0811 0.12919,0.20812 0.12919,0.29663 0,0.38673 -0.29959,0.7307 -0.69608,0.7307 -0.0447,0 -0.0791,0.0343 -0.0791,0.0791 0,0.0829 -0.006,0.0464 0.006,0.0527 0.0122,0.006 0.10542,0.0281 0.26097,-0.005 0.31109,-0.0665 0.82219,-0.32 1.36271,-0.74518 0.26676,-0.20983 0.4673,-0.368 0.61856,-0.47904 0.0756,-0.0555 0.13816,-0.0991 0.19792,-0.13487 0.009,-0.005 0.0181,-0.0105 0.0264,-0.016 -1.48095,-0.94438 -3.51691,-1.84586 -5.71387,-2.49132 -0.89059,-0.26164 -1.51353,-0.37254 -1.8898,-0.36793 z m -16.06362,0.77515 c -0.093,0.0155 -0.15986,0.0529 -0.23513,0.17156 -0.24218,0.38171 -0.28379,0.67715 -0.24856,0.8015 0.0176,0.0622 0.0401,0.0923 0.0956,0.12609 0.0555,0.0338 0.1543,0.0651 0.30748,0.0651 0.14941,0 0.31547,-0.0433 0.4408,-0.10801 0.12533,-0.0647 0.19965,-0.15315 0.21187,-0.18345 0.0365,-0.0904 0.0669,-0.16224 0.13281,-0.24133 0.0328,-0.0393 0.0765,-0.0872 0.16691,-0.1204 -0.15963,-0.13251 -0.61012,-0.52392 -0.87178,-0.51108 z m 1.40819,1.21491 c 0.0199,0.15418 0.0652,0.2653 0.17053,0.3669 0.006,0.005 0.0178,0.0106 0.0238,0.016 0.0676,0.12586 -0.11093,-0.26567 -0.19431,-0.38292 z m 1.87998,2.70113 c -0.47754,0.0151 -0.86693,0.12559 -1.11259,0.29248 -0.24566,0.1669 -0.36432,0.36348 -0.36432,0.67748 0,0.18739 0.21009,0.75775 0.57929,1.39217 0.36921,0.63441 0.87903,1.36828 1.42111,2.05982 0.54207,0.69154 1.11811,1.34217 1.6123,1.81022 0.2471,0.23403 0.4742,0.42233 0.65784,0.54467 0.18364,0.12235 0.33171,0.1633 0.34262,0.1633 -0.017,0 0.023,0.002 0.0879,-0.13074 0.0649,-0.13321 0.119,-0.36187 0.12247,-0.63097 0.009,-0.67192 0.26533,-1.58361 0.60875,-2.18436 0.42108,-0.7366 0.55541,-1.27163 0.46922,-1.69499 -0.0862,-0.42335 -0.39924,-0.81075 -1.05162,-1.2392 -1.13231,-0.74365 -2.41783,-1.08998 -3.37292,-1.05988 z m -8.5447,0.72915 c -0.009,2.1e-4 -0.0244,-1.8e-4 -0.0579,0.009 -0.001,2.7e-4 -0.004,0.002 -0.005,0.002 0.0208,-0.002 0.0425,-0.0103 0.0625,-0.0109 z" />
      <path
         style="fill:none;fill-opacity:1;stroke:#0000ff;stroke-width:0.202717;stroke-miterlimit:4;stroke-dasharray:none;stroke-opacity:1"
         d="m 202.60431,114.61071 a 4.9643517,4.9643517 0 0 1 -7.02065,0 4.9643517,4.9643517 0 0 1 0,-7.02065 4.9643517,4.9643517 0 0 1 7.02065,0 4.9643517,4.9643517 0 0 1 0,7.02065 z"
         id="path78556-5" />
    </g>
    <g
       id="g78617"
       transform="matrix(0.71671422,-0.71671422,0.71671422,0.71671422,-121.83989,128.47253)">
      <path
         style="display:inline;fill:none;stroke:#ff0000;stroke-width:0.2;stroke-miterlimit:4;stroke-dasharray:none"
         d="m 205.94736,26.83668 a 44.296748,44.296748 0 0 0 -27.02517,-12.733357 7.4017201,7.4017201 0 0 0 0.22947,-0.207552 7.4017201,7.4017201 0 0 0 0,-10.4674648 7.4017201,7.4017201 0 0 0 -10.46746,10e-7 7.4017201,7.4017201 0 0 0 0,10.4674638 7.4017201,7.4017201 0 0 0 0.39793,0.368697 44.296748,44.296748 0 0 0 -25.77951,12.572212 44.296748,44.296748 0 0 0 -3.6e-4,62.64511 44.296748,44.296748 0 0 0 62.64547,0 44.296748,44.296748 0 0 0 -3.7e-4,-62.64511 z"
         id="path78314" />
      <path
         style="fill:none;stroke:#0000ff;stroke-width:0.2;stroke-miterlimit:4;stroke-dasharray:none"
         d="m 177.38116,12.125163 a 4.8978052,4.8978052 0 0 1 -6.92654,0 4.8978052,4.8978052 0 0 1 0,-6.9265418 4.8978052,4.8978052 0 0 1 6.92654,0 4.8978052,4.8978052 0 0 1 0,6.9265418 z"
         id="path78312" />
      <path
         id="path45533-7"
         style="fill:none;stroke:#0000ff;stroke-width:0.2;stroke-miterlimit:4;stroke-dasharray:none"
         d="m 145.93134,28.719641 c -0.0191,0.270791 -0.0565,0.643886 -0.0542,1.130133 0.006,1.33953 0.0366,1.602455 0.38033,3.268017 0.49328,2.390092 0.54089,2.68787 0.65785,4.098458 0.12208,1.472482 0.005,3.093695 -0.3235,4.465877 -0.35789,1.49601 -0.966,3.348974 -1.12758,3.435454 -0.41097,0.21994 -5.91296,0.40633 -6.63629,0.22479 -0.33434,-0.0839 -0.31293,0.0195 0.0894,0.4315 l 0.33797,0.34571 -0.2527,0.20154 -0.2527,0.20102 0.25787,0.15245 c 0.14161,0.0837 0.98928,0.2734 1.88412,0.42219 0.89484,0.1488 2.2181,0.41477 2.94039,0.59066 2.31799,0.56448 2.77292,0.61537 6.06836,0.68317 l 3.03393,0.0625 1.58491,0.59531 c 2.36487,0.88812 3.51024,1.23151 4.92529,1.47588 0.92083,0.15902 1.32394,0.17544 1.32394,0.0543 0,-0.11923 -0.60922,-0.59385 -1.75389,-1.36633 -1.24154,-0.83784 -1.6206,-1.18865 -1.5813,-1.46192 0.0163,-0.11336 0.13126,-0.25536 0.2558,-0.31575 2.74281,-1.32995 4.17445,-1.97055 4.80022,-2.14767 0.72444,-0.20506 1.34456,-0.3194 4.21163,-0.77825 1.4787,-0.236649 1.71439,-0.300493 1.74769,-0.473353 0.0574,-0.297794 -1.71323,-0.831331 -2.74401,-0.826823 -0.34869,0.0016 -1.05401,0.09076 -1.56735,0.198438 -1.30095,0.272896 -3.52497,0.405963 -5.63273,0.336415 -1.99116,-0.0657 -2.84534,-0.191659 -3.76101,-0.553456 -1.14397,-0.452001 -1.70016,-1.100534 -1.98644,-2.316138 -0.16068,-0.682252 -0.21179,-1.520635 -0.31936,-5.245158 -0.10857,-3.758864 -0.15138,-3.912707 -1.94924,-7.020243 -0.66903,-1.156401 -1.10056,-2.015799 -1.41232,-2.675762 m 1.236,62.569633 c -0.15783,-0.148081 -0.26114,-0.292733 -0.42428,-0.448603 l -1.7e-4,3.6e-4 c -1.40895,-1.34619 -2.55914,-2.50566 -2.55599,-2.57654 0.0168,-0.37645 0.67176,-0.29201 1.20312,0.1551 0.39175,0.32964 0.60919,0.41549 0.61351,0.24221 0.0126,-0.50739 0.73441,-1.1387 1.55438,-1.3595 0.85484,-0.23019 2.25546,-1.5182 3.38687,-3.11461 0.31075,-0.43846 1.25461,-1.47577 2.09747,-2.30514 0.84285,-0.82938 1.62033,-1.68838 1.72774,-1.90889 0.10739,-0.22052 0.25767,-0.97318 0.33395,-1.67257 0.0762,-0.6994 0.23574,-1.5113 0.35436,-1.80423 0.11861,-0.29293 0.2428,-1.38961 0.27589,-2.43705 0.033,-1.04746 0.10196,-2.14179 0.15289,-2.43187 0.11022,-0.62682 0.6874,-1.57386 1.18225,-1.93973 0.19487,-0.14407 0.3543,-0.44777 0.3543,-0.6749 0,-0.31674 0.0952,-0.38807 0.40829,-0.30619 0.48609,0.12711 2.84249,-0.78434 2.39829,-0.92765 -1.13853,-0.36732 -3.03293,-0.56212 -4.89802,-0.50367 -1.61328,0.0506 -2.20108,0.004 -2.26542,-0.18232 -0.0549,-0.15822 0.10406,-0.25059 0.431,-0.25059 0.28483,0 0.51788,-0.087 0.51788,-0.19342 0,-0.36998 -0.8043,-0.62617 -1.53532,-0.48904 -0.49866,0.0936 -0.68579,0.0686 -0.59439,-0.0794 0.0734,-0.11872 -0.0264,-0.3053 -0.22159,-0.41459 -0.31423,-0.17584 -0.28613,-0.2249 0.24428,-0.42656 0.70233,-0.26702 1.54106,-0.14391 2.56055,0.37587 0.62952,0.32094 1.05408,0.35885 3.03813,0.27129 2.88847,-0.12747 4.16234,0.11528 6.64045,1.26547 1.05841,0.49123 2.09377,0.89315 2.30082,0.89315 0.20705,0 1.11122,0.23212 2.00931,0.51583 0.89808,0.2837 1.66005,0.48668 1.69327,0.45106 0.0333,-0.0356 0.19977,-0.40109 0.37012,-0.81214 0.38543,-0.9301 1.41496,-1.61514 2.20505,-1.46721 1.41997,0.26585 2.47219,1.69984 2.22279,3.02923 -0.0715,0.38131 -0.21005,0.74274 -0.30782,0.80315 -0.0978,0.0604 -0.17773,0.37517 -0.17773,0.69943 0,0.34538 -0.10627,0.58959 -0.25659,0.58959 -0.14113,0 -0.55441,0.31573 -0.9184,0.70164 -0.74114,0.78574 -1.04645,0.85721 -1.54258,0.36106 -0.54714,-0.54713 -1.94194,-0.52479 -2.94221,0.0471 -0.71543,0.40904 -1.12626,0.48951 -2.50937,0.49153 -1.50681,0.002 -1.99114,0.17124 -1.44959,0.50594 0.11231,0.0694 0.43028,0.54837 0.70652,1.0643 0.27622,0.51593 0.86074,1.43421 1.2989,2.04062 0.43819,0.60642 0.79684,1.19353 0.79701,1.30466 1.9e-4,0.11108 -0.21448,0.6073 -0.47702,1.10258 -0.26255,0.49529 -0.84807,1.77348 -1.30117,2.84045 -0.45309,1.06694 -1.01381,2.26196 -1.24606,2.65558 -0.23225,0.39363 -0.54516,1.12406 -0.69538,1.62317 -0.27226,0.90468 -0.27107,0.90961 0.38578,1.58598 0.36239,0.37318 1.03059,0.78985 1.48488,0.92596 0.90992,0.27261 1.17698,0.63507 0.73701,1.00022 -0.41718,0.34623 -0.16455,0.59335 0.60655,0.59335 0.37039,0 0.81612,0.0547 0.99052,0.12168 0.37778,0.14496 0.42106,0.60708 0.0666,0.71017 m -8.87928,-0.159342 c -0.23527,-0.05375 -0.27277,-0.128125 -0.25234,-0.235908 0.0455,-0.23974 0.30862,-0.35442 0.91409,-0.39833 0.46764,-0.0339 0.85026,-0.14666 0.85026,-0.25058 0,-0.10393 0.1554,-0.18895 0.34532,-0.18895 0.28384,0 0.266,-0.0556 -0.10023,-0.31206 -0.59702,-0.41816 -0.56117,-0.96201 0.13098,-1.98757 0.73354,-1.0869 1.31094,-2.75699 1.73429,-5.0162 0.18352,-0.97937 0.55182,-2.27394 0.81844,-2.87681 0.455,-1.02883 0.46417,-1.11892 0.14946,-1.46667 -0.18442,-0.20378 -0.83971,-0.61114 -1.45619,-0.90523 -0.61649,-0.2941 -1.26451,-0.65565 -1.44004,-0.80347 -0.2813,-0.23686 -0.40569,-0.0936 -1.04886,1.20773 -0.40133,0.81206 -1.0921,1.82802 -1.53502,2.25769 -0.44292,0.42967 -0.80539,0.89286 -0.80549,1.02929 -1e-4,0.13644 -0.38357,0.48903 -0.85217,0.78353 -0.46859,0.29448 -1.33209,1.01399 -1.91888,1.59889 -0.58679,0.58491 -1.90933,1.70505 -2.939,2.4892 l -1.87211,1.42575 -0.1356,1.16834 c -0.0838,0.72222 -0.0524,1.323811 0.0823,1.5755 0.23922,0.446973 0.2502,0.656953 0.0309,0.849173 m 48.75176,0.432237 -30.57259,-0.21621 m -8.87928,-0.159342 -9.29989,-0.05669 m -2.85246,-0.02529 -3.52054,-0.03121 M 149.07644,25.9126 c 16.14842,-12.826809 39.70451,-11.77401 54.63692,3.158397 16.06506,16.065061 16.06506,42.111672 0,58.176733 -0.58501,0.585007 -1.18325,1.14871 -1.79376,1.691111 m -55.09469,-0.456539 c -0.4361,-0.400405 -0.86565,-0.811929 -1.28829,-1.234572 -16.06506,-16.065061 -15.67034,-42.463028 0.39472,-58.528089" />
    </g>
    <text
       xml:space="preserve"
       style="font-size:2.86695px;line-height:1.25;font-family:sans-serif;letter-spacing:0px;word-spacing:0px;fill:#0000ff;fill-opacity:1;stroke-width:2.15027;stroke-miterlimit:4;stroke-dasharray:none"
       x="-100.57968"
       y="120.57117"
       id="text37531-6-1"><tspan
         sodipodi:role="line"
         id="tspan37529-6-0"
         style="fill:#0000ff;fill-opacity:1;stroke-width:2.15027;stroke-miterlimit:4;stroke-dasharray:none"
         x="-100.57968"
         y="120.57117">=pass1:800mm/min:60%:#0000ff=</tspan></text>
    <text
       xml:space="preserve"
       style="font-size:2.86695px;line-height:1.25;font-family:sans-serif;letter-spacing:0px;word-spacing:0px;fill:#ff0000;fill-opacity:1;stroke-width:2.15021"
       x="-101.6811"
       y="130.81096"
       id="text37531-6-9-9"><tspan
         sodipodi:role="line"
         id="tspan37529-6-2-1"
         style="fill:#ff0000;fill-opacity:1;stroke-width:2.15021"
         x="-101.6811"
         y="130.81096">=pass2:800mm/min:60%:#ff0000=</tspan></text>
  </g>
  <inkscape:templateinfo>
    <inkscape:name>Lasersaur</inkscape:name>
    <inkscape:author>Arthur</inkscape:author>
    <inkscape:shortdesc>Default size of the Lasersaur</inkscape:shortdesc>
    <inkscape:date>2021-10-20</inkscape:date>
  </inkscape:templateinfo>
</svg>
