<?xml version="1.0" encoding="UTF-8" standalone="no"?>
<!-- Created with Inkscape (http://www.inkscape.org/) -->

<svg
   width="1220mm"
   height="600mm"
   viewBox="0 0 1220 600.00001"
   version="1.1"
   id="svg5"
   inkscape:version="1.1.1 (3bf5ae0d25, 2021-09-20)"
   sodipodi:docname="maple.svg"
   xmlns:inkscape="http://www.inkscape.org/namespaces/inkscape"
   xmlns:sodipodi="http://sodipodi.sourceforge.net/DTD/sodipodi-0.dtd"
   xmlns="http://www.w3.org/2000/svg"
   xmlns:svg="http://www.w3.org/2000/svg"
   xmlns:rdf="http://www.w3.org/1999/02/22-rdf-syntax-ns#"
   xmlns:cc="http://creativecommons.org/ns#"
   xmlns:dc="http://purl.org/dc/elements/1.1/">
  <metadata
     id="metadata11">
    <rdf:RDF>
      <cc:Work
         rdf:about="">
        <dc:format>image/svg+xml</dc:format>
        <dc:type
           rdf:resource="http://purl.org/dc/dcmitype/StillImage" />
      </cc:Work>
    </rdf:RDF>
  </metadata>
  <sodipodi:namedview
     id="namedview7"
     pagecolor="#ffffff"
     bordercolor="#666666"
     borderopacity="1.0"
     inkscape:pageshadow="2"
     inkscape:pageopacity="0.0"
     inkscape:pagecheckerboard="true"
     inkscape:document-units="mm"
     showgrid="false"
     inkscape:zoom="0.20397536"
     inkscape:cx="-115.21"
     inkscape:cy="953.54657"
     inkscape:window-width="1920"
     inkscape:window-height="1017"
     inkscape:window-x="-8"
     inkscape:window-y="-8"
     inkscape:window-maximized="1"
     inkscape:current-layer="layer1"
     inkscape:snap-global="false" />
  <defs
     id="defs2" />
  <g
     inkscape:label="Layer 1"
     inkscape:groupmode="layer"
     id="layer1">
    <g
       id="g1722"
       transform="matrix(0.18585274,0,0,0.18585274,-19.461187,-7.9466606)">
      <path
         style="fill:none;stroke:#ff0000;stroke-width:2;stroke-linecap:butt;stroke-linejoin:miter;stroke-miterlimit:4;stroke-dasharray:none;stroke-opacity:1"
         d="m 330.44916,473.59305 -68.52633,31.97893 7.61402,-12.94386 -34.88428,2.99041 -33.64203,-9.08163 12.18245,-10.65966 c 0,0 0.86369,8.15505 -46.44562,-24.36492 -47.30931,-32.51997 -37.30876,-36.54735 -37.30876,-36.54735 0,0 23.22015,0.70762 32.74036,1.52278 9.52021,0.81516 24.36489,3.04562 24.36489,3.04562 0,0 -26.14418,-17.77426 -38.45353,-31.47952 -12.30935,-13.70526 -35.4026,-50.75205 -35.4026,-50.75205 L 130.2,332.73337 c 0,0 -10.56321,-15.62752 -13.86263,-24.00296 -3.29942,-8.37544 -5.93387,-26.24967 -5.93387,-26.24967 l 9.89825,1.52281 c 0,0 -8.80751,-18.43135 -11.21862,-34.29393 l -3.24803,-60.88153 60.15088,51.01404 4.56842,-12.18245 73.85614,78.42457 c 0,0 -8.27051,-33.36724 -11.95063,-48.21461 -3.68012,-14.84737 -10.13007,-40.86962 -10.13007,-40.86962 0,0 2.03693,-14.5495 2.92523,-20.89453 0.8883,-6.34503 2.40459,-17.17564 2.40459,-17.17564 l 19.7965,9.13684 c 0,0 4.79798,-24.2898 6.82839,-34.56875 l 5.35406,-27.10494 13.70528,8.37544 c 0,0 14.06458,-33.86983 20.28271,-48.844104 6.21813,-14.974271 17.02605,-41.001524 17.02605,-41.001524 l 25.58638,40.544565 23.90486,37.880003 15.22807,-6.85263 c 0,0 3.04562,47.20702 6.85263,47.20702 3.80701,0 22.84211,-13.70526 22.84211,-13.70526 0,0 8.80187,43.82957 7.72481,81.40789 -1.07705,37.57832 -11.98628,69.44836 -10.77043,67.82722 1.21821,-1.62429 25.09201,-19.75728 39.16451,-36.95492 14.0725,-17.19764 27.839,-33.85562 27.839,-33.85562 l 3.80704,13.70526 c -0.82553,-0.66043 30.58876,-20.92275 44.25058,-34.91657 13.66183,-13.99382 38.74241,-33.60975 38.74241,-33.60975 0,0 -5.88538,28.47396 -13.75322,49.79327 -7.86784,21.3193 -6.04328,50.71201 -6.04328,50.71201 l 22.84212,-8.37543 c 0,0 -12.95243,21.17222 -19.55126,31.95877 -6.59883,10.78655 -20.04174,32.76053 -20.04174,32.76053 l 19.03508,4.5684 c 0,0 -11.21807,28.55686 -22.13152,42.13522 -10.91345,13.57836 -43.34917,39.33496 -43.34917,39.33496 l 47.20701,2.28423 c 0,0 -36.81041,52.22885 -54.19579,65.29961 -17.38538,13.07076 -50.11651,13.12495 -50.11651,13.12495 l 13.70529,12.94387 -86.41933,-39.02193 15.03774,44.9228 -22.27106,9.51755 z"
         id="path152596"
         sodipodi:nodetypes="cccccczczczcczcczcccczczcczcczczccsczszcczczcczcczcczcccccc"
         inkscape:connector-curvature="0" />
      <path
         style="fill:none;stroke:#0000ff;stroke-width:2;stroke-linecap:butt;stroke-linejoin:miter;stroke-miterlimit:4;stroke-dasharray:none;stroke-opacity:1"
         d="m 339.23236,459.56583 c 3.30465,14.25416 -18.48444,-14.20004 -35.54249,-9.42654 -25.02683,7.00347 -130.93492,-8.7475 -140.74951,-18.42344 -9.81459,-9.67594 99.74388,8.37542 99.74388,8.37542 0,0 -28.38603,-59.40773 -49.49125,-74.61754 -21.10522,-15.20981 -88.67357,-6.37725 -65.4807,-12.94386 23.19287,-6.56661 59.38949,-5.32982 59.38949,-5.32982 0,0 -48.65157,-23.15033 -75.37897,-32.74036 -26.7274,-9.59003 47.96842,2.2842 47.96842,2.2842 0,0 -19.98757,-22.81637 -47.20701,-68.52632 -27.21944,-45.70995 63.95789,70.81053 63.95789,70.81053 0,0 -25.46434,-73.22565 -2.28421,-57.86666 9.9436,48.95041 12.35617,70.13061 42.6386,99.74388 9.0194,22.25963 17.25499,52.8237 38.83159,63.95787 21.5766,11.13417 54.82106,-2.2842 54.82106,-2.2842 0,0 -5.18847,-68.31043 -19.03508,-100.50526 -13.84661,-32.19483 -58.06687,-62.41811 -63.19652,-87.56142 -5.12965,-25.14331 -10.65964,-29.69474 -10.65964,-29.69474 0,0 17.64776,10.72226 25.12632,26.64912 7.47856,15.92686 50.25262,63.1965 50.25262,63.1965 0,0 4.90003,-40.55212 -3.04559,-58.62808 -7.94562,-18.07596 -33.50184,-26.54896 -39.59301,-42.6386 -6.09117,-16.08964 2e-5,-43.4 2e-5,-43.4 0,0 6.00329,28.32956 13.70526,39.59299 7.70197,11.26343 30.45613,25.88772 30.45613,25.88772 L 309.12984,92.891237 c 0,0 8.17314,-18.263317 9.89825,3.04561 1.72511,21.308933 7.61405,108.880723 7.61405,108.880723 0,0 17.66766,-24.82917 22.0807,-35.78597 4.41304,-10.9568 6.09123,-28.17193 6.09123,-28.17193 0,0 11.72206,6.74736 11.42106,23.60351 -0.301,16.85615 -31.21919,45.6657 -35.02459,66.24211 -3.8054,20.57641 6.09124,50.25264 6.09124,50.25264 0,0 25.00365,-14.01885 34.26317,-30.45615 9.25952,-16.4373 10.65964,-68.90702 10.65964,-68.90702 0,0 4.79443,7.8738 8.37544,23.22281 3.58101,15.34901 -13.65455,58.56487 -31.21756,76.90176 -17.56301,18.33689 -12.17901,19.22095 -19.79647,44.9228 -7.61745,25.70185 9.89823,91.36843 9.89823,91.36843 l 85.27721,-76.14036 c 0,0 18.9685,-15.30121 23.68005,-29.60235 4.71155,-14.30114 2.20161,-20.30325 0.68485,-47.2994 -1.51676,-26.99615 15.22809,35.78598 15.22809,35.78598 l 30.45614,-53.29826 c 0,0 4.42429,-2.86558 5.32982,7.61403 0.90553,10.47961 -17.99658,44.4227 -17.99658,44.4227 0,0 52.88587,-21.21542 33.98606,-9.39814 -18.89981,11.81728 -29.97362,21.84567 -46.35324,35.43233 -16.37962,13.58666 -50.80688,46.56041 -50.80688,46.56041 0,0 87.75145,-10.896 57.56713,-2.80676 -30.18432,8.08924 -52.52865,11.64084 -70.41863,21.35756 -17.88998,9.71672 -37.12402,31.30993 -37.12402,31.30993 0,0 14.88364,9.59643 31.40229,12.81321 16.51865,3.21678 67.05763,-0.18474 67.05763,-0.18474 0,0 2.07975,5.19486 -9.19095,11.6058 -11.2707,6.41094 -44.22162,12.50841 -58.62809,3.80701 -14.40647,-8.7014 -42.07489,-13.48771 -53.90428,-15.46691 -11.82939,-1.9792 -19.80312,10.78908 -16.49847,25.04323 z"
         id="path157081"
         sodipodi:nodetypes="zszczzczczccczczzczczzczcczczczzczczzzcczzcczczzczzczczzzz"
         inkscape:connector-curvature="0" />
    </g>
    <path
       style="fill:#ff7f2a;stroke:#000000;stroke-width:2;stroke-linecap:butt;stroke-linejoin:miter;stroke-miterlimit:4;stroke-dasharray:none;stroke-opacity:1"
       d="m 917.25745,470.42736 -68.52633,31.97893 7.61402,-12.94386 -34.88428,2.99041 -33.64203,-9.08163 12.18245,-10.65966 c 0,0 0.86369,8.15505 -46.44562,-24.36492 -47.30931,-32.51997 -37.30876,-36.54735 -37.30876,-36.54735 0,0 23.22015,0.70762 32.74036,1.52278 9.52021,0.81516 24.36489,3.04562 24.36489,3.04562 0,0 -26.14418,-17.77426 -38.45353,-31.47952 -12.30935,-13.70526 -35.4026,-50.75205 -35.4026,-50.75205 l 17.51227,-4.56843 c 0,0 -10.56321,-15.62752 -13.86263,-24.00296 -3.29942,-8.37544 -5.93387,-26.24967 -5.93387,-26.24967 l 9.89825,1.52281 c 0,0 -8.80751,-18.43135 -11.21862,-34.29393 l -3.24803,-60.88153 60.15088,51.01404 4.56842,-12.18245 73.85614,78.42457 c 0,0 -8.27051,-33.36724 -11.95063,-48.21461 -3.68012,-14.84737 -10.13007,-40.86962 -10.13007,-40.86962 0,0 2.03693,-14.5495 2.92523,-20.89453 0.8883,-6.34503 2.40459,-17.17564 2.40459,-17.17564 l 19.7965,9.13684 c 0,0 4.79798,-24.2898 6.82839,-34.56875 l 5.35406,-27.10494 13.70528,8.37544 c 0,0 14.06458,-33.869831 20.28271,-48.844102 6.21813,-14.974271 17.02605,-41.001524 17.02605,-41.001524 l 25.58638,40.544565 23.90486,37.880001 15.22807,-6.85263 c 0,0 3.04562,47.20702 6.85263,47.20702 3.80701,0 22.84211,-13.70526 22.84211,-13.70526 0,0 8.80191,43.82957 7.72481,81.40789 -1.07705,37.57832 -11.98628,69.44836 -10.77043,67.82722 1.21821,-1.62429 25.09203,-19.75728 39.16453,-36.95492 14.0725,-17.19764 27.839,-33.85562 27.839,-33.85562 l 3.807,13.70526 c -0.8255,-0.66043 30.5888,-20.92275 44.2506,-34.91657 13.6618,-13.99382 38.7424,-33.60975 38.7424,-33.60975 0,0 -5.8854,28.47396 -13.7532,49.79327 -7.8679,21.3193 -6.0433,50.71201 -6.0433,50.71201 l 22.8421,-8.37543 c 0,0 -12.9524,21.17222 -19.5512,31.95877 -6.5989,10.78655 -20.0418,32.76053 -20.0418,32.76053 l 19.0351,4.5684 c 0,0 -11.2181,28.55686 -22.1315,42.13522 -10.9135,13.57836 -43.3492,39.33496 -43.3492,39.33496 l 47.207,2.28423 c 0,0 -36.8104,52.22885 -54.1958,65.29961 -17.3853,13.07076 -50.1165,13.12495 -50.1165,13.12495 l 13.7053,12.94387 -86.41931,-39.02193 15.03774,44.9228 -22.27106,9.51755 z"
       id="path152596-9"
       sodipodi:nodetypes="cccccczczczcczcczcccczczcczcczczccsczszcczczcczcczcczcccccc"
       inkscape:connector-curvature="0" />
    <path
       style="fill:#f9f9f9;stroke:#000000;stroke-width:2;stroke-linecap:butt;stroke-linejoin:miter;stroke-miterlimit:4;stroke-dasharray:none;stroke-opacity:1"
       d="m 926.04065,456.40014 c 3.30465,14.25416 -18.48444,-14.20004 -35.54249,-9.42654 -25.02683,7.00347 -130.93492,-8.7475 -140.74951,-18.42344 -9.81459,-9.67594 99.74388,8.37542 99.74388,8.37542 0,0 -28.38603,-59.40773 -49.49125,-74.61754 -21.10522,-15.20981 -88.67357,-6.37725 -65.4807,-12.94386 23.19287,-6.56661 59.38949,-5.32982 59.38949,-5.32982 0,0 -48.65157,-23.15033 -75.37897,-32.74036 -26.7274,-9.59003 47.96842,2.2842 47.96842,2.2842 0,0 -19.98757,-22.81637 -47.20701,-68.52632 -27.21944,-45.70995 63.95789,70.81053 63.95789,70.81053 0,0 -25.46434,-73.22565 -2.28421,-57.86666 9.9436,48.95041 12.35617,70.13061 42.6386,99.74388 9.0194,22.25963 17.25499,52.8237 38.83159,63.95787 21.5766,11.13417 54.82106,-2.2842 54.82106,-2.2842 0,0 -5.18847,-68.31043 -19.03508,-100.50526 -13.84661,-32.19483 -58.06687,-62.41811 -63.19652,-87.56142 -5.12965,-25.14331 -10.65964,-29.69474 -10.65964,-29.69474 0,0 17.64776,10.72226 25.12632,26.64912 7.47856,15.92686 50.25262,63.1965 50.25262,63.1965 0,0 4.90003,-40.55212 -3.04559,-58.62808 -7.94562,-18.07596 -33.50184,-26.54896 -39.59301,-42.6386 -6.09117,-16.08964 2e-5,-43.4 2e-5,-43.4 0,0 6.00329,28.32956 13.70526,39.59299 7.70197,11.26343 30.45613,25.88772 30.45613,25.88772 L 895.93813,89.725549 c 0,0 8.17314,-18.263317 9.89825,3.04561 1.72511,21.308931 7.61405,108.880721 7.61405,108.880721 0,0 17.66766,-24.82917 22.0807,-35.78597 4.41304,-10.9568 6.09123,-28.17193 6.09123,-28.17193 0,0 11.72206,6.74736 11.42106,23.60351 -0.301,16.85615 -31.21919,45.6657 -35.02459,66.24211 -3.8054,20.57641 6.09124,50.25264 6.09124,50.25264 0,0 25.00365,-14.01885 34.26317,-30.45615 9.25952,-16.4373 10.65964,-68.90702 10.65964,-68.90702 0,0 4.79443,7.8738 8.37544,23.22281 3.58101,15.34901 -13.65455,58.56487 -31.21756,76.90176 -17.56301,18.33689 -12.17901,19.22095 -19.79647,44.9228 -7.61745,25.70185 9.89823,91.36843 9.89823,91.36843 l 85.27718,-76.14036 c 0,0 18.9685,-15.30121 23.6801,-29.60235 4.7115,-14.30114 2.2016,-20.30325 0.6848,-47.2994 -1.5167,-26.99615 15.2281,35.78598 15.2281,35.78598 l 30.4562,-53.29826 c 0,0 4.4242,-2.86558 5.3298,7.61403 0.9055,10.47961 -17.9966,44.4227 -17.9966,44.4227 0,0 52.8859,-21.21542 33.9861,-9.39814 -18.8999,11.81728 -29.9737,21.84567 -46.3533,35.43233 -16.3796,13.58666 -50.8069,46.56041 -50.8069,46.56041 0,0 87.7515,-10.896 57.5672,-2.80676 -30.1844,8.08924 -52.5287,11.64084 -70.4187,21.35756 -17.88994,9.71672 -37.12398,31.30993 -37.12398,31.30993 0,0 14.88364,9.59643 31.40229,12.81321 16.51869,3.21678 67.05759,-0.18474 67.05759,-0.18474 0,0 2.0798,5.19486 -9.1909,11.6058 -11.2707,6.41094 -44.2216,12.50841 -58.6281,3.80701 -14.40647,-8.7014 -42.07489,-13.48771 -53.90428,-15.46691 -11.82939,-1.9792 -19.80312,10.78908 -16.49847,25.04323 z"
       id="path157081-8"
       sodipodi:nodetypes="zszczzczczccczczzczczzczcczczczzczczzzcczzcczczzczzczczzzz"
       inkscape:connector-curvature="0" />
    <text
       xml:space="preserve"
       style="font-size:2.86695px;line-height:1.25;font-family:sans-serif;letter-spacing:0px;word-spacing:0px;fill:#0000ff;fill-opacity:1;stroke-width:2.15027;stroke-miterlimit:4;stroke-dasharray:none"
       x="-199.5672"
       y="74.724373"
       id="text37531-6"><tspan
         sodipodi:role="line"
         id="tspan37529-6"
         style="fill:#0000ff;fill-opacity:1;stroke-width:2.15027;stroke-miterlimit:4;stroke-dasharray:none"
         x="-199.5672"
         y="74.724373">=pass2:800mm/min:40%:#0000ff=</tspan></text>
    <text
       xml:space="preserve"
       style="font-size:2.86695px;line-height:1.25;font-family:sans-serif;letter-spacing:0px;word-spacing:0px;fill:#ff0000;fill-opacity:1;stroke-width:2.15021"
       x="-200.66861"
       y="84.964165"
       id="text37531-6-9"><tspan
         sodipodi:role="line"
         id="tspan37529-6-2"
         style="fill:#ff0000;fill-opacity:1;stroke-width:2.15021"
         x="-200.66861"
         y="84.964165">=pass3:800mm/min:40%:#ff0000=</tspan></text>
    <text
       xml:space="preserve"
       style="font-size:2.86695px;line-height:1.25;font-family:sans-serif;letter-spacing:0px;word-spacing:0px;fill:#00ff00;fill-opacity:1;stroke-width:2.15021"
       x="-200.55946"
       y="62.840786"
       id="text37531-6-2"><tspan
         sodipodi:role="line"
         id="tspan37529-6-1"
         style="fill:#00ff00;fill-opacity:1;stroke-width:2.15021"
         x="-200.55946"
         y="62.840786">=pass1:800mm/min:20%:#00ff00=</tspan></text>
  </g>
</svg>
