<?xml version="1.0" encoding="UTF-8" standalone="no"?>
<!-- Created with Inkscape (http://www.inkscape.org/) -->

<svg
   xmlns:dc="http://purl.org/dc/elements/1.1/"
   xmlns:cc="http://creativecommons.org/ns#"
   xmlns:rdf="http://www.w3.org/1999/02/22-rdf-syntax-ns#"
   xmlns:svg="http://www.w3.org/2000/svg"
   xmlns="http://www.w3.org/2000/svg"
   xmlns:sodipodi="http://sodipodi.sourceforge.net/DTD/sodipodi-0.dtd"
   xmlns:inkscape="http://www.inkscape.org/namespaces/inkscape"
   width="1220mm"
   height="600mm"
   viewBox="0 0 1220 600.00001"
   version="1.1"
   id="svg5"
   inkscape:version="0.92.4 (5da689c313, 2019-01-14)"
   sodipodi:docname="leaf_monstera.svg">
  <metadata
     id="metadata8">
    <rdf:RDF>
      <cc:Work
         rdf:about="">
        <dc:format>image/svg+xml</dc:format>
        <dc:type
           rdf:resource="http://purl.org/dc/dcmitype/StillImage" />
        <dc:title></dc:title>
      </cc:Work>
    </rdf:RDF>
  </metadata>
  <sodipodi:namedview
     id="namedview7"
     pagecolor="#ffffff"
     bordercolor="#666666"
     borderopacity="1.0"
     inkscape:pageshadow="2"
     inkscape:pageopacity="0.0"
     inkscape:pagecheckerboard="true"
     inkscape:document-units="mm"
     showgrid="false"
     inkscape:zoom="0.16699964"
     inkscape:cx="2601.215"
     inkscape:cy="1378.8981"
     inkscape:window-width="1920"
     inkscape:window-height="1017"
     inkscape:window-x="-8"
     inkscape:window-y="-8"
     inkscape:window-maximized="1"
     inkscape:current-layer="layer1" />
  <defs
     id="defs2">
    <inkscape:path-effect
       effect="skeletal"
       id="path-effect135308"
       is_visible="true"
       lpeversion="1"
       pattern="M 0,0 H 1"
       copytype="single_stretched"
       prop_scale="1"
       scale_y_rel="false"
       spacing="0"
       normal_offset="0"
       tang_offset="0"
       prop_units="false"
       vertical_pattern="false"
       hide_knot="false"
       fuse_tolerance="0" />
  </defs>
  <g
     inkscape:label="Layer 1"
     inkscape:groupmode="layer"
     id="layer1">
    <path
       style="fill:none;stroke:#ff0000;stroke-width:2.64074039px;stroke-linecap:butt;stroke-linejoin:miter;stroke-opacity:1"
       d="m 296.8769,463.7984 c 8.61871,8.0021 10.38122,40.01229 17.60502,48.91883 7.22379,8.90653 6.41137,1.30747 14.3181,8.83982 7.90648,7.53269 5.59593,30.65822 27.56501,40.15178 21.96919,9.49341 73.45036,-5.72286 93.7856,-14.54695 20.33535,-8.82402 23.70557,-16.18927 29.97906,-23.49918 6.27352,-7.30991 5.18946,-12.36279 9.66248,-17.16939 4.47198,-4.80653 8.11019,-1.64595 16.42107,-10.8657 8.31079,-9.21964 19.77834,-36.40747 25.35632,-48.57433 5.57817,-12.16667 5.32913,-18.00474 9.42896,-23.70514 4.10083,-5.69993 11.72689,-6.74592 12.69123,-10.73323 0.96489,-3.98697 -3.06215,-7.36946 -3.06215,-7.36946 0,0 -9.19261,4.0657 -12.88966,5.13141 -3.69687,1.06564 -23.79894,19.77989 -35.54089,24.63179 -11.74157,4.85152 -20.24803,2.97518 -32.47223,5.82633 -12.22409,2.85126 -30.30955,11.06368 -40.66622,11.72635 -10.35661,0.66266 -15.74628,0.006 -19.71487,-3.03924 -3.96834,-3.04431 -7.18008,-3.0519 -4.0606,-9.20352 3.11892,-6.15193 19.59182,-4.71845 30.57417,-6.69438 10.98237,-1.97589 21.9454,-1.86423 35.30267,-4.99248 13.35736,-3.12809 31.41684,-9.58728 44.29734,-14.65943 12.88011,-5.07215 25.35073,-7.44787 33.07399,-15.19615 7.72314,-7.74828 10.08509,-17.11944 12.12903,-26.60461 2.04422,-9.48508 1.0233,-19.29412 -0.0928,-28.97531 -1.11652,-9.68117 -5.15701,-18.79373 -6.61993,-28.74323 -1.46317,-9.94942 -2.02341,-30.77635 -2.02341,-30.77635 0,0 -17.85629,23.06883 -23.18665,30.73633 -5.33064,7.66763 -21.68577,20.40061 -35.40873,28.36612 -13.72309,7.96584 -32.43309,23.111 -42.76951,31.4315 -10.33641,8.32078 -11.09494,13.86594 -19.91974,17.53338 -8.82469,3.66749 -24.16905,4.787 -30.73946,2.02567 -6.57073,-2.76054 -10.10591,2.44652 -7.79068,-9.071 2.31529,-11.51776 35.01273,-16.05406 52.29276,-26.16124 17.28012,-10.10702 37.04791,-23.7437 51.06286,-34.53058 14.01488,-10.78668 24.06616,-20.26433 33.51051,-29.23325 9.44421,-8.96887 23.41838,-24.20105 23.41838,-24.20105 0,0 -5.38687,-23.75537 -9.68198,-36.11278 -4.29525,-12.35786 -14.29122,-27.01819 -16.27581,-37.74879 -1.98485,-10.73026 1.0053,-24.3401 1.0053,-24.3401 0,0 -6.55915,17.09084 -12.96255,29.43865 -6.4026,12.3481 -21.05731,38.13913 -26.45395,43.93937 -5.39661,5.80043 -22.93417,31.55687 -32.0821,43.20447 -9.14783,11.64751 -13.3654,20.49404 -22.38651,26.96873 -9.02108,6.47493 -21.51518,12.38741 -29.47631,11.32916 -7.96143,-1.05811 -13.38226,3.15785 -13.41892,-9.80621 -0.0369,-12.96426 33.69735,-24.07343 49.13168,-36.3315 15.43426,-12.25797 33.94155,-23.973 43.50353,-37.06632 9.56215,-13.09352 8.46415,-23.39482 15.49552,-37.00705 7.03098,-13.61208 28.35438,-30.04339 27.38653,-43.97229 -0.96864,-13.92892 -11.86536,-14.22239 -20.47527,-24.51253 -8.61019,-10.2901 -31.19583,-37.21883 -31.19583,-37.21883 0,0 -4.07377,32.28861 -10.40326,48.97838 -6.32908,16.68979 -18.27473,33.204 -28.12047,49.60726 -9.84555,16.40359 -27.32033,45.83991 -30.95111,48.77311 -3.63096,2.93318 -20.41501,22.587 -31.61246,30.1008 -11.19774,7.51387 -25.35535,16.47583 -34.0066,15.22919 -8.65136,-1.24667 -11.31477,-2.7131 -11.55377,-9.87256 -0.2436,-7.15966 9.48686,-9.35658 19.85369,-19.40069 10.36661,-10.04414 30.46497,-28.6012 42.43874,-40.76787 11.97391,-12.16635 23.25364,-21.08342 29.6813,-31.9015 6.42782,-10.81824 5.21239,-18.77867 10.13225,-30.27307 4.91879,-11.49466 15.20507,-26.61122 20.12486,-38.10577 4.91999,-11.49436 13.00405,-19.83134 10.13216,-30.272869 -2.8722,-10.441626 -14.85725,-13.858687 -25.03858,-21.546106 -10.18141,-7.687179 -36.32765,-23.949462 -36.32765,-23.949462 0,0 7.35414,23.108507 4.68893,26.942359 -2.6658,3.833663 -21.49419,52.176138 -23.22669,55.976998 -1.73216,3.801 -15.94008,48.03171 -24.95948,59.77789 -9.02117,11.7454 -13.33534,12.39127 -19.08645,14.69938 -5.75137,2.30805 -9.25788,4.66419 -13.02205,1.3966 -3.76403,-3.26757 -2.71643,-7.12481 -0.59516,-16.80495 2.12134,-9.6803 11.62677,-24.36837 19.1925,-38.07294 7.56587,-13.70464 18.73883,-29.29313 26.45401,-43.93949 7.71513,-14.646227 17.80371,-31.837459 19.92652,-43.707438 2.12276,-11.870035 4.04043,-17.291283 -1.79196,-24.240958 -5.83211,-6.949718 -15.8057,-3.591302 -29.205,-7.376272 -13.39954,-3.784685 -38.22908,-12.076345 -50.98337,-15.951108 -12.75427,-3.874223 -18.6051,-3.733344 -25.47492,-7.5087934 -6.86997,-3.775375 -15.41608,-13.4742559 -15.41608,-13.4742559 0,0 2.46011,16.7387763 0.7274,20.5394563 -1.73215,3.800982 -26.2651,26.130091 -36.2751,30.26599 -10.00985,4.136117 -10.31373,-9.239783 -17.68427,1.563348 -7.37078,10.802797 11.04966,42.487143 17.0031,58.287821 5.95357,15.80071 13.11729,28.20949 17.17506,36.78188 4.05802,8.57227 7.10809,10.38398 7.05654,14.70601 -0.0516,4.32179 -0.43131,7.68785 -4.36447,8.56814 -3.93341,0.88024 -6.18066,-1.84278 -11.52059,-8.93866 -5.34009,-7.09489 -9.39755,-23.659 -14.34441,-35.94763 -4.94711,-12.28858 -11.86199,-27.878578 -15.34323,-37.781687 -3.48107,-9.902933 -5.91761,-15.054075 -6.35549,-21.274374 -0.43794,-6.220162 2.26828,-15.037175 2.26828,-15.037175 0,0 -28.24594,19.698797 -30.87837,24.46618 -2.63073,4.767823 -20.03482,4.127755 -24.54914,18.632333 -4.51547,14.504063 10.23492,40.167263 18.83521,57.288143 8.60009,17.12107 20.93768,31.69298 31.46011,44.68775 10.5223,12.99473 21.51455,23.39328 31.06339,33.48453 9.54896,10.0913 23.66034,20.00589 26.16957,27.11453 2.50929,7.10849 1.82248,5.13874 -0.6675,7.50187 -2.49001,2.3631 -5.11662,3.35099 -13.0551,0.46338 -7.94114,-2.88006 -20.57229,-15.57723 -27.96841,-25.18092 -7.39603,-9.60393 -9.47644,-20.02133 -16.04422,-31.21332 -6.56775,-11.19188 -14.34771,-22.06071 -23.66964,-35.61635 -9.32164,-13.55555 -32.42595,-45.58825 -32.42595,-45.58825 l -1.7255,-22.37339 c 0,0 -7.73109,18.9701 -19.52302,28.73662 -11.79197,9.76665 -25.118251,28.93511 -24.952731,33.60329 0.165239,4.66821 4.971181,28.77366 16.672351,48.9521 11.70124,20.17819 43.1987,51.3481 58.36396,66.16743 15.16533,14.81924 20.95401,18.49583 29.83338,25.11473 8.87929,6.61905 21.79681,8.60488 22.94218,15.07716 1.1455,6.47238 3.39181,7.82395 -7.12934,9.60091 -10.52119,1.77674 -27.7687,-15.99531 -43.05382,-29.31961 -15.28491,-13.32449 -33.74,-33.67517 -46.64468,-51.62672 -12.90468,-17.95196 -25.4822,-43.03481 -30.891449,-54.99082 -5.409404,-11.95592 -4.424561,-19.4734 -5.191591,-14.77229 -0.765989,4.70146 -10.495898,27.49639 -15.429466,38.87394 -4.93437,11.37728 -10.745785,21.0142 -13.894719,29.47199 -3.148126,8.4581 -7.797571,17.10294 -5.800025,20.77101 1.996995,3.66851 36.808412,37.55029 55.07023,52.26264 18.2618,14.71232 38.10663,27.71312 53.57579,36.42427 15.46908,8.71143 29.06966,11.79333 37.96119,17.34815 8.89163,5.55487 16.32475,8.13627 16.34868,13.4415 0.0241,5.30532 -2.29926,5.54037 -8.16123,6.83329 -5.86312,1.29246 -17.94861,-5.90785 -24.50946,-6.60847 -6.56054,-0.70143 -49.51781,-23.62007 -67.53017,-34.99393 C 100.28814,340.04533 86.05665,332.37582 77.045588,320.1661 68.03441,307.95638 63.600406,283.25198 63.600406,283.25198 c 0,0 -14.60589,36.6805 -16.864011,51.07732 -2.258429,14.39694 -0.610061,22.58516 0.258222,33.64338 0.868979,11.05807 -3.743251,21.46021 4.88751,32.54413 8.630484,11.08392 29.113965,14.17814 47.385406,19.81781 18.271457,5.6403 46.564547,9.3362 62.074227,12.75293 15.5097,3.41698 26.51882,2.34941 31.07004,7.30977 4.5516,4.96044 6.37172,1.46226 1.22965,8.3695 -5.1418,6.90689 -38.93361,7.926 -42.72955,6.19107 -3.79645,-1.73425 -36.67919,-9.24161 -51.016079,-16.88536 -14.337212,-7.64321 -34.562153,-26.81661 -34.562153,-26.81661 0,0 5.88349,37.57812 13.140903,54.68613 7.257301,17.10797 19.219155,38.96908 29.661519,46.62107 10.44236,7.65197 13.32603,0.0495 21.67888,5.77406 8.35277,5.72474 20.52242,22.95402 22.57171,30.98127 2.04935,8.02741 -10.12145,1.20775 -1.46817,11.26956 8.65334,10.0613 50.04133,5.94801 68.20476,1.31758 18.16351,-4.6303 29.92432,-10.26864 38.43765,-21.92969 8.5133,-11.66094 5.22583,-27.90326 8.80253,-41.44318 3.57761,-13.53997 3.77562,-34.92399 12.59893,-39.70845 8.82294,-4.78419 9.2956,-3.0287 17.91434,4.97329 z"
       id="path56479-8"
       sodipodi:nodetypes="zzzzzzzzzzzczzzzzzzzzzzzzczzzzzzzzzczzczzzzzzzzzzzczzzzzzzzzzzzzczzzzzzzzzzzzzczzzzzzzzzzzczzzzzzzzzzzcczzzzzzzzzzszzszzzzzzzzczzzzzzzzzczzzzzzzzzz"
       inkscape:connector-curvature="0" />
    <path
       style="fill:#008000;stroke:#000000;stroke-width:2.64074039px;stroke-linecap:butt;stroke-linejoin:miter;stroke-opacity:1"
       d="m 916.82599,482.99329 c 8.61871,8.00211 10.38122,40.0123 17.60502,48.91884 7.22379,8.90654 6.41136,1.30746 14.31809,8.83983 7.90649,7.53269 5.59594,30.6582 27.56503,40.15177 21.96918,9.49341 73.45037,-5.72286 93.78557,-14.54695 20.3353,-8.82401 23.7056,-16.18927 29.9791,-23.49918 6.2735,-7.30991 5.1894,-12.36279 9.6624,-17.1694 4.472,-4.80652 8.1102,-1.64594 16.4211,-10.86569 8.3108,-9.21965 19.7784,-36.40746 25.3563,-48.57433 5.5782,-12.16668 5.3292,-18.00474 9.429,-23.70513 4.1008,-5.69995 11.7269,-6.74592 12.6912,-10.73325 0.9649,-3.98695 -3.0621,-7.36944 -3.0621,-7.36944 0,0 -9.1926,4.0657 -12.8897,5.13141 -3.6968,1.06564 -23.7989,19.77988 -35.5409,24.63178 -11.7415,4.85151 -20.248,2.97519 -32.4722,5.82634 -12.2241,2.85126 -30.3096,11.06369 -40.6662,11.72633 -10.3566,0.66268 -15.7463,0.006 -19.7149,-3.03924 -3.9683,-3.04429 -7.1801,-3.05189 -4.0606,-9.2035 3.1189,-6.15194 19.5918,-4.71845 30.5742,-6.69438 10.9824,-1.97589 21.9454,-1.86423 35.3026,-4.99248 13.3574,-3.12809 31.4169,-9.58728 44.2974,-14.65943 12.8801,-5.07216 25.3507,-7.44788 33.074,-15.19615 7.7231,-7.7483 10.0851,-17.11944 12.129,-26.60463 2.0442,-9.48507 1.0233,-19.2941 -0.093,-28.97531 -1.1165,-9.68116 -5.157,-18.79372 -6.6199,-28.74322 -1.4632,-9.94942 -2.0234,-30.77636 -2.0234,-30.77636 0,0 -17.8563,23.06883 -23.1867,30.73635 -5.3306,7.66763 -21.6857,20.4006 -35.4087,28.36611 -13.7231,7.96584 -32.4331,23.11099 -42.7695,31.4315 -10.3364,8.32077 -11.0949,13.86594 -19.9197,17.53338 -8.8247,3.6675 -24.1691,4.787 -30.7395,2.02568 -6.5707,-2.76056 -10.1059,2.44652 -7.7907,-9.071 2.3153,-11.51777 35.0128,-16.05407 52.2928,-26.16124 17.2801,-10.10703 37.0479,-23.7437 51.0628,-34.53058 14.0149,-10.78669 24.0662,-20.26433 33.5106,-29.23326 9.4441,-8.96887 23.4183,-24.20104 23.4183,-24.20104 0,0 -5.3868,-23.75538 -9.6819,-36.11279 -4.2953,-12.35786 -14.2913,-27.01819 -16.2759,-37.74879 -1.9848,-10.73026 1.0053,-24.3401 1.0053,-24.3401 0,0 -6.5591,17.09084 -12.9625,29.43865 -6.4026,12.3481 -21.0573,38.13913 -26.454,43.93937 -5.3966,5.80043 -22.9341,31.55688 -32.0821,43.20448 -9.1478,11.64751 -13.3654,20.49404 -22.3865,26.96871 -9.021,6.47494 -21.5151,12.38742 -29.4763,11.32917 -7.9614,-1.0581 -13.3822,3.15785 -13.4189,-9.8062 -0.037,-12.96427 33.6974,-24.07343 49.1317,-36.3315 15.4343,-12.25799 33.9415,-23.97302 43.5035,-37.06633 9.5621,-13.09352 8.4642,-23.39482 15.4955,-37.00705 7.031,-13.61208 28.3544,-30.04339 27.3866,-43.97229 -0.9687,-13.92892 -11.8654,-14.22239 -20.4753,-24.51253 -8.6102,-10.2901 -31.1958,-37.21883 -31.1958,-37.21883 0,0 -4.0738,32.28861 -10.4033,48.97838 -6.3291,16.68979 -18.2747,33.204 -28.1205,49.60726 -9.8455,16.40359 -27.3203,45.83991 -30.9511,48.77311 -3.6309,2.93318 -20.415,22.587 -31.61249,30.10079 -11.1977,7.51388 -25.35529,16.47585 -34.00653,15.22921 -8.65137,-1.24669 -11.31477,-2.71312 -11.55377,-9.87256 -0.2436,-7.15967 9.48685,-9.35659 19.85367,-19.4007 10.36663,-10.04414 30.46493,-28.6012 42.43872,-40.76787 11.9739,-12.16635 23.2537,-21.08342 29.6813,-31.9015 6.4278,-10.81824 5.2124,-18.77867 10.1323,-30.27307 4.9187,-11.49466 15.205,-26.61122 20.1248,-38.10577 4.92,-11.49436 13.0041,-19.83134 10.1322,-30.27287 -2.8722,-10.44162 -14.8573,-13.858691 -25.0386,-21.546101 -10.1814,-7.68718 -36.3276,-23.949465 -36.3276,-23.949465 0,0 7.3541,23.108505 4.6889,26.942355 -2.6658,3.83367 -21.4942,52.176141 -23.2267,55.977001 -1.73219,3.801 -15.94009,48.03171 -24.95947,59.77789 -9.02118,11.7454 -13.33534,12.39127 -19.08646,14.69938 -5.75135,2.30805 -9.25787,4.66419 -13.02205,1.3966 -3.76401,-3.26757 -2.71642,-7.12481 -0.59515,-16.80495 2.12135,-9.6803 11.62677,-24.36837 19.1925,-38.07294 7.56587,-13.70464 18.73884,-29.29313 26.45404,-43.93949 7.7151,-14.64623 17.80369,-31.837461 19.92649,-43.707441 2.1227,-11.870033 4.0404,-17.291279 -1.792,-24.240955 -5.8321,-6.949717 -15.80569,-3.591303 -29.20496,-7.376273 C 963.78091,47.996726 938.95137,39.705068 926.19707,35.830304 913.4428,31.956081 907.59197,32.09696 900.72215,28.32151 893.85218,24.546135 885.30607,14.847254 885.30607,14.847254 c 0,0 2.46011,16.738777 0.7274,20.539457 -1.73215,3.800983 -26.2651,26.130091 -36.2751,30.265989 -10.00985,4.136117 -10.31373,-9.239782 -17.68427,1.563349 -7.37078,10.8028 11.04966,42.487141 17.0031,58.287821 5.95357,15.80071 13.11729,28.20949 17.17506,36.78188 4.05802,8.57227 7.10809,10.38398 7.05654,14.70601 -0.0516,4.32179 -0.43131,7.68785 -4.36447,8.56814 -3.93341,0.88024 -6.18066,-1.84278 -11.52059,-8.93866 -5.34009,-7.09489 -9.39755,-23.659 -14.34441,-35.94763 -4.94711,-12.28858 -11.86199,-27.87858 -15.34323,-37.78169 -3.48107,-9.902931 -5.91761,-15.054071 -6.35549,-21.274371 -0.43794,-6.220163 2.26828,-15.037175 2.26828,-15.037175 0,0 -28.24594,19.698795 -30.87837,24.466175 -2.63073,4.76783 -20.03482,4.12776 -24.54914,18.632341 -4.51547,14.50406 10.23492,40.16726 18.83521,57.28814 8.60009,17.12107 20.93768,31.69298 31.46011,44.68775 10.5223,12.99473 21.51455,23.39328 31.06339,33.48453 9.54896,10.0913 23.66034,20.00589 26.16957,27.11453 2.50929,7.1085 1.82248,5.13875 -0.6675,7.50188 -2.49001,2.3631 -5.11662,3.35097 -13.0551,0.46336 -7.94114,-2.88004 -20.57229,-15.57722 -27.96841,-25.18091 -7.39603,-9.60393 -9.47644,-20.02133 -16.04422,-31.21332 -6.56775,-11.19188 -14.34771,-22.06071 -23.66964,-35.61635 -9.32164,-13.55555 -32.42595,-45.58825 -32.42595,-45.58825 l -1.7255,-22.37339 c 0,0 -7.73109,18.9701 -19.52302,28.73662 -11.79197,9.76665 -25.11825,28.93511 -24.95273,33.60329 0.16524,4.66821 4.97118,28.77366 16.67235,48.9521 11.70124,20.17819 43.1987,51.34809 58.36396,66.16743 15.16533,14.81923 20.95401,18.49583 29.83338,25.11472 8.87929,6.61906 21.79681,8.60489 22.94218,15.07718 1.1455,6.47237 3.39181,7.82394 -7.12934,9.60091 -10.52119,1.77673 -27.7687,-15.99531 -43.05382,-29.31962 -15.28493,-13.3245 -33.74002,-33.67516 -46.6447,-51.62672 -12.90468,-17.95196 -25.4822,-43.03481 -30.89145,-54.99082 -5.4094,-11.95592 -4.42456,-19.4734 -5.19159,-14.77229 -0.76599,4.70146 -10.4959,27.49639 -15.42947,38.87394 -4.93437,11.37728 -10.74578,21.0142 -13.89472,29.47199 -3.14812,8.4581 -7.79757,17.10295 -5.80002,20.771 1.99699,3.66853 36.80841,37.55031 55.07023,52.26265 18.2618,14.71231 38.10663,27.71312 53.57579,36.42426 15.46908,8.71143 29.06966,11.79335 37.96119,17.34817 8.89163,5.55485 16.32475,8.13626 16.34868,13.4415 0.0241,5.30532 -2.29926,5.54037 -8.16123,6.83328 -5.86312,1.29247 -17.94861,-5.90785 -24.50946,-6.60847 -6.56054,-0.70143 -49.51781,-23.62007 -67.53017,-34.99392 -18.01235,-11.37383 -32.24384,-19.04333 -41.2549,-31.25306 -9.01118,-12.20973 -13.44518,-36.91411 -13.44518,-36.91411 0,0 -14.60589,36.68048 -16.86402,51.07731 -2.25842,14.39693 -0.61006,22.58515 0.25823,33.64338 0.86898,11.05808 -3.74325,21.4602 4.88751,32.54412 8.63048,11.08393 29.11396,14.17815 47.3854,19.81782 18.27146,5.64031 46.56455,9.3362 62.07423,12.75292 15.5097,3.41699 26.51882,2.34942 31.07004,7.30978 4.5516,4.96043 6.37172,1.46227 1.22965,8.36951 -5.1418,6.90689 -38.93361,7.92599 -42.72955,6.19106 -3.79645,-1.73426 -36.67919,-9.2416 -51.01608,-16.88536 -14.33721,-7.6432 -34.56215,-26.81661 -34.56215,-26.81661 0,0 5.88349,37.57811 13.1409,54.68612 7.2573,17.10799 19.21916,38.96908 29.66152,46.6211 10.44236,7.65196 13.32603,0.0495 21.67888,5.77405 8.35277,5.72474 20.52242,22.95401 22.57171,30.98125 2.04935,8.02744 -10.12145,1.20777 -1.46817,11.26956 8.65334,10.06131 50.04133,5.94802 68.20476,1.3176 18.16351,-4.63032 29.92432,-10.26864 38.43765,-21.9297 8.5133,-11.66093 5.22583,-27.90325 8.80253,-41.44317 3.57761,-13.53997 3.77562,-34.92399 12.59893,-39.70845 8.82294,-4.7842 9.2956,-3.02872 17.91434,4.97329 z"
       id="path56479-8-6"
       sodipodi:nodetypes="zzzzzzzzzzzczzzzzzzzzzzzzczzzzzzzzzczzczzzzzzzzzzzczzzzzzzzzzzzzczzzzzzzzzzzzzczzzzzzzzzzzczzzzzzzzzzzcczzzzzzzzzzszzszzzzzzzzczzzzzzzzzczzzzzzzzzz"
       inkscape:connector-curvature="0" />
  </g>
</svg>
