<?xml version="1.0" encoding="UTF-8" standalone="no"?>
<!-- Created with Inkscape (http://www.inkscape.org/) -->

<svg
   width="1220mm"
   height="600mm"
   viewBox="0 0 1220 600.00001"
   version="1.1"
   id="svg5"
   inkscape:version="1.1.1 (3bf5ae0d25, 2021-09-20)"
   sodipodi:docname="monstera.svg"
   xmlns:inkscape="http://www.inkscape.org/namespaces/inkscape"
   xmlns:sodipodi="http://sodipodi.sourceforge.net/DTD/sodipodi-0.dtd"
   xmlns="http://www.w3.org/2000/svg"
   xmlns:svg="http://www.w3.org/2000/svg"
   xmlns:rdf="http://www.w3.org/1999/02/22-rdf-syntax-ns#"
   xmlns:cc="http://creativecommons.org/ns#"
   xmlns:dc="http://purl.org/dc/elements/1.1/">
  <metadata
     id="metadata8">
    <rdf:RDF>
      <cc:Work
         rdf:about="">
        <dc:format>image/svg+xml</dc:format>
        <dc:type
           rdf:resource="http://purl.org/dc/dcmitype/StillImage" />
        <dc:title />
      </cc:Work>
    </rdf:RDF>
  </metadata>
  <sodipodi:namedview
     id="namedview7"
     pagecolor="#ffffff"
     bordercolor="#666666"
     borderopacity="1.0"
     inkscape:pageshadow="2"
     inkscape:pageopacity="0.0"
     inkscape:pagecheckerboard="true"
     inkscape:document-units="mm"
     showgrid="false"
     inkscape:zoom="0.16699964"
     inkscape:cx="2601.802"
     inkscape:cy="1380.2425"
     inkscape:window-width="1920"
     inkscape:window-height="1017"
     inkscape:window-x="-8"
     inkscape:window-y="-8"
     inkscape:window-maximized="1"
     inkscape:current-layer="layer1" />
  <defs
     id="defs2">
    <inkscape:path-effect
       effect="skeletal"
       id="path-effect135308"
       is_visible="true"
       lpeversion="1"
       pattern="M 0,0 H 1"
       copytype="single_stretched"
       prop_scale="1"
       scale_y_rel="false"
       spacing="0"
       normal_offset="0"
       tang_offset="0"
       prop_units="false"
       vertical_pattern="false"
       hide_knot="false"
       fuse_tolerance="0" />
  </defs>
  <g
     inkscape:label="Layer 1"
     inkscape:groupmode="layer"
     id="layer1">
    <path
       style="fill:none;stroke:#ff0000;stroke-width:0.412123px;stroke-linecap:butt;stroke-linejoin:miter;stroke-opacity:1"
       d="m 39.421474,73.718346 c 1.345067,1.248837 1.620131,6.244463 2.747504,7.63445 1.127371,1.389986 1.000581,0.204049 2.234534,1.379575 1.233914,1.175579 0.873322,4.784633 4.301896,6.266233 3.428592,1.481576 11.46293,-0.893131 14.636522,-2.27025 3.173608,-1.377109 3.699577,-2.526557 4.678641,-3.667368 0.979068,-1.140811 0.809886,-1.929382 1.507961,-2.679517 0.697914,-0.750125 1.265706,-0.256873 2.562732,-1.695741 1.297012,-1.43885 3.08668,-5.681882 3.9572,-7.580686 0.870549,-1.898775 0.831683,-2.809885 1.471517,-3.69951 0.639991,-0.889552 1.830141,-1.052793 1.98064,-1.675067 0.150584,-0.622221 -0.47789,-1.150105 -0.47789,-1.150105 0,0 -1.434633,0.634508 -2.011608,0.800826 -0.576947,0.166308 -3.714149,3.086922 -5.54664,3.844127 -1.832432,0.757146 -3.159981,0.464317 -5.067734,0.909278 -1.907736,0.444978 -4.730219,1.726638 -6.346518,1.830057 -1.616291,0.103417 -2.457422,9.36e-4 -3.076775,-0.474315 -0.619313,-0.475106 -1.120549,-0.47629 -0.633712,-1.436335 0.48675,-0.960092 3.057571,-0.736378 4.771517,-1.044749 1.713948,-0.308364 3.424878,-0.290938 5.509462,-0.779144 2.084599,-0.488181 4.903027,-1.496226 6.913204,-2.287804 2.010117,-0.791578 3.956327,-1.162342 5.161647,-2.371567 1.205302,-1.209224 1.573916,-2.671722 1.892901,-4.152012 0.319028,-1.480276 0.1597,-3.01111 -0.01448,-4.521992 -0.174248,-1.510878 -0.804822,-2.933018 -1.03313,-4.485773 -0.228348,-1.552742 -0.315781,-4.803069 -0.315781,-4.803069 0,0 -2.786717,3.600206 -3.618593,4.796823 -0.831919,1.196639 -3.38436,3.183794 -5.526015,4.42692 -2.141675,1.243178 -5.061626,3.606787 -6.674765,4.905314 -1.613138,1.298572 -1.731517,2.163969 -3.108747,2.736323 -1.377213,0.572362 -3.77191,0.747077 -4.797312,0.316134 -1.025452,-0.43082 -1.577165,0.381813 -1.215842,-1.415653 0.361333,-1.797504 5.464214,-2.505455 8.160999,-4.082819 2.696798,-1.577338 5.781831,-3.705528 7.969055,-5.388967 2.187213,-1.683409 3.755852,-3.162525 5.229772,-4.562248 1.473898,-1.399714 3.654757,-3.776903 3.654757,-3.776903 0,0 -0.840694,-3.70735 -1.511005,-5.635892 -0.670332,-1.928613 -2.230339,-4.216557 -2.540062,-5.891213 -0.309762,-1.674604 0.156891,-3.798605 0.156891,-3.798605 0,0 -1.023645,2.667259 -2.022982,4.594303 -0.999213,1.927089 -3.286281,5.952131 -4.1285,6.857338 -0.842215,0.905236 -3.57919,4.924879 -5.006849,6.742646 -1.427644,1.817753 -2.085853,3.198374 -3.49372,4.208838 -1.407863,1.010501 -3.357737,1.933224 -4.60018,1.76807 -1.24249,-0.165132 -2.088484,0.492826 -2.094206,-1.530393 -0.0058,-2.023249 5.258931,-3.756987 7.667669,-5.670026 2.408727,-1.913023 5.297041,-3.741313 6.789319,-5.784704 1.492304,-2.043423 1.320946,-3.651081 2.418287,-5.775455 1.09728,-2.124351 4.425088,-4.688681 4.274041,-6.862475 -0.151169,-2.173798 -1.851751,-2.219598 -3.195445,-3.825515 -1.343737,-1.60591 -4.868534,-5.808506 -4.868534,-5.808506 0,0 -0.635768,5.039078 -1.623571,7.643744 -0.987739,2.60467 -2.852021,5.181937 -4.388583,7.74189 -1.536532,2.560003 -4.26371,7.153942 -4.830342,7.611708 -0.566661,0.457763 -3.186041,3.52501 -4.933556,4.697641 -1.74756,1.172641 -3.957048,2.571277 -5.307193,2.376722 -1.350163,-0.19456 -1.765824,-0.423416 -1.803124,-1.540747 -0.03802,-1.117363 1.480554,-1.460222 3.098439,-3.027742 1.617851,-1.567525 4.754474,-4.463608 6.623144,-6.362382 1.868692,-1.898725 3.629048,-3.290356 4.632172,-4.978664 1.003149,-1.688334 0.813464,-2.930668 1.581276,-4.724526 0.767644,-1.793898 2.372958,-4.153043 3.140758,-5.946925 0.767832,-1.793851 2.02946,-3.094951 1.581262,-4.724494 C 64.46555,14.28789 62.59512,13.754611 61.006184,12.554884 59.417237,11.355195 55.336759,8.8172443 55.336759,8.8172443 c 0,0 1.147714,3.6063977 0.731772,4.2047227 -0.416035,0.598295 -3.354462,8.142798 -3.624842,8.735974 -0.270327,0.593198 -2.487667,7.496003 -3.895267,9.329155 -1.407877,1.833029 -2.081162,1.933826 -2.978701,2.294038 -0.897579,0.360203 -1.444818,0.727911 -2.032268,0.217959 -0.587428,-0.509949 -0.423936,-1.111924 -0.09288,-2.622642 0.331064,-1.510743 1.814516,-3.803016 2.995251,-5.941801 1.180757,-2.138796 2.92445,-4.571592 4.128509,-6.857357 1.204051,-2.285744 2.778512,-4.96867 3.109805,-6.821142 C 54.009421,9.5036705 54.3087,8.6576109 53.398476,7.5730193 52.488295,6.4884211 50.931781,7.0125477 48.840637,6.4218515 46.749456,5.8311998 42.874468,4.5371732 40.883987,3.9324636 38.893509,3.3278383 37.980408,3.3498244 36.908279,2.760614 35.836126,2.1714152 34.502389,0.65777267 34.502389,0.65777267 c 0,0 0.383934,2.61231433 0.113521,3.20546223 -0.270326,0.5931951 -4.099027,4.0779569 -5.661224,4.7234204 -1.562174,0.6454974 -1.609598,-1.4419941 -2.759872,0.2439817 -1.15031,1.685924 1.724451,6.630698 2.653566,9.09661 0.929136,2.465916 2.047132,4.402475 2.680402,5.740313 0.63331,1.33782 1.109315,1.620562 1.10127,2.295074 -0.0081,0.674474 -0.06731,1.199794 -0.681135,1.337175 -0.613863,0.137373 -0.964577,-0.287591 -1.797946,-1.395 -0.833393,-1.107254 -1.466615,-3.692309 -2.23864,-5.610118 -0.772064,-1.9178 -1.851226,-4.350832 -2.394521,-5.896347 -0.543268,-1.545488 -0.923523,-2.349394 -0.99186,-3.320157 -0.06835,-0.970741 0.353996,-2.3467557 0.353996,-2.3467557 0,0 -4.408164,3.0742657 -4.818991,3.8182807 -0.410561,0.744084 -3.126707,0.644193 -3.831228,2.90783 -0.704701,2.263557 1.597299,6.268649 2.939491,8.940596 1.342162,2.671976 3.267611,4.946122 4.909779,6.974133 1.642149,2.028004 3.357639,3.65084 4.847866,5.225717 1.490245,1.574885 3.692519,3.122192 4.084118,4.231592 0.391609,1.109377 0.284423,0.801971 -0.104172,1.170769 -0.3886,0.368794 -0.798519,0.522968 -2.037427,0.07232 -1.239323,-0.449473 -3.210586,-2.431039 -4.364851,-3.929826 -1.154252,-1.498824 -1.478928,-3.124601 -2.50392,-4.871264 -1.024987,-1.746645 -2.239155,-3.442875 -3.69397,-5.558417 -1.454769,-2.115528 -5.060511,-7.114668 -5.060511,-7.114668 l -0.269288,-3.491672 c 0,0 -1.206542,2.960542 -3.046834,4.484741 -1.840297,1.524219 -3.9200451,4.515718 -3.8942134,5.244251 0.025788,0.728538 0.7758206,4.490522 2.6019474,7.639643 1.826138,3.149082 6.741746,8.013571 9.108492,10.32633 2.366756,2.312744 3.270159,2.886526 4.655906,3.919496 1.385734,1.032993 3.401689,1.342908 3.58044,2.352996 0.17877,1.010103 0.529338,1.221034 -1.112631,1.498353 -1.641975,0.277284 -4.333684,-2.496286 -6.719136,-4.575725 C 17.765395,45.917436 14.885226,42.741435 12.871275,39.93985 10.857324,37.138202 8.8944303,33.223682 8.0502433,31.357783 7.206032,29.491899 7.3597302,28.318694 7.2400247,29.052366 c -0.119543,0.733727 -1.638028,4.291187 -2.4079785,6.066808 -0.7700757,1.77558 -1.6770263,3.279553 -2.1684604,4.599506 -0.4913079,1.320002 -1.2169172,2.669147 -0.9051729,3.2416 0.3116583,0.572521 5.7444545,5.860234 8.5944601,8.156297 2.850003,2.296058 5.947059,4.32501 8.361233,5.684504 2.41416,1.359537 4.536716,1.84051 5.924361,2.707415 1.38766,0.866913 2.5477,1.269776 2.551434,2.09773 0.0038,0.827967 -0.358831,0.86465 -1.273671,1.066428 -0.91502,0.201706 -2.801125,-0.922001 -3.825035,-1.031342 -1.023862,-0.109468 -7.72793,-3.686234 -10.539004,-5.46128 C 8.7411181,54.404992 6.5201,53.208061 5.113801,51.302567 3.7074838,49.397074 3.015497,45.541616 3.015497,45.541616 c 0,0 -2.27944825,5.724492 -2.63185882,7.971312 -0.35245864,2.246839 -0.0952083,3.524722 0.0402991,5.250508 0.13561602,1.725763 -0.58418535,3.349158 0.76276252,5.078955 1.3469047,1.729797 4.5436312,2.212692 7.3951386,3.09284 2.8515096,0.880245 7.2670326,1.457041 9.6875296,1.990268 2.4205,0.533267 4.138623,0.366658 4.848903,1.140789 0.710339,0.774145 0.994394,0.228206 0.191904,1.306175 -0.802448,1.077914 -6.076121,1.23696 -6.668529,0.966201 C 16.049158,72.068011 10.917358,70.896385 8.6798914,69.703473 6.442374,68.510646 3.2859962,65.518376 3.2859962,65.518376 c 0,0 0.9181988,5.864578 2.050817,8.534516 1.1326008,2.669932 2.9994112,6.081656 4.6290845,7.275853 1.6296723,1.194195 2.0797083,0.0077 3.3832843,0.901121 1.303564,0.893424 3.202804,3.582288 3.522624,4.83505 0.319829,1.252787 -1.579591,0.188486 -0.229128,1.758768 1.350471,1.570203 7.809631,0.928268 10.644282,0.205627 2.834664,-0.722622 4.670098,-1.602562 5.99872,-3.422427 1.328616,-1.819849 0.815562,-4.354685 1.373754,-6.467774 0.558335,-2.113097 0.589237,-5.450365 1.966235,-6.197045 1.37694,-0.746638 1.450705,-0.47267 2.795777,0.77615 z"
       id="path56479-8"
       sodipodi:nodetypes="zzzzzzzzzzzczzzzzzzzzzzzzczzzzzzzzzczzczzzzzzzzzzzczzzzzzzzzzzzzczzzzzzzzzzzzzczzzzzzzzzzzczzzzzzzzzzzcczzzzzzzzzzszzszzzzzzzzczzzzzzzzzczzzzzzzzzz"
       inkscape:connector-curvature="0" />
    <path
       style="fill:#008000;stroke:#000000;stroke-width:2.64074039px;stroke-linecap:butt;stroke-linejoin:miter;stroke-opacity:1"
       d="m 916.82599,482.99329 c 8.61871,8.00211 10.38122,40.0123 17.60502,48.91884 7.22379,8.90654 6.41136,1.30746 14.31809,8.83983 7.90649,7.53269 5.59594,30.6582 27.56503,40.15177 21.96918,9.49341 73.45037,-5.72286 93.78557,-14.54695 20.3353,-8.82401 23.7056,-16.18927 29.9791,-23.49918 6.2735,-7.30991 5.1894,-12.36279 9.6624,-17.1694 4.472,-4.80652 8.1102,-1.64594 16.4211,-10.86569 8.3108,-9.21965 19.7784,-36.40746 25.3563,-48.57433 5.5782,-12.16668 5.3292,-18.00474 9.429,-23.70513 4.1008,-5.69995 11.7269,-6.74592 12.6912,-10.73325 0.9649,-3.98695 -3.0621,-7.36944 -3.0621,-7.36944 0,0 -9.1926,4.0657 -12.8897,5.13141 -3.6968,1.06564 -23.7989,19.77988 -35.5409,24.63178 -11.7415,4.85151 -20.248,2.97519 -32.4722,5.82634 -12.2241,2.85126 -30.3096,11.06369 -40.6662,11.72633 -10.3566,0.66268 -15.7463,0.006 -19.7149,-3.03924 -3.9683,-3.04429 -7.1801,-3.05189 -4.0606,-9.2035 3.1189,-6.15194 19.5918,-4.71845 30.5742,-6.69438 10.9824,-1.97589 21.9454,-1.86423 35.3026,-4.99248 13.3574,-3.12809 31.4169,-9.58728 44.2974,-14.65943 12.8801,-5.07216 25.3507,-7.44788 33.074,-15.19615 7.7231,-7.7483 10.0851,-17.11944 12.129,-26.60463 2.0442,-9.48507 1.0233,-19.2941 -0.093,-28.97531 -1.1165,-9.68116 -5.157,-18.79372 -6.6199,-28.74322 -1.4632,-9.94942 -2.0234,-30.77636 -2.0234,-30.77636 0,0 -17.8563,23.06883 -23.1867,30.73635 -5.3306,7.66763 -21.6857,20.4006 -35.4087,28.36611 -13.7231,7.96584 -32.4331,23.11099 -42.7695,31.4315 -10.3364,8.32077 -11.0949,13.86594 -19.9197,17.53338 -8.8247,3.6675 -24.1691,4.787 -30.7395,2.02568 -6.5707,-2.76056 -10.1059,2.44652 -7.7907,-9.071 2.3153,-11.51777 35.0128,-16.05407 52.2928,-26.16124 17.2801,-10.10703 37.0479,-23.7437 51.0628,-34.53058 14.0149,-10.78669 24.0662,-20.26433 33.5106,-29.23326 9.4441,-8.96887 23.4183,-24.20104 23.4183,-24.20104 0,0 -5.3868,-23.75538 -9.6819,-36.11279 -4.2953,-12.35786 -14.2913,-27.01819 -16.2759,-37.74879 -1.9848,-10.73026 1.0053,-24.3401 1.0053,-24.3401 0,0 -6.5591,17.09084 -12.9625,29.43865 -6.4026,12.3481 -21.0573,38.13913 -26.454,43.93937 -5.3966,5.80043 -22.9341,31.55688 -32.0821,43.20448 -9.1478,11.64751 -13.3654,20.49404 -22.3865,26.96871 -9.021,6.47494 -21.5151,12.38742 -29.4763,11.32917 -7.9614,-1.0581 -13.3822,3.15785 -13.4189,-9.8062 -0.037,-12.96427 33.6974,-24.07343 49.1317,-36.3315 15.4343,-12.25799 33.9415,-23.97302 43.5035,-37.06633 9.5621,-13.09352 8.4642,-23.39482 15.4955,-37.00705 7.031,-13.61208 28.3544,-30.04339 27.3866,-43.97229 -0.9687,-13.92892 -11.8654,-14.22239 -20.4753,-24.51253 -8.6102,-10.2901 -31.1958,-37.21883 -31.1958,-37.21883 0,0 -4.0738,32.28861 -10.4033,48.97838 -6.3291,16.68979 -18.2747,33.204 -28.1205,49.60726 -9.8455,16.40359 -27.3203,45.83991 -30.9511,48.77311 -3.6309,2.93318 -20.415,22.587 -31.61249,30.10079 -11.1977,7.51388 -25.35529,16.47585 -34.00653,15.22921 -8.65137,-1.24669 -11.31477,-2.71312 -11.55377,-9.87256 -0.2436,-7.15967 9.48685,-9.35659 19.85367,-19.4007 10.36663,-10.04414 30.46493,-28.6012 42.43872,-40.76787 11.9739,-12.16635 23.2537,-21.08342 29.6813,-31.9015 6.4278,-10.81824 5.2124,-18.77867 10.1323,-30.27307 4.9187,-11.49466 15.205,-26.61122 20.1248,-38.10577 4.92,-11.49436 13.0041,-19.83134 10.1322,-30.27287 -2.8722,-10.44162 -14.8573,-13.858691 -25.0386,-21.546101 -10.1814,-7.68718 -36.3276,-23.949465 -36.3276,-23.949465 0,0 7.3541,23.108505 4.6889,26.942355 -2.6658,3.83367 -21.4942,52.176141 -23.2267,55.977001 -1.73219,3.801 -15.94009,48.03171 -24.95947,59.77789 -9.02118,11.7454 -13.33534,12.39127 -19.08646,14.69938 -5.75135,2.30805 -9.25787,4.66419 -13.02205,1.3966 -3.76401,-3.26757 -2.71642,-7.12481 -0.59515,-16.80495 2.12135,-9.6803 11.62677,-24.36837 19.1925,-38.07294 7.56587,-13.70464 18.73884,-29.29313 26.45404,-43.93949 7.7151,-14.64623 17.80369,-31.837461 19.92649,-43.707441 2.1227,-11.870033 4.0404,-17.291279 -1.792,-24.240955 -5.8321,-6.949717 -15.80569,-3.591303 -29.20496,-7.376273 C 963.78091,47.996726 938.95137,39.705068 926.19707,35.830304 913.4428,31.956081 907.59197,32.09696 900.72215,28.32151 893.85218,24.546135 885.30607,14.847254 885.30607,14.847254 c 0,0 2.46011,16.738777 0.7274,20.539457 -1.73215,3.800983 -26.2651,26.130091 -36.2751,30.265989 -10.00985,4.136117 -10.31373,-9.239782 -17.68427,1.563349 -7.37078,10.8028 11.04966,42.487141 17.0031,58.287821 5.95357,15.80071 13.11729,28.20949 17.17506,36.78188 4.05802,8.57227 7.10809,10.38398 7.05654,14.70601 -0.0516,4.32179 -0.43131,7.68785 -4.36447,8.56814 -3.93341,0.88024 -6.18066,-1.84278 -11.52059,-8.93866 -5.34009,-7.09489 -9.39755,-23.659 -14.34441,-35.94763 -4.94711,-12.28858 -11.86199,-27.87858 -15.34323,-37.78169 -3.48107,-9.902931 -5.91761,-15.054071 -6.35549,-21.274371 -0.43794,-6.220163 2.26828,-15.037175 2.26828,-15.037175 0,0 -28.24594,19.698795 -30.87837,24.466175 -2.63073,4.76783 -20.03482,4.12776 -24.54914,18.632341 -4.51547,14.50406 10.23492,40.16726 18.83521,57.28814 8.60009,17.12107 20.93768,31.69298 31.46011,44.68775 10.5223,12.99473 21.51455,23.39328 31.06339,33.48453 9.54896,10.0913 23.66034,20.00589 26.16957,27.11453 2.50929,7.1085 1.82248,5.13875 -0.6675,7.50188 -2.49001,2.3631 -5.11662,3.35097 -13.0551,0.46336 -7.94114,-2.88004 -20.57229,-15.57722 -27.96841,-25.18091 -7.39603,-9.60393 -9.47644,-20.02133 -16.04422,-31.21332 -6.56775,-11.19188 -14.34771,-22.06071 -23.66964,-35.61635 -9.32164,-13.55555 -32.42595,-45.58825 -32.42595,-45.58825 l -1.7255,-22.37339 c 0,0 -7.73109,18.9701 -19.52302,28.73662 -11.79197,9.76665 -25.11825,28.93511 -24.95273,33.60329 0.16524,4.66821 4.97118,28.77366 16.67235,48.9521 11.70124,20.17819 43.1987,51.34809 58.36396,66.16743 15.16533,14.81923 20.95401,18.49583 29.83338,25.11472 8.87929,6.61906 21.79681,8.60489 22.94218,15.07718 1.1455,6.47237 3.39181,7.82394 -7.12934,9.60091 -10.52119,1.77673 -27.7687,-15.99531 -43.05382,-29.31962 -15.28493,-13.3245 -33.74002,-33.67516 -46.6447,-51.62672 -12.90468,-17.95196 -25.4822,-43.03481 -30.89145,-54.99082 -5.4094,-11.95592 -4.42456,-19.4734 -5.19159,-14.77229 -0.76599,4.70146 -10.4959,27.49639 -15.42947,38.87394 -4.93437,11.37728 -10.74578,21.0142 -13.89472,29.47199 -3.14812,8.4581 -7.79757,17.10295 -5.80002,20.771 1.99699,3.66853 36.80841,37.55031 55.07023,52.26265 18.2618,14.71231 38.10663,27.71312 53.57579,36.42426 15.46908,8.71143 29.06966,11.79335 37.96119,17.34817 8.89163,5.55485 16.32475,8.13626 16.34868,13.4415 0.0241,5.30532 -2.29926,5.54037 -8.16123,6.83328 -5.86312,1.29247 -17.94861,-5.90785 -24.50946,-6.60847 -6.56054,-0.70143 -49.51781,-23.62007 -67.53017,-34.99392 -18.01235,-11.37383 -32.24384,-19.04333 -41.2549,-31.25306 -9.01118,-12.20973 -13.44518,-36.91411 -13.44518,-36.91411 0,0 -14.60589,36.68048 -16.86402,51.07731 -2.25842,14.39693 -0.61006,22.58515 0.25823,33.64338 0.86898,11.05808 -3.74325,21.4602 4.88751,32.54412 8.63048,11.08393 29.11396,14.17815 47.3854,19.81782 18.27146,5.64031 46.56455,9.3362 62.07423,12.75292 15.5097,3.41699 26.51882,2.34942 31.07004,7.30978 4.5516,4.96043 6.37172,1.46227 1.22965,8.36951 -5.1418,6.90689 -38.93361,7.92599 -42.72955,6.19106 -3.79645,-1.73426 -36.67919,-9.2416 -51.01608,-16.88536 -14.33721,-7.6432 -34.56215,-26.81661 -34.56215,-26.81661 0,0 5.88349,37.57811 13.1409,54.68612 7.2573,17.10799 19.21916,38.96908 29.66152,46.6211 10.44236,7.65196 13.32603,0.0495 21.67888,5.77405 8.35277,5.72474 20.52242,22.95401 22.57171,30.98125 2.04935,8.02744 -10.12145,1.20777 -1.46817,11.26956 8.65334,10.06131 50.04133,5.94802 68.20476,1.3176 18.16351,-4.63032 29.92432,-10.26864 38.43765,-21.9297 8.5133,-11.66093 5.22583,-27.90325 8.80253,-41.44317 3.57761,-13.53997 3.77562,-34.92399 12.59893,-39.70845 8.82294,-4.7842 9.2956,-3.02872 17.91434,4.97329 z"
       id="path56479-8-6"
       sodipodi:nodetypes="zzzzzzzzzzzczzzzzzzzzzzzzczzzzzzzzzczzczzzzzzzzzzzczzzzzzzzzzzzzczzzzzzzzzzzzzczzzzzzzzzzzczzzzzzzzzzzcczzzzzzzzzzszzszzzzzzzzczzzzzzzzzczzzzzzzzzz"
       inkscape:connector-curvature="0" />
    <text
       xml:space="preserve"
       style="font-size:2.86695px;line-height:1.25;font-family:sans-serif;letter-spacing:0px;word-spacing:0px;fill:#0000ff;fill-opacity:1;stroke-width:2.15027;stroke-miterlimit:4;stroke-dasharray:none"
       x="-178.06332"
       y="76.093361"
       id="text37531-6"><tspan
         sodipodi:role="line"
         id="tspan37529-6"
         style="fill:#0000ff;fill-opacity:1;stroke-width:2.15027;stroke-miterlimit:4;stroke-dasharray:none"
         x="-178.06332"
         y="76.093361">=pass2:800mm/min:40%:#0000ff=</tspan></text>
    <text
       xml:space="preserve"
       style="font-size:2.86695px;line-height:1.25;font-family:sans-serif;letter-spacing:0px;word-spacing:0px;fill:#ff0000;fill-opacity:1;stroke-width:2.15021"
       x="-179.16473"
       y="86.333153"
       id="text37531-6-9"><tspan
         sodipodi:role="line"
         id="tspan37529-6-2"
         style="fill:#ff0000;fill-opacity:1;stroke-width:2.15021"
         x="-179.16473"
         y="86.333153">=pass3:800mm/min:40%:#ff0000=</tspan></text>
    <text
       xml:space="preserve"
       style="font-size:2.86695px;line-height:1.25;font-family:sans-serif;letter-spacing:0px;word-spacing:0px;fill:#00ff00;fill-opacity:1;stroke-width:2.15021"
       x="-179.05559"
       y="64.20977"
       id="text37531-6-2"><tspan
         sodipodi:role="line"
         id="tspan37529-6-1"
         style="fill:#00ff00;fill-opacity:1;stroke-width:2.15021"
         x="-179.05559"
         y="64.20977">=pass1:800mm/min:20%:#00ff00=</tspan></text>
  </g>
</svg>
