<?xml version="1.0" encoding="UTF-8" standalone="no"?>
<!-- Created with Inkscape (http://www.inkscape.org/) -->

<svg
   width="1220mm"
   height="600mm"
   viewBox="0 0 1220 600.00001"
   version="1.1"
   id="svg5"
   inkscape:version="1.1.1 (3bf5ae0d25, 2021-09-20)"
   sodipodi:docname="leaf_oak.svg"
   xmlns:inkscape="http://www.inkscape.org/namespaces/inkscape"
   xmlns:sodipodi="http://sodipodi.sourceforge.net/DTD/sodipodi-0.dtd"
   xmlns="http://www.w3.org/2000/svg"
   xmlns:svg="http://www.w3.org/2000/svg">
  <sodipodi:namedview
     id="namedview7"
     pagecolor="#ffffff"
     bordercolor="#666666"
     borderopacity="1.0"
     inkscape:pageshadow="2"
     inkscape:pageopacity="0.0"
     inkscape:pagecheckerboard="true"
     inkscape:document-units="mm"
     showgrid="false"
     inkscape:zoom="0.1737471"
     inkscape:cx="3087.8213"
     inkscape:cy="699.29225"
     inkscape:window-width="1920"
     inkscape:window-height="1017"
     inkscape:window-x="-8"
     inkscape:window-y="-8"
     inkscape:window-maximized="1"
     inkscape:current-layer="layer1"
     inkscape:snap-global="false" />
  <defs
     id="defs2" />
  <g
     inkscape:label="Layer 1"
     inkscape:groupmode="layer"
     id="layer1">
    <g
       id="g152261"
       transform="translate(-217.76143,-19.796493)">
      <path
         style="fill:none;stroke:#ff0000;stroke-width:2;stroke-linecap:butt;stroke-linejoin:miter;stroke-miterlimit:4;stroke-dasharray:none;stroke-opacity:1"
         d="m 830.20298,475.93998 -3.23035,11.30626 c 0,0 -25.33801,-18.60563 -33.91881,-16.15181 -8.5808,2.45382 -2.32312,11.90278 -8.61428,13.45986 -6.29116,1.55708 -6.36175,-7.21815 -19.92058,-11.30628 -13.55883,-4.08813 -52.64348,4.11724 -61.91525,-4.30716 -9.27177,-8.4244 2.30809,-11.36771 -2.15358,-12.92143 -4.46167,-1.55372 -0.85745,4.23116 -11.30628,10.22948 -10.44883,5.99832 -43.3853,27.01269 -54.37775,17.22858 -10.99245,-9.78411 8.51568,-23.6432 5.92233,-30.68843 -2.59335,-7.04523 -2.26495,-7.63075 -10.76788,-8.61431 -8.50293,-0.98356 -23.54518,12.72537 -33.91879,16.15181 -10.37361,3.42644 -20.50145,1.50427 -27.45809,5.38395 -6.95664,3.87968 -4.23691,10.36165 -13.45983,14.53663 -9.22292,4.17498 -30.84728,14.22263 -40.91792,1.07678 -10.07064,-13.14585 21.32218,-43.58126 16.69021,-55.99292 -4.63197,-12.41166 -3.76718,-9.43064 -17.76698,-11.30629 -13.9998,-1.87565 -58.68492,19.92058 -60.8385,18.84379 -2.15358,-1.07679 -43.00224,6.12714 -59.22331,3.76875 -16.22107,-2.35839 -40.73592,6.40052 -44.9862,-2.80018 -4.25028,-9.2007 10.3823,-21.42588 15.91297,-31.11861 5.53067,-9.69273 37.0857,-18.39244 28.53486,-34.99559 -8.55084,-16.60315 -45.85736,9.04814 -66.76083,4.30715 -20.90347,-4.74099 -60.82262,-22.79731 -62.97619,-27.10445 -2.15358,-4.30714 9.49376,-25.33596 12.90559,-33.19565 3.41183,-7.85969 15.30857,-3.52418 13.45983,-16.15181 -1.84874,-12.62763 -37.23243,-20.34994 -46.30184,-30.68844 -9.06941,-10.3385 -13.66357,-14.37607 -11.84466,-24.2277 1.81891,-9.85163 24.22772,-20.45896 24.22772,-22.61254 0,-2.15357 -18.20671,-28.56545 -20.45896,-38.22594 -2.25225,-9.66049 -2.24083,-12.66819 0.53839,-16.15181 2.77922,-3.48362 7.90793,0.58187 10.22948,-2.69197 2.32155,-3.27384 -5.41398,-8.66038 -1.07679,-13.45984 4.33719,-4.79946 19.31043,2.48449 25.30451,-0.5384 5.99408,-3.02289 2.24448,-8.23187 9.15268,-11.84466 6.9082,-3.61279 23.38504,5.27754 31.76524,-1.61518 8.3802,-6.89272 2.78047,-24.52603 8.0759,-32.30362 5.29543,-7.777586 0.30414,-12.972292 18.84378,-13.459837 18.53964,-0.487545 52.39981,52.101157 74.29831,47.378637 21.8985,-4.72252 -0.29297,-36.104562 25.30451,-38.764338 25.59748,-2.659776 49.02245,74.790018 76.45188,76.451898 27.42943,1.66188 23.10029,-45.21168 44.68667,-34.99559 74.84767,35.42284 23.20925,88.49653 32.84202,110.3707 9.63277,21.87417 3.48178,22.42526 14.53663,24.22772 11.05485,1.80246 14.93148,-25.59471 29.61166,-25.30451 14.68018,0.2902 29.66652,17.23966 36.07237,33.38042 6.40585,16.14076 -8.98802,43.95896 -3.76876,54.91615 5.21926,10.95719 4.55491,10.95528 14.53664,10.22948 9.98173,-0.7258 9.16473,-35.01805 30.68843,-29.07327 21.5237,5.94478 7.55466,79.71265 24.76612,88.29657 17.21146,8.58392 14.26781,-12.1002 22.07413,-8.61431 7.80632,3.48589 4.3211,20.32531 9.69108,25.84289 5.36998,5.51758 12.89149,2.98682 17.22861,6.99913 4.33712,4.01231 4.42141,9.75093 7.5375,15.075 3.11609,5.32407 10.21978,12.47705 11.30625,16.69021 1.08647,4.21316 -3.47739,1.30193 -0.53837,5.92233 2.93902,4.6204 25.30448,9.1527 25.30448,9.1527 z"
         id="path147583"
         sodipodi:nodetypes="cczzzzzzzzzzzzzzzzzzzzzzzzzzzzzzzzzzzzzzzszzczzzzzzzzzzzc" />
      <path
         style="fill:none;stroke:#00ff00;stroke-width:2;stroke-linecap:butt;stroke-linejoin:miter;stroke-miterlimit:4;stroke-dasharray:none;stroke-opacity:1"
         d="m 765.97199,462.93338 c 21.3193,6.85263 12.18248,-9.13685 12.18248,-9.13685 0,0 -34.63778,-6.46584 -55.58248,-28.93333 -20.9447,-22.46749 -2.93975,-78.28649 -15.98946,-75.37894 -13.04971,2.90755 -9.89824,61.67368 -9.89824,61.67368 0,0 -29.06302,3.87454 -46.44562,-20.55791 -17.3826,-24.43245 7.5656,-126.52927 -11.42107,-111.16492 -18.98667,15.36435 -3.807,99.74386 -3.807,99.74386 0,0 -28.18847,5.84645 -52.53685,-28.17193 -24.34838,-34.01838 -3.9657,-217.79918 -29.69475,-172.0772 -25.72905,45.72198 9.13686,162.94037 9.13686,162.94037 0,0 -24.80986,-5.2328 -49.49124,-38.83157 -24.68138,-33.59877 -59.63653,-221.134583 -66.24211,-175.12284 -6.60558,46.01174 41.87719,156.08773 41.87719,156.08773 0,0 -39.66433,-18.76996 -66.24212,-46.44561 -26.57779,-27.67565 -87.7657,-178.809884 -80.70876,-125.63159 7.05694,53.17829 56.34384,118.77896 56.34384,118.77896 0,0 -83.01593,-51.60958 -128.67719,-61.6737 -45.66126,-10.06412 97.45966,68.52633 97.45966,68.52633 0,0 -85.88625,-7.42039 -93.65264,5.32983 -18.1888,29.86088 93.87737,7.62216 130.20002,18.27368 36.32265,10.65152 63.95788,28.17192 63.95788,28.17192 0,0 -125.99534,7.19069 -141.62107,43.40003 -15.62573,36.20934 112.53471,-40.58247 157.61056,-29.69474 45.07585,10.88773 73.85613,53.29825 73.85613,53.29825 0,0 -97.67308,9.97656 -135.52985,40.35438 -37.85676,30.37783 114.33451,-19.86898 156.08776,-14.46668 41.75325,5.4023 53.29825,17.5123 53.29825,17.5123 0,0 -71.85697,13.7839 -79.18597,45.68421 -7.329,31.90031 70.25199,-35.52823 95.17543,-34.26316 24.92344,1.26507 30.45616,16.75088 30.45616,16.75088 0,0 -21.75716,20.28989 -12.18247,28.93333 9.57469,8.64344 21.51314,-21.44488 40.35441,-22.0807 18.84127,-0.63582 39.59296,21.3193 60.91226,28.17193 z"
         id="path148321"
         sodipodi:nodetypes="zczzczzczzczzczzczcszczzczzczzczzz" />
    </g>
    <path
       style="fill:#6c5353;stroke:#6c5353;stroke-width:2;stroke-linecap:butt;stroke-linejoin:miter;stroke-miterlimit:4;stroke-dasharray:none;stroke-opacity:1"
       d="m 1201.1799,463.73928 -3.2303,11.30626 c 0,0 -25.3381,-18.60563 -33.9189,-16.15181 -8.5807,2.45382 -2.3231,11.90278 -8.6142,13.45986 -6.2912,1.55708 -6.3618,-7.21815 -19.9206,-11.30628 -13.5588,-4.08813 -52.6435,4.11724 -61.9153,-4.30716 -9.2717,-8.4244 2.3081,-11.36771 -2.1535,-12.92143 -4.4617,-1.55372 -0.8575,4.23116 -11.3063,10.22948 -10.4488,5.99832 -43.3853,27.01269 -54.3778,17.22858 -10.99242,-9.78411 8.5157,-23.6432 5.9224,-30.68843 -2.5934,-7.04523 -2.265,-7.63075 -10.7679,-8.61431 -8.50295,-0.98356 -23.5452,12.72537 -33.91881,16.15181 -10.37361,3.42644 -20.50145,1.50427 -27.45809,5.38395 -6.95664,3.87968 -4.23691,10.36165 -13.45983,14.53663 -9.22292,4.17498 -30.84728,14.22263 -40.91792,1.07678 -10.07064,-13.14585 21.32218,-43.58126 16.69021,-55.99292 -4.63197,-12.41166 -3.76718,-9.43064 -17.76698,-11.30629 -13.9998,-1.87565 -58.68492,19.92058 -60.8385,18.84379 -2.15358,-1.07679 -43.00224,6.12714 -59.22331,3.76875 -16.22107,-2.35839 -40.73592,6.40052 -44.9862,-2.80018 -4.25028,-9.2007 10.3823,-21.42588 15.91297,-31.11861 5.53067,-9.69273 37.0857,-18.39244 28.53486,-34.99559 -8.55084,-16.60315 -45.85736,9.04814 -66.76083,4.30715 -20.90347,-4.74099 -60.82262,-22.79731 -62.97619,-27.10445 -2.15358,-4.30714 9.49376,-25.33596 12.90559,-33.19565 3.41183,-7.85969 15.30857,-3.52418 13.45983,-16.15181 -1.84874,-12.62763 -37.23243,-20.34994 -46.30184,-30.68844 -9.06941,-10.3385 -13.66357,-14.37607 -11.84466,-24.2277 1.81891,-9.85163 24.22772,-20.45896 24.22772,-22.61254 0,-2.15357 -18.20671,-28.56545 -20.45896,-38.22594 -2.25225,-9.66049 -2.24083,-12.66819 0.53839,-16.15181 2.77922,-3.48362 7.90793,0.58187 10.22948,-2.69197 2.32155,-3.27384 -5.41398,-8.66038 -1.07679,-13.45984 4.33719,-4.79946 19.31043,2.48449 25.30451,-0.5384 5.99408,-3.02289 2.24448,-8.23187 9.15268,-11.84466 6.9082,-3.61279 23.38504,5.27754 31.76524,-1.61518 8.3802,-6.89272 2.78047,-24.526031 8.0759,-32.303621 5.29543,-7.777586 0.30414,-12.972292 18.84378,-13.459837 18.53964,-0.487545 52.39981,52.101158 74.29831,47.378638 21.8985,-4.72252 -0.29297,-36.104563 25.30451,-38.764339 25.59748,-2.659776 49.02245,74.790019 76.45188,76.451899 27.42943,1.66188 23.10029,-45.21168 44.68667,-34.99559 74.84768,35.42284 23.20925,88.49653 32.84202,110.3707 9.63277,21.87417 3.48178,22.42526 14.53663,24.22772 11.05485,1.80246 14.93148,-25.59471 29.61163,-25.30451 14.6802,0.2902 29.6666,17.23966 36.0724,33.38042 6.4059,16.14076 -8.988,43.95896 -3.7688,54.91615 5.2193,10.95719 4.5549,10.95528 14.5367,10.22948 9.9817,-0.7258 9.1647,-35.01805 30.6884,-29.07327 21.5237,5.94478 7.5547,79.71265 24.7661,88.29657 17.2115,8.58392 14.2678,-12.1002 22.0742,-8.61431 7.8063,3.48589 4.3211,20.32531 9.691,25.84289 5.37,5.51758 12.8915,2.98682 17.2286,6.99913 4.3372,4.01231 4.4215,9.75093 7.5376,15.075 3.116,5.32407 10.2197,12.47705 11.3062,16.69021 1.0865,4.21316 -3.4774,1.30193 -0.5384,5.92233 2.939,4.6204 25.3045,9.1527 25.3045,9.1527 z"
       id="path147583-3"
       sodipodi:nodetypes="cczzzzzzzzzzzzzzzzzzzzzzzzzzzzzzzzzzzzzzzszzczzzzzzzzzzzc" />
    <path
       style="fill:#f9f9f9;stroke:#f9f9f9;stroke-width:2;stroke-linecap:butt;stroke-linejoin:miter;stroke-miterlimit:4;stroke-dasharray:none;stroke-opacity:1"
       d="m 1136.9489,450.73268 c 21.3193,6.85263 12.1825,-9.13685 12.1825,-9.13685 0,0 -34.6378,-6.46584 -55.5825,-28.93333 -20.9447,-22.46749 -2.9397,-78.28649 -15.9894,-75.37894 -13.0497,2.90755 -9.8983,61.67368 -9.8983,61.67368 0,0 -29.063,3.87454 -46.4456,-20.55791 -17.3826,-24.43245 7.5656,-126.52927 -11.4211,-111.16492 -18.98664,15.36435 -3.807,99.74386 -3.807,99.74386 0,0 -28.18844,5.84645 -52.53682,-28.17193 -24.34838,-34.01838 -3.9657,-217.79918 -29.69475,-172.0772 -25.72905,45.72198 9.13686,162.94037 9.13686,162.94037 0,0 -24.80986,-5.2328 -49.49124,-38.83157 -24.68138,-33.59877 -59.63653,-221.134584 -66.24211,-175.12284 -6.60558,46.01174 41.87719,156.08773 41.87719,156.08773 0,0 -39.66433,-18.76996 -66.24212,-46.44561 -26.57779,-27.67565 -87.7657,-178.809885 -80.70876,-125.631591 7.05694,53.178291 56.34384,118.778961 56.34384,118.778961 0,0 -83.01593,-51.60958 -128.67719,-61.6737 -45.66126,-10.06412 97.45966,68.52633 97.45966,68.52633 0,0 -85.88625,-7.42039 -93.65264,5.32983 -18.1888,29.86088 93.87737,7.62216 130.20002,18.27368 36.32265,10.65152 63.95788,28.17192 63.95788,28.17192 0,0 -125.99534,7.19069 -141.62107,43.40003 -15.62573,36.20934 112.53471,-40.58247 157.61056,-29.69474 45.07585,10.88773 73.85613,53.29825 73.85613,53.29825 0,0 -97.67308,9.97656 -135.52985,40.35438 -37.85676,30.37783 114.33451,-19.86898 156.08776,-14.46668 41.75325,5.4023 53.29825,17.5123 53.29825,17.5123 0,0 -71.85697,13.7839 -79.18597,45.68421 -7.329,31.90031 70.25199,-35.52823 95.17547,-34.26316 24.9234,1.26507 30.4561,16.75088 30.4561,16.75088 0,0 -21.7571,20.28989 -12.1824,28.93333 9.5746,8.64344 21.5131,-21.44488 40.3544,-22.0807 18.8412,-0.63582 39.5929,21.3193 60.9122,28.17193 z"
       id="path148321-8"
       sodipodi:nodetypes="zczzczzczzczzczzczcszczzczzczzczzz" />
  </g>
</svg>
