<?xml version="1.0" encoding="UTF-8" standalone="no"?>
<!-- Created with Inkscape (http://www.inkscape.org/) -->

<svg
   width="1220mm"
   height="600mm"
   viewBox="0 0 1220 600.00001"
   version="1.1"
   id="svg5"
   inkscape:version="1.1.1 (3bf5ae0d25, 2021-09-20)"
   sodipodi:docname="oak.svg"
   xmlns:inkscape="http://www.inkscape.org/namespaces/inkscape"
   xmlns:sodipodi="http://sodipodi.sourceforge.net/DTD/sodipodi-0.dtd"
   xmlns="http://www.w3.org/2000/svg"
   xmlns:svg="http://www.w3.org/2000/svg">
  <sodipodi:namedview
     id="namedview7"
     pagecolor="#ffffff"
     bordercolor="#666666"
     borderopacity="1.0"
     inkscape:pageshadow="2"
     inkscape:pageopacity="0.0"
     inkscape:pagecheckerboard="true"
     inkscape:document-units="mm"
     showgrid="false"
     inkscape:zoom="2.2266584"
     inkscape:cx="181.21325"
     inkscape:cy="271.93215"
     inkscape:window-width="1920"
     inkscape:window-height="1017"
     inkscape:window-x="-8"
     inkscape:window-y="-8"
     inkscape:window-maximized="1"
     inkscape:current-layer="layer1"
     inkscape:snap-global="false" />
  <defs
     id="defs2" />
  <g
     inkscape:label="Layer 1"
     inkscape:groupmode="layer"
     id="layer1">
    <path
       style="fill:none;stroke:#ff0000;stroke-width:0.299064;stroke-linecap:butt;stroke-linejoin:miter;stroke-miterlimit:4;stroke-dasharray:none;stroke-opacity:1"
       d="m 89.81105,58.195618 -0.48304,1.690646 c 0,0 -3.78884,-2.782135 -5.071943,-2.41521 -1.283104,0.366924 -0.347381,1.779845 -1.28811,2.012678 -0.940729,0.232833 -0.951284,-1.079344 -2.978762,-1.690649 -2.027477,-0.611306 -7.871878,0.615658 -9.258303,-0.644058 -1.386426,-1.259716 0.345133,-1.699835 -0.322029,-1.932166 -0.667162,-0.23233 -0.128216,0.632693 -1.69065,1.529634 -1.562433,0.89694 -6.487485,4.039258 -8.131207,2.576222 -1.643721,-1.463037 1.273366,-3.535413 0.885577,-4.588899 -0.387788,-1.053487 -0.338682,-1.141041 -1.610141,-1.288114 -1.271459,-0.147074 -3.520755,1.902848 -5.07194,2.41521 -1.551186,0.512362 -3.065621,0.224937 -4.10586,0.805073 -1.04024,0.580135 -0.633553,1.549397 -2.012674,2.173689 -1.37912,0.624293 -4.612652,2.126737 -6.118533,0.161013 -1.505882,-1.965724 3.188345,-6.516788 2.495718,-8.372726 -0.692627,-1.855939 -0.563313,-1.410182 -2.65673,-1.690651 -2.093416,-0.28047 -8.775266,2.978762 -9.097295,2.817747 -0.322029,-0.161014 -6.430206,0.916203 -8.855773,0.563548 -2.425567,-0.352654 -6.091319,0.957082 -6.726871,-0.418716 -0.635552,-1.375798 1.552485,-3.203852 2.379496,-4.653224 0.827012,-1.449372 5.545495,-2.750256 4.266872,-5.232956 -1.278624,-2.482701 -6.857138,1.352985 -9.982873,0.644056 C 11.250244,41.948836 5.2810584,39.24884 4.9590311,38.604785 4.6370022,37.960731 6.3786508,34.816252 6.8888282,33.640977 7.3990055,32.465703 9.1779474,33.114 8.9015019,31.225767 8.6250563,29.337534 3.3340666,28.182802 1.9779007,26.636867 0.62173477,25.090932 -0.06523862,24.487186 0.20674642,23.014053 0.47873145,21.540921 3.8295629,19.954787 3.8295629,19.632758 c 0,-0.322028 -2.7224835,-4.271446 -3.05926672,-5.715997 C 0.43351301,12.47221 0.43522066,12.022463 0.85080265,11.501551 1.2663846,10.980638 2.0332903,11.588559 2.380436,11.099015 2.7275818,10.609472 1.5708734,9.8040123 2.2194216,9.08634 2.8679698,8.3686677 5.1069465,9.4578505 6.0032525,9.005832 6.8995586,8.5538136 6.3388739,7.774905 7.37187,7.2346778 c 1.0329961,-0.5402273 3.496809,0.7891604 4.749916,-0.2415209 1.253107,-1.0306814 0.415769,-3.6674234 1.207605,-4.8304211 0.791835,-1.16299703 0.04548,-1.93977118 2.817745,-2.0126747 2.772268,-0.07290352 7.835443,7.790784 11.109966,7.0846167 3.274524,-0.7061673 -0.04381,-5.3987831 3.783831,-5.7965044 3.82764,-0.3977213 7.330419,11.1834916 11.431994,11.4319956 4.101574,0.248505 3.454229,-6.760587 6.682081,-5.2329559 11.192113,5.2968439 3.470523,13.2330529 4.910929,16.5039379 1.440407,3.270886 0.520638,3.353292 2.17369,3.622817 1.653053,0.269525 2.232732,-3.827225 4.427887,-3.783831 2.195155,0.04339 4.436091,2.577879 5.39397,4.991437 0.957878,2.413558 -1.343996,6.573266 -0.56355,8.211715 0.780446,1.638449 0.681104,1.638164 2.173691,1.529633 1.492587,-0.10853 1.370419,-5.236314 4.588899,-4.34738 3.218479,0.888934 1.129662,11.919582 3.703324,13.203152 2.573662,1.28357 2.133492,-1.809366 3.300786,-1.288114 1.167294,0.521252 0.646142,3.039282 1.449126,3.864336 0.802983,0.825054 1.927688,0.446625 2.576226,1.046593 0.648538,0.599968 0.661142,1.458075 1.127097,2.254193 0.465954,0.796118 1.528182,1.865717 1.690644,2.495718 0.162462,0.630002 -0.51998,0.19468 -0.0805,0.885578 0.439477,0.690897 3.783826,1.36862 3.783826,1.36862 z"
       id="path147583"
       sodipodi:nodetypes="cczzzzzzzzzzzzzzzzzzzzzzzzzzzzzzzzzzzzzzzszzczzzzzzzzzzzc" />
    <path
       style="fill:none;stroke:#0000ff;stroke-width:0.299064;stroke-linecap:butt;stroke-linejoin:miter;stroke-miterlimit:4;stroke-dasharray:none;stroke-opacity:1"
       d="m 80.20647,56.250717 c 3.187915,1.024686 1.821669,-1.366251 1.821669,-1.366251 0,0 -5.179453,-0.966849 -8.311353,-4.326455 -3.1319,-3.359606 -0.439586,-11.706326 -2.390934,-11.271555 -1.951348,0.434772 -1.480102,9.222182 -1.480102,9.222182 0,0 -4.345848,0.579367 -6.945101,-3.074063 -2.599253,-3.65343 1.131298,-18.92016 -1.707814,-16.6227 -2.839113,2.29746 -0.569268,14.914887 -0.569268,14.914887 0,0 -4.215075,0.874231 -7.855934,-4.212601 -3.640859,-5.086833 -0.592999,-32.5679213 -4.440312,-25.731028 -3.847313,6.836894 1.366252,24.36478 1.366252,24.36478 0,0 -3.709865,-0.78247 -7.400518,-5.806557 C 38.602402,27.317268 33.375492,-0.72531438 32.387748,6.1549081 31.400003,13.03513 38.649722,29.495 38.649722,29.495 c 0,0 -5.931081,-2.806708 -9.905308,-6.9451 -3.974227,-4.138392 -13.12377,-26.7377777 -12.068533,-18.7859275 1.055238,7.9518495 8.4252,17.7612415 8.4252,17.7612415 0,0 -12.413528,-7.717278 -19.2413417,-9.222185 C -0.96807472,10.798123 20.433066,22.5499 20.433066,22.5499 c 0,0 -12.8427329,-1.109584 -14.0040558,0.79698 -2.7198055,4.465153 14.0376598,1.139756 19.4690538,2.732498 5.431394,1.592741 9.563742,4.2126 9.563742,4.2126 0,0 -18.84032,1.075237 -21.176865,6.489688 -2.336545,5.414451 16.827527,-6.068373 23.567803,-4.44031 6.740277,1.628062 11.043846,7.969787 11.043846,7.969787 0,0 -14.605239,1.491814 -20.266033,6.034266 -5.660792,4.542454 17.096654,-2.971046 23.340096,-2.163229 6.243442,0.807816 7.969788,2.618647 7.969788,2.618647 0,0 -10.744908,2.061132 -11.840827,6.831245 -1.095919,4.770114 10.504912,-5.312603 14.231761,-5.123434 3.726849,0.189168 4.554167,2.50479 4.554167,2.50479 0,0 -3.253389,3.033986 -1.821668,4.326456 1.431722,1.292469 3.2169,-3.206694 6.034271,-3.301769 2.81737,-0.09507 5.92041,3.187915 9.108325,4.212602 z"
       id="path148321"
       sodipodi:nodetypes="zczzczzczzczzczzczcszczzczzczzczzz" />
    <path
       style="fill:#6c5353;stroke:#6c5353;stroke-width:2;stroke-linecap:butt;stroke-linejoin:miter;stroke-miterlimit:4;stroke-dasharray:none;stroke-opacity:1"
       d="m 1201.1799,463.73928 -3.2303,11.30626 c 0,0 -25.3381,-18.60563 -33.9189,-16.15181 -8.5807,2.45382 -2.3231,11.90278 -8.6142,13.45986 -6.2912,1.55708 -6.3618,-7.21815 -19.9206,-11.30628 -13.5588,-4.08813 -52.6435,4.11724 -61.9153,-4.30716 -9.2717,-8.4244 2.3081,-11.36771 -2.1535,-12.92143 -4.4617,-1.55372 -0.8575,4.23116 -11.3063,10.22948 -10.4488,5.99832 -43.3853,27.01269 -54.3778,17.22858 -10.99242,-9.78411 8.5157,-23.6432 5.9224,-30.68843 -2.5934,-7.04523 -2.265,-7.63075 -10.7679,-8.61431 -8.50295,-0.98356 -23.5452,12.72537 -33.91881,16.15181 -10.37361,3.42644 -20.50145,1.50427 -27.45809,5.38395 -6.95664,3.87968 -4.23691,10.36165 -13.45983,14.53663 -9.22292,4.17498 -30.84728,14.22263 -40.91792,1.07678 -10.07064,-13.14585 21.32218,-43.58126 16.69021,-55.99292 -4.63197,-12.41166 -3.76718,-9.43064 -17.76698,-11.30629 -13.9998,-1.87565 -58.68492,19.92058 -60.8385,18.84379 -2.15358,-1.07679 -43.00224,6.12714 -59.22331,3.76875 -16.22107,-2.35839 -40.73592,6.40052 -44.9862,-2.80018 -4.25028,-9.2007 10.3823,-21.42588 15.91297,-31.11861 5.53067,-9.69273 37.0857,-18.39244 28.53486,-34.99559 -8.55084,-16.60315 -45.85736,9.04814 -66.76083,4.30715 -20.90347,-4.74099 -60.82262,-22.79731 -62.97619,-27.10445 -2.15358,-4.30714 9.49376,-25.33596 12.90559,-33.19565 3.41183,-7.85969 15.30857,-3.52418 13.45983,-16.15181 -1.84874,-12.62763 -37.23243,-20.34994 -46.30184,-30.68844 -9.06941,-10.3385 -13.66357,-14.37607 -11.84466,-24.2277 1.81891,-9.85163 24.22772,-20.45896 24.22772,-22.61254 0,-2.15357 -18.20671,-28.56545 -20.45896,-38.22594 -2.25225,-9.66049 -2.24083,-12.66819 0.53839,-16.15181 2.77922,-3.48362 7.90793,0.58187 10.22948,-2.69197 2.32155,-3.27384 -5.41398,-8.66038 -1.07679,-13.45984 4.33719,-4.79946 19.31043,2.48449 25.30451,-0.5384 5.99408,-3.02289 2.24448,-8.23187 9.15268,-11.84466 6.9082,-3.61279 23.38504,5.27754 31.76524,-1.61518 8.3802,-6.89272 2.78047,-24.526031 8.0759,-32.303621 5.29543,-7.777586 0.30414,-12.972292 18.84378,-13.459837 18.53964,-0.487545 52.39981,52.101158 74.29831,47.378638 21.8985,-4.72252 -0.29297,-36.104563 25.30451,-38.764339 25.59748,-2.659776 49.02245,74.790019 76.45188,76.451899 27.42943,1.66188 23.10029,-45.21168 44.68667,-34.99559 74.84768,35.42284 23.20925,88.49653 32.84202,110.3707 9.63277,21.87417 3.48178,22.42526 14.53663,24.22772 11.05485,1.80246 14.93148,-25.59471 29.61163,-25.30451 14.6802,0.2902 29.6666,17.23966 36.0724,33.38042 6.4059,16.14076 -8.988,43.95896 -3.7688,54.91615 5.2193,10.95719 4.5549,10.95528 14.5367,10.22948 9.9817,-0.7258 9.1647,-35.01805 30.6884,-29.07327 21.5237,5.94478 7.5547,79.71265 24.7661,88.29657 17.2115,8.58392 14.2678,-12.1002 22.0742,-8.61431 7.8063,3.48589 4.3211,20.32531 9.691,25.84289 5.37,5.51758 12.8915,2.98682 17.2286,6.99913 4.3372,4.01231 4.4215,9.75093 7.5376,15.075 3.116,5.32407 10.2197,12.47705 11.3062,16.69021 1.0865,4.21316 -3.4774,1.30193 -0.5384,5.92233 2.939,4.6204 25.3045,9.1527 25.3045,9.1527 z"
       id="path147583-3"
       sodipodi:nodetypes="cczzzzzzzzzzzzzzzzzzzzzzzzzzzzzzzzzzzzzzzszzczzzzzzzzzzzc" />
    <path
       style="fill:#f9f9f9;stroke:#f9f9f9;stroke-width:2;stroke-linecap:butt;stroke-linejoin:miter;stroke-miterlimit:4;stroke-dasharray:none;stroke-opacity:1"
       d="m 1136.9489,450.73268 c 21.3193,6.85263 12.1825,-9.13685 12.1825,-9.13685 0,0 -34.6378,-6.46584 -55.5825,-28.93333 -20.9447,-22.46749 -2.9397,-78.28649 -15.9894,-75.37894 -13.0497,2.90755 -9.8983,61.67368 -9.8983,61.67368 0,0 -29.063,3.87454 -46.4456,-20.55791 -17.3826,-24.43245 7.5656,-126.52927 -11.4211,-111.16492 -18.98664,15.36435 -3.807,99.74386 -3.807,99.74386 0,0 -28.18844,5.84645 -52.53682,-28.17193 -24.34838,-34.01838 -3.9657,-217.79918 -29.69475,-172.0772 -25.72905,45.72198 9.13686,162.94037 9.13686,162.94037 0,0 -24.80986,-5.2328 -49.49124,-38.83157 -24.68138,-33.59877 -59.63653,-221.134584 -66.24211,-175.12284 -6.60558,46.01174 41.87719,156.08773 41.87719,156.08773 0,0 -39.66433,-18.76996 -66.24212,-46.44561 -26.57779,-27.67565 -87.7657,-178.809885 -80.70876,-125.631591 7.05694,53.178291 56.34384,118.778961 56.34384,118.778961 0,0 -83.01593,-51.60958 -128.67719,-61.6737 -45.66126,-10.06412 97.45966,68.52633 97.45966,68.52633 0,0 -85.88625,-7.42039 -93.65264,5.32983 -18.1888,29.86088 93.87737,7.62216 130.20002,18.27368 36.32265,10.65152 63.95788,28.17192 63.95788,28.17192 0,0 -125.99534,7.19069 -141.62107,43.40003 -15.62573,36.20934 112.53471,-40.58247 157.61056,-29.69474 45.07585,10.88773 73.85613,53.29825 73.85613,53.29825 0,0 -97.67308,9.97656 -135.52985,40.35438 -37.85676,30.37783 114.33451,-19.86898 156.08776,-14.46668 41.75325,5.4023 53.29825,17.5123 53.29825,17.5123 0,0 -71.85697,13.7839 -79.18597,45.68421 -7.329,31.90031 70.25199,-35.52823 95.17547,-34.26316 24.9234,1.26507 30.4561,16.75088 30.4561,16.75088 0,0 -21.7571,20.28989 -12.1824,28.93333 9.5746,8.64344 21.5131,-21.44488 40.3544,-22.0807 18.8412,-0.63582 39.5929,21.3193 60.9122,28.17193 z"
       id="path148321-8"
       sodipodi:nodetypes="zczzczzczzczzczzczcszczzczzczzczzz" />
    <text
       xml:space="preserve"
       style="font-size:2.86695px;line-height:1.25;font-family:sans-serif;letter-spacing:0px;word-spacing:0px;fill:#0000ff;fill-opacity:1;stroke-width:2.15027;stroke-miterlimit:4;stroke-dasharray:none"
       x="-219.36369"
       y="51.882267"
       id="text37531-6"><tspan
         sodipodi:role="line"
         id="tspan37529-6"
         style="fill:#0000ff;fill-opacity:1;stroke-width:2.15027;stroke-miterlimit:4;stroke-dasharray:none"
         x="-219.36369"
         y="51.882267">=pass2:800mm/min:40%:#0000ff=</tspan></text>
    <text
       xml:space="preserve"
       style="font-size:2.86695px;line-height:1.25;font-family:sans-serif;letter-spacing:0px;word-spacing:0px;fill:#ff0000;fill-opacity:1;stroke-width:2.15021"
       x="-220.4651"
       y="62.122059"
       id="text37531-6-9"><tspan
         sodipodi:role="line"
         id="tspan37529-6-2"
         style="fill:#ff0000;fill-opacity:1;stroke-width:2.15021"
         x="-220.4651"
         y="62.122059">=pass3:800mm/min:40%:#ff0000=</tspan></text>
    <text
       xml:space="preserve"
       style="font-size:2.86695px;line-height:1.25;font-family:sans-serif;letter-spacing:0px;word-spacing:0px;fill:#00ff00;fill-opacity:1;stroke-width:2.15021"
       x="-220.35596"
       y="39.998676"
       id="text37531-6-2"><tspan
         sodipodi:role="line"
         id="tspan37529-6-1"
         style="fill:#00ff00;fill-opacity:1;stroke-width:2.15021"
         x="-220.35596"
         y="39.998676">=pass1:800mm/min:20%:#00ff00=</tspan></text>
  </g>
</svg>
