<?xml version="1.0" encoding="UTF-8" standalone="no"?>
<!-- Created with Inkscape (http://www.inkscape.org/) -->

<svg
   xmlns:dc="http://purl.org/dc/elements/1.1/"
   xmlns:cc="http://creativecommons.org/ns#"
   xmlns:rdf="http://www.w3.org/1999/02/22-rdf-syntax-ns#"
   xmlns:svg="http://www.w3.org/2000/svg"
   xmlns="http://www.w3.org/2000/svg"
   xmlns:sodipodi="http://sodipodi.sourceforge.net/DTD/sodipodi-0.dtd"
   xmlns:inkscape="http://www.inkscape.org/namespaces/inkscape"
   width="1220mm"
   height="600mm"
   viewBox="0 0 1220 600.00001"
   version="1.1"
   id="svg5"
   inkscape:version="0.92.4 (5da689c313, 2019-01-14)"
   sodipodi:docname="poplar.svg">
  <metadata
     id="metadata11">
    <rdf:RDF>
      <cc:Work
         rdf:about="">
        <dc:format>image/svg+xml</dc:format>
        <dc:type
           rdf:resource="http://purl.org/dc/dcmitype/StillImage" />
      </cc:Work>
    </rdf:RDF>
  </metadata>
  <sodipodi:namedview
     id="namedview7"
     pagecolor="#ffffff"
     bordercolor="#666666"
     borderopacity="1.0"
     inkscape:pageshadow="2"
     inkscape:pageopacity="0.0"
     inkscape:pagecheckerboard="true"
     inkscape:document-units="mm"
     showgrid="false"
     inkscape:zoom="0.1737471"
     inkscape:cx="1536.7163"
     inkscape:cy="1021.5998"
     inkscape:window-width="1920"
     inkscape:window-height="1017"
     inkscape:window-x="-8"
     inkscape:window-y="-8"
     inkscape:window-maximized="1"
     inkscape:current-layer="layer1"
     inkscape:snap-global="false"
     inkscape:object-paths="true" />
  <defs
     id="defs2" />
  <g
     inkscape:label="Layer 1"
     inkscape:groupmode="layer"
     id="layer1"
     style="display:inline">
    <path
       style="fill:#6c5353;stroke:#000000;stroke-width:2;stroke-linecap:butt;stroke-linejoin:miter;stroke-miterlimit:4;stroke-dasharray:none;stroke-opacity:1"
       d="m 834.66224,607.49183 c 0,0 18.85846,-63.52802 19.7965,-85.27719 0.93804,-21.74917 -6.09121,-42.63861 -6.09121,-42.63861 0,0 163.75167,-50.14357 188.82807,-92.89124 25.0764,-42.74767 7.185,-55.37751 -6.0912,-80.70877 -13.2763,-25.33126 -17.2645,-4.61199 -60.15091,-48.72983 C 928.06706,213.12836 782.6248,-19.619534 798.11487,18.165462 813.60494,55.950458 788.75001,123.15836 763.85173,159.78654 738.95344,196.41472 604.7391,353.8475 635.17451,401.91288 c 30.43541,48.06538 197.96495,79.18596 197.96495,79.18596 0,0 7.83832,18.33891 7.61402,39.59299 -0.2243,21.25408 -18.27368,85.27722 -18.27368,85.27722 z"
       id="path177463"
       sodipodi:nodetypes="czczzzzzzczcc"
       inkscape:connector-curvature="0" />
    <path
       style="fill:#f9f9f9;stroke:#000000;stroke-width:2;stroke-linecap:butt;stroke-linejoin:miter;stroke-miterlimit:4;stroke-dasharray:none;stroke-opacity:1"
       d="m 839.23067,460.54095 c 0,0 -46.53953,-37.04645 -77.66317,-47.96843 -31.12364,-10.92198 -106.98116,-7.13108 -110.68062,-28.55728 -3.69946,-21.4262 9.2622,7.83868 26.16485,4.95378 16.90265,-2.8849 78.42456,9.89824 78.42456,9.89824 0,0 -41.91855,-19.3562 -52.53686,-34.26317 -10.61831,-14.90697 -56.03144,-27.82885 -41.57109,-34.37793 14.46035,-6.54908 46.31212,17.08415 57.56058,28.2867 11.24846,11.20255 38.83157,26.64915 38.83157,26.64915 0,0 -36.07754,-47.00913 -41.16989,-67.50368 -5.09235,-20.49455 -2.66746,-79.44639 6.36836,-56.2132 9.03581,23.23318 12.0039,52.54516 21.05802,75.55712 9.05412,23.01196 25.16523,43.85917 43.36172,64.18747 18.19649,20.3283 51.09058,38.79334 51.09058,38.79334 l -3.80704,-65.48072 c 0,0 4.53639,-22.76592 -6.09121,-38.83157 -10.6276,-16.06565 -48.17292,-22.26418 -64.7193,-40.35441 -16.54638,-18.09023 -31.98792,-43.50503 -31.97894,-63.19649 0.009,-19.69146 13.47841,5.61472 29.69471,28.93335 16.2163,23.31863 19.45808,24.3301 30.51028,34.3938 11.05219,10.06369 34.20903,24.23426 34.20903,24.23426 0,0 -0.88962,-28.82514 -11.15978,-43.92255 -10.27015,-15.09742 -36.61792,-19.79724 -45.18409,-36.02482 -8.56617,-16.22758 -17.21118,-29.43836 -14.46665,-49.49123 2.74453,-20.05287 16.47377,29.88668 27.41052,40.35439 10.93675,10.46771 35.78598,22.0807 35.78598,22.0807 0,0 5.81843,-26.75034 4.56842,-39.59298 -1.25001,-12.84264 -6.89954,-15.1858 -12.49784,-23.94131 -5.5983,-8.75551 -9.73304,-17.0561 -12.35136,-23.75 -2.61832,-6.69389 -16.45973,-29.35424 -8.70667,-31.73353 7.75307,-2.37929 24.41902,32.21781 24.41902,32.21781 0,0 2.27705,-28.12483 1.52281,-38.83158 -0.75424,-10.70675 -5.44054,-42.778072 4.58426,-47.200462 10.0248,-4.42239 9.86704,29.849572 9.121,47.961862 -0.74604,18.11229 0.69485,34.40015 0.76141,47.96843 0.0666,13.56828 5.32982,38.83158 5.32982,38.83158 0,0 12.47246,-20.65273 15.98949,-33.50176 3.51703,-12.84903 -2.22456,-25.52284 3.80701,-42.6386 6.03157,-17.11576 12.75924,25.40814 9.89825,44.16141 -2.86099,18.75327 -29.09025,41.32348 -34.26318,59.38948 -5.17293,18.066 -1.5228,44.16141 -1.5228,44.16141 l 5.32981,26.64913 c 0,0 26.115,-21.57538 36.5474,-38.83158 10.4324,-17.2562 13.88046,-93.85198 22.0807,-63.95791 8.20024,29.89407 0.37397,47.46861 -8.37544,68.52631 -8.74941,21.0577 -36.3978,36.39002 -41.87719,53.29825 -5.47939,16.90823 1.52278,38.8316 1.52278,38.8316 0,0 37.88221,-14.15986 53.29828,-30.45616 15.41607,-16.2963 26.62629,-49.94126 32.74033,-65.4807 6.11404,-15.53944 -2.67008,-27.02839 7.61405,-25.88772 10.28413,1.14067 5.16803,18.7467 2.2842,35.02458 -2.88383,16.27788 -15.23789,44.26542 -25.88771,58.62807 -10.64982,14.36265 -21.22094,20.29623 -32.74036,28.17193 -11.51942,7.8757 -28.09137,4.94913 -35.78598,19.03508 -5.11318,20.40725 3.38894,66.90343 5.32985,67.76492 13.68756,5.62039 53.29825,-45.68422 57.10526,-51.01405 3.80701,-5.32983 25.02198,-34.43796 35.02456,-54.05963 10.00258,-19.62167 14.31807,-33.97251 24.36492,-63.1965 10.04685,-29.22399 5.66614,7.34264 4.56843,22.0807 -1.09771,14.73806 -22.84212,62.05438 -22.84212,62.05438 0,0 12.28112,0.86699 22.46141,-2.28421 10.18028,-3.15121 68.87369,-55.19261 38.45089,-17.13157 -30.42285,38.06104 -6.2495,12.66841 -18.27371,21.31931 -12.02425,8.6509 -39.76953,11.63949 -56.34387,22.84209 -16.57434,11.2026 -26.80619,31.13485 -41.11577,42.63861 -14.30958,11.50376 -32.78918,23.65142 -43.4,26.64912 -10.61082,2.9977 -15.2281,0 -15.2281,0 z"
       id="path179324"
       sodipodi:nodetypes="czzzczzzczzzzcczzzzzczzzzczzzzczzzzczzzzcczzzzczzzzzzcczzzzczzzzzzcc"
       inkscape:connector-curvature="0" />
    <path
       style="fill:none;stroke:#ff0000;stroke-width:2;stroke-linecap:butt;stroke-linejoin:miter;stroke-miterlimit:4;stroke-dasharray:none;stroke-opacity:1"
       d="m 270.08265,596.02655 c 0,0 18.85846,-63.52802 19.7965,-85.27719 0.93804,-21.74917 -6.09121,-42.63861 -6.09121,-42.63861 0,0 163.75167,-50.14357 188.82807,-92.89124 25.0764,-42.74767 7.18504,-55.37751 -6.09121,-80.70877 -13.27624,-25.33126 -17.26448,-4.61199 -60.1509,-48.72983 C 363.48747,201.66308 218.04521,-31.084813 233.53528,6.700183 249.02535,44.485179 224.17042,111.69308 199.27214,148.32126 174.37385,184.94944 40.15951,342.38222 70.59492,390.4476 c 30.43541,48.06538 197.96495,79.18596 197.96495,79.18596 0,0 7.83832,18.33891 7.61402,39.59299 -0.2243,21.25408 -18.27368,85.27722 -18.27368,85.27722 z"
       id="path177463-6"
       sodipodi:nodetypes="czczzzzzzczcc"
       inkscape:connector-curvature="0" />
    <path
       style="fill:none;stroke:#0000ff;stroke-width:2;stroke-linecap:butt;stroke-linejoin:miter;stroke-miterlimit:4;stroke-dasharray:none;stroke-opacity:1"
       d="m 274.65108,449.07567 c 0,0 -46.53953,-37.04645 -77.66317,-47.96843 -31.12364,-10.92198 -106.98116,-7.13108 -110.68062,-28.55728 -3.69946,-21.4262 9.2622,7.83868 26.16485,4.95378 16.90265,-2.8849 78.42456,9.89824 78.42456,9.89824 0,0 -41.91855,-19.3562 -52.53686,-34.26317 -10.61831,-14.90697 -56.03144,-27.82885 -41.57109,-34.37793 14.46035,-6.54908 46.31212,17.08415 57.56058,28.2867 11.24846,11.20255 38.83157,26.64915 38.83157,26.64915 0,0 -36.07754,-47.00913 -41.16989,-67.50368 -5.09235,-20.49455 -2.66746,-79.44639 6.36836,-56.2132 9.03581,23.23318 12.0039,52.54516 21.05802,75.55712 9.05412,23.01196 25.16523,43.85917 43.36172,64.18747 18.19649,20.3283 51.09058,38.79334 51.09058,38.79334 l -3.80704,-65.48072 c 0,0 4.53639,-22.76592 -6.09121,-38.83157 -10.6276,-16.06565 -48.17292,-22.26418 -64.7193,-40.35441 -16.54638,-18.09023 -31.98792,-43.50503 -31.97894,-63.19649 0.009,-19.69146 13.47841,5.61472 29.69471,28.93335 16.2163,23.31863 19.45808,24.3301 30.51028,34.3938 11.05219,10.06369 34.20903,24.23426 34.20903,24.23426 0,0 -0.88962,-28.82514 -11.15978,-43.92255 -10.27015,-15.09742 -36.61792,-19.79724 -45.18409,-36.02482 -8.56617,-16.22758 -17.21118,-29.43836 -14.46665,-49.49123 2.74453,-20.05287 16.47377,29.88668 27.41052,40.35439 10.93675,10.46771 35.78598,22.0807 35.78598,22.0807 0,0 5.81843,-26.75034 4.56842,-39.59298 -1.25001,-12.84264 -6.89954,-15.1858 -12.49784,-23.94131 -5.5983,-8.75551 -9.73304,-17.0561 -12.35136,-23.75 -2.61832,-6.69389 -16.45973,-29.35424 -8.70667,-31.73353 7.75307,-2.37929 24.41902,32.21781 24.41902,32.21781 0,0 2.27705,-28.12483 1.52281,-38.83158 -0.75424,-10.70675 -5.44054,-42.778071 4.58426,-47.200461 10.0248,-4.42239 9.86704,29.849569 9.121,47.961861 -0.74604,18.11229 0.69485,34.40015 0.76141,47.96843 0.0666,13.56828 5.32982,38.83158 5.32982,38.83158 0,0 12.47246,-20.65273 15.98949,-33.50176 3.51703,-12.84903 -2.22456,-25.52284 3.80701,-42.6386 6.03157,-17.11576 12.75924,25.40814 9.89825,44.16141 -2.86099,18.75327 -29.09025,41.32348 -34.26318,59.38948 -5.17293,18.066 -1.5228,44.16141 -1.5228,44.16141 l 5.32981,26.64913 c 0,0 26.115,-21.57538 36.5474,-38.83158 10.4324,-17.2562 13.88046,-93.85198 22.0807,-63.95791 8.20024,29.89407 0.37397,47.46861 -8.37544,68.52631 -8.74941,21.0577 -36.3978,36.39002 -41.87719,53.29825 -5.47939,16.90823 1.52278,38.8316 1.52278,38.8316 0,0 37.88221,-14.15986 53.29828,-30.45616 15.41607,-16.2963 26.62629,-49.94126 32.74033,-65.4807 6.11404,-15.53944 -2.67008,-27.02839 7.61405,-25.88772 10.28413,1.14067 5.16803,18.7467 2.2842,35.02458 -2.88383,16.27788 -15.23789,44.26542 -25.88771,58.62807 -10.64982,14.36265 -21.22094,20.29623 -32.74036,28.17193 -11.51942,7.8757 -28.09137,4.94913 -35.78598,19.03508 -5.11318,20.40725 3.38894,66.90343 5.32985,67.76492 13.68756,5.62039 53.29825,-45.68422 57.10526,-51.01405 3.80701,-5.32983 25.02198,-34.43796 35.02456,-54.05963 10.00258,-19.62167 14.31807,-33.97251 24.36492,-63.1965 10.04685,-29.22399 5.66614,7.34264 4.56843,22.0807 -1.09771,14.73806 -22.84212,62.05438 -22.84212,62.05438 0,0 12.28112,0.86699 22.46141,-2.28421 10.18028,-3.15121 68.87368,-55.19261 38.45086,-17.13157 -30.42282,38.06104 -6.24943,12.66841 -18.27368,21.31931 -12.02425,8.6509 -39.76953,11.63949 -56.34387,22.84209 -16.57434,11.2026 -26.80619,31.13485 -41.11577,42.63861 -14.30958,11.50376 -32.78918,23.65142 -43.4,26.64912 -10.61082,2.9977 -15.2281,0 -15.2281,0 z"
       id="path179324-0"
       sodipodi:nodetypes="czzzczzzczzzzcczzzzzczzzzczzzzczzzzczzzzcczzzzczzzzzzcczzzzczzzzzzcc"
       inkscape:connector-curvature="0" />
  </g>
</svg>
