<?xml version="1.0" encoding="UTF-8" standalone="no"?>
<!-- Created with Inkscape (http://www.inkscape.org/) -->

<svg
   width="1220mm"
   height="600mm"
   viewBox="0 0 1220 600.00001"
   version="1.1"
   id="svg5"
   inkscape:version="1.1.1 (3bf5ae0d25, 2021-09-20)"
   sodipodi:docname="scots_pine.svg"
   xmlns:inkscape="http://www.inkscape.org/namespaces/inkscape"
   xmlns:sodipodi="http://sodipodi.sourceforge.net/DTD/sodipodi-0.dtd"
   xmlns="http://www.w3.org/2000/svg"
   xmlns:svg="http://www.w3.org/2000/svg"
   xmlns:rdf="http://www.w3.org/1999/02/22-rdf-syntax-ns#"
   xmlns:cc="http://creativecommons.org/ns#"
   xmlns:dc="http://purl.org/dc/elements/1.1/">
  <metadata
     id="metadata9">
    <rdf:RDF>
      <cc:Work
         rdf:about="">
        <dc:format>image/svg+xml</dc:format>
        <dc:type
           rdf:resource="http://purl.org/dc/dcmitype/StillImage" />
      </cc:Work>
    </rdf:RDF>
  </metadata>
  <sodipodi:namedview
     id="namedview7"
     pagecolor="#ffffff"
     bordercolor="#666666"
     borderopacity="1.0"
     inkscape:pageshadow="2"
     inkscape:pageopacity="0.0"
     inkscape:pagecheckerboard="true"
     inkscape:document-units="mm"
     showgrid="false"
     inkscape:zoom="0.1737471"
     inkscape:cx="-60.432663"
     inkscape:cy="1343.9073"
     inkscape:window-width="1920"
     inkscape:window-height="1017"
     inkscape:window-x="-8"
     inkscape:window-y="-8"
     inkscape:window-maximized="1"
     inkscape:current-layer="layer1"
     inkscape:snap-global="false" />
  <defs
     id="defs2" />
  <g
     inkscape:label="Layer 1"
     inkscape:groupmode="layer"
     id="layer1">
    <path
       id="path166711"
       style="fill:none;stroke:#ff0000;stroke-width:0.415082;stroke-linecap:butt;stroke-linejoin:miter;stroke-miterlimit:4;stroke-dasharray:none;stroke-opacity:1"
       d="M 48.037717,0.2083107 C 47.159978,0.22931376 43.409718,0.69632533 39.582087,6.8243775 38.765318,8.1320209 37.985011,9.7941431 37.252874,11.702899 36.231065,11.223178 34.795057,10.694406 32.848288,10.285571 28.154525,9.2998449 15.07888,6.7596704 11.0869,9.5706498 10.532028,9.9613649 10.123603,10.261818 9.8124199,10.501524 7.1241377,9.3887417 4.7011895,8.5507748 3.7352829,8.6896641 c -2.6866159,0.3863108 3.186549,4.3317369 3.186549,4.3317349 0,0 4.7957791,2.327583 9.9147351,4.836489 3.720923,1.823702 12.214894,6.205615 16.631098,8.490761 -0.24962,1.474509 -0.475144,2.973481 -0.667969,4.490549 C 29.959233,29.40348 26.506064,27.901665 23.592634,26.657819 18.573177,24.514837 5.8021649,17.277754 2.2775582,17.011341 c -3.524588,-0.266411 1.845953,4.56236 1.845953,4.56236 0,0 11.0273448,6.475529 16.9572708,9.004319 2.941527,1.2544 7.482348,2.770446 11.313768,3.980705 -0.03364,0.362082 -0.06444,0.724103 -0.09443,1.08632 -7.183086,-2.793901 -30.4585232,-3.378938 -30.4585232,-3.378938 0,0 -3.3663504,-2.021766 0.1675315,2.038688 3.5338866,4.060464 23.0043077,3.808293 28.4846567,4.077374 0.624645,0.03067 1.151153,0.05095 1.611789,0.06456 -0.07816,1.397833 -0.118084,2.781491 -0.137838,4.153936 C 27.414918,41.841178 20.471881,40.746217 16.908983,40.507426 11.348805,40.134776 5.3736144,39.400064 3.1086573,40.66529 c -2.2649568,1.265225 -0.9200002,1.421473 -0.9200002,1.421473 0,0 21.0715919,3.51055 29.7833079,3.077103 0.03311,1.181447 0.132797,2.473428 0.278699,3.838292 -5.38834,-1.173938 -12.797079,-2.688458 -16.072311,-2.89749 -5.439097,-0.347134 -7.9777155,0.621778 -10.1933506,1.800379 -0.467613,0.248747 -0.7519609,0.442842 -0.9505538,0.607896 -0.2385383,-0.05082 -0.3699325,-0.07733 -0.3699325,-0.07733 0,0 -3.492161,-2.614747 0.5466153,1.648643 9.1888526,6.747717 17.7460746,9.962897 17.7460746,9.962897 0,0 -17.4012374,-2.10834 -21.7542304,-1.65995 -4.3529926,0.448387 6.8865694,3.469133 6.8865694,3.469133 0,0 14.740835,2.547668 21.015485,4.359961 2.495116,0.720661 4.957602,1.680558 7.02717,2.576929 0.319316,1.263962 0.642963,2.512293 0.966865,3.730659 C 33.020583,70.54262 27.786279,68.190393 24.309193,67.340158 17.887512,65.769895 4.9276821,66.220349 4.9276821,66.220349 c 0,0 -4.65326681,2.377075 -2.1506344,3.628382 2.5026335,1.251305 13.8843513,1.277997 19.3200593,2.608689 4.79943,1.174928 11.739166,2.906554 15.925839,3.409923 0.07854,0.283712 0.137736,0.472799 0.21535,0.751431 -3.944828,-0.669123 -9.246878,-1.292722 -13.218496,-1.229252 -5.730908,0.09158 -13.50565,1.563763 -16.8645696,2.693018 -2.1024013,0.706817 -3.2848525,2.218146 -3.8754919,3.250075 -0.206605,0.07097 -0.3987809,0.148939 -0.5721632,0.235975 -2.8644527,1.438108 -1.163484,1.61533 -1.163484,1.61533 0,0 28.2707967,4.232667 38.6143087,3.440734 0.403942,1.296779 0.967126,3.116209 0.967126,3.116209 l 11.191202,-3.433659 c 0,0 -0.422906,-1.051896 -1.097628,-2.81662 2.34752,-0.0389 5.212694,-0.549502 7.964258,-0.881328 4.94248,-0.596049 17.276276,-4.546999 17.276276,-4.546999 0,0 3.441609,0.62449 -1.465229,-2.273544 -3.746325,-2.212625 -18.58784,1.450137 -25.411954,3.309544 -0.462374,-1.269863 -0.960762,-2.669763 -1.479643,-4.162562 3.276835,-1.24416 9.395596,-3.471129 12.664805,-4.043456 4.600639,-0.805412 16.16717,-2.548271 16.16717,-2.548271 0,0 -1.974445,-1.000037 -3.667738,-1.939428 -1.693293,-0.939392 -10.642864,0.39643 -10.642864,0.39643 0,0 -11.647164,3.057495 -15.617275,4.918223 -0.389218,-1.165017 -0.780266,-2.393193 -1.169785,-3.619229 2.229409,-0.939418 5.444589,-2.716998 7.888391,-3.770365 3.421334,-1.474716 10.22606,-6.852386 10.22606,-6.852386 0,0 7.703736,-7.023617 9.511834,-9.974898 3.295277,-0.894511 5.756053,-1.514512 5.756053,-1.514512 0,0 -2.518043,-2.456566 -5.81276,-2.30453 -3.294716,0.152029 -9.369015,1.164186 -14.488234,3.226082 -5.119219,2.061892 -12.252943,5.113078 -14.718426,7.520875 -0.712139,0.695481 -1.255309,1.373548 -1.673843,1.989228 -0.369956,-1.510832 -0.717224,-3.008412 -1.003806,-4.458094 3.387553,-2.299105 9.274472,-6.311308 11.917688,-8.227426 3.781514,-2.74129 12.632311,-5.863685 20.671356,-5.398549 8.039047,0.465134 -11.725468,-2.974696 -13.659203,-3.076416 -1.933741,-0.10172 -9.516838,5.707634 -9.516838,5.707634 0,0 -7.465784,4.668172 -10.01736,7.512848 -0.08793,-0.59475 -0.161365,-1.173213 -0.227949,-1.743676 2.447694,-2.600115 7.235391,-7.70552 9.604959,-10.373567 3.24971,-3.659061 24.573,-10.96049 24.573,-10.96049 0,0 -10.197336,-0.734285 -15.139625,-0.321513 4.087697,-3.112282 9.657291,-7.458468 8.723976,-7.43508 -1.430781,0.03585 -16.432399,9.000081 -19.432264,10.363903 -1.693841,0.770063 -5.271655,3.261779 -8.066797,5.285999 0.120259,-1.119705 0.248906,-2.248974 0.4004,-3.395769 3.507688,-2.704398 8.413647,-6.473608 11.167639,-8.51769 4.46375,-3.313111 5.342569,-5.08897 14.994194,-9.313229 9.65162,-4.2242585 -3.441561,-0.569218 -6.007831,-0.565515 -2.566269,0.0037 -10.716914,6.387773 -10.716914,6.387773 0,0 -4.988802,4.301781 -8.884776,8.160446 0.317783,-2.055575 0.668664,-4.105118 1.033842,-6.104152 2.890765,-2.636141 6.591223,-5.872142 9.281467,-7.729405 5.073057,-3.5022832 16.519236,-8.898671 16.519236,-8.898671 0,0 -1.864647,-1.8653293 -4.931952,-1.041094 C 61.74134,3.1019438 55.979858,5.0705165 51.683102,8.0337797 49.542351,9.51015 47.097105,12.0755 44.971056,14.616013 46.623878,6.4581636 48.22985,0.21141784 48.22985,0.21141784 c 0,0 -0.06674,-0.006108 -0.192133,-0.003107 z M 11.379669,11.17234 c 4.323239,0.975877 18.771304,4.091961 24.821063,3.566753 -0.892804,2.829115 -1.68765,6.023752 -2.338276,9.42811 -4.416049,-3.450893 -13.597404,-8.798982 -13.597404,-8.798982 0,0 -4.511877,-2.291232 -8.885383,-4.195881 z m 38.238768,21.557089 c -2.151363,2.002498 -3.816887,3.635718 -3.816887,3.635718 0,0 -2.502446,2.683615 -4.380244,5.185014 0.01132,-1.292347 0.06465,-2.652168 0.159421,-4.070296 2.29533,-1.181354 5.286687,-3.012746 8.03771,-4.750436 z m 18.90472,16.446819 c -7.040987,4.333185 -18.227691,12.26225 -22.738266,15.493596 -0.626635,-2.089428 -1.229118,-4.209626 -1.776643,-6.308192 2.439054,-0.966578 10.717325,-4.24859 15.952942,-6.360242 2.154101,-0.868799 5.346266,-1.880768 8.561967,-2.825162 z M 11.59631,50.162019 c 6.179976,0.853585 15.233643,1.972585 21.054499,1.968254 0.443958,2.993585 1.074008,6.237437 1.797877,9.529268 C 30.053967,58.174699 22.797965,54.503288 18.53648,52.60499 16.401481,51.653948 13.891362,50.825319 11.59631,50.162019 Z m 27.453058,29.287096 c 0.421187,1.47482 0.87926,3.123182 1.241341,4.33191 -5.755446,-0.863542 -14.599682,-2.119111 -19.130086,-2.392048 -2.621138,-0.157849 -5.248331,-0.345017 -7.745114,-0.478167 4.287317,-0.595037 9.046077,-1.153895 12.118624,-1.204141 3.767675,-0.06161 9.074261,-0.16692 13.515235,-0.257554 z"
       sodipodi:nodetypes="sscsscscsccsscscccssccsscccssccccscsccscssccsscccccccscsccscscccscccsssccssscccsccssccssscccscssccsscccccccccccccsccccscccccsc"
       inkscape:connector-curvature="0" />
    <path
       id="path166711-9"
       style="fill:#916f6f;stroke:#916f6f;stroke-width:2.48516989;stroke-linecap:butt;stroke-linejoin:miter;stroke-miterlimit:4;stroke-dasharray:none;stroke-opacity:1"
       d="m 927.94256,27.249008 c -5.25518,0.125749 -27.70863,2.921828 -50.62532,39.611536 -4.89014,7.829087 -9.56197,17.7805 -13.9454,29.208552 -6.11775,-2.872171 -14.71538,-6.038021 -26.37102,-8.485788 -28.10237,-5.901713 -106.38851,-21.110177 -130.28919,-4.280357 -3.32211,2.339279 -5.76742,4.138141 -7.63053,5.573302 -16.09521,-6.662417 -30.60182,-11.67947 -36.38487,-10.847916 -16.08523,2.31291 19.07842,25.934853 19.07842,25.934843 0,0 28.71316,13.93564 59.36123,28.95689 22.27781,10.91882 73.13268,37.15409 99.57326,50.83566 -1.49452,8.82814 -2.84477,17.80274 -3.99925,26.88569 -17.00634,-8.59589 -37.68106,-17.58752 -55.12427,-25.03464 -30.05236,-12.8304 -106.51461,-56.16007 -127.61704,-57.75513 -21.10232,-1.59505 11.05204,27.31564 11.05204,27.31564 0,0 66.02262,38.77011 101.52611,53.91041 17.61143,7.51031 44.79811,16.58714 67.73748,23.83317 -0.20143,2.16785 -0.38581,4.33533 -0.56536,6.50399 -43.00638,-16.72757 -182.36044,-20.23029 -182.36044,-20.23029 0,0 -20.15492,-12.10466 1.00304,12.20598 21.15799,24.3107 137.73076,22.80091 170.54256,24.41194 3.73986,0.18363 6.89215,0.30503 9.65006,0.38654 -0.46796,8.36907 -0.70699,16.65327 -0.82526,24.87033 -27.25851,-4.54718 -68.82767,-11.1029 -90.15936,-12.53258 -33.28974,-2.23112 -69.06424,-6.62997 -82.62493,0.94516 -13.56069,7.57512 -5.5082,8.5106 -5.5082,8.5106 0,0 126.15926,21.01827 178.31781,18.42315 0.19823,7.07353 0.79508,14.80884 1.66862,22.98052 -32.26093,-7.02858 -76.61833,-16.09627 -96.22771,-17.34778 -32.56481,-2.07835 -47.76396,3.72269 -61.02935,10.77918 -2.79968,1.48929 -4.50212,2.65137 -5.69113,3.63958 -1.42817,-0.30427 -2.21485,-0.46302 -2.21485,-0.46302 0,0 -20.90817,-15.65494 3.27268,9.87071 55.01525,40.39975 106.24881,59.64959 106.24881,59.64959 0,0 -104.18421,-12.623 -130.24633,-9.93841 -26.06212,2.68457 41.23108,20.7703 41.23108,20.7703 0,0 88.25592,15.25333 125.82334,26.10384 14.93869,4.31472 29.68202,10.06179 42.07288,15.42852 1.9118,7.56756 3.84953,15.04153 5.78879,22.3361 -24.41858,-11.86215 -55.75726,-25.94534 -76.57518,-31.03584 -38.44771,-9.40144 -116.04045,-6.70449 -116.04045,-6.70449 0,0 -27.85991,14.23196 -12.87622,21.72375 14.9837,7.49178 83.12801,7.65159 115.67253,15.61867 28.73502,7.0345 70.28442,17.40204 95.35075,20.4158 0.47022,1.69863 0.82465,2.83073 1.28934,4.49895 -23.61837,-4.00616 -55.36266,-7.73975 -79.14142,-7.35975 -34.31194,0.54832 -80.86066,9.36252 -100.97109,16.12357 -12.58744,4.23183 -19.66698,13.28042 -23.20324,19.45876 -1.23698,0.42494 -2.38757,0.89172 -3.42564,1.41282 -17.14997,8.6102 -6.96598,9.67126 -6.96598,9.67126 0,0 169.26214,25.34171 231.19054,20.60027 2.41847,7.76404 5.79035,18.65728 5.79035,18.65728 l 67.00366,-20.55791 c 0,0 -2.53201,-6.29788 -6.57169,-16.86359 14.05502,-0.23289 31.20932,-3.28996 47.68338,-5.27666 29.5915,-3.56865 103.436,-27.22367 103.436,-27.22367 0,0 20.6055,3.73893 -8.7726,-13.6121 -22.4298,-13.24737 -111.28856,8.68222 -152.14568,19.81481 -2.76831,-7.60289 -5.75225,-15.98433 -8.85888,-24.92198 19.61898,-7.449 56.2531,-20.78225 75.82636,-24.20887 27.5448,-4.82214 96.7956,-15.25694 96.7956,-15.25694 0,0 -11.8213,-5.98739 -21.9594,-11.61169 -10.138,-5.6243 -63.7206,2.3735 -63.7206,2.3735 0,0 -69.73357,18.30575 -93.50331,29.44625 -2.33032,-6.97516 -4.67159,-14.32846 -7.00371,-21.66895 13.34786,-5.62446 32.5977,-16.26714 47.22916,-22.57383 20.4841,-8.82938 61.22516,-41.02642 61.22516,-41.02642 0,0 46.1236,-42.05161 56.949,-59.72144 19.7294,-5.35559 34.4625,-9.06764 34.4625,-9.06764 0,0 -15.076,-14.70789 -34.802,-13.79762 -19.7261,0.91022 -56.0939,6.97018 -86.74356,19.31511 -30.6496,12.3449 -73.36048,30.61288 -88.12175,45.02878 -4.2637,4.16396 -7.51575,8.22367 -10.02159,11.90985 -2.21499,-9.04561 -4.29414,-18.01188 -6.00996,-26.69138 20.28187,-13.76514 55.52787,-37.78689 71.35326,-49.25902 22.64054,-16.41258 75.6318,-35.1069 123.7629,-32.32205 48.1312,2.78484 -70.2024,-17.81002 -81.78,-18.41903 -11.57756,-0.60902 -56.97888,34.17259 -56.97888,34.17259 0,0 -44.69894,27.94915 -59.97567,44.98072 -0.52647,-3.56087 -0.96612,-7.02423 -1.36477,-10.43969 14.65477,-15.56734 43.31954,-46.13428 57.50655,-62.10834 19.45661,-21.90743 147.12277,-65.62235 147.12277,-65.62235 0,0 -61.0532,-4.39629 -90.6436,-1.92495 24.4738,-18.63377 57.8199,-44.65514 52.232,-44.51511 -8.5663,0.21466 -98.38358,53.88504 -116.34429,62.05048 -10.14132,4.6105 -31.56231,19.52883 -48.29731,31.64819 0.72001,-6.70387 1.49024,-13.465 2.39726,-20.33106 21.00114,-16.1917 50.37396,-38.75861 66.86259,-50.99688 26.72529,-19.83617 31.98689,-30.46854 89.77275,-55.759907 57.786,-25.291367 -20.6052,-3.408005 -35.9699,-3.385838 -15.36466,0.02217 -64.16396,38.244695 -64.16396,38.244695 0,0 -29.86882,25.75551 -53.19469,48.858 1.90262,-12.30708 4.00341,-24.57805 6.18979,-36.54661 17.30751,-15.78303 39.46279,-35.15753 55.56975,-46.277277 30.37325,-20.968777 98.90351,-53.277884 98.90351,-53.277884 0,0 -11.164,-11.168049 -29.5285,-6.23321 -18.3644,4.934741 -52.85936,16.720926 -78.58479,34.462495 -12.81705,8.839284 -27.45716,24.198479 -40.18618,39.408966 9.89573,-48.842452 19.51096,-86.242799 19.51096,-86.242799 0,0 -0.39958,-0.03657 -1.15033,-0.0186 z M 708.46449,92.892546 c 25.88398,5.842747 112.38704,24.499274 148.60799,21.354764 -5.34537,16.9384 -10.10425,36.06524 -13.99966,56.44772 -26.43965,-20.66109 -81.41001,-52.68102 -81.41001,-52.68102 0,0 -27.01338,-13.718 -53.19832,-25.121464 z M 937.4066,221.95856 c -12.88058,11.9893 -22.85236,21.76767 -22.85236,21.76767 0,0 -14.98258,16.06727 -26.22528,31.04358 0.0678,-7.73751 0.38708,-15.87899 0.95448,-24.36957 13.74254,-7.07297 31.65231,-18.03783 48.12316,-28.44168 z m 113.1858,98.46995 c -42.1556,25.94353 -109.13231,73.41621 -136.1379,92.76284 -3.75177,-12.50977 -7.35894,-25.20376 -10.63707,-37.76824 14.60304,-5.78707 64.16651,-25.43704 95.51301,-38.07987 12.89696,-5.20165 32.00896,-11.26048 51.26196,-16.91473 z m -340.83084,5.90198 c 37.00058,5.11056 91.20645,11.81021 126.05692,11.78428 2.65805,17.92311 6.43027,37.34461 10.7642,57.05337 -26.31194,-20.86435 -69.75488,-42.84572 -95.26913,-54.21116 -12.7826,-5.69405 -27.81112,-10.6552 -41.55199,-14.62649 z m 164.3662,175.34691 c 2.52172,8.83 5.26428,18.69903 7.43212,25.93589 -34.45885,-5.17017 -87.41082,-12.68748 -114.53513,-14.3216 -15.69321,-0.94507 -31.42266,-2.06568 -46.37133,-2.86287 25.6689,-3.56259 54.16042,-6.90857 72.55629,-7.2094 22.55772,-0.36888 54.32917,-0.99938 80.91805,-1.54202 z"
       sodipodi:nodetypes="sscsscscsccsscscccssccsscccssccccscsccscssccsscccccccscsccscscccscccsssccssscccsccssccssscccscssccsscccccccccccccsccccscccccsc"
       inkscape:connector-curvature="0" />
    <text
       xml:space="preserve"
       style="font-size:2.86695px;line-height:1.25;font-family:sans-serif;letter-spacing:0px;word-spacing:0px;display:inline;fill:#0000ff;fill-opacity:1;stroke-width:2.15027;stroke-miterlimit:4;stroke-dasharray:none"
       x="-57.946133"
       y="41.222614"
       id="text37531-6"><tspan
         sodipodi:role="line"
         id="tspan37529-6"
         style="fill:#0000ff;fill-opacity:1;stroke-width:2.15027;stroke-miterlimit:4;stroke-dasharray:none"
         x="-57.946133"
         y="41.222614">=pass2:800mm/min:40%:#0000ff=</tspan></text>
    <text
       xml:space="preserve"
       style="font-size:2.86695px;line-height:1.25;font-family:sans-serif;letter-spacing:0px;word-spacing:0px;display:inline;fill:#ff0000;fill-opacity:1;stroke-width:2.15021"
       x="-59.047543"
       y="51.46241"
       id="text37531-6-9"><tspan
         sodipodi:role="line"
         id="tspan37529-6-2"
         style="fill:#ff0000;fill-opacity:1;stroke-width:2.15021"
         x="-59.047543"
         y="51.46241">=pass3:800mm/min:40%:#ff0000=</tspan></text>
    <text
       xml:space="preserve"
       style="font-size:2.86695px;line-height:1.25;font-family:sans-serif;letter-spacing:0px;word-spacing:0px;display:inline;fill:#00ff00;fill-opacity:1;stroke-width:2.15021"
       x="-58.938396"
       y="29.339024"
       id="text37531-6-2"><tspan
         sodipodi:role="line"
         id="tspan37529-6-1"
         style="fill:#00ff00;fill-opacity:1;stroke-width:2.15021"
         x="-58.938396"
         y="29.339024">=pass1:800mm/min:20%:#00ff00=</tspan></text>
  </g>
</svg>
