<?xml version="1.0" encoding="UTF-8" standalone="no"?>
<!-- Created with Inkscape (http://www.inkscape.org/) -->

<svg
   xmlns:dc="http://purl.org/dc/elements/1.1/"
   xmlns:cc="http://creativecommons.org/ns#"
   xmlns:rdf="http://www.w3.org/1999/02/22-rdf-syntax-ns#"
   xmlns:svg="http://www.w3.org/2000/svg"
   xmlns="http://www.w3.org/2000/svg"
   xmlns:sodipodi="http://sodipodi.sourceforge.net/DTD/sodipodi-0.dtd"
   xmlns:inkscape="http://www.inkscape.org/namespaces/inkscape"
   width="1220mm"
   height="600mm"
   viewBox="0 0 1220 600.00001"
   version="1.1"
   id="svg5"
   inkscape:version="0.92.4 (5da689c313, 2019-01-14)"
   sodipodi:docname="scots_pine.svg">
  <metadata
     id="metadata9">
    <rdf:RDF>
      <cc:Work
         rdf:about="">
        <dc:format>image/svg+xml</dc:format>
        <dc:type
           rdf:resource="http://purl.org/dc/dcmitype/StillImage" />
      </cc:Work>
    </rdf:RDF>
  </metadata>
  <sodipodi:namedview
     id="namedview7"
     pagecolor="#ffffff"
     bordercolor="#666666"
     borderopacity="1.0"
     inkscape:pageshadow="2"
     inkscape:pageopacity="0.0"
     inkscape:pagecheckerboard="true"
     inkscape:document-units="mm"
     showgrid="false"
     inkscape:zoom="0.1737471"
     inkscape:cx="-63.310406"
     inkscape:cy="1343.9073"
     inkscape:window-width="1920"
     inkscape:window-height="1017"
     inkscape:window-x="-8"
     inkscape:window-y="-8"
     inkscape:window-maximized="1"
     inkscape:current-layer="layer1"
     inkscape:snap-global="false" />
  <defs
     id="defs2" />
  <g
     inkscape:label="Layer 1"
     inkscape:groupmode="layer"
     id="layer1">
    <path
       id="path166711"
       style="fill:none;stroke:#ff0000;stroke-width:2.48516989;stroke-linecap:butt;stroke-linejoin:miter;stroke-miterlimit:4;stroke-dasharray:none;stroke-opacity:1"
       d="m 377.26728,29.676255 c -5.25518,0.125749 -27.70863,2.921828 -50.62532,39.611536 -4.89014,7.829087 -9.56197,17.7805 -13.9454,29.208552 -6.11775,-2.872171 -14.71538,-6.038021 -26.37102,-8.485788 -28.10237,-5.901713 -106.38851,-21.110177 -130.28919,-4.280357 -3.32211,2.339279 -5.76742,4.138141 -7.63053,5.573302 -16.09521,-6.662417 -30.60182,-11.67947 -36.38487,-10.847916 -16.085234,2.31291 19.07842,25.934856 19.07842,25.934846 0,0 28.71316,13.93564 59.36123,28.95689 22.27781,10.91882 73.13268,37.15409 99.57326,50.83566 -1.49452,8.82814 -2.84477,17.80274 -3.99925,26.88569 -17.00634,-8.59589 -37.68106,-17.58752 -55.12427,-25.03464 -30.05236,-12.8304 -106.51461,-56.16007 -127.61704,-57.75513 -21.102318,-1.59505 11.05204,27.31564 11.05204,27.31564 0,0 66.02262,38.77011 101.52611,53.91041 17.61143,7.51031 44.79811,16.58714 67.73748,23.83317 -0.20143,2.16785 -0.38581,4.33533 -0.56536,6.50399 -43.00638,-16.72757 -182.36044,-20.23029 -182.36044,-20.23029 0,0 -20.154922,-12.10466 1.00304,12.20598 21.15799,24.3107 137.73076,22.80091 170.54256,24.41194 3.73986,0.18363 6.89215,0.30503 9.65006,0.38654 -0.46796,8.36907 -0.70699,16.65327 -0.82526,24.87033 -27.25851,-4.54718 -68.82767,-11.1029 -90.15936,-12.53258 -33.28974,-2.23112 -69.06424,-6.62997 -82.62493,0.94516 -13.560688,7.57512 -5.5082,8.5106 -5.5082,8.5106 0,0 126.15926,21.01827 178.31781,18.42315 0.19823,7.07353 0.79508,14.80884 1.66862,22.98052 -32.26093,-7.02858 -76.61833,-16.09627 -96.22771,-17.34778 -32.56481,-2.07835 -47.76396,3.72269 -61.02935,10.77918 -2.79968,1.48929 -4.50212,2.65137 -5.69113,3.63958 -1.42817,-0.30427 -2.21485,-0.46302 -2.21485,-0.46302 0,0 -20.908172,-15.65494 3.27268,9.87071 55.01525,40.39975 106.24881,59.64959 106.24881,59.64959 0,0 -104.18421,-12.623 -130.246332,-9.93841 -26.062119,2.68457 41.231082,20.7703 41.231082,20.7703 0,0 88.25592,15.25333 125.82334,26.10384 14.93869,4.31472 29.68202,10.06179 42.07288,15.42852 1.9118,7.56756 3.84953,15.04153 5.78879,22.3361 -24.41858,-11.86215 -55.75726,-25.94534 -76.57518,-31.03584 -38.44771,-9.40144 -116.04045,-6.70449 -116.04045,-6.70449 0,0 -27.859913,14.23196 -12.87622,21.72375 14.9837,7.49178 83.12801,7.65159 115.67253,15.61867 28.73502,7.0345 70.28442,17.40204 95.35075,20.4158 0.47022,1.69863 0.82465,2.83073 1.28934,4.49895 -23.61837,-4.00616 -55.36266,-7.73975 -79.14142,-7.35975 -34.31194,0.54832 -80.86066,9.36252 -100.97109,16.12357 -12.58744,4.23183 -19.66698,13.28042 -23.20324,19.45876 -1.23698,0.42494 -2.38757,0.89172 -3.42564,1.41282 -17.149974,8.6102 -6.96598,9.67126 -6.96598,9.67126 0,0 169.26214,25.34171 231.19054,20.60027 2.41847,7.76404 5.79035,18.65728 5.79035,18.65728 l 67.00366,-20.55791 c 0,0 -2.53201,-6.29788 -6.57169,-16.86359 14.05501,-0.23289 31.2093,-3.28996 47.68339,-5.27666 29.59148,-3.56865 103.43605,-27.22367 103.43605,-27.22367 0,0 20.60551,3.73893 -8.77258,-13.6121 -22.42989,-13.24737 -111.28861,8.68222 -152.14576,19.81481 -2.76831,-7.60289 -5.75225,-15.98433 -8.85888,-24.92198 19.61898,-7.449 56.25306,-20.78225 75.82638,-24.20887 27.54482,-4.82214 96.79564,-15.25694 96.79564,-15.25694 0,0 -11.82134,-5.98739 -21.95938,-11.61169 -10.13804,-5.6243 -63.72067,2.3735 -63.72067,2.3735 0,0 -69.73358,18.30575 -93.50332,29.44625 -2.33032,-6.97516 -4.67159,-14.32846 -7.00371,-21.66895 13.34786,-5.62446 32.5977,-16.26714 47.22916,-22.57383 20.48412,-8.82938 61.22519,-41.02642 61.22519,-41.02642 0,0 46.1236,-42.05161 56.949,-59.72144 19.72939,-5.35559 34.46248,-9.06764 34.46248,-9.06764 0,0 -15.07596,-14.70789 -34.802,-13.79762 -19.72603,0.91022 -56.09391,6.97018 -86.74356,19.31511 -30.64965,12.3449 -73.36049,30.61288 -88.12176,45.02878 -4.2637,4.16396 -7.51575,8.22367 -10.02159,11.90985 -2.21499,-9.04561 -4.29414,-18.01188 -6.00996,-26.69138 20.28187,-13.76514 55.52787,-37.78689 71.35326,-49.25902 22.64058,-16.41258 75.63183,-35.1069 123.76298,-32.32205 48.13117,2.78484 -70.2024,-17.81002 -81.78001,-18.41903 -11.57764,-0.60902 -56.97895,34.17259 -56.97895,34.17259 0,0 -44.69894,27.94915 -59.97567,44.98072 -0.52647,-3.56087 -0.96612,-7.02423 -1.36477,-10.43969 14.65477,-15.56734 43.31954,-46.13428 57.50655,-62.10834 19.45658,-21.90743 147.1228,-65.62235 147.1228,-65.62235 0,0 -61.05321,-4.39629 -90.64355,-1.92495 24.47375,-18.63377 57.81987,-44.65514 52.23195,-44.51511 -8.56633,0.21466 -98.38361,53.88504 -116.34432,62.05048 -10.14132,4.6105 -31.56231,19.52883 -48.29731,31.64819 0.72001,-6.70387 1.49024,-13.465 2.39726,-20.33106 21.00114,-16.1917 50.37396,-38.75861 66.86259,-50.99688 26.72524,-19.83617 31.98688,-30.46854 89.77283,-55.75991 57.78592,-25.291367 -20.60522,-3.408005 -35.96992,-3.385838 -15.3647,0.02217 -64.16402,38.244698 -64.16402,38.244698 0,0 -29.86882,25.75551 -53.19469,48.858 1.90262,-12.30708 4.00341,-24.57805 6.18979,-36.54661 17.30751,-15.78303 39.46279,-35.15753 55.56975,-46.27728 30.37327,-20.968777 98.90352,-53.277884 98.90352,-53.277884 0,0 -11.16396,-11.168049 -29.52845,-6.23321 -18.36444,4.934741 -52.85943,16.720926 -78.58485,34.462495 -12.81705,8.839284 -27.45716,24.198479 -40.18618,39.408969 9.89573,-48.842455 19.51096,-86.242802 19.51096,-86.242802 0,0 -0.39958,-0.03657 -1.15033,-0.0186 z M 157.78921,95.319793 c 25.88398,5.842747 112.38704,24.499277 148.60799,21.354767 -5.34537,16.9384 -10.10425,36.06524 -13.99966,56.44772 -26.43965,-20.66109 -81.41001,-52.68102 -81.41001,-52.68102 0,0 -27.01338,-13.718 -53.19832,-25.121467 z M 386.73132,224.38581 c -12.88058,11.9893 -22.85236,21.76767 -22.85236,21.76767 0,0 -14.98258,16.06727 -26.22528,31.04358 0.0678,-7.73751 0.38708,-15.87899 0.95448,-24.36957 13.74254,-7.07297 31.65231,-18.03783 48.12316,-28.44168 z m 113.18583,98.46995 c -42.15561,25.94353 -109.13234,73.41621 -136.13793,92.76284 -3.75177,-12.50977 -7.35894,-25.20376 -10.63707,-37.76824 14.60304,-5.78707 64.16648,-25.43704 95.51302,-38.07987 12.89698,-5.20165 32.00902,-11.26048 51.26198,-16.91473 z m -340.83087,5.90198 c 37.00058,5.11056 91.20645,11.81021 126.05692,11.78428 2.65805,17.92311 6.43027,37.34461 10.7642,57.05337 -26.31194,-20.86435 -69.75488,-42.84572 -95.26913,-54.21116 -12.7826,-5.69405 -27.81112,-10.6552 -41.55199,-14.62649 z m 164.3662,175.34691 c 2.52172,8.83 5.26428,18.69903 7.43212,25.93589 -34.45885,-5.17017 -87.41082,-12.68748 -114.53513,-14.3216 -15.69321,-0.94507 -31.42266,-2.06568 -46.37133,-2.86287 25.6689,-3.56259 54.16042,-6.90857 72.55629,-7.2094 22.55772,-0.36888 54.32917,-0.99938 80.91805,-1.54202 z"
       sodipodi:nodetypes="sscsscscsccsscscccssccsscccssccccscsccscssccsscccccccscsccscscccscccsssccssscccsccssccssscccscssccsscccccccccccccsccccscccccsc"
       inkscape:connector-curvature="0" />
    <path
       id="path166711-9"
       style="fill:#916f6f;stroke:#916f6f;stroke-width:2.48516989;stroke-linecap:butt;stroke-linejoin:miter;stroke-miterlimit:4;stroke-dasharray:none;stroke-opacity:1"
       d="m 927.94256,27.249008 c -5.25518,0.125749 -27.70863,2.921828 -50.62532,39.611536 -4.89014,7.829087 -9.56197,17.7805 -13.9454,29.208552 -6.11775,-2.872171 -14.71538,-6.038021 -26.37102,-8.485788 -28.10237,-5.901713 -106.38851,-21.110177 -130.28919,-4.280357 -3.32211,2.339279 -5.76742,4.138141 -7.63053,5.573302 -16.09521,-6.662417 -30.60182,-11.67947 -36.38487,-10.847916 -16.08523,2.31291 19.07842,25.934853 19.07842,25.934843 0,0 28.71316,13.93564 59.36123,28.95689 22.27781,10.91882 73.13268,37.15409 99.57326,50.83566 -1.49452,8.82814 -2.84477,17.80274 -3.99925,26.88569 -17.00634,-8.59589 -37.68106,-17.58752 -55.12427,-25.03464 -30.05236,-12.8304 -106.51461,-56.16007 -127.61704,-57.75513 -21.10232,-1.59505 11.05204,27.31564 11.05204,27.31564 0,0 66.02262,38.77011 101.52611,53.91041 17.61143,7.51031 44.79811,16.58714 67.73748,23.83317 -0.20143,2.16785 -0.38581,4.33533 -0.56536,6.50399 -43.00638,-16.72757 -182.36044,-20.23029 -182.36044,-20.23029 0,0 -20.15492,-12.10466 1.00304,12.20598 21.15799,24.3107 137.73076,22.80091 170.54256,24.41194 3.73986,0.18363 6.89215,0.30503 9.65006,0.38654 -0.46796,8.36907 -0.70699,16.65327 -0.82526,24.87033 -27.25851,-4.54718 -68.82767,-11.1029 -90.15936,-12.53258 -33.28974,-2.23112 -69.06424,-6.62997 -82.62493,0.94516 -13.56069,7.57512 -5.5082,8.5106 -5.5082,8.5106 0,0 126.15926,21.01827 178.31781,18.42315 0.19823,7.07353 0.79508,14.80884 1.66862,22.98052 -32.26093,-7.02858 -76.61833,-16.09627 -96.22771,-17.34778 -32.56481,-2.07835 -47.76396,3.72269 -61.02935,10.77918 -2.79968,1.48929 -4.50212,2.65137 -5.69113,3.63958 -1.42817,-0.30427 -2.21485,-0.46302 -2.21485,-0.46302 0,0 -20.90817,-15.65494 3.27268,9.87071 55.01525,40.39975 106.24881,59.64959 106.24881,59.64959 0,0 -104.18421,-12.623 -130.24633,-9.93841 -26.06212,2.68457 41.23108,20.7703 41.23108,20.7703 0,0 88.25592,15.25333 125.82334,26.10384 14.93869,4.31472 29.68202,10.06179 42.07288,15.42852 1.9118,7.56756 3.84953,15.04153 5.78879,22.3361 -24.41858,-11.86215 -55.75726,-25.94534 -76.57518,-31.03584 -38.44771,-9.40144 -116.04045,-6.70449 -116.04045,-6.70449 0,0 -27.85991,14.23196 -12.87622,21.72375 14.9837,7.49178 83.12801,7.65159 115.67253,15.61867 28.73502,7.0345 70.28442,17.40204 95.35075,20.4158 0.47022,1.69863 0.82465,2.83073 1.28934,4.49895 -23.61837,-4.00616 -55.36266,-7.73975 -79.14142,-7.35975 -34.31194,0.54832 -80.86066,9.36252 -100.97109,16.12357 -12.58744,4.23183 -19.66698,13.28042 -23.20324,19.45876 -1.23698,0.42494 -2.38757,0.89172 -3.42564,1.41282 -17.14997,8.6102 -6.96598,9.67126 -6.96598,9.67126 0,0 169.26214,25.34171 231.19054,20.60027 2.41847,7.76404 5.79035,18.65728 5.79035,18.65728 l 67.00366,-20.55791 c 0,0 -2.53201,-6.29788 -6.57169,-16.86359 14.05502,-0.23289 31.20932,-3.28996 47.68338,-5.27666 29.5915,-3.56865 103.436,-27.22367 103.436,-27.22367 0,0 20.6055,3.73893 -8.7726,-13.6121 -22.4298,-13.24737 -111.28856,8.68222 -152.14568,19.81481 -2.76831,-7.60289 -5.75225,-15.98433 -8.85888,-24.92198 19.61898,-7.449 56.2531,-20.78225 75.82636,-24.20887 27.5448,-4.82214 96.7956,-15.25694 96.7956,-15.25694 0,0 -11.8213,-5.98739 -21.9594,-11.61169 -10.138,-5.6243 -63.7206,2.3735 -63.7206,2.3735 0,0 -69.73357,18.30575 -93.50331,29.44625 -2.33032,-6.97516 -4.67159,-14.32846 -7.00371,-21.66895 13.34786,-5.62446 32.5977,-16.26714 47.22916,-22.57383 20.4841,-8.82938 61.22516,-41.02642 61.22516,-41.02642 0,0 46.1236,-42.05161 56.949,-59.72144 19.7294,-5.35559 34.4625,-9.06764 34.4625,-9.06764 0,0 -15.076,-14.70789 -34.802,-13.79762 -19.7261,0.91022 -56.0939,6.97018 -86.74356,19.31511 -30.6496,12.3449 -73.36048,30.61288 -88.12175,45.02878 -4.2637,4.16396 -7.51575,8.22367 -10.02159,11.90985 -2.21499,-9.04561 -4.29414,-18.01188 -6.00996,-26.69138 20.28187,-13.76514 55.52787,-37.78689 71.35326,-49.25902 22.64054,-16.41258 75.6318,-35.1069 123.7629,-32.32205 48.1312,2.78484 -70.2024,-17.81002 -81.78,-18.41903 -11.57756,-0.60902 -56.97888,34.17259 -56.97888,34.17259 0,0 -44.69894,27.94915 -59.97567,44.98072 -0.52647,-3.56087 -0.96612,-7.02423 -1.36477,-10.43969 14.65477,-15.56734 43.31954,-46.13428 57.50655,-62.10834 19.45661,-21.90743 147.12277,-65.62235 147.12277,-65.62235 0,0 -61.0532,-4.39629 -90.6436,-1.92495 24.4738,-18.63377 57.8199,-44.65514 52.232,-44.51511 -8.5663,0.21466 -98.38358,53.88504 -116.34429,62.05048 -10.14132,4.6105 -31.56231,19.52883 -48.29731,31.64819 0.72001,-6.70387 1.49024,-13.465 2.39726,-20.33106 21.00114,-16.1917 50.37396,-38.75861 66.86259,-50.99688 26.72529,-19.83617 31.98689,-30.46854 89.77275,-55.759907 57.786,-25.291367 -20.6052,-3.408005 -35.9699,-3.385838 -15.36466,0.02217 -64.16396,38.244695 -64.16396,38.244695 0,0 -29.86882,25.75551 -53.19469,48.858 1.90262,-12.30708 4.00341,-24.57805 6.18979,-36.54661 17.30751,-15.78303 39.46279,-35.15753 55.56975,-46.277277 30.37325,-20.968777 98.90351,-53.277884 98.90351,-53.277884 0,0 -11.164,-11.168049 -29.5285,-6.23321 -18.3644,4.934741 -52.85936,16.720926 -78.58479,34.462495 -12.81705,8.839284 -27.45716,24.198479 -40.18618,39.408966 9.89573,-48.842452 19.51096,-86.242799 19.51096,-86.242799 0,0 -0.39958,-0.03657 -1.15033,-0.0186 z M 708.46449,92.892546 c 25.88398,5.842747 112.38704,24.499274 148.60799,21.354764 -5.34537,16.9384 -10.10425,36.06524 -13.99966,56.44772 -26.43965,-20.66109 -81.41001,-52.68102 -81.41001,-52.68102 0,0 -27.01338,-13.718 -53.19832,-25.121464 z M 937.4066,221.95856 c -12.88058,11.9893 -22.85236,21.76767 -22.85236,21.76767 0,0 -14.98258,16.06727 -26.22528,31.04358 0.0678,-7.73751 0.38708,-15.87899 0.95448,-24.36957 13.74254,-7.07297 31.65231,-18.03783 48.12316,-28.44168 z m 113.1858,98.46995 c -42.1556,25.94353 -109.13231,73.41621 -136.1379,92.76284 -3.75177,-12.50977 -7.35894,-25.20376 -10.63707,-37.76824 14.60304,-5.78707 64.16651,-25.43704 95.51301,-38.07987 12.89696,-5.20165 32.00896,-11.26048 51.26196,-16.91473 z m -340.83084,5.90198 c 37.00058,5.11056 91.20645,11.81021 126.05692,11.78428 2.65805,17.92311 6.43027,37.34461 10.7642,57.05337 -26.31194,-20.86435 -69.75488,-42.84572 -95.26913,-54.21116 -12.7826,-5.69405 -27.81112,-10.6552 -41.55199,-14.62649 z m 164.3662,175.34691 c 2.52172,8.83 5.26428,18.69903 7.43212,25.93589 -34.45885,-5.17017 -87.41082,-12.68748 -114.53513,-14.3216 -15.69321,-0.94507 -31.42266,-2.06568 -46.37133,-2.86287 25.6689,-3.56259 54.16042,-6.90857 72.55629,-7.2094 22.55772,-0.36888 54.32917,-0.99938 80.91805,-1.54202 z"
       sodipodi:nodetypes="sscsscscsccsscscccssccsscccssccccscsccscssccsscccccccscsccscscccscccsssccssscccsccssccssscccscssccsscccccccccccccsccccscccccsc"
       inkscape:connector-curvature="0" />
  </g>
</svg>
