<?xml version="1.0" encoding="UTF-8" standalone="no"?>
<!-- Created with Inkscape (http://www.inkscape.org/) -->

<svg
   width="1220mm"
   height="600mm"
   viewBox="0 0 1220 600.00001"
   version="1.1"
   id="svg5"
   inkscape:version="1.1.1 (3bf5ae0d25, 2021-09-20)"
   sodipodi:docname="02_ice_skating.svg"
   xmlns:inkscape="http://www.inkscape.org/namespaces/inkscape"
   xmlns:sodipodi="http://sodipodi.sourceforge.net/DTD/sodipodi-0.dtd"
   xmlns="http://www.w3.org/2000/svg"
   xmlns:svg="http://www.w3.org/2000/svg"
   xmlns:rdf="http://www.w3.org/1999/02/22-rdf-syntax-ns#"
   xmlns:cc="http://creativecommons.org/ns#"
   xmlns:dc="http://purl.org/dc/elements/1.1/">
  <metadata
     id="metadata3849">
    <rdf:RDF>
      <cc:Work
         rdf:about="">
        <dc:format>image/svg+xml</dc:format>
        <dc:type
           rdf:resource="http://purl.org/dc/dcmitype/StillImage" />
      </cc:Work>
    </rdf:RDF>
  </metadata>
  <sodipodi:namedview
     id="namedview7"
     pagecolor="#ffffff"
     bordercolor="#666666"
     borderopacity="1.0"
     inkscape:pageshadow="2"
     inkscape:pageopacity="0.0"
     inkscape:pagecheckerboard="true"
     inkscape:document-units="mm"
     showgrid="false"
     inkscape:zoom="0.70710678"
     inkscape:cx="501.33871"
     inkscape:cy="364.16"
     inkscape:window-width="1920"
     inkscape:window-height="1017"
     inkscape:window-x="-8"
     inkscape:window-y="-8"
     inkscape:window-maximized="1"
     inkscape:current-layer="layer1"
     inkscape:snap-global="true" />
  <defs
     id="defs2" />
  <g
     inkscape:label="Layer 1"
     inkscape:groupmode="layer"
     id="layer1">
    <text
       xml:space="preserve"
       style="font-size:2.86695px;line-height:1.25;font-family:sans-serif;letter-spacing:0px;word-spacing:0px;fill:#0000ff;fill-opacity:1;stroke-width:2.15027;stroke-miterlimit:4;stroke-dasharray:none"
       x="-89.795479"
       y="35.668728"
       id="text37531-6"><tspan
         sodipodi:role="line"
         id="tspan37529-6"
         style="fill:#0000ff;fill-opacity:1;stroke-width:2.15027;stroke-miterlimit:4;stroke-dasharray:none"
         x="-89.795479"
         y="35.668728">=pass1:800mm/min:60%:#0000ff=</tspan></text>
    <text
       xml:space="preserve"
       style="font-size:2.86695px;line-height:1.25;font-family:sans-serif;letter-spacing:0px;word-spacing:0px;fill:#ff0000;fill-opacity:1;stroke-width:2.15021"
       x="-90.896896"
       y="45.908516"
       id="text37531-6-9"><tspan
         sodipodi:role="line"
         id="tspan37529-6-2"
         style="fill:#ff0000;fill-opacity:1;stroke-width:2.15021"
         x="-90.896896"
         y="45.908516">=pass2:800mm/min:60%:#ff0000=</tspan></text>
    <g
       id="g118158"
       transform="matrix(0.71671426,-0.71671426,0.71671426,0.71671426,-20.937762,44.999999)">
      <path
         style="fill:none;fill-opacity:1;stroke:#ff0000;stroke-width:0.2;stroke-miterlimit:4;stroke-dasharray:none;stroke-opacity:1"
         d="M 77.322404,14.677299 A 44.296748,44.296748 0 0 0 50.297227,1.9439418 a 7.4017201,7.4017201 0 0 0 0.229476,-0.2075513 7.4017201,7.4017201 0 0 0 0,-10.467465 7.4017201,7.4017201 0 0 0 -10.467465,2e-7 7.4017201,7.4017201 0 0 0 0,10.4674648 7.4017201,7.4017201 0 0 0 0.397929,0.3686962 44.296748,44.296748 0 0 0 -25.779503,12.5722123 44.296748,44.296748 0 0 0 -3.67e-4,62.645107 44.296748,44.296748 0 0 0 62.645474,0 44.296748,44.296748 0 0 0 -3.67e-4,-62.645107 z"
         id="path4941" />
      <path
         style="fill:none;fill-opacity:1;stroke:#0000ff;stroke-width:0.20439;stroke-miterlimit:4;stroke-dasharray:none;stroke-opacity:1"
         d="m 48.756198,-0.03421764 a 4.8978052,4.8978052 0 0 1 -6.926542,0 4.8978052,4.8978052 0 0 1 0,-6.92654236 4.8978052,4.8978052 0 0 1 6.926542,0 4.8978052,4.8978052 0 0 1 0,6.92654236 z"
         id="path4950" />
      <path
         id="path4952"
         style="fill:none;fill-opacity:1;stroke:#0000ff;stroke-width:0.852918;stroke-miterlimit:4;stroke-dasharray:none;stroke-opacity:1"
         transform="scale(0.26458333)"
         d="M 60.169922,263.26953 C 65.131606,261.13939 85.413414,241.86 100.57617,224.85938 l 9.32227,-10.45313 -1.6543,-11.14844 c -1.02914,-6.93386 -1.10963,-13.04898 -0.21289,-16.17578 1.56846,-5.4689 11.98829,-17.12109 15.31055,-17.12109 2.96024,0 2.55553,-1.51289 -1.51368,-5.66016 -16.53063,-16.8478 -16.13319,-16.55275 -22.330073,-16.56445 -4.44062,-0.008 -5.718984,-0.53882 -4.808594,-1.9961 0.682148,-1.09194 1.38069,-2.91541 1.552735,-4.05078 0.445041,-2.9372 3.804842,-6.66992 6.001952,-6.66992 1.02569,0 3.26041,1.09353 4.9668,2.43164 9.94203,7.79632 22.72977,14.95474 26.78711,14.99414 2.54387,0.0246 8.51636,1.27061 13.27148,2.76953 8.17332,2.57609 8.75379,2.5754 10.64258,-0.008 1.09886,-1.50279 4.28245,-3.52873 7.07422,-4.50195 4.47244,-1.5591 5.53766,-1.33558 8.95312,1.87304 2.91723,2.7406 3.875,5.29431 3.875,10.31836 0,7.20434 1.55566,9.22505 8.33985,10.84571 10.35012,2.47245 -0.27407,20.04297 -12.11914,20.04297 -9.62346,0 -17.88657,4.3241 -22.2793,11.66015 -2.17484,3.63207 -11.21041,13.70019 -20.07813,22.37305 -8.86772,8.67286 -17.9482,18.66041 -20.17968,22.19531 -2.23149,3.53491 -6.80679,9.90455 -10.16602,14.1543 -3.737262,4.728 -6.107421,9.42584 -6.107421,12.10351 0,4.91929 -2.579023,7.66012 -12.1875,12.83204 H 278.08203 c 1.94965,-1.72015 3.85585,-3.48894 5.7168,-5.30469 60.71853,-60.71838 60.71853,-159.16248 0,-219.880861 C 253.21326,33.332588 211.26906,16.870836 168.04492,18.488281 128.84803,19.95478 91.653842,36.182281 63.917969,63.917969 8.6967148,119.24707 3.141937,206.97376 50.943359,268.82617 c 3.181934,-2.34488 6.454085,-4.36636 9.226563,-5.55664 z m 3.748051,20.52929 c 1.860945,1.81575 3.767144,3.58454 5.716797,5.30469 h 6.197265 c 0.45691,-1.98836 0.717427,-4.75498 0.580078,-6.77344 -0.187086,-2.74924 0.495798,-4.36719 1.841797,-4.36719 2.414551,0 11.195483,-11.62689 12.894532,-17.07422 1.047943,-3.35982 0.844367,-3.47476 -3.361329,-1.88867 -8.333548,3.14281 -18.859074,10.09734 -28.982421,18.90235 1.671933,2.03103 3.340457,3.95289 5.113281,5.89648 z"
         sodipodi:nodetypes="scccssccscsscccssscsssssscccccccscccsssscc" />
    </g>
    <g
       id="g118839"
       transform="matrix(0.71671424,-0.71671424,0.71671424,0.71671424,-9.3902408,124.45325)">
      <path
         style="fill:none;fill-opacity:1;stroke:#ff0000;stroke-width:0.2;stroke-miterlimit:4;stroke-dasharray:none;stroke-opacity:1"
         d="m 188.17951,14.676759 a 44.296748,44.296748 0 0 0 -27.02517,-12.7333571 7.4017201,7.4017201 0 0 0 0.22947,-0.2075513 7.4017201,7.4017201 0 0 0 0,-10.467465 7.4017201,7.4017201 0 0 0 -10.46746,2e-7 7.4017201,7.4017201 0 0 0 0,10.4674648 7.4017201,7.4017201 0 0 0 0.39793,0.3686962 44.296748,44.296748 0 0 0 -25.77951,12.5722122 44.296748,44.296748 0 0 0 -3.6e-4,62.645107 44.296748,44.296748 0 0 0 62.64547,0 44.296748,44.296748 0 0 0 -3.7e-4,-62.645107 z"
         id="path4941-5" />
      <path
         style="fill:none;fill-opacity:1;stroke:#0000ff;stroke-width:0.20439;stroke-miterlimit:4;stroke-dasharray:none;stroke-opacity:1"
         d="m 159.61331,-0.03475759 a 4.8978052,4.8978052 0 0 1 -6.92654,0 4.8978052,4.8978052 0 0 1 0,-6.92654231 4.8978052,4.8978052 0 0 1 6.92654,0 4.8978052,4.8978052 0 0 1 0,6.92654231 z"
         id="path4950-8" />
      <path
         id="path4952-4"
         style="fill:none;fill-opacity:1;stroke:#0000ff;stroke-width:0.852918;stroke-miterlimit:4;stroke-dasharray:none;stroke-opacity:1"
         d="M 587.0332,18.486328 A 155.47905,155.47905 0 0 0 482.90625,63.916016 155.47905,155.47905 0 0 0 439.92383,201.73633 c 14.57902,-0.58655 51.12651,-1.76775 71.61523,0.29883 25.7678,2.59904 75.1211,15.30859 75.1211,15.30859 l 11.31054,-0.0937 1.81641,-13.08008 -3.78516,0.875 6.4043,-16.01367 9.02539,-36.97266 2.61914,-18.04882 0.29297,-8.73633 -5.5332,-1.45508 0.58203,2.91211 -83.26172,12.51953 -0.29102,-20.96289 80.35157,-13.68164 4.07617,3.7832 8.73437,-1.74609 6.69532,-8.152346 L 624.5332,93.25 615.79883,91.503906 611.63867,19.564453 A 155.47905,155.47905 0 0 0 587.0332,18.486328 Z m 44.1875,4.763672 -0.86523,67.378906 -2.03906,1.166016 0.58203,3.785156 3.78711,-1.164062 9.60547,4.074218 4.94921,-6.404296 68.08204,-13.990235 A 155.47905,155.47905 0 0 0 702.78711,63.916016 155.47905,155.47905 0 0 0 631.2207,23.25 Z m 96.96094,74.095703 -70.67187,9.753907 8.64648,6.79297 7,8.64844 -2.67773,2.05664 -5.76172,0.20703 0.61523,3.29297 5.14649,25.52539 4.11718,17.49804 7.4336,21.98633 6.11523,10.33594 -5.38476,0.72656 2.28515,12.34961 57.44141,-0.48242 A 155.47905,155.47905 0 0 0 728.18164,97.345703 Z"
         transform="scale(0.26458333)" />
    </g>
    <g
       id="g119251"
       transform="matrix(0.71671424,-0.71671424,0.71671424,0.71671424,9.3367375,195.20923)">
      <path
         style="fill:none;fill-opacity:1;stroke:#ff0000;stroke-width:0.2;stroke-miterlimit:4;stroke-dasharray:none;stroke-opacity:1"
         d="m 287.96056,15.735092 a 44.296748,44.296748 0 0 0 -27.02517,-12.7333568 7.4017201,7.4017201 0 0 0 0.22947,-0.2075513 7.4017201,7.4017201 0 0 0 0,-10.467465 7.4017201,7.4017201 0 0 0 -10.46746,2e-7 7.4017201,7.4017201 0 0 0 0,10.4674648 7.4017201,7.4017201 0 0 0 0.39793,0.3686962 44.296748,44.296748 0 0 0 -25.77951,12.5722119 44.296748,44.296748 0 0 0 -3.6e-4,62.645107 44.296748,44.296748 0 0 0 62.64547,0 44.296748,44.296748 0 0 0 -3.7e-4,-62.645107 z"
         id="path4941-7" />
      <path
         style="fill:none;fill-opacity:1;stroke:#0000ff;stroke-width:0.20439;stroke-miterlimit:4;stroke-dasharray:none;stroke-opacity:1"
         d="m 259.39436,1.0235758 a 4.8978052,4.8978052 0 0 1 -6.92654,0 4.8978052,4.8978052 0 0 1 0,-6.9265424 4.8978052,4.8978052 0 0 1 6.92654,0 4.8978052,4.8978052 0 0 1 0,6.9265424 z"
         id="path4950-7" />
      <path
         style="fill:none;fill-opacity:1;stroke:#0000ff;stroke-width:0.225668;stroke-miterlimit:4;stroke-dasharray:none;stroke-opacity:1"
         d="m 285.72656,76.146147 a 41.137166,41.137166 0 0 1 -58.17674,0 41.137166,41.137166 0 0 1 0,-58.176737 41.137166,41.137166 0 0 1 58.17674,-1e-6 41.137166,41.137166 0 0 1 0,58.176738 z"
         id="path4952-0" />
    </g>
    <path
       id="path109760"
       style="fill:#000000;fill-opacity:1;stroke:#ff0000;stroke-width:0.2;stroke-miterlimit:4;stroke-dasharray:none;stroke-opacity:1"
       d="m 45.085382,98.685965 a 7.40172,7.40172 0 0 0 -4.588867,2.139925 7.40172,7.40172 0 0 0 0,10.46706 7.40172,7.40172 0 0 0 0.397909,0.36897 44.296747,44.296747 0 0 0 -25.779305,12.57184 44.296747,44.296747 0 0 0 -5.29e-4,62.64527 44.296747,44.296747 0 0 0 62.645788,0 44.296747,44.296747 0 0 0 -5.29e-4,-62.64527 44.296747,44.296747 0 0 0 -27.025222,-12.73307 7.40172,7.40172 0 0 0 0.229442,-0.20774 7.40172,7.40172 0 0 0 0,-10.46706 7.40172,7.40172 0 0 0 -5.878711,-2.139925 z m 0.461989,2.478915 a 4.8978052,4.8978052 0 0 1 3.646289,1.43092 4.8978052,4.8978052 0 0 1 0,6.92671 4.8978052,4.8978052 0 0 1 -6.92671,0 4.8978052,4.8978052 0 0 1 0,-6.92671 4.8978052,4.8978052 0 0 1 3.280421,-1.43092 z" />
    <path
       id="path109947"
       style="fill:#666666;fill-opacity:1;stroke:#666666;stroke-width:0.2;stroke-miterlimit:4;stroke-dasharray:none;stroke-opacity:1"
       d="m 45.085382,98.685965 a 7.40172,7.40172 0 0 0 -4.588867,2.139925 7.40172,7.40172 0 0 0 0,10.46706 7.40172,7.40172 0 0 0 0.397909,0.36897 44.296747,44.296747 0 0 0 -25.779305,12.57184 44.296747,44.296747 0 0 0 -5.29e-4,62.64527 44.296747,44.296747 0 0 0 62.645788,0 44.296747,44.296747 0 0 0 -5.29e-4,-62.64527 44.296747,44.296747 0 0 0 -27.025222,-12.73307 7.40172,7.40172 0 0 0 0.229442,-0.20774 7.40172,7.40172 0 0 0 0,-10.46706 7.40172,7.40172 0 0 0 -5.878711,-2.139925 z m 0.461989,2.478915 a 4.8978052,4.8978052 0 0 1 3.646289,1.43092 4.8978052,4.8978052 0 0 1 0,6.92671 4.8978052,4.8978052 0 0 1 -6.92671,0 4.8978052,4.8978052 0 0 1 0,-6.92671 4.8978052,4.8978052 0 0 1 3.280421,-1.43092 z m -0.648023,13.28343 a 41.137165,41.137165 0 0 1 30.626552,12.01994 41.137165,41.137165 0 0 1 0,58.17681 41.137165,41.137165 0 0 1 -58.176809,0 41.137165,41.137165 0 0 1 0,-58.17681 41.137165,41.137165 0 0 1 27.550257,-12.01994 z" />
    <path
       id="path95714-8"
       style="fill:#918a6f;fill-opacity:1;stroke:#918a6f;stroke-width:0.264583px;stroke-linecap:butt;stroke-linejoin:miter;stroke-opacity:1"
       d="m 5.9398858,162.68989 a 41.137165,41.137165 0 0 0 11.4091222,21.95525 41.137165,41.137165 0 0 0 58.17681,0 41.137165,41.137165 0 0 0 10.641211,-18.42937 l -41.311173,0.34675 -19.001941,-3.87263 z" />
    <path
       id="path20190-1-1-7"
       style="display:inline;vector-effect:none;fill:#918a6f;fill-opacity:1;stroke:#918a6f;stroke-width:0.0393618;stroke-linecap:butt;stroke-linejoin:miter;stroke-miterlimit:4;stroke-dasharray:none;stroke-dashoffset:0;stroke-opacity:1"
       d="m 51.067362,114.68197 1.159103,20.0489 2.209683,0.44184 0.294556,1.3255 -1.693953,2.06189 -2.209167,0.44183 -1.030944,-0.95705 -20.325373,3.46077 0.0739,5.30252 21.061246,-3.16673 -0.147278,-0.73639 1.3994,0.36794 -0.0739,2.20968 -0.662493,4.56561 -2.283063,9.35241 -1.620057,4.05039 0.957564,-0.22117 -0.552421,3.9765 3.976503,0.25787 8.321455,-0.11059 7.179924,-0.14728 h 2.798794 l -0.736389,-3.9765 1.362192,-0.18397 -1.546678,-2.61431 -1.880504,-5.56142 -1.041281,-4.42608 -1.301729,-6.45697 -0.156062,-0.83303 1.457791,-0.0522 0.676963,-0.52038 -1.770436,-2.18747 -2.186945,-1.71824 18.979202,-2.61948 0.426331,-0.85266 a 41.137165,41.137165 0 0 0 -2.797246,-4.27209 l -19.206062,3.94653 -1.252119,1.62006 -2.429828,-1.03095 -0.957564,0.29456 -0.147277,-0.95757 0.515731,-0.29455 0.242363,-18.90117 a 41.137165,41.137165 0 0 0 -5.083929,-0.92656 z" />
    <path
       id="path834-2"
       style="fill:#666666;stroke-width:0.42023;stroke:#666666"
       d="m 27.489474,145.28062 c -0.581319,0 -1.470265,0.98761 -1.588016,1.76475 -0.04552,0.3004 -0.230343,0.78286 -0.410828,1.07177 -0.240874,0.38557 0.09736,0.52593 1.272274,0.52813 1.639592,0.003 1.53443,-0.075 5.908165,4.38268 1.076645,1.0973 1.183724,1.49758 0.400494,1.49758 -0.879014,0 -3.635928,3.08298 -4.050916,4.52996 -0.237263,0.8273 -0.215964,2.44525 0.05633,4.27984 l 0.4377,2.94969 -2.466517,2.76572 c -4.011814,4.49809 -9.378041,9.59909 -10.69082,10.16269 -0.737315,0.31654 -1.608158,0.85502 -2.454114,1.4795 a 41.137165,41.137165 0 0 0 2.024683,2.42052 c 0.03656,-0.0317 0.06541,-0.0553 0.102836,-0.0879 2.678469,-2.32966 5.428725,-4.11028 7.633643,-4.94182 1.112757,-0.41965 1.16662,-0.38924 0.889351,0.49971 -0.44954,1.44128 -2.772828,4.51756 -3.411678,4.51756 -0.356129,0 -0.536809,0.42808 -0.487309,1.15548 0.04325,0.6356 -0.0579,1.57148 -0.224792,2.07946 -0.302036,0.91932 -0.294008,0.91879 1.714107,-0.14314 2.77583,-1.46791 3.488159,-2.19084 3.488159,-3.53932 0,-0.70847 0.627104,-1.95144 1.615922,-3.20239 0.888796,-1.12441 2.099344,-2.80971 2.689759,-3.74499 0.590413,-0.93528 2.992956,-3.57782 5.339207,-5.87251 2.346251,-2.29469 4.736912,-4.95855 5.312339,-5.91954 1.162243,-1.94099 3.348524,-3.08508 5.894731,-3.08508 3.134008,0 5.944992,-4.64886 3.206523,-5.30303 -1.794984,-0.4288 -2.206586,-0.96345 -2.206586,-2.8696 0,-1.32928 -0.25341,-2.00495 -1.02526,-2.73006 -0.903674,-0.84896 -1.185513,-0.90809 -2.368846,-0.49558 -0.738656,0.2575 -1.580981,0.79353 -1.871721,1.19114 -0.499742,0.68348 -0.653325,0.68374 -2.815849,0.002 -1.258126,-0.39659 -2.838347,-0.72627 -3.511413,-0.73277 -1.073504,-0.0104 -4.456927,-1.90443 -7.087422,-3.9672 -0.451483,-0.35404 -1.042752,-0.64337 -1.314133,-0.64337 z" />
    <path
       id="path95613-8"
       style="fill:#666666;stroke:#666666;stroke-width:0.264583px;stroke-linecap:butt;stroke-linejoin:miter;stroke-opacity:1"
       d="m 19.435185,186.58094 a 41.137165,41.137165 0 0 0 54.004455,0 H 19.778834 Z" />
  </g>
  <inkscape:templateinfo>
    <inkscape:name>Lasersaur</inkscape:name>
    <inkscape:author>Arthur</inkscape:author>
    <inkscape:shortdesc>Default size of the Lasersaur</inkscape:shortdesc>
    <inkscape:date>2021-10-20</inkscape:date>
  </inkscape:templateinfo>
</svg>
