<?xml version="1.0" encoding="UTF-8" standalone="no"?>
<!-- Created with Inkscape (http://www.inkscape.org/) -->

<svg
   width="1220mm"
   height="600mm"
   viewBox="0 0 1220 600.00001"
   version="1.1"
   id="svg5"
   inkscape:version="1.1.1 (3bf5ae0d25, 2021-09-20)"
   sodipodi:docname="02_ice_skating.svg"
   xmlns:inkscape="http://www.inkscape.org/namespaces/inkscape"
   xmlns:sodipodi="http://sodipodi.sourceforge.net/DTD/sodipodi-0.dtd"
   xmlns="http://www.w3.org/2000/svg"
   xmlns:svg="http://www.w3.org/2000/svg"
   xmlns:rdf="http://www.w3.org/1999/02/22-rdf-syntax-ns#"
   xmlns:cc="http://creativecommons.org/ns#"
   xmlns:dc="http://purl.org/dc/elements/1.1/">
  <metadata
     id="metadata3849">
    <rdf:RDF>
      <cc:Work
         rdf:about="">
        <dc:format>image/svg+xml</dc:format>
        <dc:type
           rdf:resource="http://purl.org/dc/dcmitype/StillImage" />
      </cc:Work>
    </rdf:RDF>
  </metadata>
  <sodipodi:namedview
     id="namedview7"
     pagecolor="#ffffff"
     bordercolor="#666666"
     borderopacity="1.0"
     inkscape:pageshadow="2"
     inkscape:pageopacity="0.0"
     inkscape:pagecheckerboard="true"
     inkscape:document-units="mm"
     showgrid="false"
     inkscape:zoom="0.70710678"
     inkscape:cx="501.33871"
     inkscape:cy="364.15999"
     inkscape:window-width="1920"
     inkscape:window-height="1017"
     inkscape:window-x="-8"
     inkscape:window-y="-8"
     inkscape:window-maximized="1"
     inkscape:current-layer="layer1"
     inkscape:snap-global="true" />
  <defs
     id="defs2" />
  <g
     inkscape:label="Layer 1"
     inkscape:groupmode="layer"
     id="layer1">
    <text
       xml:space="preserve"
       style="font-size:2.86695px;line-height:1.25;font-family:sans-serif;letter-spacing:0px;word-spacing:0px;fill:#0000ff;fill-opacity:1;stroke-width:2.15027;stroke-miterlimit:4;stroke-dasharray:none"
       x="-89.795479"
       y="35.668728"
       id="text37531-6"><tspan
         sodipodi:role="line"
         id="tspan37529-6"
         style="fill:#0000ff;fill-opacity:1;stroke-width:2.15027;stroke-miterlimit:4;stroke-dasharray:none"
         x="-89.795479"
         y="35.668728">=pass1:800mm/min:60%:#0000ff=</tspan></text>
    <text
       xml:space="preserve"
       style="font-size:2.86695px;line-height:1.25;font-family:sans-serif;letter-spacing:0px;word-spacing:0px;fill:#ff0000;fill-opacity:1;stroke-width:2.15021"
       x="-90.896896"
       y="45.908516"
       id="text37531-6-9"><tspan
         sodipodi:role="line"
         id="tspan37529-6-2"
         style="fill:#ff0000;fill-opacity:1;stroke-width:2.15021"
         x="-90.896896"
         y="45.908516">=pass2:800mm/min:60%:#ff0000=</tspan></text>
    <g
       id="g118158"
       transform="matrix(0.71671426,-0.71671426,0.71671426,0.71671426,-20.937762,44.999999)">
      <path
         style="fill:none;fill-opacity:1;stroke:#ff0000;stroke-width:0.2;stroke-miterlimit:4;stroke-dasharray:none;stroke-opacity:1"
         d="M 77.322404,14.677299 A 44.296748,44.296748 0 0 0 50.297227,1.9439418 a 7.4017201,7.4017201 0 0 0 0.229476,-0.2075513 7.4017201,7.4017201 0 0 0 0,-10.467465 7.4017201,7.4017201 0 0 0 -10.467465,2e-7 7.4017201,7.4017201 0 0 0 0,10.4674648 7.4017201,7.4017201 0 0 0 0.397929,0.3686962 44.296748,44.296748 0 0 0 -25.779503,12.5722123 44.296748,44.296748 0 0 0 -3.67e-4,62.645107 44.296748,44.296748 0 0 0 62.645474,0 44.296748,44.296748 0 0 0 -3.67e-4,-62.645107 z"
         id="path4941" />
      <path
         style="fill:none;fill-opacity:1;stroke:#0000ff;stroke-width:0.20439;stroke-miterlimit:4;stroke-dasharray:none;stroke-opacity:1"
         d="m 48.756198,-0.03421764 a 4.8978052,4.8978052 0 0 1 -6.926542,0 4.8978052,4.8978052 0 0 1 0,-6.92654236 4.8978052,4.8978052 0 0 1 6.926542,0 4.8978052,4.8978052 0 0 1 0,6.92654236 z"
         id="path4950" />
      <path
         id="path4952"
         style="fill:none;fill-opacity:1;stroke:#0000ff;stroke-width:0.852918;stroke-miterlimit:4;stroke-dasharray:none;stroke-opacity:1"
         transform="scale(0.26458333)"
         d="M 60.169922,263.26953 C 65.131606,261.13939 85.413414,241.86 100.57617,224.85938 l 9.32227,-10.45313 -1.6543,-11.14844 c -1.02914,-6.93386 -1.10963,-13.04898 -0.21289,-16.17578 1.56846,-5.4689 11.98829,-17.12109 15.31055,-17.12109 2.96024,0 2.55553,-1.51289 -1.51368,-5.66016 -16.53063,-16.8478 -16.13319,-16.55275 -22.330073,-16.56445 -4.44062,-0.008 -5.718984,-0.53882 -4.808594,-1.9961 0.682148,-1.09194 1.38069,-2.91541 1.552735,-4.05078 0.445041,-2.9372 3.804842,-6.66992 6.001952,-6.66992 1.02569,0 3.26041,1.09353 4.9668,2.43164 9.94203,7.79632 22.72977,14.95474 26.78711,14.99414 2.54387,0.0246 8.51636,1.27061 13.27148,2.76953 8.17332,2.57609 8.75379,2.5754 10.64258,-0.008 1.09886,-1.50279 4.28245,-3.52873 7.07422,-4.50195 4.47244,-1.5591 5.53766,-1.33558 8.95312,1.87304 2.91723,2.7406 3.875,5.29431 3.875,10.31836 0,7.20434 1.55566,9.22505 8.33985,10.84571 10.35012,2.47245 -0.27407,20.04297 -12.11914,20.04297 -9.62346,0 -17.88657,4.3241 -22.2793,11.66015 -2.17484,3.63207 -11.21041,13.70019 -20.07813,22.37305 -8.86772,8.67286 -17.9482,18.66041 -20.17968,22.19531 -2.23149,3.53491 -6.80679,9.90455 -10.16602,14.1543 -3.737262,4.728 -6.107421,9.42584 -6.107421,12.10351 0,4.91929 -2.579023,7.66012 -12.1875,12.83204 H 278.08203 c 1.94965,-1.72015 3.85585,-3.48894 5.7168,-5.30469 60.71853,-60.71838 60.71853,-159.16248 0,-219.880861 C 253.21326,33.332588 211.26906,16.870836 168.04492,18.488281 128.84803,19.95478 91.653842,36.182281 63.917969,63.917969 8.6967148,119.24707 3.141937,206.97376 50.943359,268.82617 c 3.181934,-2.34488 6.454085,-4.36636 9.226563,-5.55664 z m 3.748051,20.52929 c 1.860945,1.81575 3.767144,3.58454 5.716797,5.30469 h 6.197265 c 0.45691,-1.98836 0.717427,-4.75498 0.580078,-6.77344 -0.187086,-2.74924 0.495798,-4.36719 1.841797,-4.36719 2.414551,0 11.195483,-11.62689 12.894532,-17.07422 1.047943,-3.35982 0.844367,-3.47476 -3.361329,-1.88867 -8.333548,3.14281 -18.859074,10.09734 -28.982421,18.90235 1.671933,2.03103 3.340457,3.95289 5.113281,5.89648 z"
         sodipodi:nodetypes="scccssccscsscccssscsssssscccccccscccsssscc" />
    </g>
    <g
       id="g118839"
       transform="matrix(0.71671424,-0.71671424,0.71671424,0.71671424,-9.3902415,124.45325)">
      <path
         style="fill:none;fill-opacity:1;stroke:#ff0000;stroke-width:0.2;stroke-miterlimit:4;stroke-dasharray:none;stroke-opacity:1"
         d="m 188.17951,14.676759 a 44.296748,44.296748 0 0 0 -27.02517,-12.7333571 7.4017201,7.4017201 0 0 0 0.22947,-0.2075513 7.4017201,7.4017201 0 0 0 0,-10.467465 7.4017201,7.4017201 0 0 0 -10.46746,2e-7 7.4017201,7.4017201 0 0 0 0,10.4674648 7.4017201,7.4017201 0 0 0 0.39793,0.3686962 44.296748,44.296748 0 0 0 -25.77951,12.5722122 44.296748,44.296748 0 0 0 -3.6e-4,62.645107 44.296748,44.296748 0 0 0 62.64547,0 44.296748,44.296748 0 0 0 -3.7e-4,-62.645107 z"
         id="path4941-5" />
      <path
         style="fill:none;fill-opacity:1;stroke:#0000ff;stroke-width:0.20439;stroke-miterlimit:4;stroke-dasharray:none;stroke-opacity:1"
         d="m 159.61331,-0.03475759 a 4.8978052,4.8978052 0 0 1 -6.92654,0 4.8978052,4.8978052 0 0 1 0,-6.92654231 4.8978052,4.8978052 0 0 1 6.92654,0 4.8978052,4.8978052 0 0 1 0,6.92654231 z"
         id="path4950-8" />
      <path
         id="path4952-4"
         style="fill:none;fill-opacity:1;stroke:#0000ff;stroke-width:0.852918;stroke-miterlimit:4;stroke-dasharray:none;stroke-opacity:1"
         d="M 587.0332,18.486328 A 155.47905,155.47905 0 0 0 482.90625,63.916016 155.47905,155.47905 0 0 0 439.92383,201.73633 c 14.57902,-0.58655 51.12651,-1.76775 71.61523,0.29883 25.7678,2.59904 75.1211,15.30859 75.1211,15.30859 l 11.31054,-0.0937 1.81641,-13.08008 -3.78516,0.875 6.4043,-16.01367 9.02539,-36.97266 2.61914,-18.04882 0.29297,-8.73633 -5.5332,-1.45508 0.58203,2.91211 -83.26172,12.51953 -0.29102,-20.96289 80.35157,-13.68164 4.07617,3.7832 8.73437,-1.74609 6.69532,-8.152346 L 624.5332,93.25 615.79883,91.503906 611.63867,19.564453 A 155.47905,155.47905 0 0 0 587.0332,18.486328 Z m 44.1875,4.763672 -0.86523,67.378906 -2.03906,1.166016 0.58203,3.785156 3.78711,-1.164062 9.60547,4.074218 4.94921,-6.404296 68.08204,-13.990235 A 155.47905,155.47905 0 0 0 702.78711,63.916016 155.47905,155.47905 0 0 0 631.2207,23.25 Z m 96.96094,74.095703 -70.67187,9.753907 8.64648,6.79297 7,8.64844 -2.67773,2.05664 -5.76172,0.20703 0.61523,3.29297 5.14649,25.52539 4.11718,17.49804 7.4336,21.98633 6.11523,10.33594 -5.38476,0.72656 2.28515,12.34961 57.44141,-0.48242 A 155.47905,155.47905 0 0 0 728.18164,97.345703 Z"
         transform="scale(0.26458333)" />
    </g>
  </g>
  <inkscape:templateinfo>
    <inkscape:name>Lasersaur</inkscape:name>
    <inkscape:author>Arthur</inkscape:author>
    <inkscape:shortdesc>Default size of the Lasersaur</inkscape:shortdesc>
    <inkscape:date>2021-10-20</inkscape:date>
  </inkscape:templateinfo>
</svg>
